<?xml version="1.0" encoding="UTF-8" standalone="no"?>
<!-- Created with Inkscape (http://www.inkscape.org/) -->

<svg
   xmlns:dc="http://purl.org/dc/elements/1.1/"
   xmlns:cc="http://creativecommons.org/ns#"
   xmlns:rdf="http://www.w3.org/1999/02/22-rdf-syntax-ns#"
   xmlns:svg="http://www.w3.org/2000/svg"
   xmlns="http://www.w3.org/2000/svg"
   xmlns:xlink="http://www.w3.org/1999/xlink"
   xmlns:sodipodi="http://sodipodi.sourceforge.net/DTD/sodipodi-0.dtd"
   xmlns:inkscape="http://www.inkscape.org/namespaces/inkscape"
   width="1016mm"
   height="571.5mm"
   viewBox="0 0 1016 571.5"
   version="1.1"
   id="svg8"
   inkscape:version="0.92.1 r"
   sodipodi:docname="abstrak.svg"
   inkscape:export-filename="/home/belthsazar2/blankon-uluwatu-kesenian/gambar-latar/bliem/abstrak.png"
   inkscape:export-xdpi="96"
   inkscape:export-ydpi="96">
  <title
     id="title8265">Abstract Orange</title>
  <defs
     id="defs2">
    <linearGradient
       inkscape:collect="always"
       id="linearGradient5146">
      <stop
         style="stop-color:#ff9800;stop-opacity:1"
         offset="0"
         id="stop5142" />
      <stop
         style="stop-color:#fff3e0;stop-opacity:0;"
         offset="1"
         id="stop5144" />
    </linearGradient>
    <linearGradient
       inkscape:collect="always"
       id="linearGradient5130">
      <stop
         style="stop-color:#ff9800;stop-opacity:1"
         offset="0"
         id="stop5126" />
      <stop
         id="stop8250"
         offset="0.33483765"
         style="stop-color:#ffc062;stop-opacity:0.55294118;" />
      <stop
         id="stop8248"
         offset="0.54485065"
         style="stop-color:#ffe0b1;stop-opacity:0.20392157;" />
      <stop
         style="stop-color:#ff9800;stop-opacity:1"
         offset="1"
         id="stop5128" />
    </linearGradient>
    <linearGradient
       inkscape:collect="always"
       id="linearGradient5118">
      <stop
         style="stop-color:#ff9b07;stop-opacity:1"
         offset="0"
         id="stop5114" />
      <stop
         id="stop8252"
         offset="0.30289567"
         style="stop-color:#ffd08b;stop-opacity:0.38823529;" />
      <stop
         style="stop-color:#ffb344;stop-opacity:0.69803922;"
         offset="0.76243478"
         id="stop8254" />
      <stop
         style="stop-color:#ff9800;stop-opacity:1"
         offset="1"
         id="stop5116" />
    </linearGradient>
    <inkscape:path-effect
       effect="powerstroke"
       id="path-effect5085"
       is_visible="true"
       offset_points="0.2,1.5 | 2.0132253,10.571318 | 3.8,1.5"
       sort_points="true"
       interpolator_type="CubicBezierFit"
       interpolator_beta="0.2"
       start_linecap_type="butt"
       linejoin_type="extrp_arc"
       miter_limit="4"
       end_linecap_type="butt" />
    <inkscape:path-effect
       only_selected="false"
       apply_with_weight="true"
       apply_no_weight="true"
       helper_size="0"
       steps="2"
       weight="33.333333"
       is_visible="true"
       id="path-effect5068"
       effect="bspline" />
    <inkscape:path-effect
       effect="bspline"
       id="path-effect5064"
       is_visible="true"
       weight="33.333333"
       steps="2"
       helper_size="0"
       apply_no_weight="true"
       apply_with_weight="true"
       only_selected="false" />
    <linearGradient
       inkscape:collect="always"
       xlink:href="#linearGradient5118"
       id="linearGradient5120"
       x1="2280"
       y1="0"
       x2="2280"
       y2="2160"
       gradientUnits="userSpaceOnUse" />
    <linearGradient
       inkscape:collect="always"
       xlink:href="#linearGradient5130"
       id="linearGradient5132"
       x1="3632.7893"
       y1="1828.5714"
       x2="-7.1054274e-15"
       y2="1828.5714"
       gradientUnits="userSpaceOnUse" />
    <linearGradient
       inkscape:collect="always"
       xlink:href="#linearGradient5146"
       id="linearGradient5148"
       x1="0"
       y1="433.01562"
       x2="806.70081"
       y2="1037.0109"
       gradientUnits="userSpaceOnUse" />
  </defs>
  <sodipodi:namedview
     id="base"
     pagecolor="#ffffff"
     bordercolor="#666666"
     borderopacity="1.0"
     inkscape:pageopacity="0.0"
     inkscape:pageshadow="2"
     inkscape:zoom="0.35"
     inkscape:cx="400"
     inkscape:cy="560"
     inkscape:document-units="mm"
     inkscape:current-layer="layer1"
     showgrid="false"
     fit-margin-top="0"
     fit-margin-left="0"
     fit-margin-right="0"
     fit-margin-bottom="0"
     inkscape:object-paths="true"
     inkscape:snap-intersection-paths="true"
     inkscape:snap-smooth-nodes="true"
     inkscape:snap-midpoints="true" />
  <metadata
     id="metadata5">
    <rdf:RDF>
      <cc:Work
         rdf:about="">
        <dc:format>image/svg+xml</dc:format>
        <dc:type
           rdf:resource="http://purl.org/dc/dcmitype/StillImage" />
        <dc:title>Abstract Orange</dc:title>
        <dc:creator>
          <cc:Agent>
            <dc:title>Vikko Okviandho Liem</dc:title>
          </cc:Agent>
        </dc:creator>
        <dc:publisher>
          <cc:Agent>
            <dc:title>Belthsazar Liem of ISO-arts</dc:title>
          </cc:Agent>
        </dc:publisher>
        <dc:date>2017-03-09</dc:date>
        <cc:license
           rdf:resource="http://creativecommons.org/licenses/by/4.0/" />
      </cc:Work>
      <cc:License
         rdf:about="http://creativecommons.org/licenses/by/4.0/">
        <cc:permits
           rdf:resource="http://creativecommons.org/ns#Reproduction" />
        <cc:permits
           rdf:resource="http://creativecommons.org/ns#Distribution" />
        <cc:requires
           rdf:resource="http://creativecommons.org/ns#Notice" />
        <cc:requires
           rdf:resource="http://creativecommons.org/ns#Attribution" />
        <cc:permits
           rdf:resource="http://creativecommons.org/ns#DerivativeWorks" />
      </cc:License>
    </rdf:RDF>
  </metadata>
  <g
     inkscape:label="Layer 1"
     inkscape:groupmode="layer"
     id="layer1"
     transform="translate(523.21881,46.406487)">
    <g
       id="g8261">
      <path
         id="rect4485"
         d="m -523.21881,-46.406487 h 1016 V 525.09351 h -1016 z"
         style="opacity:1;fill:#ffe0b2;fill-opacity:1;fill-rule:nonzero;stroke:none;stroke-width:0.52916664;stroke-linecap:round;stroke-linejoin:round;stroke-miterlimit:4;stroke-dasharray:none;stroke-dashoffset:0;stroke-opacity:1;paint-order:normal" />
      <path
         id="path5062"
         transform="matrix(0.26458333,0,0,0.26458333,-523.21881,-46.406487)"
         d="M 0 0 C 0 0 79.222831 146.28483 120.74805 217.48242 C 183.00427 324.22461 247.15667 428.26562 316.39648 524.5332 C 431.57812 684.67592 562.18855 825.25366 723.89844 920.9668 C 812.04333 973.13809 908.78791 1011.6197 1011.5801 1040.0117 C 858.63744 1039.4635 708.668 1036.4829 565.76953 1022.668 C 366.19547 1003.3777 181.37353 963.03208 23.587891 879.03125 C 15.661879 874.81165 7.8020544 870.47473 0 866.03125 L 0 920.9668 C 162.1869 1016.9621 353.48134 1066.6215 558.01172 1092.3281 C 762.19045 1117.9906 980.33053 1119.8554 1196.1016 1119.9512 C 1196.5959 1119.9514 1212.7498 1119.9512 1213.2441 1119.9512 C 1318.61 1119.9587 1423.2614 1115.1882 1525.9102 1112.7754 C 1624.9258 1117.6498 1725.5849 1119.221 1826.248 1119.7188 C 1826.2981 1119.7236 1826.3484 1119.7276 1826.3984 1119.7324 L 1826.4004 1119.7188 C 1857.6172 1119.8728 1888.8328 1119.9373 1920 1119.9512 C 1920.4944 1119.9514 1936.6482 1119.9551 1937.1426 1119.9551 C 2147.8155 1119.9702 2355.6309 1118.7999 2550.2969 1137.6543 C 2749.84 1156.9811 2934.6162 1197.2904 3092.373 1281.2168 C 3250.6611 1365.4258 3383.9631 1494.7736 3504.7422 1649.5898 C 3577.0554 1742.2819 3644.3746 1843.4412 3709.5371 1948.3633 C 3752.9565 2018.2756 3840 2160 3840 2160 C 3840 2160 3760.7642 2013.721 3719.252 1942.5156 C 3657.0156 1835.7625 3592.8905 1731.7018 3523.6797 1635.4082 C 3408.5493 1475.2262 3277.9744 1334.5643 3116.2441 1238.7812 C 2954.0316 1142.7126 2762.6887 1093.0177 2558.127 1067.3438 C 2359.3028 1042.3899 2147.2924 1040.0602 1937.1484 1040.0449 L 1920 1040.0488 C 1703.499 1040.1448 1489.6741 1042.0078 1289.668 1022.6719 C 1090.0939 1003.3777 905.27197 963.03208 747.48633 879.03125 C 589.17707 794.7516 455.9066 665.32176 335.17969 510.4668 C 262.89532 417.74846 195.60535 316.56947 130.46289 211.63672 C 87.056377 141.71665 0 -3.7895613e-14 0 0 z "
         style="opacity:1;fill:#ff9100;fill-opacity:1;fill-rule:nonzero;stroke:none;stroke-width:11.33858299;stroke-linecap:round;stroke-linejoin:round;stroke-miterlimit:2.61538458;stroke-dasharray:none;stroke-dashoffset:0;stroke-opacity:1;paint-order:normal" />
      <path
         transform="matrix(0.26458333,0,0,0.26458333,-523.21881,-46.406487)"
         id="path5112"
         d="m 0,0 c 0,0 87.056378,141.71665 130.46289,211.63672 65.14246,104.93275 132.43243,206.11174 204.7168,298.83008 120.72691,154.85495 253.99738,284.2848 412.30664,368.56445 157.78564,84.00083 342.60757,124.34645 542.18167,143.64065 200.0061,19.3359 413.831,17.4729 630.332,17.3769 l 17.1484,-0 c 210.144,0.015 422.1544,2.345 620.9786,27.2989 204.5617,25.6738 395.9046,75.3689 558.1171,171.4374 161.7303,95.7831 292.3052,236.445 407.4356,396.627 69.2108,96.2936 133.3359,200.3543 195.5723,307.1074 C 3760.7642,2013.721 3840,2160 3840,2160 V 0 Z"
         style="opacity:1;fill:url(#linearGradient5120);fill-opacity:1;fill-rule:nonzero;stroke:none;stroke-width:1.99999988;stroke-linecap:round;stroke-linejoin:round;stroke-miterlimit:4;stroke-dasharray:none;stroke-dashoffset:0;stroke-opacity:1;paint-order:normal" />
      <path
         id="path5110"
         transform="matrix(0.26458333,0,0,0.26458333,-523.21881,-46.406487)"
         d="m 0,0 v 866.03125 c 7.8020543,4.44348 15.661879,8.7804 23.587891,13 157.785639,84.00083 342.607579,124.34645 542.181639,143.63675 142.89847,13.8149 292.86789,16.7955 445.81057,17.3437 C 908.78789,1011.6197 812.04333,973.13809 723.89844,920.9668 562.18855,825.25366 431.57812,684.67592 316.39648,524.5332 247.15668,428.26562 183.00427,324.22461 120.74805,217.48242 79.222828,146.28483 0,0 0,0 Z"
         style="opacity:1;fill:url(#linearGradient5148);fill-opacity:1;fill-rule:nonzero;stroke:none;stroke-width:1.99999988;stroke-linecap:round;stroke-linejoin:round;stroke-miterlimit:4;stroke-dasharray:none;stroke-dashoffset:0;stroke-opacity:1;paint-order:normal" />
      <path
         id="path5105"
         transform="matrix(0.26458333,0,0,0.26458333,-523.21881,-46.406487)"
         d="m 3840,2160 c 0,0 -87.0435,-141.7244 -130.4629,-211.6367 -65.1625,-104.9221 -132.4817,-206.0814 -204.7949,-298.7735 -120.7791,-154.8162 -254.0811,-284.164 -412.3692,-368.373 -157.7568,-83.9264 -342.533,-124.2357 -542.0761,-143.5625 -194.666,-18.8544 -402.4814,-17.6841 -613.1543,-17.6992 -0.4944,0 -16.6482,-0 -17.1426,-0 -31.1672,-0.014 -62.3828,-0.079 -93.5996,-0.2324 l -0,0.014 c -0.05,-0 -0.1003,-0.01 -0.1504,-0.014 -100.6631,-0.4978 -201.3222,-2.069 -300.3378,-6.9434 -102.6488,2.4128 -207.3002,7.1833 -312.6661,7.1758 -0.4943,0 -16.6482,2e-4 -17.1425,0 -215.7711,-0.096 -433.91115,-1.9606 -638.08988,-27.6231 C 353.48134,1066.6215 162.1869,1016.9621 0,920.9668 V 2160 Z"
         style="opacity:1;fill:url(#linearGradient5132);fill-opacity:1;fill-rule:nonzero;stroke:none;stroke-width:1.99999988;stroke-linecap:round;stroke-linejoin:round;stroke-miterlimit:4;stroke-dasharray:none;stroke-dashoffset:0;stroke-opacity:1;paint-order:normal" />
    </g>
  </g>
</svg>
