<?xml version="1.0" encoding="UTF-8" standalone="no"?>
<!-- Created with Inkscape (http://www.inkscape.org/) -->

<svg
   xmlns:dc="http://purl.org/dc/elements/1.1/"
   xmlns:cc="http://creativecommons.org/ns#"
   xmlns:rdf="http://www.w3.org/1999/02/22-rdf-syntax-ns#"
   xmlns:svg="http://www.w3.org/2000/svg"
   xmlns="http://www.w3.org/2000/svg"
   xmlns:sodipodi="http://sodipodi.sourceforge.net/DTD/sodipodi-0.dtd"
   xmlns:inkscape="http://www.inkscape.org/namespaces/inkscape"
   width="1016mm"
   height="571.5mm"
   viewBox="0 0 1016 571.5"
   version="1.1"
   id="svg8"
   inkscape:version="0.92.1 r"
   sodipodi:docname="uluwatu floral.svg"
   inkscape:export-filename="/home/belthsazar2/blankon-uluwatu-kesenian/gambar-latar/bliem/uluwatu floral..png"
   inkscape:export-xdpi="96"
   inkscape:export-ydpi="96">
  <title
     id="title5527">Uluwatu Floral</title>
  <defs
     id="defs2">
    <inkscape:path-effect
       effect="powerstroke"
       id="path-effect5432"
       is_visible="true"
       offset_points="0.21637922,1.6129019 | 5.0021043,16.012481 | 9.7505176,1.6118263"
       sort_points="true"
       interpolator_type="CubicBezierFit"
       interpolator_beta="0.2"
       start_linecap_type="zerowidth"
       linejoin_type="extrp_arc"
       miter_limit="4"
       end_linecap_type="zerowidth" />
    <inkscape:path-effect
       effect="bspline"
       id="path-effect5423"
       is_visible="true"
       weight="33.333333"
       steps="2"
       helper_size="0"
       apply_no_weight="true"
       apply_with_weight="true"
       only_selected="false" />
  </defs>
  <sodipodi:namedview
     id="base"
     pagecolor="#ffffff"
     bordercolor="#666666"
     borderopacity="1.0"
     inkscape:pageopacity="0.0"
     inkscape:pageshadow="2"
     inkscape:zoom="0.35"
     inkscape:cx="400"
     inkscape:cy="560"
     inkscape:document-units="mm"
     inkscape:current-layer="layer1"
     showgrid="false"
     fit-margin-top="0"
     fit-margin-left="0"
     fit-margin-right="0"
     fit-margin-bottom="0"
     inkscape:snap-nodes="true"
     inkscape:object-paths="true"
     inkscape:snap-intersection-paths="true"
     inkscape:snap-smooth-nodes="true"
     inkscape:snap-midpoints="true" />
  <metadata
     id="metadata5">
    <rdf:RDF>
      <cc:Work
         rdf:about="">
        <dc:format>image/svg+xml</dc:format>
        <dc:type
           rdf:resource="http://purl.org/dc/dcmitype/StillImage" />
        <dc:title>Uluwatu Floral</dc:title>
        <dc:creator>
          <cc:Agent>
            <dc:title>Vikko Okviandho Liem</dc:title>
          </cc:Agent>
        </dc:creator>
        <dc:publisher>
          <cc:Agent>
            <dc:title>Belthsazar Liem of ISO-arts</dc:title>
          </cc:Agent>
        </dc:publisher>
        <dc:date>2017-03-29</dc:date>
        <cc:license
           rdf:resource="http://creativecommons.org/licenses/by-sa/4.0/" />
      </cc:Work>
      <cc:License
         rdf:about="http://creativecommons.org/licenses/by-sa/4.0/">
        <cc:permits
           rdf:resource="http://creativecommons.org/ns#Reproduction" />
        <cc:permits
           rdf:resource="http://creativecommons.org/ns#Distribution" />
        <cc:requires
           rdf:resource="http://creativecommons.org/ns#Notice" />
        <cc:requires
           rdf:resource="http://creativecommons.org/ns#Attribution" />
        <cc:permits
           rdf:resource="http://creativecommons.org/ns#DerivativeWorks" />
        <cc:requires
           rdf:resource="http://creativecommons.org/ns#ShareAlike" />
      </cc:License>
    </rdf:RDF>
  </metadata>
  <g
     inkscape:label="Layer 1"
     inkscape:groupmode="layer"
     id="layer1"
     transform="translate(523.21881,46.406487)">
    <path
       style="opacity:1;fill:#e0f2f1;fill-opacity:1;fill-rule:nonzero;stroke:none;stroke-width:20;stroke-linecap:butt;stroke-linejoin:miter;stroke-miterlimit:100;stroke-dasharray:none;stroke-dashoffset:0;stroke-opacity:1;paint-order:normal"
       d="m -1173.4893,317.62736 c 10e-5,10e-6 0.6495,0.0703 0.6496,0.0703"
       id="path5441" />
    <path
       style="opacity:1;fill:#e0f2f1;fill-opacity:1;fill-rule:nonzero;stroke:none;stroke-width:20;stroke-linecap:butt;stroke-linejoin:miter;stroke-miterlimit:100;stroke-dasharray:none;stroke-dashoffset:0;stroke-opacity:1;paint-order:normal"
       d="m -1169.405,285.85743 c 10e-5,0 -0.6246,-0.0676 -0.6245,-0.0676"
       id="path5437" />
    <g
       id="g5525">
      <rect
         y="-46.406487"
         x="-523.21881"
         height="571.5"
         width="1016"
         id="rect4485"
         style="opacity:1;fill:#fff8e1;fill-opacity:1;fill-rule:nonzero;stroke:none;stroke-width:0.52916664;stroke-linecap:round;stroke-linejoin:round;stroke-miterlimit:4;stroke-dasharray:none;stroke-dashoffset:0;stroke-opacity:1;paint-order:normal" />
      <g
         style="stroke:none"
         transform="matrix(1.6711307,0,0,1.6711307,228.40488,14.492434)"
         id="g4691">
        <path
           style="opacity:1;fill:#ffab00;fill-opacity:1;fill-rule:nonzero;stroke:none;stroke-width:3;stroke-linecap:round;stroke-linejoin:miter;stroke-miterlimit:100;stroke-dasharray:none;stroke-dashoffset:0;stroke-opacity:1;paint-order:normal"
           inkscape:transform-center-x="-1.2617429e-06"
           inkscape:transform-center-y="-5.8863527"
           d="m -136.57561,60.929844 c 29.01757,0 -0.96675,69.735416 4.16665,73.465056 5.13341,3.72964 63.944213,-45.062122 72.911133,-17.46476 8.96692,27.59735 -68.375203,19.35554 -70.335983,25.39022 -1.96079,6.03468 64.370603,48.16403 40.894883,65.22014 -23.475713,17.05611 -41.291453,-60.32193 -47.636683,-60.32193 -6.34524,0 -24.16098,77.37804 -47.63669,60.32193 -23.47572,-17.05611 42.85567,-59.18546 40.89488,-65.22014 -1.96079,-6.03468 -79.30291,2.20713 -70.33598,-25.39023 8.96692,-27.597352 67.77772,21.19441 72.91112,17.46477 5.13341,-3.72964 -24.85091,-73.465056 4.16667,-73.465056 z"
           id="path4485"
           inkscape:connector-curvature="0"
           sodipodi:nodetypes="zzzzzzzzzzz" />
        <path
           inkscape:connector-curvature="0"
           id="path4488"
           d="m -119.32669,139.49779 a 17.24893,17.24893 0 0 1 -17.24893,17.24893 17.24893,17.24893 0 0 1 -17.24893,-17.24893 17.24893,17.24893 0 0 1 17.24893,-17.24893 17.24893,17.24893 0 0 1 17.24893,17.24893 z"
           style="opacity:1;fill:#ffea00;fill-opacity:1;fill-rule:nonzero;stroke:none;stroke-width:3.59038353;stroke-linecap:round;stroke-linejoin:miter;stroke-miterlimit:100;stroke-dasharray:none;stroke-dashoffset:0;stroke-opacity:1;paint-order:normal" />
        <g
           style="stroke:none"
           id="g4503"
           transform="matrix(0.50148314,0,0,0.50148314,4.8277029,59.742564)">
          <path
             inkscape:connector-curvature="0"
             id="circle4490"
             d="m -262.69346,304.9375 a 19.276785,19.276785 0 0 1 -19.27679,19.27678 19.276785,19.276785 0 0 1 -19.27678,-19.27678 19.276785,19.276785 0 0 1 19.27678,-19.27678 19.276785,19.276785 0 0 1 19.27679,19.27678 z"
             style="opacity:1;fill:#ffea00;fill-opacity:1;fill-rule:nonzero;stroke:none;stroke-width:5.98225498;stroke-linecap:round;stroke-linejoin:miter;stroke-miterlimit:100;stroke-dasharray:none;stroke-dashoffset:0;stroke-opacity:1;paint-order:normal" />
          <path
             inkscape:connector-curvature="0"
             id="circle4492"
             d="m -271.76489,252.77678 a 10.205357,10.205357 0 0 1 -10.20536,10.20536 10.205357,10.205357 0 0 1 -10.20535,-10.20536 10.205357,10.205357 0 0 1 10.20535,-10.20536 10.205357,10.205357 0 0 1 10.20536,10.20536 z"
             style="opacity:1;fill:#ffea00;fill-opacity:1;fill-rule:nonzero;stroke:none;stroke-width:3.98816991;stroke-linecap:round;stroke-linejoin:miter;stroke-miterlimit:100;stroke-dasharray:none;stroke-dashoffset:0;stroke-opacity:1;paint-order:normal" />
          <path
             inkscape:connector-curvature="0"
             id="circle4494"
             d="m -276.3006,214.22321 a 5.6696424,5.6696424 0 0 1 -5.66965,5.66964 5.6696424,5.6696424 0 0 1 -5.66964,-5.66964 5.6696424,5.6696424 0 0 1 5.66964,-5.66965 5.6696424,5.6696424 0 0 1 5.66965,5.66965 z"
             style="opacity:1;fill:#ffea00;fill-opacity:1;fill-rule:nonzero;stroke:none;stroke-width:3;stroke-linecap:round;stroke-linejoin:miter;stroke-miterlimit:100;stroke-dasharray:none;stroke-dashoffset:0;stroke-opacity:1;paint-order:normal" />
        </g>
        <g
           style="stroke:none"
           id="g4511"
           transform="matrix(0.12979339,-0.48439552,0.48439552,0.12979339,-180.11554,-15.718634)">
          <path
             inkscape:connector-curvature="0"
             id="circle4505"
             d="m -262.69346,304.9375 a 19.276785,19.276785 0 0 1 -19.27679,19.27678 19.276785,19.276785 0 0 1 -19.27678,-19.27678 19.276785,19.276785 0 0 1 19.27678,-19.27678 19.276785,19.276785 0 0 1 19.27679,19.27678 z"
             style="opacity:1;fill:#ffea00;fill-opacity:1;fill-rule:nonzero;stroke:none;stroke-width:5.98225498;stroke-linecap:round;stroke-linejoin:miter;stroke-miterlimit:100;stroke-dasharray:none;stroke-dashoffset:0;stroke-opacity:1;paint-order:normal" />
          <path
             inkscape:connector-curvature="0"
             id="circle4507"
             d="m -271.76489,252.77678 a 10.205357,10.205357 0 0 1 -10.20536,10.20536 10.205357,10.205357 0 0 1 -10.20535,-10.20536 10.205357,10.205357 0 0 1 10.20535,-10.20536 10.205357,10.205357 0 0 1 10.20536,10.20536 z"
             style="opacity:1;fill:#ffea00;fill-opacity:1;fill-rule:nonzero;stroke:none;stroke-width:3.98816991;stroke-linecap:round;stroke-linejoin:miter;stroke-miterlimit:100;stroke-dasharray:none;stroke-dashoffset:0;stroke-opacity:1;paint-order:normal" />
          <path
             inkscape:connector-curvature="0"
             id="circle4509"
             d="m -276.3006,214.22321 a 5.6696424,5.6696424 0 0 1 -5.66965,5.66964 5.6696424,5.6696424 0 0 1 -5.66964,-5.66964 5.6696424,5.6696424 0 0 1 5.66964,-5.66965 5.6696424,5.6696424 0 0 1 5.66965,5.66965 z"
             style="opacity:1;fill:#ffea00;fill-opacity:1;fill-rule:nonzero;stroke:none;stroke-width:3;stroke-linecap:round;stroke-linejoin:miter;stroke-miterlimit:100;stroke-dasharray:none;stroke-dashoffset:0;stroke-opacity:1;paint-order:normal" />
        </g>
        <g
           style="stroke:none"
           transform="matrix(-0.43429714,-0.25074157,0.25074157,-0.43429714,-296.99839,140.36598)"
           id="g4519">
          <path
             inkscape:connector-curvature="0"
             id="circle4513"
             d="m -262.69346,304.9375 a 19.276785,19.276785 0 0 1 -19.27679,19.27678 19.276785,19.276785 0 0 1 -19.27678,-19.27678 19.276785,19.276785 0 0 1 19.27678,-19.27678 19.276785,19.276785 0 0 1 19.27679,19.27678 z"
             style="opacity:1;fill:#ffea00;fill-opacity:1;fill-rule:nonzero;stroke:none;stroke-width:5.98225498;stroke-linecap:round;stroke-linejoin:miter;stroke-miterlimit:100;stroke-dasharray:none;stroke-dashoffset:0;stroke-opacity:1;paint-order:normal" />
          <path
             inkscape:connector-curvature="0"
             id="circle4515"
             d="m -271.76489,252.77678 a 10.205357,10.205357 0 0 1 -10.20536,10.20536 10.205357,10.205357 0 0 1 -10.20535,-10.20536 10.205357,10.205357 0 0 1 10.20535,-10.20536 10.205357,10.205357 0 0 1 10.20536,10.20536 z"
             style="opacity:1;fill:#ffea00;fill-opacity:1;fill-rule:nonzero;stroke:none;stroke-width:3.98816991;stroke-linecap:round;stroke-linejoin:miter;stroke-miterlimit:100;stroke-dasharray:none;stroke-dashoffset:0;stroke-opacity:1;paint-order:normal" />
          <path
             inkscape:connector-curvature="0"
             id="circle4517"
             d="m -276.3006,214.22321 a 5.6696424,5.6696424 0 0 1 -5.66965,5.66964 5.6696424,5.6696424 0 0 1 -5.66964,-5.66964 5.6696424,5.6696424 0 0 1 5.66964,-5.66965 5.6696424,5.6696424 0 0 1 5.66965,5.66965 z"
             style="opacity:1;fill:#ffea00;fill-opacity:1;fill-rule:nonzero;stroke:none;stroke-width:3;stroke-linecap:round;stroke-linejoin:miter;stroke-miterlimit:100;stroke-dasharray:none;stroke-dashoffset:0;stroke-opacity:1;paint-order:normal" />
        </g>
        <g
           style="stroke:none"
           transform="matrix(-0.12979339,-0.48439552,-0.48439552,0.12979339,-93.117537,-15.182508)"
           id="g4527">
          <path
             inkscape:connector-curvature="0"
             id="circle4521"
             d="m -262.69346,304.9375 a 19.276785,19.276785 0 0 1 -19.27679,19.27678 19.276785,19.276785 0 0 1 -19.27678,-19.27678 19.276785,19.276785 0 0 1 19.27678,-19.27678 19.276785,19.276785 0 0 1 19.27679,19.27678 z"
             style="opacity:1;fill:#ffea00;fill-opacity:1;fill-rule:nonzero;stroke:none;stroke-width:5.98225498;stroke-linecap:round;stroke-linejoin:miter;stroke-miterlimit:100;stroke-dasharray:none;stroke-dashoffset:0;stroke-opacity:1;paint-order:normal" />
          <path
             inkscape:connector-curvature="0"
             id="circle4523"
             d="m -271.76489,252.77678 a 10.205357,10.205357 0 0 1 -10.20536,10.20536 10.205357,10.205357 0 0 1 -10.20535,-10.20536 10.205357,10.205357 0 0 1 10.20535,-10.20536 10.205357,10.205357 0 0 1 10.20536,10.20536 z"
             style="opacity:1;fill:#ffea00;fill-opacity:1;fill-rule:nonzero;stroke:none;stroke-width:3.98816991;stroke-linecap:round;stroke-linejoin:miter;stroke-miterlimit:100;stroke-dasharray:none;stroke-dashoffset:0;stroke-opacity:1;paint-order:normal" />
          <path
             inkscape:connector-curvature="0"
             id="circle4525"
             d="m -276.3006,214.22321 a 5.6696424,5.6696424 0 0 1 -5.66965,5.66964 5.6696424,5.6696424 0 0 1 -5.66964,-5.66964 5.6696424,5.6696424 0 0 1 5.66964,-5.66965 5.6696424,5.6696424 0 0 1 5.66965,5.66965 z"
             style="opacity:1;fill:#ffea00;fill-opacity:1;fill-rule:nonzero;stroke:none;stroke-width:3;stroke-linecap:round;stroke-linejoin:miter;stroke-miterlimit:100;stroke-dasharray:none;stroke-dashoffset:0;stroke-opacity:1;paint-order:normal" />
        </g>
        <g
           style="stroke:none"
           id="g4535"
           transform="matrix(0.43429714,-0.25074157,-0.25074157,-0.43429714,23.801213,141.43823)">
          <path
             inkscape:connector-curvature="0"
             id="circle4529"
             d="m -262.69346,304.9375 a 19.276785,19.276785 0 0 1 -19.27679,19.27678 19.276785,19.276785 0 0 1 -19.27678,-19.27678 19.276785,19.276785 0 0 1 19.27678,-19.27678 19.276785,19.276785 0 0 1 19.27679,19.27678 z"
             style="opacity:1;fill:#ffea00;fill-opacity:1;fill-rule:nonzero;stroke:none;stroke-width:5.98225498;stroke-linecap:round;stroke-linejoin:miter;stroke-miterlimit:100;stroke-dasharray:none;stroke-dashoffset:0;stroke-opacity:1;paint-order:normal" />
          <path
             inkscape:connector-curvature="0"
             id="circle4531"
             d="m -271.76489,252.77678 a 10.205357,10.205357 0 0 1 -10.20536,10.20536 10.205357,10.205357 0 0 1 -10.20535,-10.20536 10.205357,10.205357 0 0 1 10.20535,-10.20536 10.205357,10.205357 0 0 1 10.20536,10.20536 z"
             style="opacity:1;fill:#ffea00;fill-opacity:1;fill-rule:nonzero;stroke:none;stroke-width:3.98816991;stroke-linecap:round;stroke-linejoin:miter;stroke-miterlimit:100;stroke-dasharray:none;stroke-dashoffset:0;stroke-opacity:1;paint-order:normal" />
          <path
             inkscape:connector-curvature="0"
             id="circle4533"
             d="m -276.3006,214.22321 a 5.6696424,5.6696424 0 0 1 -5.66965,5.66964 5.6696424,5.6696424 0 0 1 -5.66964,-5.66964 5.6696424,5.6696424 0 0 1 5.66964,-5.66965 5.6696424,5.6696424 0 0 1 5.66965,5.66965 z"
             style="opacity:1;fill:#ffea00;fill-opacity:1;fill-rule:nonzero;stroke:none;stroke-width:3;stroke-linecap:round;stroke-linejoin:miter;stroke-miterlimit:100;stroke-dasharray:none;stroke-dashoffset:0;stroke-opacity:1;paint-order:normal" />
        </g>
        <g
           style="stroke:none"
           id="g4607">
          <path
             inkscape:connector-curvature="0"
             id="path4537"
             transform="scale(0.26458333)"
             d="m -736.21289,102.82227 c -25.07332,0.12553 -58.06297,3.18913 -95.04688,14.33593 -57.81097,24.37749 -106.29343,49.4121 -141.83789,84.82032 -18.93544,18.86287 -35.11264,39.42658 -48.54294,61.19336 -4.688,0.0647 -9.3408,0.0163 -13.9473,-0.16602 -28.3122,-1.12049 -54.6359,-8.49034 -79.4961,-16.375 -18.5544,-5.88471 -36.2954,-13.28916 -48.5215,-18.81445 -12.855,-5.80958 -27.8453,-13.21978 -42.6757,-23.13477 10.0549,15.20044 20.7901,28.0287 32.289,38.62891 11.4572,10.56172 26.8162,21.83977 47.9277,31.49218 18.4553,8.43796 38.4829,13.3233 59.2989,15.98633 -32.3575,15.99238 -60.2208,25.04164 -79.2735,30.36328 -21.3275,5.95708 -41.2962,9.88091 -57.1836,12.60547 -15.3043,2.62459 -35.0509,5.53178 -55.8945,7.30469 -20.7093,1.76149 -51.6723,3.26443 -88.6191,-0.39062 -14.2112,-1.40588 -28.6021,-1.95781 -42.9356,-3.98047 13.2914,5.70502 26.7083,11.55151 40.8926,15.28125 69.4606,18.26447 123.2621,15.14978 150.9609,11.69922 17.6196,-2.19496 37.971,-6.1284 61.211,-12.83399 19.8566,-5.72936 48.739,-15.49336 82.2187,-31.92969 -17.9159,26.38869 -35.4711,46.33495 -49.1015,60.46875 -15.9093,16.49677 -31.7369,30.4747 -45.4688,41.80274 -13.5543,11.18158 -30.2111,24.00757 -48.4707,36.33008 -18.116,12.22563 -44.0766,28.24572 -76.8594,42.76171 -11.9425,5.28805 -23.3632,11.93398 -35.539,17.17188 13.1797,-1.25994 26.608,-2.11276 39.6054,-5.54688 67.9357,-17.94961 113.641,-46.90618 140.0352,-67.01171 15.4003,-11.73102 31.8637,-26.21975 48.9531,-44.21289 4.8337,-5.08925 10.1247,-10.88926 15.7383,-17.41016 -3.2884,20.02441 -4.7385,40.28392 -4.3457,60.50586 0.9972,51.33868 13.8343,102.18796 38.1133,148.22461 17.1157,32.45393 42.96401,59.33562 71.4785,83.29492 -24.06996,-28.64621 -40.0014,-60.87913 -54.0859,-91.8457 -20.2767,-44.58074 -29.8594,-92.42686 -29.1114,-139.74024 0.5703,-36.06884 6.9958,-72.1304 19.4473,-106.35351 4.1821,25.83796 10.8056,44.1117 14.8164,53.33203 6.3182,14.52468 21.41355,42.34066 54.81641,70.95312 4.57898,3.92225 10.14752,6.40063 15.30469,9.26563 -2.89531,-5.15229 -4.91445,-10.74708 -8.0332,-15.62305 -11.92683,-18.64683 -19.13929,-35.59734 -23.33789,-46.23633 -3.9713,-10.06303 -8.13863,-22.16918 -10.57813,-29.33789 -3.52354,-10.35435 -14.83813,-40.66261 -16.375,-79.49609 -0.23611,-5.96714 -0.25447,-12.00913 -0.0742,-18.11133 12.83006,-21.03352 28.37289,-40.80326 46.73438,-58.74414 35.28075,-34.47257 84.21527,-63.69199 129.09179,-77.67188 35.92173,-10.90507 67.88138,-13.51237 91.25586,-13.64843 39.9998,-0.23286 76.99515,6.82403 104.63672,14.59179 15.46579,4.34616 34.13139,10.63162 54.18946,20.07422 19.75298,9.29899 45.73782,23.93144 72.76367,47.13086 -44.10244,-51.37649 -91.87173,-76.67464 -119.51758,-88.32422 -29.70455,-12.5171 -66.70831,-22.20686 -111.99805,-22.66601 -1.60002,-0.0162 -3.23665,-0.022 -4.9082,-0.0137 z"
             style="opacity:1;fill:#f57f17;fill-opacity:1;fill-rule:nonzero;stroke:none;stroke-width:30.23622131;stroke-linecap:square;stroke-linejoin:miter;stroke-miterlimit:100;stroke-dasharray:none;stroke-dashoffset:0;stroke-opacity:1;paint-order:normal" />
          <path
             inkscape:connector-curvature="0"
             id="path4586"
             d="m -271.58041,58.578285 a 5.3280959,5.3280959 0 0 1 -5.3281,5.328096 5.3280959,5.3280959 0 0 1 -5.32809,-5.328096 5.3280959,5.3280959 0 0 1 5.32809,-5.328096 5.3280959,5.3280959 0 0 1 5.3281,5.328096 z"
             style="opacity:1;fill:#ffcc80;fill-opacity:1;fill-rule:nonzero;stroke:none;stroke-width:3;stroke-linecap:butt;stroke-linejoin:miter;stroke-miterlimit:100;stroke-dasharray:none;stroke-dashoffset:0;stroke-opacity:1;paint-order:normal" />
          <path
             inkscape:connector-curvature="0"
             id="circle4588"
             d="m -250.19885,33.454948 a 10.138947,10.138947 0 0 1 -10.13895,10.138947 10.138947,10.138947 0 0 1 -10.13895,-10.138947 10.138947,10.138947 0 0 1 10.13895,-10.138946 10.138947,10.138947 0 0 1 10.13895,10.138946 z"
             style="opacity:1;fill:#ffcc80;fill-opacity:1;fill-rule:nonzero;stroke:none;stroke-width:3;stroke-linecap:butt;stroke-linejoin:miter;stroke-miterlimit:100;stroke-dasharray:none;stroke-dashoffset:0;stroke-opacity:1;paint-order:normal" />
          <path
             inkscape:connector-curvature="0"
             id="circle4590"
             d="m -211.17751,11.538847 a 13.88072,13.88072 0 0 1 -13.88072,13.88072 13.88072,13.88072 0 0 1 -13.88072,-13.88072 13.88072,13.88072 0 0 1 13.88072,-13.8807202 13.88072,13.88072 0 0 1 13.88072,13.8807202 z"
             style="opacity:1;fill:#ffcc80;fill-opacity:1;fill-rule:nonzero;stroke:none;stroke-width:3;stroke-linecap:butt;stroke-linejoin:miter;stroke-miterlimit:100;stroke-dasharray:none;stroke-dashoffset:0;stroke-opacity:1;paint-order:normal" />
          <path
             inkscape:connector-curvature="0"
             id="circle4592"
             d="M -160.3963,2.4516833 A 18.157032,18.157032 0 0 1 -178.55333,20.608715 18.157032,18.157032 0 0 1 -196.71036,2.4516833 18.157032,18.157032 0 0 1 -178.55333,-15.705349 18.157032,18.157032 0 0 1 -160.3963,2.4516833 Z"
             style="opacity:1;fill:#ffcc80;fill-opacity:1;fill-rule:nonzero;stroke:none;stroke-width:3;stroke-linecap:butt;stroke-linejoin:miter;stroke-miterlimit:100;stroke-dasharray:none;stroke-dashoffset:0;stroke-opacity:1;paint-order:normal" />
          <path
             inkscape:connector-curvature="0"
             id="circle4594"
             d="m -132.06572,25.436863 a 10.138947,10.138947 0 0 1 -10.13895,10.138946 10.138947,10.138947 0 0 1 -10.13894,-10.138946 10.138947,10.138947 0 0 1 10.13894,-10.138947 10.138947,10.138947 0 0 1 10.13895,10.138947 z"
             style="opacity:1;fill:#ffcc80;fill-opacity:1;fill-rule:nonzero;stroke:none;stroke-width:3;stroke-linecap:butt;stroke-linejoin:miter;stroke-miterlimit:100;stroke-dasharray:none;stroke-dashoffset:0;stroke-opacity:1;paint-order:normal" />
          <path
             inkscape:connector-curvature="0"
             id="circle4596"
             d="m -114.42593,51.094738 a 5.3280959,5.3280959 0 0 1 -5.3281,5.328096 5.3280959,5.3280959 0 0 1 -5.32809,-5.328096 5.3280959,5.3280959 0 0 1 5.32809,-5.328096 5.3280959,5.3280959 0 0 1 5.3281,5.328096 z"
             style="opacity:1;fill:#ffcc80;fill-opacity:1;fill-rule:nonzero;stroke:none;stroke-width:3;stroke-linecap:butt;stroke-linejoin:miter;stroke-miterlimit:100;stroke-dasharray:none;stroke-dashoffset:0;stroke-opacity:1;paint-order:normal" />
        </g>
        <g
           id="g4623"
           transform="matrix(-1.1264261,0,0,-1.1265018,-338.0858,278.04458)"
           style="stroke:none;stroke-width:0.8877337">
          <path
             style="opacity:1;fill:#f57f17;fill-opacity:1;fill-rule:nonzero;stroke:none;stroke-width:26.84171295;stroke-linecap:square;stroke-linejoin:miter;stroke-miterlimit:100;stroke-dasharray:none;stroke-dashoffset:0;stroke-opacity:1;paint-order:normal"
             d="m -736.21289,102.82227 c -25.07332,0.12553 -58.06297,3.18913 -95.04688,14.33593 -57.81097,24.37749 -106.29343,49.4121 -141.83789,84.82032 -18.93544,18.86287 -35.11264,39.42658 -48.54294,61.19336 -4.688,0.0647 -9.3408,0.0163 -13.9473,-0.16602 -28.3122,-1.12049 -54.6359,-8.49034 -79.4961,-16.375 -18.5544,-5.88471 -36.2954,-13.28916 -48.5215,-18.81445 -12.855,-5.80958 -27.8453,-13.21978 -42.6757,-23.13477 10.0549,15.20044 20.7901,28.0287 32.289,38.62891 11.4572,10.56172 26.8162,21.83977 47.9277,31.49218 18.4553,8.43796 38.4829,13.3233 59.2989,15.98633 -32.3575,15.99238 -60.2208,25.04164 -79.2735,30.36328 -21.3275,5.95708 -41.2962,9.88091 -57.1836,12.60547 -15.3043,2.62459 -35.0509,5.53178 -55.8945,7.30469 -20.7093,1.76149 -51.6723,3.26443 -88.6191,-0.39062 -14.2112,-1.40588 -28.6021,-1.95781 -42.9356,-3.98047 13.2914,5.70502 26.7083,11.55151 40.8926,15.28125 69.4606,18.26447 123.2621,15.14978 150.9609,11.69922 17.6196,-2.19496 37.971,-6.1284 61.211,-12.83399 19.8566,-5.72936 48.739,-15.49336 82.2187,-31.92969 -17.9159,26.38869 -35.4711,46.33495 -49.1015,60.46875 -15.9093,16.49677 -31.7369,30.4747 -45.4688,41.80274 -13.5543,11.18158 -30.2111,24.00757 -48.4707,36.33008 -18.116,12.22563 -44.0766,28.24572 -76.8594,42.76171 -11.9425,5.28805 -23.3632,11.93398 -35.539,17.17188 13.1797,-1.25994 26.608,-2.11276 39.6054,-5.54688 67.9357,-17.94961 113.641,-46.90618 140.0352,-67.01171 15.4003,-11.73102 31.8637,-26.21975 48.9531,-44.21289 4.8337,-5.08925 10.1247,-10.88926 15.7383,-17.41016 -3.2884,20.02441 -4.7385,40.28392 -4.3457,60.50586 0.9972,51.33868 13.8343,102.18796 38.1133,148.22461 17.1157,32.45393 42.96401,59.33562 71.4785,83.29492 -24.06996,-28.64621 -40.0014,-60.87913 -54.0859,-91.8457 -20.2767,-44.58074 -29.8594,-92.42686 -29.1114,-139.74024 0.5703,-36.06884 6.9958,-72.1304 19.4473,-106.35351 4.1821,25.83796 10.8056,44.1117 14.8164,53.33203 6.3182,14.52468 21.41355,42.34066 54.81641,70.95312 4.57898,3.92225 10.14752,6.40063 15.30469,9.26563 -2.89531,-5.15229 -4.91445,-10.74708 -8.0332,-15.62305 -11.92683,-18.64683 -19.13929,-35.59734 -23.33789,-46.23633 -3.9713,-10.06303 -8.13863,-22.16918 -10.57813,-29.33789 -3.52354,-10.35435 -14.83813,-40.66261 -16.375,-79.49609 -0.23611,-5.96714 -0.25447,-12.00913 -0.0742,-18.11133 12.83006,-21.03352 28.37289,-40.80326 46.73438,-58.74414 35.28075,-34.47257 84.21527,-63.69199 129.09179,-77.67188 35.92173,-10.90507 67.88138,-13.51237 91.25586,-13.64843 39.9998,-0.23286 76.99515,6.82403 104.63672,14.59179 15.46579,4.34616 34.13139,10.63162 54.18946,20.07422 19.75298,9.29899 45.73782,23.93144 72.76367,47.13086 -44.10244,-51.37649 -91.87173,-76.67464 -119.51758,-88.32422 -29.70455,-12.5171 -66.70831,-22.20686 -111.99805,-22.66601 -1.60002,-0.0162 -3.23665,-0.022 -4.9082,-0.0137 z"
             transform="scale(0.26458333)"
             id="path4609"
             inkscape:connector-curvature="0" />
          <path
             inkscape:connector-curvature="0"
             id="circle4611"
             d="m -271.58041,58.578285 a 5.3280959,5.3280959 0 0 1 -5.3281,5.328096 5.3280959,5.3280959 0 0 1 -5.32809,-5.328096 5.3280959,5.3280959 0 0 1 5.32809,-5.328096 5.3280959,5.3280959 0 0 1 5.3281,5.328096 z"
             style="opacity:1;fill:#ffcc80;fill-opacity:1;fill-rule:nonzero;stroke:none;stroke-width:2.66320109;stroke-linecap:butt;stroke-linejoin:miter;stroke-miterlimit:100;stroke-dasharray:none;stroke-dashoffset:0;stroke-opacity:1;paint-order:normal" />
          <path
             inkscape:connector-curvature="0"
             id="circle4613"
             d="m -250.19885,33.454948 a 10.138947,10.138947 0 0 1 -10.13895,10.138947 10.138947,10.138947 0 0 1 -10.13895,-10.138947 10.138947,10.138947 0 0 1 10.13895,-10.138946 10.138947,10.138947 0 0 1 10.13895,10.138946 z"
             style="opacity:1;fill:#ffcc80;fill-opacity:1;fill-rule:nonzero;stroke:none;stroke-width:2.66320109;stroke-linecap:butt;stroke-linejoin:miter;stroke-miterlimit:100;stroke-dasharray:none;stroke-dashoffset:0;stroke-opacity:1;paint-order:normal" />
          <path
             inkscape:connector-curvature="0"
             id="circle4615"
             d="m -211.17751,11.538847 a 13.88072,13.88072 0 0 1 -13.88072,13.88072 13.88072,13.88072 0 0 1 -13.88072,-13.88072 13.88072,13.88072 0 0 1 13.88072,-13.8807202 13.88072,13.88072 0 0 1 13.88072,13.8807202 z"
             style="opacity:1;fill:#ffcc80;fill-opacity:1;fill-rule:nonzero;stroke:none;stroke-width:2.66320109;stroke-linecap:butt;stroke-linejoin:miter;stroke-miterlimit:100;stroke-dasharray:none;stroke-dashoffset:0;stroke-opacity:1;paint-order:normal" />
          <path
             inkscape:connector-curvature="0"
             id="circle4617"
             d="M -160.3963,2.4516833 A 18.157032,18.157032 0 0 1 -178.55333,20.608715 18.157032,18.157032 0 0 1 -196.71036,2.4516833 18.157032,18.157032 0 0 1 -178.55333,-15.705349 18.157032,18.157032 0 0 1 -160.3963,2.4516833 Z"
             style="opacity:1;fill:#ffcc80;fill-opacity:1;fill-rule:nonzero;stroke:none;stroke-width:2.66320109;stroke-linecap:butt;stroke-linejoin:miter;stroke-miterlimit:100;stroke-dasharray:none;stroke-dashoffset:0;stroke-opacity:1;paint-order:normal" />
          <path
             inkscape:connector-curvature="0"
             id="circle4619"
             d="m -132.06572,25.436863 a 10.138947,10.138947 0 0 1 -10.13895,10.138946 10.138947,10.138947 0 0 1 -10.13894,-10.138946 10.138947,10.138947 0 0 1 10.13894,-10.138947 10.138947,10.138947 0 0 1 10.13895,10.138947 z"
             style="opacity:1;fill:#ffcc80;fill-opacity:1;fill-rule:nonzero;stroke:none;stroke-width:2.66320109;stroke-linecap:butt;stroke-linejoin:miter;stroke-miterlimit:100;stroke-dasharray:none;stroke-dashoffset:0;stroke-opacity:1;paint-order:normal" />
          <path
             inkscape:connector-curvature="0"
             id="circle4621"
             d="m -114.42593,51.094738 a 5.3280959,5.3280959 0 0 1 -5.3281,5.328096 5.3280959,5.3280959 0 0 1 -5.32809,-5.328096 5.3280959,5.3280959 0 0 1 5.32809,-5.328096 5.3280959,5.3280959 0 0 1 5.3281,5.328096 z"
             style="opacity:1;fill:#ffcc80;fill-opacity:1;fill-rule:nonzero;stroke:none;stroke-width:2.66320109;stroke-linecap:butt;stroke-linejoin:miter;stroke-miterlimit:100;stroke-dasharray:none;stroke-dashoffset:0;stroke-opacity:1;paint-order:normal" />
        </g>
        <path
           style="opacity:1;fill:#ffea00;fill-opacity:1;fill-rule:nonzero;stroke:none;stroke-width:8;stroke-linecap:butt;stroke-linejoin:miter;stroke-miterlimit:100;stroke-dasharray:none;stroke-dashoffset:0;stroke-opacity:1;paint-order:normal"
           d="m -283.4063,166.74832 c -0.0406,0.30063 -0.0799,0.6018 -0.11705,0.90331 -0.37084,2.92183 -0.60272,5.87188 -0.11275,8.77051 1.607,9.50712 6.10589,16.91709 10.85817,22.01418 7.87399,8.44534 19.11299,13.54421 31.68797,13.16172 7.62931,-0.23208 16.08802,-2.55962 23.75603,-8.15348 2.53483,-1.84918 4.39978,-4.35349 6.16583,-6.77406 -2.43219,1.77451 -5.16803,3.00673 -7.68224,4.43601 -7.66995,4.36 -15.53222,5.65405 -22.23981,5.42462 -9.75497,-0.33367 -18.76345,-3.96868 -25.81633,-9.61613 4.50768,2.31006 9.65688,3.5427 15.14778,3.37568 5.70584,-0.17356 12.03196,-1.91439 17.76673,-6.09793 1.89576,-1.38297 3.2905,-3.25597 4.61128,-5.06628 -1.81898,1.32712 -3.86497,2.24888 -5.74534,3.31775 -5.73623,3.26077 -11.61617,4.22854 -16.63266,4.05695 -8.12886,-0.27804 -15.56607,-3.6198 -21.05754,-8.69523 -3.35785,-3.10345 -6.9901,-7.80143 -8.85588,-14.25423 -0.58488,-2.02282 -1.31076,-4.11072 -1.66779,-6.35286 -0.0238,-0.14946 -0.0461,-0.29968 -0.0664,-0.45056 z"
           id="path4643"
           inkscape:connector-curvature="0" />
        <path
           style="opacity:1;fill:#ffea00;fill-opacity:1;fill-rule:nonzero;stroke:none;stroke-width:8;stroke-linecap:butt;stroke-linejoin:miter;stroke-miterlimit:100;stroke-dasharray:none;stroke-dashoffset:0;stroke-opacity:1;paint-order:normal"
           d="m -163.35889,-21.137727 c 4.57078,-2.24094 9.31959,-4.38342 14.92863,-5.40345 16.67691,-3.03273 33.22762,-1.36216 46.42669,1.84711 21.869374,5.31739 42.170364,16.5873205 55.332214,32.4173461 7.98537,9.6041899 13.59042,21.3480799 13.20467,33.8370299 -0.12753,4.12851 -2.01624,7.77115 -3.88179,11.24652 0.1227,-3.96146 -0.9381,-8.01361 -1.44704,-11.89437 -1.55251,-11.8386 -8.12596,-22.29391 -15.82673,-30.50843 -12.47861,-13.3110755 -30.37335,-23.305416 -49.058134,-28.840186 -2.55539,-0.75694 -5.30722,-1.47603 -8.20784,-2.12653 2.25323,0.93177 4.38496,1.94304 6.38436,3.0059 17.682184,9.3998005 31.268794,25.9387561 36.272564,47.176256 3.03584,12.88494 2.93344,28.100366 -2.9955,43.456856 -1.95997,5.07646 -5.3181,9.32478 -8.58034,13.3698 1.88094,-4.87096 2.7174,-10.00766 3.98309,-14.86111 3.86103,-14.805906 2.4996,-28.557256 -0.89557,-39.690916 -4.9376,-16.19155 -15.07024,-29.6511895 -27.696344,-38.9312755 5.892974,6.51434 10.268684,14.5866556 12.453544,23.8597955 2.27044,9.63642 2.19417,21.0161 -2.23998,32.50095 -1.46583,3.79657 -3.97745,6.97379 -6.417234,9.998996 1.40671,-3.642906 2.032104,-7.484736 2.978674,-11.114566 2.88762,-11.07308 1.86953,-21.35767 -0.66967,-29.68433 -4.114614,-13.4928295 -13.051274,-24.4512155 -24.018694,-31.372406 -6.7062,-4.23204 -16.2066,-8.20855 -27.85393,-8.43765 -3.89461,-0.0766 -7.98543,-0.38884 -12.17564,0.14866 z"
           id="path4632"
           inkscape:connector-curvature="0" />
      </g>
      <path
         id="path5463"
         transform="matrix(0.26458333,0,0,0.26458333,-523.21881,-46.406487)"
         d="M 0 1101.2617 L 0 2160 L 1058.7383 2160 A 1058.7389 1058.7389 0 0 0 0 1101.2617 z "
         style="opacity:1;fill:#f57f17;fill-opacity:1;fill-rule:nonzero;stroke:none;stroke-width:113.40375519;stroke-linecap:butt;stroke-linejoin:miter;stroke-miterlimit:100;stroke-dasharray:none;stroke-dashoffset:0;stroke-opacity:1;paint-order:normal" />
      <path
         inkscape:connector-curvature="0"
         style="opacity:1;fill:#f57f17;fill-opacity:1;fill-rule:nonzero;stroke:none;stroke-width:30.00474358;stroke-linecap:butt;stroke-linejoin:miter;stroke-miterlimit:100;stroke-dasharray:none;stroke-dashoffset:0;stroke-opacity:1;paint-order:normal"
         d="M 492.78119,233.71802 V -46.406487 H 212.65668 A 280.12466,280.12466 0 0 0 492.78119,233.71802 Z"
         id="path5469" />
      <path
         id="path5471"
         transform="matrix(0.26458333,0,0,0.26458333,-523.21881,-46.406487)"
         d="M 0 203.6543 L 0 855.08398 A 325.7143 325.7143 0 0 0 325.71484 529.36914 A 325.7143 325.7143 0 0 0 0 203.6543 z "
         style="opacity:1;fill:#f57f17;fill-opacity:1;fill-rule:nonzero;stroke:none;stroke-width:75.59055328;stroke-linecap:butt;stroke-linejoin:miter;stroke-miterlimit:100;stroke-dasharray:none;stroke-dashoffset:0;stroke-opacity:1;paint-order:normal" />
      <path
         inkscape:connector-curvature="0"
         style="opacity:1;fill:#f57f17;fill-opacity:1;fill-rule:nonzero;stroke:none;stroke-width:20;stroke-linecap:butt;stroke-linejoin:miter;stroke-miterlimit:100;stroke-dasharray:none;stroke-dashoffset:0;stroke-opacity:1;paint-order:normal"
         d="m 492.78119,298.85254 v 172.35743 a 86.178574,86.178574 0 0 1 -86.17872,-86.17872 86.178574,86.178574 0 0 1 86.17872,-86.17871 z"
         id="path5477" />
    </g>
  </g>
</svg>
