<?xml version="1.0" encoding="UTF-8" standalone="no"?>
<!-- Created with Inkscape (http://www.inkscape.org/) -->

<svg
   xmlns:dc="http://purl.org/dc/elements/1.1/"
   xmlns:cc="http://creativecommons.org/ns#"
   xmlns:rdf="http://www.w3.org/1999/02/22-rdf-syntax-ns#"
   xmlns:svg="http://www.w3.org/2000/svg"
   xmlns="http://www.w3.org/2000/svg"
   xmlns:sodipodi="http://sodipodi.sourceforge.net/DTD/sodipodi-0.dtd"
   xmlns:inkscape="http://www.inkscape.org/namespaces/inkscape"
   width="1016mm"
   height="571.5mm"
   viewBox="0 0 1016 571.5"
   version="1.1"
   id="svg8"
   inkscape:version="0.92.1 r"
   sodipodi:docname="heksaagon abu.svg"
   inkscape:export-filename="/home/belthsazar2/blankon-uluwatu-kesenian/gambar-latar/bliem/heksaagon abu..png"
   inkscape:export-xdpi="96"
   inkscape:export-ydpi="96">
  <title
     id="title40232">Hexagon</title>
  <defs
     id="defs2" />
  <sodipodi:namedview
     id="base"
     pagecolor="#ffffff"
     bordercolor="#666666"
     borderopacity="1.0"
     inkscape:pageopacity="0.0"
     inkscape:pageshadow="2"
     inkscape:zoom="0.35"
     inkscape:cx="400"
     inkscape:cy="560"
     inkscape:document-units="mm"
     inkscape:current-layer="layer1"
     showgrid="false"
     fit-margin-top="0"
     fit-margin-left="0"
     fit-margin-right="0"
     fit-margin-bottom="0"
     inkscape:snap-page="true"
     inkscape:object-paths="true"
     inkscape:snap-intersection-paths="true"
     inkscape:snap-smooth-nodes="true"
     inkscape:snap-midpoints="true"
     inkscape:snap-bbox="true"
     inkscape:bbox-paths="true"
     inkscape:bbox-nodes="true"
     inkscape:snap-bbox-edge-midpoints="false"
     inkscape:snap-bbox-midpoints="true"
     inkscape:snap-object-midpoints="true" />
  <metadata
     id="metadata5">
    <rdf:RDF>
      <cc:Work
         rdf:about="">
        <dc:format>image/svg+xml</dc:format>
        <dc:type
           rdf:resource="http://purl.org/dc/dcmitype/StillImage" />
        <dc:title>Hexagon</dc:title>
        <dc:creator>
          <cc:Agent>
            <dc:title>Vikko Okviandho Liem</dc:title>
          </cc:Agent>
        </dc:creator>
        <dc:publisher>
          <cc:Agent>
            <dc:title>Belthsazar Liem of ISO-arts</dc:title>
          </cc:Agent>
        </dc:publisher>
        <dc:date>2017-04-01</dc:date>
        <cc:license
           rdf:resource="http://creativecommons.org/licenses/by-sa/4.0/" />
      </cc:Work>
      <cc:License
         rdf:about="http://creativecommons.org/licenses/by-sa/4.0/">
        <cc:permits
           rdf:resource="http://creativecommons.org/ns#Reproduction" />
        <cc:permits
           rdf:resource="http://creativecommons.org/ns#Distribution" />
        <cc:requires
           rdf:resource="http://creativecommons.org/ns#Notice" />
        <cc:requires
           rdf:resource="http://creativecommons.org/ns#Attribution" />
        <cc:permits
           rdf:resource="http://creativecommons.org/ns#DerivativeWorks" />
        <cc:requires
           rdf:resource="http://creativecommons.org/ns#ShareAlike" />
      </cc:License>
    </rdf:RDF>
  </metadata>
  <g
     inkscape:label="Layer 1"
     inkscape:groupmode="layer"
     id="layer1"
     transform="translate(523.21881,46.406487)">
    <g
       id="g40264">
      <g
         id="g40257">
        <rect
           style="opacity:1;fill:#ffab40;fill-opacity:1;fill-rule:nonzero;stroke:none;stroke-width:1;stroke-linecap:butt;stroke-linejoin:miter;stroke-miterlimit:100;stroke-dasharray:none;stroke-dashoffset:0;stroke-opacity:1;paint-order:normal"
           id="rect40223"
           width="1016"
           height="571.5"
           x="-523.21881"
           y="-46.406487" />
        <path
           inkscape:connector-curvature="0"
           style="opacity:1;fill:#ffe0b2;fill-opacity:1;fill-rule:nonzero;stroke:none;stroke-width:1;stroke-linecap:butt;stroke-linejoin:miter;stroke-miterlimit:100;stroke-dasharray:none;stroke-dashoffset:0;stroke-opacity:1;paint-order:normal"
           d="m -400.49659,-46.406488 34.2191,34.39297 34.21859,-34.39297 z m 202.05588,0 34.21909,34.39297 34.21859,-34.39297 z m 202.0558875,0 34.2190915,34.39297 34.218588,-34.39297 z m 202.0558825,0 34.21909,34.39297 34.21859,-34.39297 z m 202.05536,0 34.21859,34.39297 34.21909,-34.39297 z m -875.03236,34.39297 -34.21859,34.392968 h 68.43769 z m 202.05588,0 -34.21859,34.392968 h 68.43768 z m 202.055883,0 -34.218589,34.392968 h 68.43768 z m 202.055887,0 -34.21912,34.392968 h 68.43768 z m 202.05586,0 -34.21909,34.392968 h 68.43768 z m -771.0046,37.408184 34.21858,34.392451 34.2191,-34.392451 z m 202.05588,0 34.21859,34.392451 34.21909,-34.392451 z m 202.055884,0 L 8.2438248,59.787117 42.462413,25.394666 Z m 202.055356,0 34.21912,34.392451 34.21856,-34.392451 z m 202.05589,0 34.21909,34.392451 34.21859,-34.392451 z m -875.03185,34.392451 -26.32294,26.457244 v 7.936241 h 60.54152 z m 202.05588,0 -34.2191,34.393485 h 68.43768 z m 202.055872,0 -34.219092,34.393485 h 68.43768 z m 202.055888,0 -34.219093,34.393485 h 68.437683 z m 202.05588,0 -34.21909,34.393485 h 68.43768 z m 181.45353,20.706747 -13.61726,13.686738 h 13.61726 z m -952.45865,16.701955 34.2191,34.392451 34.21858,-34.392451 z m 202.05587,0 34.21912,34.392451 34.21856,-34.392451 z m 202.05589,0 34.219091,34.392451 34.218588,-34.392451 z m 202.05589,0 34.21909,34.392451 34.21859,-34.392451 z m 202.05535,0 34.21859,34.392451 34.21909,-34.392451 z m -672.97648,34.392451 -34.21858,34.39349 h 68.43768 z m 202.05588,0 -34.21858,34.39349 h 68.437676 z m 202.055891,0 -34.218588,34.39349 h 68.437677 z m 202.055889,0 -34.21912,34.39349 h 68.43768 z m 202.05586,0 -34.21909,34.39349 h 43.2077 v -25.35818 z m -1007.01138,3.28429 v 31.1092 h 30.9516 z m 0,34.1244 v 1.36713 l 1.36064,-1.36713 z m 33.95141,0 34.2191,34.39246 34.21859,-34.39246 z m 202.05537,0 34.21858,34.39246 34.21909,-34.39246 z m 202.055876,0 34.218588,34.39246 34.219091,-34.39246 z m 202.055884,0 34.21859,34.39246 34.21909,-34.39246 z m 202.05536,0 34.21912,34.39246 34.21856,-34.39246 z m -672.97596,34.39246 -34.2191,34.39349 h 68.43768 z m 202.05589,0 -34.21912,34.39349 h 68.43768 z m 202.05586,0 -34.219091,34.39349 h 68.437679 z m 202.05589,0 -34.2191,34.39349 h 68.43768 z m 202.05485,0 -34.21859,34.39349 h 68.43768 z m -977.42043,33.02584 v 1.36765 h 1.36064 z m 4.36046,4.38288 34.2191,34.39243 34.21858,-34.39243 z m 202.05588,0 34.2191,34.39243 34.21859,-34.39243 z m 202.05587,0 34.219119,34.39243 34.218562,-34.39243 z m 202.055888,0 34.219092,34.39243 34.21859,-34.39243 z m 202.055882,0 34.2191,34.39243 34.21858,-34.39243 z m 202.05536,0 1.36065,1.36712 v -1.36712 z m -875.03133,34.39243 -34.2191,34.39348 h 68.43769 z m 202.05485,0 -34.21859,34.39348 h 68.43768 z m 202.055883,0 -34.218588,34.39348 h 68.437679 z m 202.055887,0 -34.21859,34.39348 h 68.43768 z m 202.05589,0 -34.21912,34.39348 h 68.43768 z m 68.16947,33.02587 -1.36065,1.36761 h 1.36065 z m -1015.99999,4.3823 v 1.36766 23.99056 l 8.98963,9.03476 34.21858,-34.39298 h -41.84757 z m 176.82641,0 34.2191,34.39298 34.21859,-34.39298 z m 202.05536,0 34.21859,34.39298 34.219087,-34.39298 z m 202.055884,0 34.218588,34.39298 34.219088,-34.39298 z m 202.055886,0 34.21859,34.39298 34.21909,-34.39298 z m 202.05536,0 30.95109,31.1087 v -31.1087 z m -875.03184,34.39298 -34.2191,34.39349 h 68.43768 z m 202.05588,0 -34.21912,34.39349 h 68.43771 z m 202.0558883,0 -34.2191173,34.39349 H 25.12858 Z m 202.0558617,0 -34.21909,34.39349 h 68.43768 z m 202.05588,0 -34.21909,34.39349 h 68.43768 z m 97.75942,3.28483 -30.95109,31.10866 h 30.95109 z m -1015.99999,29.74103 v 1.36763 h 1.36064 z m 0,4.38234 v 13.68723 l 13.61777,-13.68723 z m 147.23546,0 34.2191,34.39296 34.21858,-34.39296 z m 202.05586,0 34.21912,34.39296 34.21859,-34.39296 z m 202.05589,0 34.218588,34.39296 34.219091,-34.39296 z m 202.05589,0 34.21909,34.39296 34.21859,-34.39296 z m 202.05588,0 34.21909,34.39296 26.32192,-26.4557 v -6.56964 -1.36762 z m -875.03185,34.39296 -34.2191,34.39299 h 68.43768 z m 202.05587,0 -34.21909,34.39299 h 68.43768 z m 202.054855,0 -34.218588,34.39299 h 68.4376794 z m 202.056415,0 -34.21912,34.39299 h 68.43768 z m 202.05536,0 -34.21859,34.39299 h 68.43768 z m 127.35036,33.02585 -1.36065,1.36714 h 1.36065 z m -1015.99999,4.38234 v 1.36764 l 1.36064,-1.36764 z m 117.64553,0 34.2191,34.39298 34.21858,-34.39298 z m 202.05588,0 34.21909,34.39298 34.21859,-34.39298 z m 202.0553557,0 34.2185883,34.39298 34.219091,-34.39298 z m 202.0558843,0 34.21912,34.39298 34.21856,-34.39298 z m 202.05589,0 34.21859,34.39298 34.21909,-34.39298 z m -875.03237,34.39298 -34.21858,34.39295 h 68.43768 z m 202.05588,0 -34.2191,34.39295 h 68.43769 z m 202.05589,0 -34.21912,34.39295 h 68.437709 z m 202.05536,0 -34.218591,34.39295 h 68.437681 z m 202.05639,0 -34.21909,34.39295 h 68.43767 z m -859.05969,33.02584 v 1.36711 h 1.36064 z m 1014.63934,4.38232 1.36065,1.36764 v -1.36764 z"
           id="path37320" />
        <path
           id="path39255"
           style="opacity:1;fill:#f5f5f5;fill-opacity:1;fill-rule:nonzero;stroke:none;stroke-width:1;stroke-linecap:butt;stroke-linejoin:miter;stroke-miterlimit:100;stroke-dasharray:none;stroke-dashoffset:0;stroke-opacity:1;paint-order:normal"
           d="m -492.26722,97.222481 -30.9516,31.114939 v 6.56897 l 30.9516,31.11493 h 32.5898 l 34.2191,-34.39968 -34.2191,-34.399159 z m -30.9516,359.072279 v 68.79876 h 16.6176 l 34.2186,-34.39938 -34.2186,-34.39938 z m 85.0553,0 -34.2191,34.39938 34.2191,34.39938 h 32.5903 l 34.2191,-34.39938 -34.2191,-34.39938 z m -71.4375,-71.81453 -13.6178,13.68978 v 41.41968 l 13.6178,13.6893 h 32.5903 l 34.2191,-34.39939 -34.2191,-34.39937 z m 101.0279,0 -34.2185,34.39937 34.2185,34.39939 h 32.5898 l 34.2191,-34.39939 -34.2191,-34.39937 z m -71.4374,-71.8143 -34.2186,34.39916 34.2186,34.39968 h 32.5897 l 34.2191,-34.39968 -34.2191,-34.39916 z m -43.2083,-71.81449 v 68.79884 h 4.3605 l 34.2191,-34.39967 -34.2191,-34.39917 z m 72.7982,0 -34.2186,34.39917 34.2186,34.39967 h 32.5908 l 34.2191,-34.39967 -34.2191,-34.39917 z m -71.4375,-71.81448 -1.3607,1.36782 V 236.468 l 1.3607,1.36779 h 32.5908 l 34.2191,-34.39967 -34.2191,-34.39916 z m 101.0284,0 -34.2185,34.39916 34.2185,34.39967 h 32.5898 l 34.2191,-34.39967 -34.2191,-34.39916 z M -523.21882,-46.406487 V 22.39235 h 21.6943 l 34.2186,-34.399678 -34.2186,-34.399159 z m 90.132,0 -34.2191,34.399159 34.2191,34.399678 h 32.5903 l 34.2191,-34.399678 -34.2191,-34.399159 z m -90.132,384.435037 v 18.07363 l 8.9897,-9.03709 z m 0,-304.682725 v 52.923181 l 26.323,-26.46185 z m 131.9791,63.876656 -34.2186,34.399159 34.2186,34.39968 h 32.5902 l 34.2186,-34.39968 -34.2186,-34.399159 z m 101.0279,0 -34.2191,34.399159 34.2191,34.39968 h 32.5903 l 34.2191,-34.39968 -34.2191,-34.399159 z m 101.0279,0 -34.2185,34.399159 34.2185,34.39968 h 32.5903 l 34.2186,-34.39968 -34.2186,-34.399159 z m 101.028,0 -34.2191,34.399159 34.2191,34.39968 h 32.5902 l 34.2191,-34.39968 -34.2191,-34.399159 z m -248.9797,359.072279 -34.2185,34.39938 34.2185,34.39938 h 32.5898 l 34.2191,-34.39938 -34.2191,-34.39938 z m 101.0275,0 -34.2186,34.39938 34.2186,34.39938 h 32.5907 l 34.2191,-34.39938 -34.2191,-34.39938 z m -71.4375,-71.81453 -34.2186,34.39937 34.2186,34.39939 h 32.5907 l 34.2191,-34.39939 -34.2191,-34.39937 z m -71.4375,-71.8143 -34.2186,34.39916 34.2186,34.39968 h 32.5908 l 34.2191,-34.39968 -34.2191,-34.39916 z m 243.9034,143.62883 -34.2186,34.39938 34.2186,34.39938 h 32.5898 l 34.2191,-34.39938 -34.2191,-34.39938 z m -71.4375,-71.81453 -34.2186,34.39937 34.2186,34.39939 h 32.5898 l 34.2191,-34.39939 -34.2191,-34.39937 z m -71.4375,-71.8143 -34.2185,34.39916 34.2185,34.39968 h 32.5898 l 34.2191,-34.39968 -34.2191,-34.39916 z m -71.4375,-71.81449 -34.2185,34.39917 34.2185,34.39967 h 32.5898 l 34.2191,-34.39967 -34.2191,-34.39917 z m 243.9025,143.62879 -34.2186,34.39937 34.2186,34.39939 h 32.5902 l 34.2186,-34.39939 -34.2186,-34.39937 z m -71.4375,-71.8143 -34.2186,34.39916 34.2186,34.39968 h 32.5902 l 34.2186,-34.39968 -34.2186,-34.39916 z m -71.4375,-71.81449 -34.2186,34.39917 34.2186,34.39967 h 32.5902 l 34.2186,-34.39967 -34.2186,-34.39917 z m -71.4375,-71.81448 -34.2186,34.39916 34.2186,34.39967 h 32.5902 l 34.2186,-34.39967 -34.2186,-34.39916 z m 243.9029,143.62897 -34.2191,34.39916 34.2191,34.39968 h 32.5903 l 34.2191,-34.39968 -34.2191,-34.39916 z m -71.4375,-71.81449 -34.2191,34.39917 34.2191,34.39967 h 32.5903 l 34.2191,-34.39967 -34.2191,-34.39917 z m -214.3125,-215.443443 -34.2191,34.399159 34.2191,34.399678 h 32.5903 l 34.2191,-34.399678 -34.2191,-34.399159 z m 315.3404,215.443443 -34.2185,34.39917 34.2185,34.39967 h 32.5903 l 34.2186,-34.39967 -34.2186,-34.39917 z m -71.4375,-71.81448 -34.2185,34.39916 34.2185,34.39967 h 32.5903 l 34.2186,-34.39967 -34.2186,-34.39916 z m -142.875,-143.628963 -34.2185,34.399159 34.2185,34.399678 h 32.5903 l 34.2186,-34.399678 -34.2186,-34.399159 z m -71.4374,-71.814484 -34.2186,34.399159 34.2186,34.399678 h 32.5902 l 34.2186,-34.399678 -34.2186,-34.399159 z m 172.4654,71.814484 -34.2191,34.399159 34.2191,34.399678 h 32.5902 l 34.2191,-34.399678 -34.2191,-34.399159 z m -71.4375,-71.814484 -34.2191,34.399159 34.2191,34.399678 h 32.5902 l 34.2191,-34.399678 -34.2191,-34.399159 z m 172.4654,71.814484 -34.2186,34.399159 34.2186,34.399678 h 32.5903 L 8.24388,59.807156 -25.97522,25.407997 Z m -71.4375,-71.814484 -34.2186,34.399159 34.2186,34.399678 h 32.5903 l 34.2186,-34.399678 -34.2186,-34.399159 z m 101.028,0 -34.2191,34.399159 34.2191,34.399678 h 32.5902 l 34.2191,-34.399678 -34.2191,-34.399159 z m 41.847,143.628968 -34.2186,34.399159 34.2186,34.39968 h 32.5903 l 34.2186,-34.39968 -34.2186,-34.399159 z m 101.028,0 -34.2191,34.399159 34.2191,34.39968 h 32.5902 l 34.2191,-34.39968 -34.2191,-34.399159 z m 101.0279,0 -34.2186,34.399159 34.2186,34.39968 h 32.5897 l 34.2192,-34.39968 -34.2192,-34.399159 z m -248.9801,359.072279 -34.2186,34.39938 34.2186,34.39938 h 32.5902 l 34.2186,-34.39938 -34.2186,-34.39938 z m 101.0279,0 -34.2191,34.39938 34.2191,34.39938 h 32.5902 l 34.2186,-34.39938 -34.2186,-34.39938 z m -71.4375,-71.81453 -34.2191,34.39937 34.2191,34.39939 h 32.5902 l 34.2186,-34.39939 -34.2186,-34.39937 z m 101.0279,0 -34.2191,34.39937 34.2191,34.39939 h 32.5903 l 34.2191,-34.39939 -34.2191,-34.39937 z m -71.4375,-71.8143 -34.2185,34.39916 34.2185,34.39968 h 32.5903 l 34.2186,-34.39968 -34.2186,-34.39916 z m 101.028,0 -34.2191,34.39916 34.2191,34.39968 h 32.5902 l 34.2191,-34.39968 -34.2191,-34.39916 z m -71.4375,-71.81449 -34.2191,34.39917 34.2191,34.39967 h 32.5902 l 34.2191,-34.39967 -34.2191,-34.39917 z m -71.4375,-71.81448 -34.2191,34.39916 34.2191,34.39967 h 32.5902 l 34.2191,-34.39967 -34.2191,-34.39916 z m 172.4654,71.81448 -34.2186,34.39917 34.2186,34.39967 h 32.5903 l 34.2186,-34.39967 -34.2186,-34.39917 z m -71.4375,-71.81448 -34.2186,34.39916 34.2186,34.39967 h 32.5903 l 34.2186,-34.39967 -34.2186,-34.39916 z m 101.028,0 -34.2191,34.39916 34.2191,34.39967 h 32.5902 l 34.2191,-34.39967 -34.2191,-34.39916 z M 42.46248,25.407997 8.24388,59.807156 42.46248,94.206834 h 32.5902 l 34.2191,-34.399678 -34.2191,-34.399159 z m 101.0279,0 -34.2186,34.399159 34.2186,34.399678 h 32.5897 l 34.2192,-34.399678 -34.2192,-34.399159 z m -71.4375,-71.814484 -34.2186,34.399159 34.2186,34.399678 h 32.5897 l 34.2192,-34.399678 -34.2192,-34.399159 z m 172.4649,71.814484 -34.2185,34.399159 34.2185,34.399678 h 32.5908 l 34.2191,-34.399678 -34.2191,-34.399159 z m -71.4375,-71.814484 -34.2185,34.399159 34.2185,34.399678 h 32.5908 l 34.2191,-34.399678 -34.2191,-34.399159 z m 101.0285,0 -34.2186,34.399159 34.2186,34.399678 h 32.5897 l 34.2191,-34.399678 -34.2191,-34.399159 z m 41.8465,143.628968 -34.2185,34.399159 34.2185,34.39968 h 32.5903 l 34.21857,-34.39968 -34.21857,-34.399159 z m 101.02796,0 -34.21909,34.399159 34.21909,34.39968 h 32.59027 L 483.7926,131.62164 449.57351,97.222481 Z m -248.97966,359.072279 -34.2191,34.39938 34.2191,34.39938 h 32.5903 l 34.2191,-34.39938 -34.2191,-34.39938 z m 101.028,0 -34.2186,34.39938 34.2186,34.39938 h 32.5902 l 34.2191,-34.39938 -34.2191,-34.39938 z m -71.4375,-71.81453 -34.2186,34.39937 34.2186,34.39939 h 32.5902 l 34.2191,-34.39939 -34.2191,-34.39937 z m 172.4654,71.81453 -34.2186,34.39938 34.2186,34.39938 h 32.59027 l 34.21859,-34.39938 -34.21859,-34.39938 z m -71.4375,-71.81453 -34.2186,34.39937 34.2186,34.39939 h 32.5903 l 34.21856,-34.39939 -34.21856,-34.39937 z m -71.4375,-71.8143 -34.2186,34.39916 34.2186,34.39968 h 32.5903 l 34.2186,-34.39968 -34.2186,-34.39916 z m 243.90295,143.62883 -34.21909,34.39938 34.21909,34.39938 h 21.69377 v -68.79876 z m -71.4375,-71.81453 -34.21909,34.39937 34.21909,34.39939 h 32.59026 l 34.21909,-34.39939 -34.21909,-34.39937 z m -71.43745,-71.8143 -34.2191,34.39916 34.2191,34.39968 h 32.59022 l 34.21909,-34.39968 -34.21909,-34.39916 z m -71.4375,-71.81449 -34.2191,34.39917 34.2191,34.39967 h 32.5902 l 34.2191,-34.39967 -34.2191,-34.39917 z m 236.00622,151.56752 -26.32192,26.46064 26.32192,26.46114 z m -63.54082,-79.75303 -34.21859,34.39916 34.21859,34.39968 h 32.58974 l 30.95109,-31.11439 v -6.57003 l -30.95109,-31.11442 z m -71.4375,-71.81449 -34.2186,34.39917 34.2186,34.39967 h 32.58974 l 34.21912,-34.39967 -34.21912,-34.39917 z m -71.4375,-71.81448 -34.2186,34.39916 34.2186,34.39967 h 32.5897 l 34.21916,-34.39967 -34.21916,-34.39916 z m 172.46492,71.81448 -34.21856,34.39917 34.21856,34.39967 h 32.59026 l 1.36065,-1.3678 v -66.06321 l -1.36065,-1.36783 z m -71.4375,-71.81448 -34.21856,34.39916 34.21856,34.39967 h 32.59026 l 34.21859,-34.39967 -34.21859,-34.39916 z m 101.02794,0 -34.21909,34.39916 34.21909,34.39967 h 4.36047 V 169.03696 Z M 345.54628,25.407997 l -34.2186,34.399159 34.2186,34.399678 h 32.58973 L 412.3551,59.807156 378.13601,25.407997 Z m 147.23492,97.177493 -8.98912,9.03648 8.98912,9.03647 z M 446.57369,25.407997 412.3551,59.807156 446.57369,94.206834 h 32.59026 L 492.78121,80.517717 V 39.097113 L 479.16395,25.407997 Z m -71.4375,-71.814484 -34.21861,34.399159 34.21861,34.399678 h 32.59026 l 34.21859,-34.399678 -34.21859,-34.399159 z m 101.02794,0 -34.21909,34.399159 34.21909,34.399678 h 16.61708 v -68.798837 z m -938.84135,71.814484 -34.2186,34.399159 34.2186,34.399678 h 32.5902 l 34.2186,-34.399678 -34.2186,-34.399159 z m 243.9029,143.628963 -34.2191,34.39916 34.2191,34.39967 h 32.5903 l 34.2191,-34.39967 -34.2191,-34.39916 z"
           inkscape:connector-curvature="0" />
        <path
           style="opacity:1;fill:#e0e0e0;fill-opacity:1;fill-rule:nonzero;stroke:none;stroke-width:3.77952766;stroke-linecap:butt;stroke-linejoin:miter;stroke-miterlimit:100;stroke-dasharray:none;stroke-dashoffset:0;stroke-opacity:1;paint-order:normal"
           d="M 81.994141 0 L 211.32422 130.01172 L 340.65625 0 L 81.994141 0 z M 845.66992 0 L 975 130.01172 L 1104.332 0 L 845.66992 0 z M 1609.3457 0 L 1738.6758 130.01172 L 1868.0078 0 L 1609.3457 0 z M 2373.0195 0 L 2502.3516 130.01172 L 2631.6816 0 L 2373.0195 0 z M 3136.6953 0 L 3266.0273 130.01172 L 3395.3574 0 L 3136.6953 0 z M 593.16406 130.01172 L 463.83203 260.02734 L 722.49414 260.02734 L 593.16406 130.01172 z M 1356.8398 130.01172 L 1227.5078 260.02734 L 1486.1699 260.02734 L 1356.8398 130.01172 z M 2120.5156 130.01172 L 1991.1836 260.02734 L 2249.8457 260.02734 L 2120.5156 130.01172 z M 2884.1914 130.01172 L 2754.8594 260.02734 L 3013.5215 260.02734 L 2884.1914 130.01172 z M 3647.8633 130.01172 L 3518.5332 260.02734 L 3777.1953 260.02734 L 3647.8633 130.01172 z M 0 271.42578 L 0 301.42578 L 99.488281 401.4375 L 228.81836 271.42578 L 0 271.42578 z M 733.83203 271.42578 L 863.16406 401.4375 L 992.49414 271.42578 L 733.83203 271.42578 z M 1497.5078 271.42578 L 1626.8398 401.4375 L 1756.1699 271.42578 L 1497.5078 271.42578 z M 2261.1836 271.42578 L 2390.5156 401.4375 L 2519.8457 271.42578 L 2261.1836 271.42578 z M 3024.8594 271.42578 L 3154.1914 401.4375 L 3283.5215 271.42578 L 3024.8594 271.42578 z M 3788.5332 271.42578 L 3840 323.16406 L 3840 271.42578 L 3788.5332 271.42578 z M 481.32422 401.4375 L 351.99414 531.45117 L 610.65625 531.45117 L 481.32422 401.4375 z M 1245 401.4375 L 1115.6699 531.45117 L 1374.332 531.45117 L 1245 401.4375 z M 2008.6777 401.4375 L 1879.3457 531.45117 L 2138.0078 531.45117 L 2008.6777 401.4375 z M 2772.3516 401.4375 L 2643.0195 531.45117 L 2901.6816 531.45117 L 2772.3516 401.4375 z M 3536.0273 401.4375 L 3406.6953 531.45117 L 3665.3574 531.45117 L 3536.0273 401.4375 z M 0 542.84961 L 0 660.44922 L 116.98242 542.84961 L 0 542.84961 z M 621.99414 542.84961 L 751.32422 672.86133 L 880.65625 542.84961 L 621.99414 542.84961 z M 1385.6699 542.84961 L 1515 672.86133 L 1644.332 542.84961 L 1385.6699 542.84961 z M 2149.3457 542.84961 L 2278.6758 672.86133 L 2408.0078 542.84961 L 2149.3457 542.84961 z M 2913.0195 542.84961 L 3042.3516 672.86133 L 3171.6816 542.84961 L 2913.0195 542.84961 z M 3676.6953 542.84961 L 3806.0254 672.86328 L 3840 638.70898 L 3840 542.84961 L 3676.6953 542.84961 z M 369.48828 672.86133 L 240.15625 802.87695 L 498.81836 802.87695 L 369.48828 672.86133 z M 1133.1641 672.86133 L 1003.832 802.87695 L 1262.4941 802.87695 L 1133.1641 672.86133 z M 1896.8398 672.86133 L 1767.5078 802.87695 L 2026.1699 802.87695 L 1896.8398 672.86133 z M 2660.5156 672.86133 L 2531.1836 802.87695 L 2789.8457 802.87695 L 2660.5156 672.86133 z M 3424.1875 672.86133 L 3294.8574 802.87695 L 3553.5195 802.87695 L 3424.1875 672.86133 z M 510.15625 814.27539 L 639.48828 944.28711 L 768.81836 814.27539 L 510.15625 814.27539 z M 1273.832 814.27539 L 1403.1641 944.28711 L 1532.4941 814.27539 L 1273.832 814.27539 z M 2037.5078 814.27539 L 2166.8398 944.28711 L 2296.1699 814.27539 L 2037.5078 814.27539 z M 2801.1836 814.27539 L 2930.5156 944.28711 L 3059.8457 814.27539 L 2801.1836 814.27539 z M 3564.8574 814.27539 L 3694.1875 944.28711 L 3823.5195 814.27539 L 3564.8574 814.27539 z M 257.65234 944.28711 L 128.32031 1074.3008 L 386.98242 1074.3008 L 257.65234 944.28711 z M 1021.3242 944.28711 L 891.99414 1074.3008 L 1150.6562 1074.3008 L 1021.3242 944.28711 z M 1785 944.28711 L 1655.6699 1074.3008 L 1914.332 1074.3008 L 1785 944.28711 z M 2548.6758 944.28711 L 2419.3457 1074.3008 L 2678.0078 1074.3008 L 2548.6758 944.28711 z M 3312.3516 944.28711 L 3183.0195 1074.3008 L 3441.6816 1074.3008 L 3312.3516 944.28711 z M 398.32031 1085.6992 L 527.65234 1215.7129 L 656.98242 1085.6992 L 398.32031 1085.6992 z M 1161.9941 1085.6992 L 1291.3242 1215.7129 L 1420.6562 1085.6992 L 1161.9941 1085.6992 z M 1925.6699 1085.6992 L 2055 1215.7129 L 2184.332 1085.6992 L 1925.6699 1085.6992 z M 2689.3457 1085.6992 L 2818.6758 1215.7129 L 2948.0078 1085.6992 L 2689.3457 1085.6992 z M 3453.0195 1085.6992 L 3582.3516 1215.7129 L 3711.6816 1085.6992 L 3453.0195 1085.6992 z M 145.8125 1215.7129 L 16.480469 1345.7266 L 275.14258 1345.7266 L 145.8125 1215.7129 z M 909.48828 1215.7129 L 780.15625 1345.7266 L 1038.8184 1345.7266 L 909.48828 1215.7129 z M 1673.1641 1215.7129 L 1543.832 1345.7266 L 1802.4941 1345.7266 L 1673.1641 1215.7129 z M 2436.8398 1215.7129 L 2307.5078 1345.7266 L 2566.1699 1345.7266 L 2436.8398 1215.7129 z M 3200.5156 1215.7129 L 3071.1836 1345.7266 L 3329.8457 1345.7266 L 3200.5156 1215.7129 z M 286.48047 1357.125 L 415.8125 1487.1367 L 545.14258 1357.125 L 286.48047 1357.125 z M 1050.1562 1357.125 L 1179.4883 1487.1367 L 1308.8184 1357.125 L 1050.1562 1357.125 z M 1813.832 1357.125 L 1943.1641 1487.1367 L 2072.4941 1357.125 L 1813.832 1357.125 z M 2577.5078 1357.125 L 2706.8398 1487.1367 L 2836.1699 1357.125 L 2577.5078 1357.125 z M 3341.1836 1357.125 L 3470.5156 1487.1367 L 3599.8457 1357.125 L 3341.1836 1357.125 z M 33.976562 1487.1367 L 0 1521.293 L 0 1617.1504 L 163.30664 1617.1504 L 33.976562 1487.1367 z M 797.65234 1487.1367 L 668.32031 1617.1504 L 926.98242 1617.1504 L 797.65234 1487.1367 z M 1561.3242 1487.1367 L 1431.9941 1617.1504 L 1690.6562 1617.1504 L 1561.3242 1487.1367 z M 2325 1487.1367 L 2195.6699 1617.1504 L 2454.332 1617.1504 L 2325 1487.1367 z M 3088.6758 1487.1367 L 2959.3457 1617.1504 L 3218.0078 1617.1504 L 3088.6758 1487.1367 z M 3840 1499.5527 L 3723.0195 1617.1504 L 3840 1617.1504 L 3840 1499.5527 z M 174.64453 1628.5488 L 303.97656 1758.5625 L 433.30664 1628.5488 L 174.64453 1628.5488 z M 938.32031 1628.5488 L 1067.6523 1758.5625 L 1196.9824 1628.5488 L 938.32031 1628.5488 z M 1701.9941 1628.5488 L 1831.3242 1758.5625 L 1960.6562 1628.5488 L 1701.9941 1628.5488 z M 2465.6699 1628.5488 L 2595.002 1758.5625 L 2724.332 1628.5488 L 2465.6699 1628.5488 z M 3229.3457 1628.5488 L 3358.6758 1758.5625 L 3488.0078 1628.5488 L 3229.3457 1628.5488 z M 685.8125 1758.5625 L 556.48047 1888.5742 L 815.14258 1888.5742 L 685.8125 1758.5625 z M 1449.4883 1758.5625 L 1320.1562 1888.5742 L 1578.8184 1888.5742 L 1449.4883 1758.5625 z M 2213.1621 1758.5625 L 2083.832 1888.5742 L 2342.4941 1888.5742 L 2213.1621 1758.5625 z M 2976.8398 1758.5625 L 2847.5078 1888.5742 L 3106.1699 1888.5742 L 2976.8398 1758.5625 z M 3740.5156 1758.5625 L 3611.1836 1888.5742 L 3840 1888.5742 L 3840 1858.5723 L 3740.5156 1758.5625 z M 0 1836.8359 L 0 1888.5762 L 51.46875 1888.5762 L 0 1836.8359 z M 62.806641 1899.9727 L 192.13672 2029.9863 L 321.46875 1899.9727 L 62.806641 1899.9727 z M 826.48047 1899.9727 L 955.8125 2029.9863 L 1085.1426 1899.9727 L 826.48047 1899.9727 z M 1590.1562 1899.9727 L 1719.4883 2029.9863 L 1848.8184 1899.9727 L 1590.1562 1899.9727 z M 2353.832 1899.9727 L 2483.1621 2029.9863 L 2612.4941 1899.9727 L 2353.832 1899.9727 z M 3117.5078 1899.9727 L 3246.8398 2029.9863 L 3376.1699 1899.9727 L 3117.5078 1899.9727 z M 573.97656 2029.9863 L 444.64453 2160 L 703.30664 2160 L 573.97656 2029.9863 z M 1337.6523 2029.9863 L 1208.3203 2160 L 1466.9824 2160 L 1337.6523 2029.9863 z M 2101.3242 2029.9863 L 1971.9941 2160 L 2230.6562 2160 L 2101.3242 2029.9863 z M 2865.002 2029.9863 L 2735.6699 2160 L 2994.332 2160 L 2865.002 2029.9863 z M 3628.6758 2029.9863 L 3499.3457 2160 L 3758.0078 2160 L 3628.6758 2029.9863 z "
           transform="matrix(0.26458333,0,0,0.26458333,-523.21881,-46.406487)"
           id="path39470" />
      </g>
    </g>
  </g>
</svg>
