<?xml version="1.0" encoding="UTF-8" standalone="no"?>
<!-- Created with Inkscape (http://www.inkscape.org/) -->

<svg
   xmlns:dc="http://purl.org/dc/elements/1.1/"
   xmlns:cc="http://creativecommons.org/ns#"
   xmlns:rdf="http://www.w3.org/1999/02/22-rdf-syntax-ns#"
   xmlns:svg="http://www.w3.org/2000/svg"
   xmlns="http://www.w3.org/2000/svg"
   xmlns:sodipodi="http://sodipodi.sourceforge.net/DTD/sodipodi-0.dtd"
   xmlns:inkscape="http://www.inkscape.org/namespaces/inkscape"
   width="1016mm"
   height="571.5mm"
   viewBox="0 0 1016 571.5"
   version="1.1"
   id="svg8"
   inkscape:version="0.92.1 r"
   sodipodi:docname="magic rings.svg"
   inkscape:export-filename="/home/belthsazar2/blankon-uluwatu-kesenian/gambar-latar/bliem/magic rings.png"
   inkscape:export-xdpi="96.010002"
   inkscape:export-ydpi="96.010002">
  <title
     id="title5540">Magic Rings</title>
  <defs
     id="defs2" />
  <sodipodi:namedview
     id="base"
     pagecolor="#ffffff"
     bordercolor="#666666"
     borderopacity="1.0"
     inkscape:pageopacity="0.0"
     inkscape:pageshadow="2"
     inkscape:zoom="0.35"
     inkscape:cx="400"
     inkscape:cy="560"
     inkscape:document-units="mm"
     inkscape:current-layer="layer1"
     showgrid="false"
     fit-margin-top="0"
     fit-margin-left="0"
     fit-margin-right="0"
     fit-margin-bottom="0"
     inkscape:object-paths="true"
     inkscape:snap-intersection-paths="true"
     inkscape:snap-smooth-nodes="true"
     inkscape:snap-midpoints="true"
     inkscape:snap-nodes="true" />
  <metadata
     id="metadata5">
    <rdf:RDF>
      <cc:Work
         rdf:about="">
        <dc:format>image/svg+xml</dc:format>
        <dc:type
           rdf:resource="http://purl.org/dc/dcmitype/StillImage" />
        <dc:title>Magic Rings</dc:title>
        <dc:creator>
          <cc:Agent>
            <dc:title>Vikko Okviandho Liem</dc:title>
          </cc:Agent>
        </dc:creator>
        <dc:publisher>
          <cc:Agent>
            <dc:title>Belthsazar Liem of ISO-arts</dc:title>
          </cc:Agent>
        </dc:publisher>
        <dc:date>2017-03-22</dc:date>
      </cc:Work>
    </rdf:RDF>
  </metadata>
  <g
     inkscape:label="Layer 1"
     inkscape:groupmode="layer"
     id="layer1"
     transform="translate(523.21881,46.406487)">
    <g
       id="g5538">
      <path
         id="rect4485"
         d="m -523.21881,-46.406487 h 1016 V 525.09351 h -1016 z"
         style="opacity:1;fill:#fff3e0;fill-opacity:1;fill-rule:nonzero;stroke:none;stroke-width:0.52916664;stroke-linecap:round;stroke-linejoin:round;stroke-miterlimit:4;stroke-dasharray:none;stroke-dashoffset:0;stroke-opacity:1;paint-order:normal" />
      <path
         id="path5505"
         d="m -296.00074,128.54615 c -11.23847,0 -21.45078,4.59348 -28.85347,11.99595 -5.89321,5.89301 -10.00581,13.5665 -11.43799,22.12103 -27.0195,6.93008 -52.5811,20.95179 -73.69842,42.06909 -21.11741,21.11743 -35.13904,46.67914 -42.06907,73.69882 -8.55456,1.43222 -16.22827,5.54502 -22.12148,11.43801 -7.40269,7.40245 -11.99592,17.61414 -11.99593,28.85261 10e-6,20.18529 14.81695,37.0603 34.11741,40.29151 6.93006,27.01947 20.95179,52.58067 42.06907,73.69795 21.11585,21.11585 46.67536,35.13761 73.69274,42.06824 3.23285,19.29858 20.10713,34.11391 40.29103,34.11391 20.18261,0 37.05431,-14.81357 40.28846,-34.11042 27.02268,-6.92936 52.58754,-20.95215 73.70711,-42.07173 21.11923,-21.11923 35.14135,-46.68315 42.07082,-73.70537 19.29703,-3.23404 34.11013,-20.10794 34.11001,-40.29107 -1e-5,-20.18422 -14.81472,-37.05745 -34.11348,-40.28974 -6.93061,-27.01745 -20.95149,-52.57685 -42.06735,-73.69272 -21.11754,-21.11754 -46.67947,-35.13909 -73.69927,-42.06909 -3.23095,-19.30038 -20.10484,-34.117 -40.29019,-34.11698 z m 0,14.05993 c 14.87863,0 26.78819,11.91003 26.78823,26.78863 0,14.87863 -11.90966,26.78992 -26.78823,26.78995 -14.87862,4e-5 -26.78993,-11.91132 -26.78993,-26.78995 0,-7.4393 2.97813,-14.13638 7.81568,-18.97382 4.83754,-4.83745 11.53495,-7.81481 18.97425,-7.81481 z m 38.13163,41.40522 c 22.25368,6.29574 43.2653,18.21592 60.81406,35.76467 17.54665,17.54667 29.46631,38.5555 35.76293,60.80624 -5.38347,2.07746 -10.22536,5.26542 -14.2404,9.2803 -7.40271,7.40246 -11.99594,17.61414 -11.99594,28.85261 v 0 c 0,17.33503 10.92812,32.22803 26.23899,38.1351 -6.29578,22.25484 -18.21603,43.26761 -35.76556,60.81712 -17.54973,17.54975 -38.56334,29.47011 -60.81843,35.76556 -5.90671,-15.31064 -20.79908,-26.23851 -38.13422,-26.23851 -11.23847,0 -21.45078,4.5935 -28.85349,11.99593 -4.01488,4.01476 -7.20236,8.85597 -9.27986,14.23909 -22.25071,-6.29635 -43.25966,-18.21546 -60.80624,-35.76207 -17.54857,-17.54851 -29.46845,-38.56017 -35.76425,-60.81363 15.30712,-5.90886 26.23159,-20.80029 26.23157,-38.13293 -2e-5,-17.33268 -10.92436,-32.2232 -26.23157,-38.13163 6.2958,-22.25357 18.21557,-43.26495 35.76425,-60.81362 17.54856,-17.54857 38.56016,-29.46847 60.81364,-35.76423 5.90882,15.30734 20.79996,26.23242 38.13249,26.23242 17.33253,0 32.2231,-10.92536 38.13161,-26.23286 z m -61.16063,24.02764 c -12.3044,2.55586 -23.88164,7.11681 -34.37371,13.32545 -4.95178,-3.5315 -10.79604,-5.29738 -16.64001,-5.29749 -7.34091,-1.5e-4 -14.68165,2.78597 -20.25409,8.35839 -10.00853,10.00856 -11.029,25.72255 -3.06132,36.89452 -6.20842,10.49179 -10.76957,22.06884 -13.32543,34.37284 4.0724,6.73667 6.42297,14.61119 6.42299,23.02813 0,8.4169 -2.35056,16.29158 -6.42299,23.02858 2.5555,12.30279 7.11585,23.87889 13.32326,34.3698 -7.96595,11.17188 -6.94524,26.88449 3.06263,36.89239 10.0072,10.00721 25.7181,11.02794 36.88973,3.06349 10.47166,6.19729 22.02478,10.75269 34.30267,13.31193 6.76661,-4.06332 14.67772,-6.40945 23.09788,-6.40945 8.41921,-2e-5 16.29604,2.35175 23.03423,6.42601 12.30606,-2.55619 23.8849,-7.11814 34.37808,-13.32805 11.17168,7.96456 26.88319,6.94273 36.89061,-3.06481 10.00802,-10.00807 11.02891,-25.71981 3.06263,-36.89151 6.21216,-10.49901 10.77489,-22.0848 13.32937,-34.39811 -3.96047,-6.57717 -6.28039,-14.23742 -6.38681,-22.42532 a 4.2180062,4.2180062 0 0 1 -0.0463,-0.57974 c 2e-5,-8.42043 2.34629,-16.33319 6.40991,-23.10049 -2.55896,-12.2753 -7.11335,-23.82625 -13.30888,-34.29613 7.96777,-11.17181 6.94772,-26.88506 -3.0609,-36.89364 -5.5724,-5.57244 -12.91357,-8.3587 -20.25449,-8.35883 -5.84401,-7e-5 -11.68783,1.76555 -16.63961,5.29707 -10.49164,-6.20837 -22.06898,-10.76871 -34.37281,-13.32459 -6.73696,4.07252 -14.6113,6.42299 -23.02814,6.42299 -8.41729,0 -16.2919,-2.35061 -23.02859,-6.42343 z m 23.02814,12.56044 c 17.40237,0 33.73046,4.50814 47.88618,12.42054 -4.66013,10.5197 -2.69331,23.32031 5.90075,31.91437 8.59408,8.59408 21.39433,10.56024 31.91395,5.89989 7.91251,14.1558 12.42053,30.48449 12.42053,47.88706 0,17.40046 -4.5069,33.72748 -12.41748,47.88224 -3.6994,-1.63921 -7.68056,-2.45928 -11.66205,-2.45934 -7.34092,0 -14.68207,2.78594 -20.25451,8.35837 -8.59531,8.59535 -10.56086,21.39816 -5.89817,31.91874 -14.15634,7.91306 -30.48587,12.4214 -47.8892,12.4214 -17.40353,0 -33.7333,-4.50849 -47.88966,-12.42182 4.66281,-10.5203 2.69723,-23.32293 -5.89815,-31.91832 -5.57242,-5.57243 -12.91358,-8.35826 -20.25451,-8.35837 -3.98136,-5e-5 -7.96279,0.81989 -11.66205,2.4589 -7.91068,-14.15445 -12.41746,-30.48142 -12.41746,-47.8818 0,-17.40237 4.50773,-33.73093 12.42009,-47.88664 10.51961,4.66 23.32025,2.69294 31.91437,-5.90119 8.59414,-8.59414 10.56057,-21.39407 5.90033,-31.91349 14.15578,-7.91245 30.48458,-12.42054 47.88704,-12.42054 z m -74.04186,5.26437 c 4.7972,4e-5 9.59448,1.84463 13.28314,5.53331 7.37735,7.37734 7.37735,19.18768 0,26.56502 -7.37732,7.37733 -19.18856,7.37814 -26.5659,9e-4 -7.37735,-7.37734 -7.37733,-19.18943 0,-26.56678 3.6887,-3.68866 8.48555,-5.53247 13.28276,-5.53243 z m 148.08286,0 c 4.79721,4e-5 9.5945,1.84463 13.28318,5.53331 7.37732,7.37734 7.37732,19.18768 0,26.56502 -7.37736,7.37733 -19.18902,7.37814 -26.56634,9e-4 -7.37735,-7.37734 -7.37733,-19.18943 0,-26.56678 3.6887,-3.68866 8.48598,-5.53247 13.28316,-5.53243 z m -74.041,5.17717 a 31.18686,31.18686 0 0 0 -31.18686,31.1873 31.18686,31.18686 0 0 0 18.05147,28.24628 31.18686,31.18686 0 0 0 -15.11134,15.11132 31.18686,31.18686 0 0 0 -28.2467,-18.05146 31.18686,31.18686 0 0 0 -31.18686,31.18688 31.18686,31.18686 0 0 0 31.18686,31.18688 31.18686,31.18686 0 0 0 28.2467,-18.05193 31.18686,31.18686 0 0 0 15.11134,15.11134 31.18686,31.18686 0 0 0 -18.05147,28.2467 31.18686,31.18686 0 0 0 31.18686,31.18688 31.18686,31.18686 0 0 0 31.18644,-31.18688 31.18686,31.18686 0 0 0 -18.05148,-28.2467 31.18686,31.18686 0 0 0 15.11134,-15.11134 31.18686,31.18686 0 0 0 28.2467,18.05193 31.18686,31.18686 0 0 0 31.18686,-31.18688 31.18686,31.18686 0 0 0 -31.18686,-31.18688 31.18686,31.18686 0 0 0 -28.2467,18.05146 31.18686,31.18686 0 0 0 -15.11134,-15.11132 31.18686,31.18686 0 0 0 18.05148,-28.24628 31.18686,31.18686 0 0 0 -31.18644,-31.1873 z m 0,5.88073 a 25.30621,25.30621 0 0 1 25.30614,25.30657 25.30621,25.30621 0 0 1 -25.30614,25.30614 25.30621,25.30621 0 0 1 -25.30657,-25.30614 25.30621,25.30621 0 0 1 25.30657,-25.30657 z m 0,18.89101 a 22.375878,22.375878 0 0 0 -21.13414,15.10739 1.5972561,1.5972561 0 0 1 0.16745,-0.0872 c 1.78338,-0.78344 3.60576,-1.46398 5.45744,-2.04177 a 18.156642,18.156642 0 0 1 15.50931,-8.75939 18.156642,18.156642 0 0 1 15.53458,8.79384 c 1.83712,0.57765 3.64483,1.25629 5.4143,2.03652 a 1.5972561,1.5972561 0 0 1 0.20837,0.11328 22.375878,22.375878 0 0 0 -21.15725,-15.16277 z m 0,15.54329 a 47.36535,47.36535 0 0 0 -18.98474,3.99939 c 1.91185,2.76392 4.41173,5.08735 7.32183,6.79131 a 38.434052,38.434052 0 0 1 11.66291,-1.85954 38.434052,38.434052 0 0 1 11.69605,1.83993 c 2.88653,-1.69672 5.36825,-4.00338 7.27037,-6.74512 a 47.36535,47.36535 0 0 0 -18.96642,-4.02597 z m -27.94898,9.18833 a 47.36535,47.36535 0 0 0 -10.22403,10.23056 c 2.50254,1.64584 4.77165,3.61878 6.74642,5.85719 a 38.434052,38.434052 0 0 1 9.35703,-9.31998 c -2.24765,-1.97986 -4.22827,-4.25636 -5.87942,-6.76777 z m 55.89494,0.004 v 4.4e-4 c -1.64585,2.50254 -3.61838,4.77163 -5.85675,6.74642 a 38.434052,38.434052 0 0 1 9.31952,9.35701 c 1.97991,-2.24772 4.25627,-4.22862 6.76777,-5.87984 a 47.36535,47.36535 0 0 0 -10.23054,-10.22403 z m 121.37704,11.37827 c 14.87857,9e-5 26.78863,11.9101 26.78864,26.78863 0,14.87864 -11.9102,26.78982 -26.78864,26.78997 -14.87864,5e-5 -26.78993,-11.91133 -26.78993,-26.78997 0,-7.43929 2.97772,-14.13595 7.81525,-18.97338 4.8375,-4.83745 11.53538,-7.81525 18.97468,-7.81525 z m -298.64908,0.006 c 14.87864,0 26.78864,11.90956 26.78864,26.78819 0,14.87862 -11.91009,26.79037 -26.78864,26.79039 -14.87862,3e-5 -26.78993,-11.91131 -26.78993,-26.78997 0,-7.4393 2.97815,-14.13635 7.81569,-18.97382 4.83752,-4.83745 11.53494,-7.81479 18.97424,-7.81479 z m 92.83265,1.48205 a 25.30621,25.30621 0 0 1 25.30657,25.30614 25.30621,25.30621 0 0 1 -25.30657,25.30659 25.30621,25.30621 0 0 1 -25.30614,-25.30659 25.30621,25.30621 0 0 1 25.30614,-25.30614 z m 56.49343,0 a 25.30621,25.30621 0 0 1 25.30614,25.30614 25.30621,25.30621 0 0 1 -25.30614,25.30659 25.30621,25.30621 0 0 1 -25.30657,-25.30659 25.30621,25.30621 0 0 1 25.30657,-25.30614 z m 56.493,0 a 25.30621,25.30621 0 0 1 25.30615,25.30614 25.30621,25.30621 0 0 1 -25.30615,25.30657 25.30621,25.30621 0 0 1 -25.30656,-25.30657 25.30621,25.30621 0 0 1 25.30656,-25.30616 z m -104.23925,4.14888 a 22.375878,22.375878 0 0 0 -15.16233,21.15726 22.375878,22.375878 0 0 0 15.10786,21.13459 1.5972561,1.5972561 0 0 1 -0.0872,-0.16744 c -0.78346,-1.78344 -1.46438,-3.60576 -2.0422,-5.45748 a 18.156642,18.156642 0 0 1 -8.75941,-15.50973 18.156642,18.156642 0 0 1 8.79384,-15.53458 c 0.57767,-1.8372 1.25626,-3.6452 2.03654,-5.41474 a 1.5972561,1.5972561 0 0 1 0.11291,-0.20793 z m 95.54655,0.0231 a 1.5972561,1.5972561 0 0 1 0.0872,0.16744 c 0.78345,1.78348 1.46437,3.60567 2.04217,5.45745 a 18.156642,18.156642 0 0 1 8.75941,15.50932 18.156642,18.156642 0 0 1 -8.7934,15.53458 c -0.57765,1.83718 -1.25669,3.64562 -2.03696,5.41518 a 1.5972561,1.5972561 0 0 1 -0.11291,0.20749 22.375878,22.375878 0 0 0 15.16231,-21.15725 22.375878,22.375878 0 0 0 -15.10784,-21.13416 z m -4.43484,2.14943 c -2.76392,1.91183 -5.08741,4.41209 -6.79133,7.32222 a 38.434052,38.434052 0 0 1 1.85956,11.6625 38.434052,38.434052 0 0 1 -1.83993,11.69603 c 1.6967,2.8867 4.0037,5.36864 6.74554,7.27083 a 47.36535,47.36535 0 0 0 4.02597,-18.96686 47.36535,47.36535 0 0 0 -3.99981,-18.98472 z m -86.70477,0.0184 a 47.36535,47.36535 0 0 0 -4.02638,18.96644 47.36535,47.36535 0 0 0 3.99981,18.98514 c 2.76392,-1.91183 5.08739,-4.41211 6.79131,-7.32223 a 38.434052,38.434052 0 0 1 -1.85956,-11.66291 38.434052,38.434052 0 0 1 1.83993,-11.69607 c -1.6967,-2.88661 -4.00332,-5.36823 -6.74511,-7.27037 z m 11.93014,41.03602 c -1.97985,2.24768 -4.25634,4.22823 -6.76777,5.87942 a 47.36535,47.36535 0 0 0 10.23054,10.22402 c 1.64589,-2.50254 3.61882,-4.77166 5.85721,-6.74641 a 38.434052,38.434052 0 0 1 -9.31998,-9.35703 z m 62.83534,0.0202 a 38.434052,38.434052 0 0 1 -9.35703,9.31954 c 2.2477,1.97986 4.22822,4.2559 5.87942,6.76735 a 47.36535,47.36535 0 0 0 10.22403,-10.23014 c -2.50256,-1.64584 -4.77163,-3.61834 -6.74642,-5.85675 z m -31.42617,9.09725 a 25.30621,25.30621 0 0 1 25.30614,25.30612 25.30621,25.30621 0 0 1 -25.30614,25.30661 25.30621,25.30621 0 0 1 -25.30657,-25.30661 25.30621,25.30621 0 0 1 25.30657,-25.30612 z m 11.66249,5.38769 a 38.434052,38.434052 0 0 1 -11.66249,1.85956 38.434052,38.434052 0 0 1 -11.69649,-1.83993 c -2.8866,1.69669 -5.36821,4.00334 -7.27037,6.7451 a 47.36535,47.36535 0 0 0 18.96686,4.02597 47.36535,47.36535 0 0 0 18.98473,-3.99983 c -1.91184,-2.7639 -4.41212,-5.08695 -7.32224,-6.79087 z m -32.81974,11.17126 a 22.375878,22.375878 0 0 0 21.15725,15.16275 22.375878,22.375878 0 0 0 21.13414,-15.10783 1.5972561,1.5972561 0 0 1 -0.16745,0.0872 c -1.78342,0.78344 -3.60578,1.46395 -5.45746,2.04175 a 18.156642,18.156642 0 0 1 -15.5093,8.75982 18.156642,18.156642 0 0 1 -15.53459,-8.79339 c -1.83727,-0.57767 -3.64558,-1.25667 -5.41519,-2.03695 a 1.5972561,1.5972561 0 0 1 -0.20748,-0.11329 z m -52.88507,7.47393 c 4.7972,2e-5 9.59452,1.84463 13.28318,5.53329 7.37726,7.37736 7.3773,19.18816 0,26.56549 -7.37732,7.37732 -19.18902,7.37809 -26.56634,0 -7.37735,-7.37735 -7.37735,-19.18986 0,-26.56722 3.68866,-3.68867 8.48597,-5.5325 13.28316,-5.53244 z m 148.0842,0 c 4.79719,2e-5 9.5945,1.84463 13.28316,5.53329 7.37725,7.37736 7.3773,19.18816 0,26.56549 -7.37733,7.37732 -19.18902,7.37809 -26.56634,0 -7.37735,-7.37735 -7.37733,-19.18986 0,-26.56722 3.68866,-3.68867 8.48598,-5.5325 13.28318,-5.53244 z m -74.04713,67.31377 c 14.87857,9e-5 26.78866,11.91008 26.78866,26.78864 0,14.87861 -11.9102,26.79023 -26.78866,26.79038 -14.87864,5e-5 -26.78993,-11.91175 -26.78993,-26.79038 0,-7.43932 2.97769,-14.13596 7.81525,-18.97339 4.83754,-4.83745 11.5354,-7.81527 18.97468,-7.81525 z"
         style="opacity:0.3;fill:#f57f17;fill-opacity:1;fill-rule:nonzero;stroke:none;stroke-width:1.00000012;stroke-linecap:round;stroke-linejoin:round;stroke-miterlimit:2.61538458;stroke-dasharray:none;stroke-dashoffset:0;stroke-opacity:1;paint-order:normal"
         inkscape:connector-curvature="0" />
      <path
         id="path5050"
         d="m -15.221912,13.885439 c -13.323358,0 -25.430189,5.445633 -34.20618,14.221354 -6.986481,6.986233 -11.862011,16.083262 -13.559895,26.224757 -32.03194,8.215711 -62.335543,24.838604 -87.370393,49.87344 -25.03498,25.03499 -41.6578,55.33872 -49.87343,87.37089 -10.14153,1.69791 -19.23883,6.5737 -26.22528,13.5599 -8.77599,8.77572 -14.22133,20.8818 -14.22136,34.20514 3e-5,23.92992 17.56569,43.93543 40.44664,47.76607 8.21569,32.03191 24.83861,62.33504 49.87343,87.36986 25.0331,25.0331 55.33422,41.65608 87.363672,49.87243 3.832569,22.8787 23.837265,40.44248 47.765546,40.44248 23.9267207,0 43.928347,-17.56169 47.762477,-40.43836 32.035723,-8.21483 62.343188,-24.83903 87.380705,-49.87655 25.03713,-25.03712 41.66053,-55.34347 49.8755,-87.37864 22.87688,-3.834 40.43799,-23.83819 40.43785,-47.76555 -2e-5,-23.92866 -17.56304,-43.93208 -40.44198,-47.76401 -8.21632,-32.02953 -24.83824,-62.33053 -49.87137,-87.36366 C 94.878911,79.169873 64.574912,62.547164 32.542602,54.33155 28.712256,31.450724 8.7080627,13.885429 -15.221912,13.885439 Z m 0,16.668234 c 17.6387916,5e-6 31.757725,14.119476 31.757752,31.758268 0,17.638797 -14.1190397,31.759763 -31.757752,31.759818 -17.638818,4e-5 -31.759816,-14.121021 -31.759816,-31.759818 0,-8.819406 3.5306,-16.758864 9.265576,-22.493718 5.734976,-5.73486 13.674831,-9.264558 22.49424,-9.26455 z M 29.983605,79.64008 c 26.382027,7.463682 51.291569,21.59521 72.095835,42.39948 20.80178,20.80178 34.9327,45.70804 42.39742,72.08656 -6.38218,2.46287 -12.12231,6.24221 -16.88217,11.00191 -8.77601,8.77572 -14.22135,20.8818 -14.22135,34.20513 v 0 c 0,20.55091 12.95543,38.20674 31.10664,45.20965 -7.46371,26.38335 -21.59532,51.29427 -42.40051,72.09946 -20.805434,20.80543 -45.71733,34.93717 -72.101024,42.40051 -7.002463,-18.15097 -24.6575791,-31.10611 -45.208613,-31.10611 -13.323358,0 -25.430162,5.44565 -34.20618,14.22135 -4.759695,4.75954 -8.538501,10.49886 -11.001401,16.88063 -26.378482,-7.46442 -51.284872,-21.59468 -72.086552,-42.39638 -20.80405,-20.804 -34.93524,-45.7136 -42.39897,-72.09533 18.14679,-7.00503 31.09788,-24.65901 31.09785,-45.20706 -2e-5,-20.54809 -12.95095,-38.201 -31.09785,-45.20551 7.46373,-26.38192 21.59479,-51.29118 42.39897,-72.09534 20.80403,-20.80405 45.713547,-34.935245 72.095336,-42.398961 7.004976,18.147046 24.658637,31.098861 45.206549,31.098881 20.5479385,0 38.200912,-12.95216 45.205517,-31.099399 z m -72.506707,28.48508 c -14.587034,3.02999 -28.312003,8.43706 -40.750463,15.79749 -5.870416,-4.18664 -12.798848,-6.28013 -19.726965,-6.28024 -8.70275,-1.9e-4 -17.40529,3.30279 -24.01146,9.90896 -11.86527,11.86528 -13.07502,30.49441 -3.62924,43.73893 -7.36018,12.43814 -12.76747,26.16289 -15.79748,40.74945 4.82788,7.9864 7.6145,17.32174 7.61453,27.30013 0,9.97834 -2.78662,19.31387 -7.61453,27.30067 3.02959,14.5851 8.43595,28.30872 15.79489,40.74583 -9.44372,13.24438 -8.23368,31.87186 3.63079,43.73636 11.86368,11.86368 30.489132,13.07375 43.733248,3.63181 12.414302,7.34697 26.11067,12.74746 40.666246,15.78147 8.021928,-4.81711 17.40064,-7.59849 27.38284,-7.59849 9.9810884,-3e-5 19.3191602,2.78802 27.307381,7.61812 14.588992,-3.03038 28.31584,-8.43865 40.755649,-15.80057 13.244168,9.44207 31.870358,8.23068 43.734275,-3.63337 11.864631,-11.86468 13.074911,-30.49116 3.630801,-43.73533 7.36459,-12.44672 12.77376,-26.18182 15.80213,-40.77941 -4.69519,-7.7973 -7.44548,-16.87862 -7.57163,-26.58547 a 5.0005001,5.0005001 0 0 1 -0.0548,-0.6873 c 3e-5,-9.98252 2.78157,-19.36319 7.59902,-27.38592 -3.03366,-14.55252 -8.43296,-28.24633 -15.77785,-40.6585 9.44589,-13.24432 8.23662,-31.87259 -3.628703,-43.73789 -6.60617,-6.60618 -15.309215,-9.90934 -24.011969,-9.90948 -6.928141,-9e-5 -13.856071,2.09308 -19.72646,6.27972 -12.437983,-7.36008 -26.163058,-12.76642 -40.749431,-15.79645 -7.9867393,4.82803 -17.3218742,7.61452 -27.300158,7.61452 -9.978787,0 -19.314239,-2.78666 -27.300661,-7.61504 z m 27.300158,14.89057 c 20.6307265,0 39.987881,5.34445 56.769661,14.72468 -5.524632,12.47124 -3.192939,27.64654 6.995424,37.8349 10.18839,10.18839 25.363249,12.51931 37.834385,6.99441 9.380378,16.78187 14.724694,36.13973 14.724694,56.77069 0,20.62848 -5.342966,39.98434 -14.72107,56.76501 -4.38568,-1.94331 -9.105397,-2.9155 -13.82551,-2.91558 -8.702755,0 -17.4058,3.30277 -24.011969,9.90894 -10.189845,10.18987 -12.520057,25.3678 -6.992356,37.84007 -16.78252,9.38102 -36.1413948,14.72573 -56.773259,14.72573 -20.632102,0 -39.991268,-5.34487 -56.773815,-14.72623 5.527834,-12.47196 3.197596,-27.64965 -6.992328,-37.83957 -6.60617,-6.60617 -15.309215,-9.90881 -24.011973,-9.90894 -4.71995,-8e-5 -9.44001,0.97198 -13.82551,2.91505 -9.37823,-16.78027 -14.72107,-36.13608 -14.72107,-56.76448 0,-20.63072 5.34397,-39.98843 14.72417,-56.77018 12.47113,5.52447 27.646469,3.1925 37.834912,-6.99595 10.188442,-10.18846 12.519686,-25.36294 6.994921,-37.83387 16.781833,-9.38031 36.139834,-14.72468 56.770693,-14.72468 z m -87.777586,6.24096 c 5.687142,5e-5 11.374387,2.18684 15.747341,6.55981 8.745934,8.74593 8.745934,22.74723 0,31.49316 -8.745908,8.74592 -22.748291,8.74688 -31.494201,0.001 -8.74596,-8.74591 -8.74593,-22.7493 0,-31.49523 4.37298,-4.37296 10.05972,-6.55883 15.74686,-6.55878 z m 175.554138,0 c 5.687139,5e-5 11.374384,2.18684 15.747365,6.55981 8.745907,8.74593 8.745907,22.74723 0,31.49316 -8.745935,8.74592 -22.748822,8.74688 -31.49473,0.001 -8.745961,-8.74591 -8.745934,-22.7493 0,-31.49523 4.37298,-4.37296 10.060225,-6.55883 15.747365,-6.55878 z m -87.776552,6.13761 a 36.972419,36.972419 0 0 0 -36.972425,36.97294 36.972419,36.972419 0 0 0 21.400241,33.48632 36.972419,36.972419 0 0 0 -17.914673,17.91467 36.972419,36.972419 0 0 0 -33.48683,-21.40024 36.972419,36.972419 0 0 0 -36.972429,36.97242 36.972419,36.972419 0 0 0 36.972429,36.97243 36.972419,36.972419 0 0 0 33.48683,-21.40077 36.972419,36.972419 0 0 0 17.914673,17.91467 36.972419,36.972419 0 0 0 -21.400241,33.48683 A 36.972419,36.972419 0 0 0 -15.222944,343.286 36.972419,36.972419 0 0 0 21.748952,306.31357 36.972419,36.972419 0 0 0 0.34871111,272.82674 36.972419,36.972419 0 0 0 18.263384,254.91207 36.972419,36.972419 0 0 0 51.750214,276.31284 36.972419,36.972419 0 0 0 88.722639,239.34041 36.972419,36.972419 0 0 0 51.750214,202.36799 36.972419,36.972419 0 0 0 18.263384,223.76823 36.972419,36.972419 0 0 0 0.34871111,205.85356 36.972419,36.972419 0 0 0 21.748952,172.36724 36.972419,36.972419 0 0 0 -15.222944,135.3943 Z m 0,6.97167 a 30.000834,30.000834 0 0 1 30.000733,30.00127 30.000834,30.000834 0 0 1 -30.000733,30.00075 30.000834,30.000834 0 0 1 -30.001262,-30.00075 30.000834,30.000834 0 0 1 30.001262,-30.00127 z m 0,22.39553 a 26.526889,26.526889 0 0 0 -25.054798,17.91002 1.8935676,1.8935676 0 0 1 0.198438,-0.10335 c 2.114232,-0.92877 4.274687,-1.73558 6.469882,-2.42053 a 21.524931,21.524931 0 0 1 18.386478,-10.38438 21.524931,21.524931 0 0 1 18.4164286,10.42521 c 2.1779442,0.68481 4.3210162,1.48933 6.4187387,2.41432 a 1.8935676,1.8935676 0 0 1 0.247015,0.13436 26.526889,26.526889 0 0 0 -25.0821823,-17.97565 z m 0,18.42678 a 56.152226,56.152226 0 0 0 -22.506649,4.74131 c 2.266501,3.27667 5.230151,6.03114 8.680106,8.05119 a 45.564059,45.564059 0 0 1 13.826543,-2.20452 45.564059,45.564059 0 0 1 13.865807,2.18127 c 3.422015,-2.01148 6.3641287,-4.74603 8.6191195,-7.99641 a 56.152226,56.152226 0 0 0 -22.4849265,-4.77284 z m -33.133903,10.89288 a 56.152226,56.152226 0 0 0 -12.120694,12.12845 c 2.966799,1.95117 5.656844,4.29012 7.997957,6.94377 a 45.564059,45.564059 0 0 1 11.092868,-11.04894 c -2.664593,-2.34715 -5.012664,-5.04598 -6.970131,-8.02328 z m 66.264181,0.005 v 5.3e-4 c -1.95117,2.9668 -4.289637,5.65682 -6.943249,7.99796 a 45.564059,45.564059 0 0 1 11.048418,11.09287 c 2.347198,-2.66471 5.045869,-5.01311 8.023278,-6.97064 a 56.152226,56.152226 0 0 0 -12.128447,-12.1207 z m 143.894036,13.4891 c 17.63872,1.1e-4 31.75826,14.11955 31.75829,31.75826 0,17.63882 -14.11971,31.75963 -31.75829,31.75982 -17.63881,5e-5 -31.75981,-14.121 -31.75981,-31.75982 0,-8.81938 3.53012,-16.75834 9.26507,-22.49319 5.73495,-5.73486 13.67536,-9.26508 22.49474,-9.26507 z m -354.05228,0.008 c 17.63881,3e-5 31.75828,14.11897 31.75828,31.75776 0,17.63879 -14.11957,31.76029 -31.75828,31.76032 -17.63882,5e-5 -31.75982,-14.121 -31.75982,-31.75982 0,-8.81938 3.53063,-16.75884 9.2656,-22.4937 5.73495,-5.73486 13.67481,-9.26456 22.49422,-9.26456 z m 110.054279,1.757 a 30.000834,30.000834 0 0 1 30.001262,30.00076 30.000834,30.000834 0 0 1 -30.001262,30.00126 30.000834,30.000834 0 0 1 -30.000759,-30.00126 30.000834,30.000834 0 0 1 30.000759,-30.00076 z m 66.973687,0 a 30.000834,30.000834 0 0 1 30.000733,30.00076 30.000834,30.000834 0 0 1 -30.000733,30.00126 30.000834,30.000834 0 0 1 -30.001262,-30.00126 30.000834,30.000834 0 0 1 30.001262,-30.00076 z m 66.973158,0 a 30.000834,30.000834 0 0 1 30.00076,30.00075 30.000834,30.000834 0 0 1 -30.00076,30.00127 30.000834,30.000834 0 0 1 -30.001262,-30.00127 30.000834,30.000834 0 0 1 30.001262,-30.00075 z m -123.576951,4.91857 a 26.526889,26.526889 0 0 0 -17.97513,25.08219 26.526889,26.526889 0 0 0 17.910545,25.0553 1.8935676,1.8935676 0 0 1 -0.103346,-0.19844 c -0.928794,-2.11425 -1.736037,-4.27466 -2.421044,-6.46988 a 21.524931,21.524931 0 0 1 -10.384393,-18.38698 21.524931,21.524931 0 0 1 10.425219,-18.41645 c 0.684821,-2.17803 1.489286,-4.32144 2.414322,-6.41925 a 1.8935676,1.8935676 0 0 1 0.133827,-0.24649 z m 113.271642,0.0274 a 1.8935676,1.8935676 0 0 1 0.103346,0.19843 c 0.92882,2.11433 1.736037,4.27459 2.421044,6.46989 a 21.524931,21.524931 0 0 1 10.384393,18.38648 21.524931,21.524931 0 0 1 -10.424689,18.41646 c -0.684821,2.17799 -1.489816,4.32194 -2.414852,6.41974 a 1.8935676,1.8935676 0 0 1 -0.133827,0.24598 26.526889,26.526889 0 0 0 17.97513,-25.08218 26.526889,26.526889 0 0 0 -17.910545,-25.0548 z m -5.257562,2.54816 c -3.276653,2.26652 -6.031177,5.23062 -8.051191,8.6806 a 45.564059,45.564059 0 0 1 2.204535,13.82604 45.564059,45.564059 0 0 1 -2.181278,13.86581 c 2.011468,3.4222 4.74644,6.36458 7.996925,8.61965 a 56.152226,56.152226 0 0 0 4.772845,-22.48546 56.152226,56.152226 0 0 0 -4.741836,-22.50664 z m -102.789591,0.0217 a 56.152226,56.152226 0 0 0 -4.773348,22.48493 56.152226,56.152226 0 0 0 4.741836,22.50716 c 3.276653,-2.26651 6.031177,-5.23063 8.051191,-8.68061 a 45.564059,45.564059 0 0 1 -2.204535,-13.82655 45.564059,45.564059 0 0 1 2.181278,-13.86583 c -2.011468,-3.42209 -4.74599,-6.3641 -7.996422,-8.6191 z m 14.143328,48.64871 c -2.347145,2.66464 -5.045948,5.01261 -8.023278,6.97013 a 56.152226,56.152226 0 0 0 12.128447,12.12069 c 1.951196,-2.9668 4.290139,-5.65687 6.943778,-7.99796 A 45.564059,45.564059 0 0 1 -52.45892,265.50419 Z m 74.492087,0.0238 a 45.564059,45.564059 0 0 1 -11.092868,11.04844 c 2.664672,2.34715 5.012611,5.0454 6.970131,8.02275 a 56.152226,56.152226 0 0 0 12.120694,-12.12794 c -2.966799,-1.95117 -5.656818,-4.28959 -7.997957,-6.94325 z m -37.256111,10.78489 a 30.000834,30.000834 0 0 1 30.000733,30.00073 30.000834,30.000834 0 0 1 -30.000733,30.00129 30.000834,30.000834 0 0 1 -30.001262,-30.00129 30.000834,30.000834 0 0 1 30.001262,-30.00073 z m 13.8260137,6.3872 a 45.564059,45.564059 0 0 1 -13.8260137,2.20451 45.564059,45.564059 0 0 1 -13.866336,-2.18125 c -3.422121,2.01144 -6.364102,4.74602 -8.619119,7.99639 a 56.152226,56.152226 0 0 0 22.485455,4.77285 56.152226,56.152226 0 0 0 22.5066223,-4.74184 c -2.2665002,-3.27665 -5.2306272,-6.03067 -8.6806086,-8.05066 z m -38.9082227,13.24364 a 26.526889,26.526889 0 0 0 25.082209,17.97563 26.526889,26.526889 0 0 0 25.0547979,-17.91052 1.8935676,1.8935676 0 0 1 -0.1984375,0.10335 c -2.1142589,0.92879 -4.2746876,1.73554 -6.4698826,2.42052 A 21.524931,21.524931 0 0 1 -15.222944,308.9176 21.524931,21.524931 0 0 1 -33.639399,298.49291 c -2.178103,-0.68482 -4.321889,-1.48979 -6.41977,-2.41482 a 1.8935676,1.8935676 0 0 1 -0.245984,-0.13436 z m -62.695907,8.86045 c 5.687143,2e-5 11.374414,2.18683 15.747368,6.55978 8.745829,8.74594 8.745882,22.74779 0,31.4937 -8.745908,8.74594 -22.748818,8.74684 -31.494728,0 -8.74596,-8.74593 -8.74594,-22.74982 0,-31.49576 4.37295,-4.37295 10.06022,-6.55883 15.74736,-6.55875 z m 175.5557,0 c 5.687139,2e-5 11.37441,2.18683 15.747364,6.55978 8.745802,8.74594 8.745882,22.74779 0,31.4937 -8.745934,8.74594 -22.748821,8.74684 -31.494729,0 -8.745961,-8.74593 -8.745934,-22.74982 0,-31.49576 4.372954,-4.37295 10.060225,-6.55883 15.747365,-6.55875 z m -87.783802,79.80132 c 17.6387127,10e-5 31.758281,14.11954 31.758281,31.75825 0,17.6388 -14.1197006,31.76016 -31.758281,31.76035 -17.638818,5e-5 -31.759815,-14.12153 -31.759815,-31.76035 0,-8.81938 3.530097,-16.75833 9.265073,-22.49318 5.734976,-5.73487 13.67536,-9.2651 22.494742,-9.26507 z"
         style="opacity:1;fill:#f57f17;fill-opacity:1;fill-rule:nonzero;stroke:none;stroke-width:1.00000012;stroke-linecap:round;stroke-linejoin:round;stroke-miterlimit:2.61538458;stroke-dasharray:none;stroke-dashoffset:0;stroke-opacity:1;paint-order:normal"
         inkscape:connector-curvature="0" />
      <path
         inkscape:connector-curvature="0"
         style="opacity:0.5;fill:#f57f17;fill-opacity:1;fill-rule:nonzero;stroke:none;stroke-width:1.00000012;stroke-linecap:round;stroke-linejoin:round;stroke-miterlimit:2.61538458;stroke-dasharray:none;stroke-dashoffset:0;stroke-opacity:1;paint-order:normal"
         d="m -370.83742,-9.364818 c -6.816,0 -13.00964,2.7858925 -17.49929,7.2754013 -3.57416,3.5740366 -6.0684,8.2279211 -6.937,13.4161357 -16.387,4.203017 -31.88981,12.707005 -44.69721,25.514399 -12.80746,12.807473 -21.31141,28.310344 -25.51438,44.697454 -5.18825,0.86862 -9.84226,3.362987 -13.41642,6.937015 -4.48964,4.4895 -7.27538,10.682765 -7.27539,17.498763 1e-5,12.24214 8.9863,22.47662 20.69181,24.43631 4.20299,16.38699 12.707,31.88955 25.51438,44.69693 12.80651,12.80651 28.30805,21.31054 44.69377,25.51389 1.96068,11.70435 12.19473,20.68967 24.43602,20.68967 12.24052,0 22.473,-8.98425 24.43447,-20.68756 16.38894,-4.20257 31.89371,-12.70723 44.70248,-25.516 12.80856,-12.80856 21.31281,-28.31277 25.51545,-44.70143 11.70342,-1.9614 20.68738,-12.19522 20.68732,-24.43604 -1e-5,-12.241493 -8.98496,-22.474903 -20.68943,-24.435248 -4.20333,-16.385761 -12.70682,-31.887233 -25.51334,-44.693754 -12.80753,-12.807537 -28.31054,-21.311432 -44.69772,-25.514399 -1.95954,-11.70543802 -12.19335,-20.6915415 -24.43552,-20.691537 z m 0,8.52718292 c 9.02371,3.34e-6 16.24672,7.22328218 16.24674,16.24698408 0,9.023708 -7.22307,16.247754 -16.24674,16.247782 -9.02371,2e-5 -16.24777,-7.224074 -16.24777,-16.247782 0,-4.511855 1.8062,-8.573546 4.74011,-11.5073995 2.93391,-2.93385555 6.99581,-4.73958792 11.50766,-4.73958458 z M -347.71104,24.27413 c 13.49659,3.81829 26.23988,11.04774 36.883,21.690847 10.64183,10.641837 17.87096,23.383451 21.68979,36.878254 -3.26502,1.259959 -6.20157,3.193409 -8.63664,5.628392 -4.48965,4.489499 -7.27539,10.682764 -7.27539,17.498767 v 0 c 0,10.51348 6.62777,19.5459 15.91363,23.12847 -3.81832,13.4973 -11.0478,26.24129 -21.69138,36.88486 -10.64371,10.64371 -23.3882,17.87327 -36.88565,21.69138 -3.58235,-9.28572 -12.6144,-15.91334 -23.12795,-15.91334 -6.816,0 -13.00964,2.7859 -17.4993,7.27539 -2.43498,2.4349 -4.36814,5.37104 -5.62812,8.63584 -13.49479,-3.81866 -26.23647,-11.04746 -36.87825,-21.68927 -10.643,-10.64297 -17.87227,-23.38628 -21.6906,-36.88274 9.28359,-3.58365 15.90915,-12.61513 15.90914,-23.12716 -10e-6,-10.512063 -6.6255,-19.542987 -15.90914,-23.126373 3.81833,-13.496535 11.04753,-26.239686 21.6906,-36.88274 10.64298,-10.642996 23.38627,-17.872275 36.88274,-21.690581 3.58363,9.283717 12.61493,15.909646 23.1269,15.909652 10.51197,0 19.54292,-6.626102 23.12636,-15.909918 z m -37.09319,14.572481 c -7.46248,1.550091 -14.48394,4.316252 -20.84725,8.081723 -3.00319,-2.141813 -6.54767,-3.212804 -10.09197,-3.212861 -4.45217,-9.7e-5 -8.90424,1.689648 -12.28386,5.069254 -6.07005,6.070073 -6.68895,15.600419 -1.85665,22.376089 -3.76534,6.363139 -6.53161,13.384488 -8.08171,20.846719 2.46985,4.085708 3.89545,8.861505 3.89546,13.966285 0,5.10475 -1.42558,9.88064 -3.89546,13.96655 1.54987,7.4615 4.31567,14.48226 8.08039,20.84488 -4.83125,6.77561 -4.2122,16.30511 1.85745,22.37479 6.06925,6.06925 15.59772,6.68831 22.37318,1.85797 6.35094,3.75858 13.35777,6.52138 20.80416,8.07352 4.10387,-2.46435 8.90186,-3.88725 14.00858,-3.88725 5.10616,-1e-5 9.88336,1.4263 13.96999,3.8973 7.46348,-1.5503 14.48591,-4.31707 20.8499,-8.08331 6.77549,4.83041 16.30433,4.21068 22.37371,-1.85877 6.06974,-6.06977 6.6889,-15.59876 1.85745,-22.37425 3.7676,-6.36753 6.53484,-13.39417 8.0841,-20.86205 -2.40197,-3.98897 -3.80898,-8.63482 -3.87352,-13.60068 a 2.5581702,2.5581702 0 0 1 -0.0281,-0.35161 c 1e-5,-5.10689 1.42299,-9.905884 3.88753,-14.010166 -1.55198,-7.444824 -4.31416,-14.450339 -8.07168,-20.800194 4.83236,-6.775567 4.21371,-16.30547 -1.8564,-22.375558 -3.37959,-3.379611 -7.83192,-5.069448 -12.28411,-5.069519 -3.54431,-4.6e-5 -7.08852,1.070784 -10.09172,3.212597 -6.36305,-3.765292 -13.38457,-6.531083 -20.8467,-8.081195 -4.08588,2.46994 -8.86157,3.89546 -13.96629,3.89546 -5.10498,-3e-6 -9.88084,-1.425609 -13.96656,-3.895724 z m 13.96629,7.617759 c 10.55433,0 20.45712,2.73413 29.04239,7.532896 -2.82631,6.380073 -1.63346,14.143496 3.57874,19.355691 5.2122,5.212201 12.9754,6.404661 19.35543,3.578211 4.79884,8.585322 7.5329,18.488475 7.5329,29.042922 0,10.55317 -2.73339,20.45531 -7.53106,29.04001 -2.24364,-0.99417 -4.65816,-1.49153 -7.07289,-1.49156 -4.45218,0 -8.9045,1.68964 -12.28412,5.06925 -5.21295,5.21298 -6.40503,12.97773 -3.57716,19.35834 -8.58566,4.79917 -18.48932,7.53342 -29.04423,7.53342 -10.55503,0 -20.45884,-2.73434 -29.04451,-7.53368 2.82794,-6.38044 1.63584,-14.14508 -3.57716,-19.35808 -3.3796,-3.37961 -7.83193,-5.06918 -12.28411,-5.06925 -2.41465,-3e-5 -4.82934,0.49725 -7.0729,1.49129 -4.79773,-8.5845 -7.53104,-18.48661 -7.53104,-29.03974 0,-10.554324 2.73389,-20.457403 7.53264,-29.042659 6.38001,2.826223 14.14345,1.63323 19.35568,-3.57901 5.21224,-5.212238 6.40486,-12.975241 3.57848,-19.355155 8.58531,-4.798806 18.48853,-7.532896 29.04292,-7.532896 z m -44.90551,3.19277 c 2.90945,2.7e-5 5.81894,1.118748 8.05607,3.355885 4.47428,4.474267 4.47428,11.637097 0,16.111365 -4.47425,4.474265 -11.63763,4.474753 -16.1119,5.41e-4 -4.47427,-4.474258 -4.47426,-11.638156 0,-16.112423 2.23715,-2.237132 5.14639,-3.355381 8.05583,-3.355356 z m 89.81049,0 c 2.90945,2.7e-5 5.81895,1.118748 8.05609,3.355885 4.47425,4.474267 4.47425,11.637097 0,16.111365 -4.47428,4.474265 -11.63791,4.474753 -16.11217,5.41e-4 -4.47428,-4.474258 -4.47427,-11.638156 0,-16.112423 2.23715,-2.237132 5.14664,-3.355381 8.05608,-3.355356 z m -44.90498,3.139896 a 18.914457,18.914457 0 0 0 -18.91446,18.914718 18.914457,18.914457 0 0 0 10.948,17.131033 18.914457,18.914457 0 0 0 -9.16485,9.164836 18.914457,18.914457 0 0 0 -17.13128,-10.947997 18.914457,18.914457 0 0 0 -18.91446,18.914464 18.914457,18.914457 0 0 0 18.91446,18.91447 18.914457,18.914457 0 0 0 17.13128,-10.94828 18.914457,18.914457 0 0 0 9.16485,9.16485 18.914457,18.914457 0 0 0 -10.948,17.13129 18.914457,18.914457 0 0 0 18.91446,18.91447 18.914457,18.914457 0 0 0 18.9142,-18.91447 18.914457,18.914457 0 0 0 -10.94801,-17.13129 18.914457,18.914457 0 0 0 9.16485,-9.16485 18.914457,18.914457 0 0 0 17.13128,10.94828 18.914457,18.914457 0 0 0 18.91446,-18.91447 18.914457,18.914457 0 0 0 -18.91446,-18.914464 18.914457,18.914457 0 0 0 -17.13128,10.947997 18.914457,18.914457 0 0 0 -9.16485,-9.164836 18.914457,18.914457 0 0 0 10.94801,-17.131033 18.914457,18.914457 0 0 0 -18.9142,-18.914718 z m 0,3.566586 a 15.347914,15.347914 0 0 1 15.34787,15.348132 15.347914,15.347914 0 0 1 -15.34787,15.347872 15.347914,15.347914 0 0 1 -15.34814,-15.347872 15.347914,15.347914 0 0 1 15.34814,-15.348132 z m 0,11.45717 a 13.570702,13.570702 0 0 0 -12.8176,9.162457 0.96871673,0.96871673 0 0 1 0.10155,-0.05287 c 1.0816,-0.475141 2.18685,-0.88789 3.30988,-1.238304 a 11.011786,11.011786 0 0 1 9.4062,-5.312467 11.011786,11.011786 0 0 1 9.42154,5.333352 c 1.11419,0.350348 2.21055,0.761923 3.28371,1.23513 a 0.96871673,0.96871673 0 0 1 0.12637,0.06874 13.570702,13.570702 0 0 0 -12.83162,-9.196038 z m 0,9.426824 a 28.726518,28.726518 0 0 0 -11.51402,2.425579 c 1.15951,1.676286 2.67566,3.085426 4.4406,4.118853 a 23.309793,23.309793 0 0 1 7.07342,-1.127795 23.309793,23.309793 0 0 1 7.09351,1.115897 c 1.75065,-1.029042 3.25578,-2.427992 4.40939,-4.090831 a 28.726518,28.726518 0 0 0 -11.5029,-2.441703 z m -16.95073,5.572608 a 28.726518,28.726518 0 0 0 -6.20075,6.204715 c 1.51777,0.998185 2.89395,2.194747 4.09163,3.552314 a 23.309793,23.309793 0 0 1 5.67492,-5.652454 c -1.36317,-1.200756 -2.56439,-2.581433 -3.5658,-4.104575 z m 33.89962,0.0028 v 2.71e-4 c -0.99819,1.517762 -2.19451,2.893931 -3.55205,4.091621 a 23.309793,23.309793 0 0 1 5.65218,5.674914 c 1.20079,-1.363213 2.58137,-2.564607 4.10457,-3.566055 a 28.726518,28.726518 0 0 0 -6.2047,-6.200743 z m 73.61372,6.900787 c 9.02367,5.5e-5 16.24698,7.22333 16.24699,16.246989 0,9.02371 -7.2234,16.2477 -16.24699,16.24779 -9.02372,3e-5 -16.24777,-7.22408 -16.24777,-16.24779 0,-4.51184 1.80595,-8.573289 4.73985,-11.507134 2.93389,-2.933856 6.99607,-4.739855 11.50792,-4.739855 z m -181.12709,0.0033 c 9.02371,0 16.24699,7.223008 16.24699,16.246719 0,9.0237 -7.22333,16.24804 -16.24699,16.24805 -9.02371,2e-5 -16.24778,-7.22407 -16.24778,-16.24779 0,-4.51185 1.80622,-8.573535 4.74013,-11.507402 2.9339,-2.933856 6.9958,-4.739577 11.50765,-4.739577 z m 56.30189,0.898847 a 15.347914,15.347914 0 0 1 15.34813,15.347872 15.347914,15.347914 0 0 1 -15.34813,15.34814 15.347914,15.347914 0 0 1 -15.34787,-15.34814 15.347914,15.347914 0 0 1 15.34787,-15.347872 z m 34.26259,0 a 15.347914,15.347914 0 0 1 15.34787,15.347872 15.347914,15.347914 0 0 1 -15.34787,15.34814 15.347914,15.347914 0 0 1 -15.34814,-15.34814 15.347914,15.347914 0 0 1 15.34814,-15.347872 z m 34.26232,0 a 15.347914,15.347914 0 0 1 15.34788,15.347872 15.347914,15.347914 0 0 1 -15.34788,15.34813 15.347914,15.347914 0 0 1 -15.34812,-15.34813 15.347914,15.347914 0 0 1 15.34812,-15.347884 z m -63.21985,2.516246 a 13.570702,13.570702 0 0 0 -9.19577,12.831626 13.570702,13.570702 0 0 0 9.16273,12.81788 0.96871673,0.96871673 0 0 1 -0.0529,-0.10156 c -0.47516,-1.08163 -0.88812,-2.18685 -1.23857,-3.30989 a 11.011786,11.011786 0 0 1 -5.31248,-9.40646 11.011786,11.011786 0 0 1 5.33336,-9.421548 c 0.35035,-1.114237 0.76191,-2.21077 1.23514,-3.283974 a 0.96871673,0.96871673 0 0 1 0.0685,-0.126107 z m 57.94784,0.01403 a 0.96871673,0.96871673 0 0 1 0.0529,0.101555 c 0.47516,1.081656 0.88813,2.186796 1.23855,3.309875 a 11.011786,11.011786 0 0 1 5.31249,9.406226 11.011786,11.011786 0 0 1 -5.3331,9.42153 c -0.35034,1.11423 -0.76217,2.21103 -1.23539,3.28424 a 0.96871673,0.96871673 0 0 1 -0.0685,0.12584 13.570702,13.570702 0 0 0 9.19576,-12.83161 13.570702,13.570702 0 0 0 -9.16272,-12.817622 z m -2.68968,1.303606 c -1.67628,1.159503 -3.08545,2.675883 -4.11886,4.440838 a 23.309793,23.309793 0 0 1 1.1278,7.073172 23.309793,23.309793 0 0 1 -1.1159,7.0935 c 1.02903,1.75075 2.4282,3.25601 4.09109,4.40967 a 28.726518,28.726518 0 0 0 2.44171,-11.50317 28.726518,28.726518 0 0 0 -2.42584,-11.51401 z m -52.58541,0.01114 a 28.726518,28.726518 0 0 0 -2.44195,11.50292 28.726518,28.726518 0 0 0 2.42584,11.51426 c 1.67628,-1.15951 3.08544,-2.6759 4.11885,-4.44085 a 23.309793,23.309793 0 0 1 -1.1278,-7.07341 23.309793,23.309793 0 0 1 1.11589,-7.093528 c -1.02903,-1.750691 -2.42796,-3.255768 -4.09083,-4.409392 z m 7.23549,24.88785 c -1.20076,1.36319 -2.58142,2.56437 -4.10457,3.5658 a 28.726518,28.726518 0 0 0 6.2047,6.20075 c 0.99821,-1.51776 2.19477,-2.89396 3.55233,-4.09162 a 23.309793,23.309793 0 0 1 -5.65246,-5.67493 z m 38.10888,0.0122 a 23.309793,23.309793 0 0 1 -5.67492,5.65219 c 1.3632,1.20076 2.56436,2.58115 3.5658,4.10431 a 28.726518,28.726518 0 0 0 6.20075,-6.20445 c -1.51778,-0.99819 -2.89394,-2.19448 -4.09163,-3.55205 z m -19.05959,5.51737 a 15.347914,15.347914 0 0 1 15.34787,15.34786 15.347914,15.347914 0 0 1 -15.34787,15.34816 15.347914,15.347914 0 0 1 -15.34814,-15.34816 15.347914,15.347914 0 0 1 15.34814,-15.34786 z m 7.07316,3.26757 a 23.309793,23.309793 0 0 1 -7.07316,1.1278 23.309793,23.309793 0 0 1 -7.09378,-1.11589 c -1.75069,1.02901 -3.25576,2.42797 -4.40939,4.09082 a 28.726518,28.726518 0 0 0 11.50317,2.4417 28.726518,28.726518 0 0 0 11.51401,-2.42585 c -1.15951,-1.67627 -2.6759,-3.08517 -4.44085,-4.11858 z m -19.90478,6.77523 a 13.570702,13.570702 0 0 0 12.83162,9.19603 13.570702,13.570702 0 0 0 12.8176,-9.16272 0.96871673,0.96871673 0 0 1 -0.10155,0.0529 c -1.08163,0.47515 -2.18687,0.88787 -3.30989,1.2383 a 11.011786,11.011786 0 0 1 -9.40621,5.31273 11.011786,11.011786 0 0 1 -9.42154,-5.33309 c -1.11428,-0.35035 -2.211,-0.76216 -3.28425,-1.23539 a 0.96871673,0.96871673 0 0 1 -0.12583,-0.0687 z m -32.07416,4.53285 c 2.90944,1e-5 5.81896,1.11875 8.05608,3.35588 4.47423,4.47428 4.47425,11.63739 0,16.11165 -4.47425,4.47426 -11.63791,4.47472 -16.11216,0 -4.47428,-4.47427 -4.47428,-11.63842 0,-16.1127 2.23713,-2.23714 5.14664,-3.35539 8.05608,-3.35536 z m 89.81129,0 c 2.90944,1e-5 5.81895,1.11875 8.05608,3.35588 4.47421,4.47428 4.47424,11.63739 0,16.11165 -4.47427,4.47426 -11.63791,4.47472 -16.11217,0 -4.47427,-4.47427 -4.47426,-11.63842 0,-16.1127 2.23713,-2.23714 5.14665,-3.35539 8.05609,-3.35536 z m -44.9087,40.825 c 9.02368,5e-5 16.24701,7.22332 16.24701,16.24699 0,9.0237 -7.2234,16.24795 -16.24701,16.24804 -9.02371,3e-5 -16.24777,-7.22433 -16.24777,-16.24804 0,-4.51186 1.80593,-8.57329 4.73986,-11.50714 2.93391,-2.93385 6.99608,-4.73986 11.50791,-4.73985 z"
         id="path5503" />
      <path
         inkscape:connector-curvature="0"
         style="opacity:0.3;fill:#f57f17;fill-opacity:1;fill-rule:nonzero;stroke:none;stroke-width:1.00000012;stroke-linecap:round;stroke-linejoin:round;stroke-miterlimit:2.61538458;stroke-dasharray:none;stroke-dashoffset:0;stroke-opacity:1;paint-order:normal"
         d="m 258.13972,352.49917 c 11.23847,0 21.45078,-4.59348 28.85347,-11.99595 5.89321,-5.89301 10.00581,-13.5665 11.43799,-22.12103 27.0195,-6.93008 52.5811,-20.95179 73.69842,-42.06909 21.11741,-21.11743 35.13904,-46.67914 42.06907,-73.69882 8.55456,-1.43222 16.22827,-5.54502 22.12148,-11.43801 7.40269,-7.40245 11.99592,-17.61414 11.99593,-28.85261 -10e-6,-20.18529 -14.81695,-37.0603 -34.11741,-40.29151 C 407.26861,95.01268 393.24688,69.45148 372.1296,48.3342 351.01375,27.21835 325.45424,13.19659 298.43686,6.26596 c -3.23285,-19.29858 -20.10713,-34.11391 -40.29103,-34.11391 -20.18261,0 -37.05431,14.81357 -40.28846,34.11042 -27.02268,6.92936 -52.58754,20.95215 -73.70711,42.07173 -21.11923,21.11923 -35.14135,46.68315 -42.07082,73.70537 -19.29703,3.23404 -34.11013,20.10794 -34.11001,40.29107 1e-5,20.18422 14.81472,37.05745 34.11348,40.28974 6.93061,27.01745 20.95149,52.57685 42.06735,73.69272 21.11754,21.11754 46.67947,35.13909 73.69927,42.06909 3.23095,19.30038 20.10484,34.117 40.29019,34.11698 z m 0,-14.05993 c -14.87863,0 -26.78819,-11.91003 -26.78823,-26.78863 0,-14.87863 11.90966,-26.78992 26.78823,-26.78995 14.87862,-4e-5 26.78993,11.91132 26.78993,26.78995 0,7.4393 -2.97813,14.13638 -7.81568,18.97382 -4.83754,4.83745 -11.53495,7.81481 -18.97425,7.81481 z m -38.13163,-41.40522 c -22.25368,-6.29574 -43.2653,-18.21592 -60.81406,-35.76467 -17.54665,-17.54667 -29.46631,-38.5555 -35.76293,-60.80624 5.38347,-2.07746 10.22536,-5.26542 14.2404,-9.2803 7.40271,-7.40246 11.99594,-17.61414 11.99594,-28.85261 v 0 c 0,-17.33503 -10.92812,-32.22803 -26.23899,-38.1351 6.29578,-22.25484 18.21603,-43.26761 35.76556,-60.81712 17.54973,-17.54975 38.56334,-29.47011 60.81843,-35.76556 5.90671,15.31064 20.79908,26.23851 38.13422,26.23851 11.23847,0 21.45078,-4.5935 28.85349,-11.99593 4.01488,-4.01476 7.20236,-8.85597 9.27986,-14.23909 22.25071,6.29635 43.25966,18.21546 60.80624,35.76207 17.54857,17.54851 29.46845,38.56017 35.76425,60.81363 -15.30712,5.90886 -26.23159,20.80029 -26.23157,38.13293 2e-5,17.33268 10.92436,32.2232 26.23157,38.13163 -6.2958,22.25357 -18.21557,43.26495 -35.76425,60.81362 -17.54856,17.54857 -38.56016,29.46847 -60.81364,35.76423 -5.90882,-15.30734 -20.79996,-26.23242 -38.13249,-26.23242 -17.33253,0 -32.2231,10.92536 -38.13161,26.23286 z m 61.16063,-24.02764 c 12.3044,-2.55586 23.88164,-7.11681 34.37371,-13.32545 4.95178,3.5315 10.79604,5.29738 16.64001,5.29749 7.34091,1.5e-4 14.68165,-2.78597 20.25409,-8.35839 10.00853,-10.00856 11.029,-25.72255 3.06132,-36.89452 6.20842,-10.49179 10.76957,-22.06884 13.32543,-34.37284 -4.0724,-6.73667 -6.42297,-14.61119 -6.42299,-23.02813 0,-8.4169 2.35056,-16.29158 6.42299,-23.02858 -2.5555,-12.30279 -7.11585,-23.87889 -13.32326,-34.3698 7.96595,-11.17188 6.94524,-26.88449 -3.06263,-36.89239 -10.0072,-10.00721 -25.7181,-11.02794 -36.88973,-3.06349 -10.47166,-6.19729 -22.02478,-10.75269 -34.30267,-13.31193 -6.76661,4.06332 -14.67772,6.40945 -23.09788,6.40945 -8.41921,2e-5 -16.29604,-2.35175 -23.03423,-6.42601 -12.30606,2.55619 -23.8849,7.11814 -34.37808,13.32805 -11.17168,-7.96456 -26.88319,-6.94273 -36.89061,3.06481 -10.00802,10.00807 -11.02891,25.71981 -3.06263,36.89151 -6.21216,10.49901 -10.77489,22.0848 -13.32937,34.39811 3.96047,6.57717 6.28039,14.23742 6.38681,22.42532 a 4.2180062,4.2180062 0 0 1 0.0463,0.57974 c -2e-5,8.42043 -2.34629,16.33319 -6.40991,23.10049 2.55896,12.2753 7.11335,23.82625 13.30888,34.29613 -7.96777,11.17181 -6.94772,26.88506 3.0609,36.89364 5.5724,5.57244 12.91357,8.3587 20.25449,8.35883 5.84401,7e-5 11.68783,-1.76555 16.63961,-5.29707 10.49164,6.20837 22.06898,10.76871 34.37281,13.32459 6.73696,-4.07252 14.6113,-6.42299 23.02814,-6.42299 8.41729,0 16.2919,2.35061 23.02859,6.42343 z m -23.02814,-12.56044 c -17.40237,0 -33.73046,-4.50814 -47.88618,-12.42054 4.66013,-10.5197 2.69331,-23.32031 -5.90075,-31.91437 -8.59408,-8.59408 -21.39433,-10.56024 -31.91395,-5.89989 -7.91251,-14.1558 -12.42053,-30.48449 -12.42053,-47.88706 0,-17.40046 4.5069,-33.72748 12.41748,-47.88224 3.6994,1.63921 7.68056,2.45928 11.66205,2.45934 7.34092,0 14.68207,-2.78594 20.25451,-8.35837 8.59531,-8.59535 10.56086,-21.39816 5.89817,-31.91874 14.15634,-7.91306 30.48587,-12.4214 47.8892,-12.4214 17.40353,0 33.7333,4.50849 47.88966,12.42182 -4.66281,10.5203 -2.69723,23.32293 5.89815,31.91832 5.57242,5.57243 12.91358,8.35826 20.25451,8.35837 3.98136,5e-5 7.96279,-0.81989 11.66205,-2.4589 7.91068,14.15445 12.41746,30.48142 12.41746,47.8818 0,17.40237 -4.50773,33.73093 -12.42009,47.88664 -10.51961,-4.66 -23.32025,-2.69294 -31.91437,5.90119 -8.59414,8.59414 -10.56057,21.39407 -5.90033,31.91349 -14.15578,7.91245 -30.48458,12.42054 -47.88704,12.42054 z m 74.04186,-5.26437 c -4.7972,-4e-5 -9.59448,-1.84463 -13.28314,-5.53331 -7.37735,-7.37734 -7.37735,-19.18768 0,-26.56502 7.37732,-7.37733 19.18856,-7.37814 26.5659,-9e-4 7.37735,7.37734 7.37733,19.18943 0,26.56678 -3.6887,3.68866 -8.48555,5.53247 -13.28276,5.53243 z m -148.08286,0 c -4.79721,-4e-5 -9.5945,-1.84463 -13.28318,-5.53331 -7.37732,-7.37734 -7.37732,-19.18768 0,-26.56502 7.37736,-7.37733 19.18902,-7.37814 26.56634,-9e-4 7.37735,7.37734 7.37733,19.18943 0,26.56678 -3.6887,3.68866 -8.48598,5.53247 -13.28316,5.53243 z m 74.041,-5.17717 a 31.18686,31.18686 0 0 0 31.18686,-31.1873 31.18686,31.18686 0 0 0 -18.05147,-28.24628 31.18686,31.18686 0 0 0 15.11134,-15.11132 31.18686,31.18686 0 0 0 28.2467,18.05146 31.18686,31.18686 0 0 0 31.18686,-31.18688 31.18686,31.18686 0 0 0 -31.18686,-31.18688 31.18686,31.18686 0 0 0 -28.2467,18.05193 31.18686,31.18686 0 0 0 -15.11134,-15.11134 31.18686,31.18686 0 0 0 18.05147,-28.2467 31.18686,31.18686 0 0 0 -31.18686,-31.18688 31.18686,31.18686 0 0 0 -31.18644,31.18688 31.18686,31.18686 0 0 0 18.05148,28.2467 31.18686,31.18686 0 0 0 -15.11134,15.11134 31.18686,31.18686 0 0 0 -28.2467,-18.05193 31.18686,31.18686 0 0 0 -31.18686,31.18688 31.18686,31.18686 0 0 0 31.18686,31.18688 31.18686,31.18686 0 0 0 28.2467,-18.05146 31.18686,31.18686 0 0 0 15.11134,15.11132 31.18686,31.18686 0 0 0 -18.05148,28.24628 31.18686,31.18686 0 0 0 31.18644,31.1873 z m 0,-5.88073 a 25.30621,25.30621 0 0 1 -25.30614,-25.30657 25.30621,25.30621 0 0 1 25.30614,-25.30614 25.30621,25.30621 0 0 1 25.30657,25.30614 25.30621,25.30621 0 0 1 -25.30657,25.30657 z m 0,-18.89101 a 22.375878,22.375878 0 0 0 21.13414,-15.10739 1.5972561,1.5972561 0 0 1 -0.16745,0.0872 c -1.78338,0.78344 -3.60576,1.46398 -5.45744,2.04177 a 18.156642,18.156642 0 0 1 -15.50931,8.75939 18.156642,18.156642 0 0 1 -15.53458,-8.79384 c -1.83712,-0.57765 -3.64483,-1.25629 -5.4143,-2.03652 a 1.5972561,1.5972561 0 0 1 -0.20837,-0.11328 22.375878,22.375878 0 0 0 21.15725,15.16277 z m 0,-15.54329 a 47.36535,47.36535 0 0 0 18.98474,-3.99939 c -1.91185,-2.76392 -4.41173,-5.08735 -7.32183,-6.79131 a 38.434052,38.434052 0 0 1 -11.66291,1.85954 38.434052,38.434052 0 0 1 -11.69605,-1.83993 c -2.88653,1.69672 -5.36825,4.00338 -7.27037,6.74512 a 47.36535,47.36535 0 0 0 18.96642,4.02597 z m 27.94898,-9.18833 a 47.36535,47.36535 0 0 0 10.22403,-10.23056 c -2.50254,-1.64584 -4.77165,-3.61878 -6.74642,-5.85719 a 38.434052,38.434052 0 0 1 -9.35703,9.31998 c 2.24765,1.97986 4.22827,4.25636 5.87942,6.76777 z m -55.89494,-0.004 v -4.4e-4 c 1.64585,-2.50254 3.61838,-4.77163 5.85675,-6.74642 a 38.434052,38.434052 0 0 1 -9.31952,-9.35701 c -1.97991,2.24772 -4.25627,4.22862 -6.76777,5.87984 a 47.36535,47.36535 0 0 0 10.23054,10.22403 z M 108.81758,189.11877 c -14.87857,-9e-5 -26.78863,-11.9101 -26.78864,-26.78863 0,-14.87864 11.9102,-26.78982 26.78864,-26.78997 14.87864,-5e-5 26.78993,11.91133 26.78993,26.78997 0,7.43929 -2.97772,14.13595 -7.81525,18.97338 -4.8375,4.83745 -11.53538,7.81525 -18.97468,7.81525 z m 298.64908,-0.006 c -14.87864,0 -26.78864,-11.90956 -26.78864,-26.78819 0,-14.87862 11.91009,-26.79037 26.78864,-26.79039 14.87862,-3e-5 26.78993,11.91131 26.78993,26.78997 0,7.4393 -2.97815,14.13635 -7.81569,18.97382 -4.83752,4.83745 -11.53494,7.81479 -18.97424,7.81479 z m -92.83265,-1.48205 a 25.30621,25.30621 0 0 1 -25.30657,-25.30614 25.30621,25.30621 0 0 1 25.30657,-25.30659 25.30621,25.30621 0 0 1 25.30614,25.30659 25.30621,25.30621 0 0 1 -25.30614,25.30614 z m -56.49343,0 a 25.30621,25.30621 0 0 1 -25.30614,-25.30614 25.30621,25.30621 0 0 1 25.30614,-25.30659 25.30621,25.30621 0 0 1 25.30657,25.30659 25.30621,25.30621 0 0 1 -25.30657,25.30614 z m -56.493,0 a 25.30621,25.30621 0 0 1 -25.30615,-25.30614 25.30621,25.30621 0 0 1 25.30615,-25.30657 25.30621,25.30621 0 0 1 25.30656,25.30657 25.30621,25.30621 0 0 1 -25.30656,25.30616 z m 104.23925,-4.14888 a 22.375878,22.375878 0 0 0 15.16233,-21.15726 22.375878,22.375878 0 0 0 -15.10786,-21.13459 1.5972561,1.5972561 0 0 1 0.0872,0.16744 c 0.78346,1.78344 1.46438,3.60576 2.0422,5.45748 a 18.156642,18.156642 0 0 1 8.75941,15.50973 18.156642,18.156642 0 0 1 -8.79384,15.53458 c -0.57767,1.8372 -1.25626,3.6452 -2.03654,5.41474 a 1.5972561,1.5972561 0 0 1 -0.11291,0.20793 z m -95.54655,-0.0231 a 1.5972561,1.5972561 0 0 1 -0.0872,-0.16744 c -0.78345,-1.78348 -1.46437,-3.60567 -2.04217,-5.45745 a 18.156642,18.156642 0 0 1 -8.75941,-15.50932 18.156642,18.156642 0 0 1 8.7934,-15.53458 c 0.57765,-1.83718 1.25669,-3.64562 2.03696,-5.41518 a 1.5972561,1.5972561 0 0 1 0.11291,-0.20749 22.375878,22.375878 0 0 0 -15.16231,21.15725 22.375878,22.375878 0 0 0 15.10784,21.13416 z m 4.43484,-2.14943 c 2.76392,-1.91183 5.08741,-4.41209 6.79133,-7.32222 a 38.434052,38.434052 0 0 1 -1.85956,-11.6625 38.434052,38.434052 0 0 1 1.83993,-11.69603 c -1.6967,-2.8867 -4.0037,-5.36864 -6.74554,-7.27083 a 47.36535,47.36535 0 0 0 -4.02597,18.96686 47.36535,47.36535 0 0 0 3.99981,18.98472 z m 86.70477,-0.0184 a 47.36535,47.36535 0 0 0 4.02638,-18.96644 47.36535,47.36535 0 0 0 -3.99981,-18.98514 c -2.76392,1.91183 -5.08739,4.41211 -6.79131,7.32223 a 38.434052,38.434052 0 0 1 1.85956,11.66291 38.434052,38.434052 0 0 1 -1.83993,11.69607 c 1.6967,2.88661 4.00332,5.36823 6.74511,7.27037 z m -11.93014,-41.03602 c 1.97985,-2.24768 4.25634,-4.22823 6.76777,-5.87942 a 47.36535,47.36535 0 0 0 -10.23054,-10.22402 c -1.64589,2.50254 -3.61882,4.77166 -5.85721,6.74641 a 38.434052,38.434052 0 0 1 9.31998,9.35703 z m -62.83534,-0.0202 a 38.434052,38.434052 0 0 1 9.35703,-9.31954 c -2.2477,-1.97986 -4.22822,-4.2559 -5.87942,-6.76735 a 47.36535,47.36535 0 0 0 -10.22403,10.23014 c 2.50256,1.64584 4.77163,3.61834 6.74642,5.85675 z m 31.42617,-9.09725 a 25.30621,25.30621 0 0 1 -25.30614,-25.30612 25.30621,25.30621 0 0 1 25.30614,-25.30661 25.30621,25.30621 0 0 1 25.30657,25.30661 25.30621,25.30621 0 0 1 -25.30657,25.30612 z m -11.66249,-5.38769 a 38.434052,38.434052 0 0 1 11.66249,-1.85956 38.434052,38.434052 0 0 1 11.69649,1.83993 c 2.8866,-1.69669 5.36821,-4.00334 7.27037,-6.7451 a 47.36535,47.36535 0 0 0 -18.96686,-4.02597 47.36535,47.36535 0 0 0 -18.98473,3.99983 c 1.91184,2.7639 4.41212,5.08695 7.32224,6.79087 z m 32.81974,-11.17126 a 22.375878,22.375878 0 0 0 -21.15725,-15.16275 22.375878,22.375878 0 0 0 -21.13414,15.10783 1.5972561,1.5972561 0 0 1 0.16745,-0.0872 c 1.78342,-0.78344 3.60578,-1.46395 5.45746,-2.04175 a 18.156642,18.156642 0 0 1 15.5093,-8.75982 18.156642,18.156642 0 0 1 15.53459,8.79339 c 1.83727,0.57767 3.64558,1.25667 5.41519,2.03695 a 1.5972561,1.5972561 0 0 1 0.20748,0.11329 z m 52.88507,-7.47393 c -4.7972,-2e-5 -9.59452,-1.84463 -13.28318,-5.53329 -7.37726,-7.37736 -7.3773,-19.18816 0,-26.56549 7.37732,-7.37732 19.18902,-7.37809 26.56634,0 7.37735,7.37735 7.37735,19.18986 0,26.56722 -3.68866,3.68867 -8.48597,5.5325 -13.28316,5.53244 z m -148.0842,0 c -4.79719,-2e-5 -9.5945,-1.84463 -13.28316,-5.53329 -7.37725,-7.37736 -7.3773,-19.18816 0,-26.56549 7.37733,-7.37732 19.18902,-7.37809 26.56634,0 7.37735,7.37735 7.37733,19.18986 0,26.56722 -3.68866,3.68867 -8.48598,5.5325 -13.28318,5.53244 z m 74.04713,-67.31377 c -14.87857,-9e-5 -26.78866,-11.91008 -26.78866,-26.78864 0,-14.87861 11.9102,-26.79023 26.78866,-26.79038 14.87864,-5e-5 26.78993,11.91175 26.78993,26.79038 0,7.43932 -2.97769,14.13596 -7.81525,18.97339 -4.83754,4.83745 -11.5354,7.81527 -18.97468,7.81525 z"
         id="path5512" />
      <path
         id="path5516"
         d="m 332.9764,490.41014 c 6.816,0 13.00964,-2.78589 17.49929,-7.2754 3.57416,-3.57404 6.0684,-8.22792 6.937,-13.41614 16.387,-4.20302 31.88981,-12.707 44.69721,-25.5144 12.80746,-12.80747 21.31141,-28.31034 25.51438,-44.69745 5.18825,-0.86862 9.84226,-3.36299 13.41642,-6.93702 4.48964,-4.4895 7.27538,-10.68276 7.27539,-17.49876 -10e-6,-12.24214 -8.9863,-22.47662 -20.69181,-24.43631 -4.20299,-16.38699 -12.707,-31.88955 -25.51438,-44.69693 -12.80651,-12.80651 -28.30805,-21.31054 -44.69377,-25.51389 -1.96068,-11.70435 -12.19473,-20.68967 -24.43602,-20.68967 -12.24052,0 -22.473,8.98425 -24.43447,20.68756 -16.38894,4.20257 -31.89371,12.70723 -44.70248,25.516 -12.80856,12.80856 -21.31281,28.31277 -25.51545,44.70143 -11.70342,1.9614 -20.68738,12.19522 -20.68732,24.43604 1e-5,12.24149 8.98496,22.4749 20.68943,24.43525 4.20333,16.38576 12.70682,31.88723 25.51334,44.69375 12.80753,12.80754 28.31054,21.31143 44.69772,25.5144 1.95954,11.70544 12.19335,20.69154 24.43552,20.69154 z m 0,-8.52718 c -9.02371,-1e-5 -16.24672,-7.22329 -16.24674,-16.24699 0,-9.02371 7.22307,-16.24775 16.24674,-16.24778 9.02371,-2e-5 16.24777,7.22407 16.24777,16.24778 0,4.51186 -1.8062,8.57355 -4.74011,11.5074 -2.93391,2.93386 -6.99581,4.73959 -11.50766,4.73959 z m -23.12638,-25.11177 c -13.49659,-3.81829 -26.23988,-11.04774 -36.883,-21.69085 -10.64183,-10.64183 -17.87096,-23.38345 -21.68979,-36.87825 3.26502,-1.25996 6.20157,-3.19341 8.63664,-5.62839 4.48965,-4.4895 7.27539,-10.68277 7.27539,-17.49877 v 0 c 0,-10.51348 -6.62777,-19.5459 -15.91363,-23.12847 3.81832,-13.4973 11.0478,-26.24129 21.69138,-36.88486 10.64371,-10.64371 23.3882,-17.87327 36.88565,-21.69138 3.58235,9.28572 12.6144,15.91334 23.12795,15.91334 6.816,0 13.00964,-2.7859 17.4993,-7.27539 2.43498,-2.4349 4.36814,-5.37104 5.62812,-8.63584 13.49479,3.81866 26.23647,11.04746 36.87825,21.68927 10.643,10.64297 17.87227,23.38628 21.6906,36.88274 -9.28359,3.58365 -15.90915,12.61513 -15.90914,23.12716 10e-6,10.51206 6.6255,19.54299 15.90914,23.12637 -3.81833,13.49654 -11.04753,26.23969 -21.6906,36.88274 -10.64298,10.643 -23.38627,17.87228 -36.88274,21.69058 -3.58363,-9.28371 -12.61493,-15.90964 -23.1269,-15.90965 -10.51197,0 -19.54292,6.6261 -23.12636,15.90992 z m 37.09319,-14.57248 c 7.46248,-1.55009 14.48394,-4.31625 20.84725,-8.08172 3.00319,2.14181 6.54767,3.2128 10.09197,3.21286 4.45217,9e-5 8.90424,-1.68965 12.28386,-5.06926 6.07005,-6.07007 6.68895,-15.60042 1.85665,-22.37609 3.76534,-6.36313 6.53161,-13.38448 8.08171,-20.84671 -2.46985,-4.08571 -3.89545,-8.86151 -3.89546,-13.96629 0,-5.10475 1.42558,-9.88064 3.89546,-13.96655 -1.54987,-7.4615 -4.31567,-14.48226 -8.08039,-20.84488 4.83125,-6.77561 4.2122,-16.30511 -1.85745,-22.37479 -6.06925,-6.06925 -15.59772,-6.68831 -22.37318,-1.85797 -6.35094,-3.75858 -13.35777,-6.52138 -20.80416,-8.07352 -4.10387,2.46435 -8.90186,3.88725 -14.00858,3.88725 -5.10616,10e-6 -9.88336,-1.4263 -13.96999,-3.8973 -7.46348,1.5503 -14.48591,4.31707 -20.8499,8.08331 -6.77549,-4.83041 -16.30433,-4.21068 -22.37371,1.85877 -6.06974,6.06977 -6.6889,15.59876 -1.85745,22.37425 -3.7676,6.36753 -6.53484,13.39417 -8.0841,20.86205 2.40197,3.98897 3.80898,8.63482 3.87352,13.60068 a 2.5581702,2.5581702 0 0 1 0.0281,0.35161 c -1e-5,5.10689 -1.42299,9.90588 -3.88753,14.01017 1.55198,7.44482 4.31416,14.45034 8.07168,20.80019 -4.83236,6.77557 -4.21371,16.30547 1.8564,22.37556 3.37959,3.37961 7.83192,5.06945 12.28411,5.06952 3.54431,4e-5 7.08852,-1.07079 10.09172,-3.2126 6.36305,3.76529 13.38457,6.53108 20.8467,8.0812 4.08588,-2.46994 8.86157,-3.89546 13.96629,-3.89546 5.10498,0 9.88084,1.4256 13.96656,3.89572 z m -13.96629,-7.61776 c -10.55433,0 -20.45712,-2.73413 -29.04239,-7.5329 2.82631,-6.38007 1.63346,-14.14349 -3.57874,-19.35569 -5.2122,-5.2122 -12.9754,-6.40466 -19.35543,-3.57821 -4.79884,-8.58532 -7.5329,-18.48847 -7.5329,-29.04292 0,-10.55317 2.73339,-20.45531 7.53106,-29.04001 2.24364,0.99417 4.65816,1.49153 7.07289,1.49156 4.45218,0 8.9045,-1.68964 12.28412,-5.06925 5.21295,-5.21298 6.40503,-12.97773 3.57716,-19.35834 8.58566,-4.79917 18.48932,-7.53342 29.04423,-7.53342 10.55503,0 20.45884,2.73434 29.04451,7.53368 -2.82794,6.38044 -1.63584,14.14508 3.57716,19.35808 3.3796,3.37961 7.83193,5.06918 12.28411,5.06925 2.41465,3e-5 4.82934,-0.49725 7.0729,-1.49129 4.79773,8.5845 7.53104,18.48661 7.53104,29.03974 0,10.55432 -2.73389,20.4574 -7.53264,29.04266 -6.38001,-2.82622 -14.14345,-1.63323 -19.35568,3.57901 -5.21224,5.21224 -6.40486,12.97524 -3.57848,19.35515 -8.58531,4.79881 -18.48853,7.5329 -29.04292,7.5329 z m 44.90551,-3.19277 c -2.90945,-3e-5 -5.81894,-1.11875 -8.05607,-3.35588 -4.47428,-4.47427 -4.47428,-11.6371 0,-16.11137 4.47425,-4.47426 11.63763,-4.47475 16.1119,-5.4e-4 4.47427,4.47426 4.47426,11.63816 0,16.11242 -2.23715,2.23713 -5.14639,3.35538 -8.05583,3.35536 z m -89.81049,0 c -2.90945,-3e-5 -5.81895,-1.11875 -8.05609,-3.35588 -4.47425,-4.47427 -4.47425,-11.6371 0,-16.11137 4.47428,-4.47426 11.63791,-4.47475 16.11217,-5.4e-4 4.47428,4.47426 4.47427,11.63816 0,16.11242 -2.23715,2.23713 -5.14664,3.35538 -8.05608,3.35536 z m 44.90498,-3.1399 a 18.914457,18.914457 0 0 0 18.91446,-18.91471 18.914457,18.914457 0 0 0 -10.948,-17.13104 18.914457,18.914457 0 0 0 9.16485,-9.16483 18.914457,18.914457 0 0 0 17.13128,10.94799 18.914457,18.914457 0 0 0 18.91446,-18.91446 18.914457,18.914457 0 0 0 -18.91446,-18.91447 18.914457,18.914457 0 0 0 -17.13128,10.94828 18.914457,18.914457 0 0 0 -9.16485,-9.16485 18.914457,18.914457 0 0 0 10.948,-17.13129 18.914457,18.914457 0 0 0 -18.91446,-18.91447 18.914457,18.914457 0 0 0 -18.9142,18.91447 18.914457,18.914457 0 0 0 10.94801,17.13129 18.914457,18.914457 0 0 0 -9.16485,9.16485 18.914457,18.914457 0 0 0 -17.13128,-10.94828 18.914457,18.914457 0 0 0 -18.91446,18.91447 18.914457,18.914457 0 0 0 18.91446,18.91446 18.914457,18.914457 0 0 0 17.13128,-10.94799 18.914457,18.914457 0 0 0 9.16485,9.16483 18.914457,18.914457 0 0 0 -10.94801,17.13104 18.914457,18.914457 0 0 0 18.9142,18.91471 z m 0,-3.56658 a 15.347914,15.347914 0 0 1 -15.34787,-15.34813 15.347914,15.347914 0 0 1 15.34787,-15.34788 15.347914,15.347914 0 0 1 15.34814,15.34788 15.347914,15.347914 0 0 1 -15.34814,15.34813 z m 0,-11.45717 a 13.570702,13.570702 0 0 0 12.8176,-9.16246 0.96871673,0.96871673 0 0 1 -0.10155,0.0529 c -1.0816,0.47514 -2.18685,0.88789 -3.30988,1.23831 a 11.011786,11.011786 0 0 1 -9.4062,5.31246 11.011786,11.011786 0 0 1 -9.42154,-5.33335 c -1.11419,-0.35035 -2.21055,-0.76192 -3.28371,-1.23513 a 0.96871673,0.96871673 0 0 1 -0.12637,-0.0687 13.570702,13.570702 0 0 0 12.83162,9.19604 z m 0,-9.42683 a 28.726518,28.726518 0 0 0 11.51402,-2.42557 c -1.15951,-1.67629 -2.67566,-3.08543 -4.4406,-4.11886 a 23.309793,23.309793 0 0 1 -7.07342,1.1278 23.309793,23.309793 0 0 1 -7.09351,-1.1159 c -1.75065,1.02904 -3.25578,2.42799 -4.40939,4.09083 a 28.726518,28.726518 0 0 0 11.5029,2.4417 z m 16.95073,-5.5726 a 28.726518,28.726518 0 0 0 6.20075,-6.20472 c -1.51777,-0.99818 -2.89395,-2.19475 -4.09163,-3.55231 a 23.309793,23.309793 0 0 1 -5.67492,5.65245 c 1.36317,1.20076 2.56439,2.58143 3.5658,4.10458 z m -33.89962,-0.003 v -2.7e-4 c 0.99819,-1.51777 2.19451,-2.89394 3.55205,-4.09163 a 23.309793,23.309793 0 0 1 -5.65218,-5.67491 c -1.20079,1.36321 -2.58137,2.56461 -4.10457,3.56606 a 28.726518,28.726518 0 0 0 6.2047,6.20074 z m -73.61372,-6.90079 c -9.02367,-6e-5 -16.24698,-7.22333 -16.24699,-16.24699 0,-9.02371 7.2234,-16.2477 16.24699,-16.24779 9.02372,-3e-5 16.24777,7.22408 16.24777,16.24779 0,4.51184 -1.80595,8.57329 -4.73985,11.50713 -2.93389,2.93386 -6.99607,4.73986 -11.50792,4.73986 z m 181.12709,-0.003 c -9.02371,0 -16.24699,-7.22301 -16.24699,-16.24672 0,-9.0237 7.22333,-16.24804 16.24699,-16.24805 9.02371,-2e-5 16.24778,7.22407 16.24778,16.24779 0,4.51185 -1.80622,8.57354 -4.74013,11.5074 -2.9339,2.93386 -6.9958,4.73958 -11.50765,4.73958 z m -56.30189,-0.89885 a 15.347914,15.347914 0 0 1 -15.34813,-15.34787 15.347914,15.347914 0 0 1 15.34813,-15.34814 15.347914,15.347914 0 0 1 15.34787,15.34814 15.347914,15.347914 0 0 1 -15.34787,15.34787 z m -34.26259,0 a 15.347914,15.347914 0 0 1 -15.34787,-15.34787 15.347914,15.347914 0 0 1 15.34787,-15.34814 15.347914,15.347914 0 0 1 15.34814,15.34814 15.347914,15.347914 0 0 1 -15.34814,15.34787 z m -34.26232,0 a 15.347914,15.347914 0 0 1 -15.34788,-15.34787 15.347914,15.347914 0 0 1 15.34788,-15.34813 15.347914,15.347914 0 0 1 15.34812,15.34813 15.347914,15.347914 0 0 1 -15.34812,15.34788 z m 63.21985,-2.51624 a 13.570702,13.570702 0 0 0 9.19577,-12.83163 13.570702,13.570702 0 0 0 -9.16273,-12.81788 0.96871673,0.96871673 0 0 1 0.0529,0.10156 c 0.47516,1.08163 0.88812,2.18685 1.23857,3.30989 a 11.011786,11.011786 0 0 1 5.31248,9.40646 11.011786,11.011786 0 0 1 -5.33336,9.42155 c -0.35035,1.11424 -0.76191,2.21077 -1.23514,3.28397 a 0.96871673,0.96871673 0 0 1 -0.0685,0.12611 z m -57.94784,-0.014 a 0.96871673,0.96871673 0 0 1 -0.0529,-0.10156 c -0.47516,-1.08165 -0.88813,-2.18679 -1.23855,-3.30987 a 11.011786,11.011786 0 0 1 -5.31249,-9.40623 11.011786,11.011786 0 0 1 5.3331,-9.42153 c 0.35034,-1.11423 0.76217,-2.21103 1.23539,-3.28424 a 0.96871673,0.96871673 0 0 1 0.0685,-0.12584 13.570702,13.570702 0 0 0 -9.19576,12.83161 13.570702,13.570702 0 0 0 9.16272,12.81762 z m 2.68968,-1.30361 c 1.67628,-1.1595 3.08545,-2.67588 4.11886,-4.44084 a 23.309793,23.309793 0 0 1 -1.1278,-7.07317 23.309793,23.309793 0 0 1 1.1159,-7.0935 c -1.02903,-1.75075 -2.4282,-3.25601 -4.09109,-4.40967 a 28.726518,28.726518 0 0 0 -2.44171,11.50317 28.726518,28.726518 0 0 0 2.42584,11.51401 z m 52.58541,-0.0111 a 28.726518,28.726518 0 0 0 2.44195,-11.50292 28.726518,28.726518 0 0 0 -2.42584,-11.51426 c -1.67628,1.15951 -3.08544,2.6759 -4.11885,4.44085 a 23.309793,23.309793 0 0 1 1.1278,7.07341 23.309793,23.309793 0 0 1 -1.11589,7.09353 c 1.02903,1.75069 2.42796,3.25577 4.09083,4.40939 z m -7.23549,-24.88785 c 1.20076,-1.36319 2.58142,-2.56437 4.10457,-3.5658 a 28.726518,28.726518 0 0 0 -6.2047,-6.20075 c -0.99821,1.51776 -2.19477,2.89396 -3.55233,4.09162 a 23.309793,23.309793 0 0 1 5.65246,5.67493 z m -38.10888,-0.0122 a 23.309793,23.309793 0 0 1 5.67492,-5.65219 c -1.3632,-1.20076 -2.56436,-2.58115 -3.5658,-4.10431 a 28.726518,28.726518 0 0 0 -6.20075,6.20445 c 1.51778,0.99819 2.89394,2.19448 4.09163,3.55205 z m 19.05959,-5.51737 a 15.347914,15.347914 0 0 1 -15.34787,-15.34786 15.347914,15.347914 0 0 1 15.34787,-15.34816 15.347914,15.347914 0 0 1 15.34814,15.34816 15.347914,15.347914 0 0 1 -15.34814,15.34786 z m -7.07316,-3.26757 a 23.309793,23.309793 0 0 1 7.07316,-1.1278 23.309793,23.309793 0 0 1 7.09378,1.11589 c 1.75069,-1.02901 3.25576,-2.42797 4.40939,-4.09082 a 28.726518,28.726518 0 0 0 -11.50317,-2.4417 28.726518,28.726518 0 0 0 -11.51401,2.42585 c 1.15951,1.67627 2.6759,3.08517 4.44085,4.11858 z m 19.90478,-6.77523 a 13.570702,13.570702 0 0 0 -12.83162,-9.19603 13.570702,13.570702 0 0 0 -12.8176,9.16272 0.96871673,0.96871673 0 0 1 0.10155,-0.0529 c 1.08163,-0.47515 2.18687,-0.88787 3.30989,-1.2383 a 11.011786,11.011786 0 0 1 9.40621,-5.31273 11.011786,11.011786 0 0 1 9.42154,5.33309 c 1.11428,0.35035 2.211,0.76216 3.28425,1.23539 a 0.96871673,0.96871673 0 0 1 0.12583,0.0687 z m 32.07416,-4.53285 c -2.90944,-1e-5 -5.81896,-1.11875 -8.05608,-3.35588 -4.47423,-4.47428 -4.47425,-11.63739 0,-16.11165 4.47425,-4.47426 11.63791,-4.47472 16.11216,0 4.47428,4.47427 4.47428,11.63842 0,16.1127 -2.23713,2.23714 -5.14664,3.35539 -8.05608,3.35536 z m -89.81129,0 c -2.90944,-1e-5 -5.81895,-1.11875 -8.05608,-3.35588 -4.47421,-4.47428 -4.47424,-11.63739 0,-16.11165 4.47427,-4.47426 11.63791,-4.47472 16.11217,0 4.47427,4.47427 4.47426,11.63842 0,16.1127 -2.23713,2.23714 -5.14665,3.35539 -8.05609,3.35536 z m 44.9087,-40.825 c -9.02368,-5e-5 -16.24701,-7.22332 -16.24701,-16.24699 0,-9.0237 7.2234,-16.24795 16.24701,-16.24804 9.02371,-3e-5 16.24777,7.22433 16.24777,16.24804 0,4.51186 -1.80593,8.57329 -4.73986,11.50714 -2.93391,2.93385 -6.99608,4.73986 -11.50791,4.73985 z"
         style="opacity:0.5;fill:#f57f17;fill-opacity:1;fill-rule:nonzero;stroke:none;stroke-width:1.00000012;stroke-linecap:round;stroke-linejoin:round;stroke-miterlimit:2.61538458;stroke-dasharray:none;stroke-dashoffset:0;stroke-opacity:1;paint-order:normal"
         inkscape:connector-curvature="0" />
      <path
         id="path5526"
         transform="matrix(0.26458333,0,0,0.26458333,-523.21881,-46.406487)"
         d="M 1165.1035 0 C 1102.9797 43.472171 1043.7891 92.915975 988.35156 148.35352 C 815.75728 320.94786 701.15716 529.86545 644.51758 750.69922 C 574.60059 762.40483 511.88422 796.01986 463.71875 844.18359 C 403.216 904.68453 365.67402 988.14528 365.67383 1079.998 C 365.67402 1244.9739 486.77344 1382.8938 644.51758 1409.3027 C 701.15758 1630.1347 815.75842 1839.0474 988.35156 2011.6406 C 1043.7908 2067.0798 1102.9836 2116.5262 1165.1094 2160 L 1541.9688 2160 C 1384.7982 2104.9641 1237.1533 2014.5381 1111.3027 1888.6875 C 967.87703 1745.2621 870.45393 1573.5332 818.99805 1391.6543 C 944.1043 1343.3607 1033.3909 1221.6511 1033.3906 1079.9902 C 1033.3905 938.32916 944.10506 816.62786 818.99805 768.33789 C 870.45393 586.45765 967.87613 414.72921 1111.3027 271.30273 C 1237.1465 145.45881 1384.7804 55.036673 1541.9414 0 L 1165.1035 0 z M 1617.2988 0 C 1670.5617 113.97766 1786.3999 193.40026 1919.9961 193.40039 C 2053.5909 193.40039 2169.4225 113.97689 2222.6836 0 L 2088.4043 0 C 2048.3569 48.068597 1987.9733 78.493929 1920 78.494141 C 1852.0263 78.494295 1791.6391 48.068706 1751.5879 0 L 1617.2988 0 z M 2298.0469 0 C 2455.209 55.036965 2602.8442 145.46138 2728.6895 271.30664 C 2872.0995 414.71671 2969.5197 586.42444 3020.9824 768.28125 C 2976.9829 785.26059 2937.4108 811.31493 2904.5957 844.12891 C 2844.0928 904.62981 2806.5508 988.09063 2806.5508 1079.9434 C 2806.5508 1221.6239 2895.8672 1343.346 3021.0039 1391.625 C 2969.5481 1573.5151 2872.123 1745.2539 2728.6895 1888.6875 C 2602.8398 2014.5371 2455.1948 2104.9639 2298.0254 2160 L 2674.8848 2160 C 2737.0111 2116.5263 2796.203 2067.0802 2851.6426 2011.6406 C 3024.2517 1839.0316 3138.8572 1630.0966 3195.4922 1409.2422 C 3353.2082 1382.8101 3474.2764 1244.8996 3474.2754 1079.9414 C 3474.2753 914.97425 3353.1932 777.06819 3195.4629 750.65039 C 3138.8185 529.83483 3024.2241 320.93504 2851.6426 148.35352 C 2796.2051 92.916017 2737.0163 43.471881 2674.8926 0 L 2298.0469 0 z M 1731.7812 175.37891 C 1631.2164 196.26804 1536.5961 233.54534 1450.8438 284.28906 C 1410.3724 255.42585 1362.607 240.99294 1314.8438 240.99219 C 1254.8459 240.99088 1194.8484 263.76288 1149.3047 309.30664 C 1067.504 391.10736 1059.1648 519.5383 1124.2852 610.84766 C 1073.5432 696.59777 1036.2643 791.21775 1015.375 891.7793 C 1048.659 946.83855 1067.8709 1011.198 1067.8711 1079.9902 C 1067.8711 1148.7822 1048.6592 1213.1431 1015.375 1268.2051 C 1036.2613 1368.7566 1073.5322 1463.3683 1124.2656 1549.1113 C 1059.1594 1640.4197 1067.5017 1768.8394 1149.2969 1850.6348 C 1231.0866 1932.4245 1359.4942 1940.7677 1450.8008 1875.6738 C 1536.3866 1926.3248 1630.8102 1963.5558 1731.1582 1984.4727 C 1786.4624 1951.2629 1851.1209 1932.0879 1919.9395 1932.0879 C 1988.7503 1932.0877 2053.1274 1951.3081 2108.1992 1984.6074 C 2208.7775 1963.7156 2303.4122 1926.4317 2389.1738 1875.6777 C 2480.4808 1940.7725 2608.8923 1932.4212 2690.6836 1850.6289 C 2772.4798 1768.8323 2780.8237 1640.4183 2715.7148 1549.1113 C 2766.4872 1463.3021 2803.7783 1368.6102 2824.6562 1267.9727 C 2792.287 1214.2171 2773.3267 1151.6097 2772.457 1084.6895 A 34.474071 34.474071 0 0 1 2772.0781 1079.9512 C 2772.0784 1011.1304 2791.2547 946.45812 2824.4668 891.14844 C 2803.5524 790.82152 2766.33 696.41482 2715.6934 610.84375 C 2780.8147 519.53577 2772.4768 391.1114 2690.6758 309.31055 C 2645.132 263.76672 2585.1326 240.99315 2525.1348 240.99219 C 2477.3713 240.99156 2429.6099 255.42194 2389.1387 284.28516 C 2303.3897 233.54385 2208.7673 196.27222 2108.207 175.38281 C 2053.1455 208.66785 1988.7876 227.87891 1919.9961 227.87891 C 1851.2011 227.87891 1786.8406 208.66636 1731.7812 175.37891 z M 1919.9922 278.03711 C 2062.223 278.03711 2195.6735 314.88231 2311.3691 379.55078 C 2273.2816 465.52907 2289.3578 570.14887 2359.5977 640.38867 C 2429.8377 710.62873 2534.4541 726.69874 2620.4316 688.60938 C 2685.1011 804.30566 2721.9453 937.76175 2721.9453 1079.9941 C 2721.9453 1222.2094 2685.1108 1355.6518 2620.457 1471.3398 C 2590.2216 1457.9424 2557.6836 1451.2388 2525.1426 1451.2383 C 2465.1447 1451.2383 2405.1434 1474.009 2359.5996 1519.5527 C 2289.3496 1589.803 2273.2859 1694.4404 2311.3945 1780.4258 C 2195.6937 1845.0997 2062.2308 1881.9473 1919.9922 1881.9473 C 1777.7519 1881.9473 1644.2869 1845.0981 1528.5859 1780.4219 C 1566.6955 1694.4386 1550.6315 1589.8033 1480.3809 1519.5527 C 1434.8371 1474.009 1374.8378 1451.2392 1314.8398 1451.2383 C 1282.2999 1451.2377 1249.7576 1457.9402 1219.5234 1471.3359 C 1154.8688 1355.6507 1118.0352 1222.2089 1118.0352 1079.9941 C 1118.0352 937.76338 1154.8767 804.30878 1219.5449 688.61328 C 1305.5224 726.69966 1410.1444 710.62329 1480.3848 640.38281 C 1550.6252 570.14233 1566.6958 465.52693 1528.6074 379.55078 C 1644.3035 314.88175 1777.7605 278.03711 1919.9922 278.03711 z M 1314.8438 321.0625 C 1354.0516 321.06284 1393.2585 336.13931 1423.4062 366.28711 C 1483.7018 426.58264 1483.7018 523.10875 1423.4062 583.4043 C 1363.1109 643.69974 1266.5766 643.70661 1206.2812 583.41211 C 1145.9855 523.11671 1145.9857 426.57678 1206.2812 366.28125 C 1236.4291 336.13352 1275.6359 321.06216 1314.8438 321.0625 z M 2525.1348 321.0625 C 2564.3426 321.06284 2603.5513 336.13931 2633.6992 366.28711 C 2693.9946 426.58264 2693.9946 523.10875 2633.6992 583.4043 C 2573.4037 643.69974 2476.8657 643.70661 2416.5703 583.41211 C 2356.2746 523.11671 2356.2748 426.57678 2416.5703 366.28125 C 2446.7182 336.13352 2485.9269 321.06216 2525.1348 321.0625 z M 1919.9922 363.37695 A 254.89247 254.89247 0 0 0 1665.0996 618.27344 A 254.89247 254.89247 0 0 0 1812.6367 849.13086 A 254.89247 254.89247 0 0 0 1689.1309 972.63672 A 254.89247 254.89247 0 0 0 1458.2676 825.10156 A 254.89247 254.89247 0 0 0 1203.375 1079.9941 A 254.89247 254.89247 0 0 0 1458.2676 1334.8867 A 254.89247 254.89247 0 0 0 1689.1309 1187.3477 A 254.89247 254.89247 0 0 0 1812.6367 1310.8535 A 254.89247 254.89247 0 0 0 1665.0996 1541.7148 A 254.89247 254.89247 0 0 0 1919.9922 1796.6074 A 254.89247 254.89247 0 0 0 2174.8809 1541.7148 A 254.89247 254.89247 0 0 0 2027.3457 1310.8535 A 254.89247 254.89247 0 0 0 2150.8516 1187.3477 A 254.89247 254.89247 0 0 0 2381.7129 1334.8867 A 254.89247 254.89247 0 0 0 2636.6055 1079.9941 A 254.89247 254.89247 0 0 0 2381.7129 825.10156 A 254.89247 254.89247 0 0 0 2150.8516 972.63672 A 254.89247 254.89247 0 0 0 2027.3457 849.13086 A 254.89247 254.89247 0 0 0 2174.8809 618.27344 A 254.89247 254.89247 0 0 0 1919.9922 363.37695 z M 1919.9922 411.43945 A 206.82949 206.82949 0 0 1 2126.8203 618.27344 A 206.82949 206.82949 0 0 1 1919.9922 825.10156 A 206.82949 206.82949 0 0 1 1713.1602 618.27344 A 206.82949 206.82949 0 0 1 1919.9922 411.43945 z M 1919.9922 565.83789 A 182.87968 182.87968 0 0 0 1747.2617 689.3125 A 13.054491 13.054491 0 0 1 1748.6289 688.59961 C 1763.2047 682.19656 1778.1004 676.63421 1793.2344 671.91211 A 148.39556 148.39556 0 0 1 1919.9922 600.32031 A 148.39556 148.39556 0 0 1 2046.957 672.19336 C 2061.9721 676.91452 2076.747 682.46092 2091.209 688.83789 A 13.054491 13.054491 0 0 1 2092.9121 689.76367 A 182.87968 182.87968 0 0 0 1919.9922 565.83789 z M 1919.9922 692.875 A 387.12045 387.12045 0 0 0 1764.8281 725.56055 C 1780.4537 748.15033 1800.8855 767.13994 1824.6699 781.06641 A 314.12431 314.12431 0 0 1 1919.9922 765.86914 A 314.12431 314.12431 0 0 1 2015.5859 780.90625 C 2039.1777 767.03886 2059.4597 748.18785 2075.0059 725.7793 A 387.12045 387.12045 0 0 0 1919.9922 692.875 z M 1691.5625 767.9707 A 387.12045 387.12045 0 0 0 1608.002 851.58594 C 1628.4554 865.03754 1647.0007 881.16245 1663.1406 899.45703 A 314.12431 314.12431 0 0 1 1739.6152 823.28516 C 1721.2452 807.1036 1705.0575 788.49656 1691.5625 767.9707 z M 2148.3965 768.00586 L 2148.3965 768.00781 C 2134.9449 788.46129 2118.8236 807.00831 2100.5293 823.14844 A 314.12431 314.12431 0 0 1 2176.6992 899.62305 C 2192.8811 881.2522 2211.4851 865.06185 2232.0117 851.56641 A 387.12045 387.12045 0 0 0 2148.3965 768.00586 z M 3140.4199 861 C 3262.0235 861.00076 3359.365 958.34185 3359.3652 1079.9453 C 3359.3652 1201.5495 3262.0225 1298.9011 3140.4199 1298.9023 C 3018.8158 1298.9027 2921.4648 1201.5495 2921.4648 1079.9453 C 2921.4648 1019.1434 2945.8004 964.41177 2985.3379 924.875 C 3024.8754 885.33816 3079.618 860.99992 3140.4199 861 z M 699.53906 861.05664 C 821.14325 861.05687 918.48438 958.39405 918.48438 1079.998 C 918.48438 1201.6021 821.14256 1298.9568 699.53906 1298.957 C 577.93484 1298.9574 480.58398 1201.6062 480.58398 1080.002 C 480.58398 1019.2001 504.92334 964.46458 544.46094 924.92773 C 583.99839 885.39089 638.73697 861.05664 699.53906 861.05664 z M 1458.2676 873.16797 A 206.82949 206.82949 0 0 1 1665.0996 1079.998 A 206.82949 206.82949 0 0 1 1458.2676 1286.8301 A 206.82949 206.82949 0 0 1 1251.4395 1079.998 A 206.82949 206.82949 0 0 1 1458.2676 873.16797 z M 1919.9922 873.16797 A 206.82949 206.82949 0 0 1 2126.8203 1079.998 A 206.82949 206.82949 0 0 1 1919.9922 1286.8301 A 206.82949 206.82949 0 0 1 1713.1602 1079.998 A 206.82949 206.82949 0 0 1 1919.9922 873.16797 z M 2381.7129 873.16797 A 206.82949 206.82949 0 0 1 2588.543 1079.998 A 206.82949 206.82949 0 0 1 2381.7129 1286.8301 A 206.82949 206.82949 0 0 1 2174.8809 1079.998 A 206.82949 206.82949 0 0 1 2381.7129 873.16797 z M 1529.7598 907.07812 A 182.87968 182.87968 0 0 0 1405.8359 1079.998 A 182.87968 182.87968 0 0 0 1529.3145 1252.7324 A 13.054491 13.054491 0 0 1 1528.6016 1251.3633 C 1522.1983 1236.7874 1516.6327 1221.8939 1511.9102 1206.7598 A 148.39556 148.39556 0 0 1 1440.3184 1079.998 A 148.39556 148.39556 0 0 1 1512.1914 953.0332 C 1516.9126 938.01759 1522.4586 923.23989 1528.8359 908.77734 A 13.054491 13.054491 0 0 1 1529.7598 907.07812 z M 2310.668 907.26758 A 13.054491 13.054491 0 0 1 2311.3809 908.63477 C 2317.7843 923.21123 2323.3478 938.10358 2328.0703 953.23828 A 148.39556 148.39556 0 0 1 2399.6621 1079.998 A 148.39556 148.39556 0 0 1 2327.793 1206.9629 C 2323.0717 1221.9782 2317.5218 1236.7602 2311.1445 1251.2227 A 13.054491 13.054491 0 0 1 2310.2227 1252.918 A 182.87968 182.87968 0 0 0 2434.1445 1079.998 A 182.87968 182.87968 0 0 0 2310.668 907.26758 z M 2274.4219 924.83398 C 2251.8322 940.45969 2232.8422 960.89508 2218.916 984.67969 A 314.12431 314.12431 0 0 1 2234.1133 1079.998 A 314.12431 314.12431 0 0 1 2219.0762 1175.5898 C 2232.9435 1199.1829 2251.7978 1219.4689 2274.207 1235.0156 A 387.12045 387.12045 0 0 0 2307.1113 1079.998 A 387.12045 387.12045 0 0 0 2274.4219 924.83398 z M 1565.7773 924.98438 A 387.12045 387.12045 0 0 0 1532.8691 1079.998 A 387.12045 387.12045 0 0 0 1565.5605 1235.1641 C 1588.1502 1219.5385 1607.1402 1199.1049 1621.0664 1175.3203 A 314.12431 314.12431 0 0 1 1605.8672 1079.998 A 314.12431 314.12431 0 0 1 1620.9062 984.4043 C 1607.0389 960.81199 1588.1862 940.53063 1565.7773 924.98438 z M 1663.2832 1260.3711 L 1663.2832 1260.375 C 1647.1017 1278.7454 1628.4948 1294.9324 1607.9688 1308.4277 A 387.12045 387.12045 0 0 0 1691.584 1391.9883 C 1705.0358 1371.5348 1721.1606 1352.9894 1739.4551 1336.8496 A 314.12431 314.12431 0 0 1 1663.2832 1260.3711 z M 2176.8398 1260.5391 A 314.12431 314.12431 0 0 1 2100.3652 1336.707 C 2118.7358 1352.8886 2134.9226 1371.4913 2148.418 1392.0176 A 387.12045 387.12045 0 0 0 2231.9805 1308.4062 C 2211.527 1294.9546 2192.9799 1278.8337 2176.8398 1260.5391 z M 1919.9922 1334.8906 A 206.82949 206.82949 0 0 1 2126.8203 1541.7188 A 206.82949 206.82949 0 0 1 1919.9922 1748.5527 A 206.82949 206.82949 0 0 1 1713.1602 1541.7188 A 206.82949 206.82949 0 0 1 1919.9922 1334.8906 z M 2015.3105 1378.9238 A 314.12431 314.12431 0 0 1 1919.9922 1394.123 A 314.12431 314.12431 0 0 1 1824.3965 1379.0859 C 1800.804 1392.9531 1780.521 1411.8044 1764.9746 1434.2129 A 387.12045 387.12045 0 0 0 1919.9922 1467.1172 A 387.12045 387.12045 0 0 0 2075.1562 1434.4277 C 2059.5307 1411.8385 2039.0951 1392.8518 2015.3105 1378.9258 L 2015.3105 1378.9238 z M 1747.0723 1470.2246 L 1747.0723 1470.2285 A 182.87968 182.87968 0 0 0 1919.9922 1594.1543 A 182.87968 182.87968 0 0 0 2092.7227 1470.6777 A 13.054491 13.054491 0 0 1 2091.3555 1471.3887 C 2076.7795 1477.7919 2061.8859 1483.3538 2046.752 1488.0762 A 148.39556 148.39556 0 0 1 1919.9922 1559.668 A 148.39556 148.39556 0 0 1 1793.0273 1487.7988 C 1778.0112 1483.0776 1763.2306 1477.5277 1748.7676 1471.1504 A 13.054491 13.054491 0 0 1 1747.0723 1470.2246 z M 1314.8398 1531.3066 L 1314.8398 1531.3125 C 1354.0477 1531.3126 1393.2566 1546.3894 1423.4043 1576.5371 C 1483.6991 1636.8327 1483.6995 1733.3628 1423.4043 1793.6582 C 1363.1089 1853.9538 1266.5708 1853.96 1206.2754 1793.6582 C 1145.9796 1733.3626 1145.9798 1636.819 1206.2754 1576.5234 C 1236.4231 1546.3758 1275.632 1531.3061 1314.8398 1531.3066 z M 2525.1426 1531.3066 L 2525.1426 1531.3125 C 2564.3504 1531.3126 2603.5593 1546.3894 2633.707 1576.5371 C 2694.0017 1636.8327 2694.0022 1733.3628 2633.707 1793.6582 C 2573.4115 1853.9538 2476.8735 1853.96 2416.5781 1793.6582 C 2356.2824 1733.3626 2356.2826 1636.819 2416.5781 1576.5234 C 2446.7258 1546.3758 2485.9347 1531.3061 2525.1426 1531.3066 z M 1919.9434 1966.5527 C 1828.0905 1966.5527 1744.6241 2004.095 1684.1211 2064.5957 C 1656.6106 2092.1053 1633.8561 2124.3653 1617.2129 2160 L 1751.5059 2160 C 1755.7401 2154.9162 1760.193 2150.0218 1764.8672 2145.3477 C 1804.4048 2105.8107 1859.1473 2081.4744 1919.9492 2081.4746 C 1987.941 2081.475 2048.3404 2111.9116 2088.3887 2160 L 2222.6582 2160 C 2169.4093 2045.9961 2053.5608 1966.5527 1919.9434 1966.5527 z "
         style="opacity:0.15;fill:#f57f17;fill-opacity:1;fill-rule:nonzero;stroke:none;stroke-width:3.7795279;stroke-linecap:round;stroke-linejoin:round;stroke-miterlimit:2.61538458;stroke-dasharray:none;stroke-dashoffset:0;stroke-opacity:1;paint-order:normal" />
    </g>
  </g>
</svg>
