<?xml version="1.0" encoding="UTF-8" standalone="no"?>
<!-- Created with Inkscape (http://www.inkscape.org/) -->

<svg
   xmlns:dc="http://purl.org/dc/elements/1.1/"
   xmlns:cc="http://creativecommons.org/ns#"
   xmlns:rdf="http://www.w3.org/1999/02/22-rdf-syntax-ns#"
   xmlns:svg="http://www.w3.org/2000/svg"
   xmlns="http://www.w3.org/2000/svg"
   xmlns:sodipodi="http://sodipodi.sourceforge.net/DTD/sodipodi-0.dtd"
   xmlns:inkscape="http://www.inkscape.org/namespaces/inkscape"
   id="svg8"
   version="1.1"
   viewBox="0 0 1015.9999 571.5"
   height="571.5mm"
   width="1015.9999mm"
   inkscape:version="0.92.1 unknown"
   sodipodi:docname="OIXIO.svg"
   inkscape:export-filename="/home/belthsazar2/blankon-uluwatu-kesenian/gambar-latar/bliem/OIXIO.png"
   inkscape:export-xdpi="96"
   inkscape:export-ydpi="96">
  <title
     id="title5525">OIXIO</title>
  <sodipodi:namedview
     inkscape:window-maximized="1"
     inkscape:window-y="31"
     inkscape:window-x="0"
     inkscape:window-height="708"
     inkscape:window-width="1366"
     showgrid="false"
     inkscape:current-layer="layer1"
     inkscape:document-units="mm"
     inkscape:cy="1119.1939"
     inkscape:cx="1927.1158"
     inkscape:zoom="0.1767767"
     inkscape:pageshadow="2"
     inkscape:pageopacity="0.0"
     borderopacity="1.0"
     bordercolor="#666666"
     pagecolor="#ffffff"
     id="base"
     inkscape:snap-smooth-nodes="true"
     inkscape:snap-midpoints="true"
     inkscape:snap-intersection-paths="true"
     inkscape:object-paths="true"
     inkscape:snap-nodes="true"
     fit-margin-top="0"
     fit-margin-left="0"
     fit-margin-right="0"
     fit-margin-bottom="0" />
  <defs
     id="defs2" />
  <metadata
     id="metadata5">
    <rdf:RDF>
      <cc:Work
         rdf:about="">
        <dc:format>image/svg+xml</dc:format>
        <dc:type
           rdf:resource="http://purl.org/dc/dcmitype/StillImage" />
        <dc:title>OIXIO</dc:title>
        <cc:license
           rdf:resource="http://creativecommons.org/licenses/by-sa/4.0/" />
        <dc:date>2017-03-20</dc:date>
        <dc:creator>
          <cc:Agent>
            <dc:title>Vikko Okviandho Liem</dc:title>
          </cc:Agent>
        </dc:creator>
        <dc:publisher>
          <cc:Agent>
            <dc:title>Belthsazar Liem of ISO-arts</dc:title>
          </cc:Agent>
        </dc:publisher>
        <dc:description>stroke style buat O: 17mm</dc:description>
      </cc:Work>
      <cc:License
         rdf:about="http://creativecommons.org/licenses/by-sa/4.0/">
        <cc:permits
           rdf:resource="http://creativecommons.org/ns#Reproduction" />
        <cc:permits
           rdf:resource="http://creativecommons.org/ns#Distribution" />
        <cc:requires
           rdf:resource="http://creativecommons.org/ns#Notice" />
        <cc:requires
           rdf:resource="http://creativecommons.org/ns#Attribution" />
        <cc:permits
           rdf:resource="http://creativecommons.org/ns#DerivativeWorks" />
        <cc:requires
           rdf:resource="http://creativecommons.org/ns#ShareAlike" />
      </cc:License>
    </rdf:RDF>
  </metadata>
  <g
     id="layer1"
     inkscape:groupmode="layer"
     inkscape:label="Layer 1"
     transform="translate(536.41913,173.93265)">
    <g
       id="g4737">
      <rect
         style="opacity:1;fill:#ffb74d;fill-opacity:1;stroke:none;stroke-width:4.16248274;stroke-linecap:round;stroke-linejoin:round;stroke-miterlimit:4;stroke-dasharray:none;stroke-opacity:1"
         id="rect4485"
         width="1015.9998"
         height="571.49988"
         x="-536.41913"
         y="-173.93265" />
      <path
         id="path5371"
         d="M 260.85849,-36.39211 157.53613,66.930244 h 38.85654 L 131.92685,131.39684 H 180.4138 L 99.969118,211.84075 H 160.47471 L 60.09094,312.22529 h 75.50235 L 50.251232,397.56737 H 260.85849 V 186.95933 111.45697 66.930244 50.951377 2.4644255 Z m 68.96476,0 V 2.4644255 50.951377 66.930244 111.45697 186.95933 397.56737 h 149.7575 v -60.84978 l -24.4923,-24.4923 h 24.4923 v -51.01082 l -49.3737,-49.37372 h 49.3737 V 200.70887 L 410.26793,131.39684 H 458.7549 L 394.28907,66.930244 h 38.85656 z"
         style="opacity:1;fill:#ffa726;fill-opacity:1;stroke:none;stroke-width:17.00000191;stroke-linecap:round;stroke-linejoin:round;stroke-miterlimit:4;stroke-dasharray:none;stroke-opacity:1"
         inkscape:connector-curvature="0" />
      <path
         inkscape:connector-curvature="0"
         id="path4617"
         d="m -526.6098,-113.45174 c -0.47803,0 -0.9561,0.18322 -1.32238,0.54952 -0.73259,0.73257 -0.73259,1.91202 0,2.64459 l 11.90116,11.901167 -11.90116,11.901162 c -0.73259,0.732585 -0.73259,1.912215 0,2.644785 0.73258,0.732585 1.91218,0.732585 2.64478,0 l 11.90116,-11.901163 11.90117,11.901163 c 0.73258,0.732585 1.912,0.732585 2.64459,0 0.73258,-0.73257 0.73258,-1.9122 0,-2.644785 l -11.90117,-11.901162 11.90117,-11.901167 c 0.73258,-0.73257 0.73258,-1.91202 0,-2.64459 -0.73259,-0.73258 -1.91201,-0.73258 -2.64459,0 l -11.90117,11.90117 -11.90116,-11.90117 c -0.3663,-0.3663 -0.84436,-0.54952 -1.3224,-0.54952 z m 35.79919,0 c -1.03602,0 -1.8701,0.83406 -1.8701,1.87008 v 26.450394 c 0,1.036035 0.83408,1.870095 1.8701,1.870095 1.03603,0 1.87008,-0.83406 1.87008,-1.870095 v -26.450394 c 0,-1.03602 -0.83405,-1.87008 -1.87008,-1.87008 z"
         style="opacity:1;fill:#e65100;fill-opacity:1;stroke:none;stroke-width:0.3534022;stroke-linecap:round;stroke-linejoin:round;stroke-miterlimit:4;stroke-dasharray:none;stroke-opacity:1" />
      <path
         style="opacity:1;fill:#e65100;fill-opacity:1;stroke:none;stroke-width:0.3534022;stroke-linecap:round;stroke-linejoin:round;stroke-miterlimit:4;stroke-dasharray:none;stroke-opacity:1"
         d="m -526.6098,254.35222 c -0.47803,0 -0.9561,0.18323 -1.32238,0.54953 -0.73259,0.73257 -0.73259,1.91202 0,2.64459 l 11.90116,11.90116 -11.90116,11.90116 c -0.73259,0.73259 -0.73259,1.91222 0,2.64479 0.73258,0.73258 1.91218,0.73258 2.64478,0 l 11.90116,-11.90116 11.90117,11.90116 c 0.73258,0.73258 1.912,0.73258 2.64459,0 0.73258,-0.73257 0.73258,-1.9122 0,-2.64479 l -11.90117,-11.90116 11.90117,-11.90116 c 0.73258,-0.73257 0.73258,-1.91202 0,-2.64459 -0.73259,-0.73259 -1.91201,-0.73259 -2.64459,0 l -11.90117,11.90116 -11.90116,-11.90116 c -0.3663,-0.3663 -0.84436,-0.54953 -1.3224,-0.54953 z m 35.79919,0 c -1.03602,0 -1.8701,0.83406 -1.8701,1.87008 v 26.4504 c 0,1.03603 0.83408,1.87009 1.8701,1.87009 1.03603,0 1.87008,-0.83406 1.87008,-1.87009 v -26.4504 c 0,-1.03602 -0.83405,-1.87008 -1.87008,-1.87008 z"
         id="path4631"
         inkscape:connector-curvature="0" />
      <path
         inkscape:connector-curvature="0"
         id="path4633"
         d="m -526.6098,306.89565 c -0.47803,0 -0.9561,0.18323 -1.32238,0.54953 -0.73259,0.73257 -0.73259,1.91202 0,2.64459 l 11.90116,11.90116 -11.90116,11.90116 c -0.73259,0.73259 -0.73259,1.91222 0,2.64479 0.73258,0.73258 1.91218,0.73258 2.64478,0 l 11.90116,-11.90117 11.90117,11.90117 c 0.73258,0.73258 1.912,0.73258 2.64459,0 0.73258,-0.73257 0.73258,-1.9122 0,-2.64479 l -11.90117,-11.90116 11.90117,-11.90116 c 0.73258,-0.73257 0.73258,-1.91202 0,-2.64459 -0.73259,-0.73259 -1.91201,-0.73259 -2.64459,0 l -11.90117,11.90116 -11.90116,-11.90116 c -0.3663,-0.3663 -0.84436,-0.54953 -1.3224,-0.54953 z m 35.79919,0 c -1.03602,0 -1.8701,0.83406 -1.8701,1.87008 v 26.4504 c 0,1.03603 0.83408,1.87009 1.8701,1.87009 1.03603,0 1.87008,-0.83406 1.87008,-1.87009 v -26.4504 c 0,-1.03602 -0.83405,-1.87008 -1.87008,-1.87008 z"
         style="opacity:1;fill:#e65100;fill-opacity:1;stroke:none;stroke-width:0.3534022;stroke-linecap:round;stroke-linejoin:round;stroke-miterlimit:4;stroke-dasharray:none;stroke-opacity:1" />
      <path
         inkscape:connector-curvature="0"
         id="path4593"
         d="m -476.05277,-165.99515 c -0.47803,0 -0.9561,0.18323 -1.32238,0.54952 -0.73259,0.73258 -0.73259,1.91202 0,2.6446 l 11.90116,11.90117 -11.90116,11.90116 c -0.73259,0.73258 -0.73259,1.9122 0,2.64478 0.73258,0.73258 1.91218,0.73258 2.64478,0 l 11.90116,-11.90116 11.90117,11.90116 c 0.73258,0.73258 1.912,0.73258 2.64459,0 0.73258,-0.73258 0.73258,-1.9122 0,-2.64478 l -11.90117,-11.90116 11.90117,-11.90117 c 0.73258,-0.73258 0.73258,-1.91202 0,-2.6446 -0.73259,-0.73258 -1.91201,-0.73258 -2.64459,0 l -11.90117,11.90116 -11.90116,-11.90116 c -0.3663,-0.36629 -0.84436,-0.54952 -1.3224,-0.54952 z m 35.79919,0 c -1.03602,0 -1.8701,0.83406 -1.8701,1.87009 v 26.45039 c 0,1.03603 0.83408,1.87009 1.8701,1.87009 1.03603,0 1.87008,-0.83406 1.87008,-1.87009 v -26.45039 c 0,-1.03603 -0.83405,-1.87009 -1.87008,-1.87009 z"
         style="opacity:1;fill:#e65100;fill-opacity:1;stroke:none;stroke-width:0.3534022;stroke-linecap:round;stroke-linejoin:round;stroke-miterlimit:4;stroke-dasharray:none;stroke-opacity:1" />
      <path
         style="opacity:1;fill:#e65100;fill-opacity:1;stroke:none;stroke-width:0.3534022;stroke-linecap:round;stroke-linejoin:round;stroke-miterlimit:4;stroke-dasharray:none;stroke-opacity:1"
         d="m -324.38168,-165.99515 c -0.47803,0 -0.9561,0.18323 -1.32238,0.54952 -0.73259,0.73258 -0.73259,1.91202 0,2.6446 l 11.90116,11.90117 -11.90116,11.90116 c -0.73259,0.73258 -0.73259,1.9122 0,2.64478 0.73258,0.73258 1.91218,0.73258 2.64478,0 l 11.90116,-11.90116 11.90117,11.90116 c 0.73258,0.73258 1.912,0.73258 2.64459,0 0.73258,-0.73258 0.73258,-1.9122 0,-2.64478 l -11.90117,-11.90116 11.90117,-11.90117 c 0.73258,-0.73258 0.73258,-1.91202 0,-2.6446 -0.73259,-0.73258 -1.91201,-0.73258 -2.64459,0 l -11.90117,11.90116 -11.90116,-11.90116 c -0.3663,-0.36629 -0.84436,-0.54952 -1.3224,-0.54952 z m 35.79919,0 c -1.03602,0 -1.87009,0.83406 -1.87009,1.87009 v 26.45039 c 0,1.03603 0.83407,1.87009 1.87009,1.87009 1.03604,0 1.87008,-0.83406 1.87008,-1.87009 v -26.45039 c 0,-1.03603 -0.83404,-1.87009 -1.87008,-1.87009 z"
         id="path4595"
         inkscape:connector-curvature="0" />
      <path
         inkscape:connector-curvature="0"
         id="path4597"
         d="m -223.26759,-165.99515 c -0.47803,0 -0.9561,0.18323 -1.32238,0.54952 -0.73259,0.73258 -0.73259,1.91202 0,2.6446 l 11.90116,11.90117 -11.90116,11.90116 c -0.73259,0.73258 -0.73259,1.9122 0,2.64478 0.73258,0.73258 1.91218,0.73258 2.64478,0 l 11.90117,-11.90116 11.90116,11.90116 c 0.73259,0.73258 1.91201,0.73258 2.64459,0 0.73259,-0.73258 0.73259,-1.9122 0,-2.64478 l -11.90116,-11.90116 11.90116,-11.90117 c 0.73259,-0.73258 0.73259,-1.91202 0,-2.6446 -0.73258,-0.73258 -1.912,-0.73258 -2.64459,0 l -11.90116,11.90116 -11.90117,-11.90116 c -0.3663,-0.36629 -0.84436,-0.54952 -1.3224,-0.54952 z m 35.7992,0 c -1.03602,0 -1.8701,0.83406 -1.8701,1.87009 v 26.45039 c 0,1.03603 0.83408,1.87009 1.8701,1.87009 1.03603,0 1.87008,-0.83406 1.87008,-1.87009 v -26.45039 c 0,-1.03603 -0.83405,-1.87009 -1.87008,-1.87009 z"
         style="opacity:1;fill:#e65100;fill-opacity:1;stroke:none;stroke-width:0.3534022;stroke-linecap:round;stroke-linejoin:round;stroke-miterlimit:4;stroke-dasharray:none;stroke-opacity:1" />
      <path
         style="opacity:1;fill:#e65100;fill-opacity:1;stroke:none;stroke-width:0.3534022;stroke-linecap:round;stroke-linejoin:round;stroke-miterlimit:4;stroke-dasharray:none;stroke-opacity:1"
         d="m -122.15352,-165.99515 c -0.47803,0 -0.9561,0.18323 -1.32238,0.54952 -0.73259,0.73258 -0.73259,1.91202 0,2.6446 l 11.90116,11.90117 -11.90116,11.90116 c -0.73259,0.73258 -0.73259,1.9122 0,2.64478 0.73258,0.73258 1.91218,0.73258 2.64478,0 l 11.90116,-11.90116 11.901171,11.90116 c 0.73258,0.73258 1.912,0.73258 2.64458,0 0.73259,-0.73258 0.73259,-1.9122 0,-2.64478 l -11.901161,-11.90116 11.901161,-11.90117 c 0.73259,-0.73258 0.73259,-1.91202 0,-2.6446 -0.73258,-0.73258 -1.912,-0.73258 -2.64458,0 l -11.901171,11.90116 -11.90116,-11.90116 c -0.3663,-0.36629 -0.84437,-0.54952 -1.3224,-0.54952 z m 35.799191,0 c -1.03602,0 -1.8701,0.83406 -1.8701,1.87009 v 26.45039 c 0,1.03603 0.83408,1.87009 1.8701,1.87009 1.03603,0 1.87008,-0.83406 1.87008,-1.87009 v -26.45039 c 0,-1.03603 -0.83405,-1.87009 -1.87008,-1.87009 z"
         id="path4599"
         inkscape:connector-curvature="0" />
      <path
         inkscape:connector-curvature="0"
         id="path4601"
         d="m -21.03949,-165.99515 c -0.478035,0 -0.956099,0.18323 -1.322384,0.54952 -0.732585,0.73258 -0.732585,1.91202 0,2.6446 l 11.901162,11.90117 -11.901162,11.90116 c -0.732585,0.73258 -0.732585,1.9122 0,2.64478 0.732584,0.73258 1.912184,0.73258 2.644784,0 l 11.9011631,-11.90116 11.901162,11.90116 c 0.732585,0.73258 1.912005,0.73258 2.64459,0 0.732585,-0.73258 0.732585,-1.9122 0,-2.64478 l -11.901163,-11.90116 11.901163,-11.90117 c 0.732585,-0.73258 0.732585,-1.91202 0,-2.6446 -0.732585,-0.73258 -1.912005,-0.73258 -2.64459,0 l -11.901162,11.90116 -11.9011631,-11.90116 c -0.3663,-0.36629 -0.844365,-0.54952 -1.3224,-0.54952 z m 35.799188,0 c -1.03602,0 -1.870094,0.83406 -1.870094,1.87009 v 26.45039 c 0,1.03603 0.834074,1.87009 1.870094,1.87009 1.036035,0 1.87008,-0.83406 1.87008,-1.87009 v -26.45039 c 0,-1.03603 -0.834045,-1.87009 -1.87008,-1.87009 z"
         style="opacity:1;fill:#e65100;fill-opacity:1;stroke:none;stroke-width:0.3534022;stroke-linecap:round;stroke-linejoin:round;stroke-miterlimit:4;stroke-dasharray:none;stroke-opacity:1" />
      <path
         style="opacity:1;fill:#e65100;fill-opacity:1;stroke:none;stroke-width:0.3534022;stroke-linecap:round;stroke-linejoin:round;stroke-miterlimit:4;stroke-dasharray:none;stroke-opacity:1"
         d="m 80.074603,-165.99515 c -0.478035,0 -0.9561,0.18323 -1.322385,0.54952 -0.732584,0.73258 -0.732584,1.91202 0,2.6446 l 11.901163,11.90117 -11.901163,11.90116 c -0.732584,0.73258 -0.732584,1.9122 0,2.64478 0.732585,0.73258 1.912185,0.73258 2.644785,0 l 11.901162,-11.90116 11.901165,11.90116 c 0.73258,0.73258 1.912,0.73258 2.64459,0 0.73258,-0.73258 0.73258,-1.9122 0,-2.64478 l -11.901165,-11.90116 11.901165,-11.90117 c 0.73258,-0.73258 0.73258,-1.91202 0,-2.6446 -0.73259,-0.73258 -1.91201,-0.73258 -2.64459,0 l -11.901165,11.90116 -11.901162,-11.90116 c -0.3663,-0.36629 -0.844365,-0.54952 -1.3224,-0.54952 z m 35.799177,0 c -1.03602,0 -1.87009,0.83406 -1.87009,1.87009 v 26.45039 c 0,1.03603 0.83407,1.87009 1.87009,1.87009 1.03604,0 1.87008,-0.83406 1.87008,-1.87009 v -26.45039 c 0,-1.03603 -0.83404,-1.87009 -1.87008,-1.87009 z"
         id="path4603"
         inkscape:connector-curvature="0" />
      <path
         inkscape:connector-curvature="0"
         id="path4605"
         d="m 181.18866,-165.99515 c -0.47804,0 -0.9561,0.18323 -1.32239,0.54952 -0.73258,0.73258 -0.73258,1.91202 0,2.6446 l 11.90116,11.90117 -11.90116,11.90116 c -0.73258,0.73258 -0.73258,1.9122 0,2.64478 0.73259,0.73258 1.91219,0.73258 2.64479,0 l 11.90116,-11.90116 11.90116,11.90116 c 0.73259,0.73258 1.91201,0.73258 2.64459,0 0.73259,-0.73258 0.73259,-1.9122 0,-2.64478 l -11.90116,-11.90116 11.90116,-11.90117 c 0.73259,-0.73258 0.73259,-1.91202 0,-2.6446 -0.73258,-0.73258 -1.912,-0.73258 -2.64459,0 l -11.90116,11.90116 -11.90116,-11.90116 c -0.3663,-0.36629 -0.84437,-0.54952 -1.3224,-0.54952 z m 35.79918,0 c -1.03602,0 -1.87009,0.83406 -1.87009,1.87009 v 26.45039 c 0,1.03603 0.83407,1.87009 1.87009,1.87009 1.03604,0 1.87008,-0.83406 1.87008,-1.87009 v -26.45039 c 0,-1.03603 -0.83404,-1.87009 -1.87008,-1.87009 z"
         style="opacity:1;fill:#e65100;fill-opacity:1;stroke:none;stroke-width:0.3534022;stroke-linecap:round;stroke-linejoin:round;stroke-miterlimit:4;stroke-dasharray:none;stroke-opacity:1" />
      <path
         style="opacity:1;fill:#e65100;fill-opacity:1;stroke:none;stroke-width:0.3534022;stroke-linecap:round;stroke-linejoin:round;stroke-miterlimit:4;stroke-dasharray:none;stroke-opacity:1"
         d="m 282.30275,-165.99515 c -0.47804,0 -0.9561,0.18323 -1.32239,0.54952 -0.73258,0.73258 -0.73258,1.91202 0,2.6446 l 11.90117,11.90117 -11.90117,11.90116 c -0.73258,0.73258 -0.73258,1.9122 0,2.64478 0.73259,0.73258 1.91219,0.73258 2.64479,0 l 11.90116,-11.90116 11.90116,11.90116 c 0.73259,0.73258 1.91201,0.73258 2.64459,0 0.73259,-0.73258 0.73259,-1.9122 0,-2.64478 l -11.90116,-11.90116 11.90116,-11.90117 c 0.73259,-0.73258 0.73259,-1.91202 0,-2.6446 -0.73258,-0.73258 -1.912,-0.73258 -2.64459,0 l -11.90116,11.90116 -11.90116,-11.90116 c -0.3663,-0.36629 -0.84437,-0.54952 -1.3224,-0.54952 z m 35.79919,0 c -1.03602,0 -1.8701,0.83406 -1.8701,1.87009 v 26.45039 c 0,1.03603 0.83408,1.87009 1.8701,1.87009 1.03603,0 1.87007,-0.83406 1.87007,-1.87009 v -26.45039 c 0,-1.03603 -0.83404,-1.87009 -1.87007,-1.87009 z"
         id="path4607"
         inkscape:connector-curvature="0" />
      <path
         inkscape:connector-curvature="0"
         id="path4609"
         d="m 383.41679,-165.99515 c -0.47803,0 -0.9561,0.18323 -1.32238,0.54952 -0.73259,0.73258 -0.73259,1.91202 0,2.6446 l 11.90116,11.90117 -11.90116,11.90116 c -0.73259,0.73258 -0.73259,1.9122 0,2.64478 0.73258,0.73258 1.91218,0.73258 2.64478,0 l 11.90117,-11.90116 11.90116,11.90116 c 0.73258,0.73258 1.912,0.73258 2.64459,0 0.73258,-0.73258 0.73258,-1.9122 0,-2.64478 l -11.90117,-11.90116 11.90117,-11.90117 c 0.73258,-0.73258 0.73258,-1.91202 0,-2.6446 -0.73259,-0.73258 -1.91201,-0.73258 -2.64459,0 l -11.90116,11.90116 -11.90117,-11.90116 c -0.3663,-0.36629 -0.84436,-0.54952 -1.3224,-0.54952 z m 35.79919,0 c -1.03602,0 -1.87009,0.83406 -1.87009,1.87009 v 26.45039 c 0,1.03603 0.83407,1.87009 1.87009,1.87009 1.03604,0 1.87008,-0.83406 1.87008,-1.87009 v -26.45039 c 0,-1.03603 -0.83404,-1.87009 -1.87008,-1.87009 z"
         style="opacity:1;fill:#e65100;fill-opacity:1;stroke:none;stroke-width:0.3534022;stroke-linecap:round;stroke-linejoin:round;stroke-miterlimit:4;stroke-dasharray:none;stroke-opacity:1" />
      <path
         style="opacity:1;fill:#e65100;fill-opacity:1;stroke:none;stroke-width:0.3534022;stroke-linecap:round;stroke-linejoin:round;stroke-miterlimit:4;stroke-dasharray:none;stroke-opacity:1"
         d="m -526.6098,-165.99515 c -0.47803,0 -0.9561,0.18323 -1.32238,0.54952 -0.73259,0.73258 -0.73259,1.91202 0,2.6446 l 11.90116,11.90117 -11.90116,11.90116 c -0.73259,0.73258 -0.73259,1.9122 0,2.64478 0.73258,0.73258 1.91218,0.73258 2.64478,0 l 11.90116,-11.90116 11.90117,11.90116 c 0.73258,0.73258 1.912,0.73258 2.64459,0 0.73258,-0.73258 0.73258,-1.9122 0,-2.64478 l -11.90117,-11.90116 11.90117,-11.90117 c 0.73258,-0.73258 0.73258,-1.91202 0,-2.6446 -0.73259,-0.73258 -1.91201,-0.73258 -2.64459,0 l -11.90117,11.90116 -11.90116,-11.90116 c -0.3663,-0.36629 -0.84436,-0.54952 -1.3224,-0.54952 z m 35.79919,0 c -1.03602,0 -1.8701,0.83406 -1.8701,1.87009 v 26.45039 c 0,1.03603 0.83408,1.87009 1.8701,1.87009 1.03603,0 1.87008,-0.83406 1.87008,-1.87009 v -26.45039 c 0,-1.03603 -0.83405,-1.87009 -1.87008,-1.87009 z"
         id="rect4491"
         inkscape:connector-curvature="0" />
      <path
         inkscape:connector-curvature="0"
         id="path4650"
         d="m 433.97382,-165.99515 c -0.47803,0 -0.9561,0.18323 -1.32238,0.54952 -0.73259,0.73258 -0.73259,1.91202 0,2.6446 l 11.90116,11.90117 -11.90116,11.90116 c -0.73259,0.73258 -0.73259,1.9122 0,2.64478 0.73258,0.73258 1.91218,0.73258 2.64478,0 l 11.90117,-11.90116 11.90116,11.90116 c 0.73258,0.73258 1.912,0.73258 2.64459,0 0.73258,-0.73258 0.73258,-1.9122 0,-2.64478 l -11.90116,-11.90116 11.90116,-11.90117 c 0.73258,-0.73258 0.73258,-1.91202 0,-2.6446 -0.73259,-0.73258 -1.91201,-0.73258 -2.64459,0 l -11.90116,11.90116 -11.90117,-11.90116 c -0.3663,-0.36629 -0.84436,-0.54952 -1.3224,-0.54952 z m 35.79919,0 c -1.03602,0 -1.87009,0.83406 -1.87009,1.87009 v 26.45039 c 0,1.03603 0.83407,1.87009 1.87009,1.87009 1.03604,0 1.87008,-0.83406 1.87008,-1.87009 v -26.45039 c 0,-1.03603 -0.83404,-1.87009 -1.87008,-1.87009 z"
         style="opacity:1;fill:#e65100;fill-opacity:1;stroke:none;stroke-width:0.3534022;stroke-linecap:round;stroke-linejoin:round;stroke-miterlimit:4;stroke-dasharray:none;stroke-opacity:1" />
      <path
         style="opacity:1;fill:#e65100;fill-opacity:1;stroke:none;stroke-width:0.3534022;stroke-linecap:round;stroke-linejoin:round;stroke-miterlimit:4;stroke-dasharray:none;stroke-opacity:1"
         d="m 433.97382,-113.45174 c -0.47803,0 -0.9561,0.18322 -1.32238,0.54952 -0.73259,0.73257 -0.73259,1.91202 0,2.64459 l 11.90116,11.901167 -11.90116,11.901162 c -0.73259,0.732585 -0.73259,1.912215 0,2.644785 0.73258,0.732585 1.91218,0.732585 2.64478,0 l 11.90117,-11.901163 11.90116,11.901163 c 0.73258,0.732585 1.912,0.732585 2.64459,0 0.73258,-0.73257 0.73258,-1.9122 0,-2.644785 l -11.90116,-11.901162 11.90116,-11.901167 c 0.73258,-0.73257 0.73258,-1.91202 0,-2.64459 -0.73259,-0.73258 -1.91201,-0.73258 -2.64459,0 l -11.90116,11.90117 -11.90117,-11.90117 c -0.3663,-0.3663 -0.84436,-0.54952 -1.3224,-0.54952 z m 35.79919,0 c -1.03602,0 -1.87009,0.83406 -1.87009,1.87008 v 26.450394 c 0,1.036035 0.83407,1.870095 1.87009,1.870095 1.03604,0 1.87008,-0.83406 1.87008,-1.870095 v -26.450394 c 0,-1.03602 -0.83404,-1.87008 -1.87008,-1.87008 z"
         id="path4652"
         inkscape:connector-curvature="0" />
      <path
         inkscape:connector-curvature="0"
         id="path4654"
         d="m 433.97382,-60.908301 c -0.47803,0 -0.9561,0.183225 -1.32238,0.549525 -0.73259,0.73257 -0.73259,1.91202 0,2.64459 l 11.90116,11.901162 -11.90116,11.901163 c -0.73259,0.732585 -0.73259,1.912215 0,2.644785 0.73258,0.732584 1.91218,0.732584 2.64478,0 l 11.90117,-11.901163 11.90116,11.901163 c 0.73258,0.732584 1.912,0.732584 2.64459,0 0.73258,-0.73257 0.73258,-1.9122 0,-2.644785 l -11.90116,-11.901163 11.90116,-11.901162 c 0.73258,-0.73257 0.73258,-1.91202 0,-2.64459 -0.73259,-0.732585 -1.91201,-0.732585 -2.64459,0 l -11.90116,11.901163 -11.90117,-11.901163 c -0.3663,-0.3663 -0.84436,-0.549525 -1.3224,-0.549525 z m 35.79919,0 c -1.03602,0 -1.87009,0.83406 -1.87009,1.87008 v 26.450395 c 0,1.036035 0.83407,1.870094 1.87009,1.870094 1.03604,0 1.87008,-0.834059 1.87008,-1.870094 v -26.450395 c 0,-1.03602 -0.83404,-1.87008 -1.87008,-1.87008 z"
         style="opacity:1;fill:#e65100;fill-opacity:1;stroke:none;stroke-width:0.3534022;stroke-linecap:round;stroke-linejoin:round;stroke-miterlimit:4;stroke-dasharray:none;stroke-opacity:1" />
      <path
         style="opacity:1;fill:#e65100;fill-opacity:1;stroke:none;stroke-width:0.3534022;stroke-linecap:round;stroke-linejoin:round;stroke-miterlimit:4;stroke-dasharray:none;stroke-opacity:1"
         d="m 433.97382,-8.3648861 c -0.47803,0 -0.9561,0.183225 -1.32238,0.5495249 -0.73259,0.7325699 -0.73259,1.9120196 0,2.6445895 L 444.5526,6.7303909 432.65144,18.631554 c -0.73259,0.732584 -0.73259,1.912214 0,2.644784 0.73258,0.732585 1.91218,0.732585 2.64478,0 L 447.19739,9.3751754 459.09855,21.276338 c 0.73258,0.732585 1.912,0.732585 2.64459,0 0.73258,-0.73257 0.73258,-1.9122 0,-2.644784 L 449.84198,6.7303909 461.74314,-5.1707717 c 0.73258,-0.7325699 0.73258,-1.9120196 0,-2.6445895 -0.73259,-0.7325848 -1.91201,-0.7325848 -2.64459,0 L 447.19739,4.0858014 435.29622,-7.8153612 c -0.3663,-0.3662999 -0.84436,-0.5495249 -1.3224,-0.5495249 z m 35.79919,0 c -1.03602,0 -1.87009,0.8340599 -1.87009,1.8700797 V 19.955588 c 0,1.036035 0.83407,1.870095 1.87009,1.870095 1.03604,0 1.87008,-0.83406 1.87008,-1.870095 V -6.4948064 c 0,-1.0360198 -0.83404,-1.8700797 -1.87008,-1.8700797 z"
         id="path4656"
         inkscape:connector-curvature="0" />
      <path
         inkscape:connector-curvature="0"
         id="path4658"
         d="m 433.97382,44.178527 c -0.47803,0 -0.9561,0.183225 -1.32238,0.549525 -0.73259,0.73257 -0.73259,1.912019 0,2.644589 l 11.90116,11.901157 -11.90116,11.901163 c -0.73259,0.732584 -0.73259,1.912214 0,2.644784 0.73258,0.732585 1.91218,0.732585 2.64478,0 l 11.90117,-11.901163 11.90116,11.901163 c 0.73258,0.732585 1.912,0.732585 2.64459,0 0.73258,-0.73257 0.73258,-1.9122 0,-2.644784 L 449.84198,59.273798 461.74314,47.372641 c 0.73258,-0.73257 0.73258,-1.912019 0,-2.644589 -0.73259,-0.732585 -1.91201,-0.732585 -2.64459,0 L 447.19739,56.629214 435.29622,44.728052 c -0.3663,-0.3663 -0.84436,-0.549525 -1.3224,-0.549525 z m 35.79919,0 c -1.03602,0 -1.87009,0.83406 -1.87009,1.87008 v 26.450388 c 0,1.036035 0.83407,1.870095 1.87009,1.870095 1.03604,0 1.87008,-0.83406 1.87008,-1.870095 V 46.048607 c 0,-1.03602 -0.83404,-1.87008 -1.87008,-1.87008 z"
         style="opacity:1;fill:#e65100;fill-opacity:1;stroke:none;stroke-width:0.3534022;stroke-linecap:round;stroke-linejoin:round;stroke-miterlimit:4;stroke-dasharray:none;stroke-opacity:1" />
      <path
         style="opacity:1;fill:#e65100;fill-opacity:1;stroke:none;stroke-width:0.3534022;stroke-linecap:round;stroke-linejoin:round;stroke-miterlimit:4;stroke-dasharray:none;stroke-opacity:1"
         d="m 433.97382,96.721965 c -0.47803,0 -0.9561,0.183225 -1.32238,0.549525 -0.73259,0.73257 -0.73259,1.91202 0,2.64459 l 11.90116,11.90116 -11.90116,11.90117 c -0.73259,0.73258 -0.73259,1.91221 0,2.64478 0.73258,0.73258 1.91218,0.73258 2.64478,0 l 11.90117,-11.90116 11.90116,11.90116 c 0.73258,0.73258 1.912,0.73258 2.64459,0 0.73258,-0.73257 0.73258,-1.9122 0,-2.64478 l -11.90116,-11.90117 11.90116,-11.90116 c 0.73258,-0.73257 0.73258,-1.91202 0,-2.64459 -0.73259,-0.732585 -1.91201,-0.732585 -2.64459,0 l -11.90116,11.90116 -11.90117,-11.90116 c -0.3663,-0.3663 -0.84436,-0.549525 -1.3224,-0.549525 z m 35.79919,0 c -1.03602,0 -1.87009,0.83406 -1.87009,1.87008 v 26.450395 c 0,1.03603 0.83407,1.87009 1.87009,1.87009 1.03604,0 1.87008,-0.83406 1.87008,-1.87009 V 98.592045 c 0,-1.03602 -0.83404,-1.87008 -1.87008,-1.87008 z"
         id="path4660"
         inkscape:connector-curvature="0" />
      <path
         inkscape:connector-curvature="0"
         id="path4662"
         d="m 433.97382,149.26538 c -0.47803,0 -0.9561,0.18322 -1.32238,0.54952 -0.73259,0.73257 -0.73259,1.91202 0,2.64459 l 11.90116,11.90117 -11.90116,11.90116 c -0.73259,0.73258 -0.73259,1.91221 0,2.64478 0.73258,0.73259 1.91218,0.73259 2.64478,0 l 11.90117,-11.90116 11.90116,11.90116 c 0.73258,0.73259 1.912,0.73259 2.64459,0 0.73258,-0.73257 0.73258,-1.9122 0,-2.64478 l -11.90116,-11.90116 11.90116,-11.90117 c 0.73258,-0.73257 0.73258,-1.91202 0,-2.64459 -0.73259,-0.73258 -1.91201,-0.73258 -2.64459,0 l -11.90116,11.90117 -11.90117,-11.90117 c -0.3663,-0.3663 -0.84436,-0.54952 -1.3224,-0.54952 z m 35.79919,0 c -1.03602,0 -1.87009,0.83406 -1.87009,1.87008 v 26.45039 c 0,1.03604 0.83407,1.8701 1.87009,1.8701 1.03604,0 1.87008,-0.83406 1.87008,-1.8701 v -26.45039 c 0,-1.03602 -0.83404,-1.87008 -1.87008,-1.87008 z"
         style="opacity:1;fill:#e65100;fill-opacity:1;stroke:none;stroke-width:0.3534022;stroke-linecap:round;stroke-linejoin:round;stroke-miterlimit:4;stroke-dasharray:none;stroke-opacity:1" />
      <path
         style="opacity:1;fill:#e65100;fill-opacity:1;stroke:none;stroke-width:0.3534022;stroke-linecap:round;stroke-linejoin:round;stroke-miterlimit:4;stroke-dasharray:none;stroke-opacity:1"
         d="m 433.97382,201.80879 c -0.47803,0 -0.9561,0.18323 -1.32238,0.54953 -0.73259,0.73257 -0.73259,1.91202 0,2.64459 l 11.90116,11.90116 -11.90116,11.90116 c -0.73259,0.73259 -0.73259,1.91222 0,2.64479 0.73258,0.73258 1.91218,0.73258 2.64478,0 l 11.90117,-11.90116 11.90116,11.90116 c 0.73258,0.73258 1.912,0.73258 2.64459,0 0.73258,-0.73257 0.73258,-1.9122 0,-2.64479 l -11.90116,-11.90116 11.90116,-11.90116 c 0.73258,-0.73257 0.73258,-1.91202 0,-2.64459 -0.73259,-0.73259 -1.91201,-0.73259 -2.64459,0 l -11.90116,11.90116 -11.90117,-11.90116 c -0.3663,-0.3663 -0.84436,-0.54953 -1.3224,-0.54953 z m 35.79919,0 c -1.03602,0 -1.87009,0.83406 -1.87009,1.87008 v 26.4504 c 0,1.03603 0.83407,1.87009 1.87009,1.87009 1.03604,0 1.87008,-0.83406 1.87008,-1.87009 v -26.4504 c 0,-1.03602 -0.83404,-1.87008 -1.87008,-1.87008 z"
         id="path4664"
         inkscape:connector-curvature="0" />
      <path
         inkscape:connector-curvature="0"
         id="path4666"
         d="m 433.97382,254.35222 c -0.47803,0 -0.9561,0.18323 -1.32238,0.54953 -0.73259,0.73257 -0.73259,1.91202 0,2.64459 l 11.90116,11.90116 -11.90116,11.90116 c -0.73259,0.73259 -0.73259,1.91222 0,2.64479 0.73258,0.73258 1.91218,0.73258 2.64478,0 l 11.90117,-11.90116 11.90116,11.90116 c 0.73258,0.73258 1.912,0.73258 2.64459,0 0.73258,-0.73257 0.73258,-1.9122 0,-2.64479 l -11.90116,-11.90116 11.90116,-11.90116 c 0.73258,-0.73257 0.73258,-1.91202 0,-2.64459 -0.73259,-0.73259 -1.91201,-0.73259 -2.64459,0 l -11.90116,11.90116 -11.90117,-11.90116 c -0.3663,-0.3663 -0.84436,-0.54953 -1.3224,-0.54953 z m 35.79919,0 c -1.03602,0 -1.87009,0.83406 -1.87009,1.87008 v 26.4504 c 0,1.03603 0.83407,1.87009 1.87009,1.87009 1.03604,0 1.87008,-0.83406 1.87008,-1.87009 v -26.4504 c 0,-1.03602 -0.83404,-1.87008 -1.87008,-1.87008 z"
         style="opacity:1;fill:#e65100;fill-opacity:1;stroke:none;stroke-width:0.3534022;stroke-linecap:round;stroke-linejoin:round;stroke-miterlimit:4;stroke-dasharray:none;stroke-opacity:1" />
      <path
         style="opacity:1;fill:#e65100;fill-opacity:1;stroke:none;stroke-width:0.3534022;stroke-linecap:round;stroke-linejoin:round;stroke-miterlimit:4;stroke-dasharray:none;stroke-opacity:1"
         d="m 433.97382,306.89565 c -0.47803,0 -0.9561,0.18323 -1.32238,0.54953 -0.73259,0.73257 -0.73259,1.91202 0,2.64459 l 11.90116,11.90116 -11.90116,11.90116 c -0.73259,0.73259 -0.73259,1.91222 0,2.64479 0.73258,0.73258 1.91218,0.73258 2.64478,0 l 11.90117,-11.90117 11.90116,11.90117 c 0.73258,0.73258 1.912,0.73258 2.64459,0 0.73258,-0.73257 0.73258,-1.9122 0,-2.64479 l -11.90116,-11.90116 11.90116,-11.90116 c 0.73258,-0.73257 0.73258,-1.91202 0,-2.64459 -0.73259,-0.73259 -1.91201,-0.73259 -2.64459,0 l -11.90116,11.90116 -11.90117,-11.90116 c -0.3663,-0.3663 -0.84436,-0.54953 -1.3224,-0.54953 z m 35.79919,0 c -1.03602,0 -1.87009,0.83406 -1.87009,1.87008 v 26.4504 c 0,1.03603 0.83407,1.87009 1.87009,1.87009 1.03604,0 1.87008,-0.83406 1.87008,-1.87009 v -26.4504 c 0,-1.03602 -0.83404,-1.87008 -1.87008,-1.87008 z"
         id="path4668"
         inkscape:connector-curvature="0" />
      <path
         style="opacity:1;fill:#e65100;fill-opacity:1;stroke:none;stroke-width:0.3534022;stroke-linecap:round;stroke-linejoin:round;stroke-miterlimit:4;stroke-dasharray:none;stroke-opacity:1"
         d="m -476.05277,359.43905 c -0.47803,0 -0.9561,0.18323 -1.32238,0.54953 -0.73259,0.73258 -0.73259,1.91202 0,2.6446 l 11.90116,11.90116 -11.90116,11.90117 c -0.73259,0.73258 -0.73259,1.9122 0,2.64478 0.73258,0.73257 1.91218,0.73257 2.64478,0 l 11.90116,-11.90116 11.90117,11.90116 c 0.73258,0.73257 1.912,0.73257 2.64459,0 0.73258,-0.73258 0.73258,-1.9122 0,-2.64478 l -11.90117,-11.90117 11.90117,-11.90116 c 0.73258,-0.73258 0.73258,-1.91202 0,-2.6446 -0.73259,-0.73259 -1.91201,-0.73259 -2.64459,0 l -11.90117,11.90116 -11.90116,-11.90116 c -0.3663,-0.3663 -0.84436,-0.54953 -1.3224,-0.54953 z m 35.79919,0 c -1.03602,0 -1.8701,0.83406 -1.8701,1.8701 v 26.45039 c 0,1.03602 0.83408,1.87008 1.8701,1.87008 1.03603,0 1.87008,-0.83406 1.87008,-1.87008 v -26.45039 c 0,-1.03604 -0.83405,-1.8701 -1.87008,-1.8701 z"
         id="path4709"
         inkscape:connector-curvature="0" />
      <path
         inkscape:connector-curvature="0"
         id="path4711"
         d="m -324.38168,359.43905 c -0.47803,0 -0.9561,0.18323 -1.32238,0.54953 -0.73259,0.73258 -0.73259,1.91202 0,2.6446 l 11.90116,11.90116 -11.90116,11.90117 c -0.73259,0.73258 -0.73259,1.9122 0,2.64478 0.73258,0.73257 1.91218,0.73257 2.64478,0 l 11.90116,-11.90116 11.90117,11.90116 c 0.73258,0.73257 1.912,0.73257 2.64459,0 0.73258,-0.73258 0.73258,-1.9122 0,-2.64478 l -11.90117,-11.90117 11.90117,-11.90116 c 0.73258,-0.73258 0.73258,-1.91202 0,-2.6446 -0.73259,-0.73259 -1.91201,-0.73259 -2.64459,0 l -11.90117,11.90116 -11.90116,-11.90116 c -0.3663,-0.3663 -0.84436,-0.54953 -1.3224,-0.54953 z m 35.79919,0 c -1.03602,0 -1.87009,0.83406 -1.87009,1.8701 v 26.45039 c 0,1.03602 0.83407,1.87008 1.87009,1.87008 1.03604,0 1.87008,-0.83406 1.87008,-1.87008 v -26.45039 c 0,-1.03604 -0.83404,-1.8701 -1.87008,-1.8701 z"
         style="opacity:1;fill:#e65100;fill-opacity:1;stroke:none;stroke-width:0.3534022;stroke-linecap:round;stroke-linejoin:round;stroke-miterlimit:4;stroke-dasharray:none;stroke-opacity:1" />
      <path
         style="opacity:1;fill:#e65100;fill-opacity:1;stroke:none;stroke-width:0.3534022;stroke-linecap:round;stroke-linejoin:round;stroke-miterlimit:4;stroke-dasharray:none;stroke-opacity:1"
         d="m -223.26759,359.43905 c -0.47803,0 -0.9561,0.18323 -1.32238,0.54953 -0.73259,0.73258 -0.73259,1.91202 0,2.6446 l 11.90116,11.90116 -11.90116,11.90117 c -0.73259,0.73258 -0.73259,1.9122 0,2.64478 0.73258,0.73257 1.91218,0.73257 2.64478,0 l 11.90117,-11.90116 11.90116,11.90116 c 0.73259,0.73257 1.91201,0.73257 2.64459,0 0.73259,-0.73258 0.73259,-1.9122 0,-2.64478 l -11.90116,-11.90117 11.90116,-11.90116 c 0.73259,-0.73258 0.73259,-1.91202 0,-2.6446 -0.73258,-0.73259 -1.912,-0.73259 -2.64459,0 l -11.90116,11.90116 -11.90117,-11.90116 c -0.3663,-0.3663 -0.84436,-0.54953 -1.3224,-0.54953 z m 35.7992,0 c -1.03602,0 -1.8701,0.83406 -1.8701,1.8701 v 26.45039 c 0,1.03602 0.83408,1.87008 1.8701,1.87008 1.03603,0 1.87008,-0.83406 1.87008,-1.87008 v -26.45039 c 0,-1.03604 -0.83405,-1.8701 -1.87008,-1.8701 z"
         id="path4713"
         inkscape:connector-curvature="0" />
      <path
         inkscape:connector-curvature="0"
         id="path4715"
         d="m -122.15352,359.43905 c -0.47803,0 -0.9561,0.18323 -1.32238,0.54953 -0.73259,0.73258 -0.73259,1.91202 0,2.6446 l 11.90116,11.90116 -11.90116,11.90117 c -0.73259,0.73258 -0.73259,1.9122 0,2.64478 0.73258,0.73257 1.91218,0.73257 2.64478,0 l 11.90116,-11.90116 11.901171,11.90116 c 0.73258,0.73257 1.912,0.73257 2.64458,0 0.73259,-0.73258 0.73259,-1.9122 0,-2.64478 l -11.901161,-11.90117 11.901161,-11.90116 c 0.73259,-0.73258 0.73259,-1.91202 0,-2.6446 -0.73258,-0.73259 -1.912,-0.73259 -2.64458,0 l -11.901171,11.90116 -11.90116,-11.90116 c -0.3663,-0.3663 -0.84437,-0.54953 -1.3224,-0.54953 z m 35.799191,0 c -1.03602,0 -1.8701,0.83406 -1.8701,1.8701 v 26.45039 c 0,1.03602 0.83408,1.87008 1.8701,1.87008 1.03603,0 1.87008,-0.83406 1.87008,-1.87008 v -26.45039 c 0,-1.03604 -0.83405,-1.8701 -1.87008,-1.8701 z"
         style="opacity:1;fill:#e65100;fill-opacity:1;stroke:none;stroke-width:0.3534022;stroke-linecap:round;stroke-linejoin:round;stroke-miterlimit:4;stroke-dasharray:none;stroke-opacity:1" />
      <path
         style="opacity:1;fill:#e65100;fill-opacity:1;stroke:none;stroke-width:0.3534022;stroke-linecap:round;stroke-linejoin:round;stroke-miterlimit:4;stroke-dasharray:none;stroke-opacity:1"
         d="m -21.03949,359.43905 c -0.478035,0 -0.956099,0.18323 -1.322384,0.54953 -0.732585,0.73258 -0.732585,1.91202 0,2.6446 l 11.901162,11.90116 -11.901162,11.90117 c -0.732585,0.73258 -0.732585,1.9122 0,2.64478 0.732584,0.73257 1.912184,0.73257 2.644784,0 l 11.9011631,-11.90116 11.901162,11.90116 c 0.732585,0.73257 1.912005,0.73257 2.64459,0 0.732585,-0.73258 0.732585,-1.9122 0,-2.64478 l -11.901163,-11.90117 11.901163,-11.90116 c 0.732585,-0.73258 0.732585,-1.91202 0,-2.6446 -0.732585,-0.73259 -1.912005,-0.73259 -2.64459,0 L -7.8159269,371.88974 -19.71709,359.98858 c -0.3663,-0.3663 -0.844365,-0.54953 -1.3224,-0.54953 z m 35.799188,0 c -1.03602,0 -1.870094,0.83406 -1.870094,1.8701 v 26.45039 c 0,1.03602 0.834074,1.87008 1.870094,1.87008 1.036035,0 1.87008,-0.83406 1.87008,-1.87008 v -26.45039 c 0,-1.03604 -0.834045,-1.8701 -1.87008,-1.8701 z"
         id="path4717"
         inkscape:connector-curvature="0" />
      <path
         inkscape:connector-curvature="0"
         id="path4719"
         d="m 80.074603,359.43905 c -0.478035,0 -0.9561,0.18323 -1.322385,0.54953 -0.732584,0.73258 -0.732584,1.91202 0,2.6446 l 11.901163,11.90116 -11.901163,11.90117 c -0.732584,0.73258 -0.732584,1.9122 0,2.64478 0.732585,0.73257 1.912185,0.73257 2.644785,0 l 11.901162,-11.90116 11.901165,11.90116 c 0.73258,0.73257 1.912,0.73257 2.64459,0 0.73258,-0.73258 0.73258,-1.9122 0,-2.64478 L 95.942755,374.53434 107.84392,362.63318 c 0.73258,-0.73258 0.73258,-1.91202 0,-2.6446 -0.73259,-0.73259 -1.91201,-0.73259 -2.64459,0 L 93.298165,371.88974 81.397003,359.98858 c -0.3663,-0.3663 -0.844365,-0.54953 -1.3224,-0.54953 z m 35.799177,0 c -1.03602,0 -1.87009,0.83406 -1.87009,1.8701 v 26.45039 c 0,1.03602 0.83407,1.87008 1.87009,1.87008 1.03604,0 1.87008,-0.83406 1.87008,-1.87008 v -26.45039 c 0,-1.03604 -0.83404,-1.8701 -1.87008,-1.8701 z"
         style="opacity:1;fill:#e65100;fill-opacity:1;stroke:none;stroke-width:0.3534022;stroke-linecap:round;stroke-linejoin:round;stroke-miterlimit:4;stroke-dasharray:none;stroke-opacity:1" />
      <path
         style="opacity:1;fill:#e65100;fill-opacity:1;stroke:none;stroke-width:0.3534022;stroke-linecap:round;stroke-linejoin:round;stroke-miterlimit:4;stroke-dasharray:none;stroke-opacity:1"
         d="m 181.18866,359.43905 c -0.47804,0 -0.9561,0.18323 -1.32239,0.54953 -0.73258,0.73258 -0.73258,1.91202 0,2.6446 l 11.90116,11.90116 -11.90116,11.90117 c -0.73258,0.73258 -0.73258,1.9122 0,2.64478 0.73259,0.73257 1.91219,0.73257 2.64479,0 l 11.90116,-11.90116 11.90116,11.90116 c 0.73259,0.73257 1.91201,0.73257 2.64459,0 0.73259,-0.73258 0.73259,-1.9122 0,-2.64478 l -11.90116,-11.90117 11.90116,-11.90116 c 0.73259,-0.73258 0.73259,-1.91202 0,-2.6446 -0.73258,-0.73259 -1.912,-0.73259 -2.64459,0 l -11.90116,11.90116 -11.90116,-11.90116 c -0.3663,-0.3663 -0.84437,-0.54953 -1.3224,-0.54953 z m 35.79918,0 c -1.03602,0 -1.87009,0.83406 -1.87009,1.8701 v 26.45039 c 0,1.03602 0.83407,1.87008 1.87009,1.87008 1.03604,0 1.87008,-0.83406 1.87008,-1.87008 v -26.45039 c 0,-1.03604 -0.83404,-1.8701 -1.87008,-1.8701 z"
         id="path4721"
         inkscape:connector-curvature="0" />
      <path
         inkscape:connector-curvature="0"
         id="path4723"
         d="m 282.30275,359.43905 c -0.47804,0 -0.9561,0.18323 -1.32239,0.54953 -0.73258,0.73258 -0.73258,1.91202 0,2.6446 l 11.90117,11.90116 -11.90117,11.90117 c -0.73258,0.73258 -0.73258,1.9122 0,2.64478 0.73259,0.73257 1.91219,0.73257 2.64479,0 l 11.90116,-11.90116 11.90116,11.90116 c 0.73259,0.73257 1.91201,0.73257 2.64459,0 0.73259,-0.73258 0.73259,-1.9122 0,-2.64478 l -11.90116,-11.90117 11.90116,-11.90116 c 0.73259,-0.73258 0.73259,-1.91202 0,-2.6446 -0.73258,-0.73259 -1.912,-0.73259 -2.64459,0 l -11.90116,11.90116 -11.90116,-11.90116 c -0.3663,-0.3663 -0.84437,-0.54953 -1.3224,-0.54953 z m 35.79919,0 c -1.03602,0 -1.8701,0.83406 -1.8701,1.8701 v 26.45039 c 0,1.03602 0.83408,1.87008 1.8701,1.87008 1.03603,0 1.87007,-0.83406 1.87007,-1.87008 v -26.45039 c 0,-1.03604 -0.83404,-1.8701 -1.87007,-1.8701 z"
         style="opacity:1;fill:#e65100;fill-opacity:1;stroke:none;stroke-width:0.3534022;stroke-linecap:round;stroke-linejoin:round;stroke-miterlimit:4;stroke-dasharray:none;stroke-opacity:1" />
      <path
         style="opacity:1;fill:#e65100;fill-opacity:1;stroke:none;stroke-width:0.3534022;stroke-linecap:round;stroke-linejoin:round;stroke-miterlimit:4;stroke-dasharray:none;stroke-opacity:1"
         d="m 383.41679,359.43905 c -0.47803,0 -0.9561,0.18323 -1.32238,0.54953 -0.73259,0.73258 -0.73259,1.91202 0,2.6446 l 11.90116,11.90116 -11.90116,11.90117 c -0.73259,0.73258 -0.73259,1.9122 0,2.64478 0.73258,0.73257 1.91218,0.73257 2.64478,0 l 11.90117,-11.90116 11.90116,11.90116 c 0.73258,0.73257 1.912,0.73257 2.64459,0 0.73258,-0.73258 0.73258,-1.9122 0,-2.64478 l -11.90117,-11.90117 11.90117,-11.90116 c 0.73258,-0.73258 0.73258,-1.91202 0,-2.6446 -0.73259,-0.73259 -1.91201,-0.73259 -2.64459,0 l -11.90116,11.90116 -11.90117,-11.90116 c -0.3663,-0.3663 -0.84436,-0.54953 -1.3224,-0.54953 z m 35.79919,0 c -1.03602,0 -1.87009,0.83406 -1.87009,1.8701 v 26.45039 c 0,1.03602 0.83407,1.87008 1.87009,1.87008 1.03604,0 1.87008,-0.83406 1.87008,-1.87008 v -26.45039 c 0,-1.03604 -0.83404,-1.8701 -1.87008,-1.8701 z"
         id="path4725"
         inkscape:connector-curvature="0" />
      <path
         inkscape:connector-curvature="0"
         id="path4727"
         d="m -526.6098,359.43905 c -0.47803,0 -0.9561,0.18323 -1.32238,0.54953 -0.73259,0.73258 -0.73259,1.91202 0,2.6446 l 11.90116,11.90116 -11.90116,11.90117 c -0.73259,0.73258 -0.73259,1.9122 0,2.64478 0.73258,0.73257 1.91218,0.73257 2.64478,0 l 11.90116,-11.90116 11.90117,11.90116 c 0.73258,0.73257 1.912,0.73257 2.64459,0 0.73258,-0.73258 0.73258,-1.9122 0,-2.64478 l -11.90117,-11.90117 11.90117,-11.90116 c 0.73258,-0.73258 0.73258,-1.91202 0,-2.6446 -0.73259,-0.73259 -1.91201,-0.73259 -2.64459,0 l -11.90117,11.90116 -11.90116,-11.90116 c -0.3663,-0.3663 -0.84436,-0.54953 -1.3224,-0.54953 z m 35.79919,0 c -1.03602,0 -1.8701,0.83406 -1.8701,1.8701 v 26.45039 c 0,1.03602 0.83408,1.87008 1.8701,1.87008 1.03603,0 1.87008,-0.83406 1.87008,-1.87008 v -26.45039 c 0,-1.03604 -0.83405,-1.8701 -1.87008,-1.8701 z"
         style="opacity:1;fill:#e65100;fill-opacity:1;stroke:none;stroke-width:0.3534022;stroke-linecap:round;stroke-linejoin:round;stroke-miterlimit:4;stroke-dasharray:none;stroke-opacity:1" />
      <path
         style="opacity:1;fill:#e65100;fill-opacity:1;stroke:none;stroke-width:0.3534022;stroke-linecap:round;stroke-linejoin:round;stroke-miterlimit:4;stroke-dasharray:none;stroke-opacity:1"
         d="m 433.97382,359.43905 c -0.47803,0 -0.9561,0.18323 -1.32238,0.54953 -0.73259,0.73258 -0.73259,1.91202 0,2.6446 l 11.90116,11.90116 -11.90116,11.90117 c -0.73259,0.73258 -0.73259,1.9122 0,2.64478 0.73258,0.73257 1.91218,0.73257 2.64478,0 l 11.90117,-11.90116 11.90116,11.90116 c 0.73258,0.73257 1.912,0.73257 2.64459,0 0.73258,-0.73258 0.73258,-1.9122 0,-2.64478 l -11.90116,-11.90117 11.90116,-11.90116 c 0.73258,-0.73258 0.73258,-1.91202 0,-2.6446 -0.73259,-0.73259 -1.91201,-0.73259 -2.64459,0 l -11.90116,11.90116 -11.90117,-11.90116 c -0.3663,-0.3663 -0.84436,-0.54953 -1.3224,-0.54953 z m 35.79919,0 c -1.03602,0 -1.87009,0.83406 -1.87009,1.8701 v 26.45039 c 0,1.03602 0.83407,1.87008 1.87009,1.87008 1.03604,0 1.87008,-0.83406 1.87008,-1.87008 v -26.45039 c 0,-1.03604 -0.83404,-1.8701 -1.87008,-1.8701 z"
         id="path4729"
         inkscape:connector-curvature="0" />
      <path
         style="opacity:1;fill:#e65100;fill-opacity:1;stroke:none;stroke-width:0.3534022;stroke-linecap:round;stroke-linejoin:round;stroke-miterlimit:4;stroke-dasharray:none;stroke-opacity:1"
         d="m -526.6098,-60.908301 c -0.47803,0 -0.9561,0.183225 -1.32238,0.549525 -0.73259,0.73257 -0.73259,1.91202 0,2.64459 l 11.90116,11.901162 -11.90116,11.901163 c -0.73259,0.732585 -0.73259,1.912215 0,2.644785 0.73258,0.732584 1.91218,0.732584 2.64478,0 l 11.90116,-11.901163 11.90117,11.901163 c 0.73258,0.732584 1.912,0.732584 2.64459,0 0.73258,-0.73257 0.73258,-1.9122 0,-2.644785 l -11.90117,-11.901163 11.90117,-11.901162 c 0.73258,-0.73257 0.73258,-1.91202 0,-2.64459 -0.73259,-0.732585 -1.91201,-0.732585 -2.64459,0 l -11.90117,11.901163 -11.90116,-11.901163 c -0.3663,-0.3663 -0.84436,-0.549525 -1.3224,-0.549525 z m 35.79919,0 c -1.03602,0 -1.8701,0.83406 -1.8701,1.87008 v 26.450395 c 0,1.036035 0.83408,1.870094 1.8701,1.870094 1.03603,0 1.87008,-0.834059 1.87008,-1.870094 v -26.450395 c 0,-1.03602 -0.83405,-1.87008 -1.87008,-1.87008 z"
         id="path4619"
         inkscape:connector-curvature="0" />
      <path
         inkscape:connector-curvature="0"
         id="path4621"
         d="m -526.6098,-8.3648861 c -0.47803,0 -0.9561,0.183225 -1.32238,0.5495249 -0.73259,0.7325699 -0.73259,1.9120196 0,2.6445895 l 11.90116,11.9011626 -11.90116,11.9011631 c -0.73259,0.732584 -0.73259,1.912214 0,2.644784 0.73258,0.732585 1.91218,0.732585 2.64478,0 l 11.90116,-11.9011626 11.90117,11.9011626 c 0.73258,0.732585 1.912,0.732585 2.64459,0 0.73258,-0.73257 0.73258,-1.9122 0,-2.644784 l -11.90117,-11.9011631 11.90117,-11.9011626 c 0.73258,-0.7325699 0.73258,-1.9120196 0,-2.6445895 -0.73259,-0.7325848 -1.91201,-0.7325848 -2.64459,0 L -513.38624,4.0858014 -525.2874,-7.8153612 c -0.3663,-0.3662999 -0.84436,-0.5495249 -1.3224,-0.5495249 z m 35.79919,0 c -1.03602,0 -1.8701,0.8340599 -1.8701,1.8700797 V 19.955588 c 0,1.036035 0.83408,1.870095 1.8701,1.870095 1.03603,0 1.87008,-0.83406 1.87008,-1.870095 V -6.4948064 c 0,-1.0360198 -0.83405,-1.8700797 -1.87008,-1.8700797 z"
         style="opacity:1;fill:#e65100;fill-opacity:1;stroke:none;stroke-width:0.3534022;stroke-linecap:round;stroke-linejoin:round;stroke-miterlimit:4;stroke-dasharray:none;stroke-opacity:1" />
      <path
         style="opacity:1;fill:#e65100;fill-opacity:1;stroke:none;stroke-width:0.3534022;stroke-linecap:round;stroke-linejoin:round;stroke-miterlimit:4;stroke-dasharray:none;stroke-opacity:1"
         d="m -526.6098,44.178527 c -0.47803,0 -0.9561,0.183225 -1.32238,0.549525 -0.73259,0.73257 -0.73259,1.912019 0,2.644589 l 11.90116,11.901157 -11.90116,11.901163 c -0.73259,0.732584 -0.73259,1.912214 0,2.644784 0.73258,0.732585 1.91218,0.732585 2.64478,0 l 11.90116,-11.901163 11.90117,11.901163 c 0.73258,0.732585 1.912,0.732585 2.64459,0 0.73258,-0.73257 0.73258,-1.9122 0,-2.644784 l -11.90117,-11.901163 11.90117,-11.901157 c 0.73258,-0.73257 0.73258,-1.912019 0,-2.644589 -0.73259,-0.732585 -1.91201,-0.732585 -2.64459,0 l -11.90117,11.901162 -11.90116,-11.901162 c -0.3663,-0.3663 -0.84436,-0.549525 -1.3224,-0.549525 z m 35.79919,0 c -1.03602,0 -1.8701,0.83406 -1.8701,1.87008 v 26.450388 c 0,1.036035 0.83408,1.870095 1.8701,1.870095 1.03603,0 1.87008,-0.83406 1.87008,-1.870095 V 46.048607 c 0,-1.03602 -0.83405,-1.87008 -1.87008,-1.87008 z"
         id="path4623"
         inkscape:connector-curvature="0" />
      <path
         inkscape:connector-curvature="0"
         id="path4625"
         d="m -526.6098,96.721965 c -0.47803,0 -0.9561,0.183225 -1.32238,0.549525 -0.73259,0.73257 -0.73259,1.91202 0,2.64459 l 11.90116,11.90116 -11.90116,11.90117 c -0.73259,0.73258 -0.73259,1.91221 0,2.64478 0.73258,0.73258 1.91218,0.73258 2.64478,0 l 11.90116,-11.90116 11.90117,11.90116 c 0.73258,0.73258 1.912,0.73258 2.64459,0 0.73258,-0.73257 0.73258,-1.9122 0,-2.64478 l -11.90117,-11.90117 11.90117,-11.90116 c 0.73258,-0.73257 0.73258,-1.91202 0,-2.64459 -0.73259,-0.732585 -1.91201,-0.732585 -2.64459,0 l -11.90117,11.90116 -11.90116,-11.90116 c -0.3663,-0.3663 -0.84436,-0.549525 -1.3224,-0.549525 z m 35.79919,0 c -1.03602,0 -1.8701,0.83406 -1.8701,1.87008 v 26.450395 c 0,1.03603 0.83408,1.87009 1.8701,1.87009 1.03603,0 1.87008,-0.83406 1.87008,-1.87009 V 98.592045 c 0,-1.03602 -0.83405,-1.87008 -1.87008,-1.87008 z"
         style="opacity:1;fill:#e65100;fill-opacity:1;stroke:none;stroke-width:0.3534022;stroke-linecap:round;stroke-linejoin:round;stroke-miterlimit:4;stroke-dasharray:none;stroke-opacity:1" />
      <path
         style="opacity:1;fill:#e65100;fill-opacity:1;stroke:none;stroke-width:0.3534022;stroke-linecap:round;stroke-linejoin:round;stroke-miterlimit:4;stroke-dasharray:none;stroke-opacity:1"
         d="m -526.6098,149.26538 c -0.47803,0 -0.9561,0.18322 -1.32238,0.54952 -0.73259,0.73257 -0.73259,1.91202 0,2.64459 l 11.90116,11.90117 -11.90116,11.90116 c -0.73259,0.73258 -0.73259,1.91221 0,2.64478 0.73258,0.73259 1.91218,0.73259 2.64478,0 l 11.90116,-11.90116 11.90117,11.90116 c 0.73258,0.73259 1.912,0.73259 2.64459,0 0.73258,-0.73257 0.73258,-1.9122 0,-2.64478 l -11.90117,-11.90116 11.90117,-11.90117 c 0.73258,-0.73257 0.73258,-1.91202 0,-2.64459 -0.73259,-0.73258 -1.91201,-0.73258 -2.64459,0 l -11.90117,11.90117 -11.90116,-11.90117 c -0.3663,-0.3663 -0.84436,-0.54952 -1.3224,-0.54952 z m 35.79919,0 c -1.03602,0 -1.8701,0.83406 -1.8701,1.87008 v 26.45039 c 0,1.03604 0.83408,1.8701 1.8701,1.8701 1.03603,0 1.87008,-0.83406 1.87008,-1.8701 v -26.45039 c 0,-1.03602 -0.83405,-1.87008 -1.87008,-1.87008 z"
         id="path4627"
         inkscape:connector-curvature="0" />
      <path
         inkscape:connector-curvature="0"
         id="path4629"
         d="m -526.6098,201.80879 c -0.47803,0 -0.9561,0.18323 -1.32238,0.54953 -0.73259,0.73257 -0.73259,1.91202 0,2.64459 l 11.90116,11.90116 -11.90116,11.90116 c -0.73259,0.73259 -0.73259,1.91222 0,2.64479 0.73258,0.73258 1.91218,0.73258 2.64478,0 l 11.90116,-11.90116 11.90117,11.90116 c 0.73258,0.73258 1.912,0.73258 2.64459,0 0.73258,-0.73257 0.73258,-1.9122 0,-2.64479 l -11.90117,-11.90116 11.90117,-11.90116 c 0.73258,-0.73257 0.73258,-1.91202 0,-2.64459 -0.73259,-0.73259 -1.91201,-0.73259 -2.64459,0 l -11.90117,11.90116 -11.90116,-11.90116 c -0.3663,-0.3663 -0.84436,-0.54953 -1.3224,-0.54953 z m 35.79919,0 c -1.03602,0 -1.8701,0.83406 -1.8701,1.87008 v 26.4504 c 0,1.03603 0.83408,1.87009 1.8701,1.87009 1.03603,0 1.87008,-0.83406 1.87008,-1.87009 v -26.4504 c 0,-1.03602 -0.83405,-1.87008 -1.87008,-1.87008 z"
         style="opacity:1;fill:#e65100;fill-opacity:1;stroke:none;stroke-width:0.3534022;stroke-linecap:round;stroke-linejoin:round;stroke-miterlimit:4;stroke-dasharray:none;stroke-opacity:1" />
      <path
         style="opacity:1;fill:#e65100;fill-opacity:1;stroke:none;stroke-width:1.28494787;stroke-linecap:round;stroke-linejoin:round;stroke-miterlimit:4;stroke-dasharray:none;stroke-opacity:1"
         d="m 48.237354,54.639889 c 3.924214,0 7.083418,3.159207 7.083418,7.083423 V 161.91128 c 0,3.92422 -3.159204,7.08343 -7.083418,7.08343 -3.924215,0 -7.083428,-3.15921 -7.083428,-7.08343 V 61.723312 c 0,-3.924216 3.159213,-7.083423 7.083428,-7.083423 z"
         id="rect4755"
         inkscape:connector-curvature="0" />
      <path
         id="rect4757"
         d="m -78.50668,54.640176 c -1.810658,0 -3.621646,0.693421 -5.009065,2.080843 -2.774841,2.774839 -2.774841,7.242858 0,10.017707 l 45.078577,45.078574 -45.078577,45.07858 c -2.774841,2.77483 -2.774841,7.24285 0,10.0177 2.774838,2.77484 7.242861,2.77484 10.017701,0 l 45.078578,-45.07857 45.078577,45.07857 c 2.774841,2.77484 7.242864,2.77484 10.017702,0 2.77484,-2.77485 2.77484,-7.24287 0,-10.0177 L -18.401765,111.8173 26.676813,66.738726 c 2.77484,-2.774849 2.77484,-7.242868 0,-10.017707 -2.774838,-2.774842 -7.242861,-2.774842 -10.017702,0 L -28.419466,101.7996 -73.498044,56.721019 c -1.387421,-1.387422 -3.197978,-2.080843 -5.008636,-2.080843 z"
         style="opacity:1;fill:#e65100;fill-opacity:1;stroke:none;stroke-width:1.5;stroke-linecap:round;stroke-linejoin:round;stroke-miterlimit:4;stroke-dasharray:none;stroke-opacity:1"
         inkscape:connector-curvature="0" />
      <path
         inkscape:connector-curvature="0"
         id="path4766"
         d="m -184.61974,51.754317 c -33.08786,-10e-7 -60.06215,26.975932 -60.06215,60.063793 0,33.08785 26.97429,60.06215 60.06215,60.06215 33.08786,0 60.06379,-26.9743 60.06379,-60.06215 0,-33.087861 -26.97593,-60.063794 -60.06379,-60.063793 z m 0,14.22262 c 25.40139,0 45.84116,20.43979 45.84116,45.841173 0,25.40139 -20.43977,45.83953 -45.84116,45.83953 -25.40138,0 -45.83952,-20.43814 -45.83952,-45.83953 0,-25.401383 20.43814,-45.841173 45.83952,-45.841173 z"
         style="color:#000000;font-style:normal;font-variant:normal;font-weight:normal;font-stretch:normal;font-size:medium;line-height:normal;font-family:sans-serif;font-variant-ligatures:normal;font-variant-position:normal;font-variant-caps:normal;font-variant-numeric:normal;font-variant-alternates:normal;font-feature-settings:normal;text-indent:0;text-align:start;text-decoration:none;text-decoration-line:none;text-decoration-style:solid;text-decoration-color:#000000;letter-spacing:normal;word-spacing:normal;text-transform:none;writing-mode:lr-tb;direction:ltr;text-orientation:mixed;dominant-baseline:auto;baseline-shift:baseline;text-anchor:start;white-space:normal;shape-padding:0;clip-rule:nonzero;display:inline;overflow:visible;visibility:visible;opacity:1;isolation:auto;mix-blend-mode:normal;color-interpolation:sRGB;color-interpolation-filters:linearRGB;solid-color:#000000;solid-opacity:1;vector-effect:none;fill:#e65100;fill-opacity:1;fill-rule:nonzero;stroke:none;stroke-width:17;stroke-linecap:round;stroke-linejoin:round;stroke-miterlimit:4;stroke-dasharray:none;stroke-dashoffset:0;stroke-opacity:1;color-rendering:auto;image-rendering:auto;shape-rendering:auto;text-rendering:auto;enable-background:accumulate" />
      <path
         inkscape:connector-curvature="0"
         id="rect4768"
         d="m -105.07629,54.639889 c 3.92421,0 7.083419,3.159207 7.083419,7.083423 V 161.91128 c 0,3.92422 -3.159209,7.08343 -7.083419,7.08343 -3.92422,0 -7.08343,-3.15921 -7.08343,-7.08343 V 61.723312 c 0,-3.924216 3.15921,-7.083423 7.08343,-7.083423 z"
         style="opacity:1;fill:#e65100;fill-opacity:1;stroke:none;stroke-width:1.28494787;stroke-linecap:round;stroke-linejoin:round;stroke-miterlimit:4;stroke-dasharray:none;stroke-opacity:1" />
      <path
         inkscape:connector-curvature="0"
         id="circle4811"
         d="m 127.77962,51.754317 c -33.087878,-10e-7 -60.062157,26.975932 -60.062166,60.063793 0,33.08785 26.974288,60.06215 60.062166,60.06215 33.08785,0 60.06378,-26.9743 60.06378,-60.06215 -1e-5,-33.087861 -26.97593,-60.063788 -60.06378,-60.063793 z m 0,14.22262 c 25.40137,1.5e-5 45.84116,20.43979 45.84116,45.841173 0,25.40139 -20.43979,45.83953 -45.84116,45.83953 -25.4014,0 -45.839542,-20.43814 -45.839542,-45.83953 9e-6,-25.401383 20.438142,-45.841173 45.839542,-45.841173 z"
         style="color:#000000;font-style:normal;font-variant:normal;font-weight:normal;font-stretch:normal;font-size:medium;line-height:normal;font-family:sans-serif;font-variant-ligatures:normal;font-variant-position:normal;font-variant-caps:normal;font-variant-numeric:normal;font-variant-alternates:normal;font-feature-settings:normal;text-indent:0;text-align:start;text-decoration:none;text-decoration-line:none;text-decoration-style:solid;text-decoration-color:#000000;letter-spacing:normal;word-spacing:normal;text-transform:none;writing-mode:lr-tb;direction:ltr;text-orientation:mixed;dominant-baseline:auto;baseline-shift:baseline;text-anchor:start;white-space:normal;shape-padding:0;clip-rule:nonzero;display:inline;overflow:visible;visibility:visible;opacity:1;isolation:auto;mix-blend-mode:normal;color-interpolation:sRGB;color-interpolation-filters:linearRGB;solid-color:#000000;solid-opacity:1;vector-effect:none;fill:#e65100;fill-opacity:1;fill-rule:nonzero;stroke:none;stroke-width:17;stroke-linecap:round;stroke-linejoin:round;stroke-miterlimit:4;stroke-dasharray:none;stroke-dashoffset:0;stroke-opacity:1;color-rendering:auto;image-rendering:auto;shape-rendering:auto;text-rendering:auto;enable-background:accumulate" />
      <g
         transform="matrix(1.4999997,0,0,1.4999997,-67.228396,-91.202707)"
         id="text4866"
         style="font-style:normal;font-weight:normal;font-size:41.75652313px;line-height:125%;font-family:sans-serif;letter-spacing:0px;word-spacing:0px;fill:#e65100;fill-opacity:1;stroke:none;stroke-width:0.17638892px;stroke-linecap:butt;stroke-linejoin:miter;stroke-opacity:1"
         aria-label="ULUWATU">
        <path
           id="path5430"
           style="fill:#e65100;fill-opacity:1;stroke-width:0.17638892px"
           d="m -71.861555,195.08547 h 4.138953 v 18.49276 q 0,4.89334 1.773836,7.05457 1.773837,2.14083 5.749678,2.14083 3.955452,0 5.729288,-2.14083 1.773837,-2.16123 1.773837,-7.05457 v -18.49276 h 4.138952 v 19.00248 q 0,5.95357 -2.956394,8.99152 -2.936006,3.03795 -8.685683,3.03795 -5.770067,0 -8.726461,-3.03795 -2.936006,-3.03795 -2.936006,-8.99152 z"
           inkscape:connector-curvature="0" />
        <path
           id="path5432"
           style="fill:#e65100;fill-opacity:1;stroke-width:0.17638892px"
           d="m -40.809218,195.08547 h 4.118563 v 26.97455 h 14.82275 v 3.46612 h -18.941313 z"
           inkscape:connector-curvature="0" />
        <path
           id="path5434"
           style="fill:#e65100;fill-opacity:1;stroke-width:0.17638892px"
           d="m -20.073679,195.08547 h 4.138953 v 18.49276 q 0,4.89334 1.773836,7.05457 1.773837,2.14083 5.7496779,2.14083 3.9554519,0 5.7292886,-2.14083 1.77383667,-2.16123 1.77383667,-7.05457 V 195.08547 H 3.2308654 v 19.00248 q 0,5.95357 -2.95639444,8.99152 -2.93600556,3.03795 -8.68568306,3.03795 -5.7700669,0 -8.7264609,-3.03795 -2.936006,-3.03795 -2.936006,-8.99152 z"
           inkscape:connector-curvature="0" />
        <path
           id="path5436"
           style="fill:#e65100;fill-opacity:1;stroke-width:0.17638892px"
           d="m 8.2669326,195.08547 h 4.1593414 l 6.402123,25.73083 6.381734,-25.73083 h 4.628287 l 6.402123,25.73083 6.381734,-25.73083 h 4.17973 l -7.645848,30.44067 H 33.97737 l -6.422512,-26.42405 -6.483679,26.42405 h -5.178788 z"
           inkscape:connector-curvature="0" />
        <path
           id="path5438"
           style="fill:#e65100;fill-opacity:1;stroke-width:0.17638892px"
           d="m 60.136362,199.14287 -5.586566,15.14897 h 11.193521 z m -2.324338,-4.0574 h 4.669065 l 11.601299,30.44067 h -4.281674 l -2.772895,-7.80896 H 53.306071 l -2.772894,7.80896 h -4.342841 z"
           inkscape:connector-curvature="0" />
        <path
           id="path5440"
           style="fill:#e65100;fill-opacity:1;stroke-width:0.17638892px"
           d="m 71.024044,195.08547 h 25.751215 v 3.46612 H 85.969128 v 26.97455 H 81.830175 V 198.55159 H 71.024044 Z"
           inkscape:connector-curvature="0" />
        <path
           id="path5442"
           style="fill:#e65100;fill-opacity:1;stroke-width:0.17638892px"
           d="m 100.30255,195.08547 h 4.13896 v 18.49276 q 0,4.89334 1.77383,7.05457 1.77384,2.14083 5.74968,2.14083 3.95545,0 5.72929,-2.14083 1.77384,-2.16123 1.77384,-7.05457 v -18.49276 h 4.13895 v 19.00248 q 0,5.95357 -2.9564,8.99152 -2.936,3.03795 -8.68568,3.03795 -5.77007,0 -8.72646,-3.03795 -2.93601,-3.03795 -2.93601,-8.99152 z"
           inkscape:connector-curvature="0" />
      </g>
      <path
         style="opacity:1;fill:#e65100;fill-opacity:1;stroke:none;stroke-width:0.3534022;stroke-linecap:round;stroke-linejoin:round;stroke-miterlimit:4;stroke-dasharray:none;stroke-opacity:1"
         d="m -425.49574,-165.99515 c -0.47803,0 -0.9561,0.18323 -1.32238,0.54952 -0.73259,0.73258 -0.73259,1.91202 0,2.6446 l 11.90116,11.90117 -11.90116,11.90116 c -0.73259,0.73258 -0.73259,1.9122 0,2.64478 0.73258,0.73258 1.91218,0.73258 2.64478,0 l 11.90116,-11.90116 11.90117,11.90116 c 0.73258,0.73258 1.912,0.73258 2.64459,0 0.73258,-0.73258 0.73258,-1.9122 0,-2.64478 l -11.90117,-11.90116 11.90117,-11.90117 c 0.73258,-0.73258 0.73258,-1.91202 0,-2.6446 -0.73259,-0.73258 -1.91201,-0.73258 -2.64459,0 l -11.90117,11.90116 -11.90116,-11.90116 c -0.3663,-0.36629 -0.84436,-0.54952 -1.3224,-0.54952 z m 35.79919,0 c -1.03602,0 -1.8701,0.83406 -1.8701,1.87009 v 26.45039 c 0,1.03603 0.83408,1.87009 1.8701,1.87009 1.03603,0 1.87008,-0.83406 1.87008,-1.87009 v -26.45039 c 0,-1.03603 -0.83405,-1.87009 -1.87008,-1.87009 z"
         id="path6221"
         inkscape:connector-curvature="0" />
      <path
         inkscape:connector-curvature="0"
         id="path6223"
         d="m -374.9387,-165.99515 c -0.47803,0 -0.9561,0.18323 -1.32238,0.54952 -0.73259,0.73258 -0.73259,1.91202 0,2.6446 l 11.90116,11.90117 -11.90116,11.90116 c -0.73259,0.73258 -0.73259,1.9122 0,2.64478 0.73258,0.73258 1.91218,0.73258 2.64478,0 l 11.90116,-11.90116 11.90117,11.90116 c 0.73258,0.73258 1.912,0.73258 2.64459,0 0.73258,-0.73258 0.73258,-1.9122 0,-2.64478 l -11.90117,-11.90116 11.90117,-11.90117 c 0.73258,-0.73258 0.73258,-1.91202 0,-2.6446 -0.73259,-0.73258 -1.91201,-0.73258 -2.64459,0 l -11.90117,11.90116 -11.90116,-11.90116 c -0.3663,-0.36629 -0.84436,-0.54952 -1.3224,-0.54952 z m 35.79919,0 c -1.03602,0 -1.87009,0.83406 -1.87009,1.87009 v 26.45039 c 0,1.03603 0.83407,1.87009 1.87009,1.87009 1.03604,0 1.87008,-0.83406 1.87008,-1.87009 v -26.45039 c 0,-1.03603 -0.83404,-1.87009 -1.87008,-1.87009 z"
         style="opacity:1;fill:#e65100;fill-opacity:1;stroke:none;stroke-width:0.3534022;stroke-linecap:round;stroke-linejoin:round;stroke-miterlimit:4;stroke-dasharray:none;stroke-opacity:1" />
      <path
         style="opacity:1;fill:#e65100;fill-opacity:1;stroke:none;stroke-width:0.3534022;stroke-linecap:round;stroke-linejoin:round;stroke-miterlimit:4;stroke-dasharray:none;stroke-opacity:1"
         d="m -273.82464,-165.99515 c -0.47803,0 -0.9561,0.18323 -1.32238,0.54952 -0.73259,0.73258 -0.73259,1.91202 0,2.6446 l 11.90116,11.90117 -11.90116,11.90116 c -0.73259,0.73258 -0.73259,1.9122 0,2.64478 0.73258,0.73258 1.91218,0.73258 2.64478,0 l 11.90117,-11.90116 11.90116,11.90116 c 0.73259,0.73258 1.91201,0.73258 2.64459,0 0.73259,-0.73258 0.73259,-1.9122 0,-2.64478 l -11.90116,-11.90116 11.90116,-11.90117 c 0.73259,-0.73258 0.73259,-1.91202 0,-2.6446 -0.73258,-0.73258 -1.912,-0.73258 -2.64459,0 l -11.90116,11.90116 -11.90117,-11.90116 c -0.3663,-0.36629 -0.84436,-0.54952 -1.3224,-0.54952 z m 35.7992,0 c -1.03602,0 -1.8701,0.83406 -1.8701,1.87009 v 26.45039 c 0,1.03603 0.83408,1.87009 1.8701,1.87009 1.03603,0 1.87008,-0.83406 1.87008,-1.87009 v -26.45039 c 0,-1.03603 -0.83405,-1.87009 -1.87008,-1.87009 z"
         id="path6225"
         inkscape:connector-curvature="0" />
      <path
         inkscape:connector-curvature="0"
         id="path6227"
         d="m -172.71054,-165.99515 c -0.47803,0 -0.9561,0.18323 -1.32238,0.54952 -0.73259,0.73258 -0.73259,1.91202 0,2.6446 l 11.90116,11.90117 -11.90116,11.90116 c -0.73259,0.73258 -0.73259,1.9122 0,2.64478 0.73258,0.73258 1.91218,0.73258 2.64478,0 l 11.90116,-11.90116 11.90117,11.90116 c 0.73258,0.73258 1.912,0.73258 2.64458,0 0.73259,-0.73258 0.73259,-1.9122 0,-2.64478 l -11.90116,-11.90116 11.90116,-11.90117 c 0.73259,-0.73258 0.73259,-1.91202 0,-2.6446 -0.73258,-0.73258 -1.912,-0.73258 -2.64458,0 l -11.90117,11.90116 -11.90116,-11.90116 c -0.3663,-0.36629 -0.84437,-0.54952 -1.3224,-0.54952 z m 35.79919,0 c -1.03602,0 -1.8701,0.83406 -1.8701,1.87009 v 26.45039 c 0,1.03603 0.83408,1.87009 1.8701,1.87009 1.03603,0 1.87008,-0.83406 1.87008,-1.87009 v -26.45039 c 0,-1.03603 -0.83405,-1.87009 -1.87008,-1.87009 z"
         style="opacity:1;fill:#e65100;fill-opacity:1;stroke:none;stroke-width:0.3534022;stroke-linecap:round;stroke-linejoin:round;stroke-miterlimit:4;stroke-dasharray:none;stroke-opacity:1" />
      <path
         style="opacity:1;fill:#e65100;fill-opacity:1;stroke:none;stroke-width:0.3534022;stroke-linecap:round;stroke-linejoin:round;stroke-miterlimit:4;stroke-dasharray:none;stroke-opacity:1"
         d="m -71.596514,-165.99515 c -0.478035,0 -0.956099,0.18323 -1.322384,0.54952 -0.732585,0.73258 -0.732585,1.91202 0,2.6446 l 11.901162,11.90117 -11.901162,11.90116 c -0.732585,0.73258 -0.732585,1.9122 0,2.64478 0.732584,0.73258 1.912184,0.73258 2.644784,0 l 11.901163,-11.90116 11.901162,11.90116 c 0.732585,0.73258 1.912005,0.73258 2.64459,0 0.732585,-0.73258 0.732585,-1.9122 0,-2.64478 l -11.901163,-11.90116 11.901163,-11.90117 c 0.732585,-0.73258 0.732585,-1.91202 0,-2.6446 -0.732585,-0.73258 -1.912005,-0.73258 -2.64459,0 l -11.901162,11.90116 -11.901163,-11.90116 c -0.3663,-0.36629 -0.844365,-0.54952 -1.3224,-0.54952 z m 35.799188,0 c -1.03602,0 -1.870094,0.83406 -1.870094,1.87009 v 26.45039 c 0,1.03603 0.834074,1.87009 1.870094,1.87009 1.036035,0 1.87008,-0.83406 1.87008,-1.87009 v -26.45039 c 0,-1.03603 -0.834045,-1.87009 -1.87008,-1.87009 z"
         id="path6229"
         inkscape:connector-curvature="0" />
      <path
         inkscape:connector-curvature="0"
         id="path6231"
         d="m 29.517546,-165.99515 c -0.478035,0 -0.9561,0.18323 -1.322385,0.54952 -0.732584,0.73258 -0.732584,1.91202 0,2.6446 l 11.901163,11.90117 -11.901163,11.90116 c -0.732584,0.73258 -0.732584,1.9122 0,2.64478 0.732585,0.73258 1.912185,0.73258 2.644785,0 l 11.901162,-11.90116 11.901163,11.90116 c 0.732585,0.73258 1.912005,0.73258 2.64459,0 0.732584,-0.73258 0.732584,-1.9122 0,-2.64478 l -11.901163,-11.90116 11.901163,-11.90117 c 0.732584,-0.73258 0.732584,-1.91202 0,-2.6446 -0.732585,-0.73258 -1.912005,-0.73258 -2.64459,0 l -11.901163,11.90116 -11.901162,-11.90116 c -0.3663,-0.36629 -0.844365,-0.54952 -1.3224,-0.54952 z m 35.79918,0 c -1.036019,0 -1.870094,0.83406 -1.870094,1.87009 v 26.45039 c 0,1.03603 0.834075,1.87009 1.870094,1.87009 1.036035,0 1.87008,-0.83406 1.87008,-1.87009 v -26.45039 c 0,-1.03603 -0.834045,-1.87009 -1.87008,-1.87009 z"
         style="opacity:1;fill:#e65100;fill-opacity:1;stroke:none;stroke-width:0.3534022;stroke-linecap:round;stroke-linejoin:round;stroke-miterlimit:4;stroke-dasharray:none;stroke-opacity:1" />
      <path
         style="opacity:1;fill:#e65100;fill-opacity:1;stroke:none;stroke-width:0.3534022;stroke-linecap:round;stroke-linejoin:round;stroke-miterlimit:4;stroke-dasharray:none;stroke-opacity:1"
         d="m 130.6316,-165.99515 c -0.47804,0 -0.9561,0.18323 -1.32239,0.54952 -0.73258,0.73258 -0.73258,1.91202 0,2.6446 l 11.90116,11.90117 -11.90116,11.90116 c -0.73258,0.73258 -0.73258,1.9122 0,2.64478 0.73259,0.73258 1.91219,0.73258 2.64479,0 l 11.90116,-11.90116 11.90116,11.90116 c 0.73259,0.73258 1.91201,0.73258 2.64459,0 0.73259,-0.73258 0.73259,-1.9122 0,-2.64478 l -11.90116,-11.90116 11.90116,-11.90117 c 0.73259,-0.73258 0.73259,-1.91202 0,-2.6446 -0.73258,-0.73258 -1.912,-0.73258 -2.64459,0 l -11.90116,11.90116 -11.90116,-11.90116 c -0.3663,-0.36629 -0.84437,-0.54952 -1.3224,-0.54952 z m 35.79918,0 c -1.03602,0 -1.87009,0.83406 -1.87009,1.87009 v 26.45039 c 0,1.03603 0.83407,1.87009 1.87009,1.87009 1.03604,0 1.87008,-0.83406 1.87008,-1.87009 v -26.45039 c 0,-1.03603 -0.83404,-1.87009 -1.87008,-1.87009 z"
         id="path6233"
         inkscape:connector-curvature="0" />
      <path
         inkscape:connector-curvature="0"
         id="path6235"
         d="m 231.74569,-165.99515 c -0.47804,0 -0.9561,0.18323 -1.32239,0.54952 -0.73258,0.73258 -0.73258,1.91202 0,2.6446 l 11.90117,11.90117 -11.90117,11.90116 c -0.73258,0.73258 -0.73258,1.9122 0,2.64478 0.73259,0.73258 1.91219,0.73258 2.64479,0 l 11.90116,-11.90116 11.90116,11.90116 c 0.73259,0.73258 1.91201,0.73258 2.64459,0 0.73259,-0.73258 0.73259,-1.9122 0,-2.64478 l -11.90116,-11.90116 11.90116,-11.90117 c 0.73259,-0.73258 0.73259,-1.91202 0,-2.6446 -0.73258,-0.73258 -1.912,-0.73258 -2.64459,0 l -11.90116,11.90116 -11.90116,-11.90116 c -0.3663,-0.36629 -0.84437,-0.54952 -1.3224,-0.54952 z m 35.79919,0 c -1.03602,0 -1.8701,0.83406 -1.8701,1.87009 v 26.45039 c 0,1.03603 0.83408,1.87009 1.8701,1.87009 1.03603,0 1.87007,-0.83406 1.87007,-1.87009 v -26.45039 c 0,-1.03603 -0.83404,-1.87009 -1.87007,-1.87009 z"
         style="opacity:1;fill:#e65100;fill-opacity:1;stroke:none;stroke-width:0.3534022;stroke-linecap:round;stroke-linejoin:round;stroke-miterlimit:4;stroke-dasharray:none;stroke-opacity:1" />
      <path
         style="opacity:1;fill:#e65100;fill-opacity:1;stroke:none;stroke-width:0.3534022;stroke-linecap:round;stroke-linejoin:round;stroke-miterlimit:4;stroke-dasharray:none;stroke-opacity:1"
         d="m 332.8598,-165.99515 c -0.47803,0 -0.9561,0.18323 -1.32238,0.54952 -0.73259,0.73258 -0.73259,1.91202 0,2.6446 l 11.90116,11.90117 -11.90116,11.90116 c -0.73259,0.73258 -0.73259,1.9122 0,2.64478 0.73258,0.73258 1.91218,0.73258 2.64478,0 l 11.90117,-11.90116 11.90116,11.90116 c 0.73258,0.73258 1.912,0.73258 2.64459,0 0.73258,-0.73258 0.73258,-1.9122 0,-2.64478 l -11.90117,-11.90116 11.90117,-11.90117 c 0.73258,-0.73258 0.73258,-1.91202 0,-2.6446 -0.73259,-0.73258 -1.91201,-0.73258 -2.64459,0 l -11.90116,11.90116 -11.90117,-11.90116 c -0.3663,-0.36629 -0.84436,-0.54952 -1.3224,-0.54952 z m 35.79919,0 c -1.03602,0 -1.87009,0.83406 -1.87009,1.87009 v 26.45039 c 0,1.03603 0.83407,1.87009 1.87009,1.87009 1.03604,0 1.87008,-0.83406 1.87008,-1.87009 v -26.45039 c 0,-1.03603 -0.83404,-1.87009 -1.87008,-1.87009 z"
         id="path6237"
         inkscape:connector-curvature="0" />
      <path
         inkscape:connector-curvature="0"
         id="path6239"
         d="m -425.49574,359.43905 c -0.47803,0 -0.9561,0.18323 -1.32238,0.54953 -0.73259,0.73258 -0.73259,1.91202 0,2.6446 l 11.90116,11.90116 -11.90116,11.90117 c -0.73259,0.73258 -0.73259,1.9122 0,2.64478 0.73258,0.73257 1.91218,0.73257 2.64478,0 l 11.90116,-11.90116 11.90117,11.90116 c 0.73258,0.73257 1.912,0.73257 2.64459,0 0.73258,-0.73258 0.73258,-1.9122 0,-2.64478 l -11.90117,-11.90117 11.90117,-11.90116 c 0.73258,-0.73258 0.73258,-1.91202 0,-2.6446 -0.73259,-0.73259 -1.91201,-0.73259 -2.64459,0 l -11.90117,11.90116 -11.90116,-11.90116 c -0.3663,-0.3663 -0.84436,-0.54953 -1.3224,-0.54953 z m 35.79919,0 c -1.03602,0 -1.8701,0.83406 -1.8701,1.8701 v 26.45039 c 0,1.03602 0.83408,1.87008 1.8701,1.87008 1.03603,0 1.87008,-0.83406 1.87008,-1.87008 v -26.45039 c 0,-1.03604 -0.83405,-1.8701 -1.87008,-1.8701 z"
         style="opacity:1;fill:#e65100;fill-opacity:1;stroke:none;stroke-width:0.3534022;stroke-linecap:round;stroke-linejoin:round;stroke-miterlimit:4;stroke-dasharray:none;stroke-opacity:1" />
      <path
         style="opacity:1;fill:#e65100;fill-opacity:1;stroke:none;stroke-width:0.3534022;stroke-linecap:round;stroke-linejoin:round;stroke-miterlimit:4;stroke-dasharray:none;stroke-opacity:1"
         d="m -374.9387,359.43905 c -0.47803,0 -0.9561,0.18323 -1.32238,0.54953 -0.73259,0.73258 -0.73259,1.91202 0,2.6446 l 11.90116,11.90116 -11.90116,11.90117 c -0.73259,0.73258 -0.73259,1.9122 0,2.64478 0.73258,0.73257 1.91218,0.73257 2.64478,0 l 11.90116,-11.90116 11.90117,11.90116 c 0.73258,0.73257 1.912,0.73257 2.64459,0 0.73258,-0.73258 0.73258,-1.9122 0,-2.64478 l -11.90117,-11.90117 11.90117,-11.90116 c 0.73258,-0.73258 0.73258,-1.91202 0,-2.6446 -0.73259,-0.73259 -1.91201,-0.73259 -2.64459,0 l -11.90117,11.90116 -11.90116,-11.90116 c -0.3663,-0.3663 -0.84436,-0.54953 -1.3224,-0.54953 z m 35.79919,0 c -1.03602,0 -1.87009,0.83406 -1.87009,1.8701 v 26.45039 c 0,1.03602 0.83407,1.87008 1.87009,1.87008 1.03604,0 1.87008,-0.83406 1.87008,-1.87008 v -26.45039 c 0,-1.03604 -0.83404,-1.8701 -1.87008,-1.8701 z"
         id="path6241"
         inkscape:connector-curvature="0" />
      <path
         inkscape:connector-curvature="0"
         id="path6243"
         d="m -273.82464,359.43905 c -0.47803,0 -0.9561,0.18323 -1.32238,0.54953 -0.73259,0.73258 -0.73259,1.91202 0,2.6446 l 11.90116,11.90116 -11.90116,11.90117 c -0.73259,0.73258 -0.73259,1.9122 0,2.64478 0.73258,0.73257 1.91218,0.73257 2.64478,0 l 11.90117,-11.90116 11.90116,11.90116 c 0.73259,0.73257 1.91201,0.73257 2.64459,0 0.73259,-0.73258 0.73259,-1.9122 0,-2.64478 l -11.90116,-11.90117 11.90116,-11.90116 c 0.73259,-0.73258 0.73259,-1.91202 0,-2.6446 -0.73258,-0.73259 -1.912,-0.73259 -2.64459,0 l -11.90116,11.90116 -11.90117,-11.90116 c -0.3663,-0.3663 -0.84436,-0.54953 -1.3224,-0.54953 z m 35.7992,0 c -1.03602,0 -1.8701,0.83406 -1.8701,1.8701 v 26.45039 c 0,1.03602 0.83408,1.87008 1.8701,1.87008 1.03603,0 1.87008,-0.83406 1.87008,-1.87008 v -26.45039 c 0,-1.03604 -0.83405,-1.8701 -1.87008,-1.8701 z"
         style="opacity:1;fill:#e65100;fill-opacity:1;stroke:none;stroke-width:0.3534022;stroke-linecap:round;stroke-linejoin:round;stroke-miterlimit:4;stroke-dasharray:none;stroke-opacity:1" />
      <path
         style="opacity:1;fill:#e65100;fill-opacity:1;stroke:none;stroke-width:0.3534022;stroke-linecap:round;stroke-linejoin:round;stroke-miterlimit:4;stroke-dasharray:none;stroke-opacity:1"
         d="m -172.71054,359.43905 c -0.47803,0 -0.9561,0.18323 -1.32238,0.54953 -0.73259,0.73258 -0.73259,1.91202 0,2.6446 l 11.90116,11.90116 -11.90116,11.90117 c -0.73259,0.73258 -0.73259,1.9122 0,2.64478 0.73258,0.73257 1.91218,0.73257 2.64478,0 l 11.90116,-11.90116 11.90117,11.90116 c 0.73258,0.73257 1.912,0.73257 2.64458,0 0.73259,-0.73258 0.73259,-1.9122 0,-2.64478 l -11.90116,-11.90117 11.90116,-11.90116 c 0.73259,-0.73258 0.73259,-1.91202 0,-2.6446 -0.73258,-0.73259 -1.912,-0.73259 -2.64458,0 l -11.90117,11.90116 -11.90116,-11.90116 c -0.3663,-0.3663 -0.84437,-0.54953 -1.3224,-0.54953 z m 35.79919,0 c -1.03602,0 -1.8701,0.83406 -1.8701,1.8701 v 26.45039 c 0,1.03602 0.83408,1.87008 1.8701,1.87008 1.03603,0 1.87008,-0.83406 1.87008,-1.87008 v -26.45039 c 0,-1.03604 -0.83405,-1.8701 -1.87008,-1.8701 z"
         id="path6245"
         inkscape:connector-curvature="0" />
      <path
         inkscape:connector-curvature="0"
         id="path6247"
         d="m -71.596514,359.43905 c -0.478035,0 -0.956099,0.18323 -1.322384,0.54953 -0.732585,0.73258 -0.732585,1.91202 0,2.6446 l 11.901162,11.90116 -11.901162,11.90117 c -0.732585,0.73258 -0.732585,1.9122 0,2.64478 0.732584,0.73257 1.912184,0.73257 2.644784,0 l 11.901163,-11.90116 11.901162,11.90116 c 0.732585,0.73257 1.912005,0.73257 2.64459,0 0.732585,-0.73258 0.732585,-1.9122 0,-2.64478 l -11.901163,-11.90117 11.901163,-11.90116 c 0.732585,-0.73258 0.732585,-1.91202 0,-2.6446 -0.732585,-0.73259 -1.912005,-0.73259 -2.64459,0 l -11.901162,11.90116 -11.901163,-11.90116 c -0.3663,-0.3663 -0.844365,-0.54953 -1.3224,-0.54953 z m 35.799188,0 c -1.03602,0 -1.870094,0.83406 -1.870094,1.8701 v 26.45039 c 0,1.03602 0.834074,1.87008 1.870094,1.87008 1.036035,0 1.87008,-0.83406 1.87008,-1.87008 v -26.45039 c 0,-1.03604 -0.834045,-1.8701 -1.87008,-1.8701 z"
         style="opacity:1;fill:#e65100;fill-opacity:1;stroke:none;stroke-width:0.3534022;stroke-linecap:round;stroke-linejoin:round;stroke-miterlimit:4;stroke-dasharray:none;stroke-opacity:1" />
      <path
         style="opacity:1;fill:#e65100;fill-opacity:1;stroke:none;stroke-width:0.3534022;stroke-linecap:round;stroke-linejoin:round;stroke-miterlimit:4;stroke-dasharray:none;stroke-opacity:1"
         d="m 29.517546,359.43905 c -0.478035,0 -0.9561,0.18323 -1.322385,0.54953 -0.732584,0.73258 -0.732584,1.91202 0,2.6446 l 11.901163,11.90116 -11.901163,11.90117 c -0.732584,0.73258 -0.732584,1.9122 0,2.64478 0.732585,0.73257 1.912185,0.73257 2.644785,0 l 11.901162,-11.90116 11.901163,11.90116 c 0.732585,0.73257 1.912005,0.73257 2.64459,0 0.732584,-0.73258 0.732584,-1.9122 0,-2.64478 L 45.385698,374.53434 57.286861,362.63318 c 0.732584,-0.73258 0.732584,-1.91202 0,-2.6446 -0.732585,-0.73259 -1.912005,-0.73259 -2.64459,0 L 42.741108,371.88974 30.839946,359.98858 c -0.3663,-0.3663 -0.844365,-0.54953 -1.3224,-0.54953 z m 35.79918,0 c -1.036019,0 -1.870094,0.83406 -1.870094,1.8701 v 26.45039 c 0,1.03602 0.834075,1.87008 1.870094,1.87008 1.036035,0 1.87008,-0.83406 1.87008,-1.87008 v -26.45039 c 0,-1.03604 -0.834045,-1.8701 -1.87008,-1.8701 z"
         id="path6249"
         inkscape:connector-curvature="0" />
      <path
         inkscape:connector-curvature="0"
         id="path6251"
         d="m 130.6316,359.43905 c -0.47804,0 -0.9561,0.18323 -1.32239,0.54953 -0.73258,0.73258 -0.73258,1.91202 0,2.6446 l 11.90116,11.90116 -11.90116,11.90117 c -0.73258,0.73258 -0.73258,1.9122 0,2.64478 0.73259,0.73257 1.91219,0.73257 2.64479,0 l 11.90116,-11.90116 11.90116,11.90116 c 0.73259,0.73257 1.91201,0.73257 2.64459,0 0.73259,-0.73258 0.73259,-1.9122 0,-2.64478 l -11.90116,-11.90117 11.90116,-11.90116 c 0.73259,-0.73258 0.73259,-1.91202 0,-2.6446 -0.73258,-0.73259 -1.912,-0.73259 -2.64459,0 L 143.85516,371.88974 131.954,359.98858 c -0.3663,-0.3663 -0.84437,-0.54953 -1.3224,-0.54953 z m 35.79918,0 c -1.03602,0 -1.87009,0.83406 -1.87009,1.8701 v 26.45039 c 0,1.03602 0.83407,1.87008 1.87009,1.87008 1.03604,0 1.87008,-0.83406 1.87008,-1.87008 v -26.45039 c 0,-1.03604 -0.83404,-1.8701 -1.87008,-1.8701 z"
         style="opacity:1;fill:#e65100;fill-opacity:1;stroke:none;stroke-width:0.3534022;stroke-linecap:round;stroke-linejoin:round;stroke-miterlimit:4;stroke-dasharray:none;stroke-opacity:1" />
      <path
         style="opacity:1;fill:#e65100;fill-opacity:1;stroke:none;stroke-width:0.3534022;stroke-linecap:round;stroke-linejoin:round;stroke-miterlimit:4;stroke-dasharray:none;stroke-opacity:1"
         d="m 231.74569,359.43905 c -0.47804,0 -0.9561,0.18323 -1.32239,0.54953 -0.73258,0.73258 -0.73258,1.91202 0,2.6446 l 11.90117,11.90116 -11.90117,11.90117 c -0.73258,0.73258 -0.73258,1.9122 0,2.64478 0.73259,0.73257 1.91219,0.73257 2.64479,0 l 11.90116,-11.90116 11.90116,11.90116 c 0.73259,0.73257 1.91201,0.73257 2.64459,0 0.73259,-0.73258 0.73259,-1.9122 0,-2.64478 L 247.61384,374.53434 259.515,362.63318 c 0.73259,-0.73258 0.73259,-1.91202 0,-2.6446 -0.73258,-0.73259 -1.912,-0.73259 -2.64459,0 l -11.90116,11.90116 -11.90116,-11.90116 c -0.3663,-0.3663 -0.84437,-0.54953 -1.3224,-0.54953 z m 35.79919,0 c -1.03602,0 -1.8701,0.83406 -1.8701,1.8701 v 26.45039 c 0,1.03602 0.83408,1.87008 1.8701,1.87008 1.03603,0 1.87007,-0.83406 1.87007,-1.87008 v -26.45039 c 0,-1.03604 -0.83404,-1.8701 -1.87007,-1.8701 z"
         id="path6253"
         inkscape:connector-curvature="0" />
      <path
         inkscape:connector-curvature="0"
         id="path6255"
         d="m 332.8598,359.43905 c -0.47803,0 -0.9561,0.18323 -1.32238,0.54953 -0.73259,0.73258 -0.73259,1.91202 0,2.6446 l 11.90116,11.90116 -11.90116,11.90117 c -0.73259,0.73258 -0.73259,1.9122 0,2.64478 0.73258,0.73257 1.91218,0.73257 2.64478,0 l 11.90117,-11.90116 11.90116,11.90116 c 0.73258,0.73257 1.912,0.73257 2.64459,0 0.73258,-0.73258 0.73258,-1.9122 0,-2.64478 l -11.90117,-11.90117 11.90117,-11.90116 c 0.73258,-0.73258 0.73258,-1.91202 0,-2.6446 -0.73259,-0.73259 -1.91201,-0.73259 -2.64459,0 l -11.90116,11.90116 -11.90117,-11.90116 c -0.3663,-0.3663 -0.84436,-0.54953 -1.3224,-0.54953 z m 35.79919,0 c -1.03602,0 -1.87009,0.83406 -1.87009,1.8701 v 26.45039 c 0,1.03602 0.83407,1.87008 1.87009,1.87008 1.03604,0 1.87008,-0.83406 1.87008,-1.87008 v -26.45039 c 0,-1.03604 -0.83404,-1.8701 -1.87008,-1.8701 z"
         style="opacity:1;fill:#e65100;fill-opacity:1;stroke:none;stroke-width:0.3534022;stroke-linecap:round;stroke-linejoin:round;stroke-miterlimit:4;stroke-dasharray:none;stroke-opacity:1" />
    </g>
  </g>
</svg>
