<?xml version="1.0" encoding="UTF-8" standalone="no"?>
<!-- Created with Inkscape (http://www.inkscape.org/) -->

<svg
   xmlns:dc="http://purl.org/dc/elements/1.1/"
   xmlns:cc="http://creativecommons.org/ns#"
   xmlns:rdf="http://www.w3.org/1999/02/22-rdf-syntax-ns#"
   xmlns:svg="http://www.w3.org/2000/svg"
   xmlns="http://www.w3.org/2000/svg"
   xmlns:sodipodi="http://sodipodi.sourceforge.net/DTD/sodipodi-0.dtd"
   xmlns:inkscape="http://www.inkscape.org/namespaces/inkscape"
   width="1016mm"
   height="571.5mm"
   viewBox="0 0 1016 571.5"
   version="1.1"
   id="svg8"
   inkscape:version="0.92.1 r"
   sodipodi:docname="pantai.svg"
   inkscape:export-filename="/home/belthsazar2/blankon-uluwatu-kesenian/gambar-latar/bliem/pantai.png"
   inkscape:export-xdpi="96.010002"
   inkscape:export-ydpi="96.010002">
  <title
     id="title5131">Pantai</title>
  <defs
     id="defs2" />
  <sodipodi:namedview
     id="base"
     pagecolor="#ffffff"
     bordercolor="#666666"
     borderopacity="1.0"
     inkscape:pageopacity="0.0"
     inkscape:pageshadow="2"
     inkscape:zoom="0.35"
     inkscape:cx="400"
     inkscape:cy="560"
     inkscape:document-units="mm"
     inkscape:current-layer="layer1"
     showgrid="false"
     fit-margin-top="0"
     fit-margin-left="0"
     fit-margin-right="0"
     fit-margin-bottom="0"
     inkscape:object-paths="true"
     inkscape:snap-intersection-paths="true"
     inkscape:snap-smooth-nodes="true"
     inkscape:snap-midpoints="true"
     inkscape:snap-nodes="false" />
  <metadata
     id="metadata5">
    <rdf:RDF>
      <cc:Work
         rdf:about="">
        <dc:format>image/svg+xml</dc:format>
        <dc:type
           rdf:resource="http://purl.org/dc/dcmitype/StillImage" />
        <dc:title>Pantai</dc:title>
        <dc:creator>
          <cc:Agent>
            <dc:title>Vikko Okviandho Liem</dc:title>
          </cc:Agent>
        </dc:creator>
        <dc:publisher>
          <cc:Agent>
            <dc:title>Belthsazar Liem of ISO-arts</dc:title>
          </cc:Agent>
        </dc:publisher>
        <dc:date>2017-03-05</dc:date>
        <cc:license
           rdf:resource="http://creativecommons.org/licenses/by-nc-nd/4.0/" />
      </cc:Work>
      <cc:License
         rdf:about="http://creativecommons.org/licenses/by-nc-nd/4.0/">
        <cc:permits
           rdf:resource="http://creativecommons.org/ns#Reproduction" />
        <cc:permits
           rdf:resource="http://creativecommons.org/ns#Distribution" />
        <cc:requires
           rdf:resource="http://creativecommons.org/ns#Notice" />
        <cc:requires
           rdf:resource="http://creativecommons.org/ns#Attribution" />
        <cc:prohibits
           rdf:resource="http://creativecommons.org/ns#CommercialUse" />
      </cc:License>
    </rdf:RDF>
  </metadata>
  <g
     inkscape:label="Layer 1"
     inkscape:groupmode="layer"
     id="layer1"
     transform="translate(523.21881,46.406487)">
    <g
       id="g5108">
      <path
         id="rect4485"
         d="m -523.21881,-46.406487 h 1016 V 525.09351 h -1016 z"
         style="opacity:1;fill:#fff3e0;fill-opacity:1;fill-rule:nonzero;stroke:none;stroke-width:0.52916664;stroke-linecap:round;stroke-linejoin:round;stroke-miterlimit:4;stroke-dasharray:none;stroke-dashoffset:0;stroke-opacity:1;paint-order:normal" />
      <path
         id="rect5085"
         d="m -523.21881,280.16495 h 1016 v 244.92857 h -1016 z"
         style="opacity:1;fill:#ffe0b2;fill-opacity:1;fill-rule:nonzero;stroke:none;stroke-width:0.52916664;stroke-linecap:round;stroke-linejoin:round;stroke-miterlimit:4;stroke-dasharray:none;stroke-dashoffset:0;stroke-opacity:1;paint-order:normal" />
      <path
         sodipodi:nodetypes="cccccccccccc"
         inkscape:connector-curvature="0"
         style="opacity:1;fill:#ff9800;fill-opacity:1;fill-rule:nonzero;stroke:none;stroke-width:0.26458332;stroke-linecap:round;stroke-linejoin:round;stroke-miterlimit:4;stroke-dasharray:none;stroke-dashoffset:0;stroke-opacity:1;paint-order:normal"
         d="m -293.8827,198.52231 c 5.79009,0.005 11.54887,0.26938 17.10435,0.78649 l 16.63095,33.98709 0.75595,37.79762 25.72227,24.92835 14.34321,38.19341 h -303.89284 v -99.61096 c 16.84791,-7.01109 55.72477,-11.56287 98.76646,-11.56376 5.75823,0.003 11.50584,0.0876 17.1872,0.25364 7.4223,-8.34652 31.41219,-14.12009 58.77266,-14.14461 10.43675,-6.51906 31.54475,-10.62676 54.60979,-10.62727 z"
         id="path5064" />
      <path
         inkscape:connector-curvature="0"
         id="path5092"
         d="m 364.74248,255.97459 c -5.79009,0.005 -11.54891,0.26943 -17.10439,0.78653 l -16.63049,33.98708 -0.75605,37.79769 -25.72244,24.92819 -14.3433,38.19353 H 492.78118 V 280.50335 c -4.91033,0.023 -9.80755,0.1017 -14.65596,0.24339 -7.4223,-8.34652 -31.41215,-14.12037 -58.77264,-14.14487 -10.43675,-6.51906 -31.54505,-10.62675 -54.6101,-10.62728 z"
         style="opacity:1;fill:#fb8c00;fill-opacity:1;fill-rule:nonzero;stroke:none;stroke-width:0.26458332;stroke-linecap:round;stroke-linejoin:round;stroke-miterlimit:4;stroke-dasharray:none;stroke-dashoffset:0;stroke-opacity:1;paint-order:normal" />
      <path
         sodipodi:nodetypes="cccccccccc"
         inkscape:connector-curvature="0"
         id="path5087"
         d="m 419.65955,346.68888 c -3.9837,0.003 -7.94546,0.18529 -11.76776,0.54107 l -11.4427,23.38409 -0.51988,26.00566 -17.69764,17.1509 -9.86864,26.27797 124.41825,15.11905 v -94.924 c -7.54542,-3.80103 -20.83888,-6.22985 -35.54873,-6.24303 -7.18071,-4.48524 -21.70367,-7.31134 -37.5729,-7.31171 z"
         style="opacity:1;fill:#ffa726;fill-opacity:1;fill-rule:nonzero;stroke:none;stroke-width:0.26458332;stroke-linecap:round;stroke-linejoin:round;stroke-miterlimit:4;stroke-dasharray:none;stroke-dashoffset:0;stroke-opacity:1;paint-order:normal" />
      <path
         id="path5050"
         transform="matrix(0.26458333,0,0,0.26458333,-523.21881,-46.406487)"
         d="M 266.51758 1388.5723 A 954.26986 271.42857 0 0 0 0 1399.5703 L 0 2160 L 3840 2160 L 3840 1893.1348 A 1672.6253 265.71429 0 0 0 2301.0352 1731.4297 A 1672.6253 265.71429 0 0 0 2033.2266 1734.9766 A 954.26986 271.42857 0 0 0 1117.4395 1537.1816 A 954.26986 271.42857 0 0 0 266.51758 1388.5723 z "
         style="opacity:1;fill:#ffb74d;fill-opacity:1;fill-rule:nonzero;stroke:none;stroke-width:0.99999994;stroke-linecap:round;stroke-linejoin:round;stroke-miterlimit:4;stroke-dasharray:none;stroke-dashoffset:0;stroke-opacity:1;paint-order:normal" />
      <path
         sodipodi:nodetypes="cccccccccccccccccccccccccc"
         inkscape:connector-curvature="0"
         id="rect5066"
         d="m -329.69504,106.01388 -15.90999,15.91004 h 7.18516 l -0.78693,4.7217 -13.07013,13.07012 h 10.86336 l -18.04853,18.04838 h 10.86336 l -18.04852,18.04853 h 19.24594 l -3.33595,20.01604 -30.79361,18.69817 h 25.66137 52.3491 25.66138 l -30.79361,-18.69838 -3.33595,-20.01583 h 19.24594 l -18.04853,-18.04853 h 10.86336 l -18.04835,-18.04838 h 10.86318 l -13.07013,-13.07025 -0.78692,-4.72157 h 7.18517 z"
         style="opacity:1;fill:#ff9800;fill-opacity:1;fill-rule:nonzero;stroke:none;stroke-width:0.26458332;stroke-linecap:round;stroke-linejoin:round;stroke-miterlimit:4;stroke-dasharray:none;stroke-dashoffset:0;stroke-opacity:1;paint-order:normal" />
    </g>
  </g>
</svg>
