<?xml version="1.0" encoding="UTF-8" standalone="no"?>
<!-- Created with Inkscape (http://www.inkscape.org/) -->

<svg
   xmlns:dc="http://purl.org/dc/elements/1.1/"
   xmlns:cc="http://creativecommons.org/ns#"
   xmlns:rdf="http://www.w3.org/1999/02/22-rdf-syntax-ns#"
   xmlns:svg="http://www.w3.org/2000/svg"
   xmlns="http://www.w3.org/2000/svg"
   xmlns:sodipodi="http://sodipodi.sourceforge.net/DTD/sodipodi-0.dtd"
   xmlns:inkscape="http://www.inkscape.org/namespaces/inkscape"
   width="1016mm"
   height="571.5mm"
   viewBox="0 0 1016 571.5"
   version="1.1"
   id="svg8"
   inkscape:version="0.92.1 r"
   sodipodi:docname="uluwatu pura.svg"
   inkscape:export-filename="/home/belthsazar2/blankon-uluwatu-kesenian/gambar-latar/bliem/uluwatu pura.png"
   inkscape:export-xdpi="96.010002"
   inkscape:export-ydpi="96.010002">
  <title
     id="title5630">Uluwatu Pura</title>
  <defs
     id="defs2" />
  <sodipodi:namedview
     id="base"
     pagecolor="#ffffff"
     bordercolor="#666666"
     borderopacity="1.0"
     inkscape:pageopacity="0.0"
     inkscape:pageshadow="2"
     inkscape:zoom="0.35"
     inkscape:cx="400"
     inkscape:cy="560"
     inkscape:document-units="mm"
     inkscape:current-layer="layer1"
     showgrid="false"
     inkscape:object-paths="true"
     inkscape:snap-intersection-paths="true"
     inkscape:snap-smooth-nodes="true"
     inkscape:snap-midpoints="true"
     inkscape:snap-bbox="false"
     inkscape:bbox-paths="true"
     inkscape:bbox-nodes="true"
     inkscape:snap-bbox-edge-midpoints="true"
     inkscape:snap-bbox-midpoints="true"
     inkscape:snap-nodes="true"
     fit-margin-top="0"
     fit-margin-left="0"
     fit-margin-right="0"
     fit-margin-bottom="0" />
  <metadata
     id="metadata5">
    <rdf:RDF>
      <cc:Work
         rdf:about="">
        <dc:format>image/svg+xml</dc:format>
        <dc:type
           rdf:resource="http://purl.org/dc/dcmitype/StillImage" />
        <dc:title>Uluwatu Pura</dc:title>
        <dc:date>2017-03-6</dc:date>
        <dc:creator>
          <cc:Agent>
            <dc:title>Vikko Okviandho Liem</dc:title>
          </cc:Agent>
        </dc:creator>
        <dc:publisher>
          <cc:Agent>
            <dc:title>Belthsazar Liem of ISO-arts</dc:title>
          </cc:Agent>
        </dc:publisher>
        <cc:license
           rdf:resource="http://creativecommons.org/licenses/by-nc-sa/4.0/" />
      </cc:Work>
      <cc:License
         rdf:about="http://creativecommons.org/licenses/by-nc-sa/4.0/">
        <cc:permits
           rdf:resource="http://creativecommons.org/ns#Reproduction" />
        <cc:permits
           rdf:resource="http://creativecommons.org/ns#Distribution" />
        <cc:requires
           rdf:resource="http://creativecommons.org/ns#Notice" />
        <cc:requires
           rdf:resource="http://creativecommons.org/ns#Attribution" />
        <cc:prohibits
           rdf:resource="http://creativecommons.org/ns#CommercialUse" />
        <cc:permits
           rdf:resource="http://creativecommons.org/ns#DerivativeWorks" />
        <cc:requires
           rdf:resource="http://creativecommons.org/ns#ShareAlike" />
      </cc:License>
    </rdf:RDF>
  </metadata>
  <g
     inkscape:label="Layer 1"
     inkscape:groupmode="layer"
     id="layer1"
     transform="translate(1775.3285,252.13455)">
    <g
       id="g5628">
      <path
         id="rect5346"
         d="m -1775.3285,-252.13455 h 1016.00001 v 571.5 H -1775.3285 Z"
         style="opacity:1;fill:#ffd180;fill-opacity:1;fill-rule:nonzero;stroke:none;stroke-width:0.79374987;stroke-linecap:butt;stroke-linejoin:miter;stroke-miterlimit:4;stroke-dasharray:none;stroke-dashoffset:0;stroke-opacity:1;paint-order:normal"
         inkscape:connector-curvature="0" />
      <path
         sodipodi:nodetypes="csscsccsccsccscscccccssccscccccssccscccccssccsccccccccccccccccccccccccsccssccccssccssccccssccssccccsscsccsccsccscsscc"
         inkscape:connector-curvature="0"
         id="path5358"
         d="m -1317.1329,-202.87557 c 0,0 -31.7427,86.87803 -42.2234,86.87803 -10.4807,0 -12.0017,-8.1767 -12.0017,-18.26317 0,-10.0865 5.3733,-18.26318 11.8005,-18.27381 0.5926,-0.0106 1.2363,-1.11951 1.2363,-2.48725 0,-1.36776 -0.6436,-2.47646 -1.2117,-2.48077 -9.1308,-0.004 -16.7644,11.03783 -17.2968,24.9603 10e-5,-0.004 0,-0.009 0,-0.0132 0,-1.98547 -0.9349,-3.59496 -1.7601,-3.60121 -13.119,-0.006 -24.1106,15.67378 -25.0979,35.57101 v -0.005 c 0,-2.87938 -1.3562,-5.21353 -2.5533,-5.2226 -18.9375,-0.008 -34.8187,22.504868 -36.3871,51.155484 v -0.01612 c 0,-4.173432 -1.9663,-7.556675 -3.7019,-7.569843 -28.9288,-0.01299 -52.9393,36.214725 -52.9393,80.903876 0,44.689151 24.0106,80.917021 53.6293,80.916861 h 128.8562 V 64.400048 22.528237 h -95.0936 c -13.6958,25.102 -25.8591,41.871811 -33.9128,41.871811 -32.0223,0 -36.6694,-24.949621 -36.6694,-55.7263209 0,-30.7767501 16.4175,-55.7261781 36.0546,-55.7586251 1.6278,-0.02896 3.381,-2.765968 3.7188,-6.350394 -0.046,1.137875 -0.069,2.284741 -0.069,3.440004 0,30.832322 16.5614,55.8268951 36.991,55.8267951 h 88.8788 V -18.437817 -42.47438 h -68.2972 c -8.3348,14.593605 -15.6668,24.036563 -20.6854,24.036563 -22.0875,0 -25.2928,-17.213399 -25.2928,-38.447124 0,-21.233774 11.3239,-38.447145 24.8687,-38.469525 1.1359,-0.0202 2.3602,-1.95293 2.5726,-4.46864 -0.026,0.71377 -0.04,1.43256 -0.04,2.15618 0,21.260642 11.4161,38.495772 25.4983,38.495707 h 61.2652 v -16.735266 -11.865533 h -49.8811 c -4.5781,7.337998 -8.5712,11.865533 -11.4556,11.865533 -15.2251,0 -17.4346,-11.869604 -17.4346,-26.511465 0,-14.6419 7.8056,-26.51145 17.1422,-26.52688 0.8022,-0.0144 1.6682,-1.41273 1.7829,-3.2094 -0.012,0.38678 -0.017,0.77554 -0.017,1.16645 0,14.64603 7.8586,26.51898 17.5526,26.51893 h 42.1741 v -11.52857 z m 9.7918,0 v 315.96174 h -170.9115 l -39.7776,70.37675 h 223.3547 v -402.50447 z m 67.3597,-16.16598 v 402.50447 h 223.3546 l -39.7776,-70.37675 h -170.9114 v -315.96174 z m 22.4572,16.16598 v 7.1e-4 z m 0,86.87825 v 11.52857 h 42.1741 c 9.694,4e-5 17.5525,-11.8729 17.5525,-26.51893 0,-0.39091 -0.01,-0.77968 -0.017,-1.16646 0.1147,1.79668 0.9807,3.19504 1.7829,3.20941 9.3365,0.0154 17.1422,11.88498 17.1422,26.52688 0,14.641869 -2.2095,26.511464 -17.4346,26.511464 -2.8844,0 -6.8776,-4.527543 -11.4557,-11.865533 h -49.8808 v 11.865533 16.735265 h 61.2652 c 14.0823,0 25.4983,-17.235055 25.4983,-38.495705 0,-0.72362 -0.014,-1.44242 -0.04,-2.15618 0.2124,2.51571 1.4367,4.44851 2.5727,4.46864 13.5448,0.0224 24.8686,17.23575 24.8686,38.469524 0,21.233716 -3.2053,38.447124 -25.2927,38.447124 -5.0186,0 -12.3506,-9.442982 -20.6855,-24.036572 h -68.2972 v 24.036572 24.2696051 h 88.8789 c 20.4295,0 36.9909,-24.9944881 36.9909,-55.8268111 0,-1.155254 -0.023,-2.302129 -0.069,-3.440003 0.3378,3.584426 2.091,6.321416 3.7188,6.350393 19.6371,0.03241 36.0546,24.981883 36.0546,55.7586311 0,30.7766699 -4.6473,55.7263009 -36.6694,55.7263009 -8.0537,0 -20.217,-16.769811 -33.9128,-41.871801 h -95.094 v 41.871801 35.17705 h 128.8564 c 29.6186,0 53.6292,-36.22771 53.6292,-80.916881 0,-44.689169 -24.0106,-80.916907 -52.9393,-80.903879 -1.7356,0.01316 -3.7019,3.396403 -3.7019,7.569836 0,0.0058 10e-5,0.01061 10e-5,0.01604 -1.5685,-28.6506 -17.4497,-51.164014 -36.3871,-51.155484 -1.1971,0.009 -2.5534,2.34323 -2.5534,5.22261 v 0.005 c -0.9873,-19.89725 -11.9789,-35.57698 -25.0979,-35.57101 -0.8251,0.006 -1.7601,1.61574 -1.7601,3.6012 v 0.0132 c -0.5324,-13.92247 -8.166,-24.96445 -17.2968,-24.9603 -0.568,0.004 -1.2116,1.11301 -1.2116,2.48077 0,1.36774 0.6436,2.47664 1.2363,2.48725 6.4271,0.0106 11.8004,8.1873 11.8004,18.27381 0,10.08648 -1.5209,18.26317 -12.0016,18.26317 -10.4804,0 -42.2206,-86.87049 -42.2219,-86.87406 z"
         style="opacity:1;fill:#ff6d00;fill-opacity:1;fill-rule:nonzero;stroke:none;stroke-width:5;stroke-linecap:butt;stroke-linejoin:miter;stroke-miterlimit:4;stroke-dasharray:none;stroke-dashoffset:0;stroke-opacity:1;paint-order:normal" />
      <path
         inkscape:connector-curvature="0"
         id="path5420"
         d="m -1584.0723,-91.632812 c -12.5177,-4.4e-5 -22.039,11.423761 -22.039,24.595703 0,13.171942 9.5213,24.595747 22.039,24.595703 12.5177,-4.1e-5 22.0371,-11.423815 22.0371,-24.595703 0,-13.171888 -9.5194,-24.595663 -22.0371,-24.595703 z m 0,10 c 6.302,2e-5 12.0371,6.122818 12.0371,14.595703 0,8.472884 -5.7351,14.595682 -12.0371,14.595703 -6.302,2.2e-5 -12.039,-6.122783 -12.039,-14.595703 0,-8.472921 5.737,-14.595726 12.039,-14.595703 z"
         style="color:#000000;font-style:normal;font-variant:normal;font-weight:normal;font-stretch:normal;font-size:medium;line-height:normal;font-family:sans-serif;font-variant-ligatures:normal;font-variant-position:normal;font-variant-caps:normal;font-variant-numeric:normal;font-variant-alternates:normal;font-feature-settings:normal;text-indent:0;text-align:start;text-decoration:none;text-decoration-line:none;text-decoration-style:solid;text-decoration-color:#000000;letter-spacing:normal;word-spacing:normal;text-transform:none;writing-mode:lr-tb;direction:ltr;text-orientation:mixed;dominant-baseline:auto;baseline-shift:baseline;text-anchor:start;white-space:normal;shape-padding:0;clip-rule:nonzero;display:inline;overflow:visible;visibility:visible;opacity:1;isolation:auto;mix-blend-mode:normal;color-interpolation:sRGB;color-interpolation-filters:linearRGB;solid-color:#000000;solid-opacity:1;vector-effect:none;fill:#ff6d00;fill-opacity:1;fill-rule:nonzero;stroke:none;stroke-width:10;stroke-linecap:butt;stroke-linejoin:miter;stroke-miterlimit:4;stroke-dasharray:none;stroke-dashoffset:0;stroke-opacity:1;paint-order:normal;color-rendering:auto;image-rendering:auto;shape-rendering:auto;text-rendering:auto;enable-background:accumulate" />
      <path
         inkscape:connector-curvature="0"
         id="path5422"
         d="m -1584.1484,-33.669922 a 5.0005,5.0005 0 0 0 -4.9239,5.070313 v 52.757812 a 5.0005,5.0005 0 1 0 10,0 v -52.757812 a 5.0005,5.0005 0 0 0 -5.0761,-5.070313 z"
         style="color:#000000;font-style:normal;font-variant:normal;font-weight:normal;font-stretch:normal;font-size:medium;line-height:normal;font-family:sans-serif;font-variant-ligatures:normal;font-variant-position:normal;font-variant-caps:normal;font-variant-numeric:normal;font-variant-alternates:normal;font-feature-settings:normal;text-indent:0;text-align:start;text-decoration:none;text-decoration-line:none;text-decoration-style:solid;text-decoration-color:#000000;letter-spacing:normal;word-spacing:normal;text-transform:none;writing-mode:lr-tb;direction:ltr;text-orientation:mixed;dominant-baseline:auto;baseline-shift:baseline;text-anchor:start;white-space:normal;shape-padding:0;clip-rule:nonzero;display:inline;overflow:visible;visibility:visible;opacity:1;isolation:auto;mix-blend-mode:normal;color-interpolation:sRGB;color-interpolation-filters:linearRGB;solid-color:#000000;solid-opacity:1;vector-effect:none;fill:#ff6d00;fill-opacity:1;fill-rule:nonzero;stroke:none;stroke-width:10;stroke-linecap:round;stroke-linejoin:miter;stroke-miterlimit:4;stroke-dasharray:none;stroke-dashoffset:0;stroke-opacity:1;paint-order:normal;color-rendering:auto;image-rendering:auto;shape-rendering:auto;text-rendering:auto;enable-background:accumulate" />
      <path
         id="path5424"
         transform="scale(0.26458333)"
         d="m -5905.748,124.20117 a 18.899528,18.899528 0 0 0 -14.4473,6.69531 l -66.8496,76.88477 -66.8496,-76.88477 a 18.899528,18.899528 0 0 0 -15.0157,-6.68945 18.899528,18.899528 0 0 0 -13.5078,31.49219 l 70.3301,80.88476 -70.3301,80.88868 a 18.899528,18.899528 0 1 0 28.5235,24.79687 l 66.8496,-76.88281 66.8496,76.88281 a 18.899528,18.899528 0 1 0 28.5254,-24.79687 L -5962,236.58398 l 70.3301,-80.88476 a 18.899528,18.899528 0 0 0 -14.0781,-31.49805 z"
         style="color:#000000;font-style:normal;font-variant:normal;font-weight:normal;font-stretch:normal;font-size:medium;line-height:normal;font-family:sans-serif;font-variant-ligatures:normal;font-variant-position:normal;font-variant-caps:normal;font-variant-numeric:normal;font-variant-alternates:normal;font-feature-settings:normal;text-indent:0;text-align:start;text-decoration:none;text-decoration-line:none;text-decoration-style:solid;text-decoration-color:#000000;letter-spacing:normal;word-spacing:normal;text-transform:none;writing-mode:lr-tb;direction:ltr;text-orientation:mixed;dominant-baseline:auto;baseline-shift:baseline;text-anchor:start;white-space:normal;shape-padding:0;clip-rule:nonzero;display:inline;overflow:visible;visibility:visible;opacity:1;isolation:auto;mix-blend-mode:normal;color-interpolation:sRGB;color-interpolation-filters:linearRGB;solid-color:#000000;solid-opacity:1;vector-effect:none;fill:#ff6d00;fill-opacity:1;fill-rule:nonzero;stroke:none;stroke-width:37.79527664;stroke-linecap:round;stroke-linejoin:miter;stroke-miterlimit:4;stroke-dasharray:none;stroke-dashoffset:0;stroke-opacity:1;paint-order:normal;color-rendering:auto;image-rendering:auto;shape-rendering:auto;text-rendering:auto;enable-background:accumulate"
         inkscape:connector-curvature="0" />
      <path
         inkscape:connector-curvature="0"
         id="path5432"
         d="m -1584.1484,95.962891 a 5.0005,5.0005 0 0 0 -4.9239,5.072269 v 52.75586 a 5.0005,5.0005 0 1 0 10,0 v -52.75586 a 5.0005,5.0005 0 0 0 -5.0761,-5.072269 z"
         style="color:#000000;font-style:normal;font-variant:normal;font-weight:normal;font-stretch:normal;font-size:medium;line-height:normal;font-family:sans-serif;font-variant-ligatures:normal;font-variant-position:normal;font-variant-caps:normal;font-variant-numeric:normal;font-variant-alternates:normal;font-feature-settings:normal;text-indent:0;text-align:start;text-decoration:none;text-decoration-line:none;text-decoration-style:solid;text-decoration-color:#000000;letter-spacing:normal;word-spacing:normal;text-transform:none;writing-mode:lr-tb;direction:ltr;text-orientation:mixed;dominant-baseline:auto;baseline-shift:baseline;text-anchor:start;white-space:normal;shape-padding:0;clip-rule:nonzero;display:inline;overflow:visible;visibility:visible;opacity:1;isolation:auto;mix-blend-mode:normal;color-interpolation:sRGB;color-interpolation-filters:linearRGB;solid-color:#000000;solid-opacity:1;vector-effect:none;fill:#ff6d00;fill-opacity:1;fill-rule:nonzero;stroke:none;stroke-width:10;stroke-linecap:round;stroke-linejoin:miter;stroke-miterlimit:4;stroke-dasharray:none;stroke-dashoffset:0;stroke-opacity:1;paint-order:normal;color-rendering:auto;image-rendering:auto;shape-rendering:auto;text-rendering:auto;enable-background:accumulate" />
      <path
         inkscape:connector-curvature="0"
         id="ellipse5442"
         d="m -950.58398,-91.632812 c -12.51772,-4.4e-5 -22.03907,11.423761 -22.03907,24.595703 0,13.171942 9.52135,24.595747 22.03907,24.595703 12.51766,-4.1e-5 22.03711,-11.423815 22.0371,-24.595703 10e-6,-13.171888 -9.51944,-24.595663 -22.0371,-24.595703 z m 0,10 c 6.302,2e-5 12.03711,6.122818 12.0371,14.595703 10e-6,8.472884 -5.7351,14.595682 -12.0371,14.595703 -6.30203,2.2e-5 -12.03907,-6.122783 -12.03907,-14.595703 0,-8.472921 5.73704,-14.595726 12.03907,-14.595703 z"
         style="color:#000000;font-style:normal;font-variant:normal;font-weight:normal;font-stretch:normal;font-size:medium;line-height:normal;font-family:sans-serif;font-variant-ligatures:normal;font-variant-position:normal;font-variant-caps:normal;font-variant-numeric:normal;font-variant-alternates:normal;font-feature-settings:normal;text-indent:0;text-align:start;text-decoration:none;text-decoration-line:none;text-decoration-style:solid;text-decoration-color:#000000;letter-spacing:normal;word-spacing:normal;text-transform:none;writing-mode:lr-tb;direction:ltr;text-orientation:mixed;dominant-baseline:auto;baseline-shift:baseline;text-anchor:start;white-space:normal;shape-padding:0;clip-rule:nonzero;display:inline;overflow:visible;visibility:visible;opacity:1;isolation:auto;mix-blend-mode:normal;color-interpolation:sRGB;color-interpolation-filters:linearRGB;solid-color:#000000;solid-opacity:1;vector-effect:none;fill:#ff6d00;fill-opacity:1;fill-rule:nonzero;stroke:none;stroke-width:10;stroke-linecap:butt;stroke-linejoin:miter;stroke-miterlimit:4;stroke-dasharray:none;stroke-dashoffset:0;stroke-opacity:1;paint-order:normal;color-rendering:auto;image-rendering:auto;shape-rendering:auto;text-rendering:auto;enable-background:accumulate" />
      <path
         inkscape:connector-curvature="0"
         id="path5444"
         d="m -950.66016,-33.669922 a 5.0005,5.0005 0 0 0 -4.92382,5.070313 v 52.757812 a 5.0005,5.0005 0 1 0 10,0 v -52.757812 a 5.0005,5.0005 0 0 0 -5.07618,-5.070313 z"
         style="color:#000000;font-style:normal;font-variant:normal;font-weight:normal;font-stretch:normal;font-size:medium;line-height:normal;font-family:sans-serif;font-variant-ligatures:normal;font-variant-position:normal;font-variant-caps:normal;font-variant-numeric:normal;font-variant-alternates:normal;font-feature-settings:normal;text-indent:0;text-align:start;text-decoration:none;text-decoration-line:none;text-decoration-style:solid;text-decoration-color:#000000;letter-spacing:normal;word-spacing:normal;text-transform:none;writing-mode:lr-tb;direction:ltr;text-orientation:mixed;dominant-baseline:auto;baseline-shift:baseline;text-anchor:start;white-space:normal;shape-padding:0;clip-rule:nonzero;display:inline;overflow:visible;visibility:visible;opacity:1;isolation:auto;mix-blend-mode:normal;color-interpolation:sRGB;color-interpolation-filters:linearRGB;solid-color:#000000;solid-opacity:1;vector-effect:none;fill:#ff6d00;fill-opacity:1;fill-rule:nonzero;stroke:none;stroke-width:10;stroke-linecap:round;stroke-linejoin:miter;stroke-miterlimit:4;stroke-dasharray:none;stroke-dashoffset:0;stroke-opacity:1;paint-order:normal;color-rendering:auto;image-rendering:auto;shape-rendering:auto;text-rendering:auto;enable-background:accumulate" />
      <path
         id="path5446"
         transform="scale(0.26458333)"
         d="m -3511.4609,124.20117 a 18.899528,18.899528 0 0 0 -14.4473,6.69531 l -66.8516,76.88672 -66.8496,-76.88672 a 18.899528,18.899528 0 0 0 -15.0215,-6.68945 18.899528,18.899528 0 0 0 -13.5019,31.49219 l 70.3301,80.88476 -70.3301,80.88868 a 18.899528,18.899528 0 1 0 28.5234,24.79687 l 66.8496,-76.88476 66.8516,76.88476 a 18.899528,18.899528 0 1 0 28.5156,-24.79687 l -70.3281,-80.88868 70.3281,-80.88476 a 18.899528,18.899528 0 0 0 -14.0683,-31.49805 z"
         style="color:#000000;font-style:normal;font-variant:normal;font-weight:normal;font-stretch:normal;font-size:medium;line-height:normal;font-family:sans-serif;font-variant-ligatures:normal;font-variant-position:normal;font-variant-caps:normal;font-variant-numeric:normal;font-variant-alternates:normal;font-feature-settings:normal;text-indent:0;text-align:start;text-decoration:none;text-decoration-line:none;text-decoration-style:solid;text-decoration-color:#000000;letter-spacing:normal;word-spacing:normal;text-transform:none;writing-mode:lr-tb;direction:ltr;text-orientation:mixed;dominant-baseline:auto;baseline-shift:baseline;text-anchor:start;white-space:normal;shape-padding:0;clip-rule:nonzero;display:inline;overflow:visible;visibility:visible;opacity:1;isolation:auto;mix-blend-mode:normal;color-interpolation:sRGB;color-interpolation-filters:linearRGB;solid-color:#000000;solid-opacity:1;vector-effect:none;fill:#ff6d00;fill-opacity:1;fill-rule:nonzero;stroke:none;stroke-width:37.79527664;stroke-linecap:round;stroke-linejoin:miter;stroke-miterlimit:4;stroke-dasharray:none;stroke-dashoffset:0;stroke-opacity:1;paint-order:normal;color-rendering:auto;image-rendering:auto;shape-rendering:auto;text-rendering:auto;enable-background:accumulate"
         inkscape:connector-curvature="0" />
      <path
         inkscape:connector-curvature="0"
         id="path5452"
         d="m -950.66016,95.962891 a 5.0005,5.0005 0 0 0 -4.92382,5.072269 v 52.75586 a 5.0005,5.0005 0 1 0 10,0 v -52.75586 a 5.0005,5.0005 0 0 0 -5.07618,-5.072269 z"
         style="color:#000000;font-style:normal;font-variant:normal;font-weight:normal;font-stretch:normal;font-size:medium;line-height:normal;font-family:sans-serif;font-variant-ligatures:normal;font-variant-position:normal;font-variant-caps:normal;font-variant-numeric:normal;font-variant-alternates:normal;font-feature-settings:normal;text-indent:0;text-align:start;text-decoration:none;text-decoration-line:none;text-decoration-style:solid;text-decoration-color:#000000;letter-spacing:normal;word-spacing:normal;text-transform:none;writing-mode:lr-tb;direction:ltr;text-orientation:mixed;dominant-baseline:auto;baseline-shift:baseline;text-anchor:start;white-space:normal;shape-padding:0;clip-rule:nonzero;display:inline;overflow:visible;visibility:visible;opacity:1;isolation:auto;mix-blend-mode:normal;color-interpolation:sRGB;color-interpolation-filters:linearRGB;solid-color:#000000;solid-opacity:1;vector-effect:none;fill:#ff6d00;fill-opacity:1;fill-rule:nonzero;stroke:none;stroke-width:10;stroke-linecap:round;stroke-linejoin:miter;stroke-miterlimit:4;stroke-dasharray:none;stroke-dashoffset:0;stroke-opacity:1;paint-order:normal;color-rendering:auto;image-rendering:auto;shape-rendering:auto;text-rendering:auto;enable-background:accumulate" />
      <path
         inkscape:connector-curvature="0"
         d="m -1492.0083,218.58051 h 9.515 v 42.51269 q 0,11.24923 4.0778,16.21763 4.0779,4.92154 13.2179,4.92154 9.0931,0 13.171,-4.92154 4.0778,-4.9684 4.0778,-16.21763 v -42.51269 h 9.515 V 262.265 q 0,13.68655 -6.7964,20.67045 -6.7496,6.98389 -19.9674,6.98389 -13.2647,0 -20.0611,-6.98389 -6.7496,-6.9839 -6.7496,-20.67045 z"
         style="font-style:normal;font-variant:normal;font-weight:normal;font-stretch:normal;font-size:medium;line-height:179.98757935px;font-family:sans-serif;-inkscape-font-specification:sans-serif;text-align:start;writing-mode:lr-tb;text-anchor:start;fill:#ff6d00;fill-opacity:1;fill-rule:nonzero;stroke:none;stroke-width:10;stroke-linecap:round;stroke-linejoin:miter;stroke-miterlimit:4;stroke-dasharray:none;stroke-dashoffset:0;stroke-opacity:1;paint-order:normal"
         id="path5485" />
      <path
         inkscape:connector-curvature="0"
         d="m -1420.6226,218.58051 h 9.4681 v 62.01135 h 34.0758 v 7.9682 h -43.5439 z"
         style="font-style:normal;font-variant:normal;font-weight:normal;font-stretch:normal;font-size:medium;line-height:179.98757935px;font-family:sans-serif;-inkscape-font-specification:sans-serif;text-align:start;writing-mode:lr-tb;text-anchor:start;fill:#ff6d00;fill-opacity:1;fill-rule:nonzero;stroke:none;stroke-width:10;stroke-linecap:round;stroke-linejoin:miter;stroke-miterlimit:4;stroke-dasharray:none;stroke-dashoffset:0;stroke-opacity:1;paint-order:normal"
         id="path5487" />
      <path
         inkscape:connector-curvature="0"
         d="m -1372.954,218.58051 h 9.515 v 42.51269 q 0,11.24923 4.0778,16.21763 4.0779,4.92154 13.2179,4.92154 9.0931,0 13.1709,-4.92154 4.0779,-4.9684 4.0779,-16.21763 v -42.51269 h 9.5149 V 262.265 q 0,13.68655 -6.7964,20.67045 -6.7495,6.98389 -19.9673,6.98389 -13.2647,0 -20.0611,-6.98389 -6.7496,-6.9839 -6.7496,-20.67045 z"
         style="font-style:normal;font-variant:normal;font-weight:normal;font-stretch:normal;font-size:medium;line-height:179.98757935px;font-family:sans-serif;-inkscape-font-specification:sans-serif;text-align:start;writing-mode:lr-tb;text-anchor:start;fill:#ff6d00;fill-opacity:1;fill-rule:nonzero;stroke:none;stroke-width:10;stroke-linecap:round;stroke-linejoin:miter;stroke-miterlimit:4;stroke-dasharray:none;stroke-dashoffset:0;stroke-opacity:1;paint-order:normal"
         id="path5489" />
      <path
         inkscape:connector-curvature="0"
         d="m -1307.8022,218.58051 h 9.5618 l 14.7178,59.15217 14.6708,-59.15217 h 10.6399 l 14.7177,59.15217 14.6709,-59.15217 h 9.6087 l -17.5769,69.97955 h -11.9054 l -14.7646,-60.74581 -14.9053,60.74581 h -11.9054 z"
         style="font-style:normal;font-variant:normal;font-weight:normal;font-stretch:normal;font-size:medium;line-height:179.98757935px;font-family:sans-serif;-inkscape-font-specification:sans-serif;text-align:start;writing-mode:lr-tb;text-anchor:start;fill:#ff6d00;fill-opacity:1;fill-rule:nonzero;stroke:none;stroke-width:10;stroke-linecap:round;stroke-linejoin:miter;stroke-miterlimit:4;stroke-dasharray:none;stroke-dashoffset:0;stroke-opacity:1;paint-order:normal"
         id="path5491" />
      <path
         inkscape:connector-curvature="0"
         d="m -1188.5605,227.90799 -12.8428,34.82573 h 25.7326 z m -5.3433,-9.32748 h 10.7336 l 26.67,69.97955 h -9.843 l -6.3746,-17.95189 h -31.5447 l -6.3746,17.95189 h -9.9836 z"
         style="font-style:normal;font-variant:normal;font-weight:normal;font-stretch:normal;font-size:medium;line-height:179.98757935px;font-family:sans-serif;-inkscape-font-specification:sans-serif;text-align:start;writing-mode:lr-tb;text-anchor:start;fill:#ff6d00;fill-opacity:1;fill-rule:nonzero;stroke:none;stroke-width:10;stroke-linecap:round;stroke-linejoin:miter;stroke-miterlimit:4;stroke-dasharray:none;stroke-dashoffset:0;stroke-opacity:1;paint-order:normal"
         id="path5493" />
      <path
         inkscape:connector-curvature="0"
         d="m -1163.5309,218.58051 h 59.199 v 7.9682 h -24.842 v 62.01135 h -9.515 v -62.01135 h -24.842 z"
         style="font-style:normal;font-variant:normal;font-weight:normal;font-stretch:normal;font-size:medium;line-height:179.98757935px;font-family:sans-serif;-inkscape-font-specification:sans-serif;text-align:start;writing-mode:lr-tb;text-anchor:start;fill:#ff6d00;fill-opacity:1;fill-rule:nonzero;stroke:none;stroke-width:10;stroke-linecap:round;stroke-linejoin:miter;stroke-miterlimit:4;stroke-dasharray:none;stroke-dashoffset:0;stroke-opacity:1;paint-order:normal"
         id="path5495" />
      <path
         inkscape:connector-curvature="0"
         d="m -1096.2231,218.58051 h 9.515 v 42.51269 q 0,11.24923 4.0778,16.21763 4.0779,4.92154 13.2179,4.92154 9.0931,0 13.1709,-4.92154 4.0779,-4.9684 4.0779,-16.21763 v -42.51269 h 9.5149 V 262.265 q 0,13.68655 -6.7964,20.67045 -6.7495,6.98389 -19.9673,6.98389 -13.2647,0 -20.0611,-6.98389 -6.7496,-6.9839 -6.7496,-20.67045 z"
         style="font-style:normal;font-variant:normal;font-weight:normal;font-stretch:normal;font-size:medium;line-height:179.98757935px;font-family:sans-serif;-inkscape-font-specification:sans-serif;text-align:start;writing-mode:lr-tb;text-anchor:start;fill:#ff6d00;fill-opacity:1;fill-rule:nonzero;stroke:none;stroke-width:10;stroke-linecap:round;stroke-linejoin:miter;stroke-miterlimit:4;stroke-dasharray:none;stroke-dashoffset:0;stroke-opacity:1;paint-order:normal"
         id="path5497" />
    </g>
  </g>
</svg>
