<?xml version="1.0" encoding="UTF-8" standalone="no"?>
<!-- Created with Inkscape (http://www.inkscape.org/) -->

<svg
   xmlns:dc="http://purl.org/dc/elements/1.1/"
   xmlns:cc="http://creativecommons.org/ns#"
   xmlns:rdf="http://www.w3.org/1999/02/22-rdf-syntax-ns#"
   xmlns:svg="http://www.w3.org/2000/svg"
   xmlns="http://www.w3.org/2000/svg"
   xmlns:sodipodi="http://sodipodi.sourceforge.net/DTD/sodipodi-0.dtd"
   xmlns:inkscape="http://www.inkscape.org/namespaces/inkscape"
   sodipodi:docname="suncet.svg"
   inkscape:version="0.92.1 r"
   id="svg8"
   version="1.1"
   viewBox="0 0 1016 571.5"
   height="571.5mm"
   width="1016mm"
   inkscape:export-filename="/home/belthsazar2/blankon-uluwatu-kesenian/gambar-latar/bliem/suncet.png"
   inkscape:export-xdpi="96"
   inkscape:export-ydpi="96">
  <title
     id="title7123">Suncet</title>
  <sodipodi:namedview
     inkscape:snap-midpoints="true"
     inkscape:snap-smooth-nodes="true"
     inkscape:snap-intersection-paths="true"
     inkscape:object-paths="true"
     fit-margin-bottom="0"
     fit-margin-right="0"
     fit-margin-left="0"
     fit-margin-top="0"
     showgrid="false"
     inkscape:current-layer="layer1"
     inkscape:document-units="mm"
     inkscape:cy="560"
     inkscape:cx="400"
     inkscape:zoom="0.35"
     inkscape:pageshadow="2"
     inkscape:pageopacity="0.0"
     borderopacity="1.0"
     bordercolor="#666666"
     pagecolor="#ffffff"
     id="base" />
  <defs
     id="defs2" />
  <metadata
     id="metadata5">
    <rdf:RDF>
      <cc:Work
         rdf:about="">
        <dc:format>image/svg+xml</dc:format>
        <dc:type
           rdf:resource="http://purl.org/dc/dcmitype/StillImage" />
        <dc:title>Suncet</dc:title>
        <dc:creator>
          <cc:Agent>
            <dc:title>Vikko Okviandho Liem</dc:title>
          </cc:Agent>
        </dc:creator>
        <dc:publisher>
          <cc:Agent>
            <dc:title>Belthsazar Liem of ISO-arts</dc:title>
          </cc:Agent>
        </dc:publisher>
        <dc:date>2017-03-09</dc:date>
        <cc:license
           rdf:resource="http://creativecommons.org/licenses/by/4.0/" />
      </cc:Work>
      <cc:License
         rdf:about="http://creativecommons.org/licenses/by/4.0/">
        <cc:permits
           rdf:resource="http://creativecommons.org/ns#Reproduction" />
        <cc:permits
           rdf:resource="http://creativecommons.org/ns#Distribution" />
        <cc:requires
           rdf:resource="http://creativecommons.org/ns#Notice" />
        <cc:requires
           rdf:resource="http://creativecommons.org/ns#Attribution" />
        <cc:permits
           rdf:resource="http://creativecommons.org/ns#DerivativeWorks" />
      </cc:License>
    </rdf:RDF>
  </metadata>
  <g
     transform="translate(523.21881,46.406487)"
     id="layer1"
     inkscape:groupmode="layer"
     inkscape:label="Layer 1">
    <g
       id="g7347">
      <g
         id="g7121">
        <path
           id="rect4485"
           d="m -523.21881,-46.406487 h 1016 V 525.09351 h -1016 z"
           style="opacity:1;fill:#ff6d00;fill-opacity:1;fill-rule:nonzero;stroke:none;stroke-width:0.52916664;stroke-linecap:round;stroke-linejoin:round;stroke-miterlimit:4;stroke-dasharray:none;stroke-dashoffset:0;stroke-opacity:1;paint-order:normal" />
        <g
           id="g6366">
          <path
             style="opacity:1;fill:#e1f5fe;fill-opacity:1;fill-rule:nonzero;stroke:none;stroke-width:1.99999988;stroke-linecap:round;stroke-linejoin:round;stroke-miterlimit:4;stroke-dasharray:none;stroke-dashoffset:0;stroke-opacity:1;paint-order:normal"
             d="M 0,0 V 202.5 H 3840 V 0 Z"
             transform="matrix(0.26458333,0,0,0.26458333,-523.21881,-46.406487)"
             id="path5718"
             inkscape:connector-curvature="0"
             sodipodi:nodetypes="ccccc" />
          <path
             style="opacity:1;fill:#ff5722;fill-opacity:1;fill-rule:nonzero;stroke:none;stroke-width:0.52916664;stroke-linecap:round;stroke-linejoin:round;stroke-miterlimit:4;stroke-dasharray:none;stroke-dashoffset:0;stroke-opacity:1;paint-order:normal"
             d="m -523.21881,471.51539 v 53.57812 H 492.78118 v -53.57812 z"
             id="path6055"
             inkscape:connector-curvature="0"
             sodipodi:nodetypes="ccccc" />
          <path
             id="path6309"
             style="opacity:1;fill:#fb683a;fill-opacity:1;fill-rule:nonzero;stroke:none;stroke-width:0.52916664;stroke-linecap:round;stroke-linejoin:round;stroke-miterlimit:4;stroke-dasharray:none;stroke-dashoffset:0;stroke-opacity:1;paint-order:normal"
             d="m -523.21881,413.96851 c 0,0 0,53.57813 0,53.57813 0,0 2.2e-4,0 6.5e-4,0 0.88108,0 1015.99934,0 1015.99934,0 0,0 0,-3e-5 0,-7e-5 0,-0.0232 0,-53.57806 0,-53.57806 0,0 -2.2e-4,0 -6.5e-4,0 -0.88108,0 -1015.99934,0 -1015.99934,0"
             inkscape:connector-curvature="0" />
          <path
             id="path6311"
             style="opacity:1;fill:#f87a52;fill-opacity:1;fill-rule:nonzero;stroke:none;stroke-width:0.52916664;stroke-linecap:round;stroke-linejoin:round;stroke-miterlimit:4;stroke-dasharray:none;stroke-dashoffset:0;stroke-opacity:1;paint-order:normal"
             d="m -523.21881,356.42164 c 0,0 0,53.57812 0,53.57812 0,0 1.9e-4,0 5.7e-4,0 0.77094,0 1015.99942,0 1015.99942,0 0,0 0,-4e-5 0,-1.4e-4 0,-0.0463 0,-53.57798 0,-53.57798 0,0 -1.9e-4,0 -5.7e-4,0 -0.77094,0 -1015.99942,0 -1015.99942,0"
             inkscape:connector-curvature="0" />
          <path
             id="path6313"
             style="opacity:1;fill:#f58b6b;fill-opacity:1;fill-rule:nonzero;stroke:none;stroke-width:0.52916664;stroke-linecap:round;stroke-linejoin:round;stroke-miterlimit:4;stroke-dasharray:none;stroke-dashoffset:0;stroke-opacity:1;paint-order:normal"
             d="m -523.21881,298.87476 c 0,0 0,53.57813 0,53.57813 0,0 1.6e-4,0 4.8e-4,0 0.66082,0 1015.99951,0 1015.99951,0 0,0 0,-7e-5 0,-2.1e-4 0,-0.0695 0,-53.57792 0,-53.57792 0,0 -1.6e-4,0 -4.9e-4,0 -0.66081,0 -1015.9995,0 -1015.9995,0"
             inkscape:connector-curvature="0" />
          <path
             id="path6315"
             style="opacity:1;fill:#f19d83;fill-opacity:1;fill-rule:nonzero;stroke:none;stroke-width:0.52916664;stroke-linecap:round;stroke-linejoin:round;stroke-miterlimit:4;stroke-dasharray:none;stroke-dashoffset:0;stroke-opacity:1;paint-order:normal"
             d="m -523.21881,241.32789 c 0,0 0,53.57812 0,53.57812 0,0 1.3e-4,0 4e-4,0 0.55068,0 1015.99959,0 1015.99959,0 0,0 0,-9e-5 0,-2.7e-4 0,-0.0927 0,-53.57785 0,-53.57785 0,0 -1.4e-4,0 -4e-4,0 -0.55068,0 -1015.99959,0 -1015.99959,0"
             inkscape:connector-curvature="0" />
          <path
             id="path6317"
             style="opacity:1;fill:#eeae9c;fill-opacity:1;fill-rule:nonzero;stroke:none;stroke-width:0.52916664;stroke-linecap:round;stroke-linejoin:round;stroke-miterlimit:4;stroke-dasharray:none;stroke-dashoffset:0;stroke-opacity:1;paint-order:normal"
             d="m -523.21881,183.78101 c 0,0 0,53.57813 0,53.57813 0,0 1.1e-4,0 3.2e-4,0 0.44054,0 1015.99967,0 1015.99967,0 0,0 0,-1.2e-4 0,-3.4e-4 0,-0.11582 0,-53.57779 0,-53.57779 0,0 -1.1e-4,0 -3.2e-4,0 -0.44055,0 -1015.99967,0 -1015.99967,0"
             inkscape:connector-curvature="0" />
          <path
             id="path6319"
             style="opacity:1;fill:#ebc0b4;fill-opacity:1;fill-rule:nonzero;stroke:none;stroke-width:0.52916664;stroke-linecap:round;stroke-linejoin:round;stroke-miterlimit:4;stroke-dasharray:none;stroke-dashoffset:0;stroke-opacity:1;paint-order:normal"
             d="m -523.21881,126.23414 c 0,0 0,53.57812 0,53.57812 0,0 8e-5,0 2.4e-4,0 0.33041,0 1015.99975,0 1015.99975,0 0,0 0,-1.3e-4 0,-4.1e-4 0,-0.13898 0,-53.57771 0,-53.57771 0,0 -8e-5,0 -2.4e-4,0 -0.33041,0 -1015.99975,0 -1015.99975,0"
             inkscape:connector-curvature="0" />
          <path
             id="path6321"
             style="opacity:1;fill:#e7d1cd;fill-opacity:1;fill-rule:nonzero;stroke:none;stroke-width:0.52916664;stroke-linecap:round;stroke-linejoin:round;stroke-miterlimit:4;stroke-dasharray:none;stroke-dashoffset:0;stroke-opacity:1;paint-order:normal"
             d="m -523.21881,68.687263 c 0,0 0,53.578127 0,53.578127 0,0 5e-5,0 1.6e-4,0 0.22027,0 1015.99983,0 1015.99983,0 0,0 0,-1.6e-4 0,-4.8e-4 0,-0.16214 0,-53.577647 0,-53.577647 0,0 -6e-5,0 -1.6e-4,0 -0.22027,0 -1015.99983,0 -1015.99983,0"
             inkscape:connector-curvature="0" />
          <path
             id="path6323"
             style="opacity:1;fill:#e4e3e5;fill-opacity:1;fill-rule:nonzero;stroke:none;stroke-width:0.52916664;stroke-linecap:round;stroke-linejoin:round;stroke-miterlimit:4;stroke-dasharray:none;stroke-dashoffset:0;stroke-opacity:1;paint-order:normal"
             d="m -523.21881,11.140388 c 0,0 0,53.578124 0,53.578124 0,0 3e-5,0 8e-5,0 0.11014,0 1015.99991,0 1015.99991,0 0,0 0,-1.82e-4 0,-5.44e-4 0,-0.185309 0,-53.57758 0,-53.57758 0,0 -3e-5,0 -8e-5,0 -0.11014,0 -1015.99991,0 -1015.99991,0"
             inkscape:connector-curvature="0" />
        </g>
      </g>
      <g
         id="text7305"
         style="font-style:normal;font-variant:normal;font-weight:normal;font-stretch:normal;font-size:129.53787231px;line-height:242.88349915px;font-family:Cantarell;-inkscape-font-specification:Cantarell;text-align:start;writing-mode:lr-tb;text-anchor:start;opacity:1;fill:#fff3e0;fill-opacity:1;fill-rule:nonzero;stroke:none;stroke-width:3.00000024;stroke-linecap:round;stroke-linejoin:round;stroke-miterlimit:2.61538458;stroke-dasharray:none;stroke-dashoffset:0;stroke-opacity:1;paint-order:normal"
         aria-label="Uluwatu">
        <path
           id="path7311"
           style="stroke-width:3.00000024"
           d="m -205.90057,286.4953 c 25.51896,0 34.45707,-16.19223 34.45707,-37.30691 v -53.62868 h -10.75164 v 56.34898 c 0,12.17656 -6.4769,25.13034 -23.70543,25.13034 -17.22854,0 -23.70543,-12.69471 -23.70543,-25.13034 v -56.34898 h -10.62211 v 53.62868 c 0,21.11468 8.80857,37.30691 34.32754,37.30691 z" />
        <path
           id="path7313"
           style="stroke-width:3.00000024"
           d="m -134.44222,277.55719 c -6.86551,0 -7.12458,-4.53383 -7.12458,-9.71534 v -75.65012 h -10.75165 v 79.40671 c 0,8.80858 6.4769,14.89686 16.45131,14.89686 3.23845,0 5.57013,-0.64769 6.86551,-1.16584 l -2.0726,-8.16089 c -1.03631,0.25908 -1.94307,0.38862 -3.36799,0.38862 z" />
        <path
           id="path7315"
           style="stroke-width:3.00000024"
           d="m -110.22471,262.27172 v -39.50905 h -10.75165 v 42.0998 c 0,13.21287 7.38366,21.63283 20.59652,21.63283 6.735973,0 13.990094,-2.20214 22.021442,-6.34736 l 2.46122,5.05198 h 7.383659 v -62.43725 h -10.751644 v 50.00161 c -6.347355,2.97938 -12.047022,4.53383 -17.228537,4.53383 -10.36303,0 -13.73101,-4.53383 -13.73101,-15.02639 z" />
        <path
           id="path7317"
           style="stroke-width:3.00000024"
           d="m -59.148332,222.76267 21.244211,62.43725 h 11.658409 l 16.062696,-48.44716 15.6740827,48.44716 H 17.538089 L 39.041376,222.76267 H 28.160194 l -16.321772,50.00161 -0.388613,2.33169 -0.388614,-2.33169 -15.5445445,-50.00161 H -14.846379 l -16.321772,50.00161 -0.388614,2.33169 -0.388613,-2.33169 -16.321772,-50.00161 z" />
        <path
           id="path7319"
           style="stroke-width:3.00000024"
           d="m 69.915912,229.75771 c 10.751644,0 14.508242,3.49752 14.508242,18.65345 -20.207908,0 -39.249975,2.20215 -39.249975,20.59653 0,10.49256 9.456264,17.48761 20.207908,17.48761 6.476893,0 12.824249,-2.33168 19.042067,-6.99505 l 2.590757,5.69967 h 8.031348 v -40.93397 c 0,-15.93316 -7.124582,-23.05774 -23.70543,-23.05774 -9.067651,0 -16.45131,2.20215 -21.632825,4.66337 l 3.108909,8.03134 c 3.367985,-1.68399 10.103954,-4.14521 17.098999,-4.14521 z m 14.508242,41.58166 c -4.663363,3.7566 -9.585803,6.60643 -17.487613,6.60643 -6.217818,0 -11.399333,-3.88614 -11.399333,-10.10395 0,-10.62211 15.026394,-10.88119 28.886946,-10.88119 z" />
        <path
           id="path7321"
           style="stroke-width:3.00000024"
           d="m 130.72989,286.4953 c 7.77227,0 12.04702,-1.16584 15.80362,-2.84983 l -2.20215,-7.77228 c -2.20214,0.77723 -5.31105,1.684 -9.45626,1.684 -7.25412,0 -8.5495,-4.79291 -8.5495,-9.71534 v -36.52968 h 17.87623 v -8.5495 H 126.3256 v -17.48762 h -10.75164 v 17.48762 h -10.49257 v 8.5495 h 10.49257 v 40.28627 c 0,8.41997 3.88613,14.89686 15.15593,14.89686 z" />
        <path
           id="path7323"
           style="stroke-width:3.00000024"
           d="m 168.07932,262.27172 v -39.50905 h -10.75165 v 42.0998 c 0,13.21287 7.38366,21.63283 20.59653,21.63283 6.73596,0 13.99009,-2.20214 22.02143,-6.34736 l 2.46122,5.05198 h 7.38366 v -62.43725 h -10.75164 v 50.00161 c -6.34736,2.97938 -12.04702,4.53383 -17.22854,4.53383 -10.36303,0 -13.73101,-4.53383 -13.73101,-15.02639 z" />
      </g>
    </g>
  </g>
</svg>
