<?xml version="1.0" encoding="UTF-8" standalone="no"?>
<!-- Created with Inkscape (http://www.inkscape.org/) -->

<svg
   xmlns:dc="http://purl.org/dc/elements/1.1/"
   xmlns:cc="http://creativecommons.org/ns#"
   xmlns:rdf="http://www.w3.org/1999/02/22-rdf-syntax-ns#"
   xmlns:svg="http://www.w3.org/2000/svg"
   xmlns="http://www.w3.org/2000/svg"
   xmlns:sodipodi="http://sodipodi.sourceforge.net/DTD/sodipodi-0.dtd"
   xmlns:inkscape="http://www.inkscape.org/namespaces/inkscape"
   width="1016mm"
   height="571.5mm"
   viewBox="0 0 1016 571.5"
   version="1.1"
   id="svg8"
   inkscape:version="0.92.1 r"
   sodipodi:docname="uluwatu pattern.svg"
   inkscape:export-filename="/home/belthsazar2/blankon-uluwatu-kesenian/gambar-latar/bliem/uluwatu pattern.png"
   inkscape:export-xdpi="96.010002"
   inkscape:export-ydpi="96.010002">
  <title
     id="title16765">Uluwatu Pattern</title>
  <defs
     id="defs2" />
  <sodipodi:namedview
     id="base"
     pagecolor="#ffffff"
     bordercolor="#666666"
     borderopacity="1.0"
     inkscape:pageopacity="0.0"
     inkscape:pageshadow="2"
     inkscape:zoom="0.35"
     inkscape:cx="400"
     inkscape:cy="560"
     inkscape:document-units="mm"
     inkscape:current-layer="layer1"
     showgrid="false"
     fit-margin-top="0"
     fit-margin-left="0"
     fit-margin-right="0"
     fit-margin-bottom="0"
     inkscape:snap-page="true"
     inkscape:object-paths="true"
     inkscape:snap-intersection-paths="true"
     inkscape:snap-smooth-nodes="true"
     inkscape:snap-midpoints="true"
     inkscape:snap-nodes="true" />
  <metadata
     id="metadata5">
    <rdf:RDF>
      <cc:Work
         rdf:about="">
        <dc:format>image/svg+xml</dc:format>
        <dc:type
           rdf:resource="http://purl.org/dc/dcmitype/StillImage" />
        <dc:title>Uluwatu Pattern</dc:title>
        <dc:creator>
          <cc:Agent>
            <dc:title>Vikko Okviandho Liem</dc:title>
          </cc:Agent>
        </dc:creator>
        <dc:publisher>
          <cc:Agent>
            <dc:title>Belthsazar Liem of ISO-arts</dc:title>
          </cc:Agent>
        </dc:publisher>
        <dc:date>2017-03-27</dc:date>
      </cc:Work>
    </rdf:RDF>
  </metadata>
  <g
     inkscape:label="Layer 1"
     inkscape:groupmode="layer"
     id="layer1"
     transform="translate(523.21881,46.406487)">
    <g
       id="g16763">
      <path
         id="rect5050"
         d="m -523.21881,-46.406487 h 1016 V 525.09351 h -1016 z"
         style="opacity:1;fill:#ffab40;fill-opacity:1;fill-rule:nonzero;stroke:none;stroke-width:1;stroke-linecap:round;stroke-linejoin:miter;stroke-miterlimit:4;stroke-dasharray:none;stroke-dashoffset:0;stroke-opacity:1;paint-order:normal" />
      <path
         id="path13283"
         transform="matrix(0.26458333,0,0,0.26458333,-523.21881,-46.406487)"
         d="M 43.533203 69.751953 L 43.533203 286.23242 L 260.01562 69.751953 L 43.533203 69.751953 z M 260.01562 69.751953 L 476.49805 286.23242 L 476.49805 69.751953 L 260.01562 69.751953 z M 517.73242 69.751953 L 517.73242 286.23242 L 734.21289 69.751953 L 517.73242 69.751953 z M 734.21289 69.751953 L 950.69531 286.23242 L 950.69531 69.751953 L 734.21289 69.751953 z M 991.92969 69.751953 L 991.92969 286.23242 L 1208.4121 69.751953 L 991.92969 69.751953 z M 1208.4121 69.751953 L 1424.8945 286.23242 L 1424.8945 69.751953 L 1208.4121 69.751953 z M 1466.1289 69.751953 L 1466.1289 286.23242 L 1682.6113 69.751953 L 1466.1289 69.751953 z M 1682.6113 69.751953 L 1899.0918 286.23242 L 1899.0918 69.751953 L 1682.6113 69.751953 z M 1940.3262 69.751953 L 1940.3262 286.23242 L 2156.8086 69.751953 L 1940.3262 69.751953 z M 2156.8086 69.751953 L 2373.291 286.23242 L 2373.291 69.751953 L 2156.8086 69.751953 z M 2414.5254 69.751953 L 2414.5254 286.23242 L 2631.0078 69.751953 L 2414.5254 69.751953 z M 2631.0078 69.751953 L 2847.4883 286.23242 L 2847.4883 69.751953 L 2631.0078 69.751953 z M 2888.7227 69.751953 L 2888.7227 286.23242 L 3105.2051 69.751953 L 2888.7227 69.751953 z M 3105.2051 69.751953 L 3321.6875 286.23242 L 3321.6875 69.751953 L 3105.2051 69.751953 z M 3362.9219 69.751953 L 3362.9219 286.23242 L 3579.4043 69.751953 L 3362.9219 69.751953 z M 3579.4043 69.751953 L 3795.8848 286.23242 L 3795.8848 69.751953 L 3579.4043 69.751953 z M 260.01562 128.06641 L 101.84766 286.23242 L 418.18359 286.23242 L 260.01562 128.06641 z M 734.21289 128.06641 L 576.04688 286.23242 L 892.38086 286.23242 L 734.21289 128.06641 z M 1208.4121 128.06641 L 1050.2441 286.23242 L 1366.5801 286.23242 L 1208.4121 128.06641 z M 1682.6113 128.06641 L 1524.4434 286.23242 L 1840.7773 286.23242 L 1682.6113 128.06641 z M 2156.8086 128.06641 L 1998.6406 286.23242 L 2314.9766 286.23242 L 2156.8086 128.06641 z M 2631.0078 128.06641 L 2472.8398 286.23242 L 2789.1738 286.23242 L 2631.0078 128.06641 z M 3105.2051 128.06641 L 2947.0371 286.23242 L 3263.373 286.23242 L 3105.2051 128.06641 z M 3579.4043 128.06641 L 3421.2363 286.23242 L 3737.5703 286.23242 L 3579.4043 128.06641 z M 43.533203 327.4668 L 43.533203 543.94922 L 260.01562 543.94922 L 43.533203 327.4668 z M 260.01562 543.94922 L 476.49805 543.94922 L 476.49805 327.4668 L 260.01562 543.94922 z M 101.84766 327.4668 L 260.01562 485.63477 L 418.18359 327.4668 L 101.84766 327.4668 z M 517.73242 327.4668 L 517.73242 543.94922 L 734.21289 543.94922 L 517.73242 327.4668 z M 734.21289 543.94922 L 950.69531 543.94922 L 950.69531 327.4668 L 734.21289 543.94922 z M 576.04688 327.4668 L 734.21289 485.63477 L 892.38086 327.4668 L 576.04688 327.4668 z M 991.92969 327.4668 L 991.92969 543.94922 L 1208.4121 543.94922 L 991.92969 327.4668 z M 1208.4121 543.94922 L 1424.8945 543.94922 L 1424.8945 327.4668 L 1208.4121 543.94922 z M 1050.2441 327.4668 L 1208.4121 485.63477 L 1366.5801 327.4668 L 1050.2441 327.4668 z M 1466.1289 327.4668 L 1466.1289 543.94922 L 1682.6113 543.94922 L 1466.1289 327.4668 z M 1682.6113 543.94922 L 1899.0918 543.94922 L 1899.0918 327.4668 L 1682.6113 543.94922 z M 1524.4434 327.4668 L 1682.6113 485.63477 L 1840.7773 327.4668 L 1524.4434 327.4668 z M 1940.3262 327.4668 L 1940.3262 543.94922 L 2156.8086 543.94922 L 1940.3262 327.4668 z M 2156.8086 543.94922 L 2373.291 543.94922 L 2373.291 327.4668 L 2156.8086 543.94922 z M 1998.6406 327.4668 L 2156.8086 485.63477 L 2314.9766 327.4668 L 1998.6406 327.4668 z M 2414.5254 327.4668 L 2414.5254 543.94922 L 2631.0078 543.94922 L 2414.5254 327.4668 z M 2631.0078 543.94922 L 2847.4883 543.94922 L 2847.4883 327.4668 L 2631.0078 543.94922 z M 2472.8398 327.4668 L 2631.0078 485.63477 L 2789.1738 327.4668 L 2472.8398 327.4668 z M 2888.7227 327.4668 L 2888.7227 543.94922 L 3105.2051 543.94922 L 2888.7227 327.4668 z M 3105.2051 543.94922 L 3321.6875 543.94922 L 3321.6875 327.4668 L 3105.2051 543.94922 z M 2947.0371 327.4668 L 3105.2051 485.63477 L 3263.373 327.4668 L 2947.0371 327.4668 z M 3362.9219 327.4668 L 3362.9219 543.94922 L 3579.4043 543.94922 L 3362.9219 327.4668 z M 3579.4043 543.94922 L 3795.8848 543.94922 L 3795.8848 327.4668 L 3579.4043 543.94922 z M 3421.2363 327.4668 L 3579.4043 485.63477 L 3737.5703 327.4668 L 3421.2363 327.4668 z M 43.533203 585.18359 L 43.533203 801.66602 L 260.01562 585.18359 L 43.533203 585.18359 z M 260.01562 585.18359 L 476.49805 801.66602 L 476.49805 585.18359 L 260.01562 585.18359 z M 517.73242 585.18359 L 517.73242 801.66602 L 734.21289 585.18359 L 517.73242 585.18359 z M 734.21289 585.18359 L 950.69531 801.66602 L 950.69531 585.18359 L 734.21289 585.18359 z M 991.92969 585.18359 L 991.92969 801.66602 L 1208.4121 585.18359 L 991.92969 585.18359 z M 1208.4121 585.18359 L 1424.8945 801.66602 L 1424.8945 585.18359 L 1208.4121 585.18359 z M 1466.1289 585.18359 L 1466.1289 801.66602 L 1682.6113 585.18359 L 1466.1289 585.18359 z M 1682.6113 585.18359 L 1899.0918 801.66602 L 1899.0918 585.18359 L 1682.6113 585.18359 z M 1940.3262 585.18359 L 1940.3262 801.66602 L 2156.8086 585.18359 L 1940.3262 585.18359 z M 2156.8086 585.18359 L 2373.291 801.66602 L 2373.291 585.18359 L 2156.8086 585.18359 z M 2414.5254 585.18359 L 2414.5254 801.66602 L 2631.0078 585.18359 L 2414.5254 585.18359 z M 2631.0078 585.18359 L 2847.4883 801.66602 L 2847.4883 585.18359 L 2631.0078 585.18359 z M 2888.7227 585.18359 L 2888.7227 801.66602 L 3105.2051 585.18359 L 2888.7227 585.18359 z M 3105.2051 585.18359 L 3321.6875 801.66602 L 3321.6875 585.18359 L 3105.2051 585.18359 z M 3362.9219 585.18359 L 3362.9219 801.66602 L 3579.4043 585.18359 L 3362.9219 585.18359 z M 3579.4043 585.18359 L 3795.8848 801.66602 L 3795.8848 585.18359 L 3579.4043 585.18359 z M 260.01562 643.49805 L 101.84766 801.66602 L 418.18359 801.66602 L 260.01562 643.49805 z M 734.21289 643.49805 L 576.04688 801.66602 L 892.38086 801.66602 L 734.21289 643.49805 z M 1208.4121 643.49805 L 1050.2441 801.66602 L 1366.5801 801.66602 L 1208.4121 643.49805 z M 1682.6113 643.49805 L 1524.4434 801.66602 L 1840.7773 801.66602 L 1682.6113 643.49805 z M 2156.8086 643.49805 L 1998.6406 801.66602 L 2314.9766 801.66602 L 2156.8086 643.49805 z M 2631.0078 643.49805 L 2472.8398 801.66602 L 2789.1738 801.66602 L 2631.0078 643.49805 z M 3105.2051 643.49805 L 2947.0371 801.66602 L 3263.373 801.66602 L 3105.2051 643.49805 z M 3579.4043 643.49805 L 3421.2363 801.66602 L 3737.5703 801.66602 L 3579.4043 643.49805 z M 43.533203 842.90039 L 43.533203 1059.3828 L 260.01562 1059.3828 L 43.533203 842.90039 z M 260.01562 1059.3828 L 476.49805 1059.3828 L 476.49805 842.90039 L 260.01562 1059.3828 z M 101.84766 842.90039 L 260.01562 1001.0684 L 418.18359 842.90039 L 101.84766 842.90039 z M 517.73242 842.90039 L 517.73242 1059.3828 L 734.21289 1059.3828 L 517.73242 842.90039 z M 734.21289 1059.3828 L 950.69531 1059.3828 L 950.69531 842.90039 L 734.21289 1059.3828 z M 576.04688 842.90039 L 734.21289 1001.0684 L 892.38086 842.90039 L 576.04688 842.90039 z M 991.92969 842.90039 L 991.92969 1059.3828 L 1208.4121 1059.3828 L 991.92969 842.90039 z M 1208.4121 1059.3828 L 1424.8945 1059.3828 L 1424.8945 842.90039 L 1208.4121 1059.3828 z M 1050.2441 842.90039 L 1208.4121 1001.0684 L 1366.5801 842.90039 L 1050.2441 842.90039 z M 1466.1289 842.90039 L 1466.1289 1059.3828 L 1682.6113 1059.3828 L 1466.1289 842.90039 z M 1682.6113 1059.3828 L 1899.0918 1059.3828 L 1899.0918 842.90039 L 1682.6113 1059.3828 z M 1524.4434 842.90039 L 1682.6113 1001.0684 L 1840.7773 842.90039 L 1524.4434 842.90039 z M 1940.3262 842.90039 L 1940.3262 1059.3828 L 2156.8086 1059.3828 L 1940.3262 842.90039 z M 2156.8086 1059.3828 L 2373.291 1059.3828 L 2373.291 842.90039 L 2156.8086 1059.3828 z M 1998.6406 842.90039 L 2156.8086 1001.0684 L 2314.9766 842.90039 L 1998.6406 842.90039 z M 2414.5254 842.90039 L 2414.5254 1059.3828 L 2631.0078 1059.3828 L 2414.5254 842.90039 z M 2631.0078 1059.3828 L 2847.4883 1059.3828 L 2847.4883 842.90039 L 2631.0078 1059.3828 z M 2472.8398 842.90039 L 2631.0078 1001.0684 L 2789.1738 842.90039 L 2472.8398 842.90039 z M 2888.7227 842.90039 L 2888.7227 1059.3828 L 3105.2051 1059.3828 L 2888.7227 842.90039 z M 3105.2051 1059.3828 L 3321.6875 1059.3828 L 3321.6875 842.90039 L 3105.2051 1059.3828 z M 2947.0371 842.90039 L 3105.2051 1001.0684 L 3263.373 842.90039 L 2947.0371 842.90039 z M 3362.9219 842.90039 L 3362.9219 1059.3828 L 3579.4043 1059.3828 L 3362.9219 842.90039 z M 3579.4043 1059.3828 L 3795.8848 1059.3828 L 3795.8848 842.90039 L 3579.4043 1059.3828 z M 3421.2363 842.90039 L 3579.4043 1001.0684 L 3737.5703 842.90039 L 3421.2363 842.90039 z M 43.533203 1100.6172 L 43.533203 1317.0996 L 260.01562 1100.6172 L 43.533203 1100.6172 z M 260.01562 1100.6172 L 476.49805 1317.0996 L 476.49805 1100.6172 L 260.01562 1100.6172 z M 517.73242 1100.6172 L 517.73242 1317.0996 L 734.21289 1100.6172 L 517.73242 1100.6172 z M 734.21289 1100.6172 L 950.69531 1317.0996 L 950.69531 1100.6172 L 734.21289 1100.6172 z M 991.92969 1100.6172 L 991.92969 1317.0996 L 1208.4121 1100.6172 L 991.92969 1100.6172 z M 1208.4121 1100.6172 L 1424.8945 1317.0996 L 1424.8945 1100.6172 L 1208.4121 1100.6172 z M 1466.1289 1100.6172 L 1466.1289 1317.0996 L 1682.6113 1100.6172 L 1466.1289 1100.6172 z M 1682.6113 1100.6172 L 1899.0918 1317.0996 L 1899.0918 1100.6172 L 1682.6113 1100.6172 z M 1940.3262 1100.6172 L 1940.3262 1317.0996 L 2156.8086 1100.6172 L 1940.3262 1100.6172 z M 2156.8086 1100.6172 L 2373.291 1317.0996 L 2373.291 1100.6172 L 2156.8086 1100.6172 z M 2414.5254 1100.6172 L 2414.5254 1317.0996 L 2631.0078 1100.6172 L 2414.5254 1100.6172 z M 2631.0078 1100.6172 L 2847.4883 1317.0996 L 2847.4883 1100.6172 L 2631.0078 1100.6172 z M 2888.7227 1100.6172 L 2888.7227 1317.0996 L 3105.2051 1100.6172 L 2888.7227 1100.6172 z M 3105.2051 1100.6172 L 3321.6875 1317.0996 L 3321.6875 1100.6172 L 3105.2051 1100.6172 z M 3362.9219 1100.6172 L 3362.9219 1317.0996 L 3579.4043 1100.6172 L 3362.9219 1100.6172 z M 3579.4043 1100.6172 L 3795.8848 1317.0996 L 3795.8848 1100.6172 L 3579.4043 1100.6172 z M 260.01562 1158.9316 L 101.84766 1317.0996 L 418.18359 1317.0996 L 260.01562 1158.9316 z M 734.21289 1158.9316 L 576.04688 1317.0996 L 892.38086 1317.0996 L 734.21289 1158.9316 z M 1208.4121 1158.9316 L 1050.2441 1317.0996 L 1366.5801 1317.0996 L 1208.4121 1158.9316 z M 1682.6113 1158.9316 L 1524.4434 1317.0996 L 1840.7773 1317.0996 L 1682.6113 1158.9316 z M 2156.8086 1158.9316 L 1998.6406 1317.0996 L 2314.9766 1317.0996 L 2156.8086 1158.9316 z M 2631.0078 1158.9316 L 2472.8398 1317.0996 L 2789.1738 1317.0996 L 2631.0078 1158.9316 z M 3105.2051 1158.9316 L 2947.0371 1317.0996 L 3263.373 1317.0996 L 3105.2051 1158.9316 z M 3579.4043 1158.9316 L 3421.2363 1317.0996 L 3737.5703 1317.0996 L 3579.4043 1158.9316 z M 43.533203 1358.334 L 43.533203 1574.8164 L 260.01562 1574.8164 L 43.533203 1358.334 z M 260.01562 1574.8164 L 476.49805 1574.8164 L 476.49805 1358.334 L 260.01562 1574.8164 z M 101.84766 1358.334 L 260.01562 1516.502 L 418.18359 1358.334 L 101.84766 1358.334 z M 517.73242 1358.334 L 517.73242 1574.8164 L 734.21289 1574.8164 L 517.73242 1358.334 z M 734.21289 1574.8164 L 950.69531 1574.8164 L 950.69531 1358.334 L 734.21289 1574.8164 z M 576.04688 1358.334 L 734.21289 1516.502 L 892.38086 1358.334 L 576.04688 1358.334 z M 991.92969 1358.334 L 991.92969 1574.8164 L 1208.4121 1574.8164 L 991.92969 1358.334 z M 1208.4121 1574.8164 L 1424.8945 1574.8164 L 1424.8945 1358.334 L 1208.4121 1574.8164 z M 1050.2441 1358.334 L 1208.4121 1516.502 L 1366.5801 1358.334 L 1050.2441 1358.334 z M 1466.1289 1358.334 L 1466.1289 1574.8164 L 1682.6113 1574.8164 L 1466.1289 1358.334 z M 1682.6113 1574.8164 L 1899.0918 1574.8164 L 1899.0918 1358.334 L 1682.6113 1574.8164 z M 1524.4434 1358.334 L 1682.6113 1516.502 L 1840.7773 1358.334 L 1524.4434 1358.334 z M 1940.3262 1358.334 L 1940.3262 1574.8164 L 2156.8086 1574.8164 L 1940.3262 1358.334 z M 2156.8086 1574.8164 L 2373.291 1574.8164 L 2373.291 1358.334 L 2156.8086 1574.8164 z M 1998.6406 1358.334 L 2156.8086 1516.502 L 2314.9766 1358.334 L 1998.6406 1358.334 z M 2414.5254 1358.334 L 2414.5254 1574.8164 L 2631.0078 1574.8164 L 2414.5254 1358.334 z M 2631.0078 1574.8164 L 2847.4883 1574.8164 L 2847.4883 1358.334 L 2631.0078 1574.8164 z M 2472.8398 1358.334 L 2631.0078 1516.502 L 2789.1738 1358.334 L 2472.8398 1358.334 z M 2888.7227 1358.334 L 2888.7227 1574.8164 L 3105.2051 1574.8164 L 2888.7227 1358.334 z M 3105.2051 1574.8164 L 3321.6875 1574.8164 L 3321.6875 1358.334 L 3105.2051 1574.8164 z M 2947.0371 1358.334 L 3105.2051 1516.502 L 3263.373 1358.334 L 2947.0371 1358.334 z M 3362.9219 1358.334 L 3362.9219 1574.8164 L 3579.4043 1574.8164 L 3362.9219 1358.334 z M 3579.4043 1574.8164 L 3795.8848 1574.8164 L 3795.8848 1358.334 L 3579.4043 1574.8164 z M 3421.2363 1358.334 L 3579.4043 1516.502 L 3737.5703 1358.334 L 3421.2363 1358.334 z M 43.533203 1616.0508 L 43.533203 1832.5332 L 260.01562 1616.0508 L 43.533203 1616.0508 z M 260.01562 1616.0508 L 476.49805 1832.5332 L 476.49805 1616.0508 L 260.01562 1616.0508 z M 517.73242 1616.0508 L 517.73242 1832.5332 L 734.21289 1616.0508 L 517.73242 1616.0508 z M 734.21289 1616.0508 L 950.69531 1832.5332 L 950.69531 1616.0508 L 734.21289 1616.0508 z M 991.92969 1616.0508 L 991.92969 1832.5332 L 1208.4121 1616.0508 L 991.92969 1616.0508 z M 1208.4121 1616.0508 L 1424.8945 1832.5332 L 1424.8945 1616.0508 L 1208.4121 1616.0508 z M 1466.1289 1616.0508 L 1466.1289 1832.5332 L 1682.6113 1616.0508 L 1466.1289 1616.0508 z M 1682.6113 1616.0508 L 1899.0918 1832.5332 L 1899.0918 1616.0508 L 1682.6113 1616.0508 z M 1940.3262 1616.0508 L 1940.3262 1832.5332 L 2156.8086 1616.0508 L 1940.3262 1616.0508 z M 2156.8086 1616.0508 L 2373.291 1832.5332 L 2373.291 1616.0508 L 2156.8086 1616.0508 z M 2414.5254 1616.0508 L 2414.5254 1832.5332 L 2631.0078 1616.0508 L 2414.5254 1616.0508 z M 2631.0078 1616.0508 L 2847.4883 1832.5332 L 2847.4883 1616.0508 L 2631.0078 1616.0508 z M 2888.7227 1616.0508 L 2888.7227 1832.5332 L 3105.2051 1616.0508 L 2888.7227 1616.0508 z M 3105.2051 1616.0508 L 3321.6875 1832.5332 L 3321.6875 1616.0508 L 3105.2051 1616.0508 z M 3362.9219 1616.0508 L 3362.9219 1832.5332 L 3579.4043 1616.0508 L 3362.9219 1616.0508 z M 3579.4043 1616.0508 L 3795.8848 1832.5332 L 3795.8848 1616.0508 L 3579.4043 1616.0508 z M 260.01562 1674.3652 L 101.84766 1832.5332 L 418.18359 1832.5332 L 260.01562 1674.3652 z M 734.21289 1674.3652 L 576.04688 1832.5332 L 892.38086 1832.5332 L 734.21289 1674.3652 z M 1208.4121 1674.3652 L 1050.2441 1832.5332 L 1366.5801 1832.5332 L 1208.4121 1674.3652 z M 1682.6113 1674.3652 L 1524.4434 1832.5332 L 1840.7773 1832.5332 L 1682.6113 1674.3652 z M 2156.8086 1674.3652 L 1998.6406 1832.5332 L 2314.9766 1832.5332 L 2156.8086 1674.3652 z M 2631.0078 1674.3652 L 2472.8398 1832.5332 L 2789.1738 1832.5332 L 2631.0078 1674.3652 z M 3105.2051 1674.3652 L 2947.0371 1832.5332 L 3263.373 1832.5332 L 3105.2051 1674.3652 z M 3579.4043 1674.3652 L 3421.2363 1832.5332 L 3737.5703 1832.5332 L 3579.4043 1674.3652 z M 43.533203 1873.7676 L 43.533203 2090.248 L 260.01562 2090.248 L 43.533203 1873.7676 z M 260.01562 2090.248 L 476.49805 2090.248 L 476.49805 1873.7676 L 260.01562 2090.248 z M 101.84766 1873.7676 L 260.01562 2031.9336 L 418.18359 1873.7676 L 101.84766 1873.7676 z M 517.73242 1873.7676 L 517.73242 2090.248 L 734.21289 2090.248 L 517.73242 1873.7676 z M 734.21289 2090.248 L 950.69531 2090.248 L 950.69531 1873.7676 L 734.21289 2090.248 z M 576.04688 1873.7676 L 734.21289 2031.9336 L 892.38086 1873.7676 L 576.04688 1873.7676 z M 991.92969 1873.7676 L 991.92969 2090.248 L 1208.4121 2090.248 L 991.92969 1873.7676 z M 1208.4121 2090.248 L 1424.8945 2090.248 L 1424.8945 1873.7676 L 1208.4121 2090.248 z M 1050.2441 1873.7676 L 1208.4121 2031.9336 L 1366.5801 1873.7676 L 1050.2441 1873.7676 z M 1466.1289 1873.7676 L 1466.1289 2090.248 L 1682.6113 2090.248 L 1466.1289 1873.7676 z M 1682.6113 2090.248 L 1899.0918 2090.248 L 1899.0918 1873.7676 L 1682.6113 2090.248 z M 1524.4434 1873.7676 L 1682.6113 2031.9336 L 1840.7773 1873.7676 L 1524.4434 1873.7676 z M 1940.3262 1873.7676 L 1940.3262 2090.248 L 2156.8086 2090.248 L 1940.3262 1873.7676 z M 2156.8086 2090.248 L 2373.291 2090.248 L 2373.291 1873.7676 L 2156.8086 2090.248 z M 1998.6406 1873.7676 L 2156.8086 2031.9336 L 2314.9766 1873.7676 L 1998.6406 1873.7676 z M 2414.5254 1873.7676 L 2414.5254 2090.248 L 2631.0078 2090.248 L 2414.5254 1873.7676 z M 2631.0078 2090.248 L 2847.4883 2090.248 L 2847.4883 1873.7676 L 2631.0078 2090.248 z M 2472.8398 1873.7676 L 2631.0078 2031.9336 L 2789.1738 1873.7676 L 2472.8398 1873.7676 z M 2888.7227 1873.7676 L 2888.7227 2090.248 L 3105.2051 2090.248 L 2888.7227 1873.7676 z M 3105.2051 2090.248 L 3321.6875 2090.248 L 3321.6875 1873.7676 L 3105.2051 2090.248 z M 2947.0371 1873.7676 L 3105.2051 2031.9336 L 3263.373 1873.7676 L 2947.0371 1873.7676 z M 3362.9219 1873.7676 L 3362.9219 2090.248 L 3579.4043 2090.248 L 3362.9219 1873.7676 z M 3579.4043 2090.248 L 3795.8848 2090.248 L 3795.8848 1873.7676 L 3579.4043 2090.248 z M 3421.2363 1873.7676 L 3579.4043 2031.9336 L 3737.5703 1873.7676 L 3421.2363 1873.7676 z "
         style="opacity:1;fill:#ff9800;fill-opacity:1;fill-rule:nonzero;stroke:none;stroke-width:3.7795279;stroke-linecap:round;stroke-linejoin:miter;stroke-miterlimit:4;stroke-dasharray:none;stroke-dashoffset:0;stroke-opacity:1;paint-order:normal" />
      <path
         inkscape:connector-curvature="0"
         id="use8933"
         d="m -227.10499,123.601 a 0.03778599,0.03778599 0 0 0 -0.0378,0.0384 0.03778599,0.03778599 0 0 0 0.0378,0.0376 0.03778599,0.03778599 0 0 0 0.0378,-0.0376 0.03778599,0.03778599 0 0 0 -0.0378,-0.0384 z m 19.27084,0 a 0.03778599,0.03778599 0 0 0 -0.0378,0.0384 0.03778599,0.03778599 0 0 0 0.0378,0.0376 0.03778599,0.03778599 0 0 0 0.0378,-0.0376 0.03778599,0.03778599 0 0 0 -0.0378,-0.0384 z m -19.27084,16.85295 a 2.4560885,2.4560885 0 0 0 -2.45626,2.45629 2.4560885,2.4560885 0 0 0 2.45626,2.45552 2.4560885,2.4560885 0 0 0 2.4563,-2.45552 2.4560885,2.4560885 0 0 0 -2.4563,-2.45629 z m 19.27084,0.49081 a 1.9648706,1.9648706 0 0 0 -1.9647,1.96548 1.9648706,1.9648706 0 0 0 1.9647,1.96472 1.9648706,1.9648706 0 0 0 1.96474,-1.96472 1.9648706,1.9648706 0 0 0 -1.96474,-1.96548 z m -154.16677,1.66286 a 0.30228781,0.30228781 0 0 0 -0.30263,0.30262 0.30228781,0.30228781 0 0 0 0.30263,0.30185 0.30228781,0.30228781 0 0 0 0.30186,-0.30185 0.30228781,0.30228781 0 0 0 -0.30186,-0.30262 z m 96.35423,0 a 0.30228781,0.30228781 0 0 0 -0.30263,0.30262 0.30228781,0.30228781 0 0 0 0.30263,0.30185 0.30228781,0.30228781 0 0 0 0.30186,-0.30185 0.30228781,0.30228781 0 0 0 -0.30186,-0.30262 z m -77.08338,0.0753 a 0.22671583,0.22671583 0 0 0 -0.22659,0.22734 0.22671583,0.22671583 0 0 0 0.22659,0.22658 0.22671583,0.22671583 0 0 0 0.22658,-0.22658 0.22671583,0.22671583 0 0 0 -0.22658,-0.22734 z m 96.35423,0 a 0.22671583,0.22671583 0 0 0 -0.22659,0.22734 0.22671583,0.22671583 0 0 0 0.22659,0.22658 0.22671583,0.22671583 0 0 0 0.22659,-0.22658 0.22671583,0.22671583 0 0 0 -0.22659,-0.22734 z m -38.55526,0.0384 a 0.18892984,0.18892984 0 0 0 -0.17536,0.18894 0.18892984,0.18892984 0 0 0 0.18893,0.18895 0.18892984,0.18892984 0 0 0 0.18893,-0.18895 0.18892984,0.18892984 0 0 0 -0.18893,-0.18894 0.18892984,0.18892984 0 0 0 -0.0135,0 z m -96.34066,0.15055 a 0.03778599,0.03778599 0 0 0 -0.0377,0.0384 0.03778599,0.03778599 0 0 0 0.0377,0.0376 0.03778599,0.03778599 0 0 0 0.0376,-0.0376 0.03778599,0.03778599 0 0 0 -0.0376,-0.0384 z m 192.70846,0 a 0.03778599,0.03778599 0 0 0 -0.0378,0.0384 0.03778599,0.03778599 0 0 0 0.0378,0.0376 0.03778599,0.03778599 0 0 0 0.0378,-0.0376 0.03778599,0.03778599 0 0 0 -0.0378,-0.0384 z m -38.54169,12.39432 a 6.9148334,6.9148334 0 0 0 -6.91492,6.91492 6.9148334,6.9148334 0 0 0 6.91492,6.91417 6.9148334,6.9148334 0 0 0 6.91492,-6.91417 6.9148334,6.9148334 0 0 0 -6.91492,-6.91492 z m 19.27084,1.36025 a 5.5545386,5.5545386 0 0 0 -5.55466,5.55467 5.5545386,5.5545386 0 0 0 5.55466,5.55391 5.5545386,5.5545386 0 0 0 5.55467,-5.55391 5.5545386,5.5545386 0 0 0 -5.55467,-5.55467 z m -57.81254,0.67975 a 4.874391,4.874391 0 0 0 -4.87417,4.87492 4.874391,4.874391 0 0 0 4.87417,4.87417 4.874391,4.874391 0 0 0 4.87418,-4.87417 4.874391,4.874391 0 0 0 -4.87418,-4.87492 z m -96.35423,0.30261 a 4.5721031,4.5721031 0 0 0 -4.57232,4.57231 4.5721031,4.5721031 0 0 0 4.57232,4.57156 4.5721031,4.5721031 0 0 0 4.57232,-4.57156 4.5721031,4.5721031 0 0 0 -4.57232,-4.57231 z m 19.27085,1.1713 a 3.4007378,3.4007378 0 0 0 -3.401,3.40101 3.4007378,3.4007378 0 0 0 3.401,3.40025 3.4007378,3.4007378 0 0 0 3.40099,-3.40025 3.4007378,3.4007378 0 0 0 -3.40099,-3.40101 z m 57.81254,0.45317 a 2.9473061,2.9473061 0 0 0 -2.94709,2.94784 2.9473061,2.9473061 0 0 0 2.94709,2.94708 2.9473061,2.9473061 0 0 0 2.94709,-2.94708 2.9473061,2.9473061 0 0 0 -2.94709,-2.94784 z m 481.77116,1.73814 a 1.2091513,1.2091513 0 0 0 -1.20894,1.2097 1.2091513,1.2091513 0 0 0 1.20894,1.20894 1.2091513,1.2091513 0 0 0 1.20894,-1.20894 1.2091513,1.2091513 0 0 0 -1.20894,-1.2097 z m -443.22947,0.076 a 1.1335793,1.1335793 0 0 0 -1.13366,1.13367 1.1335793,1.1335793 0 0 0 1.13366,1.13291 1.1335793,1.1335793 0 0 0 1.13367,-1.13291 1.1335793,1.1335793 0 0 0 -1.13367,-1.13367 z m -134.89592,0.75578 a 0.37785977,0.37785977 0 0 0 -0.37789,0.37789 0.37785977,0.37785977 0 0 0 0.37789,0.37789 0.37785977,0.37785977 0 0 0 0.37789,-0.37789 0.37785977,0.37785977 0 0 0 -0.37789,-0.37789 z m 597.39624,0 a 0.37785977,0.37785977 0 0 0 -0.3779,0.37789 0.37785977,0.37785977 0 0 0 0.3779,0.37789 0.37785977,0.37785977 0 0 0 0.3779,-0.37789 0.37785977,0.37785977 0 0 0 -0.3779,-0.37789 z m -38.5417,0.0753 a 0.30228781,0.30228781 0 0 0 -0.30263,0.30262 0.30228781,0.30228781 0 0 0 0.30263,0.30186 0.30228781,0.30228781 0 0 0 0.30186,-0.30186 0.30228781,0.30228781 0 0 0 -0.30186,-0.30262 z m -366.15965,0.11367 a 0.18892984,0.18892984 0 0 0 -0.17536,0.18895 0.18892984,0.18892984 0 0 0 0.18893,0.18894 0.18892984,0.18892984 0 0 0 0.18893,-0.18894 0.18892984,0.18892984 0 0 0 -0.18893,-0.18895 0.18892984,0.18892984 0 0 0 -0.0135,0 z m -134.88764,0.11292 a 0.07557197,0.07557197 0 0 0 -0.0708,0.076 0.07557197,0.07557197 0 0 0 0.076,0.0753 0.07557197,0.07557197 0 0 0 0.0753,-0.0753 0.07557197,0.07557197 0 0 0 -0.0753,-0.076 0.07557197,0.07557197 0 0 0 -0.005,0 z m 19.27613,0.0376 a 0.03778599,0.03778599 0 0 0 -0.0378,0.0384 0.03778599,0.03778599 0 0 0 0.0378,0.0376 0.03778599,0.03778599 0 0 0 0.0378,-0.0376 0.03778599,0.03778599 0 0 0 -0.0378,-0.0384 z m 38.54169,11.37356 a 7.9350551,7.9350551 0 0 0 -7.93492,7.93568 7.9350551,7.9350551 0 0 0 7.93492,7.93492 7.9350551,7.9350551 0 0 0 7.93493,-7.93492 7.9350551,7.9350551 0 0 0 -7.93493,-7.93568 z m -96.35423,0.49156 a 7.4438374,7.4438374 0 0 0 -7.4441,7.44412 7.4438374,7.4438374 0 0 0 7.4441,7.44337 7.4438374,7.4438374 0 0 0 7.44414,-7.44337 7.4438374,7.4438374 0 0 0 -7.44414,-7.44412 z m 134.89593,0.11367 a 7.3304789,7.3304789 0 0 0 -7.33044,7.33045 7.3304789,7.3304789 0 0 0 7.33044,7.33045 7.3304789,7.3304789 0 0 0 7.33043,-7.33045 7.3304789,7.3304789 0 0 0 -7.33043,-7.33045 z m 423.95862,0.18894 a 7.1415491,7.1415491 0 0 0 -7.14151,7.14151 7.1415491,7.1415491 0 0 0 7.14151,7.1415 7.1415491,7.1415491 0 0 0 7.14151,-7.1415 7.1415491,7.1415491 0 0 0 -7.14151,-7.14151 z m -404.68778,1.28423 a 5.8568265,5.8568265 0 0 0 -5.85729,5.85728 5.8568265,5.8568265 0 0 0 5.85729,5.85653 5.8568265,5.8568265 0 0 0 5.85653,-5.85653 5.8568265,5.8568265 0 0 0 -5.85653,-5.85728 z m -134.89592,0.26497 a 5.5923241,5.5923241 0 0 0 -5.59232,5.59231 5.5923241,5.5923241 0 0 0 5.59232,5.59231 5.5923241,5.5923241 0 0 0 5.59232,-5.59231 5.5923241,5.5923241 0 0 0 -5.59232,-5.59231 z m 57.81254,0.75503 a 4.8366051,4.8366051 0 0 0 -4.83652,4.83728 4.8366051,4.8366051 0 0 0 4.83652,4.83653 4.8366051,4.8366051 0 0 0 4.83652,-4.83653 4.8366051,4.8366051 0 0 0 -4.83652,-4.83728 z m 501.04201,2.41864 a 2.4183025,2.4183025 0 0 0 -2.41865,2.41864 2.4183025,2.4183025 0 0 0 2.41865,2.41789 2.4183025,2.4183025 0 0 0 2.41787,-2.41789 2.4183025,2.4183025 0 0 0 -2.41787,-2.41864 z m -38.5417,0.49156 a 1.9270848,1.9270848 0 0 0 -1.92708,1.92708 1.9270848,1.9270848 0 0 0 1.92708,1.92709 1.9270848,1.9270848 0 0 0 1.92709,-1.92709 1.9270848,1.9270848 0 0 0 -1.92709,-1.92708 z m -423.95862,0.37789 a 1.5492249,1.5492249 0 0 0 -1.54918,1.54919 1.5492249,1.5492249 0 0 0 1.54918,1.5492 1.5492249,1.5492249 0 0 0 1.54918,-1.5492 1.5492249,1.5492249 0 0 0 -1.54918,-1.54919 z m -134.89592,0.90633 a 0.6423616,0.6423616 0 0 0 -0.64211,0.64286 0.6423616,0.6423616 0 0 0 0.64211,0.64211 0.6423616,0.6423616 0 0 0 0.64211,-0.64211 0.6423616,0.6423616 0 0 0 -0.64211,-0.64286 z m 192.69489,0.45391 a 0.18892984,0.18892984 0 0 0 -0.17536,0.18895 0.18892984,0.18892984 0 0 0 0.18893,0.18894 0.18892984,0.18892984 0 0 0 0.18893,-0.18894 0.18892984,0.18892984 0 0 0 -0.18893,-0.18895 0.18892984,0.18892984 0 0 0 -0.0135,0 z m -134.89288,0.0377 a 0.15114395,0.15114395 0 0 0 -0.14079,0.15131 0.15114395,0.15114395 0 0 0 0.15131,0.15055 0.15114395,0.15114395 0 0 0 0.15132,-0.15055 0.15114395,0.15114395 0 0 0 -0.15132,-0.15131 0.15114395,0.15114395 0 0 0 -0.0104,0 z m 443.23171,0.0377 a 0.11335796,0.11335796 0 0 0 -0.10538,0.11367 0.11335796,0.11335796 0 0 0 0.11366,0.11292 0.11335796,0.11335796 0 0 0 0.11293,-0.11292 0.11335796,0.11335796 0 0 0 -0.11293,-0.11367 0.11335796,0.11335796 0 0 0 -0.008,0 z m -423.95562,0.0377 a 0.07557197,0.07557197 0 0 0 -0.0708,0.076 0.07557197,0.07557197 0 0 0 0.076,0.0753 0.07557197,0.07557197 0 0 0 0.0753,-0.0753 0.07557197,0.07557197 0 0 0 -0.0753,-0.076 0.07557197,0.07557197 0 0 0 -0.005,0 z m 404.68778,0 a 0.07557197,0.07557197 0 0 0 -0.07,0.076 0.07557197,0.07557197 0 0 0 0.0753,0.0753 0.07557197,0.07557197 0 0 0 0.0753,-0.0753 0.07557197,0.07557197 0 0 0 -0.0753,-0.076 0.07557197,0.07557197 0 0 0 -0.005,0 z m -269.78657,0.0377 a 0.03778599,0.03778599 0 0 0 -0.0378,0.0384 0.03778599,0.03778599 0 0 0 0.0378,0.0376 0.03778599,0.03778599 0 0 0 0.0378,-0.0376 0.03778599,0.03778599 0 0 0 -0.0378,-0.0384 z m 57.81254,0 a 0.03778599,0.03778599 0 0 0 -0.0378,0.0384 0.03778599,0.03778599 0 0 0 0.0378,0.0376 0.03778599,0.03778599 0 0 0 0.0378,-0.0376 0.03778599,0.03778599 0 0 0 -0.0378,-0.0384 z m 19.270838,0 a 0.03778599,0.03778599 0 0 0 -0.03777,0.0384 0.03778599,0.03778599 0 0 0 0.03777,0.0376 0.03778599,0.03778599 0 0 0 0.03777,-0.0376 0.03778599,0.03778599 0 0 0 -0.03777,-0.0384 z m 19.270846,0 a 0.03778599,0.03778599 0 0 0 -0.03777,0.0384 0.03778599,0.03778599 0 0 0 0.03777,0.0376 0.03778599,0.03778599 0 0 0 0.03777,-0.0376 0.03778599,0.03778599 0 0 0 -0.03777,-0.0384 z m 19.270847,0 a 0.03778599,0.03778599 0 0 0 -0.03777,0.0384 0.03778599,0.03778599 0 0 0 0.03777,0.0376 0.03778599,0.03778599 0 0 0 0.03777,-0.0376 0.03778599,0.03778599 0 0 0 -0.03777,-0.0384 z m 38.541693,0 a 0.03778599,0.03778599 0 0 0 -0.03777,0.0384 0.03778599,0.03778599 0 0 0 0.03777,0.0376 0.03778599,0.03778599 0 0 0 0.03777,-0.0376 0.03778599,0.03778599 0 0 0 -0.03777,-0.0384 z m 57.812539,0 a 0.03778599,0.03778599 0 0 0 -0.03777,0.0384 0.03778599,0.03778599 0 0 0 0.03777,0.0376 0.03778599,0.03778599 0 0 0 0.03777,-0.0376 0.03778599,0.03778599 0 0 0 -0.03777,-0.0384 z m 96.354237,0 a 0.03778599,0.03778599 0 0 0 -0.0378,0.0384 0.03778599,0.03778599 0 0 0 0.0378,0.0376 0.03778599,0.03778599 0 0 0 0.0378,-0.0376 0.03778599,0.03778599 0 0 0 -0.0378,-0.0384 z m 96.35423,0 a 0.03778599,0.03778599 0 0 0 -0.0378,0.0384 0.03778599,0.03778599 0 0 0 0.0378,0.0376 0.03778599,0.03778599 0 0 0 0.0378,-0.0376 0.03778599,0.03778599 0 0 0 -0.0378,-0.0384 z m 19.27085,0 a 0.03778599,0.03778599 0 0 0 -0.0378,0.0384 0.03778599,0.03778599 0 0 0 0.0378,0.0376 0.03778599,0.03778599 0 0 0 0.0378,-0.0376 0.03778599,0.03778599 0 0 0 -0.0378,-0.0384 z m 19.27085,0 a 0.03778599,0.03778599 0 0 0 -0.0378,0.0384 0.03778599,0.03778599 0 0 0 0.0378,0.0376 0.03778599,0.03778599 0 0 0 0.0378,-0.0376 0.03778599,0.03778599 0 0 0 -0.0378,-0.0384 z m 38.54169,0 a 0.03778599,0.03778599 0 0 0 -0.0378,0.0384 0.03778599,0.03778599 0 0 0 0.0378,0.0376 0.03778599,0.03778599 0 0 0 0.0378,-0.0376 0.03778599,0.03778599 0 0 0 -0.0378,-0.0384 z m 19.27085,0 a 0.03778599,0.03778599 0 0 0 -0.0378,0.0384 0.03778599,0.03778599 0 0 0 0.0378,0.0376 0.03778599,0.03778599 0 0 0 0.0378,-0.0376 0.03778599,0.03778599 0 0 0 -0.0378,-0.0384 z M 196.85363,191.7297 a 8.993062,8.993062 0 0 0 -8.99332,8.99331 8.993062,8.993062 0 0 0 8.99332,8.99255 8.993062,8.993062 0 0 0 8.99332,-8.99255 8.993062,8.993062 0 0 0 -8.99332,-8.99331 z m -462.50032,0.98236 a 8.0106265,8.0106265 0 0 0 -8.01096,8.01095 8.0106265,8.0106265 0 0 0 8.01096,8.0102 8.0106265,8.0106265 0 0 0 8.0102,-8.0102 8.0106265,8.0106265 0 0 0 -8.0102,-8.01095 z m -96.35423,0.49156 a 7.5194091,7.5194091 0 0 0 -7.51941,7.51939 7.5194091,7.5194091 0 0 0 7.51941,7.51939 7.5194091,7.5194091 0 0 0 7.51941,-7.51939 7.5194091,7.5194091 0 0 0 -7.51941,-7.51939 z m 134.89593,0.18894 a 7.3304789,7.3304789 0 0 0 -7.33044,7.33045 7.3304789,7.3304789 0 0 0 7.33044,7.33045 7.3304789,7.3304789 0 0 0 7.33043,-7.33045 7.3304789,7.3304789 0 0 0 -7.33043,-7.33045 z m 19.27084,1.47317 a 5.8568265,5.8568265 0 0 0 -5.85729,5.85728 5.8568265,5.8568265 0 0 0 5.85729,5.85653 5.8568265,5.8568265 0 0 0 5.85653,-5.85653 5.8568265,5.8568265 0 0 0 -5.85653,-5.85728 z m -134.89592,0.22658 a 5.6301104,5.6301104 0 0 0 -5.62994,5.6307 5.6301104,5.6301104 0 0 0 5.62994,5.62995 5.6301104,5.6301104 0 0 0 5.62994,-5.62995 5.6301104,5.6301104 0 0 0 -5.62994,-5.6307 z m 558.85455,0.5292 a 5.1011068,5.1011068 0 0 0 -5.1015,5.1015 5.1011068,5.1011068 0 0 0 5.1015,5.10075 5.1011068,5.1011068 0 0 0 5.10076,-5.10075 5.1011068,5.1011068 0 0 0 -5.10076,-5.1015 z m -501.04201,0.22658 a 4.874391,4.874391 0 0 0 -4.87418,4.87492 4.874391,4.874391 0 0 0 4.87418,4.87417 4.874391,4.874391 0 0 0 4.87417,-4.87417 4.874391,4.874391 0 0 0 -4.87417,-4.87492 z m 462.50031,0.49156 a 4.3831729,4.3831729 0 0 0 -4.38334,4.38336 4.3831729,4.3831729 0 0 0 4.38334,4.38261 4.3831729,4.3831729 0 0 0 4.38339,-4.38261 4.3831729,4.3831729 0 0 0 -4.38339,-4.38336 z m -57.81254,0.41553 a 3.9675274,3.9675274 0 0 0 -3.96782,3.96783 3.9675274,3.9675274 0 0 0 3.96782,3.96709 3.9675274,3.9675274 0 0 0 3.9671,-3.96709 3.9675274,3.9675274 0 0 0 -3.9671,-3.96783 z m -19.27084,0.6805 a 3.2873799,3.2873799 0 0 0 -3.287344,3.28733 3.2873799,3.2873799 0 0 0 3.287344,3.28734 3.2873799,3.2873799 0 0 0 3.28733,-3.28734 3.2873799,3.2873799 0 0 0 -3.28733,-3.28733 z m -269.79185,0.18894 a 3.0984499,3.0984499 0 0 0 -3.09841,3.09839 3.0984499,3.0984499 0 0 0 3.09841,3.09839 3.0984499,3.0984499 0 0 0 3.0984,-3.09839 3.0984499,3.0984499 0 0 0 -3.0984,-3.09839 z m 211.979303,0.0753 a 3.0228782,3.0228782 0 0 0 -3.023095,3.02311 3.0228782,3.0228782 0 0 0 3.023095,3.02236 3.0228782,3.0228782 0 0 0 3.023133,-3.02236 3.0228782,3.0228782 0 0 0 -3.023133,-3.02311 z m -154.166763,0.11291 a 2.9095203,2.9095203 0 0 0 -2.90944,2.9102 2.9095203,2.9095203 0 0 0 2.90944,2.90945 2.9095203,2.9095203 0 0 0 2.90943,-2.90945 2.9095203,2.9095203 0 0 0 -2.90943,-2.9102 z m 366.14608,0.0384 a 2.8717342,2.8717342 0 0 0 -2.87182,2.87181 2.8717342,2.8717342 0 0 0 2.87182,2.87181 2.8717342,2.8717342 0 0 0 2.87182,-2.87181 2.8717342,2.8717342 0 0 0 -2.87182,-2.87181 z m -327.604396,0.37789 a 2.4938744,2.4938744 0 0 0 -2.493917,2.49392 2.4938744,2.4938744 0 0 0 2.493917,2.49392 2.4938744,2.4938744 0 0 0 2.493917,-2.49392 2.4938744,2.4938744 0 0 0 -2.493917,-2.49392 z m 57.81254,0.0377 a 2.4560885,2.4560885 0 0 0 -2.456262,2.45628 2.4560885,2.4560885 0 0 0 2.456262,2.45553 2.4560885,2.4560885 0 0 0 2.4563,-2.45553 2.4560885,2.4560885 0 0 0 -2.4563,-2.45628 z m 327.604396,0.0753 a 2.3805163,2.3805163 0 0 0 -2.38026,2.381 2.3805163,2.3805163 0 0 0 2.38026,2.38025 2.3805163,2.3805163 0 0 0 2.38026,-2.38025 2.3805163,2.3805163 0 0 0 -2.38026,-2.381 z m 19.27085,0.076 a 2.3049444,2.3049444 0 0 0 -2.30499,2.30497 2.3049444,2.3049444 0 0 0 2.30499,2.30498 2.3049444,2.3049444 0 0 0 2.30498,-2.30498 2.3049444,2.3049444 0 0 0 -2.30498,-2.30497 z m -385.416939,0.26422 a 2.0404427,2.0404427 0 0 0 -2.040744,2.04075 2.0404427,2.0404427 0 0 0 2.040744,2.04 2.0404427,2.0404427 0 0 0 2.040011,-2.04 2.0404427,2.0404427 0 0 0 -2.040011,-2.04075 z m 192.708469,0 a 2.0404427,2.0404427 0 0 0 -2.04074,2.04075 2.0404427,2.0404427 0 0 0 2.04074,2.04 2.0404427,2.0404427 0 0 0 2.04001,-2.04 2.0404427,2.0404427 0 0 0 -2.04001,-2.04075 z m -231.250162,0.26422 a 1.7759408,1.7759408 0 0 0 -1.77577,1.77653 1.7759408,1.7759408 0 0 0 1.77577,1.77578 1.7759408,1.7759408 0 0 0 1.77577,-1.77578 1.7759408,1.7759408 0 0 0 -1.77577,-1.77653 z m 366.146092,0.15131 a 1.624797,1.624797 0 0 0 -1.62523,1.62522 1.624797,1.624797 0 0 0 1.62523,1.62447 1.624797,1.624797 0 0 0 1.62445,-1.62447 1.624797,1.624797 0 0 0 -1.62445,-1.62522 z m -520.31286,0.0377 a 1.587011,1.587011 0 0 0 -1.58684,1.58759 1.587011,1.587011 0 0 0 1.58684,1.58683 1.587011,1.587011 0 0 0 1.58684,-1.58683 1.587011,1.587011 0 0 0 -1.58684,-1.58759 z m 481.77116,0.41553 a 1.1713652,1.1713652 0 0 0 -1.17132,1.17206 1.1713652,1.1713652 0 0 0 1.17132,1.1713 1.1713652,1.1713652 0 0 0 1.17132,-1.1713 1.1713652,1.1713652 0 0 0 -1.17132,-1.17206 z M 4.1451604,199.5895 a 1.1335793,1.1335793 0 0 0 -1.1336653,1.13367 1.1335793,1.1335793 0 0 0 1.1336653,1.13291 1.1335793,1.1335793 0 0 0 1.1336654,-1.13291 1.1335793,1.1335793 0 0 0 -1.1336654,-1.13367 z M -188.5633,199.6271 a 1.0957932,1.0957932 0 0 0 -1.09601,1.09603 1.0957932,1.0957932 0 0 0 1.09601,1.09528 1.0957932,1.0957932 0 0 0 1.09605,-1.09528 1.0957932,1.0957932 0 0 0 -1.09605,-1.09603 z m 250.521,0.0376 a 1.0580073,1.0580073 0 0 0 -1.058394,1.05839 1.0580073,1.0580073 0 0 0 1.058394,1.05764 1.0580073,1.0580073 0 0 0 1.057622,-1.05764 1.0580073,1.0580073 0 0 0 -1.057622,-1.05839 z m -211.97931,0.11367 a 0.94464938,0.94464938 0 0 0 -0.94473,0.94472 0.94464938,0.94464938 0 0 0 0.94473,0.94472 0.94464938,0.94464938 0 0 0 0.94474,-0.94472 0.94464938,0.94464938 0 0 0 -0.94474,-0.94472 z m 231.250156,0.11291 a 0.83129144,0.83129144 0 0 0 -0.831036,0.83181 0.83129144,0.83129144 0 0 0 0.831036,0.83106 0.83129144,0.83129144 0 0 0 0.831075,-0.83106 0.83129144,0.83129144 0 0 0 -0.831075,-0.83181 z m -57.812539,0.15131 a 0.68014757,0.68014757 0 0 0 -0.680492,0.6805 0.68014757,0.68014757 0 0 0 0.680492,0.67975 0.68014757,0.68014757 0 0 0 0.679759,-0.67975 0.68014757,0.68014757 0 0 0 -0.679759,-0.6805 z m -404.687767,0.0376 a 0.6423616,0.6423616 0 0 0 -0.64211,0.64287 0.6423616,0.6423616 0 0 0 0.64211,0.64211 0.6423616,0.6423616 0 0 0 0.64211,-0.64211 0.6423616,0.6423616 0 0 0 -0.64211,-0.64287 z m 539.5837,0.11367 a 0.52900366,0.52900366 0 0 0 -0.52918,0.5292 0.52900366,0.52900366 0 0 0 0.52918,0.52844 0.52900366,0.52900366 0 0 0 0.52921,-0.52844 0.52900366,0.52900366 0 0 0 -0.52921,-0.5292 z m -289.0627,0.15131 a 0.37785977,0.37785977 0 0 0 -0.3779,0.37789 0.37785977,0.37785977 0 0 0 0.3779,0.37789 0.37785977,0.37785977 0 0 0 0.3779,-0.37789 0.37785977,0.37785977 0 0 0 -0.3779,-0.37789 z m 96.354227,0.11291 a 0.26450182,0.26450182 0 0 0 -0.264203,0.26498 0.26450182,0.26450182 0 0 0 0.264203,0.26422 0.26450182,0.26450182 0 0 0 0.264242,-0.26422 0.26450182,0.26450182 0 0 0 -0.264242,-0.26498 z m -289.073217,0.11367 a 0.15114395,0.15114395 0 0 0 -0.14079,0.15131 0.15114395,0.15114395 0 0 0 0.15131,0.15055 0.15114395,0.15114395 0 0 0 0.15132,-0.15055 0.15114395,0.15114395 0 0 0 -0.15132,-0.15131 0.15114395,0.15114395 0 0 0 -0.0104,0 z m 616.66709,0 a 0.15114395,0.15114395 0 0 0 -0.14079,0.15131 0.15114395,0.15114395 0 0 0 0.15131,0.15055 0.15114395,0.15114395 0 0 0 0.15132,-0.15055 0.15114395,0.15114395 0 0 0 -0.15132,-0.15131 0.15114395,0.15114395 0 0 0 -0.0104,0 z m 57.81478,0.0377 a 0.11335796,0.11335796 0 0 0 -0.10538,0.11366 0.11335796,0.11335796 0 0 0 0.11366,0.11292 0.11335796,0.11335796 0 0 0 0.11293,-0.11292 0.11335796,0.11335796 0 0 0 -0.11293,-0.11366 0.11335796,0.11335796 0 0 0 -0.008,0 z m -655.20578,0.0376 a 0.07557197,0.07557197 0 0 0 -0.0708,0.076 0.07557197,0.07557197 0 0 0 0.076,0.0753 0.07557197,0.07557197 0 0 0 0.0753,-0.0753 0.07557197,0.07557197 0 0 0 -0.0753,-0.076 0.07557197,0.07557197 0 0 0 -0.005,0 z m 501.04729,9.93805 a 9.4087075,9.4087075 0 0 0 -9.40884,9.40883 9.4087075,9.4087075 0 0 0 9.40884,9.40807 9.4087075,9.4087075 0 0 0 9.40884,-9.40807 9.4087075,9.4087075 0 0 0 -9.40884,-9.40883 z m -366.14608,1.13366 a 8.2751285,8.2751285 0 0 0 -8.27517,8.27517 8.2751285,8.2751285 0 0 0 8.27517,8.27517 8.2751285,8.2751285 0 0 0 8.27517,-8.27517 8.2751285,8.2751285 0 0 0 -8.27517,-8.27517 z m 269.79185,0.11293 a 8.1617708,8.1617708 0 0 0 -8.161519,8.16224 8.1617708,8.1617708 0 0 0 8.161519,8.16151 8.1617708,8.1617708 0 0 0 8.16151,-8.16151 8.1617708,8.1617708 0 0 0 -8.16151,-8.16224 z m -366.14609,0.15127 a 8.0106265,8.0106265 0 0 0 -8.01096,8.01097 8.0106265,8.0106265 0 0 0 8.01096,8.0102 8.0106265,8.0106265 0 0 0 8.0102,-8.0102 8.0106265,8.0106265 0 0 0 -8.0102,-8.01097 z m 308.333543,0 a 8.0106265,8.0106265 0 0 0 -8.010968,8.01097 8.0106265,8.0106265 0 0 0 8.010968,8.0102 8.0106265,8.0106265 0 0 0 8.010197,-8.0102 8.0106265,8.0106265 0 0 0 -8.010197,-8.01097 z m 77.083387,0.1137 a 7.8972692,7.8972692 0 0 0 -7.89727,7.89727 7.8972692,7.8972692 0 0 0 7.89727,7.89727 7.8972692,7.8972692 0 0 0 7.89727,-7.89727 7.8972692,7.8972692 0 0 0 -7.89727,-7.89727 z m -231.25015,0.15055 a 7.7461249,7.7461249 0 0 0 -7.74596,7.74672 7.7461249,7.7461249 0 0 0 7.74596,7.74596 7.7461249,7.7461249 0 0 0 7.74599,-7.74596 7.7461249,7.7461249 0 0 0 -7.74599,-7.74672 z m 366.14608,0 a 7.7461249,7.7461249 0 0 0 -7.74596,7.74672 7.7461249,7.7461249 0 0 0 7.74596,7.74596 7.7461249,7.7461249 0 0 0 7.74599,-7.74596 7.7461249,7.7461249 0 0 0 -7.74599,-7.74672 z m -115.62508,0.076 a 7.6705531,7.6705531 0 0 0 -7.67068,7.67072 7.6705531,7.6705531 0 0 0 7.67068,7.66995 7.6705531,7.6705531 0 0 0 7.67072,-7.66995 7.6705531,7.6705531 0 0 0 -7.67072,-7.67072 z m 77.08339,0.0378 a 7.6327672,7.6327672 0 0 0 -7.63307,7.63307 7.6327672,7.6327672 0 0 0 7.63307,7.63229 7.6327672,7.6327672 0 0 0 7.63229,-7.63229 7.6327672,7.6327672 0 0 0 -7.63229,-7.63333 z m -578.1254,0.11366 a 7.5194091,7.5194091 0 0 0 -7.51941,7.51941 7.5194091,7.5194091 0 0 0 7.51941,7.51941 7.5194091,7.5194091 0 0 0 7.51941,-7.51941 7.5194091,7.5194091 0 0 0 -7.51941,-7.51941 z m 346.875234,0.0378 a 7.4816233,7.4816233 0 0 0 -7.481752,7.48175 7.4816233,7.4816233 0 0 0 7.481752,7.48098 7.4816233,7.4816233 0 0 0 7.4817519,-7.48098 7.4816233,7.4816233 0 0 0 -7.4817519,-7.48175 z m -211.979304,0.1511 a 7.3304789,7.3304789 0 0 0 -7.33044,7.33043 7.3304789,7.3304789 0 0 0 7.33044,7.33044 7.3304789,7.3304789 0 0 0 7.33043,-7.33044 7.3304789,7.3304789 0 0 0 -7.33043,-7.33043 z m 404.68777,0.49079 a 6.8392616,6.8392616 0 0 0 -6.83964,6.83964 6.8392616,6.8392616 0 0 0 6.83964,6.83888 6.8392616,6.8392616 0 0 0 6.83888,-6.83888 6.8392616,6.8392616 0 0 0 -6.83888,-6.83964 z m 134.89593,0.45317 a 6.3858297,6.3858297 0 0 0 -6.38574,6.38647 6.3858297,6.3858297 0 0 0 6.38574,6.38571 6.3858297,6.3858297 0 0 0 6.38574,-6.38571 6.3858297,6.3858297 0 0 0 -6.38574,-6.38647 z m 19.27085,0.15131 a 6.2346858,6.2346858 0 0 0 -6.23443,6.23516 6.2346858,6.2346858 0 0 0 6.23443,6.23443 6.2346858,6.2346858 0 0 0 6.23442,-6.23443 6.2346858,6.2346858 0 0 0 -6.23442,-6.23516 z m -385.416939,0.11366 a 6.1213281,6.1213281 0 0 0 -6.1215,6.1215 6.1213281,6.1213281 0 0 0 6.1215,6.12073 6.1213281,6.1213281 0 0 0 6.1215,-6.12073 6.1213281,6.1213281 0 0 0 -6.1215,-6.1215 z m -19.270847,0.18894 a 5.9323979,5.9323979 0 0 0 -5.932569,5.93256 5.9323979,5.9323979 0 0 0 5.932569,5.9318 5.9323979,5.9323979 0 0 0 5.932569,-5.9318 5.9323979,5.9323979 0 0 0 -5.932569,-5.93256 z m -134.895924,0.0753 a 5.8568265,5.8568265 0 0 0 -5.85729,5.85729 5.8568265,5.8568265 0 0 0 5.85729,5.85653 5.8568265,5.8568265 0 0 0 5.85653,-5.85653 5.8568265,5.8568265 0 0 0 -5.85653,-5.85729 z m -134.89592,0.22658 a 5.6301104,5.6301104 0 0 0 -5.62994,5.63071 5.6301104,5.6301104 0 0 0 5.62994,5.62994 5.6301104,5.6301104 0 0 0 5.62994,-5.62994 5.6301104,5.6301104 0 0 0 -5.62994,-5.63071 z m 423.958616,0.45391 a 5.1766789,5.1766789 0 0 0 -5.176766,5.1768 5.1766789,5.1766789 0 0 0 5.176766,5.17604 5.1766789,5.1766789 0 0 0 5.176766,-5.17604 5.1766789,5.1766789 0 0 0 -5.176766,-5.1768 z m -366.146076,0.30186 a 4.874391,4.874391 0 0 0 -4.87418,4.87494 4.874391,4.874391 0 0 0 4.87418,4.87418 4.874391,4.874391 0 0 0 4.87417,-4.87418 4.874391,4.874391 0 0 0 -4.87417,-4.87494 z m 192.708458,0.26501 a 4.6098886,4.6098886 0 0 0 -4.609934,4.60993 4.6098886,4.6098886 0 0 0 4.609934,4.60994 4.6098886,4.6098886 0 0 0 4.609933,-4.60994 4.6098886,4.6098886 0 0 0 -4.609933,-4.60993 z m 366.146092,0.22655 a 4.3831729,4.3831729 0 0 0 -4.38335,4.38338 4.3831729,4.3831729 0 0 0 4.38335,4.38262 4.3831729,4.3831729 0 0 0 4.38338,-4.38262 4.3831729,4.3831729 0 0 0 -4.38338,-4.38338 z M 4.1451604,215.91248 A 4.0808854,4.0808854 0 0 0 0.06440448,219.994 4.0808854,4.0808854 0 0 0 4.1451604,224.07476 4.0808854,4.0808854 0 0 0 8.2259163,219.994 4.0808854,4.0808854 0 0 0 4.1451604,215.91248 Z m 231.2501596,1.32263 a 2.7583763,2.7583763 0 0 0 -2.75812,2.75889 2.7583763,2.7583763 0 0 0 2.75812,2.75812 2.7583763,2.7583763 0 0 0 2.75816,-2.75812 2.7583763,2.7583763 0 0 0 -2.75816,-2.75889 z m -77.08338,0.15132 a 2.6072323,2.6072323 0 0 0 -2.60758,2.60757 2.6072323,2.6072323 0 0 0 2.60758,2.60685 2.6072323,2.6072323 0 0 0 2.60684,-2.60685 2.6072323,2.6072323 0 0 0 -2.60684,-2.60757 z m -346.87524,0.0378 a 2.5694465,2.5694465 0 0 0 -2.56919,2.56996 2.5694465,2.5694465 0 0 0 2.56919,2.56919 2.5694465,2.5694465 0 0 0 2.56919,-2.56919 2.5694465,2.5694465 0 0 0 -2.56919,-2.56996 z m 38.54169,0.0378 a 2.5316604,2.5316604 0 0 0 -2.53157,2.5323 2.5316604,2.5316604 0 0 0 2.53157,2.53154 2.5316604,2.5316604 0 0 0 2.53158,-2.53154 2.5316604,2.5316604 0 0 0 -2.53158,-2.5323 z m 173.437617,0.076 a 2.4560885,2.4560885 0 0 0 -2.456262,2.4563 2.4560885,2.4560885 0 0 0 2.456262,2.45553 2.4560885,2.4560885 0 0 0 2.4563,-2.45553 2.4560885,2.4560885 0 0 0 -2.4563,-2.4563 z m 38.541693,0.0378 a 2.4183025,2.4183025 0 0 0 -2.418646,2.41865 2.4183025,2.4183025 0 0 0 2.418646,2.41787 2.4183025,2.4183025 0 0 0 2.417874,-2.41787 2.4183025,2.4183025 0 0 0 -2.417874,-2.41865 z m -308.33354,0.83104 a 1.587011,1.587011 0 0 0 -1.58684,1.58761 1.587011,1.587011 0 0 0 1.58684,1.58684 1.587011,1.587011 0 0 0 1.58684,-1.58684 1.587011,1.587011 0 0 0 -1.58684,-1.58761 z m 211.979307,0.30263 a 1.2847232,1.2847232 0 0 0 -1.28498,1.28498 1.2847232,1.2847232 0 0 0 1.28498,1.28421 1.2847232,1.2847232 0 0 0 1.28498,-1.28421 1.2847232,1.2847232 0 0 0 -1.28498,-1.28498 z m -96.354227,0.22659 a 1.0580073,1.0580073 0 0 0 -1.05839,1.05839 1.0580073,1.0580073 0 0 0 1.05839,1.05762 1.0580073,1.0580073 0 0 0 1.05762,-1.05762 1.0580073,1.0580073 0 0 0 -1.05762,-1.05839 z m -250.521,0.41551 a 0.6423616,0.6423616 0 0 0 -0.64211,0.64288 0.6423616,0.6423616 0 0 0 0.64211,0.6421 0.6423616,0.6423616 0 0 0 0.64211,-0.6421 0.6423616,0.6423616 0 0 0 -0.64211,-0.64288 z m 674.47962,0.22659 a 0.41564576,0.41564576 0 0 0 -0.41552,0.41629 0.41564576,0.41564576 0 0 0 0.41552,0.41552 0.41564576,0.41564576 0 0 0 0.41552,-0.41552 0.41564576,0.41564576 0 0 0 -0.41552,-0.41629 z m 57.81254,0.11366 a 0.30228781,0.30228781 0 0 0 -0.30263,0.30263 0.30228781,0.30228781 0 0 0 0.30263,0.30186 0.30228781,0.30228781 0 0 0 0.30186,-0.30186 0.30228781,0.30228781 0 0 0 -0.30186,-0.30263 z m -674.49015,0.15131 a 0.15114395,0.15114395 0 0 0 -0.14079,0.15132 0.15114395,0.15114395 0 0 0 0.15131,0.15054 0.15114395,0.15114395 0 0 0 0.15132,-0.15054 0.15114395,0.15114395 0 0 0 -0.15132,-0.15132 0.15114395,0.15114395 0 0 0 -0.0104,0 z m 19.27609,0.0753 a 0.07557197,0.07557197 0 0 0 -0.0708,0.076 0.07557197,0.07557197 0 0 0 0.076,0.0753 0.07557197,0.07557197 0 0 0 0.0753,-0.0753 0.07557197,0.07557197 0 0 0 -0.0753,-0.076 0.07557197,0.07557197 0 0 0 -0.005,0 z m 289.067974,10.42884 a 8.9174902,8.9174902 0 0 0 -8.917276,8.91805 8.9174902,8.9174902 0 0 0 8.917276,8.91727 8.9174902,8.9174902 0 0 0 8.9172758,-8.91727 8.9174902,8.9174902 0 0 0 -8.9172758,-8.91805 z m 211.979316,0.11366 a 8.8041325,8.8041325 0 0 0 -8.80435,8.80439 8.8041325,8.8041325 0 0 0 8.80435,8.80361 8.8041325,8.8041325 0 0 0 8.80439,-8.80361 8.8041325,8.8041325 0 0 0 -8.80439,-8.80439 z m -366.14608,0.11293 a 8.6907741,8.6907741 0 0 0 -8.69069,8.69146 8.6907741,8.6907741 0 0 0 8.69069,8.69068 8.6907741,8.6907741 0 0 0 8.69069,-8.69068 8.6907741,8.6907741 0 0 0 -8.69069,-8.69146 z m 308.33354,0.076 a 8.6152027,8.6152027 0 0 0 -8.61542,8.61542 8.6152027,8.6152027 0 0 0 8.61542,8.61464 8.6152027,8.6152027 0 0 0 8.61542,-8.61464 8.6152027,8.6152027 0 0 0 -8.61542,-8.61542 z m -250.521,0.45317 a 8.1617708,8.1617708 0 0 0 -8.16152,8.16225 8.1617708,8.1617708 0 0 0 8.16152,8.16151 8.1617708,8.1617708 0 0 0 8.16151,-8.16151 8.1617708,8.1617708 0 0 0 -8.16151,-8.16225 z m 366.14608,0.0378 a 8.1239842,8.1239842 0 0 0 -8.12386,8.12463 8.1239842,8.1239842 0 0 0 8.12386,8.12386 8.1239842,8.1239842 0 0 0 8.12386,-8.12386 8.1239842,8.1239842 0 0 0 -8.12386,-8.12463 z m -520.31286,0.11366 a 8.0106265,8.0106265 0 0 0 -8.01096,8.01097 8.0106265,8.0106265 0 0 0 8.01096,8.0102 8.0106265,8.0106265 0 0 0 8.0102,-8.0102 8.0106265,8.0106265 0 0 0 -8.0102,-8.01097 z m 308.333543,0.1137 a 7.8972692,7.8972692 0 0 0 -7.89727,7.89727 7.8972692,7.8972692 0 0 0 7.89727,7.89727 7.8972692,7.8972692 0 0 0 7.89727,-7.89727 7.8972692,7.8972692 0 0 0 -7.89727,-7.89727 z m -404.687773,0.37786 a 7.5194091,7.5194091 0 0 0 -7.51941,7.51941 7.5194091,7.5194091 0 0 0 7.51941,7.51941 7.5194091,7.5194091 0 0 0 7.51941,-7.51941 7.5194091,7.5194091 0 0 0 -7.51941,-7.51941 z m 308.333541,0.15055 a 7.3682648,7.3682648 0 0 0 -7.368093,7.36886 7.3682648,7.3682648 0 0 0 7.368093,7.36809 7.3682648,7.3682648 0 0 0 7.368092,-7.36809 7.3682648,7.3682648 0 0 0 -7.368092,-7.36886 z m -173.437611,0.0385 a 7.3304789,7.3304789 0 0 0 -7.33044,7.33044 7.3304789,7.3304789 0 0 0 7.33044,7.33043 7.3304789,7.3304789 0 0 0 7.33043,-7.33043 7.3304789,7.3304789 0 0 0 -7.33043,-7.33044 z m 539.5837,0.6421 a 6.6881172,6.6881172 0 0 0 -6.68833,6.68834 6.6881172,6.6881172 0 0 0 6.68833,6.68756 6.6881172,6.6881172 0 0 0 6.68833,-6.68756 6.6881172,6.6881172 0 0 0 -6.68833,-6.68834 z m 19.27085,0.15132 a 6.5369741,6.5369741 0 0 0 -6.53702,6.53702 6.5369741,6.5369741 0 0 0 6.53702,6.53701 6.5369741,6.5369741 0 0 0 6.53701,-6.53701 6.5369741,6.5369741 0 0 0 -6.53701,-6.53702 z m -327.6043996,0.3778 a 6.159114,6.159114 0 0 0 -6.1591552,6.15916 6.159114,6.159114 0 0 0 6.1591552,6.15915 6.159114,6.159114 0 0 0 6.1591546,-6.15915 6.159114,6.159114 0 0 0 -6.1591546,-6.15916 z m -211.9793104,0.30186 a 5.8568265,5.8568265 0 0 0 -5.85729,5.8573 5.8568265,5.8568265 0 0 0 5.85729,5.85652 5.8568265,5.8568265 0 0 0 5.85653,-5.85652 5.8568265,5.8568265 0 0 0 -5.85653,-5.8573 z m -134.89592,0.22659 a 5.6301104,5.6301104 0 0 0 -5.62994,5.63071 5.6301104,5.6301104 0 0 0 5.62994,5.62993 5.6301104,5.6301104 0 0 0 5.62994,-5.62993 5.6301104,5.6301104 0 0 0 -5.62994,-5.63071 z m 423.958616,0.60522 a 5.025535,5.025535 0 0 0 -5.02549,5.02549 5.025535,5.025535 0 0 0 5.02549,5.02549 5.025535,5.025535 0 0 0 5.02549,-5.02549 5.025535,5.025535 0 0 0 -5.02549,-5.02549 z m -366.146076,0.15054 a 4.874391,4.874391 0 0 0 -4.87418,4.87495 4.874391,4.874391 0 0 0 4.87418,4.87417 4.874391,4.874391 0 0 0 4.87417,-4.87417 4.874391,4.874391 0 0 0 -4.87417,-4.87495 z m 192.708458,0.18897 a 4.6854608,4.6854608 0 0 0 -4.685206,4.68598 4.6854608,4.6854608 0 0 0 4.685206,4.6852 4.6854608,4.6854608 0 0 0 4.685243,-4.6852 4.6854608,4.6854608 0 0 0 -4.685243,-4.68598 z m 19.270846,0.0378 a 4.6476745,4.6476745 0 0 0 -4.647588,4.64836 4.6476745,4.6476745 0 0 0 4.647588,4.64759 4.6476745,4.6476745 0 0 0 4.647589,-4.64759 4.6476745,4.6476745 0 0 0 -4.647589,-4.64836 z m 346.875246,0.0385 a 4.6098886,4.6098886 0 0 0 -4.60994,4.60994 4.6098886,4.6098886 0 0 0 4.60994,4.60993 4.6098886,4.6098886 0 0 0 4.60993,-4.60993 4.6098886,4.6098886 0 0 0 -4.60993,-4.60994 z m -173.43762,0.60445 a 4.0053132,4.0053132 0 0 0 -4.005491,4.00549 4.0053132,4.0053132 0 0 0 4.005491,4.00471 4.0053132,4.0053132 0 0 0 4.00548,-4.00471 4.0053132,4.0053132 0 0 0 -4.00548,-4.00549 z m 57.81254,0.0378 a 3.9675274,3.9675274 0 0 0 -3.96783,3.96783 3.9675274,3.9675274 0 0 0 3.96783,3.9671 3.9675274,3.9675274 0 0 0 3.96709,-3.9671 3.9675274,3.9675274 0 0 0 -3.96709,-3.96783 z m -134.895933,0.0753 a 3.8919556,3.8919556 0 0 0 -3.891786,3.89256 3.8919556,3.8919556 0 0 0 3.891786,3.89179 3.8919556,3.8919556 0 0 0 3.891824,-3.89179 3.8919556,3.8919556 0 0 0 -3.891824,-3.89256 z m 192.708473,0.11366 a 3.7785975,3.7785975 0 0 0 -3.7789,3.7789 3.7785975,3.7785975 0 0 0 3.7789,3.77813 3.7785975,3.7785975 0 0 0 3.77812,-3.77813 3.7785975,3.7785975 0 0 0 -3.77812,-3.7789 z m -38.5417,0.60449 a 3.174022,3.174022 0 0 0 -3.17441,3.17441 3.174022,3.174022 0 0 0 3.17441,3.17368 3.174022,3.174022 0 0 0 3.17368,-3.17368 3.174022,3.174022 0 0 0 -3.17368,-3.17441 z m -57.81254,0.15128 a 3.0228782,3.0228782 0 0 0 -3.02309,3.02313 3.0228782,3.0228782 0 0 0 3.02309,3.02236 3.0228782,3.0228782 0 0 0 3.02314,-3.02236 3.0228782,3.0228782 0 0 0 -3.02314,-3.02313 z m -154.166773,0.0378 a 2.985092,2.985092 0 0 0 -2.985478,2.98548 2.985092,2.985092 0 0 0 2.985478,2.9847 2.985092,2.985092 0 0 0 2.984707,-2.9847 2.985092,2.985092 0 0 0 -2.984707,-2.98548 z m -154.166767,0.2642 a 2.7205903,2.7205903 0 0 0 -2.7205,2.72128 2.7205903,2.7205903 0 0 0 2.7205,2.7205 2.7205903,2.7205903 0 0 0 2.7205,-2.7205 2.7205903,2.7205903 0 0 0 -2.7205,-2.72128 z m 38.54169,0.0385 a 2.6828044,2.6828044 0 0 0 -2.68285,2.68285 2.6828044,2.6828044 0 0 0 2.68285,2.68285 2.6828044,2.6828044 0 0 0 2.68285,-2.68285 2.6828044,2.6828044 0 0 0 -2.68285,-2.68285 z m 211.97931,0.98235 a 1.7003689,1.7003689 0 0 0 -1.700498,1.7005 1.7003689,1.7003689 0 0 0 1.700498,1.69973 1.7003689,1.7003689 0 0 0 1.700498,-1.69973 1.7003689,1.7003689 0 0 0 -1.700498,-1.7005 z m -308.33354,0.11289 a 1.587011,1.587011 0 0 0 -1.58684,1.58761 1.587011,1.587011 0 0 0 1.58684,1.58684 1.587011,1.587011 0 0 0 1.58684,-1.58684 1.587011,1.587011 0 0 0 -1.58684,-1.58761 z m 481.77116,0.18897 a 1.3980811,1.3980811 0 0 0 -1.39787,1.39864 1.3980811,1.3980811 0 0 0 1.39787,1.39787 1.3980811,1.3980811 0 0 0 1.39791,-1.39787 1.3980811,1.3980811 0 0 0 -1.39791,-1.39864 z m -366.14608,0.26498 a 1.1335793,1.1335793 0 0 0 -1.13367,1.13366 1.1335793,1.1335793 0 0 0 1.13367,1.1329 1.1335793,1.1335793 0 0 0 1.13366,-1.1329 1.1335793,1.1335793 0 0 0 -1.13366,-1.13366 z m -250.521,0.49079 a 0.6423616,0.6423616 0 0 0 -0.64211,0.64287 0.6423616,0.6423616 0 0 0 0.64211,0.64211 0.6423616,0.6423616 0 0 0 0.64211,-0.64211 0.6423616,0.6423616 0 0 0 -0.64211,-0.64287 z m 674.47962,0.22658 a 0.41564576,0.41564576 0 0 0 -0.41552,0.41629 0.41564576,0.41564576 0 0 0 0.41552,0.41552 0.41564576,0.41564576 0 0 0 0.41552,-0.41552 0.41564576,0.41564576 0 0 0 -0.41552,-0.41629 z m 57.81254,0.11366 a 0.30228781,0.30228781 0 0 0 -0.30263,0.30263 0.30228781,0.30228781 0 0 0 0.30263,0.30186 0.30228781,0.30228781 0 0 0 0.30186,-0.30186 0.30228781,0.30228781 0 0 0 -0.30186,-0.30263 z m -674.49015,0.15132 a 0.15114395,0.15114395 0 0 0 -0.14079,0.15131 0.15114395,0.15114395 0 0 0 0.15131,0.15055 0.15114395,0.15114395 0 0 0 0.15132,-0.15055 0.15114395,0.15114395 0 0 0 -0.15132,-0.15131 0.15114395,0.15114395 0 0 0 -0.0104,0 z m 19.27609,0.0753 a 0.07557197,0.07557197 0 0 0 -0.0708,0.076 0.07557197,0.07557197 0 0 0 0.076,0.0753 0.07557197,0.07557197 0 0 0 0.0753,-0.0753 0.07557197,0.07557197 0 0 0 -0.0753,-0.076 0.07557197,0.07557197 0 0 0 -0.005,0 z m 443.23475,10.39123 a 8.9552761,8.9552761 0 0 0 -8.95566,8.95566 8.9552761,8.9552761 0 0 0 8.95566,8.95493 8.9552761,8.9552761 0 0 0 8.95493,-8.95493 8.9552761,8.9552761 0 0 0 -8.95493,-8.95566 z m -308.33354,0.26497 a 8.6907741,8.6907741 0 0 0 -8.69069,8.69069 8.6907741,8.6907741 0 0 0 8.69069,8.69069 8.6907741,8.6907741 0 0 0 8.69069,-8.69069 8.6907741,8.6907741 0 0 0 -8.69069,-8.69069 z m 366.14608,0 a 8.6907741,8.6907741 0 0 0 -8.69069,8.69069 8.6907741,8.6907741 0 0 0 8.69069,8.69069 8.6907741,8.6907741 0 0 0 8.69069,-8.69069 8.6907741,8.6907741 0 0 0 -8.69069,-8.69069 z m -211.979316,0.0378 a 8.6529882,8.6529882 0 0 0 -8.653073,8.65307 8.6529882,8.6529882 0 0 0 8.653073,8.6523 8.6529882,8.6529882 0 0 0 8.6530725,-8.6523 8.6529882,8.6529882 0 0 0 -8.6530725,-8.65307 z m -96.354224,0.49083 a 8.1617708,8.1617708 0 0 0 -8.16152,8.16224 8.1617708,8.1617708 0 0 0 8.16152,8.16151 8.1617708,8.1617708 0 0 0 8.16151,-8.16151 8.1617708,8.1617708 0 0 0 -8.16151,-8.16224 z m 366.14608,0.0378 a 8.1239842,8.1239842 0 0 0 -8.12386,8.12463 8.1239842,8.1239842 0 0 0 8.12386,8.12385 8.1239842,8.1239842 0 0 0 8.12386,-8.12385 8.1239842,8.1239842 0 0 0 -8.12386,-8.12463 z m -308.333549,0.076 a 8.0484124,8.0484124 0 0 0 -8.048585,8.04859 8.0484124,8.0484124 0 0 0 8.048585,8.04781 8.0484124,8.0484124 0 0 0 8.048584,-8.04781 8.0484124,8.0484124 0 0 0 -8.048584,-8.04859 z m -211.979311,0.0378 a 8.0106265,8.0106265 0 0 0 -8.01096,8.01097 8.0106265,8.0106265 0 0 0 8.01096,8.0102 8.0106265,8.0106265 0 0 0 8.0102,-8.0102 8.0106265,8.0106265 0 0 0 -8.0102,-8.01097 z m 269.7918504,0.3779 a 7.6327672,7.6327672 0 0 0 -7.6330666,7.63307 7.6327672,7.6327672 0 0 0 7.6330666,7.6323 7.6327672,7.6327672 0 0 0 7.6330666,-7.6323 7.6327672,7.6327672 0 0 0 -7.6330666,-7.63518 z m -366.1460804,0.11366 a 7.5194091,7.5194091 0 0 0 -7.51941,7.51941 7.5194091,7.5194091 0 0 0 7.51941,7.51941 7.5194091,7.5194091 0 0 0 7.51941,-7.51941 7.5194091,7.5194091 0 0 0 -7.51941,-7.51941 z m 134.89593,0.18897 a 7.3304789,7.3304789 0 0 0 -7.33044,7.33044 7.3304789,7.3304789 0 0 0 7.33044,7.33044 7.3304789,7.3304789 0 0 0 7.33043,-7.33044 7.3304789,7.3304789 0 0 0 -7.33043,-7.33044 z m 269.791843,0.52841 a 6.8014757,6.8014757 0 0 0 -6.80126,6.80203 6.8014757,6.8014757 0 0 0 6.80126,6.80126 6.8014757,6.8014757 0 0 0 6.80126,-6.80126 6.8014757,6.8014757 0 0 0 -6.80126,-6.80203 z m 269.791857,0.1137 a 6.6881172,6.6881172 0 0 0 -6.68833,6.68833 6.6881172,6.6881172 0 0 0 6.68833,6.68756 6.6881172,6.6881172 0 0 0 6.68833,-6.68756 6.6881172,6.6881172 0 0 0 -6.68833,-6.68833 z m 19.27085,0.15131 a 6.5369741,6.5369741 0 0 0 -6.53702,6.53702 6.5369741,6.5369741 0 0 0 6.53702,6.53702 6.5369741,6.5369741 0 0 0 6.53701,-6.53702 6.5369741,6.5369741 0 0 0 -6.53701,-6.53702 z m -539.58371,0.67972 a 5.8568265,5.8568265 0 0 0 -5.85729,5.8573 5.8568265,5.8568265 0 0 0 5.85729,5.85653 5.8568265,5.8568265 0 0 0 5.85653,-5.85653 5.8568265,5.8568265 0 0 0 -5.85653,-5.8573 z m 231.250157,0.0761 a 5.7812543,5.7812543 0 0 0 -5.781254,5.78125 5.7812543,5.7812543 0 0 0 5.781254,5.78126 5.7812543,5.7812543 0 0 0 5.781254,-5.78126 5.7812543,5.7812543 0 0 0 -5.781254,-5.78125 z m 96.354233,0.11292 a 5.6678963,5.6678963 0 0 0 -5.66832,5.66833 5.6678963,5.6678963 0 0 0 5.66832,5.6676 5.6678963,5.6678963 0 0 0 5.6676,-5.6676 5.6678963,5.6678963 0 0 0 -5.6676,-5.66833 z m -462.50031,0.0378 a 5.6301104,5.6301104 0 0 0 -5.62994,5.63071 5.6301104,5.6301104 0 0 0 5.62994,5.62993 5.6301104,5.6301104 0 0 0 5.62994,-5.62993 5.6301104,5.6301104 0 0 0 -5.62994,-5.63071 z m 308.333537,0.26497 a 5.3656084,5.3656084 0 0 0 -5.365736,5.36574 5.3656084,5.3656084 0 0 0 5.365736,5.36496 5.3656084,5.3656084 0 0 0 5.365736,-5.36496 5.3656084,5.3656084 0 0 0 -5.365736,-5.36574 z m -250.520997,0.49079 a 4.874391,4.874391 0 0 0 -4.87418,4.87495 4.874391,4.874391 0 0 0 4.87418,4.87417 4.874391,4.874391 0 0 0 4.87417,-4.87417 4.874391,4.874391 0 0 0 -4.87417,-4.87495 z m 385.41693,0.15131 a 4.7232467,4.7232467 0 0 0 -4.723639,4.72364 4.7232467,4.7232467 0 0 0 4.723639,4.72286 4.7232467,4.7232467 0 0 0 4.72286,-4.72286 4.7232467,4.7232467 0 0 0 -4.72286,-4.72364 z m -192.708472,0.1137 a 4.6098886,4.6098886 0 0 0 -4.609934,4.60994 4.6098886,4.6098886 0 0 0 4.609934,4.6092 4.6098886,4.6098886 0 0 0 4.609933,-4.6092 4.6098886,4.6098886 0 0 0 -4.609933,-4.60994 z m 366.146092,0 a 4.6098886,4.6098886 0 0 0 -4.60994,4.60994 4.6098886,4.6098886 0 0 0 4.60994,4.6092 4.6098886,4.6098886 0 0 0 4.60993,-4.6092 4.6098886,4.6098886 0 0 0 -4.60993,-4.60994 z m -115.62508,0.33948 a 4.2698149,4.2698149 0 0 0 -4.26969,4.27046 4.2698149,4.2698149 0 0 0 4.26969,4.26968 4.2698149,4.2698149 0 0 0 4.26968,-4.26968 4.2698149,4.2698149 0 0 0 -4.26968,-4.27046 z m -231.250166,1.20971 a 3.060664,3.060664 0 0 0 -3.06075,3.06075 3.060664,3.060664 0 0 0 3.06075,3.05997 3.060664,3.060664 0 0 0 3.06075,-3.05997 3.060664,3.060664 0 0 0 -3.06075,-3.06075 z m 289.062706,0.15054 a 2.9095203,2.9095203 0 0 0 -2.90944,2.91021 2.9095203,2.9095203 0 0 0 2.90944,2.90943 2.9095203,2.9095203 0 0 0 2.90943,-2.90943 2.9095203,2.9095203 0 0 0 -2.90943,-2.91021 z m -404.68778,0.18893 a 2.7205903,2.7205903 0 0 0 -2.7205,2.72128 2.7205903,2.7205903 0 0 0 2.7205,2.7205 2.7205903,2.7205903 0 0 0 2.7205,-2.7205 2.7205903,2.7205903 0 0 0 -2.7205,-2.72128 z m 38.54169,0.0385 a 2.6828044,2.6828044 0 0 0 -2.68285,2.68285 2.6828044,2.6828044 0 0 0 2.68285,2.68285 2.6828044,2.6828044 0 0 0 2.68285,-2.68285 2.6828044,2.6828044 0 0 0 -2.68285,-2.68285 z m 231.250156,0.26421 a 2.4183025,2.4183025 0 0 0 -2.418645,2.41864 2.4183025,2.4183025 0 0 0 2.418645,2.41788 2.4183025,2.4183025 0 0 0 2.417875,-2.41788 2.4183025,2.4183025 0 0 0 -2.417875,-2.41864 z m 96.354234,0.0753 a 2.3427304,2.3427304 0 0 0 -2.3426,2.34337 2.3427304,2.3427304 0 0 0 2.3426,2.3426 2.3427304,2.3427304 0 0 0 2.34261,-2.3426 2.3427304,2.3427304 0 0 0 -2.34261,-2.34337 z m -423.95862,0.75576 a 1.587011,1.587011 0 0 0 -1.58684,1.58761 1.587011,1.587011 0 0 0 1.58684,1.58684 1.587011,1.587011 0 0 0 1.58684,-1.58684 1.587011,1.587011 0 0 0 -1.58684,-1.58761 z m 115.62508,0.45395 a 1.1335793,1.1335793 0 0 0 -1.13367,1.13366 1.1335793,1.1335793 0 0 0 1.13367,1.1329 1.1335793,1.1335793 0 0 0 1.13366,-1.1329 1.1335793,1.1335793 0 0 0 -1.13366,-1.13366 z m 366.14608,0.0378 a 1.0957932,1.0957932 0 0 0 -1.09601,1.09605 1.0957932,1.0957932 0 0 0 1.09601,1.09527 1.0957932,1.0957932 0 0 0 1.09605,-1.09527 1.0957932,1.0957932 0 0 0 -1.09605,-1.09605 z m -616.66708,0.45317 a 0.6423616,0.6423616 0 0 0 -0.64211,0.64288 0.6423616,0.6423616 0 0 0 0.64211,0.6421 0.6423616,0.6423616 0 0 0 0.64211,-0.6421 0.6423616,0.6423616 0 0 0 -0.64211,-0.64288 z m 443.22946,0.0378 a 0.60457563,0.60457563 0 0 0 -0.604488,0.60522 0.60457563,0.60457563 0 0 0 0.604488,0.60445 0.60457563,0.60457563 0 0 0 0.604488,-0.60445 0.60457563,0.60457563 0 0 0 -0.604488,-0.60522 z m 231.25016,0.18893 a 0.41564576,0.41564576 0 0 0 -0.41552,0.41629 0.41564576,0.41564576 0 0 0 0.41552,0.41552 0.41564576,0.41564576 0 0 0 0.41552,-0.41552 0.41564576,0.41564576 0 0 0 -0.41552,-0.41629 z m 57.81254,0.11366 a 0.30228781,0.30228781 0 0 0 -0.30263,0.30263 0.30228781,0.30228781 0 0 0 0.30263,0.30186 0.30228781,0.30228781 0 0 0 0.30186,-0.30186 0.30228781,0.30228781 0 0 0 -0.30186,-0.30263 z m -674.49015,0.15132 a 0.15114395,0.15114395 0 0 0 -0.14079,0.15131 0.15114395,0.15114395 0 0 0 0.15131,0.15054 0.15114395,0.15114395 0 0 0 0.15132,-0.15054 0.15114395,0.15114395 0 0 0 -0.15132,-0.15131 0.15114395,0.15114395 0 0 0 -0.0104,0 z m 19.27609,0.0753 a 0.07557197,0.07557197 0 0 0 -0.0708,0.076 0.07557197,0.07557197 0 0 0 0.076,0.0753 0.07557197,0.07557197 0 0 0 0.0753,-0.0753 0.07557197,0.07557197 0 0 0 -0.0753,-0.076 0.07557197,0.07557197 0 0 0 -0.005,0 z m 443.23475,10.46723 a 8.8797043,8.8797043 0 0 0 -8.87966,8.87966 8.8797043,8.8797043 0 0 0 8.87966,8.87966 8.8797043,8.8797043 0 0 0 8.87966,-8.87966 8.8797043,8.8797043 0 0 0 -8.87966,-8.87966 z m -308.33354,0.18897 a 8.6907741,8.6907741 0 0 0 -8.69069,8.69069 8.6907741,8.6907741 0 0 0 8.69069,8.69069 8.6907741,8.6907741 0 0 0 8.69069,-8.69069 8.6907741,8.6907741 0 0 0 -8.69069,-8.69069 z m 366.14608,0 a 8.6907741,8.6907741 0 0 0 -8.69069,8.69069 8.6907741,8.6907741 0 0 0 8.69069,8.69069 8.6907741,8.6907741 0 0 0 8.69069,-8.69069 8.6907741,8.6907741 0 0 0 -8.69069,-8.69069 z m -250.521009,0.49079 a 8.1995567,8.1995567 0 0 0 -8.1999,8.1999 8.1995567,8.1995567 0 0 0 8.1999,8.19913 8.1995567,8.1995567 0 0 0 8.199128,-8.19913 8.1995567,8.1995567 0 0 0 -8.199128,-8.1999 z m -57.812531,0.0378 a 8.1617708,8.1617708 0 0 0 -8.16152,8.16224 8.1617708,8.1617708 0 0 0 8.16152,8.16151 8.1617708,8.1617708 0 0 0 8.16151,-8.16151 8.1617708,8.1617708 0 0 0 -8.16151,-8.16224 z m 134.895917,0.076 a 8.0861983,8.0861983 0 0 0 -8.08624,8.08624 8.0861983,8.0861983 0 0 0 8.08624,8.08624 8.0861983,8.0861983 0 0 0 8.08624,-8.08624 8.0861983,8.0861983 0 0 0 -8.08624,-8.08624 z m 231.250163,0 a 8.0861983,8.0861983 0 0 0 -8.08624,8.08624 8.0861983,8.0861983 0 0 0 8.08624,8.08624 8.0861983,8.0861983 0 0 0 8.08624,-8.08624 8.0861983,8.0861983 0 0 0 -8.08624,-8.08624 z m -289.062703,0.11293 a 7.9728406,7.9728406 0 0 0 -7.972542,7.97331 7.9728406,7.9728406 0 0 0 7.972542,7.97254 7.9728406,7.9728406 0 0 0 7.972581,-7.97254 7.9728406,7.9728406 0 0 0 -7.972581,-7.97331 z m -231.250157,0.076 a 7.8972692,7.8972692 0 0 0 -7.89727,7.89727 7.8972692,7.8972692 0 0 0 7.89727,7.89727 7.8972692,7.8972692 0 0 0 7.89727,-7.89727 7.8972692,7.8972692 0 0 0 -7.89727,-7.89727 z m 269.7918504,0.0753 a 7.8216967,7.8216967 0 0 0 -7.821998,7.822 7.8216967,7.8216967 0 0 0 7.821998,7.82127 7.8216967,7.8216967 0 0 0 7.8212656,-7.82127 7.8216967,7.8216967 0 0 0 -7.8212656,-7.822 z m -366.1460804,0.45314 a 7.3682648,7.3682648 0 0 0 -7.36809,7.36886 7.3682648,7.3682648 0 0 0 7.36809,7.3681 7.3682648,7.3682648 0 0 0 7.36809,-7.3681 7.3682648,7.3682648 0 0 0 -7.36809,-7.36886 z m 443.229466,0 a 7.3682648,7.3682648 0 0 0 -7.368092,7.36886 7.3682648,7.3682648 0 0 0 7.368092,7.3681 7.3682648,7.3682648 0 0 0 7.368093,-7.3681 7.3682648,7.3682648 0 0 0 -7.368093,-7.36886 z m -308.333536,0.0385 a 7.3304789,7.3304789 0 0 0 -7.33044,7.33044 7.3304789,7.3304789 0 0 0 7.33044,7.33044 7.3304789,7.3304789 0 0 0 7.33043,-7.33044 7.3304789,7.3304789 0 0 0 -7.33043,-7.33044 z m 327.60439,0.60445 a 6.7259039,6.7259039 0 0 0 -6.725995,6.72599 6.7259039,6.7259039 0 0 0 6.725995,6.72599 6.7259039,6.7259039 0 0 0 6.72599,-6.72599 6.7259039,6.7259039 0 0 0 -6.72599,-6.72599 z m 211.97931,0.0378 a 6.6881172,6.6881172 0 0 0 -6.68833,6.68833 6.6881172,6.6881172 0 0 0 6.68833,6.68757 6.6881172,6.6881172 0 0 0 6.68833,-6.68757 6.6881172,6.6881172 0 0 0 -6.68833,-6.68833 z m 19.27085,0.15132 a 6.5369741,6.5369741 0 0 0 -6.53702,6.53701 6.5369741,6.5369741 0 0 0 6.53702,6.53702 6.5369741,6.5369741 0 0 0 6.53701,-6.53702 6.5369741,6.5369741 0 0 0 -6.53701,-6.53701 z m -674.47963,0.60445 a 5.9323979,5.9323979 0 0 0 -5.93257,5.93256 5.9323979,5.9323979 0 0 0 5.93257,5.9318 5.9323979,5.9323979 0 0 0 5.93257,-5.9318 5.9323979,5.9323979 0 0 0 -5.93257,-5.93256 z m 327.604384,0.0378 a 5.8946124,5.8946124 0 0 0 -5.894914,5.89491 5.8946124,5.8946124 0 0 0 5.894914,5.89418 5.8946124,5.8946124 0 0 0 5.894181,-5.89418 5.8946124,5.8946124 0 0 0 -5.894181,-5.89491 z m -192.708464,0.0378 a 5.8568265,5.8568265 0 0 0 -5.85729,5.85729 5.8568265,5.8568265 0 0 0 5.85729,5.85653 5.8568265,5.8568265 0 0 0 5.85653,-5.85653 5.8568265,5.8568265 0 0 0 -5.85653,-5.85729 z m 250.521003,0.56683 a 5.2900366,5.2900366 0 0 0 -5.290464,5.29046 5.2900366,5.2900366 0 0 0 5.290464,5.2897 5.2900366,5.2900366 0 0 0 5.289693,-5.2897 5.2900366,5.2900366 0 0 0 -5.289693,-5.29046 z m 77.083387,0.076 a 5.2144648,5.2144648 0 0 0 -5.21442,5.21442 5.2144648,5.2144648 0 0 0 5.21442,5.21443 5.2144648,5.2144648 0 0 0 5.21443,-5.21443 5.2144648,5.2144648 0 0 0 -5.21443,-5.21442 z m -404.68777,0.0378 a 5.1766789,5.1766789 0 0 0 -5.17677,5.17681 5.1766789,5.1766789 0 0 0 5.17677,5.17603 5.1766789,5.1766789 0 0 0 5.17676,-5.17603 5.1766789,5.1766789 0 0 0 -5.17676,-5.17681 z m 558.85455,0.49083 a 4.6854608,4.6854608 0 0 0 -4.68521,4.68598 4.6854608,4.6854608 0 0 0 4.68521,4.6852 4.6854608,4.6854608 0 0 0 4.68524,-4.6852 4.6854608,4.6854608 0 0 0 -4.68524,-4.68598 z m -366.146092,0.11366 a 4.5721031,4.5721031 0 0 0 -4.572317,4.57232 4.5721031,4.5721031 0 0 0 4.572317,4.57154 4.5721031,4.5721031 0 0 0 4.572316,-4.57154 4.5721031,4.5721031 0 0 0 -4.572316,-4.57232 z m 250.521012,0.26424 a 4.3076011,4.3076011 0 0 0 -4.30735,4.30808 4.3076011,4.3076011 0 0 0 4.30735,4.30734 4.3076011,4.3076011 0 0 0 4.30734,-4.30734 4.3076011,4.3076011 0 0 0 -4.30734,-4.30808 z m 57.81254,1.39864 a 2.9095203,2.9095203 0 0 0 -2.90944,2.90944 2.9095203,2.9095203 0 0 0 2.90944,2.90943 2.9095203,2.9095203 0 0 0 2.90943,-2.90943 2.9095203,2.9095203 0 0 0 -2.90943,-2.90944 z m -366.14609,0.18816 a 2.7205903,2.7205903 0 0 0 -2.7205,2.72128 2.7205903,2.7205903 0 0 0 2.7205,2.7205 2.7205903,2.7205903 0 0 0 2.72051,-2.7205 2.7205903,2.7205903 0 0 0 -2.72051,-2.72128 z m -38.54169,0.0385 a 2.6828044,2.6828044 0 0 0 -2.68285,2.68285 2.6828044,2.6828044 0 0 0 2.68285,2.68285 2.6828044,2.6828044 0 0 0 2.68285,-2.68285 2.6828044,2.6828044 0 0 0 -2.68285,-2.68285 z m 366.14608,0.33948 a 2.3427304,2.3427304 0 0 0 -2.3426,2.34337 2.3427304,2.3427304 0 0 0 2.3426,2.34261 2.3427304,2.3427304 0 0 0 2.34261,-2.34261 2.3427304,2.3427304 0 0 0 -2.34261,-2.34337 z m -250.521006,0.60522 a 1.7381548,1.7381548 0 0 0 -1.738153,1.73815 1.7381548,1.7381548 0 0 0 1.738153,1.73816 1.7381548,1.7381548 0 0 0 1.738153,-1.73816 1.7381548,1.7381548 0 0 0 -1.738153,-1.73815 z m -173.437614,0.26424 a 1.473653,1.473653 0 0 0 -1.47391,1.47391 1.473653,1.473653 0 0 0 1.47391,1.47318 1.473653,1.473653 0 0 0 1.47391,-1.47318 1.473653,1.473653 0 0 0 -1.47391,-1.47391 z m 308.33354,0.11366 a 1.3602951,1.3602951 0 0 0 -1.360252,1.36025 1.3602951,1.3602951 0 0 0 1.360252,1.36026 1.3602951,1.3602951 0 0 0 1.360252,-1.36026 1.3602951,1.3602951 0 0 0 -1.360252,-1.36025 z m -192.70846,0.22659 a 1.1335793,1.1335793 0 0 0 -1.13367,1.13366 1.1335793,1.1335793 0 0 0 1.13367,1.1329 1.1335793,1.1335793 0 0 0 1.13366,-1.1329 1.1335793,1.1335793 0 0 0 -1.13366,-1.13366 z m 366.14608,0.0753 a 1.0580073,1.0580073 0 0 0 -1.05839,1.05839 1.0580073,1.0580073 0 0 0 1.05839,1.05763 1.0580073,1.0580073 0 0 0 1.05763,-1.05763 1.0580073,1.0580073 0 0 0 -1.05763,-1.05839 z m -616.66708,0.45317 a 0.60457563,0.60457563 0 0 0 -0.60447,0.60522 0.60457563,0.60457563 0 0 0 0.60447,0.60445 0.60457563,0.60457563 0 0 0 0.60447,-0.60445 0.60457563,0.60457563 0 0 0 -0.60447,-0.60522 z m 674.47962,0.18893 a 0.41564576,0.41564576 0 0 0 -0.41552,0.41629 0.41564576,0.41564576 0 0 0 0.41552,0.41552 0.41564576,0.41564576 0 0 0 0.41552,-0.41552 0.41564576,0.41564576 0 0 0 -0.41552,-0.41629 z m 57.81254,0.11366 a 0.30228781,0.30228781 0 0 0 -0.30263,0.30263 0.30228781,0.30228781 0 0 0 0.30263,0.30186 0.30228781,0.30228781 0 0 0 0.30186,-0.30186 0.30228781,0.30228781 0 0 0 -0.30186,-0.30263 z m -674.47963,0.0753 a 0.22671583,0.22671583 0 0 0 -0.22658,0.22735 0.22671583,0.22671583 0 0 0 0.22658,0.22659 0.22671583,0.22671583 0 0 0 0.22659,-0.22659 0.22671583,0.22671583 0 0 0 -0.22659,-0.22735 z m 19.26256,0.11369 a 0.11335796,0.11335796 0 0 0 -0.10537,0.11366 0.11335796,0.11335796 0 0 0 0.11366,0.11293 0.11335796,0.11335796 0 0 0 0.11293,-0.11293 0.11335796,0.11335796 0 0 0 -0.11293,-0.11366 0.11335796,0.11335796 0 0 0 -0.008,0 z m 327.612677,10.12665 a 9.2575636,9.2575636 0 0 0 -9.257522,9.25752 9.2575636,9.2575636 0 0 0 9.257522,9.25752 9.2575636,9.2575636 0 0 0 9.257522,-9.25752 9.2575636,9.2575636 0 0 0 -9.257522,-9.25752 z m -57.81254,0.2642 a 8.993062,8.993062 0 0 0 -8.993319,8.99332 8.993062,8.993062 0 0 0 8.993319,8.99255 8.993062,8.993062 0 0 0 8.993319,-8.99255 8.993062,8.993062 0 0 0 -8.993319,-8.99332 z m 115.625079,0.2642 a 8.72856,8.72856 0 0 0 -8.728344,8.72912 8.72856,8.72856 0 0 0 8.728344,8.72834 8.72856,8.72856 0 0 0 8.728345,-8.72834 8.72856,8.72856 0 0 0 -8.728345,-8.72912 z m 57.812544,0 a 8.72856,8.72856 0 0 0 -8.72834,8.72912 8.72856,8.72856 0 0 0 8.72834,8.72834 8.72856,8.72856 0 0 0 8.72835,-8.72834 8.72856,8.72856 0 0 0 -8.72835,-8.72912 z m 57.81254,0.0378 a 8.6907741,8.6907741 0 0 0 -8.69069,8.69146 8.6907741,8.6907741 0 0 0 8.69069,8.69068 8.6907741,8.6907741 0 0 0 8.69069,-8.69068 8.6907741,8.6907741 0 0 0 -8.69069,-8.69146 z m -366.14608,0.0385 a 8.6529882,8.6529882 0 0 0 -8.65308,8.65307 8.6529882,8.6529882 0 0 0 8.65308,8.6523 8.6529882,8.6529882 0 0 0 8.65307,-8.6523 8.6529882,8.6529882 0 0 0 -8.65307,-8.65307 z m 57.81254,0.15054 a 8.5018442,8.5018442 0 0 0 -8.50176,8.50253 8.5018442,8.5018442 0 0 0 8.50176,8.50176 8.5018442,8.5018442 0 0 0 8.50175,-8.50176 8.5018442,8.5018442 0 0 0 -8.50175,-8.50253 z m 366.14608,0.79419 a 7.708339,7.708339 0 0 0 -7.70834,7.70834 7.708339,7.708339 0 0 0 7.70834,7.70834 7.708339,7.708339 0 0 0 7.70834,-7.70834 7.708339,7.708339 0 0 0 -7.70834,-7.70834 z m -597.39624,0.0378 a 7.6705531,7.6705531 0 0 0 -7.67069,7.67072 7.6705531,7.6705531 0 0 0 7.67069,7.66996 7.6705531,7.6705531 0 0 0 7.67072,-7.66996 7.6705531,7.6705531 0 0 0 -7.67072,-7.67072 z m 289.062691,0.11293 a 7.557195,7.557195 0 0 0 -7.557024,7.55779 7.557195,7.557195 0 0 0 7.557024,7.55703 7.557195,7.557195 0 0 0 7.557024,-7.55703 7.557195,7.557195 0 0 0 -7.557024,-7.55779 z m 366.146089,0.18893 a 7.3682648,7.3682648 0 0 0 -7.36809,7.36886 7.3682648,7.3682648 0 0 0 7.36809,7.3681 7.3682648,7.3682648 0 0 0 7.36809,-7.3681 7.3682648,7.3682648 0 0 0 -7.36809,-7.36886 z m -539.5837,0.0385 a 7.3304789,7.3304789 0 0 0 -7.33044,7.33044 7.3304789,7.3304789 0 0 0 7.33044,7.33044 7.3304789,7.3304789 0 0 0 7.33043,-7.33044 7.3304789,7.3304789 0 0 0 -7.33043,-7.33044 z m -57.81254,0.15055 a 7.179335,7.179335 0 0 0 -7.17912,7.17989 7.179335,7.179335 0 0 0 7.17912,7.17912 7.179335,7.179335 0 0 0 7.17916,-7.17912 7.179335,7.179335 0 0 0 -7.17916,-7.17989 z m 19.27084,0.4539 a 6.7259039,6.7259039 0 0 0 -6.72598,6.72599 6.7259039,6.7259039 0 0 0 6.72598,6.72522 6.7259039,6.7259039 0 0 0 6.72599,-6.72522 6.7259039,6.7259039 0 0 0 -6.72599,-6.72599 z m 269.7918504,0.0753 a 6.6503314,6.6503314 0 0 0 -6.650716,6.65072 6.6503314,6.6503314 0 0 0 6.650716,6.64994 6.6503314,6.6503314 0 0 0 6.6499446,-6.64994 6.6503314,6.6503314 0 0 0 -6.6499446,-6.65072 z m 327.6043996,0.1137 a 6.5369741,6.5369741 0 0 0 -6.53702,6.53702 6.5369741,6.5369741 0 0 0 6.53702,6.53702 6.5369741,6.5369741 0 0 0 6.53701,-6.53702 6.5369741,6.5369741 0 0 0 -6.53701,-6.53702 z m -693.75048,0.45314 a 6.0835422,6.0835422 0 0 0 -6.08388,6.08388 6.0835422,6.0835422 0 0 0 6.08388,6.08311 6.0835422,6.0835422 0 0 0 6.08311,-6.08311 6.0835422,6.0835422 0 0 0 -6.08311,-6.08388 z m 635.93794,0.18897 a 5.8946124,5.8946124 0 0 0 -5.89492,5.89491 5.8946124,5.8946124 0 0 0 5.89492,5.89418 5.8946124,5.8946124 0 0 0 5.89418,-5.89418 5.8946124,5.8946124 0 0 0 -5.89418,-5.89491 z m -481.77117,0.0378 a 5.8568265,5.8568265 0 0 0 -5.85729,5.85729 5.8568265,5.8568265 0 0 0 5.85729,5.85653 5.8568265,5.8568265 0 0 0 5.85653,-5.85653 5.8568265,5.8568265 0 0 0 -5.85653,-5.85729 z m 115.625078,1.28498 a 4.5721031,4.5721031 0 0 0 -4.572317,4.57231 4.5721031,4.5721031 0 0 0 4.572317,4.57155 4.5721031,4.5721031 0 0 0 4.572316,-4.57155 4.5721031,4.5721031 0 0 0 -4.572316,-4.57231 z m 250.521012,0.22658 a 4.345387,4.345387 0 0 0 -4.34573,4.34573 4.345387,4.345387 0 0 0 4.34573,4.34496 4.345387,4.345387 0 0 0 4.34496,-4.34496 4.345387,4.345387 0 0 0 -4.34496,-4.34573 z m -308.33355,0.18894 a 4.1564572,4.1564572 0 0 0 -4.1568,4.15679 4.1564572,4.1564572 0 0 0 4.1568,4.15603 4.1564572,4.1564572 0 0 0 4.15603,-4.15603 4.1564572,4.1564572 0 0 0 -4.15603,-4.15679 z m 250.52101,0.15131 a 4.0053132,4.0053132 0 0 0 -4.005491,4.00548 4.0053132,4.0053132 0 0 0 4.005491,4.00472 4.0053132,4.0053132 0 0 0 4.00548,-4.00472 4.0053132,4.0053132 0 0 0 -4.00548,-4.00548 z m 115.62508,0.18893 a 3.8163837,3.8163837 0 0 0 -3.81652,3.81655 3.8163837,3.8163837 0 0 0 3.81652,3.81579 3.8163837,3.8163837 0 0 0 3.81655,-3.81579 3.8163837,3.8163837 0 0 0 -3.81655,-3.81655 z m -173.437627,0.15132 a 3.6652395,3.6652395 0 0 0 -3.665238,3.66523 3.6652395,3.6652395 0 0 0 3.665238,3.66524 3.6652395,3.6652395 0 0 0 3.665238,-3.66524 3.6652395,3.6652395 0 0 0 -3.665238,-3.66523 z m -57.812539,0.56683 a 3.0984499,3.0984499 0 0 0 -3.098406,3.0984 3.0984499,3.0984499 0 0 0 3.098406,3.09841 3.0984499,3.0984499 0 0 0 3.098405,-3.09841 3.0984499,3.0984499 0 0 0 -3.098405,-3.0984 z m 134.895926,0.22659 a 2.8717342,2.8717342 0 0 0 -2.87181,2.87181 2.8717342,2.8717342 0 0 0 2.87181,2.87105 2.8717342,2.8717342 0 0 0 2.87182,-2.87105 2.8717342,2.8717342 0 0 0 -2.87182,-2.87181 z m -250.521,0.3779 a 2.4938744,2.4938744 0 0 0 -2.49392,2.49391 2.4938744,2.4938744 0 0 0 2.49392,2.49392 2.4938744,2.4938744 0 0 0 2.49392,-2.49392 2.4938744,2.4938744 0 0 0 -2.49392,-2.49391 z m 192.70846,0.22658 a 2.2671586,2.2671586 0 0 0 -2.267331,2.26733 2.2671586,2.2671586 0 0 0 2.267331,2.26656 2.2671586,2.2671586 0 0 0 2.26733,-2.26656 2.2671586,2.2671586 0 0 0 -2.26733,-2.26733 z m -250.521,0.0378 a 2.2293725,2.2293725 0 0 0 -2.22971,2.22972 2.2293725,2.2293725 0 0 0 2.22971,2.22894 2.2293725,2.2293725 0 0 0 2.22894,-2.22894 2.2293725,2.2293725 0 0 0 -2.22894,-2.22972 z m 366.14608,0 a 2.2293725,2.2293725 0 0 0 -2.22971,2.22972 2.2293725,2.2293725 0 0 0 2.22971,2.22894 2.2293725,2.2293725 0 0 0 2.22895,-2.22894 2.2293725,2.2293725 0 0 0 -2.22895,-2.22972 z m -501.04201,0.22659 a 2.0026567,2.0026567 0 0 0 -2.00312,2.00313 2.0026567,2.0026567 0 0 0 2.00312,2.00235 2.0026567,2.0026567 0 0 0 2.00236,-2.00235 2.0026567,2.0026567 0 0 0 -2.00236,-2.00313 z m 616.66709,0.22659 a 1.7759408,1.7759408 0 0 0 -1.77577,1.77654 1.7759408,1.7759408 0 0 0 1.77577,1.77577 1.7759408,1.7759408 0 0 0 1.77577,-1.77577 1.7759408,1.7759408 0 0 0 -1.77577,-1.77654 z m -597.39624,0.0385 a 1.7381548,1.7381548 0 0 0 -1.73815,1.73815 1.7381548,1.7381548 0 0 0 1.73815,1.73816 1.7381548,1.7381548 0 0 0 1.73815,-1.73816 1.7381548,1.7381548 0 0 0 -1.73815,-1.73815 z m 539.5837,0.6421 a 1.0957932,1.0957932 0 0 0 -1.09601,1.09605 1.0957932,1.0957932 0 0 0 1.09601,1.09528 1.0957932,1.0957932 0 0 0 1.09605,-1.09528 1.0957932,1.0957932 0 0 0 -1.09605,-1.09605 z m -481.77116,0.0378 a 1.0580073,1.0580073 0 0 0 -1.05839,1.0584 1.0580073,1.0580073 0 0 0 1.05839,1.05762 1.0580073,1.0580073 0 0 0 1.05762,-1.05762 1.0580073,1.0580073 0 0 0 -1.05762,-1.0584 z m 173.437614,0.22659 a 0.83129144,0.83129144 0 0 0 -0.831036,0.83181 0.83129144,0.83129144 0 0 0 0.831036,0.83103 0.83129144,0.83129144 0 0 0 0.831075,-0.83103 0.83129144,0.83129144 0 0 0 -0.831075,-0.83181 z m -308.333534,0.52918 a 0.30228781,0.30228781 0 0 0 -0.30261,0.30263 0.30228781,0.30228781 0 0 0 0.30261,0.30186 0.30228781,0.30228781 0 0 0 0.30186,-0.30186 0.30228781,0.30228781 0 0 0 -0.30186,-0.30263 z m 732.29216,0 a 0.30228781,0.30228781 0 0 0 -0.30263,0.30263 0.30228781,0.30228781 0 0 0 0.30263,0.30186 0.30228781,0.30228781 0 0 0 0.30186,-0.30186 0.30228781,0.30228781 0 0 0 -0.30186,-0.30263 z m -77.08338,10.95806 a 8.6152027,8.6152027 0 0 0 -8.61542,8.61541 8.6152027,8.6152027 0 0 0 8.61542,8.61465 8.6152027,8.6152027 0 0 0 8.61541,-8.61465 8.6152027,8.6152027 0 0 0 -8.61541,-8.61541 z m -250.521013,0.0378 a 8.577416,8.577416 0 0 0 -8.577801,8.5778 8.577416,8.577416 0 0 0 8.577801,8.57703 8.577416,8.577416 0 0 0 8.577029,-8.57703 8.577416,8.577416 0 0 0 -8.577029,-8.5778 z m 115.625083,0 a 8.577416,8.577416 0 0 0 -8.5778,8.5778 8.577416,8.577416 0 0 0 8.5778,8.57703 8.577416,8.577416 0 0 0 8.57703,-8.57703 8.577416,8.577416 0 0 0 -8.57703,-8.5778 z m -250.521,0.18897 a 8.3884866,8.3884866 0 0 0 -8.38883,8.38883 8.3884866,8.3884866 0 0 0 8.38883,8.3881 8.3884866,8.3884866 0 0 0 8.38809,-8.3881 8.3884866,8.3884866 0 0 0 -8.38809,-8.38883 z m -38.5417,0.0753 a 8.3129144,8.3129144 0 0 0 -8.31282,8.31356 8.3129144,8.3129144 0 0 0 8.31282,8.31279 8.3129144,8.3129144 0 0 0 8.31283,-8.31279 8.3129144,8.3129144 0 0 0 -8.31283,-8.31356 z m -134.89592,0.22732 a 8.0861983,8.0861983 0 0 0 -8.08624,8.08624 8.0861983,8.0861983 0 0 0 8.08624,8.08624 8.0861983,8.0861983 0 0 0 8.08624,-8.08624 8.0861983,8.0861983 0 0 0 -8.08624,-8.08624 z m -57.81254,0.15054 a 7.9350551,7.9350551 0 0 0 -7.93493,7.9357 7.9350551,7.9350551 0 0 0 7.93493,7.93492 7.9350551,7.9350551 0 0 0 7.93492,-7.93492 7.9350551,7.9350551 0 0 0 -7.93492,-7.9357 z m 308.333537,0.0385 a 7.8972692,7.8972692 0 0 0 -7.89727,7.89727 7.8972692,7.8972692 0 0 0 7.89727,7.89727 7.8972692,7.8972692 0 0 0 7.89727,-7.89727 7.8972692,7.8972692 0 0 0 -7.89727,-7.89727 z m 134.895933,0 a 7.8972692,7.8972692 0 0 0 -7.897277,7.89727 7.8972692,7.8972692 0 0 0 7.897277,7.89727 7.8972692,7.8972692 0 0 0 7.89727,-7.89727 7.8972692,7.8972692 0 0 0 -7.89727,-7.89727 z m 96.35423,0 a 7.8972692,7.8972692 0 0 0 -7.89727,7.89727 7.8972692,7.8972692 0 0 0 7.89727,7.89727 7.8972692,7.8972692 0 0 0 7.89727,-7.89727 7.8972692,7.8972692 0 0 0 -7.89727,-7.89727 z m 115.62508,0 a 7.8972692,7.8972692 0 0 0 -7.89727,7.89727 7.8972692,7.8972692 0 0 0 7.89727,7.89727 7.8972692,7.8972692 0 0 0 7.89727,-7.89727 7.8972692,7.8972692 0 0 0 -7.89727,-7.89727 z m -231.250164,0.0378 a 7.8594825,7.8594825 0 0 0 -7.859653,7.85966 7.8594825,7.8594825 0 0 0 7.859653,7.85888 7.8594825,7.8594825 0 0 0 7.859653,-7.85888 7.8594825,7.8594825 0 0 0 -7.859653,-7.85966 z m -404.687776,0.0378 a 7.8216967,7.8216967 0 0 0 -7.82199,7.82199 7.8216967,7.8216967 0 0 0 7.82199,7.82127 7.8216967,7.8216967 0 0 0 7.82127,-7.82127 7.8216967,7.8216967 0 0 0 -7.82127,-7.82199 z m 539.58371,0.0753 a 7.7461249,7.7461249 0 0 0 -7.74596,7.74672 7.7461249,7.7461249 0 0 0 7.74596,7.74596 7.7461249,7.7461249 0 0 0 7.74599,-7.74596 7.7461249,7.7461249 0 0 0 -7.74599,-7.74672 z m -520.31286,0.0385 a 7.708339,7.708339 0 0 0 -7.70834,7.70834 7.708339,7.708339 0 0 0 7.70834,7.70834 7.708339,7.708339 0 0 0 7.70834,-7.70834 7.708339,7.708339 0 0 0 -7.70834,-7.70834 z m 597.39624,0.49079 a 7.2171216,7.2171216 0 0 0 -7.21755,7.21755 7.2171216,7.2171216 0 0 0 7.21755,7.21678 7.2171216,7.2171216 0 0 0 7.21678,-7.21678 7.2171216,7.2171216 0 0 0 -7.21678,-7.21755 z m -462.50031,0.0378 a 7.179335,7.179335 0 0 0 -7.17913,7.17989 7.179335,7.179335 0 0 0 7.17913,7.17913 7.179335,7.179335 0 0 0 7.17916,-7.17913 7.179335,7.179335 0 0 0 -7.17916,-7.17989 z m -57.81254,0.076 a 7.1037632,7.1037632 0 0 0 -7.10385,7.10389 7.1037632,7.1037632 0 0 0 7.10385,7.10312 7.1037632,7.1037632 0 0 0 7.10385,-7.10312 7.1037632,7.1037632 0 0 0 -7.10385,-7.10389 z m 96.35423,0.0378 a 7.0659773,7.0659773 0 0 0 -7.06623,7.06623 7.0659773,7.0659773 0 0 0 7.06623,7.06546 7.0659773,7.0659773 0 0 0 7.06623,-7.06546 7.0659773,7.0659773 0 0 0 -7.06623,-7.06623 z m 250.521,0.22658 a 6.8392616,6.8392616 0 0 0 -6.83964,6.83965 6.8392616,6.8392616 0 0 0 6.83964,6.83888 6.8392616,6.8392616 0 0 0 6.83888,-6.83888 6.8392616,6.8392616 0 0 0 -6.83888,-6.83965 z m 211.97932,0.49156 a 6.3480438,6.3480438 0 0 0 -6.34809,6.34809 6.3480438,6.3480438 0 0 0 6.34809,6.34809 6.3480438,6.3480438 0 0 0 6.34808,-6.34809 6.3480438,6.3480438 0 0 0 -6.34808,-6.34809 z m -385.416939,0.33948 a 6.0079697,6.0079697 0 0 0 -6.007841,6.00861 6.0079697,6.0079697 0 0 0 6.007841,6.00784 6.0079697,6.0079697 0 0 0 6.00784,-6.00784 6.0079697,6.0079697 0 0 0 -6.00784,-6.00861 z m -154.166771,0.34028 a 5.6678963,5.6678963 0 0 0 -5.66832,5.66833 5.6678963,5.6678963 0 0 0 5.66832,5.66759 5.6678963,5.6678963 0 0 0 5.6676,-5.66759 5.6678963,5.6678963 0 0 0 -5.6676,-5.66833 z m 462.50032,0.076 a 5.5923241,5.5923241 0 0 0 -5.59232,5.59232 5.5923241,5.5923241 0 0 0 5.59232,5.59232 5.5923241,5.5923241 0 0 0 5.59232,-5.59232 5.5923241,5.5923241 0 0 0 -5.59232,-5.59232 z m -96.35423,0.94396 a 4.6476745,4.6476745 0 0 0 -4.64759,4.64836 4.6476745,4.6476745 0 0 0 4.64759,4.64759 4.6476745,4.6476745 0 0 0 4.64759,-4.64759 4.6476745,4.6476745 0 0 0 -4.64759,-4.64836 z m -154.1667796,0.1137 a 4.5343173,4.5343173 0 0 0 -4.53466144,4.53466 4.5343173,4.5343173 0 0 0 4.53466144,4.53393 4.5343173,4.5343173 0 0 0 4.5339292,-4.53393 4.5343173,4.5343173 0 0 0 -4.5339292,-4.53466 z m -96.3542324,0.0753 a 4.4587451,4.4587451 0 0 0 -4.458658,4.45939 4.4587451,4.4587451 0 0 0 4.458658,4.45862 4.4587451,4.4587451 0 0 0 4.458657,-4.45862 4.4587451,4.4587451 0 0 0 -4.458657,-4.45939 z m -173.437618,1.3226 a 3.1362361,3.1362361 0 0 0 -3.13602,3.13679 3.1362361,3.1362361 0 0 0 3.13602,3.13602 3.1362361,3.1362361 0 0 0 3.13603,-3.13602 3.1362361,3.1362361 0 0 0 -3.13603,-3.13679 z m -96.35423,0.49156 a 2.6450184,2.6450184 0 0 0 -2.64523,2.64523 2.6450184,2.6450184 0 0 0 2.64523,2.64446 2.6450184,2.6450184 0 0 0 2.64523,-2.64446 2.6450184,2.6450184 0 0 0 -2.64523,-2.64523 z m 404.687773,0.49079 a 2.1538005,2.1538005 0 0 0 -2.153671,2.15444 2.1538005,2.1538005 0 0 0 2.153671,2.15367 2.1538005,2.1538005 0 0 0 2.153671,-2.15367 2.1538005,2.1538005 0 0 0 -2.153671,-2.15444 z m 192.708467,0.0385 a 2.1160146,2.1160146 0 0 0 -2.11601,2.11601 2.1160146,2.1160146 0 0 0 2.11601,2.11602 2.1160146,2.1160146 0 0 0 2.11602,-2.11602 2.1160146,2.1160146 0 0 0 -2.11602,-2.11601 z M 61.9577,314.95506 a 1.3980811,1.3980811 0 0 0 -1.397869,1.39863 1.3980811,1.3980811 0 0 0 1.397869,1.39787 1.3980811,1.3980811 0 0 0 1.397907,-1.39787 1.3980811,1.3980811 0 0 0 -1.397907,-1.39863 z m 115.62508,0 a 1.3980811,1.3980811 0 0 0 -1.39787,1.39863 1.3980811,1.3980811 0 0 0 1.39787,1.39787 1.3980811,1.3980811 0 0 0 1.39791,-1.39787 1.3980811,1.3980811 0 0 0 -1.39791,-1.39863 z m -192.708466,0.15117 a 1.2469372,1.2469372 0 0 0 -1.247325,1.24732 1.2469372,1.2469372 0 0 0 1.247325,1.2466 1.2469372,1.2469372 0 0 0 1.246592,-1.2466 1.2469372,1.2469372 0 0 0 -1.246592,-1.24732 z m -173.437614,0.18893 a 1.0580073,1.0580073 0 0 0 -1.05839,1.05839 1.0580073,1.0580073 0 0 0 1.05839,1.05763 1.0580073,1.0580073 0 0 0 1.05762,-1.05763 1.0580073,1.0580073 0 0 0 -1.05762,-1.05839 z m -57.81254,0.45317 a 0.60457563,0.60457563 0 0 0 -0.60449,0.60522 0.60457563,0.60457563 0 0 0 0.60449,0.60445 0.60457563,0.60457563 0 0 0 0.60449,-0.60445 0.60457563,0.60457563 0 0 0 -0.60449,-0.60522 z m 173.437614,0.26498 a 0.34007378,0.34007378 0 0 0 -0.340246,0.34024 0.34007378,0.34007378 0 0 0 0.340246,0.33948 0.34007378,0.34007378 0 0 0 0.340246,-0.33948 0.34007378,0.34007378 0 0 0 -0.340246,-0.34024 z m 423.958626,0.0378 a 0.30228781,0.30228781 0 0 0 -0.30263,0.30263 0.30228781,0.30228781 0 0 0 0.30263,0.30186 0.30228781,0.30228781 0 0 0 0.30186,-0.30186 0.30228781,0.30228781 0 0 0 -0.30186,-0.30263 z m -732.29216,0.26424 a 0.03778599,0.03778599 0 0 0 -0.0377,0.0385 0.03778599,0.03778599 0 0 0 0.0377,0.0378 0.03778599,0.03778599 0 0 0 0.0376,-0.0378 0.03778599,0.03778599 0 0 0 -0.0376,-0.0385 z m 481.77116,14.5856 a 4.7232467,4.7232467 0 0 0 -4.723639,4.72364 4.7232467,4.7232467 0 0 0 4.723639,4.72286 4.7232467,4.7232467 0 0 0 4.72286,-4.72286 4.7232467,4.7232467 0 0 0 -4.72286,-4.72364 z m -404.68778,0.0378 a 4.6854608,4.6854608 0 0 0 -4.6852,4.68597 4.6854608,4.6854608 0 0 0 4.6852,4.68521 4.6854608,4.6854608 0 0 0 4.68524,-4.68521 4.6854608,4.6854608 0 0 0 -4.68524,-4.68597 z m 154.16677,0 a 4.6854608,4.6854608 0 0 0 -4.6852,4.68597 4.6854608,4.6854608 0 0 0 4.6852,4.68521 4.6854608,4.6854608 0 0 0 4.68525,-4.68521 4.6854608,4.6854608 0 0 0 -4.68525,-4.68597 z m -173.43762,0.076 a 4.6098886,4.6098886 0 0 0 -4.60993,4.60993 4.6098886,4.6098886 0 0 0 4.60993,4.60993 4.6098886,4.6098886 0 0 0 4.60994,-4.60993 4.6098886,4.6098886 0 0 0 -4.60994,-4.60993 z m 539.58371,0 a 4.6098886,4.6098886 0 0 0 -4.60994,4.60993 4.6098886,4.6098886 0 0 0 4.60994,4.60993 4.6098886,4.6098886 0 0 0 4.60993,-4.60993 4.6098886,4.6098886 0 0 0 -4.60993,-4.60993 z m 57.81254,0.18893 a 4.4209592,4.4209592 0 0 0 -4.42101,4.421 4.4209592,4.4209592 0 0 0 4.42101,4.421 4.4209592,4.4209592 0 0 0 4.421,-4.421 4.4209592,4.4209592 0 0 0 -4.421,-4.421 z m -250.521013,0.83104 a 3.5896678,3.5896678 0 0 0 -3.589928,3.58996 3.5896678,3.5896678 0 0 0 3.589928,3.5892 3.5896678,3.5896678 0 0 0 3.589966,-3.5892 3.5896678,3.5896678 0 0 0 -3.589966,-3.58996 z m 269.791853,0 a 3.5896678,3.5896678 0 0 0 -3.58992,3.58996 3.5896678,3.5896678 0 0 0 3.58992,3.5892 3.5896678,3.5896678 0 0 0 3.58997,-3.5892 3.5896678,3.5896678 0 0 0 -3.58997,-3.58996 z m -154.16677,0.18897 a 3.4007378,3.4007378 0 0 0 -3.401,3.40099 3.4007378,3.4007378 0 0 0 3.401,3.40027 3.4007378,3.4007378 0 0 0 3.401,-3.40027 3.4007378,3.4007378 0 0 0 -3.401,-3.40099 z m -250.521,0.18893 a 3.2118078,3.2118078 0 0 0 -3.21207,3.21206 3.2118078,3.2118078 0 0 0 3.21207,3.2113 3.2118078,3.2118078 0 0 0 3.21206,-3.2113 3.2118078,3.2118078 0 0 0 -3.21206,-3.21206 z m -115.62508,0.0378 a 3.174022,3.174022 0 0 0 -3.17441,3.17441 3.174022,3.174022 0 0 0 3.17441,3.17367 3.174022,3.174022 0 0 0 3.17367,-3.17367 3.174022,3.174022 0 0 0 -3.17367,-3.17441 z m 192.708457,0.0378 a 3.1362361,3.1362361 0 0 0 -3.136022,3.13679 3.1362361,3.1362361 0 0 0 3.136022,3.13602 3.1362361,3.1362361 0 0 0 3.136022,-3.13602 3.1362361,3.1362361 0 0 0 -3.136022,-3.13679 z m -96.354227,0.18893 a 2.9473061,2.9473061 0 0 0 -2.94709,2.94786 2.9473061,2.9473061 0 0 0 2.94709,2.94709 2.9473061,2.9473061 0 0 0 2.94709,-2.94709 2.9473061,2.9473061 0 0 0 -2.94709,-2.94786 z m 327.60439,0.0385 a 2.9095203,2.9095203 0 0 0 -2.90944,2.90944 2.9095203,2.9095203 0 0 0 2.90944,2.90943 2.9095203,2.9095203 0 0 0 2.90944,-2.90943 2.9095203,2.9095203 0 0 0 -2.90944,-2.90944 z m 134.89593,0.0753 a 2.8339482,2.8339482 0 0 0 -2.83417,2.83417 2.8339482,2.8339482 0 0 0 2.83417,2.83339 2.8339482,2.8339482 0 0 0 2.83416,-2.83339 2.8339482,2.8339482 0 0 0 -2.83416,-2.83417 z m -19.27085,0.11289 a 2.7205903,2.7205903 0 0 0 -2.7205,2.72128 2.7205903,2.7205903 0 0 0 2.7205,2.7205 2.7205903,2.7205903 0 0 0 2.7205,-2.7205 2.7205903,2.7205903 0 0 0 -2.7205,-2.72128 z m -231.250164,0.0385 a 2.6828044,2.6828044 0 0 0 -2.682849,2.68285 2.6828044,2.6828044 0 0 0 2.682849,2.68285 2.6828044,2.6828044 0 0 0 2.682849,-2.68285 2.6828044,2.6828044 0 0 0 -2.682849,-2.68285 z m 38.541694,0 a 2.6828044,2.6828044 0 0 0 -2.68284,2.68285 2.6828044,2.6828044 0 0 0 2.68284,2.68285 2.6828044,2.6828044 0 0 0 2.68285,-2.68285 2.6828044,2.6828044 0 0 0 -2.68285,-2.68285 z m -327.60439,0.15055 a 2.5316604,2.5316604 0 0 0 -2.53157,2.5323 2.5316604,2.5316604 0 0 0 2.53157,2.53154 2.5316604,2.5316604 0 0 0 2.53158,-2.53154 2.5316604,2.5316604 0 0 0 -2.53158,-2.5323 z m -77.08338,0.0385 a 2.4938744,2.4938744 0 0 0 -2.49392,2.49392 2.4938744,2.4938744 0 0 0 2.49392,2.49391 2.4938744,2.4938744 0 0 0 2.49391,-2.49391 2.4938744,2.4938744 0 0 0 -2.49391,-2.49392 z m 443.22947,0.11293 a 2.3805163,2.3805163 0 0 0 -2.38026,2.38099 2.3805163,2.3805163 0 0 0 2.38026,2.38025 2.3805163,2.3805163 0 0 0 2.38026,-2.38025 2.3805163,2.3805163 0 0 0 -2.38026,-2.38099 z m -501.04201,0.11366 a 2.2671586,2.2671586 0 0 0 -2.26733,2.26733 2.2671586,2.2671586 0 0 0 2.26733,2.26656 2.2671586,2.2671586 0 0 0 2.26733,-2.26656 2.2671586,2.2671586 0 0 0 -2.26733,-2.26733 z m 289.062691,0 a 2.2671586,2.2671586 0 0 0 -2.267331,2.26733 2.2671586,2.2671586 0 0 0 2.267331,2.26656 2.2671586,2.2671586 0 0 0 2.26733,-2.26656 2.2671586,2.2671586 0 0 0 -2.26733,-2.26733 z m -115.625071,0.11288 a 2.1538005,2.1538005 0 0 0 -2.15367,2.15445 2.1538005,2.1538005 0 0 0 2.15367,2.15367 2.1538005,2.1538005 0 0 0 2.15367,-2.15367 2.1538005,2.1538005 0 0 0 -2.15367,-2.15445 z m 77.083378,0.18897 a 1.9648706,1.9648706 0 0 0 -1.964702,1.96548 1.9648706,1.9648706 0 0 0 1.964702,1.9647 1.9648706,1.9648706 0 0 0 1.96474,-1.9647 1.9648706,1.9648706 0 0 0 -1.96474,-1.96548 z m 96.3542324,0.45391 a 1.5114391,1.5114391 0 0 0 -1.5115666,1.51157 1.5114391,1.5114391 0 0 0 1.5115666,1.51079 1.5114391,1.5114391 0 0 0 1.5115667,-1.51079 1.5114391,1.5114391 0 0 0 -1.5115667,-1.51157 z m 250.5210096,0.15131 a 1.3602951,1.3602951 0 0 0 -1.36025,1.36026 1.3602951,1.3602951 0 0 0 1.36025,1.36025 1.3602951,1.3602951 0 0 0 1.36025,-1.36025 1.3602951,1.3602951 0 0 0 -1.36025,-1.36026 z m -19.27085,0.15055 a 1.2091513,1.2091513 0 0 0 -1.20893,1.20971 1.2091513,1.2091513 0 0 0 1.20893,1.20893 1.2091513,1.2091513 0 0 0 1.20894,-1.20893 1.2091513,1.2091513 0 0 0 -1.20894,-1.20971 z m -192.708467,0.56683 a 0.6423616,0.6423616 0 0 0 -0.642104,0.64288 0.6423616,0.6423616 0 0 0 0.642104,0.6421 0.6423616,0.6423616 0 0 0 0.642105,-0.6421 0.6423616,0.6423616 0 0 0 -0.642105,-0.64288 z m -308.333543,0.34025 a 0.30228781,0.30228781 0 0 0 -0.30263,0.30263 0.30228781,0.30228781 0 0 0 0.30263,0.30185 0.30228781,0.30228781 0 0 0 0.30186,-0.30185 0.30228781,0.30228781 0 0 0 -0.30186,-0.30263 z m 250.521004,0.0378 a 0.26450182,0.26450182 0 0 0 -0.264204,0.26497 0.26450182,0.26450182 0 0 0 0.264204,0.26421 0.26450182,0.26450182 0 0 0 0.264241,-0.26421 0.26450182,0.26450182 0 0 0 -0.264241,-0.26497 z m 192.708466,0 a 0.26450182,0.26450182 0 0 0 -0.2642,0.26497 0.26450182,0.26450182 0 0 0 0.2642,0.26421 0.26450182,0.26450182 0 0 0 0.26425,-0.26421 0.26450182,0.26450182 0 0 0 -0.26425,-0.26497 z m -539.5837,0.0378 a 0.22671583,0.22671583 0 0 0 -0.22658,0.22736 0.22671583,0.22671583 0 0 0 0.22658,0.22658 0.22671583,0.22671583 0 0 0 0.22659,-0.22658 0.22671583,0.22671583 0 0 0 -0.22659,-0.22736 z m 115.62508,0 a 0.22671583,0.22671583 0 0 0 -0.22659,0.22736 0.22671583,0.22671583 0 0 0 0.22659,0.22658 0.22671583,0.22671583 0 0 0 0.22659,-0.22658 0.22671583,0.22671583 0 0 0 -0.22659,-0.22736 z m 308.319973,0.0385 a 0.18892984,0.18892984 0 0 0 -0.175365,0.18893 0.18892984,0.18892984 0 0 0 0.188932,0.18893 0.18892984,0.18892984 0 0 0 0.188931,-0.18893 0.18892984,0.18892984 0 0 0 -0.188931,-0.18893 0.18892984,0.18892984 0 0 0 -0.01349,0 z m -250.517953,0.0378 a 0.15114395,0.15114395 0 0 0 -0.14079,0.15132 0.15114395,0.15114395 0 0 0 0.15131,0.15054 0.15114395,0.15114395 0 0 0 0.15131,-0.15054 0.15114395,0.15114395 0 0 0 -0.15131,-0.15132 0.15114395,0.15114395 0 0 0 -0.0104,0 z m 539.58594,0.0378 a 0.11335796,0.11335796 0 0 0 -0.10538,0.11366 0.11335796,0.11335796 0 0 0 0.11366,0.11293 0.11335796,0.11335796 0 0 0 0.11293,-0.11293 0.11335796,0.11335796 0 0 0 -0.11293,-0.11366 0.11335796,0.11335796 0 0 0 -0.008,0 z m -423.955626,0.0378 a 0.07557197,0.07557197 0 0 0 -0.06999,0.0761 0.07557197,0.07557197 0 0 0 0.07527,0.0753 0.07557197,0.07557197 0 0 0 0.07527,-0.0753 0.07557197,0.07557197 0 0 0 -0.07527,-0.0761 0.07557197,0.07557197 0 0 0 -0.0054,0 z m -231.258444,19.15796 a 0.18892984,0.18892984 0 0 0 -0.17536,0.18893 0.18892984,0.18892984 0 0 0 0.18893,0.18893 0.18892984,0.18892984 0 0 0 0.18893,-0.18893 0.18892984,0.18892984 0 0 0 -0.18893,-0.18893 0.18892984,0.18892984 0 0 0 -0.0135,0 z m 154.16678,0 a 0.18892984,0.18892984 0 0 0 -0.17537,0.18893 0.18892984,0.18892984 0 0 0 0.18893,0.18893 0.18892984,0.18892984 0 0 0 0.18893,-0.18893 0.18892984,0.18892984 0 0 0 -0.18893,-0.18893 0.18892984,0.18892984 0 0 0 -0.0135,0 z m 250.521,0 a 0.18892984,0.18892984 0 0 0 -0.17536,0.18893 0.18892984,0.18892984 0 0 0 0.18893,0.18893 0.18892984,0.18892984 0 0 0 0.18893,-0.18893 0.18892984,0.18892984 0 0 0 -0.18893,-0.18893 0.18892984,0.18892984 0 0 0 -0.0135,0 z m 115.62508,0 a 0.18892984,0.18892984 0 0 0 -0.17536,0.18893 0.18892984,0.18892984 0 0 0 0.18893,0.18893 0.18892984,0.18892984 0 0 0 0.18893,-0.18893 0.18892984,0.18892984 0 0 0 -0.18893,-0.18893 0.18892984,0.18892984 0 0 0 -0.0135,0 z m -539.58066,0.0378 a 0.15114395,0.15114395 0 0 0 -0.14079,0.15132 0.15114395,0.15114395 0 0 0 0.15131,0.15054 0.15114395,0.15114395 0 0 0 0.15132,-0.15054 0.15114395,0.15114395 0 0 0 -0.15132,-0.15132 0.15114395,0.15114395 0 0 0 -0.0104,0 z m 597.39624,0 a 0.15114395,0.15114395 0 0 0 -0.14079,0.15132 0.15114395,0.15114395 0 0 0 0.15132,0.15054 0.15114395,0.15114395 0 0 0 0.15131,-0.15054 0.15114395,0.15114395 0 0 0 -0.15131,-0.15132 0.15114395,0.15114395 0 0 0 -0.0104,0 z m 19.27309,0.0378 a 0.11335796,0.11335796 0 0 0 -0.10538,0.11366 0.11335796,0.11335796 0 0 0 0.11366,0.11293 0.11335796,0.11335796 0 0 0 0.11293,-0.11293 0.11335796,0.11335796 0 0 0 -0.11293,-0.11366 0.11335796,0.11335796 0 0 0 -0.008,0 z m -520.30985,0.0378 a 0.07557197,0.07557197 0 0 0 -0.0708,0.0761 0.07557197,0.07557197 0 0 0 0.0761,0.0753 0.07557197,0.07557197 0 0 0 0.0753,-0.0753 0.07557197,0.07557197 0 0 0 -0.0753,-0.0761 0.07557197,0.07557197 0 0 0 -0.005,0 z m 19.27084,0 a 0.07557197,0.07557197 0 0 0 -0.0708,0.0761 0.07557197,0.07557197 0 0 0 0.076,0.0753 0.07557197,0.07557197 0 0 0 0.0753,-0.0753 0.07557197,0.07557197 0 0 0 -0.0753,-0.0761 0.07557197,0.07557197 0 0 0 -0.005,0 z m 77.08339,0 a 0.07557197,0.07557197 0 0 0 -0.07,0.0761 0.07557197,0.07557197 0 0 0 0.0753,0.0753 0.07557197,0.07557197 0 0 0 0.0753,-0.0753 0.07557197,0.07557197 0 0 0 -0.0753,-0.0761 0.07557197,0.07557197 0 0 0 -0.005,0 z m 19.27085,0 a 0.07557197,0.07557197 0 0 0 -0.07,0.0761 0.07557197,0.07557197 0 0 0 0.0753,0.0753 0.07557197,0.07557197 0 0 0 0.0753,-0.0753 0.07557197,0.07557197 0 0 0 -0.0753,-0.0761 0.07557197,0.07557197 0 0 0 -0.005,0 z m 77.083377,0 a 0.07557197,0.07557197 0 0 0 -0.06999,0.0761 0.07557197,0.07557197 0 0 0 0.07527,0.0753 0.07557197,0.07557197 0 0 0 0.07527,-0.0753 0.07557197,0.07557197 0 0 0 -0.07527,-0.0761 0.07557197,0.07557197 0 0 0 -0.0054,0 z m 57.812539,0 a 0.07557197,0.07557197 0 0 0 -0.06999,0.0761 0.07557197,0.07557197 0 0 0 0.07527,0.0753 0.07557197,0.07557197 0 0 0 0.07527,-0.0753 0.07557197,0.07557197 0 0 0 -0.07527,-0.0761 0.07557197,0.07557197 0 0 0 -0.0054,0 z m 57.81254,0 a 0.07557197,0.07557197 0 0 0 -0.06999,0.0761 0.07557197,0.07557197 0 0 0 0.07527,0.0753 0.07557197,0.07557197 0 0 0 0.07527,-0.0753 0.07557197,0.07557197 0 0 0 -0.07527,-0.0761 0.07557197,0.07557197 0 0 0 -0.0054,0 z m 57.812544,0 a 0.07557197,0.07557197 0 0 0 -0.07,0.0761 0.07557197,0.07557197 0 0 0 0.0753,0.0753 0.07557197,0.07557197 0 0 0 0.0753,-0.0753 0.07557197,0.07557197 0 0 0 -0.0753,-0.0761 0.07557197,0.07557197 0 0 0 -0.005,0 z m 19.27085,0 a 0.07557197,0.07557197 0 0 0 -0.07,0.0761 0.07557197,0.07557197 0 0 0 0.0753,0.0753 0.07557197,0.07557197 0 0 0 0.0753,-0.0753 0.07557197,0.07557197 0 0 0 -0.0753,-0.0761 0.07557197,0.07557197 0 0 0 -0.005,0 z m 38.54169,0 a 0.07557197,0.07557197 0 0 0 -0.0708,0.0761 0.07557197,0.07557197 0 0 0 0.076,0.0753 0.07557197,0.07557197 0 0 0 0.0753,-0.0753 0.07557197,0.07557197 0 0 0 -0.0753,-0.0761 0.07557197,0.07557197 0 0 0 -0.005,0 z m 134.89593,0 a 0.07557197,0.07557197 0 0 0 -0.0708,0.0761 0.07557197,0.07557197 0 0 0 0.0761,0.0753 0.07557197,0.07557197 0 0 0 0.0753,-0.0753 0.07557197,0.07557197 0 0 0 -0.0753,-0.0761 0.07557197,0.07557197 0 0 0 -0.005,0 z m -674.47435,0.0378 a 0.03778599,0.03778599 0 0 0 -0.0378,0.0385 0.03778599,0.03778599 0 0 0 0.0378,0.0378 0.03778599,0.03778599 0 0 0 0.0378,-0.0378 0.03778599,0.03778599 0 0 0 -0.0378,-0.0385 z m 57.81254,0 a 0.03778599,0.03778599 0 0 0 -0.0378,0.0385 0.03778599,0.03778599 0 0 0 0.0378,0.0378 0.03778599,0.03778599 0 0 0 0.0378,-0.0378 0.03778599,0.03778599 0 0 0 -0.0378,-0.0385 z m 115.62508,0 a 0.03778599,0.03778599 0 0 0 -0.0378,0.0385 0.03778599,0.03778599 0 0 0 0.0378,0.0378 0.03778599,0.03778599 0 0 0 0.0378,-0.0378 0.03778599,0.03778599 0 0 0 -0.0378,-0.0385 z m 77.083378,0 a 0.03778599,0.03778599 0 0 0 -0.03777,0.0385 0.03778599,0.03778599 0 0 0 0.03777,0.0378 0.03778599,0.03778599 0 0 0 0.03777,-0.0378 0.03778599,0.03778599 0 0 0 -0.03777,-0.0385 z m 38.541693,0 a 0.03778599,0.03778599 0 0 0 -0.03777,0.0385 0.03778599,0.03778599 0 0 0 0.03777,0.0378 0.03778599,0.03778599 0 0 0 0.03777,-0.0378 0.03778599,0.03778599 0 0 0 -0.03777,-0.0385 z m 57.8125394,0 a 0.03778599,0.03778599 0 0 0 -0.037771,0.0385 0.03778599,0.03778599 0 0 0 0.037771,0.0378 0.03778599,0.03778599 0 0 0 0.037771,-0.0378 0.03778599,0.03778599 0 0 0 -0.037771,-0.0385 z m 115.6250796,0 a 0.03778599,0.03778599 0 0 0 -0.0378,0.0385 0.03778599,0.03778599 0 0 0 0.0378,0.0378 0.03778599,0.03778599 0 0 0 0.0378,-0.0378 0.03778599,0.03778599 0 0 0 -0.0378,-0.0385 z m 115.62508,0 a 0.03778599,0.03778599 0 0 0 -0.0378,0.0385 0.03778599,0.03778599 0 0 0 0.0378,0.0378 0.03778599,0.03778599 0 0 0 0.0378,-0.0378 0.03778599,0.03778599 0 0 0 -0.0378,-0.0385 z m 77.08339,0 a 0.03778599,0.03778599 0 0 0 -0.0378,0.0385 0.03778599,0.03778599 0 0 0 0.0378,0.0378 0.03778599,0.03778599 0 0 0 0.0378,-0.0378 0.03778599,0.03778599 0 0 0 -0.0378,-0.0385 z"
         style="opacity:1;fill:#e65100;fill-opacity:1;fill-rule:nonzero;stroke:none;stroke-width:0.00392157;stroke-linecap:round;stroke-linejoin:miter;stroke-miterlimit:4;stroke-dasharray:none;stroke-dashoffset:0;stroke-opacity:1;paint-order:normal" />
      <g
         transform="translate(0,66.936861)"
         id="g13728" />
    </g>
  </g>
</svg>
