<?xml version="1.0" encoding="UTF-8" standalone="no"?>
<!-- Created with Inkscape (http://www.inkscape.org/) -->

<svg
   xmlns:dc="http://purl.org/dc/elements/1.1/"
   xmlns:cc="http://creativecommons.org/ns#"
   xmlns:rdf="http://www.w3.org/1999/02/22-rdf-syntax-ns#"
   xmlns:svg="http://www.w3.org/2000/svg"
   xmlns="http://www.w3.org/2000/svg"
   xmlns:sodipodi="http://sodipodi.sourceforge.net/DTD/sodipodi-0.dtd"
   xmlns:inkscape="http://www.inkscape.org/namespaces/inkscape"
   sodipodi:docname="uluwatu oneline.svg"
   inkscape:version="0.92.1 r"
   id="svg8"
   version="1.1"
   viewBox="0 0 1016 571.5"
   height="571.5mm"
   width="1016mm"
   inkscape:export-filename="/home/belthsazar2/blankon-uluwatu-kesenian/gambar-latar/bliem/uluwatu oneline.png"
   inkscape:export-xdpi="96.010002"
   inkscape:export-ydpi="96.010002">
  <title
     id="title19792">Uluwatu One Line</title>
  <sodipodi:namedview
     inkscape:snap-intersection-paths="true"
     inkscape:object-paths="true"
     inkscape:snap-midpoints="true"
     inkscape:snap-smooth-nodes="true"
     inkscape:snap-nodes="true"
     fit-margin-bottom="0"
     fit-margin-right="0"
     fit-margin-left="0"
     fit-margin-top="0"
     showgrid="false"
     inkscape:current-layer="layer1"
     inkscape:document-units="mm"
     inkscape:cy="560"
     inkscape:cx="400"
     inkscape:zoom="0.35"
     inkscape:pageshadow="2"
     inkscape:pageopacity="0.0"
     borderopacity="1.0"
     bordercolor="#666666"
     pagecolor="#ffffff"
     id="base" />
  <defs
     id="defs2">
    <inkscape:path-effect
       effect="bspline"
       id="path-effect4631"
       is_visible="true"
       weight="33.333333"
       steps="2"
       helper_size="0"
       apply_no_weight="true"
       apply_with_weight="true"
       only_selected="false" />
  </defs>
  <metadata
     id="metadata5">
    <rdf:RDF>
      <cc:Work
         rdf:about="">
        <dc:format>image/svg+xml</dc:format>
        <dc:type
           rdf:resource="http://purl.org/dc/dcmitype/StillImage" />
        <dc:title>Uluwatu One Line</dc:title>
        <dc:creator>
          <cc:Agent>
            <dc:title>Vikko Okviandho Liem</dc:title>
          </cc:Agent>
        </dc:creator>
        <dc:publisher>
          <cc:Agent>
            <dc:title>Belthsazar Liem of ISO-arts</dc:title>
          </cc:Agent>
        </dc:publisher>
        <dc:date>2017-03-27</dc:date>
      </cc:Work>
    </rdf:RDF>
  </metadata>
  <g
     transform="translate(523.21881,46.406487)"
     id="layer1"
     inkscape:groupmode="layer"
     inkscape:label="Layer 1">
    <rect
       y="-46.406487"
       x="-523.21881"
       height="571.5"
       width="1016"
       id="rect4485"
       style="opacity:1;fill:#fff3e0;fill-opacity:1;fill-rule:nonzero;stroke:none;stroke-width:0.52916664;stroke-linecap:round;stroke-linejoin:round;stroke-miterlimit:4;stroke-dasharray:none;stroke-dashoffset:0;stroke-opacity:1;paint-order:normal" />
    <g
       id="g19713"
       transform="matrix(1,0,0,1.125897,0,5.8424375)"
       style="stroke-width:0.94243336">
      <path
         id="path19679"
         style="opacity:1;fill:#ea6c25;fill-opacity:1;fill-rule:nonzero;stroke:none;stroke-width:0.49870428;stroke-linecap:round;stroke-linejoin:round;stroke-miterlimit:4;stroke-dasharray:none;stroke-dashoffset:0;stroke-opacity:1;paint-order:normal"
         d="m -523.21881,425.47004 c 0,0 1016,0 1016,0 0,0 0,35.71875 0,35.71875 0,0 -1016,0 -1016,0 0,0 0,-35.71875 0,-35.71875"
         inkscape:connector-curvature="0" />
      <path
         id="path19681"
         style="opacity:1;fill:#df6a2e;fill-opacity:1;fill-rule:nonzero;stroke:none;stroke-width:0.49870428;stroke-linecap:round;stroke-linejoin:round;stroke-miterlimit:4;stroke-dasharray:none;stroke-dashoffset:0;stroke-opacity:1;paint-order:normal"
         d="m -523.21881,395.97776 c 0,0 1016,0 1016,0 0,0 0,35.71875 0,35.71875 0,0 -1016,0 -1016,0 0,0 0,-35.71875 0,-35.71875"
         inkscape:connector-curvature="0" />
      <path
         id="path19683"
         style="opacity:1;fill:#d46837;fill-opacity:1;fill-rule:nonzero;stroke:none;stroke-width:0.49870428;stroke-linecap:round;stroke-linejoin:round;stroke-miterlimit:4;stroke-dasharray:none;stroke-dashoffset:0;stroke-opacity:1;paint-order:normal"
         d="m -523.21881,366.48547 c 0,0 1016,0 1016,0 0,0 0,35.71875 0,35.71875 0,0 -1016,0 -1016,0 0,0 0,-35.71875 0,-35.71875"
         inkscape:connector-curvature="0" />
      <path
         id="path19685"
         style="opacity:1;fill:#c96640;fill-opacity:1;fill-rule:nonzero;stroke:none;stroke-width:0.49870428;stroke-linecap:round;stroke-linejoin:round;stroke-miterlimit:4;stroke-dasharray:none;stroke-dashoffset:0;stroke-opacity:1;paint-order:normal"
         d="m -523.21881,336.99319 c 0,0 1016,0 1016,0 0,0 0,35.71875 0,35.71875 0,0 -1016,0 -1016,0 0,0 0,-35.71875 0,-35.71875"
         inkscape:connector-curvature="0" />
      <path
         id="path19687"
         style="opacity:1;fill:#bf6549;fill-opacity:1;fill-rule:nonzero;stroke:none;stroke-width:0.49870428;stroke-linecap:round;stroke-linejoin:round;stroke-miterlimit:4;stroke-dasharray:none;stroke-dashoffset:0;stroke-opacity:1;paint-order:normal"
         d="m -523.21881,307.50091 c 0,0 1016,0 1016,0 0,0 0,35.71875 0,35.71875 0,0 -1016,0 -1016,0 0,0 0,-35.71875 0,-35.71875"
         inkscape:connector-curvature="0" />
      <path
         id="path19689"
         style="opacity:1;fill:#b46352;fill-opacity:1;fill-rule:nonzero;stroke:none;stroke-width:0.49870428;stroke-linecap:round;stroke-linejoin:round;stroke-miterlimit:4;stroke-dasharray:none;stroke-dashoffset:0;stroke-opacity:1;paint-order:normal"
         d="m -523.21881,278.00863 c 0,0 1016,0 1016,0 0,0 0,35.71875 0,35.71875 0,0 -1016,0 -1016,0 0,0 0,-35.71875 0,-35.71875"
         inkscape:connector-curvature="0" />
      <path
         id="path19691"
         style="opacity:1;fill:#a9615b;fill-opacity:1;fill-rule:nonzero;stroke:none;stroke-width:0.49870428;stroke-linecap:round;stroke-linejoin:round;stroke-miterlimit:4;stroke-dasharray:none;stroke-dashoffset:0;stroke-opacity:1;paint-order:normal"
         d="m -523.21881,248.51634 c 0,0 1016,0 1016,0 0,0 0,35.71875 0,35.71875 0,0 -1016,0 -1016,0 0,0 0,-35.71875 0,-35.71875"
         inkscape:connector-curvature="0" />
      <path
         id="path19693"
         style="opacity:1;fill:#9f6064;fill-opacity:1;fill-rule:nonzero;stroke:none;stroke-width:0.49870428;stroke-linecap:round;stroke-linejoin:round;stroke-miterlimit:4;stroke-dasharray:none;stroke-dashoffset:0;stroke-opacity:1;paint-order:normal"
         d="m -523.21881,219.02406 c 0,0 1016,0 1016,0 0,0 0,35.71875 0,35.71875 0,0 -1016,0 -1016,0 0,0 0,-35.71875 0,-35.71875"
         inkscape:connector-curvature="0" />
      <path
         id="path19695"
         style="opacity:1;fill:#945e6d;fill-opacity:1;fill-rule:nonzero;stroke:none;stroke-width:0.49870428;stroke-linecap:round;stroke-linejoin:round;stroke-miterlimit:4;stroke-dasharray:none;stroke-dashoffset:0;stroke-opacity:1;paint-order:normal"
         d="m -523.21881,189.53178 c 0,0 1016,0 1016,0 0,0 0,35.71875 0,35.71875 0,0 -1016,0 -1016,0 0,0 0,-35.71875 0,-35.71875"
         inkscape:connector-curvature="0" />
      <path
         id="path19697"
         style="opacity:1;fill:#895c76;fill-opacity:1;fill-rule:nonzero;stroke:none;stroke-width:0.49870428;stroke-linecap:round;stroke-linejoin:round;stroke-miterlimit:4;stroke-dasharray:none;stroke-dashoffset:0;stroke-opacity:1;paint-order:normal"
         d="m -523.21881,160.03949 c 0,0 1016,0 1016,0 0,0 0,35.71875 0,35.71875 0,0 -1016,0 -1016,0 0,0 0,-35.71875 0,-35.71875"
         inkscape:connector-curvature="0" />
      <path
         id="path19699"
         style="opacity:1;fill:#7f5b7f;fill-opacity:1;fill-rule:nonzero;stroke:none;stroke-width:0.49870428;stroke-linecap:round;stroke-linejoin:round;stroke-miterlimit:4;stroke-dasharray:none;stroke-dashoffset:0;stroke-opacity:1;paint-order:normal"
         d="m -523.21881,130.54721 c 0,0 1016,0 1016,0 0,0 0,35.71875 0,35.71875 0,0 -1016,0 -1016,0 0,0 0,-35.71875 0,-35.71875"
         inkscape:connector-curvature="0" />
      <path
         id="path19701"
         style="opacity:1;fill:#745988;fill-opacity:1;fill-rule:nonzero;stroke:none;stroke-width:0.49870428;stroke-linecap:round;stroke-linejoin:round;stroke-miterlimit:4;stroke-dasharray:none;stroke-dashoffset:0;stroke-opacity:1;paint-order:normal"
         d="m -523.21881,101.05493 c 0,0 1016,0 1016,0 0,0 0,35.71875 0,35.71875 0,0 -1016,0 -1016,0 0,0 0,-35.71875 0,-35.71875"
         inkscape:connector-curvature="0" />
      <path
         id="path19703"
         style="opacity:1;fill:#695791;fill-opacity:1;fill-rule:nonzero;stroke:none;stroke-width:0.49870428;stroke-linecap:round;stroke-linejoin:round;stroke-miterlimit:4;stroke-dasharray:none;stroke-dashoffset:0;stroke-opacity:1;paint-order:normal"
         d="m -523.21881,71.562645 c 0,0 1016,0 1016,0 0,0 0,35.718745 0,35.718745 0,0 -1016,0 -1016,0 0,0 0,-35.718745 0,-35.718745"
         inkscape:connector-curvature="0" />
      <path
         id="path19705"
         style="opacity:1;fill:#5f569a;fill-opacity:1;fill-rule:nonzero;stroke:none;stroke-width:0.49870428;stroke-linecap:round;stroke-linejoin:round;stroke-miterlimit:4;stroke-dasharray:none;stroke-dashoffset:0;stroke-opacity:1;paint-order:normal"
         d="m -523.21881,42.070362 c 0,0 1016,0 1016,0 0,0 0,35.71875 0,35.71875 0,0 -1016,0 -1016,0 0,0 0,-35.71875 0,-35.71875"
         inkscape:connector-curvature="0" />
      <path
         id="path19707"
         style="opacity:1;fill:#5454a3;fill-opacity:1;fill-rule:nonzero;stroke:none;stroke-width:0.49870428;stroke-linecap:round;stroke-linejoin:round;stroke-miterlimit:4;stroke-dasharray:none;stroke-dashoffset:0;stroke-opacity:1;paint-order:normal"
         d="m -523.21881,12.578079 c 0,0 1016,0 1016,0 0,0 0,35.71875 0,35.71875 0,0 -1016,0 -1016,0 0,0 0,-35.71875 0,-35.71875"
         inkscape:connector-curvature="0" />
      <path
         id="path19709"
         style="opacity:1;fill:#4952ac;fill-opacity:1;fill-rule:nonzero;stroke:none;stroke-width:0.49870428;stroke-linecap:round;stroke-linejoin:round;stroke-miterlimit:4;stroke-dasharray:none;stroke-dashoffset:0;stroke-opacity:1;paint-order:normal"
         d="m -523.21881,-16.914204 c 0,0 1016,0 1016,0 0,0 0,35.71875 0,35.71875 0,0 -1016,0 -1016,0 0,0 0,-35.71875 0,-35.71875"
         inkscape:connector-curvature="0" />
      <path
         id="path19711"
         style="opacity:1;fill:#3f51b5;fill-opacity:1;fill-rule:nonzero;stroke:none;stroke-width:0.49870428;stroke-linecap:round;stroke-linejoin:round;stroke-miterlimit:4;stroke-dasharray:none;stroke-dashoffset:0;stroke-opacity:1;paint-order:normal"
         d="m -523.21881,-46.406487 c 0,0 1016,0 1016,0 0,0 0,35.71875 0,35.71875 0,0 -1016,0 -1016,0 0,0 0,-35.71875 0,-35.71875"
         inkscape:connector-curvature="0" />
    </g>
    <path
       inkscape:connector-curvature="0"
       id="path18141"
       d="m -380.08789,140.76562 c -12.90888,0 -29.47129,11.73735 -43.04102,27.50196 -13.56973,15.76461 -24.09765,35.6459 -24.09765,52.58398 v 1 h 22.15039 l -2.79883,16.63282 c -32.53708,15.25518 -57.35547,43.94886 -57.35547,72.35742 v 1 h 45.00195 l -1.77343,10.55078 c -38.44438,16.72294 -64.58008,48.56864 -64.58008,85.25586 v 1 h 50.05664 l -8.8457,52.54297 h -49.65039 a 1.0000999,1.0000999 0 1 0 0,2 h 51.34179 l 9.51953,-56.54297 h -50.37695 c 0.47547,-35.48007 26.00607,-66.40446 63.83203,-82.67383 l 0.5,-0.21484 2.3418,-13.91797 h -45.3125 c 0.58425,-27.06515 24.76234,-55.0301 56.625,-69.79883 l 0.47851,-0.22266 3.36133,-19.96875 h -22.43945 c 0.40307,-15.91195 10.44881,-35.07399 23.53711,-50.27929 13.35808,-15.51874 29.86603,-26.80665 41.52539,-26.80665 11.65934,0 28.1673,11.28791 41.52539,26.80665 13.0883,15.2053 23.13599,34.36734 23.53906,50.27929 h -22.4375 l 3.36133,19.96875 0.47852,0.22266 c 31.8627,14.76871 56.03691,42.7336 56.62109,69.79883 h -45.3125 l 2.3457,13.91797 0.5,0.21484 c 37.82471,16.26967 63.35654,47.19454 63.83203,82.67383 h -50.38085 l 5.50976,32.72656 h -51.08203 v -34.78711 c 0,-16.54985 -12.69637,-29.95508 -28.49609,-29.95508 -15.79972,0 -28.5,13.40508 -28.5,29.95508 v 58.60352 l 566.32031,-0.004 v -1 c 0,-5.5647 1.42011,-10.5889 3.64453,-14.15234 2.2235,-3.56198 5.16591,-5.60961 8.31055,-5.61133 0.4699,0.006 0.93977,0.0584 1.4082,0.1582 l 0.83594,0.17969 0.30664,-0.79883 c 4.39794,-11.48262 12.10327,-18.24651 20.16797,-18.26758 8.02736,0.0105 15.70194,6.70114 20.11718,18.0918 l 0.25977,0.66601 0.69336,-0.0293 c 0.001,0 0.003,0 0.004,0 3.14455,0.002 6.08897,2.04957 8.3125,5.61133 2.22443,3.56322 3.64434,8.5859 3.64453,14.15039 h 2 v 1 l 9.83398,-0.006 v -1 c 0,-45.88679 -19.02417,-87.44015 -49.77344,-117.50781 l -1.22265,-1.19532 -0.44336,1.65039 c -4.76735,17.74748 -2.97536,35.70515 3.78515,51.4961 l -9.05273,-11.82227 -0.72656,4.7832 -1.13477,-13.32031 -1.82422,-0.47656 -1.50976,2.23242 4.29492,-13.77148 -1.68555,-0.98047 -1.42383,1.52539 5.08789,-10.01172 -1.23828,-1.39063 -5.5332,2.04493 4.62305,-8.08203 -1.36914,-1.36329 c -21.29264,12.27698 -34.91788,31.86877 -42.61133,53.52735 l 2.67187,-20.32031 -6.59179,4.85351 12.9082,-15.33594 -0.95508,-1.62695 -5.5,1.05664 18.51367,-9.71094 -0.49804,-1.88476 -4.89649,0.16601 16.00196,-5.21093 0.10937,-1.85938 -6.78711,-3.13281 12.32813,-0.96094 0.18164,-1.96289 c -23.88424,-6.41965 -48.08818,-3.74617 -69.13868,5.85156 l 16.69141,-12.8164 -8.09375,-1.23047 19.9707,-1.71485 0.47461,-1.82421 -4.63672,-3.14454 19.95704,6.23047 0.98046,-1.68554 -3.58203,-3.34766 15,7.63477 1.39063,-1.23633 -2.82617,-7.67969 13.86132,9.45898 1.48243,-1.21875 -4.63282,-10.8457 6.19922,7.07227 1.75,-0.72657 -1.54687,-22.7207 3.65429,6.25977 1.85743,-0.38868 2.3125,-19.70507 1.64843,6.8789 1.82813,0.28711 11.14258,-18.29883 -1.89649,8.83008 20.90039,-6.48828 c -7.97922,4.50993 -15.21355,8.77584 -20.99218,13.99609 -7.69081,6.94766 -13.39258,15.80734 -17.10547,29.70704 l 1.53711,1.07812 19.14648,-13.32422 -2.80859,7.63282 1.39258,1.23632 14.99804,-7.63476 -3.58203,3.34765 0.98242,1.68555 19.95508,-6.23047 -4.63672,3.14453 0.47461,1.82422 19.9707,1.71485 -8.09375,1.23046 17.43946,13.38868 C 235.2004,331.06235 210.94318,332.78413 186.88672,339.25 l -2.03711,0.54883 1.71484,1.23047 c 45.44049,32.60347 73.0293,71.60506 73.0293,121.15039 v 1.00586 l 12.59375,-0.0918 v -0.99414 c 0,-82.28415 35.6504,-147.03603 94.15039,-201.01563 l 1.22852,-1.13281 -1.58008,-0.54687 c -32.17119,-11.12028 -64.65481,-13.69255 -92.66406,2.78515 l 24.52343,-24.21484 -13.55664,-2.65234 32.22656,-3.55665 -10.4414,-9.10351 28.5039,11.44336 1.14063,-1.56836 -6.98633,-8.39649 21.81836,14.28126 1.50977,-1.11133 -4.07422,-14.22852 25.40234,22.73438 1.64649,-0.94922 c -4.75077,-22.87226 -12.00469,-37.35641 -21.84375,-48.78711 -8.3237,-9.67021 -18.85761,-17.33562 -30.82032,-25.94922 l 30.36524,12.12305 -2.68164,-16.06055 15.21093,32.12305 1.88672,-0.24414 2.48243,-13.32227 3.16211,34.63867 1.9082,0.32227 5.2793,-11.62696 -2.08204,39.3379 1.82422,0.61523 9.26172,-13.58984 -6.87305,20.69335 1.60938,1.06641 18.59375,-16.31836 -4.08984,14.28711 1.50781,1.11133 21.81836,-14.28125 -6.98633,8.39648 1.14258,1.56836 28.50195,-11.44336 -10.44141,9.10352 34.49024,3.80664 -22.53906,8.23242 24.60351,16.35742 c -5.61789,-2.0416 -11.90304,-3.78442 -18.54883,-5.2539 -13.80914,-3.05341 -29.01372,-4.96275 -42.13086,-6.05078 -13.11713,-1.08804 -24.11818,-1.35615 -29.61132,-1.11328 -1.37329,0.0607 -2.38742,0.14497 -3.09571,0.28515 -0.35414,0.0701 -0.59829,0.061 -1.01757,0.40039 -0.10483,0.0848 -0.23136,0.21016 -0.32618,0.41797 -0.0948,0.20781 -0.12402,0.50501 -0.0605,0.73633 0.12695,0.46263 0.38932,0.60364 0.55664,0.70703 0.33463,0.20679 0.62171,0.27885 1.03515,0.38281 0.41344,0.10397 0.9293,0.20533 1.56836,0.31055 1.27812,0.21045 3.0508,0.43335 5.39063,0.66797 l 17.74804,1.78125 -12.30078,7.30469 25.90039,10.8457 -9.79492,-0.42774 -0.60351,1.82813 26.85937,18.11523 -10.16015,-2.51172 -1.07813,1.51954 18.89648,28.87304 -8.5625,-8.10742 -1.68164,0.82813 3.38868,33.15625 c -9.68642,-36.8798 -27.39172,-70.35906 -55.48633,-91.19141 l -1.50782,1.20898 6.60547,14.85157 -7.99804,-3.80078 -1.35938,1.27148 7.76172,19.64258 -3.39453,-4.68164 -1.78125,0.82226 6.21875,25.64844 -3.07227,-5.83984 -1.88281,0.39843 -1.66211,25.125 -0.84179,-7.10156 -1.85157,-0.39258 -11.22851,18.85547 c 9.54876,-26.71383 12.20831,-57.47408 5.86523,-87.84179 l -0.43555,-2.08594 -1.32617,1.66797 C 325.84774,317.91719 301.4668,386.43776 301.4668,462.10156 v 1 h 16.33008 l 0.26367,-0.59375 c 4.73582,-10.67967 12.33549,-17.43425 20.73242,-17.4375 1.03939,0.013 2.07659,0.12949 3.10937,0.35157 l 0.83985,0.18164 0.30469,-0.80469 c 4.55136,-11.99158 10.76665,-18.40959 18.01367,-21.9375 7.24593,-3.52739 15.62125,-4.14299 24.43554,-4.16406 8.77568,0.0116 17.11816,0.58364 24.34375,4.04687 7.2256,3.46323 13.43364,9.79442 18.00196,21.6875 l 0.28711,0.75 0.71289,-0.10937 c 8.38827,0.0147 15.9791,6.76327 20.71093,17.43359 l 0.26368,0.5957 h 31.80273 a 1.0000999,1.0000999 0 1 0 0,-2 h -30.57226 c -4.84729,-10.52222 -12.60079,-17.6533 -21.61329,-17.9707 -4.68523,-11.83719 -11.17837,-18.57067 -18.72851,-22.18945 -7.68654,-3.68416 -16.34646,-4.23243 -25.20508,-4.24414 h -0.002 -0.002 c -8.90357,0.0211 -17.60309,0.61512 -25.31054,4.36718 -7.54097,3.67102 -14.01026,10.46519 -18.67383,22.31055 -0.89793,-0.15061 -1.79695,-0.29376 -2.70117,-0.30469 h -0.006 -0.006 c -9.27868,1.1e-4 -17.27291,7.26506 -22.23242,18.03125 h -13.08008 c 0.2125,-73.92551 23.85414,-140.8648 62.01367,-189.74609 6.58088,33.9158 1.97657,68.22715 -11.00195,96.47851 l 1.76757,0.92774 16.39063,-27.52344 1.76953,14.9375 1.99024,-0.0527 2.14453,-32.40625 5.1875,9.85742 1.85742,-0.70117 -6.92969,-28.57032 5.07031,6.99219 1.73829,-0.95508 -9.74219,-24.65429 8.14843,3.87304 1.34376,-1.31054 -5.92774,-13.32617 c 29.36953,23.59816 46.86431,61.76487 55.0293,102.79296 l 1.97656,-0.29687 -4.74023,-46.37305 12.80859,12.125 1.52344,-1.27344 -22.17969,-33.89062 13.16211,3.25195 0.79883,-1.80078 -28.5918,-19.2832 11.85156,0.51758 0.42969,-1.92188 -27.40234,-11.47656 11.49414,-6.82617 -0.41016,-1.85547 -19.70508,-1.97656 c 5.95547,0.001 13.97463,0.23975 24.12891,1.08203 13.05194,1.08262 28.18701,2.98335 41.86523,6.00781 13.65576,3.01949 25.86188,7.20053 33.00782,12.62891 l 0.0937,0.0625 1.16015,-1.62891 c -0.0158,-0.012 -0.0388,-0.0212 -0.0547,-0.0332 l 0.002,-0.004 -35.4336,-23.55664 22.83789,-8.3418 -0.23437,-1.93359 -34.20117,-3.77539 11.45703,-9.99219 -1.0293,-1.68164 -30.3125,12.16992 8.72266,-10.48633 -1.31641,-1.47461 -25.1543,16.46485 4.28711,-14.97461 -1.62109,-1.02539 -18.38086,16.13086 7.96875,-23.99219 -1.77539,-0.87891 -11.28125,16.55469 2.17383,-41.05664 -1.91016,-0.4668 -5.90625,13.00977 -3.47461,-38.07031 -1.97851,-0.0918 -3.24024,17.38867 -16.96289,-35.82422 -1.89062,0.5918 3.27929,19.64258 -34.32812,-13.70703 -0.95703,1.73828 c 14.9612,10.82691 27.17075,19.10599 36.7832,30.27344 9.12354,10.59943 15.89773,24.06717 20.5918,44.74414 l -25.52735,-22.84571 -1.6289,1.02149 4.28515,14.9707 -25.15234,-16.46289 -1.31641,1.47656 8.72266,10.48438 -30.3125,-12.16992 -1.0293,1.68359 11.45703,9.99023 -34.20312,3.77539 -0.082,1.97657 16.26562,3.18164 -29.16211,28.79492 1.31055,1.50781 c 28.74199,-21.90166 63.18158,-20.38273 97.8457,-8.70898 -57.80089,53.79436 -93.23761,118.51301 -93.52539,200.30273 l -8.65625,0.0645 c -0.37269,-49.16165 -27.75006,-88.11852 -72.15039,-120.46876 26.68424,-6.87087 53.19416,-7.64379 75.26172,5.43165 l 1.11914,-1.65235 -21.85742,-16.7832 11.76953,-1.79102 -0.0644,-1.98437 -25.54102,-2.19336 7.90821,-5.36133 -0.85938,-1.7832 -22.24023,6.94336 5.54882,-5.1875 -1.13476,-1.6211 -19.03125,9.6836 3.02539,-8.2168 -1.50977,-1.16797 -19.29492,13.42969 c 3.61587,-11.88793 8.71815,-19.73976 15.5918,-25.94922 7.43148,-6.71339 16.91682,-11.71907 28.55078,-18.26562 l -0.78711,-1.82813 -26.33789,8.17773 2.41797,-11.26171 -1.83203,-0.72852 -12.95313,21.27148 -2.39258,-9.98828 -1.96679,0.11719 -2.61914,22.31836 -4.29883,-7.36328 -1.86133,0.57226 1.63477,24.0254 -8.38477,-9.56641 -1.67187,1.05078 5.7539,13.4707 -13.61523,-9.29101 -1.50195,1.17187 3.02539,8.2168 -19.0293,-9.68359 -1.13672,1.62109 5.54883,5.1875 -22.24024,-6.94336 -0.85937,1.7832 7.9082,5.36133 -25.54101,2.19336 -0.0645,1.98438 11.76953,1.79101 -21.857418,16.7832 1.119141,1.65235 c 20.870477,-12.36574 45.899357,-17.18505 70.937497,-12.24024 l -9.29687,0.72461 -0.3418,1.90625 7.95117,3.67188 -20.30468,6.61133 0.34375,1.94921 7.59179,-0.25585 -20.63476,10.82226 0.65234,1.86719 9.38281,-1.80274 -16.51172,19.61719 1.35938,1.44922 9.58789,-7.06055 -3.5918,27.32813 1.95899,0.37891 c 6.23836,-24.37507 19.49891,-47.03311 41.7207,-61.30274 l -3.91016,6.83594 1.21485,1.43554 5.7207,-2.11328 -7.14062,14.05274 1.62304,1.13476 3.26172,-3.49609 -5.00976,16.06055 1.7832,0.85742 3.73047,-5.51172 1.60937,18.9082 1.98438,0.0664 1.29101,-8.47461 12.48438,16.30273 1.6543,-1.11718 c -9.95542,-16.85081 -13.51161,-37.25082 -8.60157,-57.46485 29.37859,29.37818 47.57443,69.44124 47.84766,113.70899 l -7.8457,0.004 c -0.16076,-5.49655 -1.56362,-10.4877 -3.88672,-14.20898 -2.33109,-3.73406 -5.63262,-6.18113 -9.37305,-6.44727 -4.64529,-11.53164 -12.73237,-18.82028 -21.70703,-18.83203 h -0.002 -0.002 c -8.97054,0.021 -17.03452,7.32525 -21.67578,18.84375 -0.34144,-0.0428 -0.68026,-0.11113 -1.02344,-0.11523 h -0.008 -0.006 c -4.01185,5e-5 -7.54532,2.60165 -10.01172,6.55273 -2.46639,3.95109 -3.94726,9.30888 -3.94726,15.21094 v -1 l -562.32031,0.004 v -56.60352 c 0,-15.53046 11.83051,-27.95508 26.5,-27.95508 14.66949,0 26.49609,12.42447 26.49609,27.95508 V 441.375 h 55.44727 l -5.50977,-32.72656 h 50.06055 v -1 c 0,-36.68723 -26.13565,-68.53485 -64.58008,-85.25782 l -1.77539,-10.54882 h 45 v -1 c 0,-28.40847 -24.81442,-57.10223 -57.35157,-72.35742 l -2.79882,-16.63282 h 22.14843 v -1 c 0,-16.93808 -10.52987,-36.81937 -24.09961,-52.58398 -13.56973,-15.76461 -30.13214,-27.50196 -43.04101,-27.50196 z"
       style="color:#000000;font-style:normal;font-variant:normal;font-weight:normal;font-stretch:normal;font-size:medium;line-height:normal;font-family:sans-serif;font-variant-ligatures:normal;font-variant-position:normal;font-variant-caps:normal;font-variant-numeric:normal;font-variant-alternates:normal;font-feature-settings:normal;text-indent:0;text-align:start;text-decoration:none;text-decoration-line:none;text-decoration-style:solid;text-decoration-color:#000000;letter-spacing:normal;word-spacing:normal;text-transform:none;writing-mode:lr-tb;direction:ltr;text-orientation:mixed;dominant-baseline:auto;baseline-shift:baseline;text-anchor:start;white-space:normal;shape-padding:0;clip-rule:nonzero;display:inline;overflow:visible;visibility:visible;opacity:1;isolation:auto;mix-blend-mode:normal;color-interpolation:sRGB;color-interpolation-filters:linearRGB;solid-color:#000000;solid-opacity:1;vector-effect:none;fill:#fff3e0;fill-opacity:1;fill-rule:nonzero;stroke:none;stroke-width:1.99999988;stroke-linecap:round;stroke-linejoin:miter;stroke-miterlimit:2.61538458;stroke-dasharray:none;stroke-dashoffset:0;stroke-opacity:1;paint-order:normal;color-rendering:auto;image-rendering:auto;shape-rendering:auto;text-rendering:auto;enable-background:accumulate" />
  </g>
</svg>
