<?xml version="1.0" encoding="UTF-8" standalone="no"?>
<!-- Created with Inkscape (http://www.inkscape.org/) -->

<svg
   xmlns:dc="http://purl.org/dc/elements/1.1/"
   xmlns:cc="http://creativecommons.org/ns#"
   xmlns:rdf="http://www.w3.org/1999/02/22-rdf-syntax-ns#"
   xmlns:svg="http://www.w3.org/2000/svg"
   xmlns="http://www.w3.org/2000/svg"
   xmlns:sodipodi="http://sodipodi.sourceforge.net/DTD/sodipodi-0.dtd"
   xmlns:inkscape="http://www.inkscape.org/namespaces/inkscape"
   width="1016mm"
   height="571.5mm"
   viewBox="0 0 1016 571.5"
   version="1.1"
   id="svg8"
   inkscape:version="0.92.1 r"
   sodipodi:docname="uluwatu circles.svg"
   inkscape:export-filename="/home/belthsazar2/blankon-uluwatu-kesenian/gambar-latar/bliem/uluwatu circles.png"
   inkscape:export-xdpi="96.010002"
   inkscape:export-ydpi="96.010002">
  <title
     id="title65746">Uluwatu Circles</title>
  <defs
     id="defs2" />
  <sodipodi:namedview
     id="base"
     pagecolor="#ffffff"
     bordercolor="#666666"
     borderopacity="1.0"
     inkscape:pageopacity="0.0"
     inkscape:pageshadow="2"
     inkscape:zoom="0.35"
     inkscape:cx="400"
     inkscape:cy="560"
     inkscape:document-units="mm"
     inkscape:current-layer="layer1"
     showgrid="false"
     fit-margin-top="0"
     fit-margin-left="0"
     fit-margin-right="0"
     fit-margin-bottom="0"
     inkscape:object-paths="true"
     inkscape:snap-intersection-paths="true"
     inkscape:snap-smooth-nodes="true"
     inkscape:snap-midpoints="true"
     inkscape:snap-page="true" />
  <metadata
     id="metadata5">
    <rdf:RDF>
      <cc:Work
         rdf:about="">
        <dc:format>image/svg+xml</dc:format>
        <dc:type
           rdf:resource="http://purl.org/dc/dcmitype/StillImage" />
        <dc:title>Uluwatu Circles</dc:title>
        <dc:creator>
          <cc:Agent>
            <dc:title>Vikko Okviandho Liem</dc:title>
          </cc:Agent>
        </dc:creator>
        <dc:publisher>
          <cc:Agent>
            <dc:title>Belthsazar Liem of ISO-arts</dc:title>
          </cc:Agent>
        </dc:publisher>
        <dc:date>2017-03-25</dc:date>
      </cc:Work>
    </rdf:RDF>
  </metadata>
  <g
     inkscape:label="Layer 1"
     inkscape:groupmode="layer"
     id="layer1"
     transform="translate(523.21881,46.406487)">
    <g
       id="g65744">
      <rect
         y="-46.406487"
         x="-523.21881"
         height="571.5"
         width="1016"
         id="rect4485"
         style="opacity:1;fill:#ff6d00;fill-opacity:1;fill-rule:nonzero;stroke:none;stroke-width:0.52916664;stroke-linecap:round;stroke-linejoin:round;stroke-miterlimit:4;stroke-dasharray:none;stroke-dashoffset:0;stroke-opacity:1;paint-order:normal" />
      <path
         id="path4882"
         d="m -115.34461,173.70474 c -6.03963,0 -13.06871,4.91248 -18.90689,11.3543 -5.83818,6.4418 -10.44011,14.52432 -10.44011,21.78095 v 1.446 h 9.1405 l -0.87983,4.96836 c -13.71414,6.28665 -24.295,17.76033 -24.295,29.63976 v 1.446 h 18.78441 l -0.44666,2.52301 c -16.16605,6.87921 -27.34233,19.77147 -27.34233,34.81877 v 1.44449 h 20.91755 l -3.36401,18.96517 h -21.32536 a 1.445475,1.445475 0 1 0 0,2.89049 h 23.74678 l 4.38727,-24.74615 h -21.19988 c 0.72114,-13.23286 10.76616,-24.87188 26.03228,-31.1082 l 0.73345,-0.30473 1.31008,-7.37335 h -19.01448 c 0.8652,-9.89724 10.23861,-20.35565 22.96702,-25.95909 l 0.70509,-0.31068 1.73429,-9.78434 h -9.29287 c 0.55128,-5.76736 4.16356,-12.74804 9.2809,-18.39456 5.52133,-6.09215 12.44343,-10.40574 16.7678,-10.40574 4.32445,0 11.24204,4.31359 16.763314,10.40574 5.117454,5.64658 8.735693,12.62716 9.286915,18.39456 h -9.292869 l 1.732777,9.78434 0.706566,0.31068 c 12.728417,5.6034 22.09598,16.06173 22.961068,25.95909 h -19.009968 l 1.304062,7.37335 0.740936,0.30473 c 15.265637,6.23644 25.311176,17.87561 26.03228,31.1082 h -21.20586 l 2.325826,13.1095 H -102.3023 v -12.88843 c 0,-7.20218 -5.8398,-13.04825 -13.04231,-13.04825 -7.2024,0 -13.04674,5.84584 -13.04674,13.04825 v 24.52508 h 271.45607 a 1.445475,1.445475 0 1 0 0,-2.89049 h -268.56558 v -21.63459 c 0,-5.65091 4.50532,-10.15778 10.15625,-10.15778 5.65101,0 10.15182,4.50664 10.15182,10.15778 v 15.77893 h 25.642392 l -2.325826,-13.10951 h 20.917546 v -1.44449 c 0,-15.0448 -11.180702,-27.93268 -27.342327,-34.81278 l -0.451146,-2.529 h 18.782935 v -1.446 c 0,-11.87933 -10.579385,-23.35311 -24.293519,-29.63976 l -0.881333,-4.96836 h 9.146484 v -1.446 c 0,-7.25663 -4.600428,-15.33915 -10.43861,-21.78095 -5.838186,-6.44182 -12.868706,-11.3543 -18.908416,-11.3543 z m 91.812851,66.74554 v 44.35361 c 0,4.22001 2.422548,7.7516 5.780975,9.33171 v 1.33845 h -12.618053 v -7.97237 h -0.722984 c -1.332246,0 -2.331809,-1.07455 -2.331809,-2.69779 v -17.75072 h -6.944639 v 17.75072 c 0,4.22822 2.435872,7.76874 5.804881,9.34366 v 1.3265 H -41.7052 v -6.46365 -0.98886 h -0.723012 c -1.332219,0 -2.331809,-1.07005 -2.331809,-2.69332 v -17.75069 h -6.938655 v 17.75069 c 0,4.22805 2.428558,7.76415 5.797421,9.33919 v 0.80664 h -16.501916 a 0.72299765,0.72299765 0 1 0 0,1.44598 h 17.947883 v -3.03837 l -0.463085,-0.18072 c -3.05057,-1.17691 -5.335813,-4.47919 -5.335813,-8.37268 v -16.30471 h 4.04817 v 16.30471 c 0,1.96784 1.333288,3.40036 3.054822,3.81214 v 7.77967 h 10.032297 v -3.56269 l -0.463083,-0.1749 c -3.050573,-1.17687 -5.340295,-4.48516 -5.340295,-8.37867 V 268.4991 h 4.054152 v 16.30471 c 0,1.96788 1.331729,3.40489 3.05329,3.81666 v 8.29949 h 15.510043 v -3.56866 l -0.4571,-0.1749 c -3.042189,-1.18245 -5.325376,-4.48646 -5.325376,-8.37273 v -42.90911 h 4.048167 v 42.90911 c 0,1.96871 1.338173,3.40552 3.060776,3.81666 l -0.02313,8.29949 H 0.52949329 v -3.56267 L 0.07239317,293.17644 C -2.9713573,291.99503 -5.257437,288.69141 -5.257437,284.80373 v -16.30471 h 4.0541236 v 16.30471 c 0,1.96788 1.33325947,3.40488 3.0548215,3.81666 l -0.017335,8.29949 H 11.867946 v -3.56269 l -0.458603,-0.18072 c -3.0437217,-1.18142 -5.3283266,-4.48504 -5.3283266,-8.37272 v -16.30471 h 4.0526486 v 16.30471 c 0,1.96788 1.333231,3.4049 3.054793,3.81666 l -0.01735,8.29949 h 15.547356 v -3.56268 l -0.463055,-0.1749 c -3.050977,-1.17666 -5.340323,-4.48517 -5.340323,-8.37845 v -16.30471 h 4.048198 v 16.30471 c 0,1.96817 1.332912,3.40497 3.054792,3.81665 v 8.2995 H 40.05038 v -3.5627 l -0.463083,-0.1749 c -3.050515,-1.17683 -5.335813,-4.48525 -5.335813,-8.37867 v -16.30471 h 4.048167 v 16.30471 c 0,1.96786 1.33323,3.4049 3.054793,3.81666 v 8.29949 h 10.032299 v -3.56268 l -0.463056,-0.1749 c -3.050977,-1.17687 -5.340292,-4.48539 -5.340292,-8.37867 v -16.30471 h 4.05262 v 16.30471 c 0,1.96784 1.333259,3.40488 3.05482,3.81666 v 8.29949 h 15.481629 v -3.56269 l -0.463054,-0.1749 c -3.050515,-1.17695 -5.335844,-4.48526 -5.335844,-8.37867 v -7.45253 c 0,-4.57594 3.228522,-8.0402 7.102991,-8.51311 v 4.69649 c -1.721562,0.41178 -3.054793,1.84878 -3.054793,3.81662 v 7.45253 c 0,1.96786 1.333058,3.4046 3.054793,3.81666 v 8.29949 h 10.032299 v -3.26393 h -2.750089 v -25.15687 h 4.054181 v 28.42085 h 18.585735 v -3.56267 l -0.463083,-0.1749 c -3.050977,-1.17691 -5.340294,-4.48539 -5.340294,-8.37867 V 256.50065 H 83.34193 c 0.388563,-2.25382 2.103448,-4.04668 4.476882,-4.04668 h 5.776494 v -10.55812 h 4.048169 v 10.55812 h 10.251875 c -0.3883,2.25396 -2.09749,4.04668 -4.4709,4.04668 h -5.780975 v 28.30285 c 0,1.96817 1.332941,3.40497 3.054795,3.81666 v 8.29949 h 15.53094 v -3.5627 l -0.46308,-0.1749 c -3.05058,-1.17689 -5.3403,-4.48513 -5.3403,-8.37867 v -16.30471 h 4.05265 v 16.30471 c 0,1.96786 1.33323,3.4049 3.05479,3.81666 v 8.29949 h 10.0323 v -3.56267 l -0.46305,-0.1749 c -3.0506,-1.17692 -5.34032,-4.48516 -5.34032,-8.37868 v -16.3047 h 4.05415 v 16.3047 c 0,1.96785 1.33175,3.40488 3.05332,3.81662 v 8.29953 h 6.04087 a 0.72273751,0.72273751 0 1 0 0,-1.44449 h -4.59488 v -7.97239 h -0.72301 c -1.33222,0 -2.33181,-1.07602 -2.33181,-2.69927 v -17.7492 h -6.94461 v 17.7492 c 0,4.22837 2.43564,7.76887 5.80485,9.34365 v 1.32801 h -7.14181 v -7.97239 h -0.72298 c -1.33225,0 -2.33181,-1.07602 -2.33181,-2.69927 v -17.7492 h -6.94464 v 17.7492 c 0,4.22819 2.43587,7.76875 5.80488,9.34365 v 1.32801 h -12.64196 v -7.97239 h -0.72298 c -1.33225,0 -2.331813,-1.07638 -2.331813,-2.69927 v -26.85684 h 4.336483 c 3.43335,0 6.21564,-2.78228 6.21564,-6.21567 v -0.72302 H 99.087967 v -10.55807 h -6.938655 v 10.55807 h -4.329026 c -3.433354,0 -6.221627,2.78209 -6.221627,6.21567 v 0.72302 h 10.550653 v 26.85684 c 0,4.23118 2.432029,7.77082 5.804851,9.34365 v 1.32801 H 82.258915 v -28.42086 h -6.944639 v 28.04741 h 2.750088 v 0.37345 h -7.143316 v -7.97239 H 70.19954 c -1.331815,0 -2.331809,-1.07602 -2.331809,-2.69927 v -7.45252 c 0,-1.62325 0.99959,-2.69778 2.331809,-2.69778 h 0.721508 v -7.5989 H 70.19954 c -5.13471,0 -9.270465,4.69124 -9.270465,10.29668 v 7.45252 c 0,4.228 2.428675,7.76408 5.797422,9.33918 v 1.33248 H 54.136831 v -7.97239 h -0.723012 c -1.332219,0 -2.33181,-1.07602 -2.33181,-2.69927 v -17.7492 h -6.94461 v 17.7492 c 0,4.22814 2.435903,7.76443 5.804851,9.33918 v 1.33248 h -7.14181 v -7.97239 h -0.722984 c -1.332249,0 -2.331809,-1.07602 -2.331809,-2.69927 v -17.7492 h -6.938656 v 17.7492 c 0,4.22802 2.428849,7.76441 5.797395,9.33918 v 1.33248 h -7.141813 v -7.97239 h -0.72148 c -1.332248,0 -2.331809,-1.07638 -2.331809,-2.69927 v -17.7492 h -6.938685 v 17.7492 c 0,4.23118 2.430555,7.77082 5.803378,9.34365 v 1.32801 H 14.615599 l 0.01735,-7.97239 h -0.722983 c -1.332219,0 -2.33181,-1.07602 -2.33181,-2.69927 v -17.7492 H 4.6335119 v 17.7492 c 0,4.22155 2.4264786,7.76001 5.7869591,9.33918 v 1.33248 H 3.2786593 l 0.017335,-7.97239 h -0.721509 c -1.332219,0 -2.33180969,-1.07602 -2.33180969,-2.69927 v -17.7492 H -6.7019628 v 17.7492 c 0,4.22155 2.4264778,7.76001 5.786958,9.33918 v 1.33248 H -13.555459 l 0.02313,-7.97239 h -0.722982 c -1.332249,0 -2.337794,-1.07638 -2.337794,-2.69927 v -44.3536 z"
         style="color:#000000;font-style:normal;font-variant:normal;font-weight:normal;font-stretch:normal;font-size:medium;line-height:normal;font-family:sans-serif;font-variant-ligatures:normal;font-variant-position:normal;font-variant-caps:normal;font-variant-numeric:normal;font-variant-alternates:normal;font-feature-settings:normal;text-indent:0;text-align:start;text-decoration:none;text-decoration-line:none;text-decoration-style:solid;text-decoration-color:#000000;letter-spacing:normal;word-spacing:normal;text-transform:none;writing-mode:lr-tb;direction:ltr;text-orientation:mixed;dominant-baseline:auto;baseline-shift:baseline;text-anchor:start;white-space:normal;shape-padding:0;clip-rule:nonzero;display:inline;overflow:visible;visibility:visible;opacity:1;isolation:auto;mix-blend-mode:normal;color-interpolation:sRGB;color-interpolation-filters:linearRGB;solid-color:#000000;solid-opacity:1;vector-effect:none;fill:#01579b;fill-opacity:1;fill-rule:nonzero;stroke:none;stroke-width:0.5;stroke-linecap:round;stroke-linejoin:miter;stroke-miterlimit:2.61538458;stroke-dasharray:none;stroke-dashoffset:0;stroke-opacity:1;paint-order:normal;color-rendering:auto;image-rendering:auto;shape-rendering:auto;text-rendering:auto;enable-background:accumulate"
         inkscape:connector-curvature="0" />
      <path
         id="use58289"
         transform="matrix(0.26458333,0,0,0.26458333,-523.21881,-46.406487)"
         d="M 95.818359 36.417969 A 71.115436 71.115436 0 0 0 24.701172 107.5332 A 71.115436 71.115436 0 0 0 95.818359 178.64844 A 71.115436 71.115436 0 0 0 166.93359 107.5332 A 71.115436 71.115436 0 0 0 95.818359 36.417969 z M 3747.0469 39.28125 A 68.251733 68.251733 0 0 0 3678.7949 107.5332 A 68.251733 68.251733 0 0 0 3747.0469 175.78516 A 68.251733 68.251733 0 0 0 3815.2988 107.5332 A 68.251733 68.251733 0 0 0 3747.0469 39.28125 z M 339.23242 43.578125 A 63.956164 63.956164 0 0 0 275.27734 107.5332 A 63.956164 63.956164 0 0 0 339.23242 171.49023 A 63.956164 63.956164 0 0 0 403.18945 107.5332 A 63.956164 63.956164 0 0 0 339.23242 43.578125 z M 3503.6309 45.962891 A 61.56974 61.56974 0 0 0 3442.0605 107.5332 A 61.56974 61.56974 0 0 0 3503.6309 169.10352 A 61.56974 61.56974 0 0 0 3565.2012 107.5332 A 61.56974 61.56974 0 0 0 3503.6309 45.962891 z M 582.64844 49.78125 A 57.751461 57.751461 0 0 0 524.89648 107.5332 A 57.751461 57.751461 0 0 0 582.64844 165.28516 A 57.751461 57.751461 0 0 0 640.39844 107.5332 A 57.751461 57.751461 0 0 0 582.64844 49.78125 z M 3260.2148 52.644531 A 54.887751 54.887751 0 0 0 3205.3281 107.5332 A 54.887751 54.887751 0 0 0 3260.2148 162.42188 A 54.887751 54.887751 0 0 0 3315.1035 107.5332 A 54.887751 54.887751 0 0 0 3260.2148 52.644531 z M 826.0625 55.986328 A 51.546758 51.546758 0 0 0 774.51562 107.5332 A 51.546758 51.546758 0 0 0 826.0625 159.08008 A 51.546758 51.546758 0 0 0 877.60938 107.5332 A 51.546758 51.546758 0 0 0 826.0625 55.986328 z M 3016.8008 58.373047 A 49.16033 49.16033 0 0 0 2967.6406 107.5332 A 49.16033 49.16033 0 0 0 3016.8008 156.69336 A 49.16033 49.16033 0 0 0 3065.9609 107.5332 A 49.16033 49.16033 0 0 0 3016.8008 58.373047 z M 1069.4785 61.714844 A 45.819337 45.819337 0 0 0 1023.6582 107.5332 A 45.819337 45.819337 0 0 0 1069.4785 153.35352 A 45.819337 45.819337 0 0 0 1115.2969 107.5332 A 45.819337 45.819337 0 0 0 1069.4785 61.714844 z M 2773.3848 63.623047 A 43.9102 43.9102 0 0 0 2729.4746 107.5332 A 43.9102 43.9102 0 0 0 2773.3848 151.44336 A 43.9102 43.9102 0 0 0 2817.2949 107.5332 A 43.9102 43.9102 0 0 0 2773.3848 63.623047 z M 1312.8945 66.486328 A 41.046493 41.046493 0 0 0 1271.8477 107.5332 A 41.046493 41.046493 0 0 0 1312.8945 148.58008 A 41.046493 41.046493 0 0 0 1353.9395 107.5332 A 41.046493 41.046493 0 0 0 1312.8945 66.486328 z M 2529.9707 68.396484 A 39.137356 39.137356 0 0 0 2490.832 107.5332 A 39.137356 39.137356 0 0 0 2529.9707 146.66992 A 39.137356 39.137356 0 0 0 2569.1074 107.5332 A 39.137356 39.137356 0 0 0 2529.9707 68.396484 z M 1556.3086 70.304688 A 37.228215 37.228215 0 0 0 1519.0801 107.5332 A 37.228215 37.228215 0 0 0 1556.3086 144.76172 A 37.228215 37.228215 0 0 0 1593.5371 107.5332 A 37.228215 37.228215 0 0 0 1556.3086 70.304688 z M 2286.5547 71.259766 A 36.273643 36.273643 0 0 0 2250.2812 107.5332 A 36.273643 36.273643 0 0 0 2286.5547 143.80664 A 36.273643 36.273643 0 0 0 2322.8281 107.5332 A 36.273643 36.273643 0 0 0 2286.5547 71.259766 z M 1799.7246 72.214844 A 35.319077 35.319077 0 0 0 1764.4043 107.5332 A 35.319077 35.319077 0 0 0 1799.7246 142.85156 A 35.319077 35.319077 0 0 0 1835.043 107.5332 A 35.319077 35.319077 0 0 0 1799.7246 72.214844 z M 2043.1387 72.691406 A 34.841792 34.841792 0 0 0 2008.2969 107.5332 A 34.841792 34.841792 0 0 0 2043.1387 142.375 A 34.841792 34.841792 0 0 0 2077.9805 107.5332 A 34.841792 34.841792 0 0 0 2043.1387 72.691406 z M 95.818359 283.65234 A 67.297157 67.297157 0 0 0 28.519531 350.94922 A 67.297157 67.297157 0 0 0 95.818359 418.24609 A 67.297157 67.297157 0 0 0 163.11523 350.94922 A 67.297157 67.297157 0 0 0 95.818359 283.65234 z M 3747.0469 286.51562 A 64.43345 64.43345 0 0 0 3682.6133 350.94922 A 64.43345 64.43345 0 0 0 3747.0469 415.38281 A 64.43345 64.43345 0 0 0 3811.4805 350.94922 A 64.43345 64.43345 0 0 0 3747.0469 286.51562 z M 339.23242 290.81055 A 60.137885 60.137885 0 0 0 279.0957 350.94922 A 60.137885 60.137885 0 0 0 339.23242 411.08594 A 60.137885 60.137885 0 0 0 399.37109 350.94922 A 60.137885 60.137885 0 0 0 339.23242 290.81055 z M 3503.6309 293.67383 A 57.274178 57.274178 0 0 0 3446.3574 350.94922 A 57.274178 57.274178 0 0 0 3503.6309 408.22266 A 57.274178 57.274178 0 0 0 3560.9043 350.94922 A 57.274178 57.274178 0 0 0 3503.6309 293.67383 z M 582.64844 297.9707 A 52.978613 52.978613 0 0 0 529.66992 350.94922 A 52.978613 52.978613 0 0 0 582.64844 403.92773 A 52.978613 52.978613 0 0 0 635.62695 350.94922 A 52.978613 52.978613 0 0 0 582.64844 297.9707 z M 3260.2168 300.83398 A 50.114903 50.114903 0 0 0 3210.1016 350.94922 A 50.114903 50.114903 0 0 0 3260.2168 401.0625 A 50.114903 50.114903 0 0 0 3310.3301 350.94922 A 50.114903 50.114903 0 0 0 3260.2168 300.83398 z M 826.0625 304.65234 A 46.296624 46.296624 0 0 0 779.76562 350.94922 A 46.296624 46.296624 0 0 0 826.0625 397.24609 A 46.296624 46.296624 0 0 0 872.35938 350.94922 A 46.296624 46.296624 0 0 0 826.0625 304.65234 z M 3016.8008 307.03906 A 43.9102 43.9102 0 0 0 2972.8906 350.94922 A 43.9102 43.9102 0 0 0 3016.8008 394.85938 A 43.9102 43.9102 0 0 0 3060.7109 350.94922 A 43.9102 43.9102 0 0 0 3016.8008 307.03906 z M 1069.4785 310.85742 A 40.091921 40.091921 0 0 0 1029.3867 350.94922 A 40.091921 40.091921 0 0 0 1069.4785 391.04102 A 40.091921 40.091921 0 0 0 1109.5703 350.94922 A 40.091921 40.091921 0 0 0 1069.4785 310.85742 z M 2773.3848 313.24219 A 37.705496 37.705496 0 0 0 2735.6797 350.94922 A 37.705496 37.705496 0 0 0 2773.3848 388.6543 A 37.705496 37.705496 0 0 0 2811.0918 350.94922 A 37.705496 37.705496 0 0 0 2773.3848 313.24219 z M 1312.8945 316.58398 A 34.364505 34.364505 0 0 0 1278.5293 350.94922 A 34.364505 34.364505 0 0 0 1312.8945 385.3125 A 34.364505 34.364505 0 0 0 1347.2578 350.94922 A 34.364505 34.364505 0 0 0 1312.8945 316.58398 z M 2529.9707 318.49414 A 32.455369 32.455369 0 0 0 2497.5156 350.94922 A 32.455369 32.455369 0 0 0 2529.9707 383.4043 A 32.455369 32.455369 0 0 0 2562.4258 350.94922 A 32.455369 32.455369 0 0 0 2529.9707 318.49414 z M 1556.3086 320.87891 A 30.068943 30.068943 0 0 0 1526.2402 350.94922 A 30.068943 30.068943 0 0 0 1556.3086 381.01758 A 30.068943 30.068943 0 0 0 1586.3789 350.94922 A 30.068943 30.068943 0 0 0 1556.3086 320.87891 z M 2286.5547 322.31055 A 28.63709 28.63709 0 0 0 2257.918 350.94922 A 28.63709 28.63709 0 0 0 2286.5547 379.58594 A 28.63709 28.63709 0 0 0 2315.1914 350.94922 A 28.63709 28.63709 0 0 0 2286.5547 322.31055 z M 1799.7246 323.74414 A 27.205234 27.205234 0 0 0 1772.5195 350.94922 A 27.205234 27.205234 0 0 0 1799.7246 378.1543 A 27.205234 27.205234 0 0 0 1826.9297 350.94922 A 27.205234 27.205234 0 0 0 1799.7246 323.74414 z M 2043.1387 324.2207 A 26.727949 26.727949 0 0 0 2016.4121 350.94922 A 26.727949 26.727949 0 0 0 2043.1387 377.67578 A 26.727949 26.727949 0 0 0 2069.8672 350.94922 A 26.727949 26.727949 0 0 0 2043.1387 324.2207 z M 95.818359 529.45312 A 64.910736 64.910736 0 0 0 30.90625 594.36328 A 64.910736 64.910736 0 0 0 95.818359 659.27539 A 64.910736 64.910736 0 0 0 160.72852 594.36328 A 64.910736 64.910736 0 0 0 95.818359 529.45312 z M 3747.0469 532.79492 A 61.56974 61.56974 0 0 0 3685.4766 594.36328 A 61.56974 61.56974 0 0 0 3747.0469 655.93359 A 61.56974 61.56974 0 0 0 3808.6152 594.36328 A 61.56974 61.56974 0 0 0 3747.0469 532.79492 z M 339.23242 537.08984 A 57.274178 57.274178 0 0 0 281.95898 594.36328 A 57.274178 57.274178 0 0 0 339.23242 651.63867 A 57.274178 57.274178 0 0 0 396.50781 594.36328 A 57.274178 57.274178 0 0 0 339.23242 537.08984 z M 3503.6309 540.42969 A 53.933186 53.933186 0 0 0 3449.6973 594.36328 A 53.933186 53.933186 0 0 0 3503.6309 648.29688 A 53.933186 53.933186 0 0 0 3557.5645 594.36328 A 53.933186 53.933186 0 0 0 3503.6309 540.42969 z M 582.64844 544.72656 A 49.63762 49.63762 0 0 0 533.00977 594.36328 A 49.63762 49.63762 0 0 0 582.64844 644.00195 A 49.63762 49.63762 0 0 0 632.28516 594.36328 A 49.63762 49.63762 0 0 0 582.64844 544.72656 z M 3260.2168 547.58984 A 46.773914 46.773914 0 0 0 3213.4414 594.36328 A 46.773914 46.773914 0 0 0 3260.2168 641.13672 A 46.773914 46.773914 0 0 0 3306.9902 594.36328 A 46.773914 46.773914 0 0 0 3260.2168 547.58984 z M 826.0625 552.36328 A 42.001058 42.001058 0 0 0 784.0625 594.36328 A 42.001058 42.001058 0 0 0 826.0625 636.36523 A 42.001058 42.001058 0 0 0 868.06445 594.36328 A 42.001058 42.001058 0 0 0 826.0625 552.36328 z M 3016.8008 555.22656 A 39.137356 39.137356 0 0 0 2977.6641 594.36328 A 39.137356 39.137356 0 0 0 3016.8008 633.50195 A 39.137356 39.137356 0 0 0 3055.9375 594.36328 A 39.137356 39.137356 0 0 0 3016.8008 555.22656 z M 1069.4785 559.04492 A 35.319077 35.319077 0 0 0 1034.1602 594.36328 A 35.319077 35.319077 0 0 0 1069.4785 629.68359 A 35.319077 35.319077 0 0 0 1104.7969 594.36328 A 35.319077 35.319077 0 0 0 1069.4785 559.04492 z M 2773.3848 561.9082 A 32.455369 32.455369 0 0 0 2740.9297 594.36328 A 32.455369 32.455369 0 0 0 2773.3848 626.81836 A 32.455369 32.455369 0 0 0 2805.8398 594.36328 A 32.455369 32.455369 0 0 0 2773.3848 561.9082 z M 1312.8945 565.72656 A 28.63709 28.63709 0 0 0 1284.2559 594.36328 A 28.63709 28.63709 0 0 0 1312.8945 623 A 28.63709 28.63709 0 0 0 1341.5312 594.36328 A 28.63709 28.63709 0 0 0 1312.8945 565.72656 z M 2529.9707 568.11328 A 26.250663 26.250663 0 0 0 2503.7188 594.36328 A 26.250663 26.250663 0 0 0 2529.9707 620.61523 A 26.250663 26.250663 0 0 0 2556.2207 594.36328 A 26.250663 26.250663 0 0 0 2529.9707 568.11328 z M 95.818359 774.77734 A 63.001603 63.001603 0 0 0 32.816406 837.7793 A 63.001603 63.001603 0 0 0 95.818359 900.78125 A 63.001603 63.001603 0 0 0 158.81836 837.7793 A 63.001603 63.001603 0 0 0 95.818359 774.77734 z M 3747.0469 778.11914 A 59.660598 59.660598 0 0 0 3687.3867 837.7793 A 59.660598 59.660598 0 0 0 3747.0469 897.43945 A 59.660598 59.660598 0 0 0 3806.707 837.7793 A 59.660598 59.660598 0 0 0 3747.0469 778.11914 z M 339.23242 782.89062 A 54.887751 54.887751 0 0 0 284.3457 837.7793 A 54.887751 54.887751 0 0 0 339.23242 892.66602 A 54.887751 54.887751 0 0 0 394.12109 837.7793 A 54.887751 54.887751 0 0 0 339.23242 782.89062 z M 3503.6309 785.75586 A 52.024044 52.024044 0 0 0 3451.6074 837.7793 A 52.024044 52.024044 0 0 0 3503.6309 889.80273 A 52.024044 52.024044 0 0 0 3555.6562 837.7793 A 52.024044 52.024044 0 0 0 3503.6309 785.75586 z M 582.64844 790.52734 A 47.251192 47.251192 0 0 0 535.39648 837.7793 A 47.251192 47.251192 0 0 0 582.64844 885.0293 A 47.251192 47.251192 0 0 0 629.89844 837.7793 A 47.251192 47.251192 0 0 0 582.64844 790.52734 z M 3260.2168 793.86914 A 43.9102 43.9102 0 0 0 3216.3066 837.7793 A 43.9102 43.9102 0 0 0 3260.2168 881.68945 A 43.9102 43.9102 0 0 0 3304.127 837.7793 A 43.9102 43.9102 0 0 0 3260.2168 793.86914 z M 826.0625 798.64258 A 39.137356 39.137356 0 0 0 786.92578 837.7793 A 39.137356 39.137356 0 0 0 826.0625 876.91602 A 39.137356 39.137356 0 0 0 865.20117 837.7793 A 39.137356 39.137356 0 0 0 826.0625 798.64258 z M 3016.8008 801.50586 A 36.273643 36.273643 0 0 0 2980.5273 837.7793 A 36.273643 36.273643 0 0 0 3016.8008 874.05273 A 36.273643 36.273643 0 0 0 3053.0742 837.7793 A 36.273643 36.273643 0 0 0 3016.8008 801.50586 z M 1069.4785 806.27734 A 31.500794 31.500794 0 0 0 1037.9785 837.7793 A 31.500794 31.500794 0 0 0 1069.4785 869.2793 A 31.500794 31.500794 0 0 0 1100.9785 837.7793 A 31.500794 31.500794 0 0 0 1069.4785 806.27734 z M 2773.3848 809.14258 A 28.63709 28.63709 0 0 0 2744.748 837.7793 A 28.63709 28.63709 0 0 0 2773.3848 866.41602 A 28.63709 28.63709 0 0 0 2802.0234 837.7793 A 28.63709 28.63709 0 0 0 2773.3848 809.14258 z M 95.818359 1019.1465 A 62.04703 62.04703 0 0 0 33.769531 1081.1934 A 62.04703 62.04703 0 0 0 95.818359 1143.2422 A 62.04703 62.04703 0 0 0 157.86523 1081.1934 A 62.04703 62.04703 0 0 0 95.818359 1019.1465 z M 3747.0469 1022.4883 A 58.70603 58.70603 0 0 0 3688.3398 1081.1934 A 58.70603 58.70603 0 0 0 3747.0469 1139.9004 A 58.70603 58.70603 0 0 0 3805.752 1081.1934 A 58.70603 58.70603 0 0 0 3747.0469 1022.4883 z M 339.23242 1027.2617 A 53.933186 53.933186 0 0 0 285.29883 1081.1934 A 53.933186 53.933186 0 0 0 339.23242 1135.127 A 53.933186 53.933186 0 0 0 393.16602 1081.1934 A 53.933186 53.933186 0 0 0 339.23242 1027.2617 z M 3503.6309 1030.123 A 51.069475 51.069475 0 0 0 3452.5625 1081.1934 A 51.069475 51.069475 0 0 0 3503.6309 1132.2637 A 51.069475 51.069475 0 0 0 3554.7012 1081.1934 A 51.069475 51.069475 0 0 0 3503.6309 1030.123 z M 582.64844 1034.8984 A 46.296624 46.296624 0 0 0 536.35156 1081.1934 A 46.296624 46.296624 0 0 0 582.64844 1127.4902 A 46.296624 46.296624 0 0 0 628.94531 1081.1934 A 46.296624 46.296624 0 0 0 582.64844 1034.8984 z M 3260.2168 1038.2383 A 42.955631 42.955631 0 0 0 3217.2598 1081.1934 A 42.955631 42.955631 0 0 0 3260.2168 1124.1484 A 42.955631 42.955631 0 0 0 3303.1719 1081.1934 A 42.955631 42.955631 0 0 0 3260.2168 1038.2383 z M 826.0625 1043.0117 A 38.182783 38.182783 0 0 0 787.88086 1081.1934 A 38.182783 38.182783 0 0 0 826.0625 1119.377 A 38.182783 38.182783 0 0 0 864.24609 1081.1934 A 38.182783 38.182783 0 0 0 826.0625 1043.0117 z M 3016.8008 1046.3516 A 34.841792 34.841792 0 0 0 2981.959 1081.1934 A 34.841792 34.841792 0 0 0 3016.8008 1116.0352 A 34.841792 34.841792 0 0 0 3051.6426 1081.1934 A 34.841792 34.841792 0 0 0 3016.8008 1046.3516 z M 1069.4785 1051.123 A 30.068943 30.068943 0 0 0 1039.4102 1081.1934 A 30.068943 30.068943 0 0 0 1069.4785 1111.2637 A 30.068943 30.068943 0 0 0 1099.5469 1081.1934 A 30.068943 30.068943 0 0 0 1069.4785 1051.123 z M 2773.3848 1054.4648 A 26.727949 26.727949 0 0 0 2746.6582 1081.1934 A 26.727949 26.727949 0 0 0 2773.3848 1107.9219 A 26.727949 26.727949 0 0 0 2800.1133 1081.1934 A 26.727949 26.727949 0 0 0 2773.3848 1054.4648 z M 95.818359 1262.0859 A 62.524309 62.524309 0 0 0 33.292969 1324.6094 A 62.524309 62.524309 0 0 0 95.818359 1387.1348 A 62.524309 62.524309 0 0 0 158.3418 1324.6094 A 62.524309 62.524309 0 0 0 95.818359 1262.0859 z M 3747.0469 1265.4258 A 59.183316 59.183316 0 0 0 3687.8633 1324.6094 A 59.183316 59.183316 0 0 0 3747.0469 1383.793 A 59.183316 59.183316 0 0 0 3806.2305 1324.6094 A 59.183316 59.183316 0 0 0 3747.0469 1265.4258 z M 339.23242 1270.1992 A 54.410468 54.410468 0 0 0 284.82227 1324.6094 A 54.410468 54.410468 0 0 0 339.23242 1379.0195 A 54.410468 54.410468 0 0 0 393.64258 1324.6094 A 54.410468 54.410468 0 0 0 339.23242 1270.1992 z M 3503.6309 1273.541 A 51.069475 51.069475 0 0 0 3452.5625 1324.6094 A 51.069475 51.069475 0 0 0 3503.6309 1375.6777 A 51.069475 51.069475 0 0 0 3554.7012 1324.6094 A 51.069475 51.069475 0 0 0 3503.6309 1273.541 z M 582.64844 1278.3125 A 46.296624 46.296624 0 0 0 536.35156 1324.6094 A 46.296624 46.296624 0 0 0 582.64844 1370.9062 A 46.296624 46.296624 0 0 0 628.94531 1324.6094 A 46.296624 46.296624 0 0 0 582.64844 1278.3125 z M 3260.2168 1281.6523 A 42.955631 42.955631 0 0 0 3217.2598 1324.6094 A 42.955631 42.955631 0 0 0 3260.2168 1367.5645 A 42.955631 42.955631 0 0 0 3303.1719 1324.6094 A 42.955631 42.955631 0 0 0 3260.2168 1281.6523 z M 826.0625 1286.4277 A 38.182783 38.182783 0 0 0 787.88086 1324.6094 A 38.182783 38.182783 0 0 0 826.0625 1362.793 A 38.182783 38.182783 0 0 0 864.24609 1324.6094 A 38.182783 38.182783 0 0 0 826.0625 1286.4277 z M 3016.8008 1289.291 A 35.319077 35.319077 0 0 0 2981.4824 1324.6094 A 35.319077 35.319077 0 0 0 3016.8008 1359.9277 A 35.319077 35.319077 0 0 0 3052.1191 1324.6094 A 35.319077 35.319077 0 0 0 3016.8008 1289.291 z M 1069.4785 1294.0605 A 30.546227 30.546227 0 0 0 1038.9316 1324.6094 A 30.546227 30.546227 0 0 0 1069.4785 1355.1562 A 30.546227 30.546227 0 0 0 1100.0254 1324.6094 A 30.546227 30.546227 0 0 0 1069.4785 1294.0605 z M 2773.3848 1297.4043 A 27.205234 27.205234 0 0 0 2746.1797 1324.6094 A 27.205234 27.205234 0 0 0 2773.3848 1351.8145 A 27.205234 27.205234 0 0 0 2800.5898 1324.6094 A 27.205234 27.205234 0 0 0 2773.3848 1297.4043 z M 95.818359 1504.5469 A 63.478877 63.478877 0 0 0 32.337891 1568.0254 A 63.478877 63.478877 0 0 0 95.818359 1631.5039 A 63.478877 63.478877 0 0 0 159.29688 1568.0254 A 63.478877 63.478877 0 0 0 95.818359 1504.5469 z M 3747.0469 1507.4102 A 60.615167 60.615167 0 0 0 3686.4316 1568.0254 A 60.615167 60.615167 0 0 0 3747.0469 1628.6406 A 60.615167 60.615167 0 0 0 3807.6621 1568.0254 A 60.615167 60.615167 0 0 0 3747.0469 1507.4102 z M 339.23242 1512.1816 A 55.842323 55.842323 0 0 0 283.39062 1568.0254 A 55.842323 55.842323 0 0 0 339.23242 1623.8672 A 55.842323 55.842323 0 0 0 395.07422 1568.0254 A 55.842323 55.842323 0 0 0 339.23242 1512.1816 z M 3503.6309 1515.5234 A 52.501323 52.501323 0 0 0 3451.1309 1568.0254 A 52.501323 52.501323 0 0 0 3503.6309 1620.5234 A 52.501323 52.501323 0 0 0 3556.1328 1568.0254 A 52.501323 52.501323 0 0 0 3503.6309 1515.5234 z M 582.64844 1519.8184 A 48.205765 48.205765 0 0 0 534.44141 1568.0254 A 48.205765 48.205765 0 0 0 582.64844 1616.2305 A 48.205765 48.205765 0 0 0 630.85352 1568.0254 A 48.205765 48.205765 0 0 0 582.64844 1519.8184 z M 3260.2168 1523.1602 A 44.864769 44.864769 0 0 0 3215.3516 1568.0254 A 44.864769 44.864769 0 0 0 3260.2168 1612.8906 A 44.864769 44.864769 0 0 0 3305.0801 1568.0254 A 44.864769 44.864769 0 0 0 3260.2168 1523.1602 z M 826.0625 1527.4531 A 40.569207 40.569207 0 0 0 785.49414 1568.0254 A 40.569207 40.569207 0 0 0 826.0625 1608.5938 A 40.569207 40.569207 0 0 0 866.63281 1568.0254 A 40.569207 40.569207 0 0 0 826.0625 1527.4531 z M 3016.8008 1530.7969 A 37.228215 37.228215 0 0 0 2979.5723 1568.0254 A 37.228215 37.228215 0 0 0 3016.8008 1605.2539 A 37.228215 37.228215 0 0 0 3054.0293 1568.0254 A 37.228215 37.228215 0 0 0 3016.8008 1530.7969 z M 1069.4785 1535.0918 A 32.932654 32.932654 0 0 0 1036.5449 1568.0254 A 32.932654 32.932654 0 0 0 1069.4785 1600.957 A 32.932654 32.932654 0 0 0 1102.4102 1568.0254 A 32.932654 32.932654 0 0 0 1069.4785 1535.0918 z M 2773.3848 1537.9551 A 30.068943 30.068943 0 0 0 2743.3164 1568.0254 A 30.068943 30.068943 0 0 0 2773.3848 1598.0938 A 30.068943 30.068943 0 0 0 2803.4551 1568.0254 A 30.068943 30.068943 0 0 0 2773.3848 1537.9551 z M 1312.8945 1542.252 A 25.77338 25.77338 0 0 0 1287.1211 1568.0254 A 25.77338 25.77338 0 0 0 1312.8945 1593.7988 A 25.77338 25.77338 0 0 0 1338.668 1568.0254 A 25.77338 25.77338 0 0 0 1312.8945 1542.252 z M 2529.9707 1544.6387 A 23.386957 23.386957 0 0 0 2506.584 1568.0254 A 23.386957 23.386957 0 0 0 2529.9707 1591.4121 A 23.386957 23.386957 0 0 0 2553.3574 1568.0254 A 23.386957 23.386957 0 0 0 2529.9707 1544.6387 z M 95.818359 1745.5742 A 65.865305 65.865305 0 0 0 29.951172 1811.4395 A 65.865305 65.865305 0 0 0 95.818359 1877.3047 A 65.865305 65.865305 0 0 0 161.68359 1811.4395 A 65.865305 65.865305 0 0 0 95.818359 1745.5742 z M 3747.0469 1748.4355 A 63.001603 63.001603 0 0 0 3684.0449 1811.4395 A 63.001603 63.001603 0 0 0 3747.0469 1874.4395 A 63.001603 63.001603 0 0 0 3810.0488 1811.4395 A 63.001603 63.001603 0 0 0 3747.0469 1748.4355 z M 339.23242 1753.2109 A 58.22874 58.22874 0 0 0 281.00391 1811.4395 A 58.22874 58.22874 0 0 0 339.23242 1869.668 A 58.22874 58.22874 0 0 0 397.46094 1811.4395 A 58.22874 58.22874 0 0 0 339.23242 1753.2109 z M 3503.6309 1756.0742 A 55.365033 55.365033 0 0 0 3448.2656 1811.4395 A 55.365033 55.365033 0 0 0 3503.6309 1866.8027 A 55.365033 55.365033 0 0 0 3558.9961 1811.4395 A 55.365033 55.365033 0 0 0 3503.6309 1756.0742 z M 582.64844 1760.3691 A 51.069475 51.069475 0 0 0 531.57812 1811.4395 A 51.069475 51.069475 0 0 0 582.64844 1862.5098 A 51.069475 51.069475 0 0 0 633.7168 1811.4395 A 51.069475 51.069475 0 0 0 582.64844 1760.3691 z M 3260.2168 1763.2344 A 48.205765 48.205765 0 0 0 3212.0098 1811.4395 A 48.205765 48.205765 0 0 0 3260.2168 1859.6445 A 48.205765 48.205765 0 0 0 3308.4219 1811.4395 A 48.205765 48.205765 0 0 0 3260.2168 1763.2344 z M 826.0625 1767.5293 A 43.9102 43.9102 0 0 0 782.15234 1811.4395 A 43.9102 43.9102 0 0 0 826.0625 1855.3496 A 43.9102 43.9102 0 0 0 869.97266 1811.4395 A 43.9102 43.9102 0 0 0 826.0625 1767.5293 z M 3016.8008 1770.3945 A 41.046493 41.046493 0 0 0 2975.7539 1811.4395 A 41.046493 41.046493 0 0 0 3016.8008 1852.4863 A 41.046493 41.046493 0 0 0 3057.8477 1811.4395 A 41.046493 41.046493 0 0 0 3016.8008 1770.3945 z M 1069.4785 1774.2109 A 37.228215 37.228215 0 0 0 1032.25 1811.4395 A 37.228215 37.228215 0 0 0 1069.4785 1848.668 A 37.228215 37.228215 0 0 0 1106.707 1811.4395 A 37.228215 37.228215 0 0 0 1069.4785 1774.2109 z M 2773.3848 1777.0762 A 34.364505 34.364505 0 0 0 2739.0215 1811.4395 A 34.364505 34.364505 0 0 0 2773.3848 1845.8027 A 34.364505 34.364505 0 0 0 2807.75 1811.4395 A 34.364505 34.364505 0 0 0 2773.3848 1777.0762 z M 1312.8945 1780.416 A 31.023513 31.023513 0 0 0 1281.8711 1811.4395 A 31.023513 31.023513 0 0 0 1312.8945 1842.4629 A 31.023513 31.023513 0 0 0 1343.918 1811.4395 A 31.023513 31.023513 0 0 0 1312.8945 1780.416 z M 2529.9707 1782.8027 A 28.63709 28.63709 0 0 0 2501.334 1811.4395 A 28.63709 28.63709 0 0 0 2529.9707 1840.0781 A 28.63709 28.63709 0 0 0 2558.6074 1811.4395 A 28.63709 28.63709 0 0 0 2529.9707 1782.8027 z M 1556.3086 1785.666 A 25.77338 25.77338 0 0 0 1530.5352 1811.4395 A 25.77338 25.77338 0 0 0 1556.3086 1837.2109 A 25.77338 25.77338 0 0 0 1582.082 1811.4395 A 25.77338 25.77338 0 0 0 1556.3086 1785.666 z M 2286.5547 1787.0996 A 24.341526 24.341526 0 0 0 2262.2129 1811.4395 A 24.341526 24.341526 0 0 0 2286.5547 1835.7812 A 24.341526 24.341526 0 0 0 2310.8965 1811.4395 A 24.341526 24.341526 0 0 0 2286.5547 1787.0996 z M 1799.7246 1789.0078 A 22.432384 22.432384 0 0 0 1777.291 1811.4395 A 22.432384 22.432384 0 0 0 1799.7246 1833.873 A 22.432384 22.432384 0 0 0 1822.1562 1811.4395 A 22.432384 22.432384 0 0 0 1799.7246 1789.0078 z M 2043.1387 1789.4844 A 21.955103 21.955103 0 0 0 2021.1836 1811.4395 A 21.955103 21.955103 0 0 0 2043.1387 1833.3945 A 21.955103 21.955103 0 0 0 2065.0938 1811.4395 A 21.955103 21.955103 0 0 0 2043.1387 1789.4844 z M 95.818359 1986.127 A 68.729012 68.729012 0 0 0 27.087891 2054.8555 A 68.729012 68.729012 0 0 0 95.818359 2123.582 A 68.729012 68.729012 0 0 0 164.54688 2054.8555 A 68.729012 68.729012 0 0 0 95.818359 1986.127 z M 3747.0469 1988.9902 A 65.865305 65.865305 0 0 0 3681.1816 2054.8555 A 65.865305 65.865305 0 0 0 3747.0469 2120.7188 A 65.865305 65.865305 0 0 0 3812.9121 2054.8555 A 65.865305 65.865305 0 0 0 3747.0469 1988.9902 z M 339.23242 1993.2852 A 61.56974 61.56974 0 0 0 277.66211 2054.8555 A 61.56974 61.56974 0 0 0 339.23242 2116.4238 A 61.56974 61.56974 0 0 0 400.80273 2054.8555 A 61.56974 61.56974 0 0 0 339.23242 1993.2852 z M 3503.6309 1996.1484 A 58.70603 58.70603 0 0 0 3444.9258 2054.8555 A 58.70603 58.70603 0 0 0 3503.6309 2113.5605 A 58.70603 58.70603 0 0 0 3562.3379 2054.8555 A 58.70603 58.70603 0 0 0 3503.6309 1996.1484 z M 582.64844 1999.9648 A 54.887751 54.887751 0 0 0 527.75977 2054.8555 A 54.887751 54.887751 0 0 0 582.64844 2109.7402 A 54.887751 54.887751 0 0 0 637.53516 2054.8555 A 54.887751 54.887751 0 0 0 582.64844 1999.9648 z M 3260.2168 2002.832 A 52.024044 52.024044 0 0 0 3208.1914 2054.8555 A 52.024044 52.024044 0 0 0 3260.2168 2106.8789 A 52.024044 52.024044 0 0 0 3312.2402 2054.8555 A 52.024044 52.024044 0 0 0 3260.2168 2002.832 z M 826.0625 2006.6484 A 48.205765 48.205765 0 0 0 777.85742 2054.8555 A 48.205765 48.205765 0 0 0 826.0625 2103.0605 A 48.205765 48.205765 0 0 0 874.26953 2054.8555 A 48.205765 48.205765 0 0 0 826.0625 2006.6484 z M 3016.8008 2009.0352 A 45.819337 45.819337 0 0 0 2970.9805 2054.8555 A 45.819337 45.819337 0 0 0 3016.8008 2100.6738 A 45.819337 45.819337 0 0 0 3062.6191 2054.8555 A 45.819337 45.819337 0 0 0 3016.8008 2009.0352 z M 1069.4785 2012.377 A 42.478348 42.478348 0 0 0 1027 2054.8555 A 42.478348 42.478348 0 0 0 1069.4785 2097.332 A 42.478348 42.478348 0 0 0 1111.957 2054.8555 A 42.478348 42.478348 0 0 0 1069.4785 2012.377 z M 2773.3848 2014.7637 A 40.091921 40.091921 0 0 0 2733.293 2054.8555 A 40.091921 40.091921 0 0 0 2773.3848 2094.9473 A 40.091921 40.091921 0 0 0 2813.4766 2054.8555 A 40.091921 40.091921 0 0 0 2773.3848 2014.7637 z M 1312.8945 2017.627 A 37.228215 37.228215 0 0 0 1275.666 2054.8555 A 37.228215 37.228215 0 0 0 1312.8945 2092.084 A 37.228215 37.228215 0 0 0 1350.1211 2054.8555 A 37.228215 37.228215 0 0 0 1312.8945 2017.627 z M 2529.9707 2019.5371 A 35.319077 35.319077 0 0 0 2494.6504 2054.8555 A 35.319077 35.319077 0 0 0 2529.9707 2090.1738 A 35.319077 35.319077 0 0 0 2565.2891 2054.8555 A 35.319077 35.319077 0 0 0 2529.9707 2019.5371 z M 1556.3086 2021.9219 A 32.932654 32.932654 0 0 0 1523.377 2054.8555 A 32.932654 32.932654 0 0 0 1556.3086 2087.7871 A 32.932654 32.932654 0 0 0 1589.2422 2054.8555 A 32.932654 32.932654 0 0 0 1556.3086 2021.9219 z M 2286.5547 2023.3535 A 31.500794 31.500794 0 0 0 2255.0547 2054.8555 A 31.500794 31.500794 0 0 0 2286.5547 2086.3555 A 31.500794 31.500794 0 0 0 2318.0547 2054.8555 A 31.500794 31.500794 0 0 0 2286.5547 2023.3535 z M 1799.7246 2024.3066 A 30.546227 30.546227 0 0 0 1769.1777 2054.8555 A 30.546227 30.546227 0 0 0 1799.7246 2085.4023 A 30.546227 30.546227 0 0 0 1830.2715 2054.8555 A 30.546227 30.546227 0 0 0 1799.7246 2024.3066 z M 2043.1387 2024.7871 A 30.068943 30.068943 0 0 0 2013.0703 2054.8555 A 30.068943 30.068943 0 0 0 2043.1387 2084.9238 A 30.068943 30.068943 0 0 0 2073.209 2054.8555 A 30.068943 30.068943 0 0 0 2043.1387 2024.7871 z "
         style="opacity:1;fill:#01579b;fill-opacity:1;fill-rule:nonzero;stroke:none;stroke-width:3.67577577;stroke-linecap:round;stroke-linejoin:miter;stroke-miterlimit:2.61538458;stroke-dasharray:none;stroke-dashoffset:0;stroke-opacity:1;paint-order:normal" />
    </g>
  </g>
</svg>
