<?xml version="1.0" encoding="UTF-8" standalone="no"?>
<!-- Created with Inkscape (http://www.inkscape.org/) -->

<svg
   xmlns:dc="http://purl.org/dc/elements/1.1/"
   xmlns:cc="http://creativecommons.org/ns#"
   xmlns:rdf="http://www.w3.org/1999/02/22-rdf-syntax-ns#"
   xmlns:svg="http://www.w3.org/2000/svg"
   xmlns="http://www.w3.org/2000/svg"
   xmlns:xlink="http://www.w3.org/1999/xlink"
   xmlns:sodipodi="http://sodipodi.sourceforge.net/DTD/sodipodi-0.dtd"
   xmlns:inkscape="http://www.inkscape.org/namespaces/inkscape"
   width="361.42084mm"
   height="203.2mm"
   viewBox="0 0 361.42084 203.2"
   version="1.1"
   id="svg33"
   inkscape:version="0.92.1 15371"
   sodipodi:docname="Uluwatu-1.svg"
   inkscape:export-filename="/home/rania/git/blankon-uluwatu-kesenian/gambar-latar/rania/Uluwatu-1.png"
   inkscape:export-xdpi="300"
   inkscape:export-ydpi="300">
  <defs
     id="defs27">
    <linearGradient
       inkscape:collect="always"
       id="linearGradient6884">
      <stop
         style="stop-color:#ffffff;stop-opacity:1;"
         offset="0"
         id="stop6880" />
      <stop
         style="stop-color:#ffffff;stop-opacity:0;"
         offset="1"
         id="stop6882" />
    </linearGradient>
    <linearGradient
       inkscape:collect="always"
       id="linearGradient6868">
      <stop
         style="stop-color:#ffffff;stop-opacity:1;"
         offset="0"
         id="stop6864" />
      <stop
         style="stop-color:#ffffff;stop-opacity:0;"
         offset="1"
         id="stop6866" />
    </linearGradient>
    <linearGradient
       id="linearGradient6513"
       inkscape:collect="always">
      <stop
         id="stop6509"
         offset="0"
         style="stop-color:#ffffff;stop-opacity:0.502" />
      <stop
         id="stop6511"
         offset="1"
         style="stop-color:#ef5623;stop-opacity:0;" />
    </linearGradient>
    <linearGradient
       id="linearGradient6507"
       inkscape:collect="always">
      <stop
         id="stop6503"
         offset="0"
         style="stop-color:#ef6c2e;stop-opacity:0.196" />
      <stop
         id="stop6505"
         offset="1"
         style="stop-color:#ef5623;stop-opacity:0;" />
    </linearGradient>
    <linearGradient
       inkscape:collect="always"
       id="linearGradient6451">
      <stop
         style="stop-color:#d13076;stop-opacity:0.522"
         offset="0"
         id="stop6447" />
      <stop
         style="stop-color:#ef5623;stop-opacity:0;"
         offset="1"
         id="stop6449" />
    </linearGradient>
    <linearGradient
       id="linearGradient6420"
       inkscape:collect="always">
      <stop
         id="stop6416"
         offset="0"
         style="stop-color:#ffffff;stop-opacity:0.537" />
      <stop
         id="stop6418"
         offset="1"
         style="stop-color:#ef5623;stop-opacity:0;" />
    </linearGradient>
    <linearGradient
       inkscape:collect="always"
       id="linearGradient6378">
      <stop
         style="stop-color:#ffffff;stop-opacity:1"
         offset="0"
         id="stop6374" />
      <stop
         style="stop-color:#ef5623;stop-opacity:0;"
         offset="1"
         id="stop6376" />
    </linearGradient>
    <linearGradient
       id="linearGradient4272"
       inkscape:collect="always">
      <stop
         id="stop4268"
         offset="0"
         style="stop-color:#88b14b;stop-opacity:1" />
      <stop
         id="stop4270"
         offset="1"
         style="stop-color:#ef5623;stop-opacity:0;" />
    </linearGradient>
    <linearGradient
       inkscape:collect="always"
       id="linearGradient4262">
      <stop
         style="stop-color:#0c4c8a;stop-opacity:1"
         offset="0"
         id="stop4258" />
      <stop
         style="stop-color:#ef5623;stop-opacity:0;"
         offset="1"
         id="stop4260" />
    </linearGradient>
    <linearGradient
       id="linearGradient4252"
       inkscape:collect="always">
      <stop
         id="stop4248"
         offset="0"
         style="stop-color:#d13076;stop-opacity:1" />
      <stop
         id="stop4250"
         offset="1"
         style="stop-color:#ef5623;stop-opacity:0;" />
    </linearGradient>
    <linearGradient
       inkscape:collect="always"
       id="linearGradient4240">
      <stop
         style="stop-color:#f6d258;stop-opacity:1"
         offset="0"
         id="stop4236" />
      <stop
         style="stop-color:#ef5623;stop-opacity:0;"
         offset="1"
         id="stop4238" />
    </linearGradient>
    <linearGradient
       inkscape:collect="always"
       xlink:href="#linearGradient4240"
       id="linearGradient4242"
       x1="215.2979"
       y1="-233.31938"
       x2="-146.12294"
       y2="-30.119385"
       gradientUnits="userSpaceOnUse" />
    <linearGradient
       inkscape:collect="always"
       xlink:href="#linearGradient4252"
       id="linearGradient4246"
       gradientUnits="userSpaceOnUse"
       x1="243.52313"
       y1="-274.6492"
       x2="40.365242"
       y2="-64.392883"
       gradientTransform="translate(-69.174957,1.7138672e-6)" />
    <linearGradient
       inkscape:collect="always"
       xlink:href="#linearGradient4262"
       id="linearGradient4256"
       gradientUnits="userSpaceOnUse"
       gradientTransform="translate(-69.174957,263.43876)"
       x1="309.04602"
       y1="-360.33295"
       x2="16.17218"
       y2="-132.9399" />
    <linearGradient
       inkscape:collect="always"
       xlink:href="#linearGradient4272"
       id="linearGradient4266"
       gradientUnits="userSpaceOnUse"
       gradientTransform="translate(2.7539062e-7,263.43876)"
       x1="270.74033"
       y1="-304.8905"
       x2="16.17218"
       y2="-132.9399" />
    <linearGradient
       inkscape:collect="always"
       xlink:href="#linearGradient6420"
       id="linearGradient6372"
       x1="1035.8538"
       y1="241.31752"
       x2="1400.8945"
       y2="-215.32022"
       gradientUnits="userSpaceOnUse" />
    <linearGradient
       inkscape:collect="always"
       xlink:href="#linearGradient6378"
       id="linearGradient6403"
       gradientUnits="userSpaceOnUse"
       x1="1068.1821"
       y1="401.61218"
       x2="1400.8945"
       y2="-215.32022" />
    <linearGradient
       inkscape:collect="always"
       xlink:href="#linearGradient6378"
       id="linearGradient6413"
       gradientUnits="userSpaceOnUse"
       x1="1052.4502"
       y1="352.21848"
       x2="1400.8945"
       y2="-215.32022" />
    <linearGradient
       inkscape:collect="always"
       xlink:href="#linearGradient6451"
       id="linearGradient6443"
       x1="23.522247"
       y1="-121.35712"
       x2="-194.59299"
       y2="28.329802"
       gradientUnits="userSpaceOnUse"
       gradientTransform="matrix(3.7795276,0,0,3.7795276,552.27567,881.83702)" />
    <linearGradient
       inkscape:collect="always"
       xlink:href="#linearGradient6513"
       id="linearGradient6472"
       gradientUnits="userSpaceOnUse"
       gradientTransform="matrix(3.7795276,0,0,3.7795276,552.27566,881.83701)"
       x1="44.761013"
       y1="-158.64336"
       x2="-12.641005"
       y2="-60.882114" />
    <linearGradient
       inkscape:collect="always"
       xlink:href="#linearGradient6507"
       id="linearGradient6476"
       gradientUnits="userSpaceOnUse"
       gradientTransform="matrix(3.7795276,0,0,3.7795276,552.27567,881.83702)"
       x1="-12.949515"
       y1="-89.844337"
       x2="-74.130646"
       y2="-25.129816" />
    <linearGradient
       inkscape:collect="always"
       xlink:href="#linearGradient6451"
       id="linearGradient6480"
       gradientUnits="userSpaceOnUse"
       gradientTransform="matrix(3.7795276,0,0,3.7795276,552.27568,881.83703)"
       x1="-36.386543"
       y1="-77.999825"
       x2="-194.59299"
       y2="28.329802" />
    <linearGradient
       inkscape:collect="always"
       xlink:href="#linearGradient6868"
       id="linearGradient6870"
       x1="80.839859"
       y1="153.20879"
       x2="107.24655"
       y2="151.194"
       gradientUnits="userSpaceOnUse" />
    <linearGradient
       inkscape:collect="always"
       xlink:href="#linearGradient6884"
       id="linearGradient6886"
       x1="919.47748"
       y1="583.10284"
       x2="775.32092"
       y2="585.12335"
       gradientUnits="userSpaceOnUse" />
  </defs>
  <sodipodi:namedview
     id="base"
     pagecolor="#ffffff"
     bordercolor="#666666"
     borderopacity="1.0"
     inkscape:pageopacity="0.0"
     inkscape:pageshadow="2"
     inkscape:zoom="0.26247195"
     inkscape:cx="595.62353"
     inkscape:cy="104.2217"
     inkscape:document-units="mm"
     inkscape:current-layer="layer2"
     showgrid="false"
     inkscape:window-width="1366"
     inkscape:window-height="716"
     inkscape:window-x="0"
     inkscape:window-y="24"
     inkscape:window-maximized="1" />
  <metadata
     id="metadata30">
    <rdf:RDF>
      <cc:Work
         rdf:about="">
        <dc:format>image/svg+xml</dc:format>
        <dc:type
           rdf:resource="http://purl.org/dc/dcmitype/StillImage" />
        <dc:title></dc:title>
      </cc:Work>
    </rdf:RDF>
  </metadata>
  <g
     inkscape:label="Layer 1"
     inkscape:groupmode="layer"
     id="layer1"
     transform="translate(146.12294,233.31938)">
    <rect
       style="opacity:1;fill:#ef5623;fill-opacity:1;stroke:none;stroke-width:0.75;paint-order:fill markers stroke"
       id="rect64"
       width="361.42084"
       height="203.2"
       x="-146.12294"
       y="-233.31938" />
    <rect
       y="-233.31938"
       x="-146.12294"
       height="203.2"
       width="361.42084"
       id="rect4234"
       style="opacity:1;fill:url(#linearGradient4242);fill-opacity:1;stroke:none;stroke-width:0.75;paint-order:fill markers stroke" />
    <rect
       transform="scale(-1)"
       y="30.119379"
       x="-215.2979"
       height="203.2"
       width="361.42084"
       id="rect4254"
       style="opacity:1;fill:url(#linearGradient4256);fill-opacity:1;stroke:none;stroke-width:0.75;paint-order:fill markers stroke" />
    <rect
       style="opacity:1;fill:url(#linearGradient4266);fill-opacity:1;stroke:none;stroke-width:0.75;paint-order:fill markers stroke"
       id="rect4264"
       width="361.42084"
       height="203.2"
       x="-146.12294"
       y="30.119379"
       transform="scale(1,-1)" />
    <rect
       style="opacity:1;fill:url(#linearGradient4246);fill-opacity:1;stroke:none;stroke-width:0.75;paint-order:fill markers stroke"
       id="rect4244"
       width="361.42084"
       height="203.2"
       x="-215.2979"
       y="-233.31938"
       transform="scale(-1,1)" />
    <path
       style="opacity:0.11300001;fill:url(#linearGradient6372);fill-opacity:1;stroke:none;stroke-width:2.83464575;paint-order:fill markers stroke"
       d="M 411.92773,0 C 744.96239,189.78581 1012.9713,420.41293 1366,349.54297 V 0 Z m 10.53321,6.0703125 C 750.63302,196.78496 1016.7019,522.03706 1366,451.91602 V 410.1582 C 1016.7044,480.27875 750.62983,195.92096 422.46094,6.0703125 Z"
       transform="matrix(0.26458333,0,0,0.26458333,-146.12294,-233.31938)"
       id="rect6367"
       inkscape:connector-curvature="0"
       sodipodi:nodetypes="cccccccc" />
    <path
       style="opacity:0.11300001;fill:url(#linearGradient6403);fill-opacity:1;stroke:none;stroke-width:2.83464575;paint-order:fill markers stroke"
       d="M 411.92773 0 C 744.96239 189.78581 1012.9713 481.02816 1366 410.1582 L 1366 349.54297 C 1012.9713 420.41293 744.96239 189.78581 411.92773 0 z "
       transform="matrix(0.26458333,0,0,0.26458333,-146.12294,-233.31938)"
       id="path6394" />
    <path
       style="opacity:0.11300001;fill:url(#linearGradient6413);fill-opacity:1;stroke:none;stroke-width:2.83464575;paint-order:fill markers stroke"
       d="M 427.49219 8.9257812 C 753.35893 196.92026 1018.4874 419.30558 1366 349.54297 L 1366 313.34766 C 1018.5041 383.10691 753.33739 195.8153 427.49219 8.9257812 z "
       transform="matrix(0.26458333,0,0,0.26458333,-146.12294,-233.31938)"
       id="path6396" />
    <path
       style="fill:url(#linearGradient6443);fill-opacity:1;fill-rule:evenodd;stroke:none;stroke-width:0.99999994px;stroke-linecap:butt;stroke-linejoin:miter;stroke-opacity:1"
       d="M 34.240234 108.14648 C 34.138365 108.14672 34.035513 108.1481 33.933594 108.14844 C 356.93334 108.11301 93.021031 656.63157 903.9707 768 L 1247.4844 768 C 435.96333 656.5531 378.44479 107.337 34.240234 108.14648 z "
       transform="matrix(0.26458333,0,0,0.26458333,-146.12294,-233.31938)"
       id="path6424" />
    <path
       style="fill:url(#linearGradient6472);fill-opacity:1;fill-rule:evenodd;stroke:none;stroke-width:0.99999994px;stroke-linecap:butt;stroke-linejoin:miter;stroke-opacity:1"
       d="M 33.849609,108.14648 C 364.97467,107.5979 218.36861,656.57953 1029.6973,768 h 118.1093 C 336.28561,656.5531 372.31103,107.337 33.953125,108.14648 c -0.03435,9e-5 -0.06894,-4.2e-4 -0.103516,0 z"
       transform="matrix(0.26458333,0,0,0.26458333,-146.12294,-233.31938)"
       id="path6670" />
    <path
       style="fill:url(#linearGradient6476);fill-opacity:1;fill-rule:evenodd;stroke:none;stroke-width:0.99999994px;stroke-linecap:butt;stroke-linejoin:miter;stroke-opacity:1"
       d="M 33.615234 108.14648 C 33.57899 108.14657 33.542115 108.14834 33.505859 108.14844 C 357.16984 107.62614 92.661465 656.58219 903.9707 768 L 1029.6973 768 C 218.17622 656.5531 365.04555 107.337 33.615234 108.14648 z "
       transform="matrix(0.26458333,0,0,0.26458333,-146.12294,-233.31938)"
       id="path6474" />
    <path
       sodipodi:nodetypes="cccc"
       inkscape:connector-curvature="0"
       id="path6478"
       transform="matrix(0.26458333,0,0,0.26458333,-146.12294,-233.31938)"
       d="M 0,109.97461 V 768 H 903.97018 C 66.271028,652.95804 375.51826,71.447731 0,109.97461 Z"
       style="fill:url(#linearGradient6480);fill-opacity:1;fill-rule:evenodd;stroke:none;stroke-width:0.99999994px;stroke-linecap:butt;stroke-linejoin:miter;stroke-opacity:1" />
  </g>
  <g
     inkscape:groupmode="layer"
     id="layer2"
     inkscape:label="sabuk"
     style="display:inline;opacity:1">
    <g
       id="g6876">
      <path
         sodipodi:nodetypes="cccccccccccccccccccccccccccccccccccccccccccccccccccccscsscccscccccccccccccccccccccccccccccccccccccccccccccccccccscccccccccccccccccccccccsccccccccccccccscccccccccccccccccccccccccccccccccccccccsccccccccccssssccccccscccccccccccccccccccccccccccccccccccccccccccccccccccccccccccccccccccccccccccccccccccccccccccccccccccscccccsccccccsssscccccccccscccccccccccccccccccccccccccccccccccccccscsccccccccccscccccccccccccccccccccccccccccccccccccccccccccccccccccccccccccccccccccccsccccccscccssssccccccccccccccccccccccccccccccccccccccccccccccccccccccccccccccccccccccccccccc"
         inkscape:connector-curvature="0"
         id="path4562"
         d="m 43.548618,122.79754 v 0.0327 c -0.339982,0.0673 -0.629859,0.38515 -0.90296,0.8072 -0.276923,0.42795 -0.532725,0.97102 -0.75301,1.50696 -0.440587,1.07187 -0.737598,2.11656 -0.737598,2.11656 l -0.0014,0.007 -4.78e-4,0.007 c -0.115342,0.70476 -0.05557,1.32113 0.277006,1.86151 l -0.703963,-0.2714 -0.03176,0.006 c -0.384282,0.0732 -0.681341,0.37991 -0.897354,0.71611 -0.216016,0.3362 -0.353321,0.70721 -0.400796,0.96182 l -0.0024,0.0135 9.57e-4,0.0135 c 0.0088,0.15802 0.05559,0.2811 0.129393,0.37978 0.0738,0.0987 0.166013,0.17325 0.273271,0.27187 0.211034,0.194 0.498698,0.49525 0.846437,1.17763 2.39e-4,0.0179 0.0014,0.0338 -0.0075,0.0439 -0.01234,0.014 -0.05112,0.0402 -0.138269,0.0579 -0.204247,0.0424 -0.396135,-0.0635 -0.608202,-0.2387 -0.212068,-0.17514 -0.42657,-0.4105 -0.671265,-0.56803 l -0.06914,-0.0444 -0.06399,0.0528 c -0.377432,0.31146 -0.54587,0.66977 -0.559153,1.03189 -0.0133,0.36211 0.119814,0.72021 0.310172,1.06225 0.374595,0.67306 0.972984,1.29621 1.228549,1.72697 0.0019,0.0149 0.0069,0.18564 -0.132196,0.29289 -0.138721,0.0186 -0.265995,0.003 -0.495625,-0.12098 -0.242688,-0.13126 -0.581613,-0.374 -1.094016,-0.77123 l -0.07941,-0.0617 -0.07054,0.0724 c -0.38314,0.39157 -0.551117,0.7604 -0.560554,1.10897 -0.0094,0.34856 0.137451,0.66219 0.341003,0.95107 0.40536,0.57528 1.037955,1.08547 1.290677,1.61533 0.08249,0.31538 0.101884,0.53521 0.08035,0.63063 -0.01098,0.0486 -0.02392,0.0594 -0.0327,0.0645 -0.0073,0.005 -0.03358,0.004 -0.0682,-0.002 -0.652855,-0.41833 -1.03862,-0.70484 -1.775558,-1.208 l -0.103235,-0.0705 -0.05933,0.11024 c -0.455263,0.8408 -0.292398,1.69389 0.07427,2.3945 0.36416,0.69582 0.923574,1.25241 1.303756,1.56395 0.169416,0.1757 0.268887,0.32175 0.316714,0.43209 0.04792,0.11057 0.04526,0.1808 0.02709,0.22843 -0.01818,0.0476 -0.05662,0.0841 -0.121453,0.11351 -0.06168,0.028 -0.145472,0.0431 -0.231696,0.0453 -1.107534,-0.26495 -1.664372,-0.71365 -2.526233,-1.0786 l -0.106973,-0.0448 -0.04251,0.10744 c -0.300756,0.75827 -0.347117,1.64335 0.0014,2.42626 0.338483,0.76027 1.071946,1.40232 2.252027,1.73679 -0.01136,0.0915 -0.02045,0.18398 -0.01823,0.28915 0.0022,0.10229 0.0035,0.19855 0.0033,0.29242 h -0.743668 c -0.505283,0 -0.915105,0.41031 -0.915108,0.91558 v 2.97608 c 0,0.50527 0.409828,0.91604 0.915108,0.91604 h 0.07054 v 9.57194 h -2.961597 v -21.12871 c 0,-0.60917 -0.09511,-1.03548 -0.280278,-1.31964 -0.160402,-0.24617 -0.402129,-0.35292 -0.663324,-0.37604 v -0.0285 l -0.116782,0.005 c -0.370139,0.0122 -0.780338,0.19526 -1.202855,0.46759 -0.734929,0.40362 -1.208572,0.88792 -1.326181,1.47426 -0.10221,0.50959 0.12554,1.08159 0.581575,1.69661 -0.153016,-0.0402 -0.32017,-0.0706 -0.444239,-0.14434 -0.204696,-0.12159 -0.382497,-0.31865 -0.532993,-0.73292 l -0.04391,-0.12192 -0.114914,0.0607 c -0.452972,0.24041 -1.046451,0.79614 -1.265451,1.5775 -0.216602,0.77279 -0.03552,1.75812 1.006661,2.80137 0.0054,0.0313 0.0096,0.0618 0.0079,0.078 -0.0022,0.0207 -0.0057,0.0229 -0.0075,0.0248 -0.0037,0.004 -0.06453,0.0281 -0.229362,-0.0126 h -9.57e-4 -4.78e-4 c -0.92443,-0.21464 -1.294204,-0.53325 -1.692408,-1.39531 l -0.109307,-0.2373 -0.09716,0.2415 c -0.470151,1.16318 -0.318768,1.97389 -0.0299,2.63648 0.287178,0.65869 0.684894,1.17578 0.756748,1.79985 -0.02802,0.18134 -0.05519,0.32559 -0.09576,0.42602 -0.03511,0.0869 -0.08727,0.13568 -0.151816,0.18358 -0.0891,-0.0204 -0.236809,-0.10175 -0.408739,-0.26346 -0.18695,-0.17585 -0.393117,-0.4153 -0.590918,-0.66753 -0.395601,-0.50445 -0.758159,-1.05952 -0.888479,-1.26732 l -0.127059,-0.2032 -0.07614,0.22749 c -0.344661,1.03905 -0.672686,1.84332 -0.603998,2.73504 0.06825,0.88597 0.538489,1.83538 1.727443,3.15079 0.06079,0.12084 0.05785,0.18947 0.03737,0.23776 -0.02066,0.0487 -0.07023,0.0918 -0.139204,0.1252 -0.136105,0.0658 -0.316896,0.0786 -0.321852,0.0789 -0.0663,-1.9e-4 -0.225095,-0.0663 -0.408271,-0.20787 -0.18344,-0.14176 -0.396895,-0.35161 -0.612406,-0.61241 -0.431018,-0.52161 -0.871352,-1.2464 -1.133722,-2.04135 l -0.08035,-0.24244 -0.125658,0.22235 c -1.024025,1.81494 -1.144723,2.92228 -0.957614,3.75665 0.18711,0.83438 0.656496,1.3728 0.792718,2.07172 l 0.0023,0.009 0.0028,0.008 c 0.0353,0.0971 0.02924,0.16274 0.0079,0.21021 -0.0198,0.0442 -0.06083,0.0776 -0.119585,0.10277 -0.192499,0.0368 -0.360159,-0.008 -0.530658,-0.13921 -0.173356,-0.13306 -0.342935,-0.35517 -0.499828,-0.64604 -0.313786,-0.58172 -0.578785,-1.43289 -0.804396,-2.37114 l -0.06026,-0.25085 -0.143409,0.21441 c -0.867579,1.29404 -1.724676,2.49774 -1.694276,3.85755 0.0304,1.35982 0.959702,2.82554 3.565595,4.62505 0.104725,0.0723 0.227307,0.36731 0.267665,0.76842 0.0264,0.26237 -0.0209,0.58925 -0.05138,0.9025 -0.244186,-0.58568 -0.520382,-1.26312 -0.520382,-1.26312 l -0.02803,-0.0729 -4.707725,0.0434 h -0.0023 c -0.187637,0.008 -0.380076,0.025 -0.541869,0.12472 -0.161794,0.0997 -0.269092,0.29052 -0.275139,0.5671 v 9.5e-4 2.09181 H 0 v 0.22609 h 18.645918 v -4.8e-4 h 0.08035 v -2.31369 c 0.005,-0.22701 0.06934,-0.3184 0.168167,-0.37931 0.09883,-0.0609 0.255495,-0.0837 0.433495,-0.0916 l 4.546566,-0.0416 c 0.02693,0.07 0.322402,0.83962 0.682008,1.65364 l 0.144343,0.32699 0.0696,-0.35082 c 0.09968,-0.501 0.124822,-1.01809 0.08175,-1.44623 -0.04307,-0.42812 -0.135563,-0.77437 -0.364361,-0.93239 -2.579465,-1.78125 -3.43978,-3.18354 -3.467965,-4.44426 -0.02668,-1.19385 0.717418,-2.31154 1.533117,-3.52729 0.212429,0.83893 0.444326,1.63502 0.744137,2.19083 0.166034,0.30782 0.348837,0.55465 0.561021,0.71751 0.212184,0.16287 0.461447,0.23722 0.722649,0.18359 l 0.0089,-0.002 0.0093,-0.003 c 0.110301,-0.0421 0.205237,-0.11975 0.254119,-0.22889 0.04822,-0.10765 0.04582,-0.23874 -0.0023,-0.37463 -0.152816,-0.76275 -0.616987,-1.298 -0.789448,-2.06705 -0.164396,-0.73308 -0.02897,-1.74659 0.838496,-3.36753 0.276491,0.72262 0.663596,1.38194 1.06412,1.86665 0.22408,0.27117 0.446278,0.49161 0.647908,0.64744 0.201629,0.15582 0.376683,0.25458 0.547475,0.25458 h 0.0028 0.0023 c 0,0 0.218492,-0.007 0.41481,-0.10137 0.09816,-0.0474 0.198188,-0.12139 0.248512,-0.2401 0.05032,-0.11872 0.03849,-0.26924 -0.04391,-0.43116 l -0.007,-0.0135 -0.01029,-0.0107 c -1.189731,-1.31067 -1.623215,-2.21408 -1.686803,-3.0396 -0.05871,-0.76223 0.211608,-1.50072 0.525053,-2.43001 0.168744,0.26186 0.424027,0.65733 0.76796,1.09588 0.201943,0.2575 0.412881,0.50377 0.613808,0.69276 0.200924,0.18899 0.383824,0.32899 0.580173,0.34567 l 0.03644,0.004 0.03037,-0.0187 c 0.132454,-0.0781 0.222172,-0.19362 0.277939,-0.33166 0.05576,-0.13804 0.08458,-0.29859 0.114448,-0.49562 l 0.0024,-0.0145 -0.0024,-0.0145 c -0.07696,-0.70819 -0.503348,-1.24655 -0.777769,-1.87599 -0.25198,-0.57795 -0.342683,-1.26415 -0.01543,-2.23007 0.383012,0.70052 0.829652,1.09618 1.685403,1.29488 0.191802,0.0471 0.335122,0.0503 0.434897,-0.0406 0.05006,-0.0456 0.07348,-0.10981 0.07941,-0.16816 0.006,-0.0583 -0.0019,-0.11467 -0.01495,-0.17238 l -0.007,-0.0327 -0.02382,-0.0234 c -1.032451,-1.01598 -1.173674,-1.90893 -0.976299,-2.61312 0.183893,-0.6561 0.678002,-1.13118 1.065522,-1.36635 0.153989,0.35101 0.340518,0.58643 0.559619,0.71657 0.250225,0.14863 0.51982,0.19294 0.791785,0.26159 l 0.34661,0.0878 -0.233098,-0.27047 c -0.602115,-0.69981 -0.805316,-1.28518 -0.705831,-1.78117 0.09948,-0.49598 0.5103,-0.93611 1.217337,-1.32337 l 0.0037,-0.002 0.0033,-0.002 c 0.405523,-0.26178 0.791292,-0.42364 1.090747,-0.43349 l -4.78e-4,-10e-4 c 0.249495,-0.008 0.436009,0.0725 0.582977,0.29803 0.146967,0.22554 0.243841,0.61141 0.243841,1.19631 v 25.21329 h 0.05466 v 4.8e-4 l 0.171437,-4.8e-4 2.65002,-0.005 0.0033,0.005 h 0.270468 l -2.537446,-3.85849 h 2.801372 v -10.02365 h -0.296625 c -0.383995,0 -0.689016,-0.30596 -0.689016,-0.68995 v -2.97608 c 0,-0.38398 0.305023,-0.68995 0.689016,-0.68995 h 0.964154 l 0.0061,-0.10697 c 0.0067,-0.13194 -9.57e-4,-0.28007 -0.0037,-0.41574 -0.0029,-0.13567 0.0014,-0.26073 0.01729,-0.32466 l 0.02663,-0.10837 -0.108375,-0.0285 c -1.192298,-0.31113 -1.869271,-0.93369 -2.188965,-1.65176 -0.30201,-0.67835 -0.263192,-1.44528 -0.02289,-2.12684 0.768368,0.34588 1.355705,0.77412 2.453363,1.03329 l 0.01354,0.003 h 0.01308 c 0.116103,-9.5e-4 0.232301,-0.0205 0.335398,-0.0673 0.103094,-0.0468 0.196157,-0.12567 0.239636,-0.23964 0.04348,-0.11398 0.03301,-0.25114 -0.03083,-0.39846 -0.06385,-0.14732 -0.179734,-0.31047 -0.362027,-0.49936 l -0.0051,-0.005 -0.0051,-0.005 c -0.361329,-0.29478 -0.910025,-0.84279 -1.255174,-1.50229 -0.32519,-0.62135 -0.435251,-1.33113 -0.104637,-2.05116 0.64116,0.44086 1.044618,0.73691 1.666716,1.13466 l 0.01588,0.0103 0.01775,0.005 c 0.08415,0.0211 0.171861,0.0213 0.24758,-0.022 0.07571,-0.0431 0.121266,-0.12339 0.141072,-0.21115 0.03961,-0.17551 0.0064,-0.41084 -0.08408,-0.75067 l -0.0024,-0.01 -0.0042,-0.009 c -0.28764,-0.61126 -0.938477,-1.1208 -1.315904,-1.65644 -0.188712,-0.26782 -0.307044,-0.53345 -0.299429,-0.81467 0.0071,-0.26031 0.139917,-0.55044 0.440035,-0.88101 0.446549,0.34326 0.78559,0.59206 1.030488,0.72452 0.267107,0.14447 0.472296,0.18602 0.669862,0.15275 l 0.02009,-0.004 0.01822,-0.0103 c 0.308209,-0.18067 0.257388,-0.55308 0.257388,-0.55308 l -0.0028,-0.0215 -0.01122,-0.0187 c -0.278954,-0.48508 -0.888235,-1.10753 -1.246767,-1.75173 -0.179265,-0.32211 -0.292697,-0.64465 -0.281678,-0.945 0.01009,-0.27551 0.137398,-0.53805 0.41668,-0.79552 0.185086,0.13599 0.373009,0.32154 0.576435,0.48955 0.229405,0.18946 0.493501,0.34906 0.797857,0.28588 0.113721,-0.0231 0.201532,-0.0609 0.262059,-0.12939 0.06053,-0.0685 0.07602,-0.16176 0.0654,-0.24058 l -0.0028,-0.0187 -0.0079,-0.0173 c -0.366824,-0.72932 -0.686843,-1.05702 -0.909501,-1.26171 -0.111329,-0.10235 -0.194299,-0.17339 -0.245242,-0.24151 -0.04828,-0.0645 -0.07265,-0.13088 -0.08128,-0.2429 0.0422,-0.21547 0.168098,-0.5642 0.36296,-0.86746 0.193168,-0.30065 0.449273,-0.54242 0.729188,-0.6054 l 0.884274,0.34147 0.124725,-0.18078 c -0.464275,-0.52419 -0.479163,-1.1531 -0.349413,-1.94886 0.0022,-0.008 0.293557,-1.03087 0.726385,-2.08386 0.217267,-0.52858 0.469943,-1.06268 0.73386,-1.47053 0.263915,-0.40785 0.543784,-0.6763 0.764689,-0.71517 l 0.0033,-4.8e-4 h 0.0028 c 0.02349,-0.005 0.04231,-0.008 0.05792,-0.009 h 0.0037 c 0.01382,6e-5 0.0261,10e-4 0.0397,0.006 h 4.78e-4 c 0.321942,0.0953 0.55359,0.30203 0.746007,0.59746 0.192415,0.29542 0.339175,0.67812 0.476939,1.09962 0.271472,0.83058 0.510791,1.80793 1.049169,2.58135 0.128863,0.79342 0.112523,1.42108 -0.350812,1.94419 l 0.125658,0.18078 0.882872,-0.34147 c 0.279922,0.063 0.536951,0.30474 0.730124,0.6054 0.194854,0.30326 0.319828,0.65199 0.362024,0.86746 -0.0086,0.11202 -0.03207,0.17834 -0.08035,0.2429 -0.05095,0.0682 -0.133914,0.13916 -0.245243,0.24151 -0.222655,0.20469 -0.542222,0.53239 -0.909033,1.26172 l -0.0089,0.0173 -0.0024,0.0187 c -0.01055,0.0787 0.0049,0.172 0.0654,0.24057 0.0605,0.0686 0.148797,0.10626 0.262527,0.12939 0.304035,0.0627 0.567711,-0.0966 0.796922,-0.28588 0.203428,-0.16801 0.390899,-0.35356 0.575971,-0.48955 0.279279,0.25747 0.407972,0.52001 0.418079,0.79552 0.01103,0.30035 -0.103345,0.6229 -0.282613,0.945 -0.358535,0.6442 -0.967806,1.26665 -1.246767,1.75173 l -0.01028,0.0187 -0.0033,0.0215 c 0,0 -0.05079,0.3724 0.257388,0.55309 l 0.01775,0.0103 0.02009,0.004 c 0.197568,0.0333 0.402748,-0.008 0.669865,-0.15275 0.244914,-0.13245 0.584837,-0.38123 1.03142,-0.72452 0.300075,0.33054 0.432986,0.62071 0.440035,0.88101 0.0076,0.28122 -0.111652,0.54685 -0.300364,0.81467 -0.377425,0.53564 -1.028264,1.04518 -1.315902,1.65644 l -0.0047,0.009 -0.0024,0.01 c -0.09053,0.33984 -0.123235,0.57517 -0.08362,0.75068 0.0198,0.0878 0.06536,0.16803 0.141074,0.21114 0.07571,0.0431 0.164367,0.0429 0.248512,0.022 l 0.01775,-0.005 0.01543,-0.0103 c 0.622107,-0.39773 1.025468,-0.69379 1.666716,-1.13466 0.330612,0.72003 0.220558,1.42981 -0.104637,2.05116 -0.345153,0.6595 -0.893848,1.20751 -1.255176,1.50229 l -0.0051,0.005 -0.0042,0.005 c -0.1823,0.18889 -0.29818,0.35201 -0.362024,0.49936 -0.06385,0.14734 -0.07478,0.28447 -0.0313,0.39846 0.04348,0.11399 0.136054,0.19286 0.23917,0.23964 0.103113,0.0467 0.219264,0.0665 0.335398,0.0673 h 0.01354 l 0.01308,-0.003 c 1.098106,-0.25927 1.684628,-0.68827 2.453361,-1.03422 0.240536,0.68172 0.2783,1.4492 -0.02382,2.12777 -0.319706,0.71807 -0.996201,1.34063 -2.188499,1.65176 l -0.107907,0.0285 0.02709,0.10744 c 0.01593,0.064 0.01918,0.18987 0.01636,0.32559 -0.0028,0.13572 -0.0094,0.2837 -0.0024,0.41574 l 0.0051,0.10697 h 1.23649 c 0.383992,0 0.689951,0.30597 0.689951,0.68996 v 2.97607 c 0,0.38399 -0.305956,0.68995 -0.689951,0.68995 h -0.568962 v 10.02366 h 2.801373 l -2.537446,3.85848 h 0.196662 v 4.8e-4 h 2.971408 v -0.22609 h -0.02009 V 139.8984 c 0,-0.58488 0.09722,-0.97076 0.244309,-1.19631 0.14709,-0.22557 0.333482,-0.30624 0.582977,-0.29803 v 0.001 c 0.299446,0.01 0.684232,0.17169 1.089812,0.43349 l 0.0037,0.002 0.0037,0.002 c 0.707027,0.38727 1.118203,0.82691 1.217803,1.32291 0.0996,0.49599 -0.103261,1.08182 -0.705365,1.78163 l -0.233563,0.27046 0.34661,-0.0878 c 0.271979,-0.0687 0.54122,-0.11295 0.791315,-0.26159 0.218991,-0.13015 0.406125,-0.36557 0.560088,-0.71657 0.387523,0.23518 0.881521,0.71028 1.065522,1.36635 0.197499,0.70419 0.05615,1.59714 -0.976299,2.61312 l -0.02382,0.0234 -0.0075,0.0327 c -0.01301,0.0578 -0.02093,0.11401 -0.01495,0.17237 0.006,0.0584 0.03029,0.12256 0.08035,0.16817 0.100119,0.0912 0.243241,0.0878 0.43583,0.0402 0.854121,-0.19867 1.300551,-0.59464 1.683066,-1.29395 0.326861,0.96541 0.23695,1.65184 -0.01495,2.22961 -0.274423,0.62944 -0.701275,1.16779 -0.778237,1.87599 l -0.0014,0.0145 0.0024,0.0145 c 0.0299,0.19703 0.05869,0.35759 0.114448,0.49563 0.05575,0.13803 0.144552,0.25358 0.277007,0.33166 l 0.0313,0.0187 0.0355,-0.004 c 0.196349,-0.0167 0.379666,-0.1567 0.58064,-0.34568 0.200975,-0.18898 0.412265,-0.43525 0.614275,-0.69275 0.344058,-0.43859 0.600113,-0.83402 0.768893,-1.09588 0.313418,0.92927 0.582951,1.66778 0.52412,2.43 -0.06372,0.82552 -0.497086,1.72894 -1.686802,3.03961 l -0.01074,0.0107 -0.0065,0.0135 c -0.08241,0.16191 -0.09423,0.31244 -0.04391,0.43116 0.05032,0.1187 0.150357,0.19216 0.248512,0.23963 0.196313,0.095 0.413876,0.10184 0.413876,0.10184 h 0.0028 0.0024 c 0.170794,0 0.346268,-0.0988 0.547944,-0.25459 0.201677,-0.15581 0.42423,-0.37626 0.648375,-0.64744 0.400746,-0.48484 0.78713,-1.14472 1.063652,-1.86758 0.867981,1.62156 1.003856,2.63523 0.839431,3.36847 -0.172276,0.76824 -0.63613,1.30327 -0.789447,2.06471 -0.04896,0.13665 -0.05109,0.2686 -0.0028,0.37697 0.04867,0.10923 0.143545,0.18679 0.254118,0.22889 l 0.0089,0.003 0.0089,0.002 c 0.2612,0.0536 0.510463,-0.0207 0.722647,-0.18358 0.212182,-0.16286 0.394523,-0.41063 0.560555,-0.71844 0.299809,-0.55581 0.532644,-1.35099 0.74507,-2.1899 0.815713,1.21574 1.559689,2.33344 1.533118,3.52729 -0.02806,1.26072 -0.888041,2.66301 -3.467499,4.44426 -0.228788,0.158 -0.322088,0.50425 -0.365294,0.93239 -0.04321,0.42815 -0.01746,0.94521 0.08222,1.44623 l 0.0696,0.35082 0.144341,-0.327 c 0.359597,-0.81398 0.654578,-1.58363 0.681542,-1.65363 l 4.547968,0.0416 c 0.17799,0.008 0.33419,0.0307 0.433027,0.0916 0.09884,0.0609 0.16319,0.15231 0.168168,0.37931 v 2.31509 h 0.07054 v 4.8e-4 l 61.002244,0 v -0.22609 l -60.846622,0 v -2.09181 -9.5e-4 c -0.0061,-0.27656 -0.114277,-0.46738 -0.276074,-0.5671 -0.161791,-0.0997 -0.354227,-0.11652 -0.541868,-0.12472 h -0.0024 l -4.707258,-0.0434 -0.02849,0.0729 c 0,0 -0.276048,0.67741 -0.520382,1.26311 -0.03044,-0.31323 -0.07786,-0.64012 -0.05138,-0.90249 0.04048,-0.40112 0.163834,-0.69608 0.268598,-0.76842 2.605881,-1.79951 3.534397,-3.26523 3.564661,-4.62505 0.03026,-1.35981 -0.826703,-2.56351 -1.694275,-3.85755 l -0.143409,-0.21441 -0.06026,0.25085 c -0.22561,0.93825 -0.49061,1.78942 -0.804396,2.37114 -0.156893,0.29087 -0.326006,0.51298 -0.499361,0.64604 -0.170719,0.13104 -0.338777,0.17631 -0.531593,0.13921 -0.05884,-0.0251 -0.09946,-0.0587 -0.119117,-0.10277 -0.02112,-0.0474 -0.02651,-0.11296 0.0089,-0.21021 l 0.0033,-0.008 0.0014,-0.009 c 0.136224,-0.69893 0.605146,-1.23735 0.792251,-2.07172 0.187107,-0.83437 0.06734,-1.94171 -0.95668,-3.75665 l -0.125658,-0.22235 -0.08035,0.24244 c -0.262369,0.79494 -0.703509,1.51973 -1.134656,2.04135 -0.215571,0.2608 -0.428913,0.47064 -0.612406,0.61241 -0.183087,0.14145 -0.342341,0.20665 -0.408737,0.20693 -0.0059,-4.7e-4 -0.186115,-0.0123 -0.321851,-0.078 -0.06898,-0.0333 -0.11761,-0.0764 -0.138271,-0.12519 -0.02047,-0.0483 -0.02389,-0.11693 0.0369,-0.23777 1.188936,-1.31539 1.659527,-2.26481 1.72791,-3.15078 0.06883,-0.89172 -0.259803,-1.69599 -0.604466,-2.73504 l -0.07521,-0.22749 -0.127994,0.2032 c -0.130307,0.20777 -0.492281,0.76287 -0.888012,1.26732 -0.197863,0.25223 -0.40485,0.49168 -0.591853,0.66753 -0.171757,0.1615 -0.319081,0.24281 -0.40827,0.26346 -0.06458,-0.0479 -0.117164,-0.0967 -0.152284,-0.18358 -0.04072,-0.1008 -0.06806,-0.24557 -0.09623,-0.42789 0.0723,-0.62345 0.470254,-1.13979 0.757217,-1.79798 0.288877,-0.66259 0.44119,-1.4733 -0.02896,-2.63648 l -0.09857,-0.2415 -0.108841,0.2373 c -0.398211,0.86208 -0.767049,1.18067 -1.691473,1.39531 h -9.56e-4 -4.79e-4 c -0.164582,0.0407 -0.225987,0.0151 -0.229828,0.0117 -0.0019,-0.002 -0.0044,-0.003 -0.0065,-0.0238 -0.0017,-0.0164 0.0024,-0.0468 0.0079,-0.0785 1.041449,-1.04295 1.22241,-2.02832 1.005729,-2.8009 -0.219139,-0.78136 -0.812972,-1.33709 -1.265919,-1.5775 l -0.114446,-0.0607 -0.04484,0.12192 c -0.150519,0.41429 -0.3275,0.61135 -0.53206,0.73292 -0.1241,0.0738 -0.290646,0.10411 -0.443773,0.14435 0.456002,-0.61503 0.683438,-1.18704 0.581107,-1.69662 -0.117605,-0.58564 -0.590439,-1.06954 -1.323842,-1.47285 l -0.0014,-4.8e-4 c -0.423073,-0.27289 -0.833168,-0.45634 -1.20379,-0.46853 l -0.116785,-0.005 v 0.0285 c -0.261216,0.0231 -0.502326,0.12987 -0.662855,0.37604 -0.185306,0.28417 -0.281211,0.71045 -0.281211,1.31964 v 21.12871 h -2.959729 v -9.57194 h 0.342872 c 0.50528,0 0.91604,-0.41077 0.91604,-0.91604 v -2.97608 c 0,-0.50527 -0.410758,-0.91557 -0.91604,-0.91557 h -1.015538 c -4.78e-4,-0.0938 1.87e-4,-0.19017 0.0024,-0.29243 0.0022,-0.10512 -0.006,-0.19769 -0.01729,-0.28915 1.180055,-0.33447 1.912604,-0.97653 2.251095,-1.73679 0.348571,-0.78291 0.302215,-1.66798 0.0014,-2.42626 l -0.04204,-0.10744 -0.106507,0.0448 c -0.862081,0.36506 -1.419082,0.81368 -2.527166,1.0786 -0.08589,-0.002 -0.169763,-0.0165 -0.231229,-0.0444 -0.06481,-0.0294 -0.102808,-0.0668 -0.120987,-0.11445 -0.01818,-0.0476 -0.02129,-0.11783 0.02663,-0.22843 0.04783,-0.11037 0.147297,-0.25592 0.316714,-0.43162 l 9.56e-4,-9.6e-4 c 0.380163,-0.31164 0.939333,-0.86805 1.30329,-1.56348 0.366679,-0.70061 0.529539,-1.5537 0.07427,-2.3945 l -0.05933,-0.11024 -0.103701,0.0705 c -0.736933,0.50315 -1.123104,0.79012 -1.776024,1.20846 -0.0345,0.005 -0.06041,0.005 -0.06774,0.001 -0.0088,-0.005 -0.02172,-0.0158 -0.0327,-0.0645 -0.0216,-0.0956 -0.0027,-0.31546 0.08035,-0.63202 0.253149,-0.5294 0.885658,-1.03913 1.290678,-1.61393 0.203551,-0.28888 0.350908,-0.60251 0.341471,-0.95107 -0.0094,-0.34857 -0.178354,-0.7174 -0.561488,-1.10897 l -0.07054,-0.0724 -0.07941,0.0621 c -0.5124,0.39723 -0.850386,0.6395 -1.093081,0.77077 -0.229249,0.12398 -0.357167,0.13899 -0.495622,0.12052 -0.137834,-0.10711 -0.13521,-0.27597 -0.133134,-0.29149 0.255357,-0.43079 0.85377,-1.05453 1.228549,-1.72791 0.190363,-0.34204 0.324396,-0.70014 0.311108,-1.06225 -0.0133,-0.36212 -0.182647,-0.72044 -0.560086,-1.03189 l -0.06306,-0.0528 -0.07007,0.0448 c -0.244669,0.15754 -0.458262,0.39289 -0.670331,0.56803 -0.212068,0.17514 -0.403937,0.28064 -0.608203,0.23823 h -9.56e-4 c -0.08715,-0.0177 -0.125947,-0.0431 -0.138272,-0.057 -0.009,-0.0102 -0.0078,-0.0267 -0.0075,-0.0448 0.34773,-0.68239 0.635408,-0.98316 0.84644,-1.17717 0.107248,-0.0986 0.199468,-0.17365 0.273268,-0.27233 0.0738,-0.0987 0.120506,-0.22176 0.129396,-0.37978 l 0.0014,-0.0135 -0.0028,-0.0135 c -0.04748,-0.25461 -0.184785,-0.62563 -0.400797,-0.96182 -0.216011,-0.3362 -0.513084,-0.64286 -0.897354,-0.71611 l -0.0313,-0.006 -0.703964,0.27141 c 0.332549,-0.54037 0.392801,-1.15678 0.277473,-1.86151 l -0.0047,-0.0262 -0.01495,-0.0215 c -0.519793,-0.72823 -0.757231,-1.70243 -1.037026,-2.55846 -0.139896,-0.42803 -0.290628,-0.82645 -0.502631,-1.15195 -0.212002,-0.3255 -0.49075,-0.57873 -0.871195,-0.69135 -0.03885,-0.0116 -0.07753,-0.0165 -0.113044,-0.0159 l 0.0126,9.6e-4 z m 0.128461,30.13262 c -1.177836,7e-5 -2.135176,0.95695 -2.135246,2.13478 v 6.18805 h 4.270493 v -6.18805 c -6.9e-5,-1.17783 -0.957409,-2.13471 -2.135247,-2.13478 z m 0,0.22562 c 1.055713,7e-5 1.909093,0.85345 1.909155,1.90916 v 5.96196 h -3.818311 v -5.96196 c 6.2e-5,-1.05571 0.853443,-1.90909 1.909156,-1.90916 z m -9.074445,7.92111 2.501474,3.80383 -2.501474,0.005 z m 18.148892,0.003 v 3.80617 h -2.502409 z"
         clip-path="none"
         style="color:#000000;font-style:normal;font-variant:normal;font-weight:normal;font-stretch:normal;font-size:medium;line-height:normal;font-family:sans-serif;font-variant-ligatures:normal;font-variant-position:normal;font-variant-caps:normal;font-variant-numeric:normal;font-variant-alternates:normal;font-feature-settings:normal;text-indent:0;text-align:start;text-decoration:none;text-decoration-line:none;text-decoration-style:solid;text-decoration-color:#000000;letter-spacing:normal;word-spacing:normal;text-transform:none;writing-mode:lr-tb;direction:ltr;text-orientation:mixed;dominant-baseline:auto;baseline-shift:baseline;text-anchor:start;white-space:normal;shape-padding:0;clip-rule:nonzero;display:inline;overflow:visible;visibility:visible;opacity:1;isolation:auto;mix-blend-mode:normal;color-interpolation:sRGB;color-interpolation-filters:linearRGB;solid-color:#000000;solid-opacity:1;vector-effect:none;fill:url(#linearGradient6870);fill-opacity:1;fill-rule:evenodd;stroke:none;stroke-width:0.25;stroke-linecap:butt;stroke-linejoin:miter;stroke-miterlimit:4;stroke-dasharray:none;stroke-dashoffset:0;stroke-opacity:1;color-rendering:auto;image-rendering:auto;shape-rendering:auto;text-rendering:auto;enable-background:accumulate" />
      <path
         style="color:#000000;font-style:normal;font-variant:normal;font-weight:normal;font-stretch:normal;font-size:medium;line-height:normal;font-family:sans-serif;font-variant-ligatures:normal;font-variant-position:normal;font-variant-caps:normal;font-variant-numeric:normal;font-variant-alternates:normal;font-feature-settings:normal;text-indent:0;text-align:start;text-decoration:none;text-decoration-line:none;text-decoration-style:solid;text-decoration-color:#000000;letter-spacing:normal;word-spacing:normal;text-transform:none;writing-mode:lr-tb;direction:ltr;text-orientation:mixed;dominant-baseline:auto;baseline-shift:baseline;text-anchor:start;white-space:normal;shape-padding:0;clip-rule:nonzero;display:inline;overflow:visible;visibility:visible;opacity:1;isolation:auto;mix-blend-mode:normal;color-interpolation:sRGB;color-interpolation-filters:linearRGB;solid-color:#000000;solid-opacity:1;vector-effect:none;fill:url(#linearGradient6870);fill-opacity:1;fill-rule:evenodd;stroke:none;stroke-width:0.25;stroke-linecap:butt;stroke-linejoin:miter;stroke-miterlimit:4;stroke-dasharray:none;stroke-dashoffset:0;stroke-opacity:1;color-rendering:auto;image-rendering:auto;shape-rendering:auto;text-rendering:auto;enable-background:accumulate"
         clip-path="none"
         d="m 43.548618,122.79754 v 0.0327 c -0.339982,0.0673 -0.629859,0.38515 -0.90296,0.8072 -0.276923,0.42795 -0.532725,0.97102 -0.75301,1.50696 -0.440587,1.07187 -0.737598,2.11656 -0.737598,2.11656 l -0.0014,0.007 -4.78e-4,0.007 c -0.115342,0.70476 -0.05557,1.32113 0.277006,1.86151 l -0.703963,-0.2714 -0.03176,0.006 c -0.384282,0.0732 -0.681341,0.37991 -0.897354,0.71611 -0.216016,0.3362 -0.353321,0.70721 -0.400796,0.96182 l -0.0024,0.0135 9.57e-4,0.0135 c 0.0088,0.15802 0.05559,0.2811 0.129393,0.37978 0.0738,0.0987 0.166013,0.17325 0.273271,0.27187 0.211034,0.194 0.498698,0.49525 0.846437,1.17763 2.39e-4,0.0179 0.0014,0.0338 -0.0075,0.0439 -0.01234,0.014 -0.05112,0.0402 -0.138269,0.0579 -0.204247,0.0424 -0.396135,-0.0635 -0.608202,-0.2387 -0.212068,-0.17514 -0.42657,-0.4105 -0.671265,-0.56803 l -0.06914,-0.0444 -0.06399,0.0528 c -0.377432,0.31146 -0.54587,0.66977 -0.559153,1.03189 -0.0133,0.36211 0.119814,0.72021 0.310172,1.06225 0.374595,0.67306 0.972984,1.29621 1.228549,1.72697 0.0019,0.0149 0.0069,0.18564 -0.132196,0.29289 -0.138721,0.0186 -0.265995,0.003 -0.495625,-0.12098 -0.242688,-0.13126 -0.581613,-0.374 -1.094016,-0.77123 l -0.07941,-0.0617 -0.07054,0.0724 c -0.38314,0.39157 -0.551117,0.7604 -0.560554,1.10897 -0.0094,0.34856 0.137451,0.66219 0.341003,0.95107 0.40536,0.57528 1.037955,1.08547 1.290677,1.61533 0.08249,0.31538 0.101884,0.53521 0.08035,0.63063 -0.01098,0.0486 -0.02392,0.0594 -0.0327,0.0645 -0.0073,0.005 -0.03358,0.004 -0.0682,-0.002 -0.652855,-0.41833 -1.03862,-0.70484 -1.775558,-1.208 l -0.103235,-0.0705 -0.05933,0.11024 c -0.455263,0.8408 -0.292398,1.69389 0.07427,2.3945 0.36416,0.69582 0.923574,1.25241 1.303756,1.56395 0.169416,0.1757 0.268887,0.32175 0.316714,0.43209 0.04792,0.11057 0.04526,0.1808 0.02709,0.22843 -0.01818,0.0476 -0.05662,0.0841 -0.121453,0.11351 -0.06168,0.028 -0.145472,0.0431 -0.231696,0.0453 -1.107534,-0.26495 -1.664372,-0.71365 -2.526233,-1.0786 l -0.106973,-0.0448 -0.04251,0.10744 c -0.300756,0.75827 -0.347117,1.64335 0.0014,2.42626 0.338483,0.76027 1.071946,1.40232 2.252027,1.73679 -0.01136,0.0915 -0.02045,0.18398 -0.01823,0.28915 0.0022,0.10229 0.0035,0.19855 0.0033,0.29242 h -0.743668 c -0.505283,0 -0.915105,0.41031 -0.915108,0.91558 v 2.97608 c 0,0.50527 0.409828,0.91604 0.915108,0.91604 h 0.07054 v 9.57194 h -2.961597 v -21.12871 c 0,-0.60917 -0.09511,-1.03548 -0.280278,-1.31964 -0.160402,-0.24617 -0.402129,-0.35292 -0.663324,-0.37604 v -0.0285 l -0.116782,0.005 c -0.370139,0.0122 -0.780338,0.19526 -1.202855,0.46759 -0.734929,0.40362 -1.208572,0.88792 -1.326181,1.47426 -0.10221,0.50959 0.12554,1.08159 0.581575,1.69661 -0.153016,-0.0402 -0.32017,-0.0706 -0.444239,-0.14434 -0.204696,-0.12159 -0.382497,-0.31865 -0.532993,-0.73292 l -0.04391,-0.12192 -0.114914,0.0607 c -0.452972,0.24041 -1.046451,0.79614 -1.265451,1.5775 -0.216602,0.77279 -0.03552,1.75812 1.006661,2.80137 0.0054,0.0313 0.0096,0.0618 0.0079,0.078 -0.0022,0.0207 -0.0057,0.0229 -0.0075,0.0248 -0.0037,0.004 -0.06453,0.0281 -0.229362,-0.0126 h -9.57e-4 -4.78e-4 c -0.92443,-0.21464 -1.294204,-0.53325 -1.692408,-1.39531 l -0.109307,-0.2373 -0.09716,0.2415 c -0.470151,1.16318 -0.318768,1.97389 -0.0299,2.63648 0.287178,0.65869 0.684894,1.17578 0.756748,1.79985 -0.02802,0.18134 -0.05519,0.32559 -0.09576,0.42602 -0.03511,0.0869 -0.08727,0.13568 -0.151816,0.18358 -0.0891,-0.0204 -0.236809,-0.10175 -0.408739,-0.26346 -0.18695,-0.17585 -0.393117,-0.4153 -0.590918,-0.66753 -0.395601,-0.50445 -0.758159,-1.05952 -0.888479,-1.26732 l -0.127059,-0.2032 -0.07614,0.22749 c -0.344661,1.03905 -0.672686,1.84332 -0.603998,2.73504 0.06825,0.88597 0.538489,1.83538 1.727443,3.15079 0.06079,0.12084 0.05785,0.18947 0.03737,0.23776 -0.02066,0.0487 -0.07023,0.0918 -0.139204,0.1252 -0.136105,0.0658 -0.316896,0.0786 -0.321852,0.0789 -0.0663,-1.9e-4 -0.225095,-0.0663 -0.408271,-0.20787 -0.18344,-0.14176 -0.396895,-0.35161 -0.612406,-0.61241 -0.431018,-0.52161 -0.871352,-1.2464 -1.133722,-2.04135 l -0.08035,-0.24244 -0.125658,0.22235 c -1.024025,1.81494 -1.144723,2.92228 -0.957614,3.75665 0.18711,0.83438 0.656496,1.3728 0.792718,2.07172 l 0.0023,0.009 0.0028,0.008 c 0.0353,0.0971 0.02924,0.16274 0.0079,0.21021 -0.0198,0.0442 -0.06083,0.0776 -0.119585,0.10277 -0.192499,0.0368 -0.360159,-0.008 -0.530658,-0.13921 -0.173356,-0.13306 -0.342935,-0.35517 -0.499828,-0.64604 -0.313786,-0.58172 -0.578785,-1.43289 -0.804396,-2.37114 l -0.06026,-0.25085 -0.143409,0.21441 c -0.867579,1.29404 -1.724676,2.49774 -1.694276,3.85755 0.0304,1.35982 0.959702,2.82554 3.565595,4.62505 0.104725,0.0723 0.227307,0.36731 0.267665,0.76842 0.0264,0.26237 -0.0209,0.58925 -0.05138,0.9025 -0.244186,-0.58568 -0.520382,-1.26312 -0.520382,-1.26312 l -0.02803,-0.0729 -4.707725,0.0434 h -0.0023 c -0.187637,0.008 -0.380076,0.025 -0.541869,0.12472 -0.161794,0.0997 -0.269092,0.29052 -0.275139,0.5671 v 9.5e-4 2.09181 H 0 v 0.22609 h 18.645918 v -4.8e-4 h 0.08035 v -2.31369 c 0.005,-0.22701 0.06934,-0.3184 0.168167,-0.37931 0.09883,-0.0609 0.255495,-0.0837 0.433495,-0.0916 l 4.546566,-0.0416 c 0.02693,0.07 0.322402,0.83962 0.682008,1.65364 l 0.144343,0.32699 0.0696,-0.35082 c 0.09968,-0.501 0.124822,-1.01809 0.08175,-1.44623 -0.04307,-0.42812 -0.135563,-0.77437 -0.364361,-0.93239 -2.579465,-1.78125 -3.43978,-3.18354 -3.467965,-4.44426 -0.02668,-1.19385 0.717418,-2.31154 1.533117,-3.52729 0.212429,0.83893 0.444326,1.63502 0.744137,2.19083 0.166034,0.30782 0.348837,0.55465 0.561021,0.71751 0.212184,0.16287 0.461447,0.23722 0.722649,0.18359 l 0.0089,-0.002 0.0093,-0.003 c 0.110301,-0.0421 0.205237,-0.11975 0.254119,-0.22889 0.04822,-0.10765 0.04582,-0.23874 -0.0023,-0.37463 -0.152816,-0.76275 -0.616987,-1.298 -0.789448,-2.06705 -0.164396,-0.73308 -0.02897,-1.74659 0.838496,-3.36753 0.276491,0.72262 0.663596,1.38194 1.06412,1.86665 0.22408,0.27117 0.446278,0.49161 0.647908,0.64744 0.201629,0.15582 0.376683,0.25458 0.547475,0.25458 h 0.0028 0.0023 c 0,0 0.218492,-0.007 0.41481,-0.10137 0.09816,-0.0474 0.198188,-0.12139 0.248512,-0.2401 0.05032,-0.11872 0.03849,-0.26924 -0.04391,-0.43116 l -0.007,-0.0135 -0.01029,-0.0107 c -1.189731,-1.31067 -1.623215,-2.21408 -1.686803,-3.0396 -0.05871,-0.76223 0.211608,-1.50072 0.525053,-2.43001 0.168744,0.26186 0.424027,0.65733 0.76796,1.09588 0.201943,0.2575 0.412881,0.50377 0.613808,0.69276 0.200924,0.18899 0.383824,0.32899 0.580173,0.34567 l 0.03644,0.004 0.03037,-0.0187 c 0.132454,-0.0781 0.222172,-0.19362 0.277939,-0.33166 0.05576,-0.13804 0.08458,-0.29859 0.114448,-0.49562 l 0.0024,-0.0145 -0.0024,-0.0145 c -0.07696,-0.70819 -0.503348,-1.24655 -0.777769,-1.87599 -0.25198,-0.57795 -0.342683,-1.26415 -0.01543,-2.23007 0.383012,0.70052 0.829652,1.09618 1.685403,1.29488 0.191802,0.0471 0.335122,0.0503 0.434897,-0.0406 0.05006,-0.0456 0.07348,-0.10981 0.07941,-0.16816 0.006,-0.0583 -0.0019,-0.11467 -0.01495,-0.17238 l -0.007,-0.0327 -0.02382,-0.0234 c -1.032451,-1.01598 -1.173674,-1.90893 -0.976299,-2.61312 0.183893,-0.6561 0.678002,-1.13118 1.065522,-1.36635 0.153989,0.35101 0.340518,0.58643 0.559619,0.71657 0.250225,0.14863 0.51982,0.19294 0.791785,0.26159 l 0.34661,0.0878 -0.233098,-0.27047 c -0.602115,-0.69981 -0.805316,-1.28518 -0.705831,-1.78117 0.09948,-0.49598 0.5103,-0.93611 1.217337,-1.32337 l 0.0037,-0.002 0.0033,-0.002 c 0.405523,-0.26178 0.791292,-0.42364 1.090747,-0.43349 l -4.78e-4,-10e-4 c 0.249495,-0.008 0.436009,0.0725 0.582977,0.29803 0.146967,0.22554 0.243841,0.61141 0.243841,1.19631 v 25.21329 h 0.05466 v 4.8e-4 l 0.171437,-4.8e-4 2.65002,-0.005 0.0033,0.005 h 0.270468 l -2.537446,-3.85849 h 2.801372 v -10.02365 h -0.296625 c -0.383995,0 -0.689016,-0.30596 -0.689016,-0.68995 v -2.97608 c 0,-0.38398 0.305023,-0.68995 0.689016,-0.68995 h 0.964154 l 0.0061,-0.10697 c 0.0067,-0.13194 -9.57e-4,-0.28007 -0.0037,-0.41574 -0.0029,-0.13567 0.0014,-0.26073 0.01729,-0.32466 l 0.02663,-0.10837 -0.108375,-0.0285 c -1.192298,-0.31113 -1.869271,-0.93369 -2.188965,-1.65176 -0.30201,-0.67835 -0.263192,-1.44528 -0.02289,-2.12684 0.768368,0.34588 1.355705,0.77412 2.453363,1.03329 l 0.01354,0.003 h 0.01308 c 0.116103,-9.5e-4 0.232301,-0.0205 0.335398,-0.0673 0.103094,-0.0468 0.196157,-0.12567 0.239636,-0.23964 0.04348,-0.11398 0.03301,-0.25114 -0.03083,-0.39846 -0.06385,-0.14732 -0.179734,-0.31047 -0.362027,-0.49936 l -0.0051,-0.005 -0.0051,-0.005 c -0.361329,-0.29478 -0.910025,-0.84279 -1.255174,-1.50229 -0.32519,-0.62135 -0.435251,-1.33113 -0.104637,-2.05116 0.64116,0.44086 1.044618,0.73691 1.666716,1.13466 l 0.01588,0.0103 0.01775,0.005 c 0.08415,0.0211 0.171861,0.0213 0.24758,-0.022 0.07571,-0.0431 0.121266,-0.12339 0.141072,-0.21115 0.03961,-0.17551 0.0064,-0.41084 -0.08408,-0.75067 l -0.0024,-0.01 -0.0042,-0.009 c -0.28764,-0.61126 -0.938477,-1.1208 -1.315904,-1.65644 -0.188712,-0.26782 -0.307044,-0.53345 -0.299429,-0.81467 0.0071,-0.26031 0.139917,-0.55044 0.440035,-0.88101 0.446549,0.34326 0.78559,0.59206 1.030488,0.72452 0.267107,0.14447 0.472296,0.18602 0.669862,0.15275 l 0.02009,-0.004 0.01822,-0.0103 c 0.308209,-0.18067 0.257388,-0.55308 0.257388,-0.55308 l -0.0028,-0.0215 -0.01122,-0.0187 c -0.278954,-0.48508 -0.888235,-1.10753 -1.246767,-1.75173 -0.179265,-0.32211 -0.292697,-0.64465 -0.281678,-0.945 0.01009,-0.27551 0.137398,-0.53805 0.41668,-0.79552 0.185086,0.13599 0.373009,0.32154 0.576435,0.48955 0.229405,0.18946 0.493501,0.34906 0.797857,0.28588 0.113721,-0.0231 0.201532,-0.0609 0.262059,-0.12939 0.06053,-0.0685 0.07602,-0.16176 0.0654,-0.24058 l -0.0028,-0.0187 -0.0079,-0.0173 c -0.366824,-0.72932 -0.686843,-1.05702 -0.909501,-1.26171 -0.111329,-0.10235 -0.194299,-0.17339 -0.245242,-0.24151 -0.04828,-0.0645 -0.07265,-0.13088 -0.08128,-0.2429 0.0422,-0.21547 0.168098,-0.5642 0.36296,-0.86746 0.193168,-0.30065 0.449273,-0.54242 0.729188,-0.6054 l 0.884274,0.34147 0.124725,-0.18078 c -0.464275,-0.52419 -0.479163,-1.1531 -0.349413,-1.94886 0.0022,-0.008 0.293557,-1.03087 0.726385,-2.08386 0.217267,-0.52858 0.469943,-1.06268 0.73386,-1.47053 0.263915,-0.40785 0.543784,-0.6763 0.764689,-0.71517 l 0.0033,-4.8e-4 h 0.0028 c 0.02349,-0.005 0.04231,-0.008 0.05792,-0.009 h 0.0037 c 0.01382,6e-5 0.0261,10e-4 0.0397,0.006 h 4.78e-4 c 0.321942,0.0953 0.55359,0.30203 0.746007,0.59746 0.192415,0.29542 0.339175,0.67812 0.476939,1.09962 0.271472,0.83058 0.510791,1.80793 1.049169,2.58135 0.128863,0.79342 0.112523,1.42108 -0.350812,1.94419 l 0.125658,0.18078 0.882872,-0.34147 c 0.279922,0.063 0.536951,0.30474 0.730124,0.6054 0.194854,0.30326 0.319828,0.65199 0.362024,0.86746 -0.0086,0.11202 -0.03207,0.17834 -0.08035,0.2429 -0.05095,0.0682 -0.133914,0.13916 -0.245243,0.24151 -0.222655,0.20469 -0.542222,0.53239 -0.909033,1.26172 l -0.0089,0.0173 -0.0024,0.0187 c -0.01055,0.0787 0.0049,0.172 0.0654,0.24057 0.0605,0.0686 0.148797,0.10626 0.262527,0.12939 0.304035,0.0627 0.567711,-0.0966 0.796922,-0.28588 0.203428,-0.16801 0.390899,-0.35356 0.575971,-0.48955 0.279279,0.25747 0.407972,0.52001 0.418079,0.79552 0.01103,0.30035 -0.103345,0.6229 -0.282613,0.945 -0.358535,0.6442 -0.967806,1.26665 -1.246767,1.75173 l -0.01028,0.0187 -0.0033,0.0215 c 0,0 -0.05079,0.3724 0.257388,0.55309 l 0.01775,0.0103 0.02009,0.004 c 0.197568,0.0333 0.402748,-0.008 0.669865,-0.15275 0.244914,-0.13245 0.584837,-0.38123 1.03142,-0.72452 0.300075,0.33054 0.432986,0.62071 0.440035,0.88101 0.0076,0.28122 -0.111652,0.54685 -0.300364,0.81467 -0.377425,0.53564 -1.028264,1.04518 -1.315902,1.65644 l -0.0047,0.009 -0.0024,0.01 c -0.09053,0.33984 -0.123235,0.57517 -0.08362,0.75068 0.0198,0.0878 0.06536,0.16803 0.141074,0.21114 0.07571,0.0431 0.164367,0.0429 0.248512,0.022 l 0.01775,-0.005 0.01543,-0.0103 c 0.622107,-0.39773 1.025468,-0.69379 1.666716,-1.13466 0.330612,0.72003 0.220558,1.42981 -0.104637,2.05116 -0.345153,0.6595 -0.893848,1.20751 -1.255176,1.50229 l -0.0051,0.005 -0.0042,0.005 c -0.1823,0.18889 -0.29818,0.35201 -0.362024,0.49936 -0.06385,0.14734 -0.07478,0.28447 -0.0313,0.39846 0.04348,0.11399 0.136054,0.19286 0.23917,0.23964 0.103113,0.0467 0.219264,0.0665 0.335398,0.0673 h 0.01354 l 0.01308,-0.003 c 1.098106,-0.25927 1.684628,-0.68827 2.453361,-1.03422 0.240536,0.68172 0.2783,1.4492 -0.02382,2.12777 -0.319706,0.71807 -0.996201,1.34063 -2.188499,1.65176 l -0.107907,0.0285 0.02709,0.10744 c 0.01593,0.064 0.01918,0.18987 0.01636,0.32559 -0.0028,0.13572 -0.0094,0.2837 -0.0024,0.41574 l 0.0051,0.10697 h 1.23649 c 0.383992,0 0.689951,0.30597 0.689951,0.68996 v 2.97607 c 0,0.38399 -0.305956,0.68995 -0.689951,0.68995 h -0.568962 v 10.02366 h 2.801373 l -2.537446,3.85848 h 0.196662 v 4.8e-4 h 2.971408 v -0.22609 h -0.02009 V 139.8984 c 0,-0.58488 0.09722,-0.97076 0.244309,-1.19631 0.14709,-0.22557 0.333482,-0.30624 0.582977,-0.29803 v 0.001 c 0.299446,0.01 0.684232,0.17169 1.089812,0.43349 l 0.0037,0.002 0.0037,0.002 c 0.707027,0.38727 1.118203,0.82691 1.217803,1.32291 0.0996,0.49599 -0.103261,1.08182 -0.705365,1.78163 l -0.233563,0.27046 0.34661,-0.0878 c 0.271979,-0.0687 0.54122,-0.11295 0.791315,-0.26159 0.218991,-0.13015 0.406125,-0.36557 0.560088,-0.71657 0.387523,0.23518 0.881521,0.71028 1.065522,1.36635 0.197499,0.70419 0.05615,1.59714 -0.976299,2.61312 l -0.02382,0.0234 -0.0075,0.0327 c -0.01301,0.0578 -0.02093,0.11401 -0.01495,0.17237 0.006,0.0584 0.03029,0.12256 0.08035,0.16817 0.100119,0.0912 0.243241,0.0878 0.43583,0.0402 0.854121,-0.19867 1.300551,-0.59464 1.683066,-1.29395 0.326861,0.96541 0.23695,1.65184 -0.01495,2.22961 -0.274423,0.62944 -0.701275,1.16779 -0.778237,1.87599 l -0.0014,0.0145 0.0024,0.0145 c 0.0299,0.19703 0.05869,0.35759 0.114448,0.49563 0.05575,0.13803 0.144552,0.25358 0.277007,0.33166 l 0.0313,0.0187 0.0355,-0.004 c 0.196349,-0.0167 0.379666,-0.1567 0.58064,-0.34568 0.200975,-0.18898 0.412265,-0.43525 0.614275,-0.69275 0.344058,-0.43859 0.600113,-0.83402 0.768893,-1.09588 0.313418,0.92927 0.582951,1.66778 0.52412,2.43 -0.06372,0.82552 -0.497086,1.72894 -1.686802,3.03961 l -0.01074,0.0107 -0.0065,0.0135 c -0.08241,0.16191 -0.09423,0.31244 -0.04391,0.43116 0.05032,0.1187 0.150357,0.19216 0.248512,0.23963 0.196313,0.095 0.413876,0.10184 0.413876,0.10184 h 0.0028 0.0024 c 0.170794,0 0.346268,-0.0988 0.547944,-0.25459 0.201677,-0.15581 0.42423,-0.37626 0.648375,-0.64744 0.400746,-0.48484 0.78713,-1.14472 1.063652,-1.86758 0.867981,1.62156 1.003856,2.63523 0.839431,3.36847 -0.172276,0.76824 -0.63613,1.30327 -0.789447,2.06471 -0.04896,0.13665 -0.05109,0.2686 -0.0028,0.37697 0.04867,0.10923 0.143545,0.18679 0.254118,0.22889 l 0.0089,0.003 0.0089,0.002 c 0.2612,0.0536 0.510463,-0.0207 0.722647,-0.18358 0.212182,-0.16286 0.394523,-0.41063 0.560555,-0.71844 0.299809,-0.55581 0.532644,-1.35099 0.74507,-2.1899 0.815713,1.21574 1.559689,2.33344 1.533118,3.52729 -0.02806,1.26072 -0.888041,2.66301 -3.467499,4.44426 -0.228788,0.158 -0.322088,0.50425 -0.365294,0.93239 -0.04321,0.42815 -0.01746,0.94521 0.08222,1.44623 l 0.0696,0.35082 0.144341,-0.327 c 0.359597,-0.81398 0.654578,-1.58363 0.681542,-1.65363 l 4.547968,0.0416 c 0.17799,0.008 0.33419,0.0307 0.433027,0.0916 0.09884,0.0609 0.16319,0.15231 0.168168,0.37931 v 2.31509 h 0.07054 v 4.8e-4 l 61.002244,0 v -0.22609 l -60.846622,0 v -2.09181 -9.5e-4 c -0.0061,-0.27656 -0.114277,-0.46738 -0.276074,-0.5671 -0.161791,-0.0997 -0.354227,-0.11652 -0.541868,-0.12472 h -0.0024 l -4.707258,-0.0434 -0.02849,0.0729 c 0,0 -0.276048,0.67741 -0.520382,1.26311 -0.03044,-0.31323 -0.07786,-0.64012 -0.05138,-0.90249 0.04048,-0.40112 0.163834,-0.69608 0.268598,-0.76842 2.605881,-1.79951 3.534397,-3.26523 3.564661,-4.62505 0.03026,-1.35981 -0.826703,-2.56351 -1.694275,-3.85755 l -0.143409,-0.21441 -0.06026,0.25085 c -0.22561,0.93825 -0.49061,1.78942 -0.804396,2.37114 -0.156893,0.29087 -0.326006,0.51298 -0.499361,0.64604 -0.170719,0.13104 -0.338777,0.17631 -0.531593,0.13921 -0.05884,-0.0251 -0.09946,-0.0587 -0.119117,-0.10277 -0.02112,-0.0474 -0.02651,-0.11296 0.0089,-0.21021 l 0.0033,-0.008 0.0014,-0.009 c 0.136224,-0.69893 0.605146,-1.23735 0.792251,-2.07172 0.187107,-0.83437 0.06734,-1.94171 -0.95668,-3.75665 l -0.125658,-0.22235 -0.08035,0.24244 c -0.262369,0.79494 -0.703509,1.51973 -1.134656,2.04135 -0.215571,0.2608 -0.428913,0.47064 -0.612406,0.61241 -0.183087,0.14145 -0.342341,0.20665 -0.408737,0.20693 -0.0059,-4.7e-4 -0.186115,-0.0123 -0.321851,-0.078 -0.06898,-0.0333 -0.11761,-0.0764 -0.138271,-0.12519 -0.02047,-0.0483 -0.02389,-0.11693 0.0369,-0.23777 1.188936,-1.31539 1.659527,-2.26481 1.72791,-3.15078 0.06883,-0.89172 -0.259803,-1.69599 -0.604466,-2.73504 l -0.07521,-0.22749 -0.127994,0.2032 c -0.130307,0.20777 -0.492281,0.76287 -0.888012,1.26732 -0.197863,0.25223 -0.40485,0.49168 -0.591853,0.66753 -0.171757,0.1615 -0.319081,0.24281 -0.40827,0.26346 -0.06458,-0.0479 -0.117164,-0.0967 -0.152284,-0.18358 -0.04072,-0.1008 -0.06806,-0.24557 -0.09623,-0.42789 0.0723,-0.62345 0.470254,-1.13979 0.757217,-1.79798 0.288877,-0.66259 0.44119,-1.4733 -0.02896,-2.63648 l -0.09857,-0.2415 -0.108841,0.2373 c -0.398211,0.86208 -0.767049,1.18067 -1.691473,1.39531 h -9.56e-4 -4.79e-4 c -0.164582,0.0407 -0.225987,0.0151 -0.229828,0.0117 -0.0019,-0.002 -0.0044,-0.003 -0.0065,-0.0238 -0.0017,-0.0164 0.0024,-0.0468 0.0079,-0.0785 1.041449,-1.04295 1.22241,-2.02832 1.005729,-2.8009 -0.219139,-0.78136 -0.812972,-1.33709 -1.265919,-1.5775 l -0.114446,-0.0607 -0.04484,0.12192 c -0.150519,0.41429 -0.3275,0.61135 -0.53206,0.73292 -0.1241,0.0738 -0.290646,0.10411 -0.443773,0.14435 0.456002,-0.61503 0.683438,-1.18704 0.581107,-1.69662 -0.117605,-0.58564 -0.590439,-1.06954 -1.323842,-1.47285 l -0.0014,-4.8e-4 c -0.423073,-0.27289 -0.833168,-0.45634 -1.20379,-0.46853 l -0.116785,-0.005 v 0.0285 c -0.261216,0.0231 -0.502326,0.12987 -0.662855,0.37604 -0.185306,0.28417 -0.281211,0.71045 -0.281211,1.31964 v 21.12871 h -2.959729 v -9.57194 h 0.342872 c 0.50528,0 0.91604,-0.41077 0.91604,-0.91604 v -2.97608 c 0,-0.50527 -0.410758,-0.91557 -0.91604,-0.91557 h -1.015538 c -4.78e-4,-0.0938 1.87e-4,-0.19017 0.0024,-0.29243 0.0022,-0.10512 -0.006,-0.19769 -0.01729,-0.28915 1.180055,-0.33447 1.912604,-0.97653 2.251095,-1.73679 0.348571,-0.78291 0.302215,-1.66798 0.0014,-2.42626 l -0.04204,-0.10744 -0.106507,0.0448 c -0.862081,0.36506 -1.419082,0.81368 -2.527166,1.0786 -0.08589,-0.002 -0.169763,-0.0165 -0.231229,-0.0444 -0.06481,-0.0294 -0.102808,-0.0668 -0.120987,-0.11445 -0.01818,-0.0476 -0.02129,-0.11783 0.02663,-0.22843 0.04783,-0.11037 0.147297,-0.25592 0.316714,-0.43162 l 9.56e-4,-9.6e-4 c 0.380163,-0.31164 0.939333,-0.86805 1.30329,-1.56348 0.366679,-0.70061 0.529539,-1.5537 0.07427,-2.3945 l -0.05933,-0.11024 -0.103701,0.0705 c -0.736933,0.50315 -1.123104,0.79012 -1.776024,1.20846 -0.0345,0.005 -0.06041,0.005 -0.06774,0.001 -0.0088,-0.005 -0.02172,-0.0158 -0.0327,-0.0645 -0.0216,-0.0956 -0.0027,-0.31546 0.08035,-0.63202 0.253149,-0.5294 0.885658,-1.03913 1.290678,-1.61393 0.203551,-0.28888 0.350908,-0.60251 0.341471,-0.95107 -0.0094,-0.34857 -0.178354,-0.7174 -0.561488,-1.10897 l -0.07054,-0.0724 -0.07941,0.0621 c -0.5124,0.39723 -0.850386,0.6395 -1.093081,0.77077 -0.229249,0.12398 -0.357167,0.13899 -0.495622,0.12052 -0.137834,-0.10711 -0.13521,-0.27597 -0.133134,-0.29149 0.255357,-0.43079 0.85377,-1.05453 1.228549,-1.72791 0.190363,-0.34204 0.324396,-0.70014 0.311108,-1.06225 -0.0133,-0.36212 -0.182647,-0.72044 -0.560086,-1.03189 l -0.06306,-0.0528 -0.07007,0.0448 c -0.244669,0.15754 -0.458262,0.39289 -0.670331,0.56803 -0.212068,0.17514 -0.403937,0.28064 -0.608203,0.23823 h -9.56e-4 c -0.08715,-0.0177 -0.125947,-0.0431 -0.138272,-0.057 -0.009,-0.0102 -0.0078,-0.0267 -0.0075,-0.0448 0.34773,-0.68239 0.635408,-0.98316 0.84644,-1.17717 0.107248,-0.0986 0.199468,-0.17365 0.273268,-0.27233 0.0738,-0.0987 0.120506,-0.22176 0.129396,-0.37978 l 0.0014,-0.0135 -0.0028,-0.0135 c -0.04748,-0.25461 -0.184785,-0.62563 -0.400797,-0.96182 -0.216011,-0.3362 -0.513084,-0.64286 -0.897354,-0.71611 l -0.0313,-0.006 -0.703964,0.27141 c 0.332549,-0.54037 0.392801,-1.15678 0.277473,-1.86151 l -0.0047,-0.0262 -0.01495,-0.0215 c -0.519793,-0.72823 -0.757231,-1.70243 -1.037026,-2.55846 -0.139896,-0.42803 -0.290628,-0.82645 -0.502631,-1.15195 -0.212002,-0.3255 -0.49075,-0.57873 -0.871195,-0.69135 -0.03885,-0.0116 -0.07753,-0.0165 -0.113044,-0.0159 l 0.0126,9.6e-4 z m 0.128461,30.13262 c -1.177836,7e-5 -2.135176,0.95695 -2.135246,2.13478 v 6.18805 h 4.270493 v -6.18805 c -6.9e-5,-1.17783 -0.957409,-2.13471 -2.135247,-2.13478 z m 0,0.22562 c 1.055713,7e-5 1.909093,0.85345 1.909155,1.90916 v 5.96196 h -3.818311 v -5.96196 c 6.2e-5,-1.05571 0.853443,-1.90909 1.909156,-1.90916 z m -9.074445,7.92111 2.501474,3.80383 -2.501474,0.005 z m 18.148892,0.003 v 3.80617 h -2.502409 z"
         id="path6872"
         inkscape:connector-curvature="0"
         sodipodi:nodetypes="cccccccccccccccccccccccccccccccccccccccccccccccccccccscsscccscccccccccccccccccccccccccccccccccccccccccccccccccccscccccccccccccccccccccccsccccccccccccccscccccccccccccccccccccccccccccccccccccccsccccccccccssssccccccscccccccccccccccccccccccccccccccccccccccccccccccccccccccccccccccccccccccccccccccccccccccccccccccccccscccccsccccccsssscccccccccscccccccccccccccccccccccccccccccccccccccscsccccccccccscccccccccccccccccccccccccccccccccccccccccccccccccccccccccccccccccccccccsccccccscccssssccccccccccccccccccccccccccccccccccccccccccccccccccccccccccccccccccccccccccccc" />
    </g>
    <g
       id="g6892">
      <path
         sodipodi:nodetypes="ccccscscscccscssccccsscccscccccsccccscsccccscccccccccccccsccccccccsscscccccscsscsccsccccscsscsccscccscssccccsscscscccscsscsccscccscssccccsscscsccccscssccccsscscscccscsscsccsccccccccscscsscccsccccccccccscssccsscscccccccscscccssccsscscccccccscscsscccsccccccccscscssccsscscccccccscscsscccsccccccccscscsscccsccccccccscsscccccccccccsccccccccscccsccscscccsccccccccscsccssccsscsccccccccccscscscccsccssssscscccccccscscsscccsccccccccccscssccsscsccccccscssccccsscscscccscsscsccscccscsscssccccscscccccscsccc"
         inkscape:connector-curvature="0"
         id="text80"
         transform="scale(0.26458333)"
         d="m 1246.4668,537.30664 -6.6895,0.0117 v 27.11133 h -7.7929 v 6.23047 c 0,1.28715 0.2221,2.32312 0.7402,3.06054 0.5183,0.73743 1.3165,1.09766 2.2578,1.09766 h 4.7949 v 34.99219 c 0,5.99406 1.1377,10.29151 3.5293,12.7832 0.1777,0.1852 0.3761,0.34998 0.5704,0.51953 h -14.7051 v -5.6543 c 0,-0.38165 -0.111,-0.76378 -0.3555,-1.01757 -0.2445,-0.25361 -0.5655,-0.3418 -0.9023,-0.3418 h -0.5118 c -0.7842,0 -1.3793,-0.12315 -1.7753,-0.32422 l -0.022,-0.008 -0.023,-0.008 c -0.2936,-0.10734 -0.5257,-0.37421 -0.7187,-0.99024 -0.1932,-0.61625 -0.3106,-1.55314 -0.3106,-2.77344 v -34.04297 c 0,-3.96922 -0.8072,-7.21198 -2.4492,-9.66992 -1.6887,-2.61142 -4.7864,-3.85156 -9.1621,-3.85156 l -4.6328,-0.002 v 47.81054 c 0,4.85742 0.8975,8.45047 2.791,10.69532 l 0.01,0.008 c 0.053,0.0605 0.1136,0.11172 0.168,0.16992 h -5.1777 v -7.01953 h -5.9727 c -1.1571,0 -2.0289,-0.19351 -2.6035,-0.52539 -0.5746,-0.33184 -0.8603,-0.75695 -0.9707,-1.37891 v -0.0195 l -0.01,-0.0195 c -0.1217,-0.50513 -0.1836,-1.14567 -0.1836,-1.92187 v -1.46485 -30.87695 c 0,-1.90231 0.2086,-3.33701 0.5761,-4.28125 l 0.01,-0.0176 0.01,-0.0273 c 0.075,-0.24529 0.294,-0.48871 0.8222,-0.68555 0.5282,-0.19691 1.3195,-0.30664 2.3536,-0.30664 h 5.9707 v -0.51758 -9.63476 l -10.375,0.0117 c -3.9975,0 -7.2924,0.53373 -9.8887,1.61524 -1.2486,0.52248 -2.2893,1.49513 -3.086,2.86914 -0.6947,1.23549 -1.2868,2.47751 -1.7753,3.71875 l -0.01,0.008 -0.01,0.0195 c -0.4405,1.30534 -0.7402,3.23375 -0.9472,5.85157 v 0.006 0.008 c -0.1369,2.59786 -0.2422,5.07593 -0.3106,7.43164 -0.069,2.28703 -0.1035,6.70053 -0.1035,13.26758 0,6.57978 0.24,11.70493 0.7246,15.39843 v 0.008 0.008 c 0.4152,2.62503 0.9284,4.56606 1.5918,5.87695 l 0.01,0.008 v 0.008 c 0.5007,0.92315 1.186,1.78029 2.0449,2.58008 h -16.6757 c 1.415,-1.81055 2.1367,-4.08421 2.1367,-6.74024 v -46.56445 c 0,-1.55414 -0.3681,-2.87426 -1.1309,-3.86914 -0.761,-0.99258 -1.797,-1.50977 -2.9902,-1.50977 h -12.1231 v 0.51758 58.16602 h -2.2128 v -7.01172 h -5.9649 c -1.7307,0 -2.8132,-0.34543 -3.1894,-0.72852 -0.3549,-0.4317 -0.586,-1.19591 -0.586,-2.4043 v -43.16015 c 0,-1.55414 -0.3758,-2.87426 -1.1387,-3.86914 -0.7611,-0.99258 -1.7891,-1.50977 -2.9824,-1.50977 h -12.123 v 0.51758 47.77539 c 0,4.42345 0.9577,7.83687 2.9238,10.125 0.081,0.0941 0.1708,0.17643 0.2559,0.26563 h -4.9786 v -7.01172 h -5.9726 c -1.7307,0 -2.8132,-0.34543 -3.1895,-0.72852 -0.3549,-0.4317 -0.5839,-1.19591 -0.5839,-2.4043 v -43.16015 c 0,-1.55414 -0.3775,-2.87426 -1.1407,-3.86914 -0.7611,-0.99258 -1.7891,-1.50977 -2.9824,-1.50977 h -12.123 v 0.51758 47.77539 c 0,4.42345 0.9577,7.83687 2.9238,10.125 0.081,0.0941 0.1712,0.17643 0.2558,0.26563 h -10.498 v -5.6543 c 0,-0.38166 -0.1106,-0.76378 -0.3555,-1.01758 -0.2445,-0.25361 -0.5656,-0.3418 -0.9023,-0.3418 h -0.5117 c -0.7842,0 -1.3794,-0.1251 -1.7754,-0.32617 l -0.024,-0.008 -0.023,-0.008 c -0.2937,-0.10734 -0.5237,-0.37609 -0.7168,-0.99219 -0.1931,-0.61622 -0.3105,-1.55314 -0.3105,-2.77344 v -42.18555 c 0,-1.55414 -0.3777,-2.87425 -1.1407,-3.86914 -0.7611,-0.99258 -1.7891,-1.50976 -2.9824,-1.50976 h -12.1211 v 51.94336 c 0,2.65633 0.6963,4.92715 2.0567,6.74023 h -3.752 v -7.01172 h -6.3867 c -1.7308,0 -2.8073,-0.34542 -3.1836,-0.72851 -0.3549,-0.4317 -0.584,-1.19591 -0.584,-2.4043 v -43.16016 c 0,-1.55414 -0.3758,-2.87425 -1.1387,-3.86914 -0.7611,-0.99258 -1.7969,-1.50976 -2.9902,-1.50976 h -12.123 v 0.51758 47.77539 c 0,4.42344 0.9577,7.83687 2.9238,10.125 0.081,0.0941 0.1712,0.17643 0.2558,0.26562 h -9.1015 v -5.6543 c 0,-0.38165 -0.109,-0.76378 -0.3535,-1.01757 -0.2446,-0.25361 -0.5676,-0.3418 -0.9043,-0.3418 h -2.5606 c -0.7842,0 -1.3871,-0.12315 -1.7832,-0.32422 l -0.014,-0.008 -0.023,-0.006 c -0.2937,-0.10734 -0.5336,-0.37421 -0.7266,-0.99024 -0.1931,-0.61625 -0.3027,-1.55314 -0.3027,-2.77343 v -64.67383 c 0,-2.86432 -0.844,-5.261 -2.4941,-7.05469 -1.6063,-1.90068 -3.991,-2.82617 -7.0684,-2.82617 h -6.6894 v 74.79688 c 0,4.85741 0.9034,8.45241 2.7968,10.69726 v 0.006 c 0.053,0.0605 0.1136,0.11172 0.168,0.16992 h -10.2852 v -5.6543 c 0,-0.38165 -0.1031,-0.76378 -0.3476,-1.01757 -0.2445,-0.25361 -0.5676,-0.33985 -0.9043,-0.33985 h -0.5098 c -0.7841,0 -1.3813,-0.1251 -1.7773,-0.32617 l -0.021,-0.008 -0.023,-0.008 c -0.2937,-0.10734 -0.5316,-0.37609 -0.7246,-0.99219 -0.1932,-0.61622 -0.3028,-1.55314 -0.3028,-2.77344 v -42.18555 c 0,-1.55414 -0.37756,-2.87425 -1.14061,-3.86914 -0.76112,-0.99258 -1.78918,-1.50976 -2.98242,-1.50976 h -12.1289 v 51.94336 c 0,2.65633 0.69623,4.92715 2.05664,6.74023 h -3.75196 v -7.01172 h -6.3789 c -1.73076,0 -2.81508,-0.34542 -3.19141,-0.72851 -0.3549,-0.4317 -0.58398,-1.19591 -0.58398,-2.4043 v -43.16016 c 0,-1.55414 -0.36965,-2.87425 -1.13282,-3.86914 -0.76116,-0.99258 -1.79696,-1.50976 -2.99023,-1.50976 h -12.12109 v 0.51758 47.77539 c 0,4.42344 0.95576,7.83687 2.92187,10.125 0.0805,0.0936 0.17139,0.17484 0.25586,0.26367 l -176.55659,0 v 0.94531 l 177.5937,0 h 0.002 1.81641 c -0.97603,-0.49485 -1.81275,-1.14095 -2.50391,-1.94531 -1.75971,-2.04798 -2.66406,-5.13992 -2.66406,-9.38867 v -47.26563 h 11.25586 c 0.99439,0 1.74149,0.38526 2.34766,1.17578 0.60438,0.78819 0.91015,1.81217 0.91015,3.17578 v 43.16016 c 0,1.37182 0.24833,2.45226 0.84375,3.1582 l 0.0156,0.008 0.008,0.0176 c 0.72223,0.74918 1.95902,0.97266 3.77539,0.97266 h 5.51367 v 6.92969 h 0.42969 v 0.002 h 5.3457 v -0.002 h 1.375 c -0.60117,-0.34734 -1.13978,-0.76286 -1.60156,-1.26172 -1.41687,-1.68695 -2.11719,-3.78467 -2.11719,-6.42188 l 0.002,-50.91601 h 11.25585 c 0.9944,0 1.73369,0.38525 2.33985,1.17578 0.60438,0.78818 0.91797,1.81217 0.91797,3.17578 v 42.18555 c 0,1.29218 0.10022,2.32291 0.35156,3.125 0.24983,0.79767 0.68365,1.3932 1.27345,1.61328 0.5561,0.27439 1.2464,0.39453 2.0879,0.39453 h 0.5098 c 0.2101,0 0.3072,0.0584 0.3359,0.0879 0.03,0.0302 0.049,0.0605 0.049,0.24609 v 6.59571 h 0.4843 v 0.002 h 12.0098 v -0.002 h 1.5508 c -0.9615,-0.47773 -1.7777,-1.09621 -2.4473,-1.85938 -1.6588,-1.97023 -2.539,-5.25649 -2.539,-9.95898 v -73.77149 h 5.8183 c 2.9357,0 5.0592,0.86553 6.461,2.52735 l 0.01,0.008 0.01,0.008 c 1.4862,1.6088 2.2207,3.6689 2.2207,6.3086 v 64.67383 c 0,1.29218 0.1037,2.32095 0.3554,3.12304 0.2499,0.79763 0.6837,1.39519 1.2735,1.61524 0.556,0.27439 1.2444,0.39453 2.0859,0.39453 h 2.5606 c 0.2101,0 0.3052,0.058 0.334,0.0879 0.03,0.0302 0.051,0.0605 0.051,0.24609 v 6.59766 h 0.2813 v 0.002 h 10.7695 v -0.002 h 1.7793 c -0.9766,-0.49493 -1.8124,-1.14058 -2.5039,-1.94531 -1.7596,-2.04798 -2.666,-5.13992 -2.666,-9.38868 v -47.26562 h 11.2578 c 0.9944,0 1.7396,0.38525 2.3457,1.17578 0.6044,0.78818 0.918,1.81217 0.918,3.17578 v 43.16016 c 0,1.37181 0.2483,2.45226 0.8437,3.1582 l 0.01,0.008 0.016,0.0195 c 0.7223,0.74918 1.9511,0.97266 3.7675,0.97266 h 5.5137 v 6.92969 h 0.1836 v 0.002 h 5.3359 v -0.002 h 1.6368 c -0.5998,-0.34734 -1.138,-0.76305 -1.5996,-1.26172 -1.4169,-1.68695 -2.1231,-3.78467 -2.1231,-6.42188 v -50.91601 h 11.2559 c 0.9944,0 1.7414,0.38525 2.3476,1.17578 0.6044,0.78818 0.9102,1.81217 0.9102,3.17578 v 42.18555 c 0,1.29218 0.1119,2.32291 0.3633,3.125 0.2498,0.79767 0.6816,1.3932 1.2714,1.61328 0.5561,0.27439 1.2386,0.39453 2.0801,0.39453 h 0.5117 c 0.2102,0 0.3037,0.0565 0.3321,0.0859 0.03,0.0302 0.059,0.0605 0.059,0.24609 v 6.59571 h 0.053 v 0.002 h 12.4668 v -0.002 h 1.7012 c -0.9761,-0.49486 -1.8127,-1.14096 -2.5039,-1.94532 -1.7597,-2.04797 -2.6641,-5.13991 -2.6641,-9.38867 v -47.26562 h 11.2559 c 0.9944,0 1.7395,0.38525 2.3457,1.17578 0.6043,0.78818 0.9101,1.81216 0.9101,3.17578 v 43.16015 c 0,1.37182 0.2484,2.45227 0.8438,3.15821 l 0.016,0.008 0.01,0.0195 c 0.7221,0.74918 1.957,0.97266 3.7734,0.97266 h 5.0996 v 6.92969 h 0.2305 v 0.002 h 6.7558 v -0.002 h 1.7168 c -0.9746,-0.49486 -1.8088,-1.14096 -2.5,-1.94532 -1.7597,-2.04797 -2.666,-5.13991 -2.666,-9.38867 v -47.26562 h 11.2578 c 0.9945,0 1.7396,0.38525 2.3457,1.17578 0.6044,0.78818 0.9102,1.81216 0.9102,3.17578 v 43.16015 c 0,1.37182 0.2482,2.45227 0.8437,3.15821 l 0.01,0.008 0.016,0.0195 c 0.7223,0.74918 1.959,0.97266 3.7754,0.97266 h 5.0996 v 6.92969 h 0.2636 v 0.002 h 3.2774 v -0.002 h 0.4023 v -58.59961 h 11.2578 c 0.9944,0 1.7397,0.38525 2.3457,1.17578 0.6044,0.78818 0.9102,1.81216 0.9102,3.17578 v 46.56445 c 0,2.63962 -0.7291,4.74004 -2.2207,6.43164 -0.4374,0.49493 -0.9547,0.9067 -1.5371,1.25196 h 1.2949 v 0.002 h 19.2363 v -0.002 h 1.6836 c -0.6142,-0.2933 -1.1911,-0.6405 -1.7226,-1.06055 -1.1901,-0.94065 -2.0601,-1.95339 -2.6348,-3.00977 0,-0.003 -0.01,-0.008 -0.01,-0.008 -0.563,-1.11798 -1.0695,-2.96939 -1.4727,-5.50977 -0.4724,-3.60086 -0.7187,-8.69012 -0.7187,-15.24023 0,-6.56281 0.034,-10.98073 0.1035,-13.23242 0.068,-2.34512 0.1741,-4.8151 0.3106,-7.4043 l -0.01,0.0176 c 0.2022,-2.55681 0.5133,-4.41711 0.8907,-5.54492 l 0.01,-0.008 v -0.0176 c 0.4659,-1.18016 1.0347,-2.3591 1.7012,-3.54492 0.7072,-1.21958 1.5825,-2.03424 2.6582,-2.48438 2.4625,-1.02573 5.6649,-1.55273 9.5977,-1.55273 v 0 h 9.5098 v 8.08984 h -5.1074 c -1.0853,0 -1.9433,0.1103 -2.6114,0.35937 -0.662,0.24681 -1.1669,0.67029 -1.3691,1.30664 -0.4474,1.16104 -0.6524,2.70837 -0.6524,4.68555 v 30.87695 1.46485 c 0,0.83115 0.068,1.54529 0.2149,2.16797 6e-4,0.004 0.01,0.004 0.01,0.008 0.1655,0.91204 0.6728,1.64208 1.4277,2.07813 0.7584,0.43804 1.7468,0.63281 2.9825,0.63281 h 5.1074 v 6.92969 h 0.1 v 0.002 h 7.2187 v -0.002 h 1.6094 c -0.9611,-0.47747 -1.7766,-1.09728 -2.4453,-1.85938 -1.6588,-1.97023 -2.5391,-5.2565 -2.5391,-9.95898 v -46.78125 h 3.7676 c 4.238,0 7.0186,1.1958 8.4746,3.44726 l 0.01,0.008 c 1.4999,2.24217 2.2637,5.2289 2.2637,9.03711 v 34.04493 c 0,1.29218 0.1123,2.32095 0.3633,3.12304 0.2498,0.79763 0.6758,1.39515 1.2656,1.61524 0.557,0.27628 1.2416,0.39453 2.0859,0.39453 h 0.5118 c 0.2101,0 0.3033,0.0564 0.332,0.0859 0.03,0.0302 0.053,0.0586 0.053,0.24415 v 6.59765 h 0.2832 v 0.002 h 16.9571 v -0.002 h 1.8066 c -0.6562,-0.26041 -1.2559,-0.56479 -1.8066,-0.9082 v -0.0332 h -0.062 c -0.599,-0.37966 -1.1353,-0.80919 -1.5996,-1.29297 -2.1204,-2.20914 -3.2325,-6.17269 -3.2325,-12.01172 v -36.01758 h -5.6621 c -0.7678,0 -1.2556,-0.25022 -1.5918,-0.72852 -0.3363,-0.47829 -0.539,-1.26 -0.539,-2.40429 v -5.20313 h 7.7929 v -27.10156 h 5.8183 c 2.9356,0 5.0593,0.85576 6.461,2.51758 l 0.01,0.008 c 1.4916,1.69157 2.2266,3.79976 2.2266,6.43945 v 64.67579 c 0,1.59669 0.3952,2.89175 1.2207,3.7539 0.8255,0.86215 2.024,1.25586 3.5234,1.25586 h 2.1543 c 0.2101,0 0.2971,0.058 0.3262,0.0879 0.03,0.0302 0.059,0.0683 0.059,0.25391 v 6.71094 h 0.2617 v 0.002 h 13.9297 v -0.002 h 1.6406 c -0.9761,-0.49486 -1.8127,-1.14096 -2.5039,-1.94532 -1.7597,-2.04797 -2.6641,-5.13991 -2.6641,-9.38867 v -47.26562 h 11.2539 c 0.9944,0 1.7416,0.38525 2.3477,1.17578 0.6044,0.78818 0.9101,1.81216 0.9101,3.17578 v 43.16015 c 0,1.37182 0.2484,2.45227 0.8438,3.15821 l 0.016,0.008 0.01,0.0195 c 0.7223,0.74918 1.959,0.97266 3.7754,0.97266 h 5.5137 v 6.92969 h 0.2461 v 0.002 h 5.4101 v -0.002 h 1.4942 c -0.6011,-0.34734 -1.1399,-0.76286 -1.6016,-1.26172 -1.4169,-1.68696 -2.1172,-3.78468 -2.1172,-6.42188 v -50.91601 h 11.248 c 0.9944,0 1.7415,0.38525 2.3477,1.17578 0.6043,0.78818 0.918,1.81216 0.918,3.17578 v 42.18555 c 0,1.29218 0.1021,2.3229 0.3535,3.125 0.2498,0.79766 0.6836,1.39319 1.2734,1.61328 0.5561,0.27439 1.2464,0.39453 2.0879,0.39453 h 0.5098 c 0.2101,0 0.2974,0.0584 0.3261,0.0879 0.03,0.0302 0.059,0.0586 0.059,0.24414 v 6.5957 h 0.1524 v 0.002 H 1366 v -0.94532 h -44.8008 v -5.65429 c 0,-0.38166 -0.1031,-0.76379 -0.3476,-1.01758 -0.2446,-0.25361 -0.5676,-0.33985 -0.9043,-0.33985 h -0.5098 c -0.7842,0 -1.3872,-0.1251 -1.7832,-0.32617 l -0.016,-0.008 -0.022,-0.008 c -0.2937,-0.10734 -0.5316,-0.37609 -0.7246,-0.99219 -0.1932,-0.61621 -0.3028,-1.55314 -0.3028,-2.77344 v -42.18554 c 0,-1.55415 -0.3775,-2.87426 -1.1406,-3.86915 -0.7611,-0.99258 -1.7969,-1.50976 -2.9902,-1.50976 h -12.1211 v 51.94336 c 0,2.65633 0.6963,4.92716 2.0566,6.74023 h -3.7519 v -7.01172 h -6.3789 c -1.7308,0 -2.8151,-0.34542 -3.1914,-0.72851 -0.3549,-0.4317 -0.584,-1.19591 -0.584,-2.4043 v -43.16015 c 0,-1.55415 -0.37,-2.87426 -1.1328,-3.86915 -0.7612,-0.99258 -1.797,-1.50976 -2.9903,-1.50976 h -12.1211 v 0.51758 47.77539 c 0,4.42344 0.9559,7.83687 2.9219,10.125 0.081,0.0945 0.1728,0.17605 0.2578,0.26562 h -12.1133 v -5.76562 c 0,-0.38166 -0.1109,-0.77363 -0.3554,-1.02735 -0.2446,-0.2536 -0.5579,-0.34179 -0.8946,-0.34179 h -2.1543 c -1.372,0 -2.3353,-0.36247 -2.9453,-1 -0.6102,-0.63727 -0.9336,-1.58232 -0.9336,-2.98438 v -64.67383 c 0,-2.86745 -0.8381,-5.30429 -2.4863,-7.17773 -1.6062,-1.90432 -3.9939,-2.82422 -7.0742,-2.82422 z m 11.25,27.12305 v 10.38867 h 5.7656 c 0.9413,0 1.7395,-0.35832 2.2578,-1.0957 0.5184,-0.73743 0.7461,-1.77535 0.7461,-3.0625 v -6.23047 h -0.4355 z m 0.873,1.02734 h 7.0235 v 5.20313 c 0,1.14429 -0.2029,1.92599 -0.5391,2.40429 -0.3364,0.4783 -0.8241,0.72657 -1.5918,0.72657 h -4.8926 z"
         clip-path="none"
         style="color:#000000;font-style:normal;font-variant:normal;font-weight:normal;font-stretch:normal;font-size:27.06199646px;line-height:274.96124268px;font-family:'Keania One';-inkscape-font-specification:'Keania One';font-variant-ligatures:normal;font-variant-position:normal;font-variant-caps:normal;font-variant-numeric:normal;font-variant-alternates:normal;font-feature-settings:normal;text-indent:0;text-align:center;text-decoration:none;text-decoration-line:none;text-decoration-style:solid;text-decoration-color:#000000;letter-spacing:normal;word-spacing:normal;text-transform:none;writing-mode:lr-tb;direction:ltr;text-orientation:mixed;dominant-baseline:auto;baseline-shift:baseline;text-anchor:middle;white-space:normal;shape-padding:0;clip-rule:nonzero;display:inline;overflow:visible;visibility:visible;opacity:1;isolation:auto;mix-blend-mode:normal;color-interpolation:sRGB;color-interpolation-filters:linearRGB;solid-color:#000000;solid-opacity:1;vector-effect:none;fill:url(#linearGradient6886);fill-opacity:1;fill-rule:nonzero;stroke:none;stroke-width:0.94488192;stroke-linecap:butt;stroke-linejoin:miter;stroke-miterlimit:4;stroke-dasharray:none;stroke-dashoffset:0;stroke-opacity:1;paint-order:fill markers stroke;color-rendering:auto;image-rendering:auto;shape-rendering:auto;text-rendering:auto;enable-background:accumulate" />
      <path
         style="color:#000000;font-style:normal;font-variant:normal;font-weight:normal;font-stretch:normal;font-size:27.06199646px;line-height:274.96124268px;font-family:'Keania One';-inkscape-font-specification:'Keania One';font-variant-ligatures:normal;font-variant-position:normal;font-variant-caps:normal;font-variant-numeric:normal;font-variant-alternates:normal;font-feature-settings:normal;text-indent:0;text-align:center;text-decoration:none;text-decoration-line:none;text-decoration-style:solid;text-decoration-color:#000000;letter-spacing:normal;word-spacing:normal;text-transform:none;writing-mode:lr-tb;direction:ltr;text-orientation:mixed;dominant-baseline:auto;baseline-shift:baseline;text-anchor:middle;white-space:normal;shape-padding:0;clip-rule:nonzero;display:inline;overflow:visible;visibility:visible;opacity:1;isolation:auto;mix-blend-mode:normal;color-interpolation:sRGB;color-interpolation-filters:linearRGB;solid-color:#000000;solid-opacity:1;vector-effect:none;fill:url(#linearGradient6886);fill-opacity:1;fill-rule:nonzero;stroke:none;stroke-width:0.94488192;stroke-linecap:butt;stroke-linejoin:miter;stroke-miterlimit:4;stroke-dasharray:none;stroke-dashoffset:0;stroke-opacity:1;paint-order:fill markers stroke;color-rendering:auto;image-rendering:auto;shape-rendering:auto;text-rendering:auto;enable-background:accumulate"
         clip-path="none"
         d="m 1246.4668,537.30664 -6.6895,0.0117 v 27.11133 h -7.7929 v 6.23047 c 0,1.28715 0.2221,2.32312 0.7402,3.06054 0.5183,0.73743 1.3165,1.09766 2.2578,1.09766 h 4.7949 v 34.99219 c 0,5.99406 1.1377,10.29151 3.5293,12.7832 0.1777,0.1852 0.3761,0.34998 0.5704,0.51953 h -14.7051 v -5.6543 c 0,-0.38165 -0.111,-0.76378 -0.3555,-1.01757 -0.2445,-0.25361 -0.5655,-0.3418 -0.9023,-0.3418 h -0.5118 c -0.7842,0 -1.3793,-0.12315 -1.7753,-0.32422 l -0.022,-0.008 -0.023,-0.008 c -0.2936,-0.10734 -0.5257,-0.37421 -0.7187,-0.99024 -0.1932,-0.61625 -0.3106,-1.55314 -0.3106,-2.77344 v -34.04297 c 0,-3.96922 -0.8072,-7.21198 -2.4492,-9.66992 -1.6887,-2.61142 -4.7864,-3.85156 -9.1621,-3.85156 l -4.6328,-0.002 v 47.81054 c 0,4.85742 0.8975,8.45047 2.791,10.69532 l 0.01,0.008 c 0.053,0.0605 0.1136,0.11172 0.168,0.16992 h -5.1777 v -7.01953 h -5.9727 c -1.1571,0 -2.0289,-0.19351 -2.6035,-0.52539 -0.5746,-0.33184 -0.8603,-0.75695 -0.9707,-1.37891 v -0.0195 l -0.01,-0.0195 c -0.1217,-0.50513 -0.1836,-1.14567 -0.1836,-1.92187 v -1.46485 -30.87695 c 0,-1.90231 0.2086,-3.33701 0.5761,-4.28125 l 0.01,-0.0176 0.01,-0.0273 c 0.075,-0.24529 0.294,-0.48871 0.8222,-0.68555 0.5282,-0.19691 1.3195,-0.30664 2.3536,-0.30664 h 5.9707 v -0.51758 -9.63476 l -10.375,0.0117 c -3.9975,0 -7.2924,0.53373 -9.8887,1.61524 -1.2486,0.52248 -2.2893,1.49513 -3.086,2.86914 -0.6947,1.23549 -1.2868,2.47751 -1.7753,3.71875 l -0.01,0.008 -0.01,0.0195 c -0.4405,1.30534 -0.7402,3.23375 -0.9472,5.85157 v 0.006 0.008 c -0.1369,2.59786 -0.2422,5.07593 -0.3106,7.43164 -0.069,2.28703 -0.1035,6.70053 -0.1035,13.26758 0,6.57978 0.24,11.70493 0.7246,15.39843 v 0.008 0.008 c 0.4152,2.62503 0.9284,4.56606 1.5918,5.87695 l 0.01,0.008 v 0.008 c 0.5007,0.92315 1.186,1.78029 2.0449,2.58008 h -16.6757 c 1.415,-1.81055 2.1367,-4.08421 2.1367,-6.74024 v -46.56445 c 0,-1.55414 -0.3681,-2.87426 -1.1309,-3.86914 -0.761,-0.99258 -1.797,-1.50977 -2.9902,-1.50977 h -12.1231 v 0.51758 58.16602 h -2.2128 v -7.01172 h -5.9649 c -1.7307,0 -2.8132,-0.34543 -3.1894,-0.72852 -0.3549,-0.4317 -0.586,-1.19591 -0.586,-2.4043 v -43.16015 c 0,-1.55414 -0.3758,-2.87426 -1.1387,-3.86914 -0.7611,-0.99258 -1.7891,-1.50977 -2.9824,-1.50977 h -12.123 v 0.51758 47.77539 c 0,4.42345 0.9577,7.83687 2.9238,10.125 0.081,0.0941 0.1708,0.17643 0.2559,0.26563 h -4.9786 v -7.01172 h -5.9726 c -1.7307,0 -2.8132,-0.34543 -3.1895,-0.72852 -0.3549,-0.4317 -0.5839,-1.19591 -0.5839,-2.4043 v -43.16015 c 0,-1.55414 -0.3775,-2.87426 -1.1407,-3.86914 -0.7611,-0.99258 -1.7891,-1.50977 -2.9824,-1.50977 h -12.123 v 0.51758 47.77539 c 0,4.42345 0.9577,7.83687 2.9238,10.125 0.081,0.0941 0.1712,0.17643 0.2558,0.26563 h -10.498 v -5.6543 c 0,-0.38166 -0.1106,-0.76378 -0.3555,-1.01758 -0.2445,-0.25361 -0.5656,-0.3418 -0.9023,-0.3418 h -0.5117 c -0.7842,0 -1.3794,-0.1251 -1.7754,-0.32617 l -0.024,-0.008 -0.023,-0.008 c -0.2937,-0.10734 -0.5237,-0.37609 -0.7168,-0.99219 -0.1931,-0.61622 -0.3105,-1.55314 -0.3105,-2.77344 v -42.18555 c 0,-1.55414 -0.3777,-2.87425 -1.1407,-3.86914 -0.7611,-0.99258 -1.7891,-1.50976 -2.9824,-1.50976 h -12.1211 v 51.94336 c 0,2.65633 0.6963,4.92715 2.0567,6.74023 h -3.752 v -7.01172 h -6.3867 c -1.7308,0 -2.8073,-0.34542 -3.1836,-0.72851 -0.3549,-0.4317 -0.584,-1.19591 -0.584,-2.4043 v -43.16016 c 0,-1.55414 -0.3758,-2.87425 -1.1387,-3.86914 -0.7611,-0.99258 -1.7969,-1.50976 -2.9902,-1.50976 h -12.123 v 0.51758 47.77539 c 0,4.42344 0.9577,7.83687 2.9238,10.125 0.081,0.0941 0.1712,0.17643 0.2558,0.26562 h -9.1015 v -5.6543 c 0,-0.38165 -0.109,-0.76378 -0.3535,-1.01757 -0.2446,-0.25361 -0.5676,-0.3418 -0.9043,-0.3418 h -2.5606 c -0.7842,0 -1.3871,-0.12315 -1.7832,-0.32422 l -0.014,-0.008 -0.023,-0.006 c -0.2937,-0.10734 -0.5336,-0.37421 -0.7266,-0.99024 -0.1931,-0.61625 -0.3027,-1.55314 -0.3027,-2.77343 v -64.67383 c 0,-2.86432 -0.844,-5.261 -2.4941,-7.05469 -1.6063,-1.90068 -3.991,-2.82617 -7.0684,-2.82617 h -6.6894 v 74.79688 c 0,4.85741 0.9034,8.45241 2.7968,10.69726 v 0.006 c 0.053,0.0605 0.1136,0.11172 0.168,0.16992 h -10.2852 v -5.6543 c 0,-0.38165 -0.1031,-0.76378 -0.3476,-1.01757 -0.2445,-0.25361 -0.5676,-0.33985 -0.9043,-0.33985 h -0.5098 c -0.7841,0 -1.3813,-0.1251 -1.7773,-0.32617 l -0.021,-0.008 -0.023,-0.008 c -0.2937,-0.10734 -0.5316,-0.37609 -0.7246,-0.99219 -0.1932,-0.61622 -0.3028,-1.55314 -0.3028,-2.77344 v -42.18555 c 0,-1.55414 -0.37756,-2.87425 -1.14061,-3.86914 -0.76112,-0.99258 -1.78918,-1.50976 -2.98242,-1.50976 h -12.1289 v 51.94336 c 0,2.65633 0.69623,4.92715 2.05664,6.74023 h -3.75196 v -7.01172 h -6.3789 c -1.73076,0 -2.81508,-0.34542 -3.19141,-0.72851 -0.3549,-0.4317 -0.58398,-1.19591 -0.58398,-2.4043 v -43.16016 c 0,-1.55414 -0.36965,-2.87425 -1.13282,-3.86914 -0.76116,-0.99258 -1.79696,-1.50976 -2.99023,-1.50976 h -12.12109 v 0.51758 47.77539 c 0,4.42344 0.95576,7.83687 2.92187,10.125 0.0805,0.0936 0.17139,0.17484 0.25586,0.26367 l -176.55659,0 v 0.94531 l 177.5937,0 h 0.002 1.81641 c -0.97603,-0.49485 -1.81275,-1.14095 -2.50391,-1.94531 -1.75971,-2.04798 -2.66406,-5.13992 -2.66406,-9.38867 v -47.26563 h 11.25586 c 0.99439,0 1.74149,0.38526 2.34766,1.17578 0.60438,0.78819 0.91015,1.81217 0.91015,3.17578 v 43.16016 c 0,1.37182 0.24833,2.45226 0.84375,3.1582 l 0.0156,0.008 0.008,0.0176 c 0.72223,0.74918 1.95902,0.97266 3.77539,0.97266 h 5.51367 v 6.92969 h 0.42969 v 0.002 h 5.3457 v -0.002 h 1.375 c -0.60117,-0.34734 -1.13978,-0.76286 -1.60156,-1.26172 -1.41687,-1.68695 -2.11719,-3.78467 -2.11719,-6.42188 l 0.002,-50.91601 h 11.25585 c 0.9944,0 1.73369,0.38525 2.33985,1.17578 0.60438,0.78818 0.91797,1.81217 0.91797,3.17578 v 42.18555 c 0,1.29218 0.10022,2.32291 0.35156,3.125 0.24983,0.79767 0.68365,1.3932 1.27345,1.61328 0.5561,0.27439 1.2464,0.39453 2.0879,0.39453 h 0.5098 c 0.2101,0 0.3072,0.0584 0.3359,0.0879 0.03,0.0302 0.049,0.0605 0.049,0.24609 v 6.59571 h 0.4843 v 0.002 h 12.0098 v -0.002 h 1.5508 c -0.9615,-0.47773 -1.7777,-1.09621 -2.4473,-1.85938 -1.6588,-1.97023 -2.539,-5.25649 -2.539,-9.95898 v -73.77149 h 5.8183 c 2.9357,0 5.0592,0.86553 6.461,2.52735 l 0.01,0.008 0.01,0.008 c 1.4862,1.6088 2.2207,3.6689 2.2207,6.3086 v 64.67383 c 0,1.29218 0.1037,2.32095 0.3554,3.12304 0.2499,0.79763 0.6837,1.39519 1.2735,1.61524 0.556,0.27439 1.2444,0.39453 2.0859,0.39453 h 2.5606 c 0.2101,0 0.3052,0.058 0.334,0.0879 0.03,0.0302 0.051,0.0605 0.051,0.24609 v 6.59766 h 0.2813 v 0.002 h 10.7695 v -0.002 h 1.7793 c -0.9766,-0.49493 -1.8124,-1.14058 -2.5039,-1.94531 -1.7596,-2.04798 -2.666,-5.13992 -2.666,-9.38868 v -47.26562 h 11.2578 c 0.9944,0 1.7396,0.38525 2.3457,1.17578 0.6044,0.78818 0.918,1.81217 0.918,3.17578 v 43.16016 c 0,1.37181 0.2483,2.45226 0.8437,3.1582 l 0.01,0.008 0.016,0.0195 c 0.7223,0.74918 1.9511,0.97266 3.7675,0.97266 h 5.5137 v 6.92969 h 0.1836 v 0.002 h 5.3359 v -0.002 h 1.6368 c -0.5998,-0.34734 -1.138,-0.76305 -1.5996,-1.26172 -1.4169,-1.68695 -2.1231,-3.78467 -2.1231,-6.42188 v -50.91601 h 11.2559 c 0.9944,0 1.7414,0.38525 2.3476,1.17578 0.6044,0.78818 0.9102,1.81217 0.9102,3.17578 v 42.18555 c 0,1.29218 0.1119,2.32291 0.3633,3.125 0.2498,0.79767 0.6816,1.3932 1.2714,1.61328 0.5561,0.27439 1.2386,0.39453 2.0801,0.39453 h 0.5117 c 0.2102,0 0.3037,0.0565 0.3321,0.0859 0.03,0.0302 0.059,0.0605 0.059,0.24609 v 6.59571 h 0.053 v 0.002 h 12.4668 v -0.002 h 1.7012 c -0.9761,-0.49486 -1.8127,-1.14096 -2.5039,-1.94532 -1.7597,-2.04797 -2.6641,-5.13991 -2.6641,-9.38867 v -47.26562 h 11.2559 c 0.9944,0 1.7395,0.38525 2.3457,1.17578 0.6043,0.78818 0.9101,1.81216 0.9101,3.17578 v 43.16015 c 0,1.37182 0.2484,2.45227 0.8438,3.15821 l 0.016,0.008 0.01,0.0195 c 0.7221,0.74918 1.957,0.97266 3.7734,0.97266 h 5.0996 v 6.92969 h 0.2305 v 0.002 h 6.7558 v -0.002 h 1.7168 c -0.9746,-0.49486 -1.8088,-1.14096 -2.5,-1.94532 -1.7597,-2.04797 -2.666,-5.13991 -2.666,-9.38867 v -47.26562 h 11.2578 c 0.9945,0 1.7396,0.38525 2.3457,1.17578 0.6044,0.78818 0.9102,1.81216 0.9102,3.17578 v 43.16015 c 0,1.37182 0.2482,2.45227 0.8437,3.15821 l 0.01,0.008 0.016,0.0195 c 0.7223,0.74918 1.959,0.97266 3.7754,0.97266 h 5.0996 v 6.92969 h 0.2636 v 0.002 h 3.2774 v -0.002 h 0.4023 v -58.59961 h 11.2578 c 0.9944,0 1.7397,0.38525 2.3457,1.17578 0.6044,0.78818 0.9102,1.81216 0.9102,3.17578 v 46.56445 c 0,2.63962 -0.7291,4.74004 -2.2207,6.43164 -0.4374,0.49493 -0.9547,0.9067 -1.5371,1.25196 h 1.2949 v 0.002 h 19.2363 v -0.002 h 1.6836 c -0.6142,-0.2933 -1.1911,-0.6405 -1.7226,-1.06055 -1.1901,-0.94065 -2.0601,-1.95339 -2.6348,-3.00977 0,-0.003 -0.01,-0.008 -0.01,-0.008 -0.563,-1.11798 -1.0695,-2.96939 -1.4727,-5.50977 -0.4724,-3.60086 -0.7187,-8.69012 -0.7187,-15.24023 0,-6.56281 0.034,-10.98073 0.1035,-13.23242 0.068,-2.34512 0.1741,-4.8151 0.3106,-7.4043 l -0.01,0.0176 c 0.2022,-2.55681 0.5133,-4.41711 0.8907,-5.54492 l 0.01,-0.008 v -0.0176 c 0.4659,-1.18016 1.0347,-2.3591 1.7012,-3.54492 0.7072,-1.21958 1.5825,-2.03424 2.6582,-2.48438 2.4625,-1.02573 5.6649,-1.55273 9.5977,-1.55273 v 0 h 9.5098 v 8.08984 h -5.1074 c -1.0853,0 -1.9433,0.1103 -2.6114,0.35937 -0.662,0.24681 -1.1669,0.67029 -1.3691,1.30664 -0.4474,1.16104 -0.6524,2.70837 -0.6524,4.68555 v 30.87695 1.46485 c 0,0.83115 0.068,1.54529 0.2149,2.16797 6e-4,0.004 0.01,0.004 0.01,0.008 0.1655,0.91204 0.6728,1.64208 1.4277,2.07813 0.7584,0.43804 1.7468,0.63281 2.9825,0.63281 h 5.1074 v 6.92969 h 0.1 v 0.002 h 7.2187 v -0.002 h 1.6094 c -0.9611,-0.47747 -1.7766,-1.09728 -2.4453,-1.85938 -1.6588,-1.97023 -2.5391,-5.2565 -2.5391,-9.95898 v -46.78125 h 3.7676 c 4.238,0 7.0186,1.1958 8.4746,3.44726 l 0.01,0.008 c 1.4999,2.24217 2.2637,5.2289 2.2637,9.03711 v 34.04493 c 0,1.29218 0.1123,2.32095 0.3633,3.12304 0.2498,0.79763 0.6758,1.39515 1.2656,1.61524 0.557,0.27628 1.2416,0.39453 2.0859,0.39453 h 0.5118 c 0.2101,0 0.3033,0.0564 0.332,0.0859 0.03,0.0302 0.053,0.0586 0.053,0.24415 v 6.59765 h 0.2832 v 0.002 h 16.9571 v -0.002 h 1.8066 c -0.6562,-0.26041 -1.2559,-0.56479 -1.8066,-0.9082 v -0.0332 h -0.062 c -0.599,-0.37966 -1.1353,-0.80919 -1.5996,-1.29297 -2.1204,-2.20914 -3.2325,-6.17269 -3.2325,-12.01172 v -36.01758 h -5.6621 c -0.7678,0 -1.2556,-0.25022 -1.5918,-0.72852 -0.3363,-0.47829 -0.539,-1.26 -0.539,-2.40429 v -5.20313 h 7.7929 v -27.10156 h 5.8183 c 2.9356,0 5.0593,0.85576 6.461,2.51758 l 0.01,0.008 c 1.4916,1.69157 2.2266,3.79976 2.2266,6.43945 v 64.67579 c 0,1.59669 0.3952,2.89175 1.2207,3.7539 0.8255,0.86215 2.024,1.25586 3.5234,1.25586 h 2.1543 c 0.2101,0 0.2971,0.058 0.3262,0.0879 0.03,0.0302 0.059,0.0683 0.059,0.25391 v 6.71094 h 0.2617 v 0.002 h 13.9297 v -0.002 h 1.6406 c -0.9761,-0.49486 -1.8127,-1.14096 -2.5039,-1.94532 -1.7597,-2.04797 -2.6641,-5.13991 -2.6641,-9.38867 v -47.26562 h 11.2539 c 0.9944,0 1.7416,0.38525 2.3477,1.17578 0.6044,0.78818 0.9101,1.81216 0.9101,3.17578 v 43.16015 c 0,1.37182 0.2484,2.45227 0.8438,3.15821 l 0.016,0.008 0.01,0.0195 c 0.7223,0.74918 1.959,0.97266 3.7754,0.97266 h 5.5137 v 6.92969 h 0.2461 v 0.002 h 5.4101 v -0.002 h 1.4942 c -0.6011,-0.34734 -1.1399,-0.76286 -1.6016,-1.26172 -1.4169,-1.68696 -2.1172,-3.78468 -2.1172,-6.42188 v -50.91601 h 11.248 c 0.9944,0 1.7415,0.38525 2.3477,1.17578 0.6043,0.78818 0.918,1.81216 0.918,3.17578 v 42.18555 c 0,1.29218 0.1021,2.3229 0.3535,3.125 0.2498,0.79766 0.6836,1.39319 1.2734,1.61328 0.5561,0.27439 1.2464,0.39453 2.0879,0.39453 h 0.5098 c 0.2101,0 0.2974,0.0584 0.3261,0.0879 0.03,0.0302 0.059,0.0586 0.059,0.24414 v 6.5957 h 0.1524 v 0.002 H 1366 v -0.94532 h -44.8008 v -5.65429 c 0,-0.38166 -0.1031,-0.76379 -0.3476,-1.01758 -0.2446,-0.25361 -0.5676,-0.33985 -0.9043,-0.33985 h -0.5098 c -0.7842,0 -1.3872,-0.1251 -1.7832,-0.32617 l -0.016,-0.008 -0.022,-0.008 c -0.2937,-0.10734 -0.5316,-0.37609 -0.7246,-0.99219 -0.1932,-0.61621 -0.3028,-1.55314 -0.3028,-2.77344 v -42.18554 c 0,-1.55415 -0.3775,-2.87426 -1.1406,-3.86915 -0.7611,-0.99258 -1.7969,-1.50976 -2.9902,-1.50976 h -12.1211 v 51.94336 c 0,2.65633 0.6963,4.92716 2.0566,6.74023 h -3.7519 v -7.01172 h -6.3789 c -1.7308,0 -2.8151,-0.34542 -3.1914,-0.72851 -0.3549,-0.4317 -0.584,-1.19591 -0.584,-2.4043 v -43.16015 c 0,-1.55415 -0.37,-2.87426 -1.1328,-3.86915 -0.7612,-0.99258 -1.797,-1.50976 -2.9903,-1.50976 h -12.1211 v 0.51758 47.77539 c 0,4.42344 0.9559,7.83687 2.9219,10.125 0.081,0.0945 0.1728,0.17605 0.2578,0.26562 h -12.1133 v -5.76562 c 0,-0.38166 -0.1109,-0.77363 -0.3554,-1.02735 -0.2446,-0.2536 -0.5579,-0.34179 -0.8946,-0.34179 h -2.1543 c -1.372,0 -2.3353,-0.36247 -2.9453,-1 -0.6102,-0.63727 -0.9336,-1.58232 -0.9336,-2.98438 v -64.67383 c 0,-2.86745 -0.8381,-5.30429 -2.4863,-7.17773 -1.6062,-1.90432 -3.9939,-2.82422 -7.0742,-2.82422 z m 11.25,27.12305 v 10.38867 h 5.7656 c 0.9413,0 1.7395,-0.35832 2.2578,-1.0957 0.5184,-0.73743 0.7461,-1.77535 0.7461,-3.0625 v -6.23047 h -0.4355 z m 0.873,1.02734 h 7.0235 v 5.20313 c 0,1.14429 -0.2029,1.92599 -0.5391,2.40429 -0.3364,0.4783 -0.8241,0.72657 -1.5918,0.72657 h -4.8926 z"
         transform="scale(0.26458333)"
         id="path6888"
         inkscape:connector-curvature="0"
         sodipodi:nodetypes="ccccscscscccscssccccsscccscccccsccccscsccccscccccccccccccsccccccccsscscccccscsscsccsccccscsscsccscccscssccccsscscscccscsscsccscccscssccccsscscsccccscssccccsscscscccscsscsccsccccccccscscsscccsccccccccccscssccsscscccccccscscccssccsscscccccccscscsscccsccccccccscscssccsscscccccccscscsscccsccccccccscscsscccsccccccccscsscccccccccccsccccccccscccsccscscccsccccccccscsccssccsscsccccccccccscscscccsccssssscscccccccscscsscccsccccccccccscssccsscsccccccscssccccsscscscccscsscsccscccscsscssccccscscccccscsccc" />
    </g>
  </g>
</svg>
