<?xml version="1.0" encoding="UTF-8" standalone="no"?>
<!-- Created with Inkscape (http://www.inkscape.org/) -->

<svg
   xmlns:dc="http://purl.org/dc/elements/1.1/"
   xmlns:cc="http://creativecommons.org/ns#"
   xmlns:rdf="http://www.w3.org/1999/02/22-rdf-syntax-ns#"
   xmlns:svg="http://www.w3.org/2000/svg"
   xmlns="http://www.w3.org/2000/svg"
   xmlns:xlink="http://www.w3.org/1999/xlink"
   xmlns:sodipodi="http://sodipodi.sourceforge.net/DTD/sodipodi-0.dtd"
   xmlns:inkscape="http://www.inkscape.org/namespaces/inkscape"
   width="1366"
   height="768.00018"
   id="svg2"
   version="1.1"
   inkscape:version="0.48.5 r10040"
   sodipodi:docname="453 wallpaper for blankon xi uluwatu_next6_send-@davro snsd.svg"
   inkscape:export-filename="D:\bitmap.png"
   inkscape:export-xdpi="89.999977"
   inkscape:export-ydpi="89.999977">
  <defs
     id="defs4">
    <linearGradient
       inkscape:collect="always"
       id="linearGradient3807">
      <stop
         style="stop-color:#99ff55;stop-opacity:1"
         offset="0"
         id="stop3809" />
      <stop
         style="stop-color:#2ca02c;stop-opacity:1"
         offset="1"
         id="stop3811" />
    </linearGradient>
    <linearGradient
       inkscape:collect="always"
       xlink:href="#linearGradient3807"
       id="linearGradient3813"
       x1="262.52228"
       y1="365.24844"
       x2="337.52866"
       y2="743.54138"
       gradientUnits="userSpaceOnUse" />
    <clipPath
       clipPathUnits="userSpaceOnUse"
       id="clipPath3844">
      <rect
         style="color:#000000;fill:#999999;fill-opacity:1;fill-rule:nonzero;stroke:none;stroke-width:2;marker:none;visibility:visible;display:inline;overflow:visible;enable-background:accumulate"
         id="rect3846"
         width="97.42675"
         height="95.388535"
         x="1249.1115"
         y="841.20294" />
    </clipPath>
  </defs>
  <sodipodi:namedview
     id="base"
     pagecolor="#ffffff"
     bordercolor="#666666"
     borderopacity="1.0"
     inkscape:pageopacity="0.0"
     inkscape:pageshadow="2"
     inkscape:zoom="0.43365533"
     inkscape:cx="722.30268"
     inkscape:cy="344.1175"
     inkscape:document-units="px"
     inkscape:current-layer="layer1"
     showgrid="false"
     inkscape:window-width="1366"
     inkscape:window-height="688"
     inkscape:window-x="-8"
     inkscape:window-y="-8"
     inkscape:window-maximized="1"
     fit-margin-top="0"
     fit-margin-left="0"
     fit-margin-right="0"
     fit-margin-bottom="0"
     inkscape:snap-global="false"
     showguides="true"
     inkscape:guide-bbox="true" />
  <metadata
     id="metadata7">
    <rdf:RDF>
      <cc:Work
         rdf:about="">
        <dc:format>image/svg+xml</dc:format>
        <dc:type
           rdf:resource="http://purl.org/dc/dcmitype/StillImage" />
        <dc:title></dc:title>
      </cc:Work>
    </rdf:RDF>
  </metadata>
  <g
     inkscape:label="photo"
     inkscape:groupmode="layer"
     id="layer1"
     transform="translate(-1396.8093,-410.43862)">
    <rect
       style="color:#000000;fill:#1a1a1a;stroke:none;stroke-width:2;marker:none;visibility:visible;display:inline;overflow:visible;enable-background:accumulate"
       id="rect4689"
       width="442.74792"
       height="395.47537"
       x="3693.0251"
       y="154.60982"
       transform="translate(1396.8093,410.43862)"
       inkscape:export-filename="D:\bitmap.png"
       inkscape:export-xdpi="361"
       inkscape:export-ydpi="361" />
    <rect
       style="color:#000000;fill:#ffeeaa;fill-opacity:1;fill-rule:nonzero;stroke:none;stroke-width:24;marker:none;visibility:visible;display:inline;overflow:visible;enable-background:accumulate"
       id="rect6260"
       width="1366"
       height="768"
       x="1396.8092"
       y="410.43863"
       inkscape:export-filename="D:\bitmap.png"
       inkscape:export-xdpi="361.22"
       inkscape:export-ydpi="361.22" />
    <path
       style="color:#000000;fill:#ffdd55;fill-opacity:1;fill-rule:nonzero;stroke:#ffe680;stroke-width:16.8188324;stroke-linecap:round;stroke-linejoin:round;stroke-miterlimit:4;stroke-opacity:1;stroke-dashoffset:0;marker:none;visibility:visible;display:inline;overflow:visible;enable-background:accumulate"
       d="m 2292.6843,886.73291 0,-13.26304 -8.1875,0 c 0,-0.43536 0,-0.87644 0,-1.3125 0,-104.30159 -84.5422,-188.84375 -188.8438,-188.84375 -104.3015,0 -188.8437,84.54216 -188.8437,188.84375 0,0.43883 -0,0.87438 0,1.3125 l -5,0 0,13.26304"
       id="path8027-0"
       inkscape:connector-curvature="0"
       sodipodi:nodetypes="cccsssccc"
       inkscape:export-filename="D:\bitmap.png"
       inkscape:export-xdpi="361"
       inkscape:export-ydpi="361" />
    <g
       id="g4564"
       inkscape:export-filename="D:\bitmap.png"
       inkscape:export-xdpi="361"
       inkscape:export-ydpi="361">
      <path
         inkscape:connector-curvature="0"
         transform="translate(1396.8093,410.43862)"
         id="path4557"
         d="m 590.03125,316.59375 a 1.244417,1.244417 0 0 0 -0.65625,0.28125 1.244417,1.244417 0 0 0 -0.0312,0.0312 c -0.7625,0.33324 -1.33715,0.87953 -1.78125,1.46875 -0.5771,0.76582 -1.08845,1.62813 -1.59375,2.25 -0.5052,0.62187 -0.9441,0.90968 -1.125,0.9375 -0.1808,0.0278 -0.50575,0.0324 -1.28125,-0.90625 a 1.244417,1.244417 0 0 0 -0.6875,-0.4375 c -1.1113,-0.2653 -2.93375,-1.22102 -4.53125,-1.53125 -0.3993,-0.0776 -0.83595,-0.1322 -1.34375,0 -0.5078,0.1322 -1.10925,0.63991 -1.28125,1.21875 -0.162,0.54546 -0.10385,1.03621 0.0312,1.53125 -2.0204,0.0622 -4.26985,0.0532 -6.65625,-0.0937 -3.0137,-0.18564 -5.6946,-0.4589 -7.625,0.1875 a 1.244417,1.244417 0 0 0 -0.3125,2.21875 c 0.3886,0.27197 0.77485,0.51897 1.15625,0.78125 -1.1492,0.15602 -2.69165,-0.0972 -4.15625,0.21875 -0.7322,0.15796 -1.5755,0.57933 -2,1.4375 -0.2458,0.49708 -0.32165,1.04911 -0.28125,1.625 -1.2793,0.22805 -2.75535,0.33412 -4.15625,0.78125 -0.8851,0.28253 -1.85335,0.79681 -2.28125,1.84375 -0.2816,0.68894 -0.18,1.43927 0.0625,2.21875 -1.1174,0.49643 -2.48165,0.96937 -3.65625,1.8125 -0.369,0.26492 -0.7246,0.57029 -1,1 -0.2753,0.42971 -0.4548,1.0123 -0.375,1.59375 0.1423,1.0351 0.8962,1.78664 1.9375,2.53125 -0.088,0.11365 -0.31735,0.36761 -0.71875,0.65625 -0.8472,0.60918 -2.0907,1.18782 -3,2.25 -0.4673,0.36732 -1.0282,0.77396 -1.5625,1.1875 -0.5343,0.41354 -1.00795,0.7694 -1.40625,1.28125 -0.1991,0.25593 -0.4713,0.5973 -0.4375,1.25 0.017,0.32635 0.17775,0.70029 0.40625,0.9375 0.2285,0.23721 0.4766,0.33548 0.6875,0.40625 0.8435,0.28308 1.52925,0.15763 2.78125,-0.0312 a 1.244417,1.244417 0 0 0 0.125,0 c 0.2818,-0.0699 0.21165,-0.0396 0.40625,-0.0625 -0.029,0.048 -0.0305,0.0442 -0.0625,0.0937 -0.2843,0.43845 -0.6645,0.96017 -1.0625,1.46875 -0.398,0.50858 -0.7842,1.00852 -1.125,1.46875 -0.3408,0.46023 -0.6406,0.72685 -0.8125,1.4375 -0.043,0.17766 -0.08,0.42737 0,0.75 0.081,0.32263 0.34885,0.70366 0.65625,0.875 0.615,0.34268 0.96865,0.17016 1.28125,0.0937 0.6008,-0.14676 1.26405,-0.4676 2.21875,-0.96875 -0.013,0.0251 -0.0182,0.0371 -0.0312,0.0625 -0.5417,1.04943 -1.296,2.34445 -1.9375,3.625 -0.5449,1.08765 -0.9805,2.12118 -1.125,3.1875 0,0.0221 -0.0293,0.0403 -0.0312,0.0625 -0.2691,0.5125 -0.52245,0.86193 -0.34375,1.6875 0.093,0.43103 0.60015,0.94726 1.03125,1.0625 0.342,0.0914 0.52435,0.0462 0.71875,0 -0.4109,0.62244 -0.83885,1.16935 -1.09375,1.84375 -0.1266,0.33509 -0.2479,0.68788 -0.1875,1.1875 0.061,0.49962 0.5008,1.11544 1,1.34375 -0.24933,0.0438 -0.462,0.11531 -0.71875,0.15625 -2.1928,0.34961 -4.11185,0.60396 -5.46875,1.375 a 1.244417,1.244417 0 0 0 0.125,2.21875 c 0.1054,0.0464 0.2061,0.0792 0.3125,0.125 -0.7084,0.16442 -1.4497,0.25425 -2.3125,0.65625 -0.5592,0.26059 -1.2392,0.78866 -1.4375,1.59375 -0.094,0.3819 -0.072,0.78057 0,1.15625 -0.8588,0.33538 -1.8014,0.625 -2.75,1.1875 -0.6406,0.37988 -1.3358,1.0058 -1.5,1.96875 -0.098,0.57343 0.054,1.11919 0.3125,1.65625 -0.744,0.52638 -1.571,1.03252 -2.25,1.84375 -0.4665,0.55737 -0.89405,1.43415 -0.59375,2.375 0.226,0.7081 0.7717,1.1717 1.4375,1.5625 -0.036,0.0416 -0.0155,0.0164 -0.0625,0.0625 -0.5023,0.48529 -1.5092,1.13931 -2.4375,1.75 -0.4642,0.30535 -0.9179,0.60931 -1.3125,0.90625 -0.3946,0.29694 -0.7509,0.52414 -1.0625,1.0625 -0.1558,0.26918 -0.32105,0.75853 -0.15625,1.28125 0.1649,0.52272 0.59855,0.80086 0.90625,0.9375 0.6154,0.27328 1.12085,0.28732 1.90625,0.28125 a 1.244417,1.244417 0 0 0 0.15625,0 c 0.6751,-0.0772 1.1733,-0.10112 1.5,-0.0625 -0.111,0.23656 -0.2832,0.5691 -0.6875,1.0625 a 1.244417,1.244417 0 0 0 -0.25,0.53125 c -0.101,0.49867 0.038,1.27034 0.5,1.6875 0.4619,0.41716 0.94995,0.47802 1.34375,0.5 0.7877,0.0439 1.51795,-0.1499 2.34375,-0.34375 0.5289,-0.12416 1.0446,-0.24421 1.5625,-0.375 -0.4514,0.68836 -0.7204,1.07055 -1.25,1.90625 -1.1701,1.84623 -2.39805,3.91979 -3.15625,5.75 a 1.244417,1.244417 0 0 0 1.25,1.6875 c -0.1308,0.48954 -0.2498,0.958 -0.0625,1.5625 0.1141,0.36891 0.38365,0.77212 0.78125,1 0.3976,0.22788 0.8288,0.2778 1.1875,0.25 0.7174,-0.0556 1.3576,-0.3412 2.1875,-0.78125 a 1.244417,1.244417 0 0 0 0.0312,-0.0312 c 0.481,-0.28132 0.78445,-0.36116 0.90625,-0.375 -0.012,10e-4 0.2548,0.53561 0.3125,1.46875 0.059,0.95215 0.0403,2.17603 0.0312,3.375 -0.01,1.19897 -0.019,2.37561 0.3125,3.4375 a 1.244417,1.244417 0 0 0 0.0312,0.0625 c 0.1401,0.37424 0.603,0.92271 1.1875,1 0.5845,0.0773 0.9479,-0.15357 1.1875,-0.3125 0.4793,-0.31786 0.76135,-0.66881 1.09375,-1.0625 0.1894,-0.22419 0.2427,-0.30119 0.4375,-0.53125 0.246,0.68484 0.4671,1.39888 0.875,2.03125 0.204,0.31618 0.4755,0.63161 0.9375,0.875 0.4621,0.24339 1.1411,0.26615 1.625,0.0312 0.7129,-0.34593 1.1535,-0.95166 1.5625,-1.71875 0.3191,0.51246 0.65525,1.22901 1.03125,2 0.2243,0.4598 0.4417,0.91561 0.6875,1.3125 0.2458,0.39689 0.41505,0.80462 1.21875,1.09375 0.4019,0.14457 1.04645,0.0849 1.40625,-0.1875 0.3598,-0.27238 0.51,-0.56717 0.625,-0.84375 0.2096,-0.50405 0.31295,-1.13222 0.40625,-1.90625 0.01,-0.0754 0.0222,-0.10775 0.0312,-0.1875 0.1236,-0.48763 0.1967,-0.72095 0.3125,-1.1875 0.1764,0.39176 0.34805,0.79842 0.59375,1.09375 0.185,0.22227 0.4068,0.44404 0.75,0.59375 0.3433,0.14971 0.823,0.18878 1.1875,0.0625 0.7291,-0.25256 0.972,-0.74165 1.1875,-1.15625 0.2156,-0.4146 0.3566,-0.8542 0.5,-1.34375 0.023,-0.0772 0.0415,-0.13906 0.0625,-0.21875 l 2.5625,3.21875 c 1.1927,1.73052 2.33745,3.2216 3.53125,5.03125 5.5537,8.41859 10.69685,16.94439 12.78125,20.5 -1.2735,12.60971 -1.48465,19.23177 -1.71875,23.9375 -0.2372,4.76921 -0.5049,7.61076 -1.9375,13.3125 a 1.244417,1.244417 0 0 0 1.125,1.5625 l 11.46875,0.8125 a 1.244417,1.244417 0 0 0 1.34375,-1.375 c -2.1115,-22.75446 1.56275,-46.16575 1.65625,-67.5 0.021,-0.0254 2.5e-4,-0.0323 0.0312,-0.0625 0.191,-0.21654 0.5254,-0.56929 0.9375,-0.96875 0.8242,-0.79892 2.00965,-1.87905 3.40625,-3.125 2.4609,-2.19532 5.5735,-4.91161 8.5,-7.46875 0.6244,1.08548 1.25885,2.15614 1.84375,3.28125 a 1.244417,1.244417 0 0 0 2.21875,-0.0625 c 0.6519,-1.49275 1.30975,-2.99854 1.96875,-4.5 1.9672,0.355 3.93035,0.70775 5.90625,1.0625 0.02,0.004 0.0425,-0.004 0.0625,0 0.7568,0.33931 1.5304,0.50464 2.25,0.28125 0.8386,-0.2603 1.3874,-0.88977 1.75,-1.5 0.7253,-1.22045 1.01365,-2.62869 1.40625,-3.625 a 1.244417,1.244417 0 0 0 0.0937,-0.34375 c 0.1042,-1.02084 0.33375,-1.5534 0.46875,-1.71875 0.135,-0.16535 0.13005,-0.13779 0.40625,-0.125 0.5525,0.0256 1.9253,0.69412 3.3125,1.4375 A 1.244417,1.244417 0 0 0 620.875,393.5 l -0.40625,-4.4375 c 0.1743,0.0869 0.3114,0.16238 0.5,0.25 0.26,0.12074 0.6199,0.16796 0.9375,0.25 0.5666,0.29706 1.01945,0.5055 1.65625,0.5 0.3184,-0.003 0.70745,-0.0872 1.03125,-0.34375 0.3239,-0.25653 0.4913,-0.61059 0.5625,-0.90625 0.1425,-0.59132 0.0505,-1.03154 -0.0625,-1.46875 -0.1132,-0.43721 -0.28075,-0.87754 -0.46875,-1.34375 -0.376,-0.93242 -0.872,-1.92766 -1.25,-2.8125 -0.378,-0.88484 -0.59175,-1.74445 -0.59375,-1.8125 a 1.244417,1.244417 0 0 0 -0.21875,-0.6875 c -0.6743,-0.96899 -0.79335,-1.53045 -0.78125,-1.65625 0.012,-0.1258 0,-0.12392 0.375,-0.3125 0.7292,-0.37133 2.57425,-0.59215 4.21875,-1.03125 0.026,-0.007 0.0375,-0.0242 0.0625,-0.0312 0.348,-0.073 0.7179,-0.16153 1.0625,-0.5625 0.3646,-0.42427 0.40195,-1.11605 0.28125,-1.5 -0.2413,-0.7679 -0.6119,-1.03968 -1,-1.40625 -0.1995,-0.18851 -0.39275,-0.35512 -0.59375,-0.53125 a 1.244417,1.244417 0 0 0 0.65625,-2.0625 c -0.6311,-0.6876 -1.94895,-1.76938 -3.65625,-3 -1.5357,-1.10696 -3.22705,-2.18477 -4.78125,-2.8125 0.5544,-0.17525 1.0867,-0.34668 1.6875,-0.53125 0.8396,-0.25792 1.578,-0.52214 2.25,-0.875 1.0387,-0.13297 1.8058,-0.18934 2.4375,-1.03125 0.337,-0.44902 0.3644,-1.1941 0.1875,-1.625 -0.1768,-0.4309 -0.41335,-0.68122 -0.65625,-0.90625 -0.5116,-0.47399 -1.0373,-0.76206 -1.625,-1.125 1.3001,-0.86708 2.60275,-1.72633 3.90625,-2.59375 a 1.244417,1.244417 0 0 0 0.375,-1.6875 c -0.3506,-0.56002 -0.82995,-0.71449 -1.28125,-0.875 0.2204,-0.13854 0.47045,-0.29051 0.59375,-0.5625 0.1568,-0.34545 0.13885,-0.66615 0.0937,-0.90625 -0.1663,-0.88145 -0.58605,-1.33617 -1.28125,-2.09375 -0.1951,-1.05578 -0.68735,-1.98143 -1.34375,-2.75 -0.7902,-0.92522 -1.7456,-1.71007 -2.5625,-2.4375 -0.8169,-0.72743 -1.4908,-1.41294 -1.75,-1.84375 -0.1296,-0.21541 -0.15635,-0.34182 -0.15625,-0.375 10e-5,-0.004 4e-4,-0.0274 0,-0.0312 1.1735,-0.45612 2.0115,-0.82737 2.5,-1.75 0.276,-0.52126 0.2254,-1.31814 -0.0625,-1.78125 -0.2883,-0.46311 -0.6415,-0.69828 -1,-0.90625 -1.2161,-0.70566 -2.81795,-1.07794 -4.15625,-1.5 -0.1899,-1.98485 1.3423,-3.89888 2.125,-5.90625 a 1.244417,1.244417 0 0 0 -0.78125,-1.625 c -1.7739,-0.53648 -3.58145,-1.30552 -5.40625,-2.03125 0.7947,-0.85695 1.6581,-1.69761 2.25,-2.59375 0.2225,-0.33682 0.4109,-0.67837 0.5,-1.1875 0.045,-0.25457 0.0453,-0.56087 -0.0937,-0.90625 -0.1384,-0.34538 -0.43105,-0.65559 -0.71875,-0.8125 -0.5754,-0.31382 -1.0377,-0.27457 -1.5625,-0.21875 -0.4627,0.0492 -1.02635,0.17138 -1.65625,0.34375 -1.2188,-0.18848 -2.44435,0.0365 -3.65625,0.34375 -1.3467,0.34141 -2.67715,0.77077 -3.78125,1 -1.104,0.22923 -1.86675,0.17249 -2.09375,0.0312 -0.1135,-0.0706 -0.18555,-0.1416 -0.28125,-0.4375 -0.096,-0.2959 -0.16235,-0.83794 -0.0937,-1.625 a 1.244417,1.244417 0 0 0 0,-0.0312 c 0.07,-1.37268 0.0361,-2.30973 -0.34375,-3.15625 -0.1897,-0.42326 -0.548,-0.87722 -1.0625,-1.09375 -0.5144,-0.21653 -1.0408,-0.13891 -1.4375,0 -0.7933,0.27782 -1.3312,0.80035 -1.9375,1.40625 -0.4774,0.47721 -0.97555,1.06953 -1.46875,1.65625 -0.1628,-0.11503 -0.4398,-0.37101 -0.75,-0.75 -0.6347,-0.77554 -1.30065,-1.85106 -2.34375,-2.625 L 592,317.34375 c -0.024,-0.0235 -0.0678,-0.009 -0.0937,-0.0312 -0.037,-0.0267 -0.0548,-0.0679 -0.0937,-0.0937 l -0.0312,0.0312 c -0.5047,-0.40679 -1.1384,-0.72445 -1.75,-0.65625 z m -7.15625,77.5625 c 1.5089,0.53545 3.02265,1.05664 4.53125,1.59375 l 0.0312,-0.0625 c 0.6152,0.39105 1.25055,0.72706 1.90625,0.75 0.7821,0.0274 1.5033,-0.26312 2.0625,-0.65625 0.6124,-0.43049 1.0757,-0.95679 1.5,-1.53125 0.8692,1.01572 1.70495,2.05091 2.46875,3.1875 -2.9243,2.54451 -6.0395,5.2586 -8.4375,7.25 -1.1577,0.96142 -2.04925,1.66182 -2.78125,2.1875 -0.2717,-2.77022 -0.70095,-6.01191 -1.28125,-9.5 0.2164,-0.0646 0.4158,-0.10044 0.625,-0.34375 0.3198,-0.372 0.38705,-0.86108 0.34375,-1.15625 -0.043,-0.29517 -0.15,-0.49274 -0.25,-0.6875 -0.1619,-0.31556 -0.42955,-0.65717 -0.71875,-1.03125 z M 565.25,399.375 c 0.4491,0.63308 0.9162,1.30381 1.5,1.96875 0.5755,0.65556 1.2948,1.21478 2.1875,1.5 0.035,0.0112 0.0578,0.0525 0.0937,0.0625 0.5248,0.43041 0.84215,0.74665 1.59375,0.84375 0.3992,0.0516 1.1395,-0.17713 1.4375,-0.625 0.298,-0.44787 0.2655,-0.7712 0.25,-1.03125 -0.049,-0.8287 -0.3896,-1.51237 -0.6875,-2.21875 0.7802,0.45774 1.56295,0.91871 2.34375,1.375 a 1.244417,1.244417 0 0 0 0.6875,0.1875 c 0.3714,-0.0223 1.047,0.0419 1.625,0.0937 -0.1507,6.62448 -0.5171,13.57989 -1.125,19.5625 -0.5149,5.06845 -1.193,9.06252 -1.9375,11.96875 l -15.0312,-18.7187 c -1.271,-1.84231 -2.5401,-3.73801 -3.75,-5.375 0.1044,-0.54385 0.2993,-1.46066 0.375,-1.71875 A 1.244417,1.244417 0 0 0 554.875,407 c 0.1341,-1.53985 0.39135,-3.05161 0.59375,-3.40625 0.099,0.0327 0.45015,0.1649 1.09375,0.75 a 1.244417,1.244417 0 0 0 2,-0.40625 c 0.5719,-1.31475 1.1256,-2.6275 1.6875,-3.9375 0.037,0.0394 0.0567,0.0541 0.0937,0.0937 0.5023,0.54366 0.9972,1.13625 1.5625,1.59375 0.2827,0.22875 0.58535,0.4552 1.03125,0.59375 0.4459,0.13855 1.2349,0.0371 1.6875,-0.40625 0.4526,-0.44337 0.563,-0.92766 0.625,-1.40625 0.041,-0.31605 0.012,-0.70805 0,-1.09375 z"
         style="color:#000000;fill:#d45500;fill-opacity:1;fill-rule:nonzero;stroke:none;stroke-width:2.48858523;marker:none;visibility:visible;display:inline;overflow:visible;enable-background:accumulate" />
      <path
         inkscape:connector-curvature="0"
         id="path4172"
         transform="translate(1396.8093,410.43862)"
         d="m 523.125,359.53125 c -0.82623,0.098 -1.39981,0.63118 -1.9375,1.125 -0.6145,0.56437 -1.2105,1.22717 -1.75,1.6875 -0.5395,0.46033 -0.99825,0.68583 -1.28125,0.6875 -0.2829,0.002 -0.64915,-0.14032 -1.28125,-1.03125 a 1.0001,1.0001 0 0 0 -0.46875,-0.34375 c -1.0606,-0.37877 -2.6894,-1.43166 -4.0625,-1.875 -0.3432,-0.11084 -0.7033,-0.19098 -1.125,-0.15625 -0.4216,0.0347 -0.98475,0.33714 -1.21875,0.8125 -0.2287,0.46464 -0.2057,0.89716 -0.125,1.34375 -1.9439,-0.1918 -4.13655,-0.51311 -6.40625,-0.9375 -2.7901,-0.52173 -5.27755,-1.05898 -7.03125,-0.78125 a 1.0001,1.0001 0 0 0 -0.46875,1.78125 c 0.3378,0.27864 0.6652,0.54125 1,0.8125 a 1.0001,1.0001 0 0 0 -0.125,0 c -1.1357,-0.0148 -2.52985,-0.4085 -3.84375,-0.34375 -0.6569,0.0324 -1.41455,0.24478 -1.90625,0.90625 -0.2799,0.37666 -0.4086,0.82792 -0.4375,1.3125 -1.2622,0.0429 -2.7239,-0.0401 -4.0625,0.15625 -0.8236,0.12082 -1.70175,0.39207 -2.21875,1.21875 -0.3391,0.5422 -0.328,1.18788 -0.1875,1.875 -1.1149,0.28468 -2.4632,0.51469 -3.625,1.0625 -0.3604,0.16995 -0.7021,0.36752 -1,0.6875 -0.2979,0.31998 -0.54425,0.80239 -0.53125,1.3125 0.023,0.90552 0.6289,1.58292 1.5,2.3125 -0.1049,0.0902 -0.31635,0.28043 -0.71875,0.46875 -0.8739,0.40896 -2.08585,0.73508 -3.03125,1.5 -0.01,0.004 -0.0242,-0.004 -0.0312,0 -0.059,0.0484 -0.1309,0.0728 -0.1875,0.125 -0.4334,0.21971 -0.9115,0.41898 -1.375,0.65625 -0.54,0.27643 -1.0211,0.53865 -1.4375,0.90625 -0.2082,0.1838 -0.48685,0.39235 -0.53125,0.96875 -0.022,0.2882 0.08,0.63514 0.25,0.84375 0.1704,0.20861 0.36675,0.29993 0.53125,0.375 0.658,0.30029 1.29555,0.31281 2.46875,0.3125 a 1.0001,1.0001 0 0 0 0.0937,0 c 0.4457,-0.0377 0.4595,0.012 0.6875,0.0312 -0.043,0.0507 -0.0437,0.0412 -0.0937,0.0937 -0.3113,0.33007 -0.73225,0.72023 -1.15625,1.09375 -0.424,0.37352 -0.85465,0.72335 -1.21875,1.0625 -0.364,0.33915 -0.66335,0.52934 -0.90625,1.125 -0.061,0.14891 -0.13795,0.36694 -0.0937,0.65625 0.044,0.28931 0.2765,0.60015 0.5,0.75 0.4471,0.29969 0.7263,0.24092 1,0.21875 0.5476,-0.0443 1.1835,-0.21271 2.1875,-0.53125 a 1.0001,1.0001 0 0 0 0.0312,-0.0312 c 0.1273,-0.046 0.1372,-0.0255 0.25,-0.0625 -0.047,0.0627 -0.075,0.0909 -0.125,0.15625 -0.6165,0.80493 -1.4532,1.79654 -2.1875,2.78125 -0.6208,0.8324 -1.1215,1.651 -1.375,2.53125 -0.01,0.0222 -0.0253,0.0402 -0.0312,0.0625 -0.3042,0.38846 -0.5815,0.63753 -0.5,1.375 0.043,0.38737 0.4331,0.81823 0.75,0.9375 0.3034,0.11417 0.5052,0.11406 0.6875,0.0937 -0.2154,0.22831 -0.39955,0.42606 -0.59375,0.65625 -0.3034,0.35953 -0.5784,0.70297 -0.75,1.1875 -0.086,0.24226 -0.1553,0.54557 -0.0625,0.90625 0.013,0.0515 0.0727,0.0751 0.0937,0.125 -0.024,0.11717 -0.0878,0.22046 -0.0937,0.34375 -5e-4,0.01 4e-4,0.0213 0,0.0312 -0.873,0.076 -1.82955,0.0807 -2.78125,0.3125 -0.6366,0.15507 -1.36055,0.44929 -1.71875,1.21875 -0.2103,0.45174 -0.1808,0.91312 -0.0625,1.40625 -0.792,0.25322 -1.6578,0.47617 -2.4375,0.96875 -0.2648,0.16728 -0.50455,0.35565 -0.71875,0.65625 -0.2141,0.3006 -0.3525,0.73084 -0.3125,1.15625 0.061,0.64872 0.45275,1.13742 0.96875,1.59375 -0.038,0.0226 -0.0165,0.009 -0.0625,0.0312 -0.5759,0.28193 -1.62215,0.57107 -2.59375,0.84375 -0.4857,0.13634 -0.9608,0.26263 -1.375,0.40625 -0.4141,0.14362 -0.76355,0.23658 -1.15625,0.59375 -0.1963,0.17859 -0.4788,0.5521 -0.4375,1.03125 0.041,0.47915 0.342,0.77627 0.5625,0.9375 0.441,0.32246 0.89345,0.44699 1.59375,0.625 a 1.0001,1.0001 0 0 0 0.0937,0.0312 c 0.669,0.10408 1.21055,0.21632 1.53125,0.34375 0.112,0.0445 0.0408,0.0283 0.0937,0.0625 -0.1434,0.16136 -0.36495,0.37725 -0.84375,0.6875 a 1.0001,1.0001 0 0 0 -0.34375,0.375 c -0.2016,0.39331 -0.2378,1.09259 0.0625,1.5 0.3008,0.40741 0.6777,0.52252 1,0.625 0.6446,0.20495 1.3431,0.27302 2.125,0.3125 0.5941,0.03 1.20135,0.0398 1.78125,0.0625 -0.5684,0.46242 -0.91175,0.73901 -1.59375,1.3125 -1.4447,1.21478 -2.9911,2.59693 -4.0625,3.90625 a 1.0001,1.0001 0 0 0 0.8125,1.625 c -0.24,0.39038 -0.4807,0.74099 -0.4375,1.3125 0.025,0.33271 0.19665,0.7531 0.46875,1 0.2722,0.2469 0.5784,0.34886 0.875,0.40625 0.5933,0.11478 1.2291,0.0326 2.0625,-0.125 a 1.0001,1.0001 0 0 0 0.0312,0 c 0.4533,-0.10428 0.7213,-0.11695 0.9375,-0.125 -0.031,0.10308 -0.0367,0.17246 -0.0937,0.3125 -0.2253,0.56014 -0.62145,1.32562 -0.96875,2.15625 -0.3473,0.83063 -0.67935,1.73128 -0.59375,2.71875 a 1.0001,1.0001 0 0 0 0,0.0625 c 0.058,0.38855 0.3195,0.71015 0.5625,0.90625 0.2431,0.1961 0.47695,0.30074 0.71875,0.375 0.4836,0.14852 0.9844,0.18349 1.5,0.1875 0.6139,0.005 1.10715,-0.12988 1.65625,-0.21875 0.044,0.23154 0.10885,0.41363 0.15625,0.65625 0.1055,0.54022 0.18085,1.0825 0.53125,1.625 0.1753,0.27125 0.4741,0.57803 0.875,0.71875 0.401,0.14072 0.8298,0.0716 1.1875,-0.0625 0.6391,-0.23951 1.22685,-0.74537 1.90625,-1.46875 0.05,0.12487 0.0135,0.0794 0.0625,0.25 0.1436,0.49813 0.2828,1.15719 0.875,1.71875 0.2961,0.28078 0.75315,0.4896 1.21875,0.53125 0.4657,0.0417 0.92915,-0.0779 1.40625,-0.28125 a 1.0001,1.0001 0 0 0 0.46875,-0.40625 c 0.2393,-0.40666 0.4711,-0.78068 0.6875,-1.125 0.031,0.14787 0.0375,0.0895 0.0625,0.28125 a 1.0001,1.0001 0 0 0 0,0.0312 c 0.1321,0.88229 0.28945,1.49977 0.71875,2.03125 0.2146,0.26574 0.5613,0.51376 0.9375,0.59375 0.3762,0.08 0.726,-0.001 1,-0.125 0.548,-0.247 0.907,-0.64005 1.25,-1.0625 0.1251,-0.15403 0.22525,-0.33319 0.34375,-0.5 5.8547,4.1166 11.9782,8.40156 15.3125,13.9375 -0.7994,7.91366 -1.1499,13.21267 -1.375,17.375 -0.025,-0.0188 -0.2206,-0.12941 -0.4375,-0.84375 a 1.0001,1.0001 0 0 0 -0.0625,-0.15625 c -0.6307,-1.30154 -1.29785,-2.17046 -2.15625,-2.65625 -0.8584,-0.48579 -1.88935,-0.39991 -2.65625,0 -1.327,0.69203 -2.2908,2.04109 -3.25,3.34375 -1.5035,-0.42858 -3.6896,-1.56899 -5.5625,-2.25 -0.513,-0.18655 -1.0055,-0.3468 -1.5,-0.40625 -0.4944,-0.0594 -1.0495,-0.0543 -1.5625,0.28125 -0.5129,0.33552 -0.80535,0.97382 -0.84375,1.5625 -0.011,0.1684 0.0797,0.38622 0.0937,0.5625 -2.0445,-0.15463 -4.39655,-0.42327 -6.78125,-0.6875 -2.8133,-0.31172 -5.31485,-0.58129 -6.96875,-0.21875 a 1.0001,1.0001 0 0 0 -0.375,1.78125 c 0.4301,0.31425 0.86355,0.63592 1.28125,0.9375 a 1.0001,1.0001 0 0 0 -0.21875,0 c -1.17,0.0677 -2.604,-0.22021 -3.9375,-0.0312 -0.6667,0.0944 -1.4616,0.39745 -1.875,1.125 -0.244,0.42957 -0.30845,0.91563 -0.28125,1.4375 -1.2759,0.13585 -2.76175,0.15034 -4.09375,0.46875 -0.8232,0.1968 -1.7059,0.56982 -2.125,1.46875 -0.2825,0.60622 -0.162,1.28281 0.0625,2 -1.1515,0.38233 -2.4796,0.72605 -3.5625,1.40625 -0.3371,0.21179 -0.6837,0.45866 -0.9375,0.8125 -0.2537,0.35384 -0.4199,0.85248 -0.375,1.34375 0.08,0.87077 0.7006,1.53044 1.5625,2.21875 -0.081,0.0712 -0.1757,0.18349 -0.5,0.34375 -0.8429,0.41668 -2.2994,0.84151 -3.625,1.21875 -0.6627,0.18862 -1.29365,0.36902 -1.84375,0.5625 -0.5501,0.19348 -0.9933,0.34069 -1.4375,0.75 -0.2221,0.20465 -0.51245,0.5927 -0.46875,1.09375 0.044,0.50105 0.3683,0.81108 0.625,1 0.5136,0.37784 1.09115,0.57278 2.03125,0.8125 a 1.0001,1.0001 0 0 0 0.0937,0.0312 c 0.9772,0.15238 1.74645,0.33549 2.21875,0.53125 0.4723,0.19576 0.55835,0.3899 0.53125,0.3125 a 1.0001,1.0001 0 0 0 0.9375,0.65625 l 72.03125,0 a 1.0001,1.0001 0 0 0 0.25,-0.0312 c 0.1628,-0.0426 0.231,-0.0752 0.3125,-0.0937 a 1.0001,1.0001 0 0 0 0.46875,-0.25 c 0.1869,-0.17629 0.35205,-0.37084 0.46875,-0.65625 0.1167,-0.28541 0.14605,-0.68844 0.0312,-1 -0.2291,-0.62312 -0.66725,-0.79531 -1.03125,-0.96875 -0.728,-0.34688 -1.58835,-0.54605 -2.40625,-0.8125 -0.8178,-0.26645 -1.55445,-0.62859 -1.78125,-0.875 -0.1134,-0.12321 -0.1225,-0.18043 -0.125,-0.28125 0,-0.10082 0.044,-0.31612 0.28125,-0.6875 a 1.0001,1.0001 0 0 0 0.15625,-0.6875 c -0.063,-0.36916 0.044,-0.68778 0.3125,-1.09375 0.2682,-0.40597 0.65765,-0.81962 1.03125,-1.28125 0.1869,-0.23082 0.40255,-0.47194 0.53125,-0.84375 0.1287,-0.37181 0.1029,-0.97445 -0.1875,-1.375 -0.5637,-0.77747 -1.36725,-0.91318 -2.59375,-1.125 -0.04,-0.01 -0.0548,-0.0217 -0.0937,-0.0312 -0.9074,-0.22534 -1.6773,-0.46744 -2.1875,-0.71875 -0.5321,-0.26209 -0.7734,-0.54526 -0.8125,-0.625 -0.039,-0.0797 -0.10185,-0.0424 0.0937,-0.34375 0.1954,-0.30138 0.7166,-0.7809 1.5625,-1.34375 a 1.0001,1.0001 0 0 0 0.0937,-0.0937 c 0.4631,-0.40351 0.78745,-0.71438 0.96875,-1.28125 0.091,-0.28343 0.104,-0.6995 -0.0625,-1.03125 -0.1669,-0.33175 -0.42915,-0.51578 -0.65625,-0.625 -0.4542,-0.21845 -0.8626,-0.23697 -1.3125,-0.25 -0.4499,-0.013 -0.9131,0.0184 -1.4375,0.0625 -1.0488,0.0881 -2.2361,0.25844 -3.25,0.375 -0.7265,0.0835 -1.1163,0.089 -1.5,0.0937 -0.42756,-10.31675 -1.0048,-21.59982 -0.1875,-26.5625 0.0261,-0.003 0.14837,-0.27484 0.4375,-0.5625 0.3851,-0.38358 0.9866,-0.8853 1.6875,-1.4375 1.4018,-1.10441 3.2681,-2.453 5.1875,-3.8125 1.9194,-1.3595 3.8695,-2.73034 5.4375,-3.9375 0.784,-0.60358 1.48085,-1.17937 2.03125,-1.6875 0.07,-0.0643 0.091,-0.12592 0.15625,-0.1875 1.3214,2.12692 2.509,4.33622 3.5,6.6875 a 1.0001,1.0001 0 0 0 1.75,0.1875 c 0.7892,-1.19399 1.56405,-2.37694 2.34375,-3.5625 1.8633,0.56151 3.72575,1.12587 5.59375,1.6875 l 0,-0.0312 c 0.6401,0.36865 1.3041,0.61965 1.9375,0.53125 0.7268,-0.10143 1.2872,-0.53893 1.6875,-1 0.8006,-0.92214 1.2181,-2.0688 1.6875,-2.84375 a 1.0001,1.0001 0 0 0 0.125,-0.28125 c 0.204,-0.82842 0.4648,-1.23917 0.625,-1.375 0.1602,-0.13583 0.2485,-0.14808 0.5625,-0.0937 0.6281,0.10856 1.8544,0.86795 3.0625,1.65625 a 1.0001,1.0001 0 0 0 1.53125,-0.8125 c 0.037,-1.28361 0.083,-2.57874 0.125,-3.875 0.2279,0.13871 0.45785,0.28582 0.71875,0.4375 0.2423,0.14082 0.55165,0.24333 0.84375,0.34375 0.4824,0.30897 0.8683,0.5303 1.375,0.59375 0.2534,0.0317 0.54855,-2.1e-4 0.84375,-0.15625 0.2952,-0.15604 0.5241,-0.44166 0.625,-0.6875 0.2019,-0.49168 0.1227,-0.86849 0.0625,-1.25 -0.06,-0.38151 -0.15535,-0.77543 -0.28125,-1.1875 -0.2516,-0.82415 -0.58555,-1.7162 -0.84375,-2.5 -0.2582,-0.7838 -0.3777,-1.53437 -0.375,-1.5625 a 1.0001,1.0001 0 0 0 -0.125,-0.59375 c -0.5288,-0.89637 -0.54775,-1.40019 -0.53125,-1.46875 0.017,-0.0686 -5e-5,-0.0995 0.40625,-0.21875 0.7952,-0.235 2.54805,-0.15718 4.09375,-0.3125 0.02,-8.3e-4 0.0425,-0.0303 0.0625,-0.0312 0.2977,-0.0148 0.62885,-0.0405 0.96875,-0.3125 0.363,-0.2905 0.47915,-0.90845 0.40625,-1.25 -0.1456,-0.6831 -0.46295,-0.93155 -0.78125,-1.28125 -0.1745,-0.19177 -0.35245,-0.34896 -0.53125,-0.53125 a 1.0001,1.0001 0 0 0 0.875,-1.625 c -0.4932,-0.62348 -1.6167,-1.70613 -3.0625,-2.9375 -1.3396,-1.141 -2.84415,-2.24609 -4.21875,-2.9375 0.569,-0.0811 1.1306,-0.13668 1.75,-0.21875 0.7786,-0.10317 1.4422,-0.25214 2.0625,-0.4375 0.027,-0.008 0.0667,0.008 0.0937,0 0.4833,0.004 0.9015,-0.004 1.25,-0.0625 0.3747,-0.0631 0.74385,-0.14376 1.09375,-0.46875 0.3499,-0.32499 0.46945,-0.99629 0.34375,-1.375 -0.1256,-0.37871 -0.33415,-0.60493 -0.53125,-0.8125 -0.4173,-0.43956 -0.89335,-0.74991 -1.40625,-1.125 1.3324,-0.56755 2.6751,-1.12193 4,-1.6875 a 1.0001,1.0001 0 0 0 0.46875,-1.375 c -0.2904,-0.55409 -0.7102,-0.74612 -1.125,-0.9375 -0.4148,-0.19138 -0.8743,-0.32873 -1.375,-0.46875 -0.7824,-0.21882 -1.65015,-0.41994 -2.46875,-0.625 -0.012,-0.0278 -0.0193,-0.0663 -0.0312,-0.0937 -0.1743,-0.38683 -0.4713,-0.8183 -0.875,-1.34375 -0.043,-0.37497 -0.1066,-0.72725 -0.25,-1.0625 l 0,-0.0312 c -0.065,-0.14844 -0.049,-0.32914 -0.125,-0.46875 l -0.0312,0.0312 c -0.1435,-0.56717 -0.46175,-1.0225 -0.90625,-1.34375 -0.01,-0.0124 -0.0213,-0.019 -0.0312,-0.0312 -0.9455,-1.13725 -2.09325,-2.19644 -2.71875,-3 -0.3161,-0.40616 -0.4825,-0.73161 -0.5,-0.84375 -0.01,-0.0561 0.0565,-0.0822 0.0625,-0.0937 1.1303,-0.22584 1.91115,-0.38793 2.46875,-1.09375 0.3131,-0.39627 0.3386,-1.11961 0.125,-1.53125 -0.2135,-0.41164 -0.48465,-0.63674 -0.78125,-0.84375 -1.0244,-0.71489 -2.5267,-1.24718 -3.75,-1.78125 0,-0.75073 0.23285,-1.44739 0.71875,-2.15625 0.5832,-0.85063 1.3547,-1.60226 1.875,-2.46875 a 1.0001,1.0001 0 0 0 -0.46875,-1.4375 c -1.635,-0.68457 -3.25065,-1.58535 -4.90625,-2.4375 0.8285,-0.60985 1.70465,-1.18287 2.34375,-1.84375 0.2419,-0.25013 0.4812,-0.47755 0.625,-0.90625 0.072,-0.21435 0.093,-0.53548 0,-0.84375 -0.093,-0.30827 -0.31345,-0.54329 -0.53125,-0.6875 -0.4355,-0.28843 -0.81225,-0.32557 -1.28125,-0.34375 -0.444,-0.0172 -0.99745,0.0195 -1.65625,0.0937 -1.0449,-0.28406 -2.1696,-0.29023 -3.3125,-0.1875 -1.2771,0.11479 -2.58195,0.32066 -3.65625,0.375 -1.0743,0.0543 -1.8546,-0.11176 -2.125,-0.3125 -0.1352,-0.10037 -0.22515,-0.15449 -0.28125,-0.40625 -0.056,-0.25176 -0.0533,-0.70445 0.0937,-1.34375 a 1.0001,1.0001 0 0 0 0,-0.0312 c 0.2124,-1.13828 0.29605,-1.93493 0.0312,-2.6875 -0.1322,-0.37629 -0.39165,-0.75748 -0.78125,-0.96875 -0.3896,-0.21127 -0.8396,-0.24444 -1.1875,-0.1875 -0.6957,0.11388 -1.2487,0.4524 -1.875,0.875 -0.5352,0.36115 -1.08775,0.81451 -1.65625,1.28125 -0.018,0.003 -0.019,0.0457 -0.125,-0.0312 -0.1628,-0.11857 -0.4181,-0.39879 -0.6875,-0.78125 -0.5129,-0.72843 -1.05205,-1.73264 -1.90625,-2.46875 -0.01,-0.0109 -0.0213,-0.0206 -0.0312,-0.0312 -0.031,-0.0263 -0.0305,-0.0684 -0.0625,-0.0937 l -0.0312,0.0312 c -0.4031,-0.39149 -0.909,-0.70054 -1.4375,-0.71875 -0.12874,-0.004 -0.25697,-0.014 -0.375,0 z m -8.875,63.5 c 0.9809,0.46855 1.9557,0.94365 2.9375,1.40625 l 0.0312,-0.0312 c 0.8249,0.6247 1.69965,0.78714 2.53125,0.6875 -1.4087,0.85779 -2.9925,1.85945 -4.5625,2.84375 -1.7625,1.10499 -3.43925,2.15885 -4.65625,2.84375 -0.177,0.0996 -0.25075,0.10466 -0.40625,0.1875 0.093,-0.94424 0.1822,-1.89274 0.25,-2.84375 0.032,-0.004 0.0607,0.006 0.0937,0 0.4119,-0.0708 0.8889,-0.30506 1.1875,-0.71875 0.5186,-0.71839 0.38695,-1.58136 0.0937,-2.59375 0.2658,0.16598 0.5379,0.35069 0.8125,0.5 0.2746,0.14931 0.45565,0.36596 1.09375,0.3125 0.3191,-0.0267 0.82325,-0.35027 0.96875,-0.71875 0.1455,-0.36848 0.1082,-0.60004 0.0625,-0.8125 -0.068,-0.31984 -0.2557,-0.69058 -0.4375,-1.0625 z m -27.8125,2.875 c 0.1966,0.0838 1.07975,0.90913 2.15625,2.34375 0.1688,0.83618 0.3572,1.51694 0.5625,2.0625 L 485.28125,428 c 0.2247,-0.39123 0.51255,-0.86864 0.65625,-1.09375 a 1.0001,1.0001 0 0 0 0.0937,-0.1875 c 0.1855,-0.51231 0.34945,-0.75462 0.40625,-0.8125 z m 8.5625,0.625 c 0.3747,0.60961 0.6685,1.14047 1.125,1.6875 0.2039,0.24431 0.39025,0.46803 0.71875,0.65625 0.3286,0.18822 0.9104,0.29748 1.375,0.0625 0.4647,-0.23498 0.68495,-0.61813 0.84375,-1 0.1444,-0.34736 0.25885,-0.7631 0.34375,-1.25 0.4143,0.93468 0.9608,2.15757 1.8125,3.21875 -0.4343,2.9019 -0.94935,5.10367 -1.46875,6.8125 l -7.875,-4.75 c 0.1206,-0.0714 0.2775,-0.10331 0.375,-0.1875 0.4098,-0.35371 0.69115,-0.79473 0.96875,-1.28125 0.5553,-0.97305 1.04225,-2.19061 1.46875,-3.25 0.1095,-0.27195 0.2132,-0.47799 0.3125,-0.71875 z"
         style="color:#000000;fill:#d45500;fill-opacity:1;fill-rule:nonzero;stroke:none;stroke-width:2;marker:none;visibility:visible;display:inline;overflow:visible;enable-background:accumulate" />
    </g>
    <path
       sodipodi:type="arc"
       style="color:#000000;fill:#ff7f2a;fill-opacity:1;fill-rule:nonzero;stroke:#ff7f2a;stroke-width:1.48223269;stroke-linecap:round;stroke-linejoin:round;stroke-miterlimit:4;stroke-opacity:1;stroke-dasharray:none;stroke-dashoffset:0;marker:none;visibility:visible;display:inline;overflow:visible;enable-background:accumulate"
       id="path6444"
       sodipodi:cx="586.24329"
       sodipodi:cy="180.62453"
       sodipodi:rx="19.094549"
       sodipodi:ry="19.094549"
       d="m 605.33784,180.62453 a 19.094549,19.094549 0 1 1 -38.1891,0 19.094549,19.094549 0 1 1 38.1891,0 z"
       transform="matrix(-3.1426804,0,0,3.1426804,3996.8749,174.30343)"
       inkscape:export-filename="D:\bitmap.png"
       inkscape:export-xdpi="361"
       inkscape:export-ydpi="361" />
    <path
       inkscape:connector-curvature="0"
       style="color:#000000;fill:#d45500;fill-opacity:1;fill-rule:nonzero;stroke:none;stroke-width:2.26456046;marker:none;visibility:visible;display:inline;overflow:visible;enable-background:accumulate"
       d="m 2196.6218,758.37612 a 1.1323935,1.1323935 0 0 0 -1,1.15625 l 0,5.46875 -2.0938,0 a 1.1323935,1.1323935 0 0 0 -1.125,1.125 l 0,3.84375 -3.25,0 a 1.1323935,1.1323935 0 0 0 -1.125,1.125 l 0,7 -2.3125,0 a 1.1323935,1.1323935 0 0 0 -1.1562,1.125 l 0,7.28125 a 1.1323935,1.1323935 0 0 0 1.0625,1.125 l 0,3.53125 a 1.1323935,1.1323935 0 0 0 1.125,1.15625 l 0.6875,0 0,8.40625 -3.2188,0 0,-7.4375 a 1.1323935,1.1323935 0 0 0 -1.1562,-1.125 l -2.375,0 a 1.1323935,1.1323935 0 0 0 0.2812,-0.75 l 0,-5.875 a 1.1323935,1.1323935 0 0 0 -1.125,-1.125 l -1.7187,0 0,-5.78125 a 1.1323935,1.1323935 0 0 0 -1.1563,-1.15625 l -5.6875,0 a 1.1323935,1.1323935 0 0 0 -1.1562,1.15625 l 0,5.78125 -1.7188,0 a 1.1323935,1.1323935 0 0 0 -1.125,1.125 l 0,5.875 a 1.1323935,1.1323935 0 0 0 0.3125,0.75 l -2.2187,0 -0.125,0 a 1.1323935,1.1323935 0 0 0 -0.062,0 1.1323935,1.1323935 0 0 0 -0.2188,0 1.1323935,1.1323935 0 0 0 -0.2187,0.0937 1.1323935,1.1323935 0 0 0 -0.125,0.0312 1.1323935,1.1323935 0 0 0 -0.094,0.0625 1.1323935,1.1323935 0 0 0 -0.094,0.0625 1.1323935,1.1323935 0 0 0 -0.3125,0.46875 1.1323935,1.1323935 0 0 0 -0.062,0.21875 1.1323935,1.1323935 0 0 0 0,0.1875 1.1323935,1.1323935 0 0 0 0,0.15625 l 0,7.28125 -1.875,0 a 1.1323935,1.1323935 0 0 0 -1.1562,1.125 l 0,14.65625 -3.9688,0 a 1.1323935,1.1323935 0 0 0 -1.125,1.125 l 0,15.40625 -3.9062,0 a 1.1323935,1.1323935 0 0 0 -1.125,1.15625 l 0,14.71875 -7,0 a 1.1323935,1.1323935 0 0 0 -1.125,1.125 l 0,6.625 -14.2188,0 0,-12.1875 a 1.1323935,1.1323935 0 0 0 -1.125,-1.125 l -4.25,0 a 1.1323935,1.1323935 0 0 0 0.031,-0.28125 l 0,-9.875 a 1.1323935,1.1323935 0 0 0 -1.125,-1.125 l -2.8437,0 a 1.1323935,1.1323935 0 0 0 0.4375,-0.90625 l 0,-6.46875 a 1.1323935,1.1323935 0 0 0 -1.125,-1.125 l -2.0313,0 0,-6.59375 a 1.1323935,1.1323935 0 0 0 -1.125,-1.15625 l -6.375,0 a 1.1323935,1.1323935 0 0 0 -1.1562,1.15625 l 0,6.59375 -2,0 a 1.1323935,1.1323935 0 0 0 -1.1563,1.125 l 0,6.46875 a 1.1323935,1.1323935 0 0 0 0.4375,0.90625 l -2.8125,0 a 1.1323935,1.1323935 0 0 0 -1.1562,1.125 l 0,9.875 a 1.1323935,1.1323935 0 0 0 0.062,0.28125 l -4.25,0 a 1.1323935,1.1323935 0 0 0 -1.1563,1.125 l 0,12.1875 -3,0 a 1.1323935,1.1323935 0 0 0 -1.125,1.125 l 0,3.21875 -3.8125,0 a 1.1323935,1.1323935 0 0 0 -1.1562,1.15625 l 0,25.25 a 1.1323935,1.1323935 0 0 0 1.1562,1.125 l 95.25,0 a 1.1323935,1.1323935 0 0 0 1.0938,-1.375 c -0.2331,-1.08055 -0.3438,-2.1291 -0.3438,-3.28125 l 0,-31.8125 c 0,-8.61143 6.7152,-15.46875 15.0938,-15.46875 8.3784,0 15.125,6.85731 15.125,15.46875 l 0,31.8125 c 0,1.14927 -0.1448,2.19708 -0.375,3.28125 a 1.1323935,1.1323935 0 0 0 1.125,1.375 l 95.1875,0 a 1.1323935,1.1323935 0 0 0 1.125,-1.125 l 0,-25.25 a 1.1323935,1.1323935 0 0 0 -1.125,-1.15625 l -3.75,0 0,-3.21875 a 1.1323935,1.1323935 0 0 0 -1.1563,-1.125 l -3,0 0,-12.1875 a 1.1323935,1.1323935 0 0 0 -1.125,-1.125 l -4.25,0 a 1.1323935,1.1323935 0 0 0 0.031,-0.28115 l 0,-9.875 a 1.1323935,1.1323935 0 0 0 -1.125,-1.125 l -2.9375,0 a 1.1323935,1.1323935 0 0 0 0.4687,-0.90625 l 0,-6.46875 a 1.1323935,1.1323935 0 0 0 -1.125,-1.125 l -2.0312,0 0,-6.59375 a 1.1323935,1.1323935 0 0 0 -1.125,-1.15625 l -6.3125,0 a 1.1323935,1.1323935 0 0 0 -1.1563,1.15625 l 0,6.59375 -2,0 a 1.1323935,1.1323935 0 0 0 -1.1562,1.125 l 0,6.46875 a 1.1323935,1.1323935 0 0 0 0.4375,0.90625 l -2.9063,0 a 1.1323935,1.1323935 0 0 0 -1.125,1.125 l 0,9.875 a 1.1323935,1.1323935 0 0 0 0.062,0.28125 l -4.1875,0 a 1.1323935,1.1323935 0 0 0 -1.1562,1.125 l 0,12.1875 -14.1875,0 0,-6.625 a 1.1323935,1.1323935 0 0 0 -1.125,-1.125 l -7,0 0,-14.71875 a 1.1323935,1.1323935 0 0 0 -1.125,-1.15625 l -3.9688,0 0,-15.40625 a 1.1323935,1.1323935 0 0 0 -1.1562,-1.125 l -3.9063,0 0,-14.65625 a 1.1323935,1.1323935 0 0 0 -1.125,-1.125 l -2.9375,0 0,-7.4375 a 1.1323935,1.1323935 0 0 0 -1.125,-1.125 l -2.3125,0 a 1.1323935,1.1323935 0 0 0 0.3125,-0.75 l 0,-5.875 a 1.1323935,1.1323935 0 0 0 -1.1562,-1.125 l -1.7188,0 0,-5.78125 a 1.1323935,1.1323935 0 0 0 -1.125,-1.15625 l -5.7187,0 a 1.1323935,1.1323935 0 0 0 -1.125,1.15625 l 0,5.78125 -1.7188,0 a 1.1323935,1.1323935 0 0 0 -1.1562,1.125 l 0,5.875 a 1.1323935,1.1323935 0 0 0 0.3125,0.75 l -2.4063,0 a 1.1323935,1.1323935 0 0 0 -1.125,1.125 l 0,7.4375 -3.2187,0 0,-8.40625 0.5937,0 a 1.1323935,1.1323935 0 0 0 1.125,-1.15625 l 0,-3.5 a 1.1323935,1.1323935 0 0 0 1.125,-1.15625 l 0,-7.28125 a 1.1323935,1.1323935 0 0 0 -1.125,-1.125 l -2.4062,0 0,-7 a 1.1323935,1.1323935 0 0 0 -1.125,-1.125 l -3.1563,0 0,-3.84375 a 1.1323935,1.1323935 0 0 0 -1.125,-1.125 l -2.0937,0 0,-5.46875 a 1.1323935,1.1323935 0 0 0 -1.1563,-1.15625 l -3.5312,0 a 1.1323935,1.1323935 0 0 0 -0.125,0 z"
       id="rect6264"
       inkscape:export-filename="D:\bitmap.png"
       inkscape:export-xdpi="361"
       inkscape:export-ydpi="361" />
    <path
       style="font-size:medium;font-style:normal;font-variant:normal;font-weight:normal;font-stretch:normal;text-indent:0;text-align:start;text-decoration:none;line-height:normal;letter-spacing:normal;word-spacing:normal;text-transform:none;direction:ltr;block-progression:tb;writing-mode:lr-tb;text-anchor:start;baseline-shift:baseline;color:#000000;fill:#ffffff;fill-opacity:1;fill-rule:nonzero;stroke:#ffffff;stroke-width:8.02710152;stroke-miterlimit:4;stroke-dasharray:none;marker:none;visibility:visible;display:inline;overflow:visible;enable-background:accumulate;font-family:Sans;-inkscape-font-specification:Sans"
       d="m 2043.9782,668.5313 c -1.4895,0.18585 -2.7079,1.63611 -2.6341,3.13539 l 0,3.88833 c -22.3225,17.80611 -30.4825,29.64087 -39.0064,45.77936 -0.4675,0.90658 -0.4307,2.05383 0.094,2.92854 0.5247,0.87471 1.5196,1.44724 2.5395,1.46148 l 17.9358,0 0,3.38623 -1.2542,0 c -0.2084,-0.0218 -0.419,-0.0218 -0.6274,0 -0.8873,0.14902 -1.6945,0.71886 -2.132,1.50508 l -3.6374,6.89849 -3.0102,0 c -0.2082,-0.0218 -0.4187,-0.0218 -0.6269,0 -0.4595,0.10685 -0.893,0.32355 -1.2542,0.62692 -10.0006,8.18684 -16.3673,16.52339 -21.9494,24.583 -0.088,0.078 -0.1708,0.16114 -0.2488,0.24884 -0.04,0.0482 -0.092,0.0803 -0.1244,0.12442 -0.2154,0.38377 -0.3452,0.8153 -0.3773,1.25423 -0.063,0.20377 -0.1053,0.41433 -0.1244,0.62692 0.027,0.17038 0.069,0.33844 0.1244,0.50169 0.033,0.12832 0.075,0.25444 0.1244,0.37728 0.038,0.0848 0.079,0.16787 0.1245,0.24884 0.067,0.17447 0.1505,0.34267 0.2488,0.50169 0.078,0.0877 0.1611,0.17084 0.2488,0.24884 0.1855,0.19421 0.3971,0.36345 0.6273,0.5017 0.1988,0.10606 0.4096,0.18971 0.627,0.24884 0.2778,0.12685 0.575,0.21107 0.8781,0.24884 0.083,0.003 0.166,0.003 0.2489,0 l 24.583,0 0,6.52202 -4.7661,0 c -0.2083,-0.0218 -0.419,-0.0218 -0.6273,0 -0.8428,0.18296 -1.5952,0.74719 -2.0068,1.50508 l -6.3964,11.53896 -7.7763,0 c -0.2083,-0.0218 -0.419,-0.0218 -0.6273,0 -0.4595,0.10685 -0.893,0.32354 -1.2542,0.62691 -13.7304,10.64675 -23.82,21.42514 -32.1084,32.10841 -3.4914,-2.92147 -7.456,-5.99986 -11.9151,-9.03049 l 0,-5.64386 c 0.04,-1.80856 -1.8682,-3.38732 -3.6374,-3.01016 -1.3573,0.28895 -2.4132,1.62281 -2.3829,3.01016 l 0,4.89132 c -20.3298,14.20395 -27.8163,23.83246 -35.6202,36.74927 -0.5178,0.89587 -0.5277,2.06385 -0.025,2.96836 0.5025,0.90452 1.4994,1.51318 2.5336,1.54689 l 11.7898,0 0,6.52202 c -0.03,1.38735 1.0256,2.72121 2.3829,3.01016 0.2083,0.0218 0.419,0.0218 0.6273,0 l 7.6506,0 0,12.16587 -6.3964,0 c -1.5761,1.9e-4 -3.0099,1.43411 -3.0101,3.01017 l 0,8.15232 c 2e-4,1.57605 1.434,3.00997 3.0101,3.01016 l 40.0099,0 c 0.2496,0.0314 0.503,0.0314 0.7526,0 0.2175,-0.0591 0.4284,-0.14276 0.6273,-0.24884 0.085,-0.0376 0.1678,-0.0791 0.2488,-0.12442 0.1798,-0.10783 0.3482,-0.2345 0.5017,-0.37727 0.5873,-0.58789 0.9137,3.46428 0.8778,2.63409 l 0,-13.04404 c 9e-4,-0.0415 9e-4,-0.0829 0,-0.12442 0.01,-0.12559 0.01,-0.25168 0,-0.37727 -0.038,-0.0848 -0.079,-0.16787 -0.1244,-0.24884 -0.078,-0.31015 -0.206,-0.6077 -0.3773,-0.87776 -0.1143,-0.13659 -0.2407,-0.26301 -0.3773,-0.37728 -0.078,-0.0877 -0.1611,-0.17084 -0.2488,-0.24884 -0.04,-0.0427 -0.082,-0.0842 -0.1245,-0.12442 -0.078,-0.0877 -0.1611,-0.17084 -0.2488,-0.24884 -0.1988,-0.10606 -0.4095,-0.1897 -0.6269,-0.24884 -0.2083,-0.0218 -0.419,-0.0218 -0.6273,0 -0.081,-0.0453 -0.1641,-0.0868 -0.2489,-0.12442 l -6.3964,0 0,-12.16587 7.7763,0 c 1.5761,-1.4e-4 3.01,-1.43408 3.0102,-3.01017 l 0,-6.52201 11.6641,0 c 1.0846,-0.015 2.1371,-0.66657 2.6341,-1.63071 l 0,36.49843 c -0.021,1.58943 1.4206,3.05033 3.0102,3.05033 1.5896,0 3.0313,-1.4609 3.0102,-3.05033 l 0,-57.1931 12.2914,0 0,30.72855 -6.1459,0 c -1.5761,1.4e-4 -3.01,1.43407 -3.0102,3.01016 l 0,26.7154 c 0,0.0829 0,0.16594 0,0.24884 0.027,0.17039 0.069,0.33844 0.1245,0.50169 0.087,0.40539 0.2591,-4.0994 0.5017,-3.76311 0.038,0.0848 0.079,0.16787 0.1244,0.24884 0.2237,0.20378 0.4784,0.37356 0.7525,0.5017 0.3463,0.19899 0.7326,0.32807 1.129,0.37727 0.1256,0.008 0.2517,0.008 0.3773,0 l 97.3286,0 c 0.2495,0.0314 0.503,0.0314 0.7525,0 0.5155,-0.12351 0.9969,-0.38607 1.3799,-0.75254 0.5873,-0.58789 0.9137,3.46429 0.8778,2.6341 l 0,-26.7154 c 9e-4,-0.0415 9e-4,-0.0829 0,-0.12442 0.01,-0.1256 0.01,-0.25168 0,-0.37728 -0.038,-0.0848 -0.079,-0.16787 -0.1245,-0.24884 -0.078,-0.31014 -0.2059,-0.60769 -0.3772,-0.87776 -0.1143,-0.13659 -0.2407,-0.263 -0.3773,-0.37727 -0.078,-0.0877 -0.1611,-0.17084 -0.2488,-0.24884 -0.04,-0.0427 -0.082,-0.0842 -0.1245,-0.12442 -0.078,-0.0877 -0.1611,-0.17084 -0.2488,-0.24884 -0.1988,-0.10606 -0.4095,-0.1897 -0.6269,-0.24884 -0.2845,-0.0845 -0.5815,-0.12653 -0.8782,-0.12442 l -6.1455,0 0,-30.72855 11.1625,0 0,57.1931 c -0.023,1.5906 1.4194,3.05394 3.0101,3.05394 1.5908,0 3.0332,-1.46334 3.0102,-3.05394 l 0,-35.11857 c 0.4319,0.18951 0.9089,0.27552 1.3798,0.24884 l 11.7898,0 0,6.52202 c -0.03,1.38735 1.0256,2.72121 2.3829,3.01016 0.2083,0.0218 0.419,0.0218 0.6273,0 l 7.6506,0 0,12.16588 -6.3964,0 c -1.5761,1.9e-4 -3.0099,1.43411 -3.0101,3.01016 l 0,8.55996 c 2e-4,1.57605 1.434,2.60233 3.0101,2.60252 l 40.1355,0 c 0.2496,0.0314 0.503,0.0314 0.7526,0 0.2174,-0.0591 0.4281,-0.14278 0.6269,-0.24884 0.085,-0.0376 0.1678,-0.0791 0.2488,-0.12442 0.1798,-0.10783 0.3482,-0.2345 0.5017,-0.37727 0.5874,-0.58782 0.914,3.46434 0.8782,2.6341 l 0,-13.04404 c 9e-4,-0.0415 9e-4,-0.0829 0,-0.12442 0.01,-0.1256 0.01,-0.25168 0,-0.37728 -0.038,-0.0848 -0.079,-0.16787 -0.1244,-0.24884 -0.078,-0.31015 -0.206,-0.6077 -0.3773,-0.87776 -0.1143,-0.13659 -0.2407,-0.26301 -0.3773,-0.37728 -0.078,-0.0877 -0.1611,-0.17084 -0.2488,-0.24884 -0.04,-0.0427 -0.082,-0.0842 -0.1244,-0.12442 -0.078,-0.0877 -0.1612,-0.17084 -0.2489,-0.24884 -0.1989,-0.10608 -0.4098,-0.18973 -0.6273,-0.24884 -0.2082,-0.0218 -0.4187,-0.0218 -0.6269,0 -0.081,-0.0453 -0.164,-0.0868 -0.2488,-0.12442 l -6.5221,0 0,-12.16587 7.7763,0 c 1.5761,-1.4e-4 3.01,-1.43407 3.0102,-3.01016 l 0,-6.52202 11.6641,0 c 0.2084,0.0218 0.419,0.0218 0.6274,0 0.2668,-0.0897 0.521,-0.21716 0.7525,-0.37728 0.1283,-0.0331 0.2545,-0.0747 0.3773,-0.12442 0.6653,-0.46327 1.1293,-1.20576 1.2542,-2.00677 0,-0.0829 0,-0.16594 0,-0.24884 0.01,-0.42943 -0.078,-0.86031 -0.2488,-1.25424 -0.067,-0.17447 -0.1506,-0.34267 -0.2489,-0.50169 9e-4,-0.0415 9e-4,-0.0829 0,-0.12442 -8.1118,-12.32401 -17.3241,-23.52142 -35.4946,-35.87111 l 0,-5.64386 c 0.04,-1.8086 -1.8682,-3.38739 -3.6375,-3.01016 -1.3572,0.28899 -2.4131,1.62284 -2.3828,3.01016 l 0,4.89132 c -4.5675,3.19117 -8.4975,6.21578 -11.9155,9.03049 -7.0285,-10.2462 -13.7877,-21.02499 -30.3524,-31.60671 -0.4936,-0.27547 -1.0659,-0.40791 -1.6303,-0.37728 l -7.4002,0 -5.5187,-11.41373 c -0.038,-0.0848 -0.079,-0.16787 -0.1244,-0.24884 -0.1143,-0.13659 -0.2407,-0.26301 -0.3773,-0.37728 -0.078,-0.0877 -0.1611,-0.17084 -0.2488,-0.24884 -0.081,-0.0453 -0.164,-0.0868 -0.2488,-0.12442 -0.078,-0.0877 -0.1612,-0.17084 -0.2489,-0.24884 -0.159,-0.0983 -0.3272,-0.18171 -0.5017,-0.24884 -0.3243,-0.0975 -0.6651,-0.13977 -1.0034,-0.12442 l -5.6438,0 0,-6.52202 24.8338,0 c 1.0901,-0.0225 2.1429,-0.68836 2.6305,-1.66357 0.4876,-0.97521 0.3885,-2.21698 -0.2476,-3.10252 -5.4725,-7.79993 -9.3953,-16.6173 -21.9489,-25.08469 -0.4805,-0.31877 -1.0541,-0.49525 -1.6307,-0.50169 l -3.3863,0 -3.1358,-6.77287 c -0.5159,-1.00155 -1.6331,-1.66179 -2.7593,-1.63071 l -1.8811,0 0,-3.38623 17.9353,0 c 1.0342,-0.0337 2.0311,-0.64232 2.5336,-1.54684 0.5025,-0.90452 0.4927,-2.07252 -0.025,-2.9684 -8.8772,-15.42609 -18.8749,-29.28608 -38.8813,-44.77638 l 0,-4.76609 c 0.087,-1.7506 -1.6474,-3.3563 -3.3862,-3.13539 z m -2.6341,15.17604 0,1.25423 c -0.021,1.58943 1.4206,3.05033 3.0102,3.05033 1.5896,0 3.0313,-1.4609 3.0102,-3.05033 l 0,-0.50169 c 14.7293,12.10768 23.2942,23.18949 30.6033,35.24419 l -12.1659,0 0,-8.15272 c -2e-4,-1.57606 -1.434,-3.00998 -3.0101,-3.01017 l -36.8745,0 c -0.2084,-0.0218 -0.419,-0.0218 -0.6274,0 -1.3572,0.28899 -2.4131,1.62284 -2.3828,3.01017 l 0,8.15272 -12.4171,0 c 6.8367,-12.28588 14.4158,-22.3045 30.8541,-35.99673 z m -12.4167,30.85417 30.8542,0 0,5.14256 -30.8542,0 z m 0,11.16289 30.8542,0 0,3.38623 -30.8542,0 z m 0,9.40656 30.8542,0 0,2.38324 -30.8542,0 z m 36.8745,0 1.1286,2.38324 -1.1286,0 z m -42.8948,1.00339 0,1.37985 -0.7525,0 z m 53.0539,7.5254 c 8.6047,6.0131 12.4954,11.905 16.5559,18.18661 l -19.1896,0 0,-11.03727 c -2e-4,-1.57605 -1.434,-3.00997 -3.0101,-3.01016 l -51.9253,0 c -0.083,-0.003 -0.166,-0.003 -0.2489,0 -1.4906,0.12479 -2.7644,1.51431 -2.7593,3.01016 l 0,11.03727 -18.8135,0 c 4.3796,-5.95411 9.2604,-11.78981 16.1794,-17.68491 0.3736,1.22535 1.6039,2.13467 2.8849,2.1324 l 57.444,0 c 1.4161,-0.0483 2.7082,-1.22823 2.8845,-2.6341 z m -54.559,10.1595 45.905,0 0,8.02711 -45.905,0 z m 0,14.04743 45.905,0 0,6.52202 -45.905,0 z m 51.9253,12.54235 3.7627,0 3.5119,7.02371 -53.6813,0 0.627,-2.1324 42.7696,0 c 1.5761,-1.9e-4 3.0099,-1.43411 3.0101,-3.01016 z m -78.3898,13.04404 3.7627,0 c -0.067,1.61728 1.3914,3.13658 3.0101,3.13538 l 85.288,0 c 1.6187,0.001 3.0773,-1.5181 3.0101,-3.13538 l 3.6375,0 c 15.1717,9.88337 21.1599,19.61502 28.2201,29.85078 l -34.9929,0 0,-6.27117 c 0,-0.0829 0,-0.16594 0,-0.24884 0,-0.0829 0,-0.16594 0,-0.24884 -0.033,-0.12832 -0.075,-0.25444 -0.1245,-0.37728 -0.09,-0.26684 -0.2171,-0.52098 -0.3772,-0.75254 -0.1078,-0.17976 -0.2345,-0.3482 -0.3773,-0.50169 -0.081,-0.0453 -0.164,-0.0868 -0.2488,-0.12442 -0.078,-0.0877 -0.1612,-0.17084 -0.2489,-0.24884 -0.081,-0.0453 -0.164,-0.0868 -0.2488,-0.12442 -0.1988,-0.10606 -0.4095,-0.1897 -0.6269,-0.24884 -0.2442,-0.0731 -0.4978,-0.11504 -0.7526,-0.12442 l -65.8475,0 -13.1693,0 c -1.5761,1.9e-4 -3.0099,1.43411 -3.0101,3.01016 l 0,6.27117 -36.6237,0 c 7.7771,-9.93674 17.0086,-19.88513 29.7252,-29.85078 z m -52.9287,24.583 c 0.3591,1.11672 1.4251,1.97019 2.5933,2.0764 1.1683,0.1062 2.3707,-0.54106 2.9253,-1.57471 3.1394,2.25 5.9509,4.47029 8.5288,6.64724 -0.7193,1.77116 0.725,4.04067 2.6341,4.13918 l 2.0068,0 c 5.7137,5.39581 10.1141,10.73344 14.0474,16.30505 l -6.522,0 c -0.5287,-0.52815 -1.2601,-0.84819 -2.0068,-0.87817 l -9.0305,0 c -0.5,-0.3863 -1.1243,-0.60917 -1.7559,-0.62692 l -21.1968,0 c -0.6316,0.0177 -1.2559,0.24062 -1.7559,0.62692 l -8.9049,0 c -0.7889,-0.002 -1.5736,0.32129 -2.1324,0.87817 l -6.7728,0 c 6.0151,-9.27492 12.9545,-17.0885 27.3423,-27.59316 z m 202.5591,0.75254 c 12.808,9.23437 20.392,17.70618 26.8406,26.84062 l -6.522,0 c -0.5287,-0.52815 -1.2601,-0.84819 -2.0068,-0.87817 l -9.0305,0 c -0.5,-0.3863 -1.1243,-0.60917 -1.7559,-0.62692 l -21.1968,0 c -0.6316,0.0177 -1.2559,0.24062 -1.7559,0.62692 l -8.9049,0 c -0.083,-0.003 -0.1659,-0.003 -0.2488,0 7.0742,-11.93951 20.5686,-22.64204 24.583,-25.96245 z m -136.7116,1.25423 7.1489,0 0,3.26101 -7.1489,0 z m 13.1692,0 46.6576,0 0,3.26101 -46.6576,0 z m 52.6779,0 7.1493,0 0,3.26101 -7.1493,0 z m -104.2267,9.28134 14.0474,0 0,17.93535 c -0.038,-0.0848 -0.079,-0.16787 -0.1244,-0.24884 -4.0296,-6.12227 -8.3987,-11.84961 -13.9218,-17.68451 z m 51.5488,0 46.6576,0 0,30.72854 -46.6576,0 z m 52.6779,0 7.1493,0 0,30.72854 -7.1493,0 z m 30.3525,0 11.9154,0 c -4.8552,5.22805 -8.3907,10.35094 -11.9154,16.0542 z m -177.474,22.32537 4.6404,0 0,3.51186 -4.6404,0 z m 10.6608,0 15.1764,0 0,3.51186 -15.1764,0 z m 21.1967,0 4.7661,0 0,3.51186 -4.7661,0 z m 164.8065,0 4.6404,0 0,3.51186 -4.6404,0 z m 10.6608,0 15.1764,0 0,3.51186 -15.1764,0 z m 21.1967,0 4.7661,0 0,3.51186 -4.7661,0 z m -217.8607,9.53219 15.1764,0 0,12.16587 -12.2915,0 0,-12.04065 -2.8849,0 0,-0.12442 z m 196.664,0 15.1764,0 0,12.16587 -12.1663,0 0,-12.04065 -3.0101,0 0,-0.12442 z m -104.4776,4.89131 38.254,0 0,4.13917 -38.254,0 z m 44.2743,0 7.1493,0 0,4.13917 -7.1493,0 z m 13.1697,0 3.1353,0 0,20.69507 -60.5793,0 0,-10.53557 54.4338,0 c 0.3795,0.0304 0.7648,-0.0121 1.1286,-0.12442 0.2234,-0.0996 0.4346,-0.22665 0.6273,-0.37727 0.043,-0.0403 0.084,-0.0818 0.1244,-0.12442 0.088,-0.078 0.1709,-0.16114 0.2489,-0.24884 0.5568,-0.55865 0.88,-1.34326 0.8782,-2.132 l 0,-7.14934 z m -142.9828,13.29489 8.5288,0 0,0.24884 -8.5288,0 z m 14.5491,0 3.3863,0 0,7.02371 -17.9354,0 0,-0.75254 11.539,0 c 1.5761,-1.9e-4 3.0099,-1.43411 3.0101,-3.01016 z m 182.1149,0 8.5288,0 0,0.24884 -8.5288,0 z m 14.5491,0 3.5119,0 0,7.02371 -18.061,0 0,-0.75254 11.539,0 c 1.5761,-1.9e-4 3.0099,-1.43411 3.0101,-3.01016 z"
       id="rect7219"
       inkscape:connector-curvature="0"
       sodipodi:nodetypes="ccccsccccccccccccccccccccccccccccccccccccccccscccccccccccccccccccccccccccccccccccccscccccccccccccccccccccccccccccccccscccccccccccccccccccccccccccccccccccccccccccccccccccccccccccccccccscccccccccscccccccscccccccccccccccccccccccccccccccccccccccccccccccccccccccccccccccccccccccccccccccccccccccccccccccsccccccccccccccccccccccccccccccccccccccccccccccccccccccccccccccccccccccccccccccccccccccccccccccccccccccccccccccccccccccccccccccccccccccccccccccccccccccccccccc"
       inkscape:export-filename="D:\bitmap.png"
       inkscape:export-xdpi="361"
       inkscape:export-ydpi="361" />
    <g
       transform="matrix(5.8475764,0,0,4.3110764,-7079.3472,-3861.7206)"
       id="g8429"
       inkscape:export-filename="D:\bitmap.png"
       inkscape:export-xdpi="361"
       inkscape:export-ydpi="361">
      <path
         style="color:#000000;fill:#ffffff;fill-opacity:1;fill-rule:nonzero;stroke:#ffeeaa;stroke-width:1.15541828;stroke-linecap:round;stroke-linejoin:round;stroke-miterlimit:4;stroke-dasharray:none;marker:none;visibility:visible;display:inline;overflow:visible;enable-background:accumulate"
         d="m 1583.0275,1064.2176 15.6332,0"
         id="path8431"
         inkscape:connector-curvature="0" />
      <path
         inkscape:connector-curvature="0"
         id="path8433"
         d="m 1584.8569,1063.1322 15.6332,0"
         style="color:#000000;fill:#ffffff;fill-opacity:1;fill-rule:nonzero;stroke:#ffeeaa;stroke-width:1.15541828;stroke-linecap:round;stroke-linejoin:round;stroke-miterlimit:4;stroke-dasharray:none;marker:none;visibility:visible;display:inline;overflow:visible;enable-background:accumulate" />
      <path
         style="color:#000000;fill:#ffffff;fill-opacity:1;fill-rule:nonzero;stroke:#ffeeaa;stroke-width:1.15541828;stroke-linecap:round;stroke-linejoin:round;stroke-miterlimit:4;stroke-dasharray:none;marker:none;visibility:visible;display:inline;overflow:visible;enable-background:accumulate"
         d="m 1581.2801,1062.56 15.6332,0"
         id="path8435"
         inkscape:connector-curvature="0" />
      <path
         inkscape:connector-curvature="0"
         id="path8437"
         d="m 1584.7994,1060.7318 15.6332,0"
         style="color:#000000;fill:#ffffff;fill-opacity:1;fill-rule:nonzero;stroke:#ffeeaa;stroke-width:1.15541828;stroke-linecap:round;stroke-linejoin:round;stroke-miterlimit:4;stroke-dasharray:none;marker:none;visibility:visible;display:inline;overflow:visible;enable-background:accumulate" />
      <path
         style="color:#000000;fill:#ffffff;fill-opacity:1;fill-rule:nonzero;stroke:#ffeeaa;stroke-width:1.15541828;stroke-linecap:round;stroke-linejoin:round;stroke-miterlimit:4;stroke-dasharray:none;marker:none;visibility:visible;display:inline;overflow:visible;enable-background:accumulate"
         d="m 1586.8014,1061.5547 15.6332,0"
         id="path3398"
         inkscape:connector-curvature="0" />
    </g>
    <g
       id="g8408"
       transform="matrix(-4.0135507,0,0,4.0135507,8484.2381,-3510.8704)"
       inkscape:export-filename="D:\bitmap.png"
       inkscape:export-xdpi="361"
       inkscape:export-ydpi="361">
      <path
         inkscape:connector-curvature="0"
         id="path8400"
         d="m 1581.5911,1064.2176 15.6332,0"
         style="color:#000000;fill:#ffffff;fill-opacity:1;fill-rule:nonzero;stroke:#ffeeaa;stroke-width:1.34565687;stroke-linecap:round;stroke-linejoin:round;stroke-miterlimit:4;stroke-dasharray:none;marker:none;visibility:visible;display:inline;overflow:visible;enable-background:accumulate" />
      <path
         style="color:#000000;fill:#ffffff;fill-opacity:1;fill-rule:nonzero;stroke:#ffeeaa;stroke-width:1.34565687;stroke-linecap:round;stroke-linejoin:round;stroke-miterlimit:4;stroke-dasharray:none;marker:none;visibility:visible;display:inline;overflow:visible;enable-background:accumulate"
         d="m 1584.8569,1063.1322 15.6332,0"
         id="path8402"
         inkscape:connector-curvature="0" />
      <path
         inkscape:connector-curvature="0"
         id="path8406"
         d="m 1583.8579,1062.0522 15.6332,0"
         style="color:#000000;fill:#ffffff;fill-opacity:1;fill-rule:nonzero;stroke:#ffeeaa;stroke-width:1.34565687;stroke-linecap:round;stroke-linejoin:round;stroke-miterlimit:4;stroke-dasharray:none;marker:none;visibility:visible;display:inline;overflow:visible;enable-background:accumulate" />
    </g>
    <path
       style="color:#000000;fill:#f9f9f9;fill-opacity:1;fill-rule:nonzero;stroke:#aa4400;stroke-width:6.48192072;stroke-linecap:round;stroke-linejoin:round;stroke-miterlimit:4;stroke-opacity:1;stroke-dasharray:none;stroke-dashoffset:0;marker:none;visibility:visible;display:inline;overflow:visible;enable-background:accumulate"
       d="m 2327.8763,889.65828 -483.4506,0"
       id="path6328"
       inkscape:connector-curvature="0"
       inkscape:export-filename="D:\bitmap.png"
       inkscape:export-xdpi="361"
       inkscape:export-ydpi="361" />
    <g
       id="g4882"
       transform="translate(-3214.5345,0)"
       inkscape:export-filename="D:\bitmap.png"
       inkscape:export-xdpi="361"
       inkscape:export-ydpi="361">
      <rect
         y="817.0144"
         x="5219.4468"
         height="56.164631"
         width="78.915543"
         id="rect4577"
         style="color:#000000;fill:#ffffff;fill-opacity:1;fill-rule:nonzero;stroke:#aa4400;stroke-width:6.02032661;stroke-linecap:round;stroke-linejoin:round;stroke-miterlimit:4;stroke-opacity:1;stroke-dasharray:none;stroke-dashoffset:0;marker:none;visibility:visible;display:inline;overflow:visible;enable-background:accumulate" />
      <g
         transform="matrix(4.0135507,0,0,4.0135507,473.64003,-3054.3607)"
         id="g4579">
        <path
           style="color:#000000;fill:#ff9955;fill-opacity:1;fill-rule:nonzero;stroke:none;stroke-width:1.5;marker:none;visibility:visible;display:inline;overflow:visible;enable-background:accumulate"
           d="m 1186.1347,967.5454 -0.5044,8.50329 -3.3149,-0.14412 0.2162,-8.79154 z"
           id="path4581"
           inkscape:connector-curvature="0" />
        <g
           id="g4583">
          <rect
             style="color:#000000;fill:none;stroke:#aa4400;stroke-width:1.50000012;stroke-linecap:round;stroke-linejoin:round;stroke-miterlimit:4;stroke-opacity:1;stroke-dasharray:none;stroke-dashoffset:0;marker:none;visibility:visible;display:inline;overflow:visible;enable-background:accumulate"
             id="rect4585"
             width="19.662275"
             height="13.993752"
             x="1182.4459"
             y="964.57611" />
          <rect
             y="964.57611"
             x="1185.707"
             height="13.993752"
             width="13.139982"
             id="rect4587"
             style="color:#000000;fill:none;stroke:#aa4400;stroke-width:1.50000012;stroke-linecap:round;stroke-linejoin:round;stroke-miterlimit:4;stroke-opacity:1;stroke-dasharray:none;stroke-dashoffset:0;marker:none;visibility:visible;display:inline;overflow:visible;enable-background:accumulate" />
        </g>
      </g>
      <rect
         style="color:#000000;fill:#ffffff;fill-opacity:1;fill-rule:nonzero;stroke:#aa4400;stroke-width:6.02032661;stroke-linecap:round;stroke-linejoin:round;stroke-miterlimit:4;stroke-opacity:1;stroke-dasharray:none;stroke-dashoffset:0;marker:none;visibility:visible;display:inline;overflow:visible;enable-background:accumulate"
         id="rect4589"
         width="52.737984"
         height="56.164631"
         x="5232.5352"
         y="817.0144" />
      <rect
         transform="scale(1,-1)"
         style="color:#000000;fill:#ffffff;fill-opacity:1;fill-rule:nonzero;stroke:#aa4400;stroke-width:6.02032757;stroke-linecap:round;stroke-linejoin:round;stroke-miterlimit:4;stroke-opacity:1;stroke-dasharray:none;stroke-dashoffset:0;marker:none;visibility:visible;display:inline;overflow:visible;enable-background:accumulate"
         id="rect4591"
         width="97.425873"
         height="26.66013"
         x="5210.1914"
         y="-889.66351" />
      <rect
         transform="scale(1,-1)"
         style="color:#000000;fill:#ff9955;fill-opacity:1;fill-rule:nonzero;stroke:none;stroke-width:1.50000036;marker:none;visibility:visible;display:inline;overflow:visible;enable-background:accumulate"
         id="rect4593"
         width="33.796627"
         height="26.66013"
         x="5210.1914"
         y="-889.66351" />
      <path
         inkscape:connector-curvature="0"
         id="path4595"
         d="m 5258.905,671.54163 0,13.30484"
         style="color:#000000;fill:#f9f9f9;fill-opacity:1;fill-rule:nonzero;stroke:#aa4400;stroke-width:6.02032614;stroke-linecap:round;stroke-linejoin:round;stroke-miterlimit:4;stroke-opacity:1;stroke-dasharray:none;stroke-dashoffset:0;marker:none;visibility:visible;display:inline;overflow:visible;enable-background:accumulate" />
      <rect
         style="color:#000000;fill:#ff9955;fill-opacity:1;fill-rule:nonzero;stroke:#aa4400;stroke-width:6.02032661;stroke-linecap:round;stroke-linejoin:round;stroke-miterlimit:4;stroke-opacity:1;stroke-dasharray:none;stroke-dashoffset:0;marker:none;visibility:visible;display:inline;overflow:visible;enable-background:accumulate"
         id="rect4597"
         width="51.895859"
         height="31.482828"
         x="5232.9565"
         y="750.75287" />
      <rect
         y="711.4184"
         x="5240.4766"
         height="31.482828"
         width="36.856216"
         id="rect4599"
         style="color:#000000;fill:#ff9955;fill-opacity:1;fill-rule:nonzero;stroke:#aa4400;stroke-width:6.02032614;stroke-linecap:round;stroke-linejoin:round;stroke-miterlimit:4;stroke-opacity:1;stroke-dasharray:none;stroke-dashoffset:0;marker:none;visibility:visible;display:inline;overflow:visible;enable-background:accumulate" />
      <path
         sodipodi:nodetypes="ccccc"
         inkscape:connector-curvature="0"
         id="path4601"
         d="m 5225.1587,777.32735 68.3776,0 7.975,16.13841 -85.2137,0 z"
         style="color:#000000;fill:#f9f9f9;fill-opacity:1;fill-rule:nonzero;stroke:none;stroke-width:6.02032614;marker:none;visibility:visible;display:inline;overflow:visible;enable-background:accumulate" />
      <path
         sodipodi:nodetypes="cccc"
         inkscape:connector-curvature="0"
         id="path4603"
         d="m 5258.356,677.32821 c -22.6072,17.92736 -30.2654,29.18682 -38.7962,45.33779 l 78.6893,0 c -9.0474,-15.72088 -18.9693,-29.51365 -39.8931,-45.33779 z"
         style="color:#000000;fill:#f9f9f9;fill-opacity:1;fill-rule:nonzero;stroke:none;stroke-width:6.02032614;marker:none;visibility:visible;display:inline;overflow:visible;enable-background:accumulate" />
      <path
         style="color:#000000;fill:#ff9955;fill-opacity:1;fill-rule:nonzero;stroke:#aa4400;stroke-width:6.02032614;stroke-linecap:round;stroke-linejoin:round;stroke-miterlimit:4;stroke-opacity:1;stroke-dashoffset:0;marker:none;visibility:visible;display:inline;overflow:visible;enable-background:accumulate"
         d="m 5236.1731,731.99578 46.0595,0 5.3717,11.23015 -57.3998,0 z"
         id="path4605"
         inkscape:connector-curvature="0"
         sodipodi:nodetypes="ccccc" />
      <path
         sodipodi:nodetypes="ccccc"
         inkscape:connector-curvature="0"
         id="path4607"
         d="m 5205.109,764.74218 107.5908,0 c -5.6811,-8.09826 -9.1705,-16.19653 -21.1771,-24.29479 l -64.6823,0 c -9.8922,8.09826 -16.1462,16.19653 -21.731,24.29479 z"
         style="color:#000000;fill:#f9f9f9;fill-opacity:1;fill-rule:nonzero;stroke:none;stroke-width:6.02032661;marker:none;visibility:visible;display:inline;overflow:visible;enable-background:accumulate" />
      <path
         style="color:#000000;fill:#f9f9f9;fill-opacity:1;fill-rule:nonzero;stroke:none;stroke-width:6.02032614;marker:none;visibility:visible;display:inline;overflow:visible;enable-background:accumulate"
         d="m 5173.2948,826.19795 168.9062,0 c -8.8542,-11.9546 -14.2926,-23.90917 -33.0058,-35.86377 l -100.8079,0 c -15.4177,11.9546 -26.3887,23.90917 -35.0925,35.86377 z"
         id="path4609"
         inkscape:connector-curvature="0"
         sodipodi:nodetypes="ccccc" />
      <path
         inkscape:connector-curvature="0"
         id="path4611"
         d="m 5201.0601,829.06374 0,57.33622"
         style="color:#000000;fill:#f9f9f9;fill-opacity:1;fill-rule:nonzero;stroke:#aa4400;stroke-width:6.02032614;stroke-linecap:round;stroke-linejoin:round;stroke-miterlimit:4;stroke-opacity:1;stroke-dasharray:none;stroke-dashoffset:0;marker:none;visibility:visible;display:inline;overflow:visible;enable-background:accumulate" />
      <path
         style="color:#000000;fill:#f9f9f9;fill-opacity:1;fill-rule:nonzero;stroke:#aa4400;stroke-width:6.02032614;stroke-linecap:round;stroke-linejoin:round;stroke-miterlimit:4;stroke-opacity:1;stroke-dasharray:none;stroke-dashoffset:0;marker:none;visibility:visible;display:inline;overflow:visible;enable-background:accumulate"
         d="m 5315.5928,829.06374 0,57.33622"
         id="path4613"
         inkscape:connector-curvature="0" />
      <rect
         y="-889.66351"
         x="5210.1914"
         height="26.66013"
         width="97.425873"
         id="rect4615"
         style="color:#000000;fill:none;stroke:#aa4400;stroke-width:6.02032757;stroke-linecap:round;stroke-linejoin:round;stroke-miterlimit:4;stroke-opacity:1;stroke-dasharray:none;stroke-dashoffset:0;marker:none;visibility:visible;display:inline;overflow:visible;enable-background:accumulate"
         transform="scale(1,-1)" />
      <path
         inkscape:connector-curvature="0"
         id="path4617"
         d="m 5243.7961,778.60686 -2.6029,9.83361 -21.4026,0.28922 4.6276,-10.12284 z"
         style="color:#000000;fill:#ff9955;fill-opacity:1;fill-rule:nonzero;stroke:none;stroke-width:1.5;marker:none;visibility:visible;display:inline;overflow:visible;enable-background:accumulate" />
      <path
         sodipodi:nodetypes="cccccc"
         inkscape:connector-curvature="0"
         id="path4619"
         d="m 5264.6203,683.16299 c -13.8283,11.34807 -24.3273,24.91576 -33.5501,39.33444 l -10.7013,-0.28938 13.8829,-21.98101 23.4271,-21.6918 z"
         style="color:#000000;fill:#ff9955;fill-opacity:1;fill-rule:nonzero;stroke:none;stroke-width:1.5;marker:none;visibility:visible;display:inline;overflow:visible;enable-background:accumulate" />
      <path
         inkscape:connector-curvature="0"
         id="path4621"
         d="m 5236.5656,743.32154 -16.4857,19.95645 -13.8828,0.86765 17.6427,-23.13788 14.7502,0.28938 z"
         style="color:#000000;fill:#ff9955;fill-opacity:1;fill-rule:nonzero;stroke:none;stroke-width:1.5;marker:none;visibility:visible;display:inline;overflow:visible;enable-background:accumulate" />
      <path
         sodipodi:nodetypes="cccccc"
         inkscape:connector-curvature="0"
         id="path4623"
         d="m 5206.7754,791.33271 21.4027,-0.28937 c -13.1673,10.90429 -24.5048,22.26597 -31.5253,34.70686 l -22.2703,0.57843 13.3045,-19.95646 z"
         style="color:#000000;fill:#ff9955;fill-opacity:1;fill-rule:nonzero;stroke:none;stroke-width:1.5;marker:none;visibility:visible;display:inline;overflow:visible;enable-background:accumulate" />
      <path
         style="color:#000000;fill:none;stroke:#aa4400;stroke-width:6.02032614;stroke-linecap:round;stroke-linejoin:round;stroke-miterlimit:4;stroke-opacity:1;stroke-dashoffset:0;marker:none;visibility:visible;display:inline;overflow:visible;enable-background:accumulate"
         d="m 5218.8329,788.84841 6.3258,-11.52106 68.3776,0 5.9867,12.11458"
         id="path4625"
         inkscape:connector-curvature="0"
         sodipodi:nodetypes="cccc" />
      <path
         style="color:#000000;fill:none;stroke:#aa4400;stroke-width:6.02032614;stroke-linejoin:round;stroke-miterlimit:4;stroke-dasharray:none;marker:none;visibility:visible;display:inline;overflow:visible;enable-background:accumulate"
         d="m 5258.356,677.32821 c -22.6072,17.92736 -30.2654,29.18682 -38.7962,45.33779 l 78.6893,0 c -9.0474,-15.72088 -18.9693,-29.51365 -39.8931,-45.33779 z"
         id="path4627"
         inkscape:connector-curvature="0"
         sodipodi:nodetypes="cccc" />
      <path
         style="color:#000000;fill:none;stroke:#aa4400;stroke-width:6.02032661;stroke-linecap:round;stroke-linejoin:round;stroke-miterlimit:4;stroke-opacity:1;stroke-dasharray:none;stroke-dashoffset:0;marker:none;visibility:visible;display:inline;overflow:visible;enable-background:accumulate"
         d="m 5205.109,764.74218 107.5908,0 c -5.6811,-8.09826 -9.1705,-16.19653 -21.1771,-24.29479 l -64.6823,0 c -9.8922,8.09826 -16.1462,16.19653 -21.731,24.29479 z"
         id="path4629"
         inkscape:connector-curvature="0"
         sodipodi:nodetypes="ccccc" />
      <path
         sodipodi:nodetypes="ccccc"
         inkscape:connector-curvature="0"
         id="path4631"
         d="m 5173.2948,826.19795 168.9062,0 c -8.8542,-11.9546 -14.2926,-23.90917 -33.0058,-35.86377 l -100.8079,0 c -15.4177,11.9546 -26.3887,23.90917 -35.0925,35.86377 z"
         style="color:#000000;fill:none;stroke:#aa4400;stroke-width:6.02032614;stroke-linecap:round;stroke-linejoin:round;stroke-miterlimit:4;stroke-opacity:1;stroke-dasharray:none;stroke-dashoffset:0;marker:none;visibility:visible;display:inline;overflow:visible;enable-background:accumulate" />
      <g
         id="g4842">
        <rect
           y="-876.66156"
           x="5148.8042"
           height="19.463511"
           width="21.213446"
           id="rect4639"
           style="color:#000000;fill:#ffffff;fill-opacity:1;fill-rule:nonzero;stroke:none;stroke-width:6.02032852;marker:none;visibility:visible;display:inline;overflow:visible;enable-background:accumulate"
           transform="scale(1,-1)" />
        <rect
           y="-858.14722"
           x="5138.1001"
           height="10.413386"
           width="42.62299"
           id="rect4641"
           style="color:#000000;fill:#ff9955;fill-opacity:1;fill-rule:nonzero;stroke:#aa4400;stroke-width:6.02032852;stroke-linecap:round;stroke-linejoin:round;stroke-miterlimit:4;stroke-opacity:1;stroke-dasharray:none;stroke-dashoffset:0;marker:none;visibility:visible;display:inline;overflow:visible;enable-background:accumulate"
           transform="scale(1,-1)" />
        <path
           inkscape:connector-curvature="0"
           id="path4643"
           d="m 5159.4119,805.43412 0,11.57336"
           style="color:#000000;fill:#f9f9f9;fill-opacity:1;fill-rule:nonzero;stroke:#aa4400;stroke-width:6.02032614;stroke-linecap:round;stroke-linejoin:round;stroke-miterlimit:4;stroke-opacity:1;stroke-dasharray:none;stroke-dashoffset:0;marker:none;visibility:visible;display:inline;overflow:visible;enable-background:accumulate" />
        <path
           sodipodi:nodetypes="cccc"
           inkscape:connector-curvature="0"
           id="path4645"
           d="m 5158.9094,812.26463 c -20.6995,14.35085 -27.712,23.364 -35.5231,36.29285 l 72.0508,0 c -8.2839,-12.58457 -17.3686,-23.62565 -36.5277,-36.29285 z"
           style="color:#000000;fill:#f9f9f9;fill-opacity:1;fill-rule:nonzero;stroke:none;stroke-width:6.02032614;marker:none;visibility:visible;display:inline;overflow:visible;enable-background:accumulate" />
        <rect
           transform="scale(1,-1)"
           style="color:#000000;fill:#ffffff;fill-opacity:1;fill-rule:nonzero;stroke:none;stroke-width:6.02032852;marker:none;visibility:visible;display:inline;overflow:visible;enable-background:accumulate"
           id="rect4647"
           width="40.08168"
           height="12.954693"
           x="5139.3701"
           y="-889.2782" />
        <g
           id="g4649"
           style="fill:#ff9955"
           transform="matrix(4.0135507,0,0,4.0135507,483.45677,-3054.3607)">
          <path
             transform="translate(1024.5,860.36218)"
             sodipodi:nodetypes="ccccccccc"
             inkscape:connector-curvature="0"
             id="path4651"
             d="m 141.76445,104.24739 c -0.32071,-0.2316 -0.57339,-0.69937 -0.9207,-0.93494 l 0,5e-5 -2.90625,1.625 -4.90625,4.875 c -0.022,0.0306 -0.0406,0.0631 -0.0625,0.0937 -0.38119,0.53468 -0.73526,1.07784 -1.09375,1.65625 l 2.93612,0.21875 c 1.82312,-3.74336 6.96019,-7.41039 6.95333,-7.53381 z"
             style="color:#000000;fill:#ff9955;stroke:none;stroke-width:1.5;marker:none;visibility:visible;display:inline;overflow:visible;enable-background:accumulate" />
          <rect
             transform="scale(1,-1)"
             style="color:#000000;fill:#ff9955;fill-opacity:1;fill-rule:nonzero;stroke:none;stroke-width:1.50000048;marker:none;visibility:visible;display:inline;overflow:visible;enable-background:accumulate"
             id="rect4653"
             width="5.0794945"
             height="2.594557"
             x="1159.7321"
             y="-981.95831" />
          <rect
             y="-978.64618"
             x="1161.9231"
             height="3.0770881"
             width="1.9573503"
             id="rect4655"
             style="color:#000000;fill:#ff9955;fill-opacity:1;fill-rule:nonzero;stroke:none;stroke-width:1.50000048;marker:none;visibility:visible;display:inline;overflow:visible;enable-background:accumulate"
             transform="scale(1,-1)" />
        </g>
        <path
           style="color:#000000;fill:none;stroke:#aa4400;stroke-width:6.02032614;stroke-linejoin:round;stroke-miterlimit:4;stroke-dasharray:none;marker:none;visibility:visible;display:inline;overflow:visible;enable-background:accumulate"
           d="m 5158.9094,812.26463 c -20.6995,14.35085 -27.712,23.364 -35.5231,36.29285 l 72.0508,0 c -8.2839,-12.58457 -17.3686,-23.62565 -36.5277,-36.29285 z"
           id="path4657"
           inkscape:connector-curvature="0"
           sodipodi:nodetypes="cccc" />
        <rect
           y="-889.2782"
           x="5139.3701"
           height="12.954693"
           width="40.08168"
           id="rect4659"
           style="color:#000000;fill:none;stroke:#aa4400;stroke-width:6.02032852;stroke-linecap:round;stroke-linejoin:round;stroke-miterlimit:4;stroke-opacity:1;stroke-dasharray:none;stroke-dashoffset:0;marker:none;visibility:visible;display:inline;overflow:visible;enable-background:accumulate"
           transform="scale(1,-1)" />
        <path
           style="color:#000000;fill:none;stroke:#aa4400;stroke-width:6.02032852;stroke-linecap:round;stroke-linejoin:round;stroke-miterlimit:4;stroke-opacity:1;stroke-dashoffset:0;marker:none;visibility:visible;display:inline;overflow:visible;enable-background:accumulate"
           d="m 5170.0177,876.19912 0,-2.7799 0,-13.08879 0,-1.75561 m -21.2136,0 0,1.9601 0,13.29332 0,2.37088"
           id="path4661"
           inkscape:connector-curvature="0"
           sodipodi:nodetypes="cccccccc" />
      </g>
      <g
         transform="translate(196.67244,0)"
         id="g4856">
        <rect
           transform="scale(1,-1)"
           style="color:#000000;fill:#ffffff;fill-opacity:1;fill-rule:nonzero;stroke:none;stroke-width:6.02032852;marker:none;visibility:visible;display:inline;overflow:visible;enable-background:accumulate"
           id="rect4858"
           width="21.213446"
           height="19.463511"
           x="5148.8042"
           y="-876.66156" />
        <rect
           transform="scale(1,-1)"
           style="color:#000000;fill:#ff9955;fill-opacity:1;fill-rule:nonzero;stroke:#aa4400;stroke-width:6.02032852;stroke-linecap:round;stroke-linejoin:round;stroke-miterlimit:4;stroke-opacity:1;stroke-dasharray:none;stroke-dashoffset:0;marker:none;visibility:visible;display:inline;overflow:visible;enable-background:accumulate"
           id="rect4860"
           width="42.62299"
           height="10.413386"
           x="5138.1001"
           y="-858.14722" />
        <path
           style="color:#000000;fill:#f9f9f9;fill-opacity:1;fill-rule:nonzero;stroke:#aa4400;stroke-width:6.02032614;stroke-linecap:round;stroke-linejoin:round;stroke-miterlimit:4;stroke-opacity:1;stroke-dasharray:none;stroke-dashoffset:0;marker:none;visibility:visible;display:inline;overflow:visible;enable-background:accumulate"
           d="m 5159.4119,805.43412 0,11.57336"
           id="path4862"
           inkscape:connector-curvature="0" />
        <path
           style="color:#000000;fill:#f9f9f9;fill-opacity:1;fill-rule:nonzero;stroke:none;stroke-width:6.02032614;marker:none;visibility:visible;display:inline;overflow:visible;enable-background:accumulate"
           d="m 5158.9094,812.26463 c -20.6995,14.35085 -27.712,23.364 -35.5231,36.29285 l 72.0508,0 c -8.2839,-12.58457 -17.3686,-23.62565 -36.5277,-36.29285 z"
           id="path4864"
           inkscape:connector-curvature="0"
           sodipodi:nodetypes="cccc" />
        <rect
           y="-889.2782"
           x="5139.3701"
           height="12.954693"
           width="40.08168"
           id="rect4866"
           style="color:#000000;fill:#ffffff;fill-opacity:1;fill-rule:nonzero;stroke:none;stroke-width:6.02032852;marker:none;visibility:visible;display:inline;overflow:visible;enable-background:accumulate"
           transform="scale(1,-1)" />
        <g
           transform="matrix(4.0135507,0,0,4.0135507,483.45677,-3054.3607)"
           style="fill:#ff9955"
           id="g4868">
          <path
             style="color:#000000;fill:#ff9955;stroke:none;stroke-width:1.5;marker:none;visibility:visible;display:inline;overflow:visible;enable-background:accumulate"
             d="m 141.76445,104.24739 c -0.32071,-0.2316 -0.57339,-0.69937 -0.9207,-0.93494 l 0,5e-5 -2.90625,1.625 -4.90625,4.875 c -0.022,0.0306 -0.0406,0.0631 -0.0625,0.0937 -0.38119,0.53468 -0.73526,1.07784 -1.09375,1.65625 l 2.93612,0.21875 c 1.82312,-3.74336 6.96019,-7.41039 6.95333,-7.53381 z"
             id="path4870"
             inkscape:connector-curvature="0"
             sodipodi:nodetypes="ccccccccc"
             transform="translate(1024.5,860.36218)" />
          <rect
             y="-981.95831"
             x="1159.7321"
             height="2.594557"
             width="5.0794945"
             id="rect4872"
             style="color:#000000;fill:#ff9955;fill-opacity:1;fill-rule:nonzero;stroke:none;stroke-width:1.50000048;marker:none;visibility:visible;display:inline;overflow:visible;enable-background:accumulate"
             transform="scale(1,-1)" />
          <rect
             transform="scale(1,-1)"
             style="color:#000000;fill:#ff9955;fill-opacity:1;fill-rule:nonzero;stroke:none;stroke-width:1.50000048;marker:none;visibility:visible;display:inline;overflow:visible;enable-background:accumulate"
             id="rect4874"
             width="1.9573503"
             height="3.0770881"
             x="1161.9231"
             y="-978.64618" />
        </g>
        <path
           sodipodi:nodetypes="cccc"
           inkscape:connector-curvature="0"
           id="path4876"
           d="m 5158.9094,812.26463 c -20.6995,14.35085 -27.712,23.364 -35.5231,36.29285 l 72.0508,0 c -8.2839,-12.58457 -17.3686,-23.62565 -36.5277,-36.29285 z"
           style="color:#000000;fill:none;stroke:#aa4400;stroke-width:6.02032614;stroke-linejoin:round;stroke-miterlimit:4;stroke-dasharray:none;marker:none;visibility:visible;display:inline;overflow:visible;enable-background:accumulate" />
        <rect
           transform="scale(1,-1)"
           style="color:#000000;fill:none;stroke:#aa4400;stroke-width:6.02032852;stroke-linecap:round;stroke-linejoin:round;stroke-miterlimit:4;stroke-opacity:1;stroke-dasharray:none;stroke-dashoffset:0;marker:none;visibility:visible;display:inline;overflow:visible;enable-background:accumulate"
           id="rect4878"
           width="40.08168"
           height="12.954693"
           x="5139.3701"
           y="-889.2782" />
        <path
           sodipodi:nodetypes="cccccccc"
           inkscape:connector-curvature="0"
           id="path4880"
           d="m 5170.0177,876.19912 0,-2.7799 0,-13.08879 0,-1.75561 m -21.2136,0 0,1.9601 0,13.29332 0,2.37088"
           style="color:#000000;fill:none;stroke:#aa4400;stroke-width:6.02032852;stroke-linecap:round;stroke-linejoin:round;stroke-miterlimit:4;stroke-opacity:1;stroke-dashoffset:0;marker:none;visibility:visible;display:inline;overflow:visible;enable-background:accumulate" />
      </g>
    </g>
  </g>
  <g
     inkscape:groupmode="layer"
     id="layer2"
     inkscape:label="sky &amp; cloud"
     transform="translate(-1396.8093,-126.07644)" />
  <g
     inkscape:groupmode="layer"
     id="layer3"
     inkscape:label="mount tambora"
     transform="translate(-1396.8093,-126.07644)" />
  <g
     inkscape:groupmode="layer"
     id="layer4"
     inkscape:label="land &amp; trees"
     transform="translate(-1396.8093,-126.07644)" />
</svg>
