<?xml version="1.0" encoding="UTF-8" standalone="no"?>
<!-- Created with Inkscape (http://www.inkscape.org/) -->

<svg
   xmlns:dc="http://purl.org/dc/elements/1.1/"
   xmlns:cc="http://creativecommons.org/ns#"
   xmlns:rdf="http://www.w3.org/1999/02/22-rdf-syntax-ns#"
   xmlns:svg="http://www.w3.org/2000/svg"
   xmlns="http://www.w3.org/2000/svg"
   xmlns:sodipodi="http://sodipodi.sourceforge.net/DTD/sodipodi-0.dtd"
   xmlns:inkscape="http://www.inkscape.org/namespaces/inkscape"
   width="2133.333"
   height="1200"
   viewBox="0 0 564.44434 317.50001"
   version="1.1"
   id="svg8"
   inkscape:version="0.92.1 r15371"
   sodipodi:docname="background_2.svg"
   inkscape:export-filename="/home/ars/git/BlankOn/blankon-uluwatu-kesenian/gambar-latar/winardiaris/background_2_1.png"
   inkscape:export-xdpi="90"
   inkscape:export-ydpi="90">
  <defs
     id="defs2" />
  <sodipodi:namedview
     id="base"
     pagecolor="#ffffff"
     bordercolor="#666666"
     borderopacity="1.0"
     inkscape:pageopacity="0.0"
     inkscape:pageshadow="2"
     inkscape:zoom="0.5"
     inkscape:cx="1457.4202"
     inkscape:cy="317.86498"
     inkscape:document-units="mm"
     inkscape:current-layer="layer1"
     showgrid="false"
     units="px"
     inkscape:snap-page="true"
     inkscape:snap-global="true"
     inkscape:window-width="1366"
     inkscape:window-height="724"
     inkscape:window-x="0"
     inkscape:window-y="0"
     inkscape:window-maximized="1"
     inkscape:object-paths="true"
     inkscape:snap-bbox="true"
     inkscape:snap-bbox-midpoints="true"
     inkscape:snap-object-midpoints="true"
     inkscape:snap-center="true"
     inkscape:snap-bbox-edge-midpoints="true"
     inkscape:bbox-nodes="true" />
  <metadata
     id="metadata5">
    <rdf:RDF>
      <cc:Work
         rdf:about="">
        <dc:format>image/svg+xml</dc:format>
        <dc:type
           rdf:resource="http://purl.org/dc/dcmitype/StillImage" />
        <dc:title></dc:title>
      </cc:Work>
    </rdf:RDF>
  </metadata>
  <g
     inkscape:label="Layer 1"
     inkscape:groupmode="layer"
     id="layer1"
     transform="translate(0,20.500017)"
     style="display:inline">
    <rect
       style="opacity:1;fill:#ef5623;fill-opacity:1;fill-rule:nonzero;stroke:none;stroke-width:13.22916603;stroke-linecap:round;stroke-linejoin:round;stroke-miterlimit:4;stroke-dasharray:none;stroke-opacity:0.40454544;paint-order:markers fill stroke"
       id="rect4493"
       width="564.44434"
       height="317.5"
       x="0"
       y="-20.500017" />
    <path
       style="opacity:1;fill:#f6d258;fill-rule:evenodd;stroke:none;stroke-width:0.26499999;stroke-linecap:butt;stroke-linejoin:miter;stroke-miterlimit:4;stroke-dasharray:none;stroke-opacity:1"
       d="m 282.20642,109.09258 v 5.3e-4 c -0.0254,7.9e-4 -0.0514,0.005 -0.0791,0.0114 -1.12175,0.19735 -2.29184,4.30982 -2.29184,4.30982 -0.131,0.80043 -0.11661,1.47183 0.37258,2.02416 l -0.91516,-0.35346 c -0.66509,0.12677 -1.10827,1.10608 -1.19478,1.56993 0.0314,0.55835 0.52318,0.36386 1.23766,1.78439 0.0156,0.11575 -0.037,0.20091 -0.23566,0.24132 -0.503,0.10442 -0.9012,-0.52506 -1.34824,-0.81287 -1.41671,1.16906 0.49332,2.75875 1.01441,3.6649 0,0 0.0417,0.29261 -0.2005,0.43459 -0.34147,0.0575 -0.67098,-0.12272 -1.68722,-0.91053 -1.46433,1.49655 0.55351,2.38507 1.08572,3.51606 0.17518,0.65772 0.0986,0.90149 -0.16693,0.83509 -0.66209,-0.42331 -1.04296,-0.70846 -1.77868,-1.21078 -0.86016,1.58859 0.61116,3.18539 1.34461,3.78375 0.69686,0.72205 0.30935,0.99865 -0.10025,1.00201 -1.12694,-0.26609 -1.68908,-0.7209 -2.53111,-1.07746 -0.57576,1.45161 -0.17079,3.38032 2.23861,4.00906 -0.0436,0.17456 -0.004,0.51024 -0.0164,0.75396 h -0.84749 c -0.43974,0 -0.79375,0.35402 -0.79375,0.79375 v 2.94349 c 0,0.43974 0.35401,0.79375 0.79375,0.79375 h 0.1819 v 9.69037 h -2.86649 l 3.06234,4.65707 h -0.81235 c -0.54989,0 -0.99272,0.53502 -0.99272,1.19941 v 0.48008 c 3e-5,0.66441 0.44283,1.19889 0.99272,1.19889 h 13.101 c 0.54988,0 0.99271,-0.53448 0.99271,-1.19889 v -0.48008 c 0,-0.66439 -0.44283,-1.19941 -0.99271,-1.19941 h -0.81182 l 3.06234,-4.65707 h -2.8665 v -9.69037 h 0.45114 c 0.43974,0 0.79375,-0.35401 0.79375,-0.79375 v -2.94349 c 0,-0.43973 -0.35401,-0.79375 -0.79375,-0.79375 h -1.11672 c -0.013,-0.24372 0.0265,-0.5794 -0.0169,-0.75396 2.4094,-0.62874 2.81443,-2.55744 2.23864,-4.00906 -0.84203,0.35657 -1.40364,0.81137 -2.53061,1.07746 -0.40957,-0.003 -0.79713,-0.27996 -0.10025,-1.00201 0.73343,-0.59835 2.20478,-2.19516 1.34462,-3.78375 -0.73573,0.50232 -1.1171,0.78747 -1.77922,1.21078 -0.26551,0.0664 -0.34211,-0.17737 -0.1669,-0.83509 0.53221,-1.13099 2.55003,-2.01951 1.08572,-3.51606 -1.01624,0.78781 -1.34578,0.96804 -1.68725,0.91053 -0.24217,-0.14198 -0.2005,-0.43459 -0.2005,-0.43459 0.5211,-0.90615 2.43115,-2.49583 1.01441,-3.6649 -0.44699,0.28782 -0.84521,0.91729 -1.34824,0.81287 -0.19867,-0.0404 -0.25114,-0.12557 -0.23563,-0.24132 0.71445,-1.42053 1.20623,-1.22604 1.23764,-1.78439 -0.0865,-0.46385 -0.52967,-1.44316 -1.19475,-1.56993 l -0.9152,0.35346 c 0.48922,-0.55233 0.50358,-1.22373 0.37259,-2.02416 -1.06371,-1.49023 -0.93562,-3.90012 -2.32492,-4.31137 -0.0267,-0.008 -0.052,-0.0108 -0.0775,-0.0103 z m -10.00403,15.2001 c -0.33158,0.0109 -0.7253,0.1818 -1.13533,0.44649 -1.42907,0.78274 -1.75207,1.82883 -0.53692,3.24114 -0.54784,-0.1383 -1.01888,-0.17735 -1.3286,-1.02991 -0.83945,0.44553 -2.28455,2.13652 -0.20206,4.18579 0.0452,0.20043 -0.006,0.33122 -0.35968,0.24392 -0.93348,-0.21675 -1.34802,-0.57371 -1.74924,-1.44229 -0.91069,2.2531 0.58698,3.02087 0.7307,4.3434 -0.0585,0.38588 -0.11282,0.60818 -0.33382,0.73846 -0.55171,-0.0469 -1.72644,-1.83137 -1.988,-2.24844 -0.68408,2.06229 -1.26514,3.12262 1.10434,5.73298 0.28676,0.56345 -0.51781,0.60151 -0.51781,0.60151 -0.46863,0 -1.70851,-1.3022 -2.2381,-2.9068 -2.01025,3.56289 -0.43349,4.23546 -0.15038,5.68803 0.0845,0.23246 -0.009,0.3926 -0.18397,0.4594 -0.90552,0.18595 -1.50609,-1.34315 -1.9544,-3.20755 -1.71784,2.56225 -3.30717,4.69383 1.82108,8.23515 0.32985,0.22781 0.42634,1.26967 0.23357,2.23862 -0.36997,-0.83748 -0.70177,-1.70273 -0.70177,-1.70273 l -4.57646,0.0424 c -0.36161,0.0158 -0.69087,0.0766 -0.70176,0.57464 v 5.59604 c 0.0859,0.27043 0.26516,0.44714 0.4842,0.58446 h 2.77296 c 0.35636,-0.42281 0.71283,-0.28403 1.06919,0 h 10.21797 c 0.58492,-0.0227 1.10117,-0.15445 1.15755,-1.01647 v -27.80864 c 0,-1.18091 -0.38063,-1.60775 -0.93326,-1.58957 z m 20.03959,0 c -0.55263,-0.0182 -0.93379,0.40866 -0.93379,1.58957 v 27.80864 c 0.0564,0.86202 0.57266,0.99376 1.15755,1.01647 h 10.218 c 0.35634,-0.28403 0.71281,-0.42281 1.06918,0 h 2.77294 c 0.21905,-0.13732 0.39881,-0.31403 0.48474,-0.58446 v -5.59604 c -0.0109,-0.49802 -0.34017,-0.55884 -0.70178,-0.57464 l -4.57647,-0.0424 c 0,0 -0.33229,0.86525 -0.70226,1.70273 -0.19277,-0.96895 -0.0958,-2.01081 0.23408,-2.23862 5.12823,-3.54132 3.5384,-5.6729 1.82057,-8.23515 -0.44831,1.8644 -1.04889,3.3935 -1.9544,3.20755 -0.17542,-0.0668 -0.26799,-0.22694 -0.18346,-0.4594 0.28311,-1.45257 1.85986,-2.12514 -0.15039,-5.68803 -0.52959,1.6046 -1.76998,2.9068 -2.23861,2.9068 0,0 -0.80455,-0.0381 -0.51779,-0.60151 2.36945,-2.61036 1.78893,-3.67069 1.10485,-5.73298 -0.26157,0.41707 -1.4368,2.20155 -1.98853,2.24844 -0.22098,-0.13028 -0.27525,-0.35258 -0.33383,-0.73846 0.14372,-1.32253 1.6414,-2.0903 0.7307,-4.3434 -0.40121,0.86858 -0.81523,1.22554 -1.74871,1.44229 -0.35324,0.0873 -0.40484,-0.0435 -0.35967,-0.24392 2.08248,-2.04927 0.63685,-3.74026 -0.20257,-4.18579 -0.30975,0.85256 -0.78025,0.89161 -1.3281,1.02991 1.21513,-1.41231 0.89162,-2.4584 -0.53742,-3.24114 -0.41005,-0.26469 -0.80325,-0.43558 -1.13483,-0.44649 z m -10.02006,14.58929 a 2,2 0 0 1 1.99988,1.99988 v 6.0079 h -3.99976 v -6.0079 a 2,2 0 0 1 1.99988,-1.99988 z"
       id="path4562"
       inkscape:connector-curvature="0" />
  </g>
</svg>
