<?xml version="1.0" encoding="UTF-8" standalone="no"?>
<!-- Created with Inkscape (http://www.inkscape.org/) -->

<svg
   xmlns:dc="http://purl.org/dc/elements/1.1/"
   xmlns:cc="http://creativecommons.org/ns#"
   xmlns:rdf="http://www.w3.org/1999/02/22-rdf-syntax-ns#"
   xmlns:svg="http://www.w3.org/2000/svg"
   xmlns="http://www.w3.org/2000/svg"
   xmlns:xlink="http://www.w3.org/1999/xlink"
   xmlns:sodipodi="http://sodipodi.sourceforge.net/DTD/sodipodi-0.dtd"
   xmlns:inkscape="http://www.inkscape.org/namespaces/inkscape"
   width="557"
   height="346"
   viewBox="0 0 147.37291 91.545836"
   version="1.1"
   id="svg4638"
   inkscape:version="0.92.2 (5c3e80d, 2017-08-06)"
   sodipodi:docname="scribus_splash.svg">
  <defs
     id="defs4632">
    <clipPath
       clipPathUnits="userSpaceOnUse"
       id="clipPath4333">
      <g
         transform="translate(-7.3676501e-6)"
         id="g4335">
        <path
           style="color:#000000;font-style:normal;font-variant:normal;font-weight:normal;font-stretch:normal;font-size:medium;line-height:normal;font-family:Sans;-inkscape-font-specification:Sans;text-indent:0;text-align:start;text-decoration:none;text-decoration-line:none;letter-spacing:normal;word-spacing:normal;text-transform:none;writing-mode:lr-tb;direction:ltr;baseline-shift:baseline;text-anchor:start;display:inline;overflow:visible;visibility:visible;fill:#ffffff;fill-opacity:1;stroke:none;stroke-width:28.50670052;marker:none;enable-background:accumulate"
           d="m 2102.6562,760.84375 c -38.3599,0 -69.7812,31.42123 -69.7812,69.78125 0,38.36002 31.4213,69.75 69.7812,69.75 38.3601,0 69.75,-31.39001 69.75,-69.75 0,-38.35999 -31.3899,-69.78125 -69.75,-69.78125 z m 0,28.5 c 22.954,0 41.25,18.3274 41.25,41.28125 0,22.95385 -18.296,41.25 -41.25,41.25 -22.9538,0 -41.2812,-18.29618 -41.2812,-41.25 0,-22.95382 18.3274,-41.28125 41.2812,-41.28125 z"
           id="path4337"
           inkscape:connector-curvature="0" />
        <path
           style="color:#000000;font-style:normal;font-variant:normal;font-weight:normal;font-stretch:normal;font-size:medium;line-height:normal;font-family:Sans;-inkscape-font-specification:Sans;text-indent:0;text-align:start;text-decoration:none;text-decoration-line:none;letter-spacing:normal;word-spacing:normal;text-transform:none;writing-mode:lr-tb;direction:ltr;baseline-shift:baseline;text-anchor:start;display:inline;overflow:visible;visibility:visible;fill:#ffffff;fill-opacity:1;fill-rule:nonzero;stroke:none;stroke-width:23.18467522;marker:none;enable-background:accumulate"
           d="M 2183.0312,762.65625 A 11.593497,11.593497 0 0 0 2171.4375,774.25 v 119.125 a 11.593497,11.593497 0 0 0 11.5937,11.59375 h 1.2813 A 11.593497,11.593497 0 0 0 2195.9062,893.375 V 774.25 a 11.593497,11.593497 0 0 0 -11.5937,-11.59375 z"
           id="path4339"
           inkscape:connector-curvature="0" />
      </g>
    </clipPath>
    <clipPath
       clipPathUnits="userSpaceOnUse"
       id="clipPath7774">
      <path
         style="color:#000000;display:inline;overflow:visible;visibility:visible;fill:url(#linearGradient7778);fill-opacity:1;fill-rule:nonzero;stroke:none;stroke-width:2;marker:none;enable-background:accumulate"
         d="m 1164.3125,432.5 c -0.3443,-0.006 -0.6535,0.01 -1,0.0312 -1.2797,0.0796 -2.6137,0.36368 -3.875,0.84375 -2.1018,0.80012 -3.85,2.06191 -5.2187,3.65625 -2.0368,-3.6918 -6.5398,-5.41811 -10.5938,-3.875 -2.0014,0.76189 -3.5537,2.19154 -4.5,3.9375 -2.7168,-2.75373 -6.6115,-4.27468 -10.75,-3.78125 -6.156,0.73396 -10.7622,5.6679 -11.3438,11.59375 -1.9668,-0.84113 -4.1609,-1.20894 -6.4374,-0.9375 -6.9257,0.82574 -11.8569,7.10556 -11.0313,14.03125 0.1303,1.09236 0.3982,2.14607 0.7813,3.125 -7.2205,2.90148 -11.9027,10.3727 -10.9376,18.46875 0.1886,1.58084 0.5902,3.05868 1.1563,4.46875 -5.7593,1.01355 -9.7949,6.34045 -9.0937,12.21875 0.021,0.17755 0.063,0.3568 0.094,0.53125 -0.374,-0.0587 -0.7657,-0.0937 -1.1563,-0.0937 -3.2243,0 -5.9496,2.07908 -6.9374,4.96875 -0.6107,-0.35404 -1.3059,-0.5625 -2.0626,-0.5625 -2.2901,0 -4.1562,1.83484 -4.1562,4.125 -0.4282,-0.22883 -0.9181,-0.375 -1.4375,-0.375 -1.6858,0 -3.0625,1.37668 -3.0625,3.0625 0,0.0209 -4e-4,0.0417 0,0.0625 l -6.5312,1.71875 c -2.5813,0.45332 -4.6927,0.94245 -5.75,1.5 -0.027,0.0139 -0.069,0.0172 -0.094,0.0312 l -3.6562,0.9375 10.75,-0.21875 c 2.7947,0.009 5.5583,0.0345 8.2812,0.0937 0.375,1.47864 1.7172,2.59375 3.3125,2.59375 1.0531,0 1.9674,-0.50062 2.5937,-1.25 0.6408,2.40187 2.8338,4.1875 5.4376,4.1875 1.778,0 3.3442,-0.83693 4.375,-2.125 1.0637,0.71864 2.3384,1.125 3.7187,1.125 1.9119,0 3.6284,-0.80415 4.8437,-2.09375 0.6251,0.7978 1.5955,1.3125 2.6876,1.3125 1.4046,0 2.6319,-0.85037 3.1562,-2.0625 0.7264,0.0648 1.4653,0.11972 2.1875,0.1875 0.057,0.24996 0.1312,0.49575 0.2187,0.75 1.4629,4.24267 6.7065,7.38072 11.75,7 1.52,-0.11479 2.8984,-0.57091 3.9688,-1.21875 0.031,0.0224 0.063,0.0716 0.094,0.0937 0.028,0.08 0.035,0.16994 0.062,0.25 1.2542,3.63704 5.4801,6.37669 9.8126,6.53125 1.266,3.64261 5.4216,6.44886 9.75,6.84375 0.6194,0.056 1.2237,0.078 1.8437,0.0312 2.1195,-0.16 3.8515,-0.94478 5.0313,-2.09375 0.2381,0.11694 0.4897,0.21274 0.75,0.3125 2.1765,0.83575 4.5039,0.82424 6.125,0.0937 0.663,0.64413 1.5515,1.21288 2.625,1.625 3.1331,1.20267 6.6149,0.65805 7.7812,-1.25 0.026,-0.0498 0.035,-0.13731 0.062,-0.1875 2.4462,0.33035 4.7837,-0.33384 5.6875,-1.8125 0.1136,-0.18369 0.1859,-0.36908 0.25,-0.5625 4.6658,1.65889 9.7404,0.79657 11.4688,-2.03125 0.029,-0.047 0.036,-0.10605 0.062,-0.15625 1.1657,1.55869 3.029,2.5625 5.125,2.5625 2.0807,0 3.8953,-0.99211 5.0626,-2.53125 0.1986,0.0383 0.395,0.0868 0.5937,0.125 1.3067,2.01816 3.573,3.375 6.1563,3.375 2.7591,0 5.1541,-1.52951 6.4062,-3.78125 3.3358,2.13332 7.5759,2.73626 11.5625,1.21875 4.9649,-1.88989 8.0679,-6.51316 8.3125,-11.5 l 18.5,3.375 c 0.048,0.0771 0.1056,0.14282 0.1562,0.21875 2.0445,3.04673 6.0055,4.01524 9.1876,2.375 1.0892,1.90449 3.1488,3.1875 5.5,3.1875 2.3526,0 4.4112,-1.28105 5.5,-3.1875 l 21.2812,4.3125 c 0.7611,1.34689 1.7265,2.59332 2.9375,3.6875 4.2866,3.87323 10.2409,4.77511 15.2813,2.8125 0.093,0.0987 0.1788,0.18872 0.2812,0.28125 1.2007,1.08486 2.7693,1.49863 4.25,1.25 -0.066,1.28891 0.374,2.59855 1.4062,3.53125 1.8223,1.64652 4.6349,1.50977 6.2813,-0.3125 1.4323,-1.58503 1.5156,-3.9294 0.3125,-5.59375 0.9382,-0.46143 1.7879,-1.11461 2.5312,-1.9375 3.1449,-3.48035 2.8866,-8.85532 -0.5937,-12 -1.5648,-1.41384 -3.5141,-2.13603 -5.4687,-2.1875 -0.6409,-2.88588 -2.1082,-5.61724 -4.4688,-7.75 -5.0042,-4.52169 -12.2681,-4.93364 -17.7188,-1.53125 -0.2181,-0.88478 -0.7106,-1.71806 -1.4374,-2.375 -1.9392,-1.75185 -4.9044,-1.5951 -6.6563,0.34375 -0.3285,0.36353 -0.5858,0.76504 -0.7813,1.1875 -0.4634,-0.70547 -1.0319,-1.37644 -1.6874,-1.96875 -3.4348,-3.10362 -8.4178,-3.40361 -12.1563,-1.0625 -0.2255,-0.29359 -0.4656,-0.58672 -0.75,-0.84375 -2.5379,-2.29298 -6.4259,-2.10023 -8.7187,0.4375 -0.5199,0.57518 -0.9221,1.2244 -1.1876,1.90625 -1.9389,-0.70841 -4.2186,-0.21949 -5.6874,1.40625 -0.7571,0.83772 -1.1921,1.86412 -1.3126,2.90625 -1.4369,-0.0417 -2.9028,0.35665 -4.1874,1.21875 -0.5125,0.3438 -0.9514,0.74722 -1.3438,1.1875 l -13.5,-12.125 c -0.026,-1.21881 -0.229,-2.45168 -0.6875,-3.65625 -0.9553,-2.50963 -2.7283,-4.47991 -4.9063,-5.6875 0.7526,-3.47401 0.515,-7.21155 -0.8437,-10.78125 -1.9187,-5.04029 -5.7414,-8.76925 -10.3437,-10.71875 0.9331,-2.00686 1.0683,-4.36188 0.2187,-6.59375 -1.6693,-4.38542 -6.5833,-6.60682 -10.9687,-4.9375 -0.1015,0.0385 -0.1823,0.083 -0.2813,0.125 -0.054,-1.36371 -0.3002,-2.71654 -0.8125,-4.0625 -2.1617,-5.67896 -7.9149,-8.97146 -13.6875,-8.25 -0.051,-0.18044 -0.088,-0.35274 -0.1563,-0.53125 -0.9039,-2.37547 -3.1078,-3.8707 -5.5,-3.9375 -0.048,-0.13989 -0.072,-0.267 -0.125,-0.40625 -1.9502,-5.12355 -6.8052,-8.34336 -11.9687,-8.4375 z"
         id="path7776"
         inkscape:connector-curvature="0" />
    </clipPath>
    <clipPath
       clipPathUnits="userSpaceOnUse"
       id="clipPath6129">
      <path
         id="path6131"
         d="m 887.0937,505.8125 c -3.5412,0.12082 -6.8135,1.68915 -9.125,4.21875 -0.6423,-0.41582 -1.385,-0.73913 -2.1875,-0.875 -1.9992,-0.33854 -3.9339,0.39966 -5.2187,1.78125 -1.2414,-2.39048 -3.5458,-4.20314 -6.4063,-4.6875 -4.0477,-0.68541 -7.8903,1.5001 -9.5312,5.0625 -0.8217,-0.3679 -1.7289,-0.5625 -2.6875,-0.5625 -3.3479,0 -6.1082,2.48625 -6.5313,5.71875 -2.1002,0.60365 -3.7985,2.35948 -4.1875,4.65625 -0.037,0.21788 -0.05,0.44066 -0.062,0.65625 -3.5864,-0.20585 -7.0994,1.7977 -8.625,5.28125 -0.8904,2.0334 -0.9265,4.223 -0.3125,6.1875 -1.9414,1.32468 -3.5813,3.15713 -4.5937,5.46875 -2.572,5.87281 -0.4297,12.62052 4.75,16.03125 -0.4257,0.54971 -0.8334,1.14663 -1.125,1.8125 -1.9092,4.35941 0.079,9.43456 4.4375,11.34375 0.715,0.31316 1.4507,0.51473 2.1875,0.625 -1.0908,3.93714 -0.073,8.10821 2.5,11.09375 -0.8478,3.0627 -0.4414,6.2349 1,8.90625 -1.0389,4.75283 0.9281,9.70433 4.9375,12.46873 -1.1376,5.0872 1.1362,10.3953 5.7187,13.0313 1.3533,6.839 4.9702,13.5542 9.5625,20.5312 0.6166,-7.2347 1.482,-14.0604 2.5625,-20.5625 2.1142,-1.2402 3.879,-3.1142 4.9375,-5.5312 1.3545,-3.0929 1.2983,-6.4739 0.125,-9.375 0.7601,-0.4195 1.3439,-1.1712 1.5,-2.0938 0.1984,-1.1713 -0.3305,-2.276 -1.25,-2.9062 0.1944,-0.2498 0.3185,-0.5724 0.375,-0.9063 0.1141,-0.6733 -0.1342,-1.3116 -0.5937,-1.75 4.6423,-15.90891 11.0676,-29.21555 19.2812,-40.34373 0.2068,0.0848 0.4268,0.14863 0.6563,0.1875 1.673,0.28329 3.2479,-0.85828 3.5312,-2.53125 0.084,-0.49776 0.049,-0.98718 -0.094,-1.4375 0.2633,0.11585 0.5471,0.23103 0.8437,0.28125 1.9377,0.32813 3.7344,-0.96848 4.0625,-2.90625 0.1404,-0.82904 0,-1.63065 -0.375,-2.3125 0.5814,0.33903 1.2035,0.5685 1.9063,0.6875 3.1293,0.52989 6.0951,-1.58944 6.625,-4.71875 0.1073,-0.6334 0.127,-1.24256 0.031,-1.84375 1.9667,-0.64127 3.537,-2.319 3.9063,-4.5 0.1277,-0.75366 0.094,-1.48451 -0.062,-2.1875 3.6491,-0.0168 6.9277,-2.25707 8.2187,-5.65625 5.7681,-3.2593 11.0562,-5.11821 12.25,-5.78125 -6.144,-6.73207 -12.5171,-2.43715 -13.6875,-2.96875 -1.3067,-1.60284 -3.1445,-2.78387 -5.3437,-3.15625 -1.402,-0.23741 -2.7893,-0.10784 -4.0625,0.28125 -0.996,-2.16501 -3.0355,-3.82211 -5.5625,-4.25 -1.8117,-0.30678 -3.5653,0.0687 -5.0313,0.9375 -1.7852,-1.65007 -4.018,-2.81386 -6.5937,-3.25 -0.8827,-0.14948 -1.795,-0.18563 -2.6563,-0.15625 z"
         style="color:#000000;display:inline;overflow:visible;visibility:visible;fill:url(#linearGradient6133);fill-opacity:1;fill-rule:nonzero;stroke:none;stroke-width:2;marker:none;enable-background:accumulate"
         inkscape:connector-curvature="0" />
    </clipPath>
    <clipPath
       clipPathUnits="userSpaceOnUse"
       id="clipPath8347">
      <path
         id="path8349"
         d="m 1324.25,507.84375 c -5.7536,0.0497 -10.7337,3.86158 -12.375,9.25 -1.7773,-1.21845 -3.8541,-2.00493 -6.1562,-2.1875 -7.0166,-0.55642 -13.1937,4.70233 -13.75,11.71875 -0.1688,2.12866 0.2145,4.16425 1,6 -3.6004,1.0301 -6.3427,4.17231 -6.6563,8.125 -0.4034,5.08763 3.3811,9.5653 8.4687,9.96875 0.9053,0.0718 1.8104,0.0214 2.6563,-0.15625 2.0132,5.55338 6.7114,9.89006 12.6563,11.28125 1.2058,4.43171 5.0644,7.83478 9.9062,8.21875 4.7509,0.37676 9.0553,-2.28967 11,-6.34375 4.379,2.95878 9.734,4.49177 15.3125,4.0625 -0.1111,1.47903 -0.068,2.97179 0.1875,4.5 1.5943,9.52094 10.0835,16.15532 19.5,15.65625 v -74.59375 c -1.0313,-0.5702 -2.1201,-1.00418 -3.2812,-1.28125 -1.6616,-0.39653 -3.4281,-0.48738 -5.2188,-0.1875 -3.0144,0.50472 -5.6177,2.03133 -7.5312,4.125 -1.5137,-3.64615 -5.377,-5.92991 -9.4376,-5.25 -2.1273,0.35622 -3.9054,1.46488 -5.1874,3 -2.1418,-3.26464 -5.7438,-5.54243 -9.9376,-5.875 -0.3897,-0.0309 -0.7726,-0.0346 -1.1562,-0.0312 z"
         style="color:#000000;display:inline;overflow:visible;visibility:visible;fill:url(#linearGradient8351);fill-opacity:1;fill-rule:nonzero;stroke:none;stroke-width:2;marker:none;enable-background:accumulate"
         inkscape:connector-curvature="0" />
    </clipPath>
    <linearGradient
       id="linearGradient665">
      <stop
         id="stop666"
         offset="0.00000000"
         style="stop-color:#ffffff;stop-opacity:0.285714;" />
      <stop
         id="stop667"
         offset="1.00000000"
         style="stop-color:#daecf8;stop-opacity:1;" />
    </linearGradient>
    <linearGradient
       id="linearGradient624">
      <stop
         id="stop625"
         offset="0.00000000"
         style="stop-color:#b9e5ff;stop-opacity:0.419643;" />
      <stop
         id="stop626"
         offset="1.00000000"
         style="stop-color:#ffffff;stop-opacity:1;" />
    </linearGradient>
    <linearGradient
       id="linearGradient619">
      <stop
         id="stop620"
         offset="0.00000000"
         style="stop-color:#66b8ff;stop-opacity:1;" />
      <stop
         id="stop621"
         offset="1.00000000"
         style="stop-color:#00507a;stop-opacity:1;" />
    </linearGradient>
    <linearGradient
       id="linearGradient604">
      <stop
         id="stop605"
         offset="0.00000000"
         style="stop-color:#838383;stop-opacity:1;" />
      <stop
         id="stop606"
         offset="1.00000000"
         style="stop-color:#2c2c2c;stop-opacity:1;" />
    </linearGradient>
    <linearGradient
       id="linearGradient598">
      <stop
         id="stop599"
         offset="0.00000000"
         style="stop-color:#e1dedd;stop-opacity:0.866071;" />
      <stop
         id="stop600"
         offset="1.00000000"
         style="stop-color:#2c2c2c;stop-opacity:1;" />
    </linearGradient>
    <linearGradient
       id="linearGradient593">
      <stop
         id="stop594"
         offset="0.00000000"
         style="stop-color:#fff9db;stop-opacity:0.732143;" />
      <stop
         id="stop595"
         offset="1.00000000"
         style="stop-color:#2c2c2c;stop-opacity:1;" />
    </linearGradient>
    <linearGradient
       id="linearGradient586">
      <stop
         id="stop587"
         offset="0.00000000"
         style="stop-color:#6e6969;stop-opacity:1;" />
      <stop
         id="stop588"
         offset="1.00000000"
         style="stop-color:#2c2c2c;stop-opacity:1;" />
    </linearGradient>
    <linearGradient
       id="linearGradient578">
      <stop
         id="stop579"
         offset="0.00000000"
         style="stop-color:#fff2bc;stop-opacity:1;" />
      <stop
         id="stop580"
         offset="1.00000000"
         style="stop-color:#83560b;stop-opacity:1;" />
    </linearGradient>
    <linearGradient
       y2="279.76099"
       x2="656.45555"
       y1="231.00583"
       x1="596.05675"
       id="linearGradient581"
       xlink:href="#linearGradient578"
       gradientTransform="matrix(0.21253753,0,0,0.32937402,-323.59385,62.272837)"
       gradientUnits="userSpaceOnUse" />
    <radialGradient
       fy="0.50000000"
       fx="0.50000000"
       r="0.50000000"
       cy="0.50000000"
       cx="0.50000000"
       id="radialGradient582"
       xlink:href="#linearGradient578" />
    <linearGradient
       y2="264.66051"
       x2="908.4478"
       y1="160.6253"
       x1="779.71681"
       id="linearGradient590"
       xlink:href="#linearGradient593"
       gradientTransform="matrix(0.19635286,0,0,0.35652313,-323.59385,62.272837)"
       gradientUnits="userSpaceOnUse" />
    <linearGradient
       y2="0.53906250"
       x2="0.31958762"
       y1="0.49218750"
       x1="0.19587629"
       id="linearGradient592"
       xlink:href="#linearGradient586" />
    <linearGradient
       y2="0.38281250"
       x2="0.66666669"
       y1="0.25781250"
       x1="0.49333334"
       id="linearGradient597"
       xlink:href="#linearGradient598" />
    <linearGradient
       y2="0.10937500"
       x2="0.43835616"
       y1="0.37500000"
       x1="0.83076924"
       id="linearGradient603"
       xlink:href="#linearGradient604" />
    <linearGradient
       y2="0.92968750"
       x2="0.97674412"
       y1="0.37500000"
       x1="0.41085270"
       id="linearGradient618"
       xlink:href="#linearGradient665" />
    <linearGradient
       y2="425.91623"
       x2="411.62374"
       y1="74.198003"
       x1="273.63622"
       id="linearGradient623"
       xlink:href="#linearGradient624"
       gradientTransform="matrix(0.1895887,0,0,0.36924321,-323.59385,62.272837)"
       gradientUnits="userSpaceOnUse" />
    <linearGradient
       y2="598.45589"
       x2="332.64537"
       y1="-72.169076"
       x1="34.350778"
       id="linearGradient664"
       xlink:href="#linearGradient619"
       gradientUnits="userSpaceOnUse"
       gradientTransform="matrix(0.22020688,0,0,0.22401053,-304.63566,106.32345)" />
    <clipPath
       clipPathUnits="userSpaceOnUse"
       id="clipPath6922">
      <g
         id="use6924"
         inkscape:label="Clip">
        <ellipse
           cy="165.11697"
           cx="-229.91759"
           style="font-size:12px;fill:url(#linearGradient6964);fill-opacity:1;fill-rule:evenodd;stroke:#000000;stroke-width:3.50910354;stroke-dasharray:none;stroke-opacity:1"
           id="ellipse6946"
           rx="83.627121"
           ry="85.546761" />
        <ellipse
           cy="163.9753"
           cx="-229.49007"
           style="font-size:12px;fill:url(#linearGradient6966);fill-opacity:1;fill-rule:evenodd;stroke:none;stroke-width:3.40935469;stroke-dasharray:none;stroke-opacity:1"
           id="ellipse6948"
           rx="81.476547"
           ry="82.883896" />
        <ellipse
           ry="14.85736"
           rx="25.394756"
           cy="178.78409"
           cx="-35.609913"
           style="font-size:12px;fill:#060000;fill-opacity:1;fill-rule:evenodd;stroke:#000000;stroke-width:0.18583697pt"
           id="ellipse6950"
           transform="matrix(0.7651989,0.64379395,-0.73696278,0.67593333,0,0)" />
        <path
           inkscape:connector-curvature="0"
           style="font-size:12px;fill:url(#linearGradient6968);fill-opacity:0.75;fill-rule:evenodd;stroke:#f6f7f7;stroke-width:0.258758pt;stroke-opacity:0.39285697"
           d="m -240.50776,229.78294 c 0,0 -22.81766,-36.11342 -5.10736,-72.60151 14.07542,-29.33095 18.44393,-56.33637 6.99558,-75.443248 -20.33202,2.534438 -38.03158,12.92537 -46.80114,21.798688 -13.28362,12.94524 -19.63978,26.51668 -22.51796,36.0037 3.83757,46.78081 67.75067,91.22378 67.43088,90.24237 z"
           id="path6952"
           sodipodi:nodetypes="cscscc" />
        <path
           inkscape:connector-curvature="0"
           style="font-size:12px;fill:url(#linearGradient6970);fill-rule:evenodd;stroke:#323232;stroke-width:1.49094558"
           d="m -234.66984,231.57302 c -0.60598,-0.56617 29.82415,-45.68489 67.0215,-51.81142 0.11433,-48.63534 22.4766,-66.52604 23.8921,-69.57109 -2.98876,-16.157233 -11.76407,-22.259678 -19.68436,-23.545102 -13.42424,-1.710857 -10.90468,4.311963 -12.55406,5.915579 -9.08384,20.513563 -28.10799,49.472103 -30.79319,54.650223 -7.55539,10.46944 -23.55538,62.14053 -29.95509,84.25927 z"
           id="path6954"
           sodipodi:nodetypes="cccccccc" />
        <ellipse
           ry="6.5971813"
           rx="2.2994301"
           cy="243.68736"
           cx="-95.661873"
           style="font-size:12px;fill:#665123;fill-rule:evenodd;stroke-width:0.62616724"
           id="ellipse6956"
           transform="matrix(0.8311385,0.55606546,-0.5148583,0.8572753,0,0)" />
        <path
           inkscape:connector-curvature="0"
           style="font-size:12px;fill:#665123;fill-rule:evenodd;stroke:#665123;stroke-width:0.46014217"
           d="m -207.72772,161.02494 -0.59592,-0.44759 c -0.68544,-0.51481 -23.66829,59.81261 -27.21492,70.62077 3.52462,-11.39652 24.26353,-65.41849 27.81084,-70.17318 z"
           id="path6958"
           sodipodi:nodetypes="cscc" />
        <path
           inkscape:connector-curvature="0"
           style="font-size:12px;fill:url(#linearGradient6972);fill-rule:evenodd;stroke-width:0.26458331pt"
           d="m -194.83475,181.35774 c 8.06902,-6.34375 11.62533,-11.50654 19.61439,-13.07994 -1.38018,-19.83556 13.86535,-43.78794 26.25814,-66.18502 l -2.23167,-4.02702 c -5.1264,7.76421 -35.59196,63.55171 -43.64086,83.29198 z"
           id="path6960"
           sodipodi:nodetypes="ccccc" />
      </g>
    </clipPath>
    <linearGradient
       inkscape:collect="always"
       xlink:href="#linearGradient619"
       id="linearGradient6964"
       gradientUnits="userSpaceOnUse"
       gradientTransform="matrix(0.22601925,0,0,0.23120747,-307.04666,105.61291)"
       x1="27.984485"
       y1="-79.004845"
       x2="332.46687"
       y2="605.53151" />
    <linearGradient
       inkscape:collect="always"
       xlink:href="#linearGradient619"
       id="linearGradient6966"
       gradientUnits="userSpaceOnUse"
       gradientTransform="matrix(0.22020688,0,0,0.22401053,-304.63566,106.32345)"
       x1="34.350778"
       y1="-72.169076"
       x2="332.64537"
       y2="598.45589" />
    <linearGradient
       inkscape:collect="always"
       xlink:href="#linearGradient624"
       id="linearGradient6968"
       gradientUnits="userSpaceOnUse"
       gradientTransform="matrix(0.1895887,0,0,0.36924321,-323.59385,62.272837)"
       x1="273.63622"
       y1="74.198003"
       x2="411.62374"
       y2="425.91623" />
    <linearGradient
       inkscape:collect="always"
       xlink:href="#linearGradient578"
       id="linearGradient6970"
       gradientUnits="userSpaceOnUse"
       gradientTransform="matrix(0.21253753,0,0,0.32937402,-323.59385,62.272837)"
       x1="596.05675"
       y1="231.00583"
       x2="656.45555"
       y2="279.76099" />
    <linearGradient
       inkscape:collect="always"
       xlink:href="#linearGradient593"
       id="linearGradient6972"
       gradientUnits="userSpaceOnUse"
       gradientTransform="matrix(0.19635286,0,0,0.35652313,-323.59385,62.272837)"
       x1="779.71681"
       y1="160.6253"
       x2="908.4478"
       y2="264.66051" />
  </defs>
  <sodipodi:namedview
     id="base"
     pagecolor="#ffffff"
     bordercolor="#666666"
     borderopacity="1.0"
     inkscape:pageopacity="0.0"
     inkscape:pageshadow="2"
     inkscape:zoom="0.98994949"
     inkscape:cx="236.1622"
     inkscape:cy="137.36197"
     inkscape:document-units="mm"
     inkscape:current-layer="layer3"
     showgrid="false"
     units="px"
     inkscape:window-width="1366"
     inkscape:window-height="704"
     inkscape:window-x="0"
     inkscape:window-y="28"
     inkscape:window-maximized="1"
     showguides="true" />
  <metadata
     id="metadata4635">
    <rdf:RDF>
      <cc:Work
         rdf:about="">
        <dc:format>image/svg+xml</dc:format>
        <dc:type
           rdf:resource="http://purl.org/dc/dcmitype/StillImage" />
        <dc:title />
      </cc:Work>
    </rdf:RDF>
  </metadata>
  <g
     inkscape:label="back"
     inkscape:groupmode="layer"
     id="layer1"
     transform="translate(0,-205.45415)"
     style="display:inline">
    <rect
       style="fill:#f2f2f2;fill-opacity:1;stroke:none;stroke-width:1.09014082;stroke-linecap:round;stroke-miterlimit:4;stroke-dasharray:none;stroke-opacity:1"
       id="rect5526"
       width="147.37291"
       height="91.54583"
       x="0"
       y="205.45415" />
  </g>
  <g
     inkscape:groupmode="layer"
     id="layer3"
     inkscape:label="mid">
    <rect
       style="opacity:0.02600002;fill:#000000;fill-opacity:1;stroke:none;stroke-width:0.05430949;stroke-linecap:round;stroke-miterlimit:4;stroke-dasharray:none;stroke-opacity:1"
       id="rect6019"
       width="16.837978"
       height="94.102341"
       x="17.04767"
       y="-0.130615"
       transform="matrix(1,0,-0.21310672,0.97702893,0,0)" />
    <rect
       y="-0.130615"
       x="58.741714"
       height="94.102341"
       width="26.459681"
       id="rect6025"
       style="opacity:0.02600002;fill:#000000;fill-opacity:1;stroke:none;stroke-width:0.06808054;stroke-linecap:round;stroke-miterlimit:4;stroke-dasharray:none;stroke-opacity:1"
       transform="matrix(1,0,-0.21310672,0.97702893,0,0)" />
    <rect
       style="opacity:0.02600002;fill:#000000;fill-opacity:1;stroke:none;stroke-width:0.06808054;stroke-linecap:round;stroke-miterlimit:4;stroke-dasharray:none;stroke-opacity:1"
       id="rect6027"
       width="26.459681"
       height="94.102341"
       x="76.3815"
       y="-0.130615"
       transform="matrix(1,0,-0.21310672,0.97702893,0,0)" />
    <rect
       y="-0.130615"
       x="123.6882"
       height="94.102341"
       width="26.459681"
       id="rect6029"
       style="opacity:0.02600002;fill:#000000;fill-opacity:1;stroke:none;stroke-width:0.06808054;stroke-linecap:round;stroke-miterlimit:4;stroke-dasharray:none;stroke-opacity:1"
       transform="matrix(1,0,-0.21310672,0.97702893,0,0)" />
  </g>
  <g
     inkscape:groupmode="layer"
     id="layer2"
     inkscape:label="fore"
     style="display:inline">
    <path
       sodipodi:nodetypes="ccccc"
       inkscape:connector-curvature="0"
       id="path5784"
       d="m 0,84.876454 c 60.304333,4.948251 54.27519,-18.433956 128.9313,-1.936269 v 8.605634 H 0 Z"
       style="fill:#d95600;fill-opacity:1;stroke:none;stroke-width:0.23207884;stroke-linecap:round;stroke-miterlimit:4;stroke-dasharray:none;stroke-opacity:1" />
    <path
       sodipodi:nodetypes="ccccc"
       inkscape:connector-curvature="0"
       id="path5788"
       d="M 147.3729,79.92821 C 95.084434,71.260369 104.65408,90.753436 29.666918,82.940185 v 8.605634 H 147.3729 Z"
       style="fill:#b74900;fill-opacity:1;stroke:none;stroke-width:0.22174589;stroke-linecap:round;stroke-miterlimit:4;stroke-dasharray:none;stroke-opacity:1" />
    <path
       style="fill:#ff7f2a;fill-opacity:1;stroke:none;stroke-width:0.24812193;stroke-linecap:round;stroke-miterlimit:4;stroke-dasharray:none;stroke-opacity:1"
       d="m 0,79.92821 c 28.851464,-12.54038 58.831169,8.243525 100.60073,11.617609 v 0 H 0 Z"
       id="rect5652"
       inkscape:connector-curvature="0"
       sodipodi:nodetypes="ccccc" />
    <g
       id="g6682"
       transform="translate(-5.558955)">
      <rect
         transform="matrix(1,0,-0.25182799,0.96777201,0,0)"
         y="44.469582"
         x="70.063164"
         height="12.565732"
         width="43.926266"
         id="rect5780"
         style="fill:#4d4d4d;fill-opacity:1;stroke:none;stroke-width:0.07894228;stroke-linecap:round;stroke-miterlimit:4;stroke-dasharray:none;stroke-opacity:1" />
      <text
         id="text5644"
         y="53.0933"
         x="60.148384"
         style="font-style:normal;font-weight:normal;font-size:10.58333302px;line-height:1.25;font-family:sans-serif;letter-spacing:0px;word-spacing:0px;fill:#f2f2f2;fill-opacity:1;stroke:none;stroke-width:0.26458332"
         xml:space="preserve"><tspan
           style="font-style:normal;font-variant:normal;font-weight:bold;font-stretch:normal;font-family:'Roboto Slab';-inkscape-font-specification:'Roboto Slab Bold';fill:#f2f2f2;fill-opacity:1;stroke-width:0.26458332"
           y="53.0933"
           x="60.148384"
           id="tspan5642"
           sodipodi:role="line">Scribus</tspan></text>
    </g>
    <text
       xml:space="preserve"
       style="font-style:normal;font-weight:normal;font-size:4.00750065px;line-height:1.25;font-family:sans-serif;letter-spacing:0px;word-spacing:0px;fill:#595959;fill-opacity:1;stroke:none;stroke-width:0.10018751"
       x="73.402725"
       y="61.108627"
       id="text5648"><tspan
         sodipodi:role="line"
         id="tspan5646"
         x="73.402725"
         y="61.108627"
         style="font-style:normal;font-variant:normal;font-weight:300;font-stretch:normal;font-family:Roboto;-inkscape-font-specification:'Roboto Light';text-align:center;text-anchor:middle;fill:#595959;fill-opacity:1;stroke-width:0.10018751">Open Source Desktop Publishing</tspan></text>
    <g
       transform="matrix(0.07481425,0,0,0.07481425,78.72711,-42.828134)"
       id="g6104"
       style="display:inline;fill:#d95600;fill-opacity:1;stroke:none">
      <path
         style="color:#000000;font-style:normal;font-variant:normal;font-weight:normal;font-stretch:normal;font-size:medium;line-height:normal;font-family:sans-serif;font-variant-ligatures:normal;font-variant-position:normal;font-variant-caps:normal;font-variant-numeric:normal;font-variant-alternates:normal;font-feature-settings:normal;text-indent:0;text-align:start;text-decoration:none;text-decoration-line:none;text-decoration-style:solid;text-decoration-color:#000000;letter-spacing:normal;word-spacing:normal;text-transform:none;writing-mode:lr-tb;direction:ltr;text-orientation:mixed;dominant-baseline:auto;baseline-shift:baseline;text-anchor:start;white-space:normal;shape-padding:0;clip-rule:nonzero;display:inline;overflow:visible;visibility:visible;opacity:1;isolation:auto;mix-blend-mode:normal;color-interpolation:sRGB;color-interpolation-filters:linearRGB;solid-color:#000000;solid-opacity:1;vector-effect:none;fill:#d95600;fill-opacity:1;fill-rule:nonzero;stroke:none;stroke-width:10.60067558;stroke-linecap:butt;stroke-linejoin:miter;stroke-miterlimit:4;stroke-dasharray:none;stroke-dashoffset:0;stroke-opacity:1;color-rendering:auto;image-rendering:auto;shape-rendering:auto;text-rendering:auto;enable-background:accumulate"
         d="m 531.22852,621.63281 c -14.26478,0 -25.94141,11.67858 -25.94141,25.94336 0,14.26479 11.67663,25.94141 25.94141,25.94141 14.2648,0 25.94336,-11.67662 25.94336,-25.94141 0,-14.26478 -11.67856,-25.94336 -25.94336,-25.94336 z m 0,10.60157 c 8.53579,0 15.34179,6.80604 15.34179,15.34179 0,8.53576 -6.806,15.3418 -15.34179,15.3418 -8.53575,0 -15.3418,-6.80604 -15.3418,-15.3418 0,-8.53575 6.80605,-15.34179 15.3418,-15.34179 z"
         id="path6106"
         inkscape:connector-curvature="0" />
      <path
         style="color:#000000;font-style:normal;font-variant:normal;font-weight:normal;font-stretch:normal;font-size:medium;line-height:normal;font-family:sans-serif;font-variant-ligatures:normal;font-variant-position:normal;font-variant-caps:normal;font-variant-numeric:normal;font-variant-alternates:normal;font-feature-settings:normal;text-indent:0;text-align:start;text-decoration:none;text-decoration-line:none;text-decoration-style:solid;text-decoration-color:#000000;letter-spacing:normal;word-spacing:normal;text-transform:none;writing-mode:lr-tb;direction:ltr;text-orientation:mixed;dominant-baseline:auto;baseline-shift:baseline;text-anchor:start;white-space:normal;shape-padding:0;clip-rule:nonzero;display:inline;overflow:visible;visibility:visible;opacity:1;isolation:auto;mix-blend-mode:normal;color-interpolation:sRGB;color-interpolation-filters:linearRGB;solid-color:#000000;solid-opacity:1;vector-effect:none;fill:#d95600;fill-opacity:1;fill-rule:nonzero;stroke:none;stroke-width:8.62159538;stroke-linecap:round;stroke-linejoin:round;stroke-miterlimit:4;stroke-dasharray:none;stroke-dashoffset:0;stroke-opacity:1;color-rendering:auto;image-rendering:auto;shape-rendering:auto;text-rendering:auto;enable-background:accumulate"
         d="m 561.11914,622.30078 a 4.3112288,4.3112288 0 0 0 -4.31055,4.31055 v 44.30273 a 4.3112288,4.3112288 0 0 0 4.31055,4.3125 h 0.48633 a 4.3112288,4.3112288 0 0 0 4.31055,-4.3125 v -44.30273 a 4.3112288,4.3112288 0 0 0 -4.31055,-4.31055 z"
         id="path6108"
         inkscape:connector-curvature="0" />
      <g
         style="fill:#d95600;fill-opacity:1;stroke:none"
         id="g6110">
        <path
           d="m 613.18495,626.7424 h -8.64546 v 16.27379 c 0.11299,3e-5 0.64981,3e-5 1.61045,0 0.96065,-0.0565 1.86468,-0.0848 2.71234,-0.0848 0.90403,-0.0565 2.11891,-0.14123 3.64462,-0.25427 1.5822,-0.16949 2.79707,-0.339 3.64461,-0.50856 0.90415,-0.22599 1.92118,-0.56503 3.05142,-1.01712 1.18651,-0.45201 2.06241,-0.98882 2.62748,-1.61042 1.4691,-1.46913 2.20376,-3.27733 2.20376,-5.4246 0,-3.61635 -2.03428,-5.90485 -6.10272,-6.8655 -1.35611,-0.339 -2.93831,-0.50852 -4.7465,-0.50856 m 0.59331,22.88503 -9.23877,0.50855 v 17.03662 h 8.30649 c 3.67286,10e-6 6.24385,-0.1695 7.71306,-0.50854 1.5256,-0.33903 2.82532,-0.70633 3.89896,-1.10188 1.07352,-0.45204 1.92117,-0.96059 2.54273,-1.52567 1.58221,-1.35613 2.37325,-3.10782 2.37325,-5.25508 0,-2.82529 -1.41272,-5.05728 -4.23793,-6.69599 -2.76882,-1.63865 -6.55479,-2.458 -11.35779,-2.45801 m -19.66417,-31.70001 h 21.18988 c 5.53755,6e-5 9.83208,0.93242 12.88339,2.79707 2.99481,1.80825 5.00073,3.84247 6.01798,6.10266 0.96053,2.2038 1.41261,4.23802 1.35611,6.10268 0,1.86475 -0.50857,3.78596 -1.52571,5.76364 -0.96064,1.92124 -2.23201,3.53167 -3.8141,4.83128 4.5769,1.86473 7.57171,5.22685 8.98443,10.08636 0.39546,1.52569 0.59331,3.0231 0.59331,4.49224 0,1.41267 -0.16948,2.82534 -0.50857,4.23798 -0.33908,1.41266 -1.10188,3.02309 -2.2885,4.83127 -1.13014,1.7517 -2.59924,3.33389 -4.40742,4.74654 -1.8083,1.35614 -4.35104,2.51452 -7.62832,3.47513 -3.22091,0.90409 -6.92213,1.35614 -11.10357,1.35614 h -19.74891 v -58.82299"
           style="font-style:normal;font-weight:bold;font-size:75.31466675px;line-height:125%;font-family:Sans;-inkscape-font-specification:'Sans Bold';letter-spacing:0px;word-spacing:0px;fill:#d95600;fill-opacity:1;stroke:none"
           id="path6112"
           inkscape:connector-curvature="0" />
        <path
           d="m 661.60117,637.76111 c 5.31156,-1.80816 10.19941,-2.71226 14.66344,-2.71229 4.5204,3e-5 8.05203,0.39558 10.59488,1.18662 2.59923,0.79113 4.54865,1.92126 5.84838,3.39038 2.42975,2.65583 3.64462,6.1027 3.64462,10.34064 v 26.78395 h -7.62832 l -1.10189,-2.7123 c -3.72947,2.37326 -7.9109,3.5599 -12.54441,3.5599 -6.4417,0 -11.30118,-1.83646 -14.57859,-5.50936 -1.75169,-2.03422 -2.62748,-4.18145 -2.62748,-6.44171 0,-2.09072 0.28248,-3.84241 0.84755,-5.25508 0.56506,-1.46915 1.49746,-2.65577 2.79707,-3.5599 1.29962,-0.96058 2.68409,-1.72341 4.15319,-2.2885 1.46922,-0.62155 3.39039,-1.0736 5.76364,-1.35615 3.84246,-0.45202 8.75845,-0.67805 14.74818,-0.67807 v -0.59332 c -1.1e-4,-3.72938 -1.52571,-6.10264 -4.57701,-7.11979 -1.41272,-0.45201 -3.50349,-0.67804 -6.27221,-0.67807 -2.76883,3e-5 -6.58305,0.59335 -11.44254,1.77994 l -1.61045,0.50856 -2.11891,-8.22165 1.44086,-0.4238 m 24.58026,28.39439 v -5.93316 h -1.01714 c -6.21571,2e-5 -10.5385,0.25429 -12.96824,0.76283 -2.37325,0.50857 -3.55988,1.75171 -3.55988,3.72942 0,1.29965 0.7628,2.31676 2.28851,3.05133 1.5822,0.73459 3.87071,1.10188 6.86552,1.10188 2.99481,0 5.79189,-0.9041 8.39123,-2.7123"
           style="font-style:normal;font-weight:bold;font-size:75.31466675px;line-height:125%;font-family:Sans;-inkscape-font-specification:'Sans Bold';letter-spacing:0px;word-spacing:0px;fill:#d95600;fill-opacity:1;stroke:none"
           id="path6114"
           inkscape:connector-curvature="0" />
        <path
           d="m 700.49172,635.8964 h 7.11975 l 1.35611,2.79707 c 5.31157,-2.42974 10.11467,-3.64462 14.4091,-3.64465 7.00675,3e-5 11.52728,2.59932 13.56155,7.79785 1.01703,2.59932 1.55384,5.84842 1.61034,9.74733 v 24.15641 h -10.2558 v -23.9869 c -1.1e-4,-2.88178 -0.62167,-4.94426 -1.86467,-6.18742 -1.29974,-1.35613 -3.36226,-2.03419 -6.18747,-2.03423 -2.76883,4e-5 -5.96148,0.76287 -9.57786,2.2885 v 29.92005 H 700.49172 V 635.8964"
           style="font-style:normal;font-weight:bold;font-size:75.31466675px;line-height:125%;font-family:Sans;-inkscape-font-specification:'Sans Bold';letter-spacing:0px;word-spacing:0px;fill:#d95600;fill-opacity:1;stroke:none"
           id="path6116"
           inkscape:connector-curvature="0" />
        <path
           d="m 753.07741,652.25496 17.63,-17.20614 h 12.20534 l -20.17274,18.73181 20.85079,22.96978 h -12.54442 l -17.96897,-20.34224 v 20.34224 h -10.17116 v -58.82299 h 10.17116 v 34.32754"
           style="font-style:normal;font-weight:bold;font-size:75.31466675px;line-height:125%;font-family:Sans;-inkscape-font-specification:'Sans Bold';letter-spacing:0px;word-spacing:0px;fill:#d95600;fill-opacity:1;stroke:none"
           id="path6118"
           inkscape:connector-curvature="0" />
        <path
           d="m 810.74543,621.83572 c 5.42455,6e-5 10.31229,1.18669 14.66332,3.5599 4.35092,2.3168 7.7978,5.73542 10.34066,10.25587 2.59922,4.52054 3.89884,9.71911 3.89895,15.59573 -1.1e-4,9.04101 -2.76894,16.41507 -8.30648,22.12219 -5.48117,5.65063 -12.45968,8.47592 -20.93554,8.47592 -7.51533,0 -14.09837,-2.45801 -19.74891,-7.37405 -2.71233,-2.37325 -4.88785,-5.50934 -6.52643,-9.40829 -1.63871,-3.89891 -2.45811,-8.24989 -2.45811,-13.05294 0,-9.04096 2.74058,-16.33025 8.22174,-21.86791 5.53755,-5.53756 12.48781,-8.30636 20.8508,-8.30642 m 6.18735,10.76443 c -2.14727,-0.79103 -4.35092,-1.18658 -6.61118,-1.18662 -2.20376,4e-5 -4.35103,0.39559 -6.44169,1.18662 -2.09078,0.79114 -4.01196,1.94952 -5.76365,3.47514 -1.75169,1.52572 -3.1644,3.58819 -4.23804,6.18743 -1.01703,2.59933 -1.5256,5.5659 -1.5256,8.89973 0,6.38523 1.77994,11.5273 5.33982,15.4262 3.55988,3.84244 7.99565,5.76365 13.30721,5.76364 4.57702,10e-6 8.61721,-1.58216 12.12059,-4.74652 1.75169,-1.58216 3.1643,-3.7294 4.23793,-6.44171 1.07364,-2.71227 1.61045,-5.79186 1.61045,-9.23877 0,-3.50335 -0.56506,-6.6112 -1.69519,-9.32353 -1.07363,-2.71226 -2.54285,-4.85949 -4.40741,-6.44171 -1.8083,-1.58213 -3.78597,-2.76876 -5.93324,-3.5599"
           style="font-style:normal;font-weight:bold;font-size:75.31466675px;line-height:125%;font-family:Sans;-inkscape-font-specification:'Sans Bold';letter-spacing:0px;word-spacing:0px;fill:#d95600;fill-opacity:1;stroke:none"
           id="path6120"
           inkscape:connector-curvature="0" />
        <path
           d="m 842.37038,635.8964 h 7.11986 l 1.35611,2.79707 c 5.31156,-2.42974 10.11454,-3.64462 14.40911,-3.64465 7.00676,3e-5 11.52726,2.59932 13.56141,7.79785 1.01717,2.59932 1.55395,5.84842 1.61045,9.74733 v 24.15641 h -10.25589 v -23.9869 c 0,-2.88178 -0.62155,-4.94426 -1.8647,-6.18742 -1.2996,-1.35613 -3.36212,-2.03419 -6.18735,-2.03423 -2.76881,4e-5 -5.96147,0.76287 -9.57784,2.2885 v 29.92005 H 842.37038 V 635.8964"
           style="font-style:normal;font-weight:bold;font-size:75.31466675px;line-height:125%;font-family:Sans;-inkscape-font-specification:'Sans Bold';letter-spacing:0px;word-spacing:0px;fill:#d95600;fill-opacity:1;stroke:none"
           id="path6122"
           inkscape:connector-curvature="0" />
        <rect
           style="fill:#d95600;fill-opacity:1;stroke:none"
           id="rect6124"
           width="11.269748"
           height="59.154606"
           x="643.2619"
           y="617.88428"
           ry="1.3444229" />
      </g>
    </g>
    <g
       id="g6998"
       transform="matrix(0.64808896,0,0,0.64808896,-7.4466301,-27.303049)">
      <ellipse
         cy="53.101757"
         cx="-18.838934"
         style="font-size:12px;fill:#4d4d4d;fill-opacity:1;fill-rule:evenodd;stroke:none;stroke-width:0.5048008;stroke-dasharray:none;stroke-opacity:1"
         id="path869"
         rx="12.063698"
         ry="12.272075" />
      <ellipse
         ry="2.1998317"
         rx="3.760035"
         cy="38.8829"
         cx="26.466906"
         style="font-size:12px;fill:#4d4d4d;fill-opacity:1;fill-rule:evenodd;stroke:#f2f2f2;stroke-width:0.02751566pt;stroke-opacity:1"
         id="path686"
         transform="matrix(0.76519888,0.64379396,-0.73696278,0.67593333,0,0)" />
      <path
         inkscape:connector-curvature="0"
         style="font-size:12px;fill:#4d4d4d;fill-opacity:1;fill-rule:evenodd;stroke:#f2f2f2;stroke-width:0.40000001;stroke-miterlimit:4;stroke-dasharray:none;stroke-opacity:1"
         d="m -9.6824349,55.439131 c 0.016928,-7.201116 3.3279627,-9.850074 3.5375465,-10.300935 -0.4425261,-2.392296 -1.7418287,-3.295845 -2.9145341,-3.486169 -1.9876395,-0.253315 -1.6145845,0.638444 -1.8587975,0.875881 -1.344984,3.037309 -4.161765,7.32501 -4.559345,8.0917 -1.118677,1.550141 -3.487691,9.200741 -4.435254,12.475718 3.872055,-3.224379 6.06659,-6.809125 10.2303841,-7.656195 z"
         id="hrot"
         sodipodi:nodetypes="ccccccc" />
      <ellipse
         ry="0.97680134"
         rx="0.34046155"
         cy="51.636707"
         cx="13.688181"
         style="font-size:12px;fill:#f2f2f2;fill-opacity:1;fill-rule:evenodd;stroke:#f2f2f2;stroke-width:0.40023834;stroke-miterlimit:4;stroke-dasharray:none;stroke-opacity:1"
         id="path583"
         transform="matrix(0.83113852,0.55606542,-0.51485829,0.8572753,0,0)" />
      <path
         inkscape:connector-curvature="0"
         style="font-size:12px;fill:#f2f2f2;fill-opacity:1;fill-rule:evenodd;stroke:#f2f2f2;stroke-width:0.40000001;stroke-miterlimit:4;stroke-dasharray:none;stroke-opacity:1"
         d="m -15.616726,52.664917 -0.08823,-0.06627 c -0.101488,-0.07623 -3.504408,8.856061 -4.029534,10.456354 0.521867,-1.687408 3.592541,-9.686087 4.117768,-10.390082 z"
         id="path585"
         sodipodi:nodetypes="cscc" />
    </g>
    <path
       style="fill:#4d4d4d;fill-opacity:1;stroke-width:1.20600963"
       d="M 73.419072,16.364761 A 12.060096,12.060096 0 0 0 61.359162,28.424898 12.060096,12.060096 0 0 0 73.419072,40.485034 12.060096,12.060096 0 0 0 85.479207,28.424898 12.060096,12.060096 0 0 0 73.419072,16.364761 Z m 2.374408,5.009553 c 1.345664,-0.02439 2.449782,1.388769 2.449782,2.802062 -0.393158,0.605416 -0.869946,1.32059 -1.173882,1.987516 -0.741671,1.604595 -0.608668,3.419139 -0.635104,5.248658 -1.815046,0.610238 -3.238097,1.305955 -4.731738,2.859901 -0.601799,0.673558 -1.467869,1.596819 -1.90144,2.567057 -0.589136,-0.0056 -0.44236,0.06455 -1.205763,0 0.468532,-1.793936 0.950989,-3.643281 1.485856,-5.428782 1.009548,-3.335824 2.572527,-6.311956 4.54387,-9.646332 h 2.29e-4 c 0.395722,-0.263814 0.791404,-0.383252 1.16819,-0.39008 z"
       id="circle2"
       inkscape:connector-curvature="0" />
  </g>
</svg>
